%FSLAX45Y45*%
G04 Gerber Fmt 4.5, Leading zero omitted, Abs format (unit mm)*
G04 Created by KiCad (PCBNEW (5.1.10)-1) date 2022-02-12 13:06:28*
%MOMM*%
%LPD*%
G01*
G04 APERTURE LIST*
%TA.AperFunction,Profile*%
%ADD10C,0.025400*%
%TD*%
%ADD11C,0.200000*%
%ADD12C,0.300000*%
G04 APERTURE END LIST*
D10*
X7543800Y-2641600D02*
X11861800Y-2641600D01*
X7543800Y-12547600D02*
X11861800Y-12547600D01*
X7162800Y-12166600D02*
X7162800Y-3022600D01*
X12242800Y-3022600D02*
X12242800Y-12166600D01*
X7543800Y-12547600D02*
G75*
G02*
X7162800Y-12166600I0J381000D01*
G01*
X12242800Y-12166600D02*
G75*
G02*
X11861800Y-12547600I-381000J0D01*
G01*
X7162800Y-3022600D02*
G75*
G02*
X7543800Y-2641600I381000J0D01*
G01*
X11861800Y-2641600D02*
G75*
G02*
X12242800Y-3022600I0J-381000D01*
G01*
D11*
X7828600Y-4196400D02*
X7868600Y-4236400D01*
X7868600Y-4196400D02*
X7828600Y-4236400D01*
X8031800Y-10622600D02*
X8071800Y-10662600D01*
X8071800Y-10622600D02*
X8031800Y-10662600D01*
X8285800Y-7828600D02*
X8325800Y-7868600D01*
X8325800Y-7828600D02*
X8285800Y-7868600D01*
X8412800Y-3891600D02*
X8452800Y-3931600D01*
X8452800Y-3891600D02*
X8412800Y-3931600D01*
X8412800Y-6050600D02*
X8452800Y-6090600D01*
X8452800Y-6050600D02*
X8412800Y-6090600D01*
X8412800Y-7574600D02*
X8452800Y-7614600D01*
X8452800Y-7574600D02*
X8412800Y-7614600D01*
X10952800Y-5542600D02*
X10992800Y-5582600D01*
X10992800Y-5542600D02*
X10952800Y-5582600D01*
X10952800Y-7066600D02*
X10992800Y-7106600D01*
X10992800Y-7066600D02*
X10952800Y-7106600D01*
X11206800Y-6812600D02*
X11246800Y-6852600D01*
X11246800Y-6812600D02*
X11206800Y-6852600D01*
X7328800Y-3022600D02*
G75*
G03*
X7328800Y-3022600I-25000J0D01*
G01*
X7328800Y-12166600D02*
G75*
G03*
X7328800Y-12166600I-25000J0D01*
G01*
X7399094Y-2852894D02*
G75*
G03*
X7399094Y-2852894I-25000J0D01*
G01*
X7399094Y-3192306D02*
G75*
G03*
X7399094Y-3192306I-25000J0D01*
G01*
X7399094Y-11996894D02*
G75*
G03*
X7399094Y-11996894I-25000J0D01*
G01*
X7399094Y-12336306D02*
G75*
G03*
X7399094Y-12336306I-25000J0D01*
G01*
X7568800Y-2782600D02*
G75*
G03*
X7568800Y-2782600I-25000J0D01*
G01*
X7568800Y-3262600D02*
G75*
G03*
X7568800Y-3262600I-25000J0D01*
G01*
X7568800Y-11926600D02*
G75*
G03*
X7568800Y-11926600I-25000J0D01*
G01*
X7568800Y-12406600D02*
G75*
G03*
X7568800Y-12406600I-25000J0D01*
G01*
X7738506Y-2852894D02*
G75*
G03*
X7738506Y-2852894I-25000J0D01*
G01*
X7738506Y-3192306D02*
G75*
G03*
X7738506Y-3192306I-25000J0D01*
G01*
X7738506Y-11996894D02*
G75*
G03*
X7738506Y-11996894I-25000J0D01*
G01*
X7738506Y-12336306D02*
G75*
G03*
X7738506Y-12336306I-25000J0D01*
G01*
X7808800Y-3022600D02*
G75*
G03*
X7808800Y-3022600I-25000J0D01*
G01*
X7808800Y-12166600D02*
G75*
G03*
X7808800Y-12166600I-25000J0D01*
G01*
X11646800Y-3022600D02*
G75*
G03*
X11646800Y-3022600I-25000J0D01*
G01*
X11646800Y-12166600D02*
G75*
G03*
X11646800Y-12166600I-25000J0D01*
G01*
X11717094Y-2852894D02*
G75*
G03*
X11717094Y-2852894I-25000J0D01*
G01*
X11717094Y-3192306D02*
G75*
G03*
X11717094Y-3192306I-25000J0D01*
G01*
X11717094Y-11996894D02*
G75*
G03*
X11717094Y-11996894I-25000J0D01*
G01*
X11717094Y-12336306D02*
G75*
G03*
X11717094Y-12336306I-25000J0D01*
G01*
X11886800Y-2782600D02*
G75*
G03*
X11886800Y-2782600I-25000J0D01*
G01*
X11886800Y-3262600D02*
G75*
G03*
X11886800Y-3262600I-25000J0D01*
G01*
X11886800Y-11926600D02*
G75*
G03*
X11886800Y-11926600I-25000J0D01*
G01*
X11886800Y-12406600D02*
G75*
G03*
X11886800Y-12406600I-25000J0D01*
G01*
X12056506Y-2852894D02*
G75*
G03*
X12056506Y-2852894I-25000J0D01*
G01*
X12056506Y-3192306D02*
G75*
G03*
X12056506Y-3192306I-25000J0D01*
G01*
X12056506Y-11996894D02*
G75*
G03*
X12056506Y-11996894I-25000J0D01*
G01*
X12056506Y-12336306D02*
G75*
G03*
X12056506Y-12336306I-25000J0D01*
G01*
X12126800Y-3022600D02*
G75*
G03*
X12126800Y-3022600I-25000J0D01*
G01*
X12126800Y-12166600D02*
G75*
G03*
X12126800Y-12166600I-25000J0D01*
G01*
X8686800Y-3744600D02*
X8686800Y-3824600D01*
X8646800Y-3784600D02*
X8726800Y-3784600D01*
X8686800Y-3998600D02*
X8686800Y-4078600D01*
X8646800Y-4038600D02*
X8726800Y-4038600D01*
X8686800Y-4252600D02*
X8686800Y-4332600D01*
X8646800Y-4292600D02*
X8726800Y-4292600D01*
X8686800Y-4506600D02*
X8686800Y-4586600D01*
X8646800Y-4546600D02*
X8726800Y-4546600D01*
X8686800Y-4760600D02*
X8686800Y-4840600D01*
X8646800Y-4800600D02*
X8726800Y-4800600D01*
X8686800Y-5014600D02*
X8686800Y-5094600D01*
X8646800Y-5054600D02*
X8726800Y-5054600D01*
X8686800Y-5268600D02*
X8686800Y-5348600D01*
X8646800Y-5308600D02*
X8726800Y-5308600D01*
X8686800Y-5522600D02*
X8686800Y-5602600D01*
X8646800Y-5562600D02*
X8726800Y-5562600D01*
X8686800Y-5776600D02*
X8686800Y-5856600D01*
X8646800Y-5816600D02*
X8726800Y-5816600D01*
X8686800Y-6030600D02*
X8686800Y-6110600D01*
X8646800Y-6070600D02*
X8726800Y-6070600D01*
X8686800Y-6284600D02*
X8686800Y-6364600D01*
X8646800Y-6324600D02*
X8726800Y-6324600D01*
X8686800Y-6538600D02*
X8686800Y-6618600D01*
X8646800Y-6578600D02*
X8726800Y-6578600D01*
X8686800Y-6792600D02*
X8686800Y-6872600D01*
X8646800Y-6832600D02*
X8726800Y-6832600D01*
X8686800Y-7046600D02*
X8686800Y-7126600D01*
X8646800Y-7086600D02*
X8726800Y-7086600D01*
X8686800Y-7300600D02*
X8686800Y-7380600D01*
X8646800Y-7340600D02*
X8726800Y-7340600D01*
X8686800Y-7554600D02*
X8686800Y-7634600D01*
X8646800Y-7594600D02*
X8726800Y-7594600D01*
X10718800Y-4760600D02*
X10718800Y-4840600D01*
X10678800Y-4800600D02*
X10758800Y-4800600D01*
X10718800Y-5014600D02*
X10718800Y-5094600D01*
X10678800Y-5054600D02*
X10758800Y-5054600D01*
X10718800Y-5268600D02*
X10718800Y-5348600D01*
X10678800Y-5308600D02*
X10758800Y-5308600D01*
X10718800Y-5522600D02*
X10718800Y-5602600D01*
X10678800Y-5562600D02*
X10758800Y-5562600D01*
X10718800Y-5776600D02*
X10718800Y-5856600D01*
X10678800Y-5816600D02*
X10758800Y-5816600D01*
X10718800Y-6030600D02*
X10718800Y-6110600D01*
X10678800Y-6070600D02*
X10758800Y-6070600D01*
X10718800Y-6284600D02*
X10718800Y-6364600D01*
X10678800Y-6324600D02*
X10758800Y-6324600D01*
X10718800Y-6538600D02*
X10718800Y-6618600D01*
X10678800Y-6578600D02*
X10758800Y-6578600D01*
X10718800Y-6792600D02*
X10718800Y-6872600D01*
X10678800Y-6832600D02*
X10758800Y-6832600D01*
X10718800Y-7046600D02*
X10718800Y-7126600D01*
X10678800Y-7086600D02*
X10758800Y-7086600D01*
X10718800Y-7300600D02*
X10718800Y-7380600D01*
X10678800Y-7340600D02*
X10758800Y-7340600D01*
X10718800Y-7554600D02*
X10718800Y-7634600D01*
X10678800Y-7594600D02*
X10758800Y-7594600D01*
X7960156Y-4835956D02*
X7960156Y-4765244D01*
X7889444Y-4765244D01*
X7889444Y-4835956D01*
X7960156Y-4835956D01*
X7960156Y-5089956D02*
X7960156Y-5019244D01*
X7889444Y-5019244D01*
X7889444Y-5089956D01*
X7960156Y-5089956D01*
X7960156Y-5343956D02*
X7960156Y-5273244D01*
X7889444Y-5273244D01*
X7889444Y-5343956D01*
X7960156Y-5343956D01*
X7960156Y-5597956D02*
X7960156Y-5527244D01*
X7889444Y-5527244D01*
X7889444Y-5597956D01*
X7960156Y-5597956D01*
X7960156Y-6867956D02*
X7960156Y-6797244D01*
X7889444Y-6797244D01*
X7889444Y-6867956D01*
X7960156Y-6867956D01*
X7960156Y-7121956D02*
X7960156Y-7051244D01*
X7889444Y-7051244D01*
X7889444Y-7121956D01*
X7960156Y-7121956D01*
X7960156Y-7375956D02*
X7960156Y-7305244D01*
X7889444Y-7305244D01*
X7889444Y-7375956D01*
X7960156Y-7375956D01*
X7960156Y-7629956D02*
X7960156Y-7559244D01*
X7889444Y-7559244D01*
X7889444Y-7629956D01*
X7960156Y-7629956D01*
X7960156Y-8899956D02*
X7960156Y-8829244D01*
X7889444Y-8829244D01*
X7889444Y-8899956D01*
X7960156Y-8899956D01*
X7960156Y-9153956D02*
X7960156Y-9083244D01*
X7889444Y-9083244D01*
X7889444Y-9153956D01*
X7960156Y-9153956D01*
X7960156Y-9407956D02*
X7960156Y-9337244D01*
X7889444Y-9337244D01*
X7889444Y-9407956D01*
X7960156Y-9407956D01*
X7960156Y-9661956D02*
X7960156Y-9591244D01*
X7889444Y-9591244D01*
X7889444Y-9661956D01*
X7960156Y-9661956D01*
X8976156Y-8518956D02*
X8976156Y-8448244D01*
X8905444Y-8448244D01*
X8905444Y-8518956D01*
X8976156Y-8518956D01*
X9230156Y-8518956D02*
X9230156Y-8448244D01*
X9159444Y-8448244D01*
X9159444Y-8518956D01*
X9230156Y-8518956D01*
X9484156Y-8518956D02*
X9484156Y-8448244D01*
X9413444Y-8448244D01*
X9413444Y-8518956D01*
X9484156Y-8518956D01*
X9611156Y-10677956D02*
X9611156Y-10607244D01*
X9540444Y-10607244D01*
X9540444Y-10677956D01*
X9611156Y-10677956D01*
X9611156Y-11177956D02*
X9611156Y-11107244D01*
X9540444Y-11107244D01*
X9540444Y-11177956D01*
X9611156Y-11177956D01*
X9738156Y-8518956D02*
X9738156Y-8448244D01*
X9667444Y-8448244D01*
X9667444Y-8518956D01*
X9738156Y-8518956D01*
X9765556Y-9534956D02*
X9765556Y-9464244D01*
X9694844Y-9464244D01*
X9694844Y-9534956D01*
X9765556Y-9534956D01*
X9865156Y-11818456D02*
X9865156Y-11747744D01*
X9794444Y-11747744D01*
X9794444Y-11818456D01*
X9865156Y-11818456D01*
X9992156Y-8518956D02*
X9992156Y-8448244D01*
X9921444Y-8448244D01*
X9921444Y-8518956D01*
X9992156Y-8518956D01*
X10370616Y-11820956D02*
X10370616Y-11750244D01*
X10299904Y-11750244D01*
X10299904Y-11820956D01*
X10370616Y-11820956D01*
X10525556Y-9534956D02*
X10525556Y-9464244D01*
X10454844Y-9464244D01*
X10454844Y-9534956D01*
X10525556Y-9534956D01*
X11505656Y-4835956D02*
X11505656Y-4765244D01*
X11434944Y-4765244D01*
X11434944Y-4835956D01*
X11505656Y-4835956D01*
X11505656Y-5089956D02*
X11505656Y-5019244D01*
X11434944Y-5019244D01*
X11434944Y-5089956D01*
X11505656Y-5089956D01*
X11505656Y-5343956D02*
X11505656Y-5273244D01*
X11434944Y-5273244D01*
X11434944Y-5343956D01*
X11505656Y-5343956D01*
X11505656Y-5597956D02*
X11505656Y-5527244D01*
X11434944Y-5527244D01*
X11434944Y-5597956D01*
X11505656Y-5597956D01*
X11516156Y-6867956D02*
X11516156Y-6797244D01*
X11445444Y-6797244D01*
X11445444Y-6867956D01*
X11516156Y-6867956D01*
X11516156Y-7121956D02*
X11516156Y-7051244D01*
X11445444Y-7051244D01*
X11445444Y-7121956D01*
X11516156Y-7121956D01*
X11516156Y-7375956D02*
X11516156Y-7305244D01*
X11445444Y-7305244D01*
X11445444Y-7375956D01*
X11516156Y-7375956D01*
X11516156Y-7629956D02*
X11516156Y-7559244D01*
X11445444Y-7559244D01*
X11445444Y-7629956D01*
X11516156Y-7629956D01*
X11516156Y-8899956D02*
X11516156Y-8829244D01*
X11445444Y-8829244D01*
X11445444Y-8899956D01*
X11516156Y-8899956D01*
X11516156Y-9153956D02*
X11516156Y-9083244D01*
X11445444Y-9083244D01*
X11445444Y-9153956D01*
X11516156Y-9153956D01*
X11516156Y-9407956D02*
X11516156Y-9337244D01*
X11445444Y-9337244D01*
X11445444Y-9407956D01*
X11516156Y-9407956D01*
X11516156Y-9661956D02*
X11516156Y-9591244D01*
X11445444Y-9591244D01*
X11445444Y-9661956D01*
X11516156Y-9661956D01*
X10335260Y-10808000D02*
X10390260Y-10753000D01*
X10335260Y-10698000D01*
X10280260Y-10753000D01*
X10335260Y-10808000D01*
X10335260Y-11316000D02*
X10390260Y-11261000D01*
X10335260Y-11206000D01*
X10280260Y-11261000D01*
X10335260Y-11316000D01*
X7383800Y-2862600D02*
X7703800Y-3182600D01*
X7703800Y-2862600D02*
X7383800Y-3182600D01*
X7703800Y-3022600D02*
G75*
G03*
X7703800Y-3022600I-160000J0D01*
G01*
X7383800Y-12006600D02*
X7703800Y-12326600D01*
X7703800Y-12006600D02*
X7383800Y-12326600D01*
X7703800Y-12166600D02*
G75*
G03*
X7703800Y-12166600I-160000J0D01*
G01*
X11701800Y-2862600D02*
X12021800Y-3182600D01*
X12021800Y-2862600D02*
X11701800Y-3182600D01*
X12021800Y-3022600D02*
G75*
G03*
X12021800Y-3022600I-160000J0D01*
G01*
X11701800Y-12006600D02*
X12021800Y-12326600D01*
X12021800Y-12006600D02*
X11701800Y-12326600D01*
X12021800Y-12166600D02*
G75*
G03*
X12021800Y-12166600I-160000J0D01*
G01*
X11255800Y-10290600D02*
X11705800Y-10740600D01*
X11705800Y-10290600D02*
X11255800Y-10740600D01*
X11480800Y-10290600D02*
X11480800Y-10740600D01*
X11255800Y-10515600D02*
X11705800Y-10515600D01*
X11255800Y-11010600D02*
X11705800Y-11460600D01*
X11705800Y-11010600D02*
X11255800Y-11460600D01*
X11480800Y-11010600D02*
X11480800Y-11460600D01*
X11255800Y-11235600D02*
X11705800Y-11235600D01*
D12*
X7447958Y-13014584D02*
X7447958Y-12714584D01*
X7519387Y-12714584D01*
X7562244Y-12728870D01*
X7590816Y-12757441D01*
X7605101Y-12786013D01*
X7619387Y-12843156D01*
X7619387Y-12886013D01*
X7605101Y-12943156D01*
X7590816Y-12971727D01*
X7562244Y-13000299D01*
X7519387Y-13014584D01*
X7447958Y-13014584D01*
X7747958Y-13014584D02*
X7747958Y-12814584D01*
X7747958Y-12871727D02*
X7762244Y-12843156D01*
X7776530Y-12828870D01*
X7805101Y-12814584D01*
X7833673Y-12814584D01*
X7933673Y-13014584D02*
X7933673Y-12814584D01*
X7933673Y-12714584D02*
X7919387Y-12728870D01*
X7933673Y-12743156D01*
X7947958Y-12728870D01*
X7933673Y-12714584D01*
X7933673Y-12743156D01*
X8119387Y-13014584D02*
X8090816Y-13000299D01*
X8076530Y-12971727D01*
X8076530Y-12714584D01*
X8276530Y-13014584D02*
X8247958Y-13000299D01*
X8233673Y-12971727D01*
X8233673Y-12714584D01*
X8619387Y-13014584D02*
X8619387Y-12714584D01*
X8719387Y-12928870D01*
X8819387Y-12714584D01*
X8819387Y-13014584D01*
X9090816Y-13014584D02*
X9090816Y-12857441D01*
X9076530Y-12828870D01*
X9047958Y-12814584D01*
X8990816Y-12814584D01*
X8962244Y-12828870D01*
X9090816Y-13000299D02*
X9062244Y-13014584D01*
X8990816Y-13014584D01*
X8962244Y-13000299D01*
X8947958Y-12971727D01*
X8947958Y-12943156D01*
X8962244Y-12914584D01*
X8990816Y-12900299D01*
X9062244Y-12900299D01*
X9090816Y-12886013D01*
X9233673Y-12814584D02*
X9233673Y-13114584D01*
X9233673Y-12828870D02*
X9262244Y-12814584D01*
X9319387Y-12814584D01*
X9347958Y-12828870D01*
X9362244Y-12843156D01*
X9376530Y-12871727D01*
X9376530Y-12957441D01*
X9362244Y-12986013D01*
X9347958Y-13000299D01*
X9319387Y-13014584D01*
X9262244Y-13014584D01*
X9233673Y-13000299D01*
X9505101Y-12986013D02*
X9519387Y-13000299D01*
X9505101Y-13014584D01*
X9490816Y-13000299D01*
X9505101Y-12986013D01*
X9505101Y-13014584D01*
X9505101Y-12828870D02*
X9519387Y-12843156D01*
X9505101Y-12857441D01*
X9490816Y-12843156D01*
X9505101Y-12828870D01*
X9505101Y-12857441D01*
X7121530Y-13488870D02*
X7161530Y-13528870D01*
X7161530Y-13488870D02*
X7121530Y-13528870D01*
X7505101Y-13344584D02*
X7533673Y-13344584D01*
X7562244Y-13358870D01*
X7576530Y-13373156D01*
X7590816Y-13401727D01*
X7605101Y-13458870D01*
X7605101Y-13530299D01*
X7590816Y-13587441D01*
X7576530Y-13616013D01*
X7562244Y-13630299D01*
X7533673Y-13644584D01*
X7505101Y-13644584D01*
X7476530Y-13630299D01*
X7462244Y-13616013D01*
X7447958Y-13587441D01*
X7433673Y-13530299D01*
X7433673Y-13458870D01*
X7447958Y-13401727D01*
X7462244Y-13373156D01*
X7476530Y-13358870D01*
X7505101Y-13344584D01*
X7733673Y-13616013D02*
X7747958Y-13630299D01*
X7733673Y-13644584D01*
X7719387Y-13630299D01*
X7733673Y-13616013D01*
X7733673Y-13644584D01*
X8005101Y-13444584D02*
X8005101Y-13644584D01*
X7933673Y-13330299D02*
X7862244Y-13544584D01*
X8047958Y-13544584D01*
X8219387Y-13344584D02*
X8247958Y-13344584D01*
X8276530Y-13358870D01*
X8290816Y-13373156D01*
X8305101Y-13401727D01*
X8319387Y-13458870D01*
X8319387Y-13530299D01*
X8305101Y-13587441D01*
X8290816Y-13616013D01*
X8276530Y-13630299D01*
X8247958Y-13644584D01*
X8219387Y-13644584D01*
X8190816Y-13630299D01*
X8176530Y-13616013D01*
X8162244Y-13587441D01*
X8147958Y-13530299D01*
X8147958Y-13458870D01*
X8162244Y-13401727D01*
X8176530Y-13373156D01*
X8190816Y-13358870D01*
X8219387Y-13344584D01*
X8505101Y-13344584D02*
X8533673Y-13344584D01*
X8562244Y-13358870D01*
X8576530Y-13373156D01*
X8590816Y-13401727D01*
X8605101Y-13458870D01*
X8605101Y-13530299D01*
X8590816Y-13587441D01*
X8576530Y-13616013D01*
X8562244Y-13630299D01*
X8533673Y-13644584D01*
X8505101Y-13644584D01*
X8476530Y-13630299D01*
X8462244Y-13616013D01*
X8447958Y-13587441D01*
X8433673Y-13530299D01*
X8433673Y-13458870D01*
X8447958Y-13401727D01*
X8462244Y-13373156D01*
X8476530Y-13358870D01*
X8505101Y-13344584D01*
X8733673Y-13644584D02*
X8733673Y-13444584D01*
X8733673Y-13473156D02*
X8747958Y-13458870D01*
X8776530Y-13444584D01*
X8819387Y-13444584D01*
X8847958Y-13458870D01*
X8862244Y-13487441D01*
X8862244Y-13644584D01*
X8862244Y-13487441D02*
X8876530Y-13458870D01*
X8905101Y-13444584D01*
X8947958Y-13444584D01*
X8976530Y-13458870D01*
X8990816Y-13487441D01*
X8990816Y-13644584D01*
X9133673Y-13644584D02*
X9133673Y-13444584D01*
X9133673Y-13473156D02*
X9147958Y-13458870D01*
X9176530Y-13444584D01*
X9219387Y-13444584D01*
X9247958Y-13458870D01*
X9262244Y-13487441D01*
X9262244Y-13644584D01*
X9262244Y-13487441D02*
X9276530Y-13458870D01*
X9305101Y-13444584D01*
X9347958Y-13444584D01*
X9376530Y-13458870D01*
X9390816Y-13487441D01*
X9390816Y-13644584D01*
X9976530Y-13330299D02*
X9719387Y-13716013D01*
X10362244Y-13344584D02*
X10390816Y-13344584D01*
X10419387Y-13358870D01*
X10433673Y-13373156D01*
X10447958Y-13401727D01*
X10462244Y-13458870D01*
X10462244Y-13530299D01*
X10447958Y-13587441D01*
X10433673Y-13616013D01*
X10419387Y-13630299D01*
X10390816Y-13644584D01*
X10362244Y-13644584D01*
X10333673Y-13630299D01*
X10319387Y-13616013D01*
X10305101Y-13587441D01*
X10290816Y-13530299D01*
X10290816Y-13458870D01*
X10305101Y-13401727D01*
X10319387Y-13373156D01*
X10333673Y-13358870D01*
X10362244Y-13344584D01*
X10590816Y-13616013D02*
X10605101Y-13630299D01*
X10590816Y-13644584D01*
X10576530Y-13630299D01*
X10590816Y-13616013D01*
X10590816Y-13644584D01*
X10790816Y-13344584D02*
X10819387Y-13344584D01*
X10847958Y-13358870D01*
X10862244Y-13373156D01*
X10876530Y-13401727D01*
X10890816Y-13458870D01*
X10890816Y-13530299D01*
X10876530Y-13587441D01*
X10862244Y-13616013D01*
X10847958Y-13630299D01*
X10819387Y-13644584D01*
X10790816Y-13644584D01*
X10762244Y-13630299D01*
X10747958Y-13616013D01*
X10733673Y-13587441D01*
X10719387Y-13530299D01*
X10719387Y-13458870D01*
X10733673Y-13401727D01*
X10747958Y-13373156D01*
X10762244Y-13358870D01*
X10790816Y-13344584D01*
X11176530Y-13644584D02*
X11005101Y-13644584D01*
X11090816Y-13644584D02*
X11090816Y-13344584D01*
X11062244Y-13387441D01*
X11033673Y-13416013D01*
X11005101Y-13430299D01*
X11447958Y-13344584D02*
X11305101Y-13344584D01*
X11290816Y-13487441D01*
X11305101Y-13473156D01*
X11333673Y-13458870D01*
X11405101Y-13458870D01*
X11433673Y-13473156D01*
X11447958Y-13487441D01*
X11462244Y-13516013D01*
X11462244Y-13587441D01*
X11447958Y-13616013D01*
X11433673Y-13630299D01*
X11405101Y-13644584D01*
X11333673Y-13644584D01*
X11305101Y-13630299D01*
X11290816Y-13616013D01*
X11562244Y-13344584D02*
X11762244Y-13344584D01*
X11633673Y-13644584D01*
X11862244Y-13344584D02*
X11862244Y-13401727D01*
X11976530Y-13344584D02*
X11976530Y-13401727D01*
X12419387Y-13758870D02*
X12405101Y-13744584D01*
X12376530Y-13701727D01*
X12362244Y-13673156D01*
X12347958Y-13630299D01*
X12333673Y-13558870D01*
X12333673Y-13501727D01*
X12347958Y-13430299D01*
X12362244Y-13387441D01*
X12376530Y-13358870D01*
X12405101Y-13316013D01*
X12419387Y-13301727D01*
X12547958Y-13644584D02*
X12605101Y-13644584D01*
X12633673Y-13630299D01*
X12647958Y-13616013D01*
X12676530Y-13573156D01*
X12690816Y-13516013D01*
X12690816Y-13401727D01*
X12676530Y-13373156D01*
X12662244Y-13358870D01*
X12633673Y-13344584D01*
X12576530Y-13344584D01*
X12547958Y-13358870D01*
X12533673Y-13373156D01*
X12519387Y-13401727D01*
X12519387Y-13473156D01*
X12533673Y-13501727D01*
X12547958Y-13516013D01*
X12576530Y-13530299D01*
X12633673Y-13530299D01*
X12662244Y-13516013D01*
X12676530Y-13501727D01*
X12690816Y-13473156D01*
X13047958Y-13644584D02*
X13047958Y-13344584D01*
X13176530Y-13644584D02*
X13176530Y-13487441D01*
X13162244Y-13458870D01*
X13133673Y-13444584D01*
X13090816Y-13444584D01*
X13062244Y-13458870D01*
X13047958Y-13473156D01*
X13362244Y-13644584D02*
X13333673Y-13630299D01*
X13319387Y-13616013D01*
X13305101Y-13587441D01*
X13305101Y-13501727D01*
X13319387Y-13473156D01*
X13333673Y-13458870D01*
X13362244Y-13444584D01*
X13405101Y-13444584D01*
X13433673Y-13458870D01*
X13447958Y-13473156D01*
X13462244Y-13501727D01*
X13462244Y-13587441D01*
X13447958Y-13616013D01*
X13433673Y-13630299D01*
X13405101Y-13644584D01*
X13362244Y-13644584D01*
X13633673Y-13644584D02*
X13605101Y-13630299D01*
X13590816Y-13601727D01*
X13590816Y-13344584D01*
X13862244Y-13630299D02*
X13833673Y-13644584D01*
X13776530Y-13644584D01*
X13747958Y-13630299D01*
X13733673Y-13601727D01*
X13733673Y-13487441D01*
X13747958Y-13458870D01*
X13776530Y-13444584D01*
X13833673Y-13444584D01*
X13862244Y-13458870D01*
X13876530Y-13487441D01*
X13876530Y-13516013D01*
X13733673Y-13544584D01*
X13990816Y-13630299D02*
X14019387Y-13644584D01*
X14076530Y-13644584D01*
X14105101Y-13630299D01*
X14119387Y-13601727D01*
X14119387Y-13587441D01*
X14105101Y-13558870D01*
X14076530Y-13544584D01*
X14033673Y-13544584D01*
X14005101Y-13530299D01*
X13990816Y-13501727D01*
X13990816Y-13487441D01*
X14005101Y-13458870D01*
X14033673Y-13444584D01*
X14076530Y-13444584D01*
X14105101Y-13458870D01*
X14219387Y-13758870D02*
X14233673Y-13744584D01*
X14262244Y-13701727D01*
X14276530Y-13673156D01*
X14290816Y-13630299D01*
X14305101Y-13558870D01*
X14305101Y-13501727D01*
X14290816Y-13430299D01*
X14276530Y-13387441D01*
X14262244Y-13358870D01*
X14233673Y-13316013D01*
X14219387Y-13301727D01*
X7161530Y-13904870D02*
G75*
G03*
X7161530Y-13904870I-25000J0D01*
G01*
X7505101Y-13740584D02*
X7533673Y-13740584D01*
X7562244Y-13754870D01*
X7576530Y-13769156D01*
X7590816Y-13797727D01*
X7605101Y-13854870D01*
X7605101Y-13926299D01*
X7590816Y-13983441D01*
X7576530Y-14012013D01*
X7562244Y-14026299D01*
X7533673Y-14040584D01*
X7505101Y-14040584D01*
X7476530Y-14026299D01*
X7462244Y-14012013D01*
X7447958Y-13983441D01*
X7433673Y-13926299D01*
X7433673Y-13854870D01*
X7447958Y-13797727D01*
X7462244Y-13769156D01*
X7476530Y-13754870D01*
X7505101Y-13740584D01*
X7733673Y-14012013D02*
X7747958Y-14026299D01*
X7733673Y-14040584D01*
X7719387Y-14026299D01*
X7733673Y-14012013D01*
X7733673Y-14040584D01*
X8019387Y-13740584D02*
X7876530Y-13740584D01*
X7862244Y-13883441D01*
X7876530Y-13869156D01*
X7905101Y-13854870D01*
X7976530Y-13854870D01*
X8005101Y-13869156D01*
X8019387Y-13883441D01*
X8033673Y-13912013D01*
X8033673Y-13983441D01*
X8019387Y-14012013D01*
X8005101Y-14026299D01*
X7976530Y-14040584D01*
X7905101Y-14040584D01*
X7876530Y-14026299D01*
X7862244Y-14012013D01*
X8219387Y-13740584D02*
X8247958Y-13740584D01*
X8276530Y-13754870D01*
X8290816Y-13769156D01*
X8305101Y-13797727D01*
X8319387Y-13854870D01*
X8319387Y-13926299D01*
X8305101Y-13983441D01*
X8290816Y-14012013D01*
X8276530Y-14026299D01*
X8247958Y-14040584D01*
X8219387Y-14040584D01*
X8190816Y-14026299D01*
X8176530Y-14012013D01*
X8162244Y-13983441D01*
X8147958Y-13926299D01*
X8147958Y-13854870D01*
X8162244Y-13797727D01*
X8176530Y-13769156D01*
X8190816Y-13754870D01*
X8219387Y-13740584D01*
X8505101Y-13740584D02*
X8533673Y-13740584D01*
X8562244Y-13754870D01*
X8576530Y-13769156D01*
X8590816Y-13797727D01*
X8605101Y-13854870D01*
X8605101Y-13926299D01*
X8590816Y-13983441D01*
X8576530Y-14012013D01*
X8562244Y-14026299D01*
X8533673Y-14040584D01*
X8505101Y-14040584D01*
X8476530Y-14026299D01*
X8462244Y-14012013D01*
X8447958Y-13983441D01*
X8433673Y-13926299D01*
X8433673Y-13854870D01*
X8447958Y-13797727D01*
X8462244Y-13769156D01*
X8476530Y-13754870D01*
X8505101Y-13740584D01*
X8733673Y-14040584D02*
X8733673Y-13840584D01*
X8733673Y-13869156D02*
X8747958Y-13854870D01*
X8776530Y-13840584D01*
X8819387Y-13840584D01*
X8847958Y-13854870D01*
X8862244Y-13883441D01*
X8862244Y-14040584D01*
X8862244Y-13883441D02*
X8876530Y-13854870D01*
X8905101Y-13840584D01*
X8947958Y-13840584D01*
X8976530Y-13854870D01*
X8990816Y-13883441D01*
X8990816Y-14040584D01*
X9133673Y-14040584D02*
X9133673Y-13840584D01*
X9133673Y-13869156D02*
X9147958Y-13854870D01*
X9176530Y-13840584D01*
X9219387Y-13840584D01*
X9247958Y-13854870D01*
X9262244Y-13883441D01*
X9262244Y-14040584D01*
X9262244Y-13883441D02*
X9276530Y-13854870D01*
X9305101Y-13840584D01*
X9347958Y-13840584D01*
X9376530Y-13854870D01*
X9390816Y-13883441D01*
X9390816Y-14040584D01*
X9976530Y-13726299D02*
X9719387Y-14112013D01*
X10362244Y-13740584D02*
X10390816Y-13740584D01*
X10419387Y-13754870D01*
X10433673Y-13769156D01*
X10447958Y-13797727D01*
X10462244Y-13854870D01*
X10462244Y-13926299D01*
X10447958Y-13983441D01*
X10433673Y-14012013D01*
X10419387Y-14026299D01*
X10390816Y-14040584D01*
X10362244Y-14040584D01*
X10333673Y-14026299D01*
X10319387Y-14012013D01*
X10305101Y-13983441D01*
X10290816Y-13926299D01*
X10290816Y-13854870D01*
X10305101Y-13797727D01*
X10319387Y-13769156D01*
X10333673Y-13754870D01*
X10362244Y-13740584D01*
X10590816Y-14012013D02*
X10605101Y-14026299D01*
X10590816Y-14040584D01*
X10576530Y-14026299D01*
X10590816Y-14012013D01*
X10590816Y-14040584D01*
X10790816Y-13740584D02*
X10819387Y-13740584D01*
X10847958Y-13754870D01*
X10862244Y-13769156D01*
X10876530Y-13797727D01*
X10890816Y-13854870D01*
X10890816Y-13926299D01*
X10876530Y-13983441D01*
X10862244Y-14012013D01*
X10847958Y-14026299D01*
X10819387Y-14040584D01*
X10790816Y-14040584D01*
X10762244Y-14026299D01*
X10747958Y-14012013D01*
X10733673Y-13983441D01*
X10719387Y-13926299D01*
X10719387Y-13854870D01*
X10733673Y-13797727D01*
X10747958Y-13769156D01*
X10762244Y-13754870D01*
X10790816Y-13740584D01*
X11176530Y-14040584D02*
X11005101Y-14040584D01*
X11090816Y-14040584D02*
X11090816Y-13740584D01*
X11062244Y-13783441D01*
X11033673Y-13812013D01*
X11005101Y-13826299D01*
X11319387Y-14040584D02*
X11376530Y-14040584D01*
X11405101Y-14026299D01*
X11419387Y-14012013D01*
X11447958Y-13969156D01*
X11462244Y-13912013D01*
X11462244Y-13797727D01*
X11447958Y-13769156D01*
X11433673Y-13754870D01*
X11405101Y-13740584D01*
X11347958Y-13740584D01*
X11319387Y-13754870D01*
X11305101Y-13769156D01*
X11290816Y-13797727D01*
X11290816Y-13869156D01*
X11305101Y-13897727D01*
X11319387Y-13912013D01*
X11347958Y-13926299D01*
X11405101Y-13926299D01*
X11433673Y-13912013D01*
X11447958Y-13897727D01*
X11462244Y-13869156D01*
X11562244Y-13740584D02*
X11762244Y-13740584D01*
X11633673Y-14040584D01*
X11862244Y-13740584D02*
X11862244Y-13797727D01*
X11976530Y-13740584D02*
X11976530Y-13797727D01*
X12419387Y-14154870D02*
X12405101Y-14140584D01*
X12376530Y-14097727D01*
X12362244Y-14069156D01*
X12347958Y-14026299D01*
X12333673Y-13954870D01*
X12333673Y-13897727D01*
X12347958Y-13826299D01*
X12362244Y-13783441D01*
X12376530Y-13754870D01*
X12405101Y-13712013D01*
X12419387Y-13697727D01*
X12505101Y-13740584D02*
X12690816Y-13740584D01*
X12590816Y-13854870D01*
X12633673Y-13854870D01*
X12662244Y-13869156D01*
X12676530Y-13883441D01*
X12690816Y-13912013D01*
X12690816Y-13983441D01*
X12676530Y-14012013D01*
X12662244Y-14026299D01*
X12633673Y-14040584D01*
X12547958Y-14040584D01*
X12519387Y-14026299D01*
X12505101Y-14012013D01*
X12805101Y-13769156D02*
X12819387Y-13754870D01*
X12847958Y-13740584D01*
X12919387Y-13740584D01*
X12947958Y-13754870D01*
X12962244Y-13769156D01*
X12976530Y-13797727D01*
X12976530Y-13826299D01*
X12962244Y-13869156D01*
X12790816Y-14040584D01*
X12976530Y-14040584D01*
X13333673Y-14040584D02*
X13333673Y-13740584D01*
X13462244Y-14040584D02*
X13462244Y-13883441D01*
X13447958Y-13854870D01*
X13419387Y-13840584D01*
X13376530Y-13840584D01*
X13347958Y-13854870D01*
X13333673Y-13869156D01*
X13647958Y-14040584D02*
X13619387Y-14026299D01*
X13605101Y-14012013D01*
X13590816Y-13983441D01*
X13590816Y-13897727D01*
X13605101Y-13869156D01*
X13619387Y-13854870D01*
X13647958Y-13840584D01*
X13690816Y-13840584D01*
X13719387Y-13854870D01*
X13733673Y-13869156D01*
X13747958Y-13897727D01*
X13747958Y-13983441D01*
X13733673Y-14012013D01*
X13719387Y-14026299D01*
X13690816Y-14040584D01*
X13647958Y-14040584D01*
X13919387Y-14040584D02*
X13890816Y-14026299D01*
X13876530Y-13997727D01*
X13876530Y-13740584D01*
X14147958Y-14026299D02*
X14119387Y-14040584D01*
X14062244Y-14040584D01*
X14033673Y-14026299D01*
X14019387Y-13997727D01*
X14019387Y-13883441D01*
X14033673Y-13854870D01*
X14062244Y-13840584D01*
X14119387Y-13840584D01*
X14147958Y-13854870D01*
X14162244Y-13883441D01*
X14162244Y-13912013D01*
X14019387Y-13940584D01*
X14276530Y-14026299D02*
X14305101Y-14040584D01*
X14362244Y-14040584D01*
X14390816Y-14026299D01*
X14405101Y-13997727D01*
X14405101Y-13983441D01*
X14390816Y-13954870D01*
X14362244Y-13940584D01*
X14319387Y-13940584D01*
X14290816Y-13926299D01*
X14276530Y-13897727D01*
X14276530Y-13883441D01*
X14290816Y-13854870D01*
X14319387Y-13840584D01*
X14362244Y-13840584D01*
X14390816Y-13854870D01*
X14505101Y-14154870D02*
X14519387Y-14140584D01*
X14547958Y-14097727D01*
X14562244Y-14069156D01*
X14576530Y-14026299D01*
X14590816Y-13954870D01*
X14590816Y-13897727D01*
X14576530Y-13826299D01*
X14562244Y-13783441D01*
X14547958Y-13754870D01*
X14519387Y-13712013D01*
X14505101Y-13697727D01*
X7121530Y-14260870D02*
X7121530Y-14340870D01*
X7081530Y-14300870D02*
X7161530Y-14300870D01*
X7505101Y-14136584D02*
X7533673Y-14136584D01*
X7562244Y-14150870D01*
X7576530Y-14165156D01*
X7590816Y-14193727D01*
X7605101Y-14250870D01*
X7605101Y-14322299D01*
X7590816Y-14379441D01*
X7576530Y-14408013D01*
X7562244Y-14422299D01*
X7533673Y-14436584D01*
X7505101Y-14436584D01*
X7476530Y-14422299D01*
X7462244Y-14408013D01*
X7447958Y-14379441D01*
X7433673Y-14322299D01*
X7433673Y-14250870D01*
X7447958Y-14193727D01*
X7462244Y-14165156D01*
X7476530Y-14150870D01*
X7505101Y-14136584D01*
X7733673Y-14408013D02*
X7747958Y-14422299D01*
X7733673Y-14436584D01*
X7719387Y-14422299D01*
X7733673Y-14408013D01*
X7733673Y-14436584D01*
X7919387Y-14265156D02*
X7890816Y-14250870D01*
X7876530Y-14236584D01*
X7862244Y-14208013D01*
X7862244Y-14193727D01*
X7876530Y-14165156D01*
X7890816Y-14150870D01*
X7919387Y-14136584D01*
X7976530Y-14136584D01*
X8005101Y-14150870D01*
X8019387Y-14165156D01*
X8033673Y-14193727D01*
X8033673Y-14208013D01*
X8019387Y-14236584D01*
X8005101Y-14250870D01*
X7976530Y-14265156D01*
X7919387Y-14265156D01*
X7890816Y-14279441D01*
X7876530Y-14293727D01*
X7862244Y-14322299D01*
X7862244Y-14379441D01*
X7876530Y-14408013D01*
X7890816Y-14422299D01*
X7919387Y-14436584D01*
X7976530Y-14436584D01*
X8005101Y-14422299D01*
X8019387Y-14408013D01*
X8033673Y-14379441D01*
X8033673Y-14322299D01*
X8019387Y-14293727D01*
X8005101Y-14279441D01*
X7976530Y-14265156D01*
X8219387Y-14136584D02*
X8247958Y-14136584D01*
X8276530Y-14150870D01*
X8290816Y-14165156D01*
X8305101Y-14193727D01*
X8319387Y-14250870D01*
X8319387Y-14322299D01*
X8305101Y-14379441D01*
X8290816Y-14408013D01*
X8276530Y-14422299D01*
X8247958Y-14436584D01*
X8219387Y-14436584D01*
X8190816Y-14422299D01*
X8176530Y-14408013D01*
X8162244Y-14379441D01*
X8147958Y-14322299D01*
X8147958Y-14250870D01*
X8162244Y-14193727D01*
X8176530Y-14165156D01*
X8190816Y-14150870D01*
X8219387Y-14136584D01*
X8505101Y-14136584D02*
X8533673Y-14136584D01*
X8562244Y-14150870D01*
X8576530Y-14165156D01*
X8590816Y-14193727D01*
X8605101Y-14250870D01*
X8605101Y-14322299D01*
X8590816Y-14379441D01*
X8576530Y-14408013D01*
X8562244Y-14422299D01*
X8533673Y-14436584D01*
X8505101Y-14436584D01*
X8476530Y-14422299D01*
X8462244Y-14408013D01*
X8447958Y-14379441D01*
X8433673Y-14322299D01*
X8433673Y-14250870D01*
X8447958Y-14193727D01*
X8462244Y-14165156D01*
X8476530Y-14150870D01*
X8505101Y-14136584D01*
X8733673Y-14436584D02*
X8733673Y-14236584D01*
X8733673Y-14265156D02*
X8747958Y-14250870D01*
X8776530Y-14236584D01*
X8819387Y-14236584D01*
X8847958Y-14250870D01*
X8862244Y-14279441D01*
X8862244Y-14436584D01*
X8862244Y-14279441D02*
X8876530Y-14250870D01*
X8905101Y-14236584D01*
X8947958Y-14236584D01*
X8976530Y-14250870D01*
X8990816Y-14279441D01*
X8990816Y-14436584D01*
X9133673Y-14436584D02*
X9133673Y-14236584D01*
X9133673Y-14265156D02*
X9147958Y-14250870D01*
X9176530Y-14236584D01*
X9219387Y-14236584D01*
X9247958Y-14250870D01*
X9262244Y-14279441D01*
X9262244Y-14436584D01*
X9262244Y-14279441D02*
X9276530Y-14250870D01*
X9305101Y-14236584D01*
X9347958Y-14236584D01*
X9376530Y-14250870D01*
X9390816Y-14279441D01*
X9390816Y-14436584D01*
X9976530Y-14122299D02*
X9719387Y-14508013D01*
X10362244Y-14136584D02*
X10390816Y-14136584D01*
X10419387Y-14150870D01*
X10433673Y-14165156D01*
X10447958Y-14193727D01*
X10462244Y-14250870D01*
X10462244Y-14322299D01*
X10447958Y-14379441D01*
X10433673Y-14408013D01*
X10419387Y-14422299D01*
X10390816Y-14436584D01*
X10362244Y-14436584D01*
X10333673Y-14422299D01*
X10319387Y-14408013D01*
X10305101Y-14379441D01*
X10290816Y-14322299D01*
X10290816Y-14250870D01*
X10305101Y-14193727D01*
X10319387Y-14165156D01*
X10333673Y-14150870D01*
X10362244Y-14136584D01*
X10590816Y-14408013D02*
X10605101Y-14422299D01*
X10590816Y-14436584D01*
X10576530Y-14422299D01*
X10590816Y-14408013D01*
X10590816Y-14436584D01*
X10790816Y-14136584D02*
X10819387Y-14136584D01*
X10847958Y-14150870D01*
X10862244Y-14165156D01*
X10876530Y-14193727D01*
X10890816Y-14250870D01*
X10890816Y-14322299D01*
X10876530Y-14379441D01*
X10862244Y-14408013D01*
X10847958Y-14422299D01*
X10819387Y-14436584D01*
X10790816Y-14436584D01*
X10762244Y-14422299D01*
X10747958Y-14408013D01*
X10733673Y-14379441D01*
X10719387Y-14322299D01*
X10719387Y-14250870D01*
X10733673Y-14193727D01*
X10747958Y-14165156D01*
X10762244Y-14150870D01*
X10790816Y-14136584D01*
X10990816Y-14136584D02*
X11176530Y-14136584D01*
X11076530Y-14250870D01*
X11119387Y-14250870D01*
X11147958Y-14265156D01*
X11162244Y-14279441D01*
X11176530Y-14308013D01*
X11176530Y-14379441D01*
X11162244Y-14408013D01*
X11147958Y-14422299D01*
X11119387Y-14436584D01*
X11033673Y-14436584D01*
X11005101Y-14422299D01*
X10990816Y-14408013D01*
X11462244Y-14436584D02*
X11290816Y-14436584D01*
X11376530Y-14436584D02*
X11376530Y-14136584D01*
X11347958Y-14179441D01*
X11319387Y-14208013D01*
X11290816Y-14222299D01*
X11733673Y-14136584D02*
X11590816Y-14136584D01*
X11576530Y-14279441D01*
X11590816Y-14265156D01*
X11619387Y-14250870D01*
X11690816Y-14250870D01*
X11719387Y-14265156D01*
X11733673Y-14279441D01*
X11747958Y-14308013D01*
X11747958Y-14379441D01*
X11733673Y-14408013D01*
X11719387Y-14422299D01*
X11690816Y-14436584D01*
X11619387Y-14436584D01*
X11590816Y-14422299D01*
X11576530Y-14408013D01*
X11862244Y-14136584D02*
X11862244Y-14193727D01*
X11976530Y-14136584D02*
X11976530Y-14193727D01*
X12419387Y-14550870D02*
X12405101Y-14536584D01*
X12376530Y-14493727D01*
X12362244Y-14465156D01*
X12347958Y-14422299D01*
X12333673Y-14350870D01*
X12333673Y-14293727D01*
X12347958Y-14222299D01*
X12362244Y-14179441D01*
X12376530Y-14150870D01*
X12405101Y-14108013D01*
X12419387Y-14093727D01*
X12519387Y-14165156D02*
X12533673Y-14150870D01*
X12562244Y-14136584D01*
X12633673Y-14136584D01*
X12662244Y-14150870D01*
X12676530Y-14165156D01*
X12690816Y-14193727D01*
X12690816Y-14222299D01*
X12676530Y-14265156D01*
X12505101Y-14436584D01*
X12690816Y-14436584D01*
X12862244Y-14265156D02*
X12833673Y-14250870D01*
X12819387Y-14236584D01*
X12805101Y-14208013D01*
X12805101Y-14193727D01*
X12819387Y-14165156D01*
X12833673Y-14150870D01*
X12862244Y-14136584D01*
X12919387Y-14136584D01*
X12947958Y-14150870D01*
X12962244Y-14165156D01*
X12976530Y-14193727D01*
X12976530Y-14208013D01*
X12962244Y-14236584D01*
X12947958Y-14250870D01*
X12919387Y-14265156D01*
X12862244Y-14265156D01*
X12833673Y-14279441D01*
X12819387Y-14293727D01*
X12805101Y-14322299D01*
X12805101Y-14379441D01*
X12819387Y-14408013D01*
X12833673Y-14422299D01*
X12862244Y-14436584D01*
X12919387Y-14436584D01*
X12947958Y-14422299D01*
X12962244Y-14408013D01*
X12976530Y-14379441D01*
X12976530Y-14322299D01*
X12962244Y-14293727D01*
X12947958Y-14279441D01*
X12919387Y-14265156D01*
X13333673Y-14436584D02*
X13333673Y-14136584D01*
X13462244Y-14436584D02*
X13462244Y-14279441D01*
X13447958Y-14250870D01*
X13419387Y-14236584D01*
X13376530Y-14236584D01*
X13347958Y-14250870D01*
X13333673Y-14265156D01*
X13647958Y-14436584D02*
X13619387Y-14422299D01*
X13605101Y-14408013D01*
X13590816Y-14379441D01*
X13590816Y-14293727D01*
X13605101Y-14265156D01*
X13619387Y-14250870D01*
X13647958Y-14236584D01*
X13690816Y-14236584D01*
X13719387Y-14250870D01*
X13733673Y-14265156D01*
X13747958Y-14293727D01*
X13747958Y-14379441D01*
X13733673Y-14408013D01*
X13719387Y-14422299D01*
X13690816Y-14436584D01*
X13647958Y-14436584D01*
X13919387Y-14436584D02*
X13890816Y-14422299D01*
X13876530Y-14393727D01*
X13876530Y-14136584D01*
X14147958Y-14422299D02*
X14119387Y-14436584D01*
X14062244Y-14436584D01*
X14033673Y-14422299D01*
X14019387Y-14393727D01*
X14019387Y-14279441D01*
X14033673Y-14250870D01*
X14062244Y-14236584D01*
X14119387Y-14236584D01*
X14147958Y-14250870D01*
X14162244Y-14279441D01*
X14162244Y-14308013D01*
X14019387Y-14336584D01*
X14276530Y-14422299D02*
X14305101Y-14436584D01*
X14362244Y-14436584D01*
X14390816Y-14422299D01*
X14405101Y-14393727D01*
X14405101Y-14379441D01*
X14390816Y-14350870D01*
X14362244Y-14336584D01*
X14319387Y-14336584D01*
X14290816Y-14322299D01*
X14276530Y-14293727D01*
X14276530Y-14279441D01*
X14290816Y-14250870D01*
X14319387Y-14236584D01*
X14362244Y-14236584D01*
X14390816Y-14250870D01*
X14505101Y-14550870D02*
X14519387Y-14536584D01*
X14547958Y-14493727D01*
X14562244Y-14465156D01*
X14576530Y-14422299D01*
X14590816Y-14350870D01*
X14590816Y-14293727D01*
X14576530Y-14222299D01*
X14562244Y-14179441D01*
X14547958Y-14150870D01*
X14519387Y-14108013D01*
X14505101Y-14093727D01*
X7146886Y-14732226D02*
X7146886Y-14661514D01*
X7076174Y-14661514D01*
X7076174Y-14732226D01*
X7146886Y-14732226D01*
X7605101Y-14832584D02*
X7433673Y-14832584D01*
X7519387Y-14832584D02*
X7519387Y-14532584D01*
X7490816Y-14575441D01*
X7462244Y-14604013D01*
X7433673Y-14618299D01*
X7733673Y-14804013D02*
X7747958Y-14818299D01*
X7733673Y-14832584D01*
X7719387Y-14818299D01*
X7733673Y-14804013D01*
X7733673Y-14832584D01*
X7933673Y-14532584D02*
X7962244Y-14532584D01*
X7990816Y-14546870D01*
X8005101Y-14561156D01*
X8019387Y-14589727D01*
X8033673Y-14646870D01*
X8033673Y-14718299D01*
X8019387Y-14775441D01*
X8005101Y-14804013D01*
X7990816Y-14818299D01*
X7962244Y-14832584D01*
X7933673Y-14832584D01*
X7905101Y-14818299D01*
X7890816Y-14804013D01*
X7876530Y-14775441D01*
X7862244Y-14718299D01*
X7862244Y-14646870D01*
X7876530Y-14589727D01*
X7890816Y-14561156D01*
X7905101Y-14546870D01*
X7933673Y-14532584D01*
X8219387Y-14532584D02*
X8247958Y-14532584D01*
X8276530Y-14546870D01*
X8290816Y-14561156D01*
X8305101Y-14589727D01*
X8319387Y-14646870D01*
X8319387Y-14718299D01*
X8305101Y-14775441D01*
X8290816Y-14804013D01*
X8276530Y-14818299D01*
X8247958Y-14832584D01*
X8219387Y-14832584D01*
X8190816Y-14818299D01*
X8176530Y-14804013D01*
X8162244Y-14775441D01*
X8147958Y-14718299D01*
X8147958Y-14646870D01*
X8162244Y-14589727D01*
X8176530Y-14561156D01*
X8190816Y-14546870D01*
X8219387Y-14532584D01*
X8505101Y-14532584D02*
X8533673Y-14532584D01*
X8562244Y-14546870D01*
X8576530Y-14561156D01*
X8590816Y-14589727D01*
X8605101Y-14646870D01*
X8605101Y-14718299D01*
X8590816Y-14775441D01*
X8576530Y-14804013D01*
X8562244Y-14818299D01*
X8533673Y-14832584D01*
X8505101Y-14832584D01*
X8476530Y-14818299D01*
X8462244Y-14804013D01*
X8447958Y-14775441D01*
X8433673Y-14718299D01*
X8433673Y-14646870D01*
X8447958Y-14589727D01*
X8462244Y-14561156D01*
X8476530Y-14546870D01*
X8505101Y-14532584D01*
X8733673Y-14832584D02*
X8733673Y-14632584D01*
X8733673Y-14661156D02*
X8747958Y-14646870D01*
X8776530Y-14632584D01*
X8819387Y-14632584D01*
X8847958Y-14646870D01*
X8862244Y-14675441D01*
X8862244Y-14832584D01*
X8862244Y-14675441D02*
X8876530Y-14646870D01*
X8905101Y-14632584D01*
X8947958Y-14632584D01*
X8976530Y-14646870D01*
X8990816Y-14675441D01*
X8990816Y-14832584D01*
X9133673Y-14832584D02*
X9133673Y-14632584D01*
X9133673Y-14661156D02*
X9147958Y-14646870D01*
X9176530Y-14632584D01*
X9219387Y-14632584D01*
X9247958Y-14646870D01*
X9262244Y-14675441D01*
X9262244Y-14832584D01*
X9262244Y-14675441D02*
X9276530Y-14646870D01*
X9305101Y-14632584D01*
X9347958Y-14632584D01*
X9376530Y-14646870D01*
X9390816Y-14675441D01*
X9390816Y-14832584D01*
X9976530Y-14518299D02*
X9719387Y-14904013D01*
X10362244Y-14532584D02*
X10390816Y-14532584D01*
X10419387Y-14546870D01*
X10433673Y-14561156D01*
X10447958Y-14589727D01*
X10462244Y-14646870D01*
X10462244Y-14718299D01*
X10447958Y-14775441D01*
X10433673Y-14804013D01*
X10419387Y-14818299D01*
X10390816Y-14832584D01*
X10362244Y-14832584D01*
X10333673Y-14818299D01*
X10319387Y-14804013D01*
X10305101Y-14775441D01*
X10290816Y-14718299D01*
X10290816Y-14646870D01*
X10305101Y-14589727D01*
X10319387Y-14561156D01*
X10333673Y-14546870D01*
X10362244Y-14532584D01*
X10590816Y-14804013D02*
X10605101Y-14818299D01*
X10590816Y-14832584D01*
X10576530Y-14818299D01*
X10590816Y-14804013D01*
X10590816Y-14832584D01*
X10790816Y-14532584D02*
X10819387Y-14532584D01*
X10847958Y-14546870D01*
X10862244Y-14561156D01*
X10876530Y-14589727D01*
X10890816Y-14646870D01*
X10890816Y-14718299D01*
X10876530Y-14775441D01*
X10862244Y-14804013D01*
X10847958Y-14818299D01*
X10819387Y-14832584D01*
X10790816Y-14832584D01*
X10762244Y-14818299D01*
X10747958Y-14804013D01*
X10733673Y-14775441D01*
X10719387Y-14718299D01*
X10719387Y-14646870D01*
X10733673Y-14589727D01*
X10747958Y-14561156D01*
X10762244Y-14546870D01*
X10790816Y-14532584D01*
X10990816Y-14532584D02*
X11176530Y-14532584D01*
X11076530Y-14646870D01*
X11119387Y-14646870D01*
X11147958Y-14661156D01*
X11162244Y-14675441D01*
X11176530Y-14704013D01*
X11176530Y-14775441D01*
X11162244Y-14804013D01*
X11147958Y-14818299D01*
X11119387Y-14832584D01*
X11033673Y-14832584D01*
X11005101Y-14818299D01*
X10990816Y-14804013D01*
X11319387Y-14832584D02*
X11376530Y-14832584D01*
X11405101Y-14818299D01*
X11419387Y-14804013D01*
X11447958Y-14761156D01*
X11462244Y-14704013D01*
X11462244Y-14589727D01*
X11447958Y-14561156D01*
X11433673Y-14546870D01*
X11405101Y-14532584D01*
X11347958Y-14532584D01*
X11319387Y-14546870D01*
X11305101Y-14561156D01*
X11290816Y-14589727D01*
X11290816Y-14661156D01*
X11305101Y-14689727D01*
X11319387Y-14704013D01*
X11347958Y-14718299D01*
X11405101Y-14718299D01*
X11433673Y-14704013D01*
X11447958Y-14689727D01*
X11462244Y-14661156D01*
X11719387Y-14632584D02*
X11719387Y-14832584D01*
X11647958Y-14518299D02*
X11576530Y-14732584D01*
X11762244Y-14732584D01*
X11862244Y-14532584D02*
X11862244Y-14589727D01*
X11976530Y-14532584D02*
X11976530Y-14589727D01*
X12419387Y-14946870D02*
X12405101Y-14932584D01*
X12376530Y-14889727D01*
X12362244Y-14861156D01*
X12347958Y-14818299D01*
X12333673Y-14746870D01*
X12333673Y-14689727D01*
X12347958Y-14618299D01*
X12362244Y-14575441D01*
X12376530Y-14546870D01*
X12405101Y-14504013D01*
X12419387Y-14489727D01*
X12505101Y-14532584D02*
X12690816Y-14532584D01*
X12590816Y-14646870D01*
X12633673Y-14646870D01*
X12662244Y-14661156D01*
X12676530Y-14675441D01*
X12690816Y-14704013D01*
X12690816Y-14775441D01*
X12676530Y-14804013D01*
X12662244Y-14818299D01*
X12633673Y-14832584D01*
X12547958Y-14832584D01*
X12519387Y-14818299D01*
X12505101Y-14804013D01*
X12962244Y-14532584D02*
X12819387Y-14532584D01*
X12805101Y-14675441D01*
X12819387Y-14661156D01*
X12847958Y-14646870D01*
X12919387Y-14646870D01*
X12947958Y-14661156D01*
X12962244Y-14675441D01*
X12976530Y-14704013D01*
X12976530Y-14775441D01*
X12962244Y-14804013D01*
X12947958Y-14818299D01*
X12919387Y-14832584D01*
X12847958Y-14832584D01*
X12819387Y-14818299D01*
X12805101Y-14804013D01*
X13333673Y-14832584D02*
X13333673Y-14532584D01*
X13462244Y-14832584D02*
X13462244Y-14675441D01*
X13447958Y-14646870D01*
X13419387Y-14632584D01*
X13376530Y-14632584D01*
X13347958Y-14646870D01*
X13333673Y-14661156D01*
X13647958Y-14832584D02*
X13619387Y-14818299D01*
X13605101Y-14804013D01*
X13590816Y-14775441D01*
X13590816Y-14689727D01*
X13605101Y-14661156D01*
X13619387Y-14646870D01*
X13647958Y-14632584D01*
X13690816Y-14632584D01*
X13719387Y-14646870D01*
X13733673Y-14661156D01*
X13747958Y-14689727D01*
X13747958Y-14775441D01*
X13733673Y-14804013D01*
X13719387Y-14818299D01*
X13690816Y-14832584D01*
X13647958Y-14832584D01*
X13919387Y-14832584D02*
X13890816Y-14818299D01*
X13876530Y-14789727D01*
X13876530Y-14532584D01*
X14147958Y-14818299D02*
X14119387Y-14832584D01*
X14062244Y-14832584D01*
X14033673Y-14818299D01*
X14019387Y-14789727D01*
X14019387Y-14675441D01*
X14033673Y-14646870D01*
X14062244Y-14632584D01*
X14119387Y-14632584D01*
X14147958Y-14646870D01*
X14162244Y-14675441D01*
X14162244Y-14704013D01*
X14019387Y-14732584D01*
X14276530Y-14818299D02*
X14305101Y-14832584D01*
X14362244Y-14832584D01*
X14390816Y-14818299D01*
X14405101Y-14789727D01*
X14405101Y-14775441D01*
X14390816Y-14746870D01*
X14362244Y-14732584D01*
X14319387Y-14732584D01*
X14290816Y-14718299D01*
X14276530Y-14689727D01*
X14276530Y-14675441D01*
X14290816Y-14646870D01*
X14319387Y-14632584D01*
X14362244Y-14632584D01*
X14390816Y-14646870D01*
X14505101Y-14946870D02*
X14519387Y-14932584D01*
X14547958Y-14889727D01*
X14562244Y-14861156D01*
X14576530Y-14818299D01*
X14590816Y-14746870D01*
X14590816Y-14689727D01*
X14576530Y-14618299D01*
X14562244Y-14575441D01*
X14547958Y-14546870D01*
X14519387Y-14504013D01*
X14505101Y-14489727D01*
X7106530Y-15147870D02*
X7161530Y-15092870D01*
X7106530Y-15037870D01*
X7051530Y-15092870D01*
X7106530Y-15147870D01*
X7605101Y-15228584D02*
X7433673Y-15228584D01*
X7519387Y-15228584D02*
X7519387Y-14928584D01*
X7490816Y-14971441D01*
X7462244Y-15000013D01*
X7433673Y-15014299D01*
X7733673Y-15200013D02*
X7747958Y-15214299D01*
X7733673Y-15228584D01*
X7719387Y-15214299D01*
X7733673Y-15200013D01*
X7733673Y-15228584D01*
X8033673Y-15228584D02*
X7862244Y-15228584D01*
X7947958Y-15228584D02*
X7947958Y-14928584D01*
X7919387Y-14971441D01*
X7890816Y-15000013D01*
X7862244Y-15014299D01*
X8219387Y-14928584D02*
X8247958Y-14928584D01*
X8276530Y-14942870D01*
X8290816Y-14957156D01*
X8305101Y-14985727D01*
X8319387Y-15042870D01*
X8319387Y-15114299D01*
X8305101Y-15171441D01*
X8290816Y-15200013D01*
X8276530Y-15214299D01*
X8247958Y-15228584D01*
X8219387Y-15228584D01*
X8190816Y-15214299D01*
X8176530Y-15200013D01*
X8162244Y-15171441D01*
X8147958Y-15114299D01*
X8147958Y-15042870D01*
X8162244Y-14985727D01*
X8176530Y-14957156D01*
X8190816Y-14942870D01*
X8219387Y-14928584D01*
X8505101Y-14928584D02*
X8533673Y-14928584D01*
X8562244Y-14942870D01*
X8576530Y-14957156D01*
X8590816Y-14985727D01*
X8605101Y-15042870D01*
X8605101Y-15114299D01*
X8590816Y-15171441D01*
X8576530Y-15200013D01*
X8562244Y-15214299D01*
X8533673Y-15228584D01*
X8505101Y-15228584D01*
X8476530Y-15214299D01*
X8462244Y-15200013D01*
X8447958Y-15171441D01*
X8433673Y-15114299D01*
X8433673Y-15042870D01*
X8447958Y-14985727D01*
X8462244Y-14957156D01*
X8476530Y-14942870D01*
X8505101Y-14928584D01*
X8733673Y-15228584D02*
X8733673Y-15028584D01*
X8733673Y-15057156D02*
X8747958Y-15042870D01*
X8776530Y-15028584D01*
X8819387Y-15028584D01*
X8847958Y-15042870D01*
X8862244Y-15071441D01*
X8862244Y-15228584D01*
X8862244Y-15071441D02*
X8876530Y-15042870D01*
X8905101Y-15028584D01*
X8947958Y-15028584D01*
X8976530Y-15042870D01*
X8990816Y-15071441D01*
X8990816Y-15228584D01*
X9133673Y-15228584D02*
X9133673Y-15028584D01*
X9133673Y-15057156D02*
X9147958Y-15042870D01*
X9176530Y-15028584D01*
X9219387Y-15028584D01*
X9247958Y-15042870D01*
X9262244Y-15071441D01*
X9262244Y-15228584D01*
X9262244Y-15071441D02*
X9276530Y-15042870D01*
X9305101Y-15028584D01*
X9347958Y-15028584D01*
X9376530Y-15042870D01*
X9390816Y-15071441D01*
X9390816Y-15228584D01*
X9976530Y-14914299D02*
X9719387Y-15300013D01*
X10362244Y-14928584D02*
X10390816Y-14928584D01*
X10419387Y-14942870D01*
X10433673Y-14957156D01*
X10447958Y-14985727D01*
X10462244Y-15042870D01*
X10462244Y-15114299D01*
X10447958Y-15171441D01*
X10433673Y-15200013D01*
X10419387Y-15214299D01*
X10390816Y-15228584D01*
X10362244Y-15228584D01*
X10333673Y-15214299D01*
X10319387Y-15200013D01*
X10305101Y-15171441D01*
X10290816Y-15114299D01*
X10290816Y-15042870D01*
X10305101Y-14985727D01*
X10319387Y-14957156D01*
X10333673Y-14942870D01*
X10362244Y-14928584D01*
X10590816Y-15200013D02*
X10605101Y-15214299D01*
X10590816Y-15228584D01*
X10576530Y-15214299D01*
X10590816Y-15200013D01*
X10590816Y-15228584D01*
X10790816Y-14928584D02*
X10819387Y-14928584D01*
X10847958Y-14942870D01*
X10862244Y-14957156D01*
X10876530Y-14985727D01*
X10890816Y-15042870D01*
X10890816Y-15114299D01*
X10876530Y-15171441D01*
X10862244Y-15200013D01*
X10847958Y-15214299D01*
X10819387Y-15228584D01*
X10790816Y-15228584D01*
X10762244Y-15214299D01*
X10747958Y-15200013D01*
X10733673Y-15171441D01*
X10719387Y-15114299D01*
X10719387Y-15042870D01*
X10733673Y-14985727D01*
X10747958Y-14957156D01*
X10762244Y-14942870D01*
X10790816Y-14928584D01*
X11147958Y-15028584D02*
X11147958Y-15228584D01*
X11076530Y-14914299D02*
X11005101Y-15128584D01*
X11190816Y-15128584D01*
X11276530Y-14928584D02*
X11462244Y-14928584D01*
X11362244Y-15042870D01*
X11405101Y-15042870D01*
X11433673Y-15057156D01*
X11447958Y-15071441D01*
X11462244Y-15100013D01*
X11462244Y-15171441D01*
X11447958Y-15200013D01*
X11433673Y-15214299D01*
X11405101Y-15228584D01*
X11319387Y-15228584D01*
X11290816Y-15214299D01*
X11276530Y-15200013D01*
X11562244Y-14928584D02*
X11747958Y-14928584D01*
X11647958Y-15042870D01*
X11690816Y-15042870D01*
X11719387Y-15057156D01*
X11733673Y-15071441D01*
X11747958Y-15100013D01*
X11747958Y-15171441D01*
X11733673Y-15200013D01*
X11719387Y-15214299D01*
X11690816Y-15228584D01*
X11605101Y-15228584D01*
X11576530Y-15214299D01*
X11562244Y-15200013D01*
X11862244Y-14928584D02*
X11862244Y-14985727D01*
X11976530Y-14928584D02*
X11976530Y-14985727D01*
X12419387Y-15342870D02*
X12405101Y-15328584D01*
X12376530Y-15285727D01*
X12362244Y-15257156D01*
X12347958Y-15214299D01*
X12333673Y-15142870D01*
X12333673Y-15085727D01*
X12347958Y-15014299D01*
X12362244Y-14971441D01*
X12376530Y-14942870D01*
X12405101Y-14900013D01*
X12419387Y-14885727D01*
X12519387Y-14957156D02*
X12533673Y-14942870D01*
X12562244Y-14928584D01*
X12633673Y-14928584D01*
X12662244Y-14942870D01*
X12676530Y-14957156D01*
X12690816Y-14985727D01*
X12690816Y-15014299D01*
X12676530Y-15057156D01*
X12505101Y-15228584D01*
X12690816Y-15228584D01*
X13047958Y-15228584D02*
X13047958Y-14928584D01*
X13176530Y-15228584D02*
X13176530Y-15071441D01*
X13162244Y-15042870D01*
X13133673Y-15028584D01*
X13090816Y-15028584D01*
X13062244Y-15042870D01*
X13047958Y-15057156D01*
X13362244Y-15228584D02*
X13333673Y-15214299D01*
X13319387Y-15200013D01*
X13305101Y-15171441D01*
X13305101Y-15085727D01*
X13319387Y-15057156D01*
X13333673Y-15042870D01*
X13362244Y-15028584D01*
X13405101Y-15028584D01*
X13433673Y-15042870D01*
X13447958Y-15057156D01*
X13462244Y-15085727D01*
X13462244Y-15171441D01*
X13447958Y-15200013D01*
X13433673Y-15214299D01*
X13405101Y-15228584D01*
X13362244Y-15228584D01*
X13633673Y-15228584D02*
X13605101Y-15214299D01*
X13590816Y-15185727D01*
X13590816Y-14928584D01*
X13862244Y-15214299D02*
X13833673Y-15228584D01*
X13776530Y-15228584D01*
X13747958Y-15214299D01*
X13733673Y-15185727D01*
X13733673Y-15071441D01*
X13747958Y-15042870D01*
X13776530Y-15028584D01*
X13833673Y-15028584D01*
X13862244Y-15042870D01*
X13876530Y-15071441D01*
X13876530Y-15100013D01*
X13733673Y-15128584D01*
X13990816Y-15214299D02*
X14019387Y-15228584D01*
X14076530Y-15228584D01*
X14105101Y-15214299D01*
X14119387Y-15185727D01*
X14119387Y-15171441D01*
X14105101Y-15142870D01*
X14076530Y-15128584D01*
X14033673Y-15128584D01*
X14005101Y-15114299D01*
X13990816Y-15085727D01*
X13990816Y-15071441D01*
X14005101Y-15042870D01*
X14033673Y-15028584D01*
X14076530Y-15028584D01*
X14105101Y-15042870D01*
X14219387Y-15342870D02*
X14233673Y-15328584D01*
X14262244Y-15285727D01*
X14276530Y-15257156D01*
X14290816Y-15214299D01*
X14305101Y-15142870D01*
X14305101Y-15085727D01*
X14290816Y-15014299D01*
X14276530Y-14971441D01*
X14262244Y-14942870D01*
X14233673Y-14900013D01*
X14219387Y-14885727D01*
X6841530Y-15328870D02*
X7161530Y-15648870D01*
X7161530Y-15328870D02*
X6841530Y-15648870D01*
X7161530Y-15488870D02*
G75*
G03*
X7161530Y-15488870I-160000J0D01*
G01*
X7419387Y-15324584D02*
X7605101Y-15324584D01*
X7505101Y-15438870D01*
X7547958Y-15438870D01*
X7576530Y-15453156D01*
X7590816Y-15467441D01*
X7605101Y-15496013D01*
X7605101Y-15567441D01*
X7590816Y-15596013D01*
X7576530Y-15610299D01*
X7547958Y-15624584D01*
X7462244Y-15624584D01*
X7433673Y-15610299D01*
X7419387Y-15596013D01*
X7733673Y-15596013D02*
X7747958Y-15610299D01*
X7733673Y-15624584D01*
X7719387Y-15610299D01*
X7733673Y-15596013D01*
X7733673Y-15624584D01*
X7862244Y-15353156D02*
X7876530Y-15338870D01*
X7905101Y-15324584D01*
X7976530Y-15324584D01*
X8005101Y-15338870D01*
X8019387Y-15353156D01*
X8033673Y-15381727D01*
X8033673Y-15410299D01*
X8019387Y-15453156D01*
X7847958Y-15624584D01*
X8033673Y-15624584D01*
X8219387Y-15324584D02*
X8247958Y-15324584D01*
X8276530Y-15338870D01*
X8290816Y-15353156D01*
X8305101Y-15381727D01*
X8319387Y-15438870D01*
X8319387Y-15510299D01*
X8305101Y-15567441D01*
X8290816Y-15596013D01*
X8276530Y-15610299D01*
X8247958Y-15624584D01*
X8219387Y-15624584D01*
X8190816Y-15610299D01*
X8176530Y-15596013D01*
X8162244Y-15567441D01*
X8147958Y-15510299D01*
X8147958Y-15438870D01*
X8162244Y-15381727D01*
X8176530Y-15353156D01*
X8190816Y-15338870D01*
X8219387Y-15324584D01*
X8505101Y-15324584D02*
X8533673Y-15324584D01*
X8562244Y-15338870D01*
X8576530Y-15353156D01*
X8590816Y-15381727D01*
X8605101Y-15438870D01*
X8605101Y-15510299D01*
X8590816Y-15567441D01*
X8576530Y-15596013D01*
X8562244Y-15610299D01*
X8533673Y-15624584D01*
X8505101Y-15624584D01*
X8476530Y-15610299D01*
X8462244Y-15596013D01*
X8447958Y-15567441D01*
X8433673Y-15510299D01*
X8433673Y-15438870D01*
X8447958Y-15381727D01*
X8462244Y-15353156D01*
X8476530Y-15338870D01*
X8505101Y-15324584D01*
X8733673Y-15624584D02*
X8733673Y-15424584D01*
X8733673Y-15453156D02*
X8747958Y-15438870D01*
X8776530Y-15424584D01*
X8819387Y-15424584D01*
X8847958Y-15438870D01*
X8862244Y-15467441D01*
X8862244Y-15624584D01*
X8862244Y-15467441D02*
X8876530Y-15438870D01*
X8905101Y-15424584D01*
X8947958Y-15424584D01*
X8976530Y-15438870D01*
X8990816Y-15467441D01*
X8990816Y-15624584D01*
X9133673Y-15624584D02*
X9133673Y-15424584D01*
X9133673Y-15453156D02*
X9147958Y-15438870D01*
X9176530Y-15424584D01*
X9219387Y-15424584D01*
X9247958Y-15438870D01*
X9262244Y-15467441D01*
X9262244Y-15624584D01*
X9262244Y-15467441D02*
X9276530Y-15438870D01*
X9305101Y-15424584D01*
X9347958Y-15424584D01*
X9376530Y-15438870D01*
X9390816Y-15467441D01*
X9390816Y-15624584D01*
X9976530Y-15310299D02*
X9719387Y-15696013D01*
X10362244Y-15324584D02*
X10390816Y-15324584D01*
X10419387Y-15338870D01*
X10433673Y-15353156D01*
X10447958Y-15381727D01*
X10462244Y-15438870D01*
X10462244Y-15510299D01*
X10447958Y-15567441D01*
X10433673Y-15596013D01*
X10419387Y-15610299D01*
X10390816Y-15624584D01*
X10362244Y-15624584D01*
X10333673Y-15610299D01*
X10319387Y-15596013D01*
X10305101Y-15567441D01*
X10290816Y-15510299D01*
X10290816Y-15438870D01*
X10305101Y-15381727D01*
X10319387Y-15353156D01*
X10333673Y-15338870D01*
X10362244Y-15324584D01*
X10590816Y-15596013D02*
X10605101Y-15610299D01*
X10590816Y-15624584D01*
X10576530Y-15610299D01*
X10590816Y-15596013D01*
X10590816Y-15624584D01*
X10890816Y-15624584D02*
X10719387Y-15624584D01*
X10805101Y-15624584D02*
X10805101Y-15324584D01*
X10776530Y-15367441D01*
X10747958Y-15396013D01*
X10719387Y-15410299D01*
X11005101Y-15353156D02*
X11019387Y-15338870D01*
X11047958Y-15324584D01*
X11119387Y-15324584D01*
X11147958Y-15338870D01*
X11162244Y-15353156D01*
X11176530Y-15381727D01*
X11176530Y-15410299D01*
X11162244Y-15453156D01*
X10990816Y-15624584D01*
X11176530Y-15624584D01*
X11433673Y-15324584D02*
X11376530Y-15324584D01*
X11347958Y-15338870D01*
X11333673Y-15353156D01*
X11305101Y-15396013D01*
X11290816Y-15453156D01*
X11290816Y-15567441D01*
X11305101Y-15596013D01*
X11319387Y-15610299D01*
X11347958Y-15624584D01*
X11405101Y-15624584D01*
X11433673Y-15610299D01*
X11447958Y-15596013D01*
X11462244Y-15567441D01*
X11462244Y-15496013D01*
X11447958Y-15467441D01*
X11433673Y-15453156D01*
X11405101Y-15438870D01*
X11347958Y-15438870D01*
X11319387Y-15453156D01*
X11305101Y-15467441D01*
X11290816Y-15496013D01*
X11647958Y-15324584D02*
X11676530Y-15324584D01*
X11705101Y-15338870D01*
X11719387Y-15353156D01*
X11733673Y-15381727D01*
X11747958Y-15438870D01*
X11747958Y-15510299D01*
X11733673Y-15567441D01*
X11719387Y-15596013D01*
X11705101Y-15610299D01*
X11676530Y-15624584D01*
X11647958Y-15624584D01*
X11619387Y-15610299D01*
X11605101Y-15596013D01*
X11590816Y-15567441D01*
X11576530Y-15510299D01*
X11576530Y-15438870D01*
X11590816Y-15381727D01*
X11605101Y-15353156D01*
X11619387Y-15338870D01*
X11647958Y-15324584D01*
X11862244Y-15324584D02*
X11862244Y-15381727D01*
X11976530Y-15324584D02*
X11976530Y-15381727D01*
X12419387Y-15738870D02*
X12405101Y-15724584D01*
X12376530Y-15681727D01*
X12362244Y-15653156D01*
X12347958Y-15610299D01*
X12333673Y-15538870D01*
X12333673Y-15481727D01*
X12347958Y-15410299D01*
X12362244Y-15367441D01*
X12376530Y-15338870D01*
X12405101Y-15296013D01*
X12419387Y-15281727D01*
X12662244Y-15424584D02*
X12662244Y-15624584D01*
X12590816Y-15310299D02*
X12519387Y-15524584D01*
X12705101Y-15524584D01*
X13047958Y-15624584D02*
X13047958Y-15324584D01*
X13176530Y-15624584D02*
X13176530Y-15467441D01*
X13162244Y-15438870D01*
X13133673Y-15424584D01*
X13090816Y-15424584D01*
X13062244Y-15438870D01*
X13047958Y-15453156D01*
X13362244Y-15624584D02*
X13333673Y-15610299D01*
X13319387Y-15596013D01*
X13305101Y-15567441D01*
X13305101Y-15481727D01*
X13319387Y-15453156D01*
X13333673Y-15438870D01*
X13362244Y-15424584D01*
X13405101Y-15424584D01*
X13433673Y-15438870D01*
X13447958Y-15453156D01*
X13462244Y-15481727D01*
X13462244Y-15567441D01*
X13447958Y-15596013D01*
X13433673Y-15610299D01*
X13405101Y-15624584D01*
X13362244Y-15624584D01*
X13633673Y-15624584D02*
X13605101Y-15610299D01*
X13590816Y-15581727D01*
X13590816Y-15324584D01*
X13862244Y-15610299D02*
X13833673Y-15624584D01*
X13776530Y-15624584D01*
X13747958Y-15610299D01*
X13733673Y-15581727D01*
X13733673Y-15467441D01*
X13747958Y-15438870D01*
X13776530Y-15424584D01*
X13833673Y-15424584D01*
X13862244Y-15438870D01*
X13876530Y-15467441D01*
X13876530Y-15496013D01*
X13733673Y-15524584D01*
X13990816Y-15610299D02*
X14019387Y-15624584D01*
X14076530Y-15624584D01*
X14105101Y-15610299D01*
X14119387Y-15581727D01*
X14119387Y-15567441D01*
X14105101Y-15538870D01*
X14076530Y-15524584D01*
X14033673Y-15524584D01*
X14005101Y-15510299D01*
X13990816Y-15481727D01*
X13990816Y-15467441D01*
X14005101Y-15438870D01*
X14033673Y-15424584D01*
X14076530Y-15424584D01*
X14105101Y-15438870D01*
X14219387Y-15738870D02*
X14233673Y-15724584D01*
X14262244Y-15681727D01*
X14276530Y-15653156D01*
X14290816Y-15610299D01*
X14305101Y-15538870D01*
X14305101Y-15481727D01*
X14290816Y-15410299D01*
X14276530Y-15367441D01*
X14262244Y-15338870D01*
X14233673Y-15296013D01*
X14219387Y-15281727D01*
X6711530Y-15713870D02*
X7161530Y-16163870D01*
X7161530Y-15713870D02*
X6711530Y-16163870D01*
X6936530Y-15713870D02*
X6936530Y-16163870D01*
X6711530Y-15938870D02*
X7161530Y-15938870D01*
X7576530Y-15874584D02*
X7576530Y-16074584D01*
X7505101Y-15760299D02*
X7433673Y-15974584D01*
X7619387Y-15974584D01*
X7733673Y-16046013D02*
X7747958Y-16060299D01*
X7733673Y-16074584D01*
X7719387Y-16060299D01*
X7733673Y-16046013D01*
X7733673Y-16074584D01*
X8019387Y-15774584D02*
X7876530Y-15774584D01*
X7862244Y-15917441D01*
X7876530Y-15903156D01*
X7905101Y-15888870D01*
X7976530Y-15888870D01*
X8005101Y-15903156D01*
X8019387Y-15917441D01*
X8033673Y-15946013D01*
X8033673Y-16017441D01*
X8019387Y-16046013D01*
X8005101Y-16060299D01*
X7976530Y-16074584D01*
X7905101Y-16074584D01*
X7876530Y-16060299D01*
X7862244Y-16046013D01*
X8219387Y-15774584D02*
X8247958Y-15774584D01*
X8276530Y-15788870D01*
X8290816Y-15803156D01*
X8305101Y-15831727D01*
X8319387Y-15888870D01*
X8319387Y-15960299D01*
X8305101Y-16017441D01*
X8290816Y-16046013D01*
X8276530Y-16060299D01*
X8247958Y-16074584D01*
X8219387Y-16074584D01*
X8190816Y-16060299D01*
X8176530Y-16046013D01*
X8162244Y-16017441D01*
X8147958Y-15960299D01*
X8147958Y-15888870D01*
X8162244Y-15831727D01*
X8176530Y-15803156D01*
X8190816Y-15788870D01*
X8219387Y-15774584D01*
X8505101Y-15774584D02*
X8533673Y-15774584D01*
X8562244Y-15788870D01*
X8576530Y-15803156D01*
X8590816Y-15831727D01*
X8605101Y-15888870D01*
X8605101Y-15960299D01*
X8590816Y-16017441D01*
X8576530Y-16046013D01*
X8562244Y-16060299D01*
X8533673Y-16074584D01*
X8505101Y-16074584D01*
X8476530Y-16060299D01*
X8462244Y-16046013D01*
X8447958Y-16017441D01*
X8433673Y-15960299D01*
X8433673Y-15888870D01*
X8447958Y-15831727D01*
X8462244Y-15803156D01*
X8476530Y-15788870D01*
X8505101Y-15774584D01*
X8733673Y-16074584D02*
X8733673Y-15874584D01*
X8733673Y-15903156D02*
X8747958Y-15888870D01*
X8776530Y-15874584D01*
X8819387Y-15874584D01*
X8847958Y-15888870D01*
X8862244Y-15917441D01*
X8862244Y-16074584D01*
X8862244Y-15917441D02*
X8876530Y-15888870D01*
X8905101Y-15874584D01*
X8947958Y-15874584D01*
X8976530Y-15888870D01*
X8990816Y-15917441D01*
X8990816Y-16074584D01*
X9133673Y-16074584D02*
X9133673Y-15874584D01*
X9133673Y-15903156D02*
X9147958Y-15888870D01*
X9176530Y-15874584D01*
X9219387Y-15874584D01*
X9247958Y-15888870D01*
X9262244Y-15917441D01*
X9262244Y-16074584D01*
X9262244Y-15917441D02*
X9276530Y-15888870D01*
X9305101Y-15874584D01*
X9347958Y-15874584D01*
X9376530Y-15888870D01*
X9390816Y-15917441D01*
X9390816Y-16074584D01*
X9976530Y-15760299D02*
X9719387Y-16146013D01*
X10362244Y-15774584D02*
X10390816Y-15774584D01*
X10419387Y-15788870D01*
X10433673Y-15803156D01*
X10447958Y-15831727D01*
X10462244Y-15888870D01*
X10462244Y-15960299D01*
X10447958Y-16017441D01*
X10433673Y-16046013D01*
X10419387Y-16060299D01*
X10390816Y-16074584D01*
X10362244Y-16074584D01*
X10333673Y-16060299D01*
X10319387Y-16046013D01*
X10305101Y-16017441D01*
X10290816Y-15960299D01*
X10290816Y-15888870D01*
X10305101Y-15831727D01*
X10319387Y-15803156D01*
X10333673Y-15788870D01*
X10362244Y-15774584D01*
X10590816Y-16046013D02*
X10605101Y-16060299D01*
X10590816Y-16074584D01*
X10576530Y-16060299D01*
X10590816Y-16046013D01*
X10590816Y-16074584D01*
X10890816Y-16074584D02*
X10719387Y-16074584D01*
X10805101Y-16074584D02*
X10805101Y-15774584D01*
X10776530Y-15817441D01*
X10747958Y-15846013D01*
X10719387Y-15860299D01*
X10990816Y-15774584D02*
X11190816Y-15774584D01*
X11062244Y-16074584D01*
X11276530Y-15774584D02*
X11476530Y-15774584D01*
X11347958Y-16074584D01*
X11576530Y-15803156D02*
X11590816Y-15788870D01*
X11619387Y-15774584D01*
X11690816Y-15774584D01*
X11719387Y-15788870D01*
X11733673Y-15803156D01*
X11747958Y-15831727D01*
X11747958Y-15860299D01*
X11733673Y-15903156D01*
X11562244Y-16074584D01*
X11747958Y-16074584D01*
X11862244Y-15774584D02*
X11862244Y-15831727D01*
X11976530Y-15774584D02*
X11976530Y-15831727D01*
X12419387Y-16188870D02*
X12405101Y-16174584D01*
X12376530Y-16131727D01*
X12362244Y-16103156D01*
X12347958Y-16060299D01*
X12333673Y-15988870D01*
X12333673Y-15931727D01*
X12347958Y-15860299D01*
X12362244Y-15817441D01*
X12376530Y-15788870D01*
X12405101Y-15746013D01*
X12419387Y-15731727D01*
X12519387Y-15803156D02*
X12533673Y-15788870D01*
X12562244Y-15774584D01*
X12633673Y-15774584D01*
X12662244Y-15788870D01*
X12676530Y-15803156D01*
X12690816Y-15831727D01*
X12690816Y-15860299D01*
X12676530Y-15903156D01*
X12505101Y-16074584D01*
X12690816Y-16074584D01*
X13047958Y-16074584D02*
X13047958Y-15774584D01*
X13176530Y-16074584D02*
X13176530Y-15917441D01*
X13162244Y-15888870D01*
X13133673Y-15874584D01*
X13090816Y-15874584D01*
X13062244Y-15888870D01*
X13047958Y-15903156D01*
X13362244Y-16074584D02*
X13333673Y-16060299D01*
X13319387Y-16046013D01*
X13305101Y-16017441D01*
X13305101Y-15931727D01*
X13319387Y-15903156D01*
X13333673Y-15888870D01*
X13362244Y-15874584D01*
X13405101Y-15874584D01*
X13433673Y-15888870D01*
X13447958Y-15903156D01*
X13462244Y-15931727D01*
X13462244Y-16017441D01*
X13447958Y-16046013D01*
X13433673Y-16060299D01*
X13405101Y-16074584D01*
X13362244Y-16074584D01*
X13633673Y-16074584D02*
X13605101Y-16060299D01*
X13590816Y-16031727D01*
X13590816Y-15774584D01*
X13862244Y-16060299D02*
X13833673Y-16074584D01*
X13776530Y-16074584D01*
X13747958Y-16060299D01*
X13733673Y-16031727D01*
X13733673Y-15917441D01*
X13747958Y-15888870D01*
X13776530Y-15874584D01*
X13833673Y-15874584D01*
X13862244Y-15888870D01*
X13876530Y-15917441D01*
X13876530Y-15946013D01*
X13733673Y-15974584D01*
X13990816Y-16060299D02*
X14019387Y-16074584D01*
X14076530Y-16074584D01*
X14105101Y-16060299D01*
X14119387Y-16031727D01*
X14119387Y-16017441D01*
X14105101Y-15988870D01*
X14076530Y-15974584D01*
X14033673Y-15974584D01*
X14005101Y-15960299D01*
X13990816Y-15931727D01*
X13990816Y-15917441D01*
X14005101Y-15888870D01*
X14033673Y-15874584D01*
X14076530Y-15874584D01*
X14105101Y-15888870D01*
X14219387Y-16188870D02*
X14233673Y-16174584D01*
X14262244Y-16131727D01*
X14276530Y-16103156D01*
X14290816Y-16060299D01*
X14305101Y-15988870D01*
X14305101Y-15931727D01*
X14290816Y-15860299D01*
X14276530Y-15817441D01*
X14262244Y-15788870D01*
X14233673Y-15746013D01*
X14219387Y-15731727D01*
M02*
