G04 #@! TF.GenerationSoftware,KiCad,Pcbnew,(5.1.10)-1*
G04 #@! TF.CreationDate,2022-02-12T13:03:44-05:00*
G04 #@! TF.ProjectId,M5_BuggyProject,4d355f42-7567-4677-9950-726f6a656374,v1.0*
G04 #@! TF.SameCoordinates,Original*
G04 #@! TF.FileFunction,Legend,Top*
G04 #@! TF.FilePolarity,Positive*
%FSLAX46Y46*%
G04 Gerber Fmt 4.6, Leading zero omitted, Abs format (unit mm)*
G04 Created by KiCad (PCBNEW (5.1.10)-1) date 2022-02-12 13:03:44*
%MOMM*%
%LPD*%
G01*
G04 APERTURE LIST*
%ADD10C,0.076200*%
%ADD11C,0.150000*%
%ADD12C,0.152400*%
%ADD13C,0.120000*%
%ADD14C,0.101600*%
%ADD15C,0.010000*%
%ADD16C,0.100000*%
%ADD17C,0.127000*%
%ADD18C,1.600000*%
%ADD19R,1.600000X1.600000*%
%ADD20R,1.700000X1.700000*%
%ADD21O,1.700000X1.700000*%
%ADD22R,2.000000X2.000000*%
%ADD23C,2.000000*%
%ADD24O,2.000000X2.000000*%
%ADD25C,6.000000*%
%ADD26R,2.500000X1.700000*%
%ADD27C,6.400000*%
%ADD28C,0.800000*%
G04 APERTURE END LIST*
D10*
X83783714Y-37350518D02*
X84364285Y-37350518D01*
X84074000Y-37640804D02*
X84074000Y-37060232D01*
X78195714Y-37350518D02*
X78776285Y-37350518D01*
X78486000Y-37640804D02*
X78486000Y-37060232D01*
X73623714Y-103644518D02*
X74204285Y-103644518D01*
X73914000Y-103934804D02*
X73914000Y-103354232D01*
X99217238Y-87557428D02*
X99193047Y-87581619D01*
X99120476Y-87605809D01*
X99072095Y-87605809D01*
X98999523Y-87581619D01*
X98951142Y-87533238D01*
X98926952Y-87484857D01*
X98902761Y-87388095D01*
X98902761Y-87315523D01*
X98926952Y-87218761D01*
X98951142Y-87170380D01*
X98999523Y-87122000D01*
X99072095Y-87097809D01*
X99120476Y-87097809D01*
X99193047Y-87122000D01*
X99217238Y-87146190D01*
X99434952Y-87605809D02*
X99434952Y-87097809D01*
X99434952Y-87339714D02*
X99725238Y-87339714D01*
X99725238Y-87605809D02*
X99725238Y-87097809D01*
X100233238Y-87605809D02*
X99942952Y-87605809D01*
X100088095Y-87605809D02*
X100088095Y-87097809D01*
X100039714Y-87170380D01*
X99991333Y-87218761D01*
X99942952Y-87242952D01*
X96677238Y-87557428D02*
X96653047Y-87581619D01*
X96580476Y-87605809D01*
X96532095Y-87605809D01*
X96459523Y-87581619D01*
X96411142Y-87533238D01*
X96386952Y-87484857D01*
X96362761Y-87388095D01*
X96362761Y-87315523D01*
X96386952Y-87218761D01*
X96411142Y-87170380D01*
X96459523Y-87122000D01*
X96532095Y-87097809D01*
X96580476Y-87097809D01*
X96653047Y-87122000D01*
X96677238Y-87146190D01*
X96894952Y-87605809D02*
X96894952Y-87097809D01*
X96894952Y-87339714D02*
X97185238Y-87339714D01*
X97185238Y-87605809D02*
X97185238Y-87097809D01*
X97402952Y-87146190D02*
X97427142Y-87122000D01*
X97475523Y-87097809D01*
X97596476Y-87097809D01*
X97644857Y-87122000D01*
X97669047Y-87146190D01*
X97693238Y-87194571D01*
X97693238Y-87242952D01*
X97669047Y-87315523D01*
X97378761Y-87605809D01*
X97693238Y-87605809D01*
X94137238Y-87557428D02*
X94113047Y-87581619D01*
X94040476Y-87605809D01*
X93992095Y-87605809D01*
X93919523Y-87581619D01*
X93871142Y-87533238D01*
X93846952Y-87484857D01*
X93822761Y-87388095D01*
X93822761Y-87315523D01*
X93846952Y-87218761D01*
X93871142Y-87170380D01*
X93919523Y-87122000D01*
X93992095Y-87097809D01*
X94040476Y-87097809D01*
X94113047Y-87122000D01*
X94137238Y-87146190D01*
X94354952Y-87605809D02*
X94354952Y-87097809D01*
X94354952Y-87339714D02*
X94645238Y-87339714D01*
X94645238Y-87605809D02*
X94645238Y-87097809D01*
X94838761Y-87097809D02*
X95153238Y-87097809D01*
X94983904Y-87291333D01*
X95056476Y-87291333D01*
X95104857Y-87315523D01*
X95129047Y-87339714D01*
X95153238Y-87388095D01*
X95153238Y-87509047D01*
X95129047Y-87557428D01*
X95104857Y-87581619D01*
X95056476Y-87605809D01*
X94911333Y-87605809D01*
X94862952Y-87581619D01*
X94838761Y-87557428D01*
X91052952Y-87097809D02*
X91222285Y-87605809D01*
X91391619Y-87097809D01*
X91657714Y-87097809D02*
X91754476Y-87097809D01*
X91802857Y-87122000D01*
X91851238Y-87170380D01*
X91875428Y-87267142D01*
X91875428Y-87436476D01*
X91851238Y-87533238D01*
X91802857Y-87581619D01*
X91754476Y-87605809D01*
X91657714Y-87605809D01*
X91609333Y-87581619D01*
X91560952Y-87533238D01*
X91536761Y-87436476D01*
X91536761Y-87267142D01*
X91560952Y-87170380D01*
X91609333Y-87122000D01*
X91657714Y-87097809D01*
X92093142Y-87097809D02*
X92093142Y-87509047D01*
X92117333Y-87557428D01*
X92141523Y-87581619D01*
X92189904Y-87605809D01*
X92286666Y-87605809D01*
X92335047Y-87581619D01*
X92359238Y-87557428D01*
X92383428Y-87509047D01*
X92383428Y-87097809D01*
X92552761Y-87097809D02*
X92843047Y-87097809D01*
X92697904Y-87605809D02*
X92697904Y-87097809D01*
X89020952Y-87122000D02*
X88972571Y-87097809D01*
X88900000Y-87097809D01*
X88827428Y-87122000D01*
X88779047Y-87170380D01*
X88754857Y-87218761D01*
X88730666Y-87315523D01*
X88730666Y-87388095D01*
X88754857Y-87484857D01*
X88779047Y-87533238D01*
X88827428Y-87581619D01*
X88900000Y-87605809D01*
X88948380Y-87605809D01*
X89020952Y-87581619D01*
X89045142Y-87557428D01*
X89045142Y-87388095D01*
X88948380Y-87388095D01*
X89262857Y-87605809D02*
X89262857Y-87097809D01*
X89553142Y-87605809D01*
X89553142Y-87097809D01*
X89795047Y-87605809D02*
X89795047Y-87097809D01*
X89916000Y-87097809D01*
X89988571Y-87122000D01*
X90036952Y-87170380D01*
X90061142Y-87218761D01*
X90085333Y-87315523D01*
X90085333Y-87388095D01*
X90061142Y-87484857D01*
X90036952Y-87533238D01*
X89988571Y-87581619D01*
X89916000Y-87605809D01*
X89795047Y-87605809D01*
D11*
X74676095Y-47506000D02*
X74580857Y-47458380D01*
X74438000Y-47458380D01*
X74295142Y-47506000D01*
X74199904Y-47601238D01*
X74152285Y-47696476D01*
X74104666Y-47886952D01*
X74104666Y-48029809D01*
X74152285Y-48220285D01*
X74199904Y-48315523D01*
X74295142Y-48410761D01*
X74438000Y-48458380D01*
X74533238Y-48458380D01*
X74676095Y-48410761D01*
X74723714Y-48363142D01*
X74723714Y-48029809D01*
X74533238Y-48029809D01*
X75152285Y-48458380D02*
X75152285Y-47458380D01*
X75723714Y-48458380D01*
X75723714Y-47458380D01*
X76199904Y-48458380D02*
X76199904Y-47458380D01*
X76438000Y-47458380D01*
X76580857Y-47506000D01*
X76676095Y-47601238D01*
X76723714Y-47696476D01*
X76771333Y-47886952D01*
X76771333Y-48029809D01*
X76723714Y-48220285D01*
X76676095Y-48315523D01*
X76580857Y-48410761D01*
X76438000Y-48458380D01*
X76199904Y-48458380D01*
X74533238Y-49998380D02*
X74866571Y-50998380D01*
X75199904Y-49998380D01*
X75533238Y-50998380D02*
X75533238Y-49998380D01*
X75866571Y-50712666D01*
X76199904Y-49998380D01*
X76199904Y-50998380D01*
X74271333Y-55554571D02*
X74414190Y-55602190D01*
X74461809Y-55649809D01*
X74509428Y-55745047D01*
X74509428Y-55887904D01*
X74461809Y-55983142D01*
X74414190Y-56030761D01*
X74318952Y-56078380D01*
X73938000Y-56078380D01*
X73938000Y-55078380D01*
X74271333Y-55078380D01*
X74366571Y-55126000D01*
X74414190Y-55173619D01*
X74461809Y-55268857D01*
X74461809Y-55364095D01*
X74414190Y-55459333D01*
X74366571Y-55506952D01*
X74271333Y-55554571D01*
X73938000Y-55554571D01*
X74938000Y-56078380D02*
X74938000Y-55078380D01*
X75414190Y-56078380D02*
X75414190Y-55078380D01*
X75985619Y-56078380D01*
X75985619Y-55078380D01*
X76985619Y-56078380D02*
X76414190Y-56078380D01*
X76699904Y-56078380D02*
X76699904Y-55078380D01*
X76604666Y-55221238D01*
X76509428Y-55316476D01*
X76414190Y-55364095D01*
X74271333Y-53014571D02*
X74414190Y-53062190D01*
X74461809Y-53109809D01*
X74509428Y-53205047D01*
X74509428Y-53347904D01*
X74461809Y-53443142D01*
X74414190Y-53490761D01*
X74318952Y-53538380D01*
X73938000Y-53538380D01*
X73938000Y-52538380D01*
X74271333Y-52538380D01*
X74366571Y-52586000D01*
X74414190Y-52633619D01*
X74461809Y-52728857D01*
X74461809Y-52824095D01*
X74414190Y-52919333D01*
X74366571Y-52966952D01*
X74271333Y-53014571D01*
X73938000Y-53014571D01*
X74938000Y-53538380D02*
X74938000Y-52538380D01*
X75414190Y-53538380D02*
X75414190Y-52538380D01*
X75985619Y-53538380D01*
X75985619Y-52538380D01*
X76414190Y-52633619D02*
X76461809Y-52586000D01*
X76557047Y-52538380D01*
X76795142Y-52538380D01*
X76890380Y-52586000D01*
X76938000Y-52633619D01*
X76985619Y-52728857D01*
X76985619Y-52824095D01*
X76938000Y-52966952D01*
X76366571Y-53538380D01*
X76985619Y-53538380D01*
X74676095Y-67826000D02*
X74580857Y-67778380D01*
X74438000Y-67778380D01*
X74295142Y-67826000D01*
X74199904Y-67921238D01*
X74152285Y-68016476D01*
X74104666Y-68206952D01*
X74104666Y-68349809D01*
X74152285Y-68540285D01*
X74199904Y-68635523D01*
X74295142Y-68730761D01*
X74438000Y-68778380D01*
X74533238Y-68778380D01*
X74676095Y-68730761D01*
X74723714Y-68683142D01*
X74723714Y-68349809D01*
X74533238Y-68349809D01*
X75152285Y-68778380D02*
X75152285Y-67778380D01*
X75723714Y-68778380D01*
X75723714Y-67778380D01*
X76199904Y-68778380D02*
X76199904Y-67778380D01*
X76438000Y-67778380D01*
X76580857Y-67826000D01*
X76676095Y-67921238D01*
X76723714Y-68016476D01*
X76771333Y-68206952D01*
X76771333Y-68349809D01*
X76723714Y-68540285D01*
X76676095Y-68635523D01*
X76580857Y-68730761D01*
X76438000Y-68778380D01*
X76199904Y-68778380D01*
X74533238Y-70318380D02*
X74866571Y-71318380D01*
X75199904Y-70318380D01*
X75533238Y-71318380D02*
X75533238Y-70318380D01*
X75866571Y-71032666D01*
X76199904Y-70318380D01*
X76199904Y-71318380D01*
X74271333Y-75874571D02*
X74414190Y-75922190D01*
X74461809Y-75969809D01*
X74509428Y-76065047D01*
X74509428Y-76207904D01*
X74461809Y-76303142D01*
X74414190Y-76350761D01*
X74318952Y-76398380D01*
X73938000Y-76398380D01*
X73938000Y-75398380D01*
X74271333Y-75398380D01*
X74366571Y-75446000D01*
X74414190Y-75493619D01*
X74461809Y-75588857D01*
X74461809Y-75684095D01*
X74414190Y-75779333D01*
X74366571Y-75826952D01*
X74271333Y-75874571D01*
X73938000Y-75874571D01*
X74938000Y-76398380D02*
X74938000Y-75398380D01*
X75414190Y-76398380D02*
X75414190Y-75398380D01*
X75985619Y-76398380D01*
X75985619Y-75398380D01*
X76985619Y-76398380D02*
X76414190Y-76398380D01*
X76699904Y-76398380D02*
X76699904Y-75398380D01*
X76604666Y-75541238D01*
X76509428Y-75636476D01*
X76414190Y-75684095D01*
X74271333Y-73334571D02*
X74414190Y-73382190D01*
X74461809Y-73429809D01*
X74509428Y-73525047D01*
X74509428Y-73667904D01*
X74461809Y-73763142D01*
X74414190Y-73810761D01*
X74318952Y-73858380D01*
X73938000Y-73858380D01*
X73938000Y-72858380D01*
X74271333Y-72858380D01*
X74366571Y-72906000D01*
X74414190Y-72953619D01*
X74461809Y-73048857D01*
X74461809Y-73144095D01*
X74414190Y-73239333D01*
X74366571Y-73286952D01*
X74271333Y-73334571D01*
X73938000Y-73334571D01*
X74938000Y-73858380D02*
X74938000Y-72858380D01*
X75414190Y-73858380D02*
X75414190Y-72858380D01*
X75985619Y-73858380D01*
X75985619Y-72858380D01*
X76414190Y-72953619D02*
X76461809Y-72906000D01*
X76557047Y-72858380D01*
X76795142Y-72858380D01*
X76890380Y-72906000D01*
X76938000Y-72953619D01*
X76985619Y-73048857D01*
X76985619Y-73144095D01*
X76938000Y-73286952D01*
X76366571Y-73858380D01*
X76985619Y-73858380D01*
X79414857Y-104016880D02*
X79414857Y-103016880D01*
X79795809Y-103016880D01*
X79891047Y-103064500D01*
X79938666Y-103112119D01*
X79986285Y-103207357D01*
X79986285Y-103350214D01*
X79938666Y-103445452D01*
X79891047Y-103493071D01*
X79795809Y-103540690D01*
X79414857Y-103540690D01*
X80605333Y-103016880D02*
X80795809Y-103016880D01*
X80891047Y-103064500D01*
X80986285Y-103159738D01*
X81033904Y-103350214D01*
X81033904Y-103683547D01*
X80986285Y-103874023D01*
X80891047Y-103969261D01*
X80795809Y-104016880D01*
X80605333Y-104016880D01*
X80510095Y-103969261D01*
X80414857Y-103874023D01*
X80367238Y-103683547D01*
X80367238Y-103350214D01*
X80414857Y-103159738D01*
X80510095Y-103064500D01*
X80605333Y-103016880D01*
X81367238Y-103016880D02*
X81605333Y-104016880D01*
X81795809Y-103302595D01*
X81986285Y-104016880D01*
X82224380Y-103016880D01*
D12*
X99923600Y-94849696D02*
X100076000Y-94900496D01*
X100126800Y-94951296D01*
X100177600Y-95052896D01*
X100177600Y-95205296D01*
X100126800Y-95306896D01*
X100076000Y-95357696D01*
X99974400Y-95408496D01*
X99568000Y-95408496D01*
X99568000Y-94341696D01*
X99923600Y-94341696D01*
X100025200Y-94392496D01*
X100076000Y-94443296D01*
X100126800Y-94544896D01*
X100126800Y-94646496D01*
X100076000Y-94748096D01*
X100025200Y-94798896D01*
X99923600Y-94849696D01*
X99568000Y-94849696D01*
X100634800Y-94849696D02*
X100990400Y-94849696D01*
X101142800Y-95408496D02*
X100634800Y-95408496D01*
X100634800Y-94341696D01*
X101142800Y-94341696D01*
X101600000Y-94849696D02*
X101955600Y-94849696D01*
X102108000Y-95408496D02*
X101600000Y-95408496D01*
X101600000Y-94341696D01*
X102108000Y-94341696D01*
X102565200Y-95408496D02*
X102565200Y-94341696D01*
X102971600Y-94341696D01*
X103073200Y-94392496D01*
X103124000Y-94443296D01*
X103174800Y-94544896D01*
X103174800Y-94697296D01*
X103124000Y-94798896D01*
X103073200Y-94849696D01*
X102971600Y-94900496D01*
X102565200Y-94900496D01*
D11*
X105600666Y-117308380D02*
X105934000Y-118308380D01*
X106267333Y-117308380D01*
X107172095Y-118213142D02*
X107124476Y-118260761D01*
X106981619Y-118308380D01*
X106886380Y-118308380D01*
X106743523Y-118260761D01*
X106648285Y-118165523D01*
X106600666Y-118070285D01*
X106553047Y-117879809D01*
X106553047Y-117736952D01*
X106600666Y-117546476D01*
X106648285Y-117451238D01*
X106743523Y-117356000D01*
X106886380Y-117308380D01*
X106981619Y-117308380D01*
X107124476Y-117356000D01*
X107172095Y-117403619D01*
X108172095Y-118213142D02*
X108124476Y-118260761D01*
X107981619Y-118308380D01*
X107886380Y-118308380D01*
X107743523Y-118260761D01*
X107648285Y-118165523D01*
X107600666Y-118070285D01*
X107553047Y-117879809D01*
X107553047Y-117736952D01*
X107600666Y-117546476D01*
X107648285Y-117451238D01*
X107743523Y-117356000D01*
X107886380Y-117308380D01*
X107981619Y-117308380D01*
X108124476Y-117356000D01*
X108172095Y-117403619D01*
X94122952Y-118308380D02*
X93551523Y-118308380D01*
X93837238Y-118308380D02*
X93837238Y-117308380D01*
X93742000Y-117451238D01*
X93646761Y-117546476D01*
X93551523Y-117594095D01*
X94742000Y-117308380D02*
X94837238Y-117308380D01*
X94932476Y-117356000D01*
X94980095Y-117403619D01*
X95027714Y-117498857D01*
X95075333Y-117689333D01*
X95075333Y-117927428D01*
X95027714Y-118117904D01*
X94980095Y-118213142D01*
X94932476Y-118260761D01*
X94837238Y-118308380D01*
X94742000Y-118308380D01*
X94646761Y-118260761D01*
X94599142Y-118213142D01*
X94551523Y-118117904D01*
X94503904Y-117927428D01*
X94503904Y-117689333D01*
X94551523Y-117498857D01*
X94599142Y-117403619D01*
X94646761Y-117356000D01*
X94742000Y-117308380D01*
X95361047Y-117308380D02*
X95694380Y-118308380D01*
X96027714Y-117308380D01*
X79660952Y-35663142D02*
X79613333Y-35710761D01*
X79470476Y-35758380D01*
X79375238Y-35758380D01*
X79232380Y-35710761D01*
X79137142Y-35615523D01*
X79089523Y-35520285D01*
X79041904Y-35329809D01*
X79041904Y-35186952D01*
X79089523Y-34996476D01*
X79137142Y-34901238D01*
X79232380Y-34806000D01*
X79375238Y-34758380D01*
X79470476Y-34758380D01*
X79613333Y-34806000D01*
X79660952Y-34853619D01*
X80280000Y-34758380D02*
X80470476Y-34758380D01*
X80565714Y-34806000D01*
X80660952Y-34901238D01*
X80708571Y-35091714D01*
X80708571Y-35425047D01*
X80660952Y-35615523D01*
X80565714Y-35710761D01*
X80470476Y-35758380D01*
X80280000Y-35758380D01*
X80184761Y-35710761D01*
X80089523Y-35615523D01*
X80041904Y-35425047D01*
X80041904Y-35091714D01*
X80089523Y-34901238D01*
X80184761Y-34806000D01*
X80280000Y-34758380D01*
X81137142Y-35758380D02*
X81137142Y-34758380D01*
X81708571Y-35758380D01*
X81708571Y-34758380D01*
X81946666Y-35853619D02*
X82708571Y-35853619D01*
X83518095Y-35758380D02*
X83184761Y-35282190D01*
X82946666Y-35758380D02*
X82946666Y-34758380D01*
X83327619Y-34758380D01*
X83422857Y-34806000D01*
X83470476Y-34853619D01*
X83518095Y-34948857D01*
X83518095Y-35091714D01*
X83470476Y-35186952D01*
X83422857Y-35234571D01*
X83327619Y-35282190D01*
X82946666Y-35282190D01*
X74168190Y-35663142D02*
X74120571Y-35710761D01*
X73977714Y-35758380D01*
X73882476Y-35758380D01*
X73739619Y-35710761D01*
X73644380Y-35615523D01*
X73596761Y-35520285D01*
X73549142Y-35329809D01*
X73549142Y-35186952D01*
X73596761Y-34996476D01*
X73644380Y-34901238D01*
X73739619Y-34806000D01*
X73882476Y-34758380D01*
X73977714Y-34758380D01*
X74120571Y-34806000D01*
X74168190Y-34853619D01*
X74787238Y-34758380D02*
X74977714Y-34758380D01*
X75072952Y-34806000D01*
X75168190Y-34901238D01*
X75215809Y-35091714D01*
X75215809Y-35425047D01*
X75168190Y-35615523D01*
X75072952Y-35710761D01*
X74977714Y-35758380D01*
X74787238Y-35758380D01*
X74692000Y-35710761D01*
X74596761Y-35615523D01*
X74549142Y-35425047D01*
X74549142Y-35091714D01*
X74596761Y-34901238D01*
X74692000Y-34806000D01*
X74787238Y-34758380D01*
X75644380Y-35758380D02*
X75644380Y-34758380D01*
X76215809Y-35758380D01*
X76215809Y-34758380D01*
X76453904Y-35853619D02*
X77215809Y-35853619D01*
X77930095Y-35758380D02*
X77453904Y-35758380D01*
X77453904Y-34758380D01*
X105537047Y-106624428D02*
X106298952Y-106624428D01*
X105537047Y-113609428D02*
X106298952Y-113609428D01*
X105918000Y-113990380D02*
X105918000Y-113228476D01*
X117602047Y-108402428D02*
X118363952Y-108402428D01*
X117602047Y-115387428D02*
X118363952Y-115387428D01*
X117983000Y-115768380D02*
X117983000Y-115006476D01*
D13*
X100457000Y-121920000D02*
X100457000Y-121666000D01*
X100457000Y-121920000D02*
X100457000Y-124460000D01*
D12*
X86656333Y-29470047D02*
X86837761Y-29530523D01*
X87140142Y-29530523D01*
X87261095Y-29470047D01*
X87321571Y-29409571D01*
X87382047Y-29288619D01*
X87382047Y-29167666D01*
X87321571Y-29046714D01*
X87261095Y-28986238D01*
X87140142Y-28925761D01*
X86898238Y-28865285D01*
X86777285Y-28804809D01*
X86716809Y-28744333D01*
X86656333Y-28623380D01*
X86656333Y-28502428D01*
X86716809Y-28381476D01*
X86777285Y-28321000D01*
X86898238Y-28260523D01*
X87200619Y-28260523D01*
X87382047Y-28321000D01*
X88470619Y-29530523D02*
X88470619Y-28865285D01*
X88410142Y-28744333D01*
X88289190Y-28683857D01*
X88047285Y-28683857D01*
X87926333Y-28744333D01*
X88470619Y-29470047D02*
X88349666Y-29530523D01*
X88047285Y-29530523D01*
X87926333Y-29470047D01*
X87865857Y-29349095D01*
X87865857Y-29228142D01*
X87926333Y-29107190D01*
X88047285Y-29046714D01*
X88349666Y-29046714D01*
X88470619Y-28986238D01*
X88893952Y-28683857D02*
X89377761Y-28683857D01*
X89075380Y-28260523D02*
X89075380Y-29349095D01*
X89135857Y-29470047D01*
X89256809Y-29530523D01*
X89377761Y-29530523D01*
X90345380Y-28683857D02*
X90345380Y-29530523D01*
X89801095Y-28683857D02*
X89801095Y-29349095D01*
X89861571Y-29470047D01*
X89982523Y-29530523D01*
X90163952Y-29530523D01*
X90284904Y-29470047D01*
X90345380Y-29409571D01*
X90950142Y-29530523D02*
X90950142Y-28683857D01*
X90950142Y-28925761D02*
X91010619Y-28804809D01*
X91071095Y-28744333D01*
X91192047Y-28683857D01*
X91313000Y-28683857D01*
X92280619Y-29530523D02*
X92280619Y-28260523D01*
X92280619Y-29470047D02*
X92159666Y-29530523D01*
X91917761Y-29530523D01*
X91796809Y-29470047D01*
X91736333Y-29409571D01*
X91675857Y-29288619D01*
X91675857Y-28925761D01*
X91736333Y-28804809D01*
X91796809Y-28744333D01*
X91917761Y-28683857D01*
X92159666Y-28683857D01*
X92280619Y-28744333D01*
X93429666Y-29530523D02*
X93429666Y-28865285D01*
X93369190Y-28744333D01*
X93248238Y-28683857D01*
X93006333Y-28683857D01*
X92885380Y-28744333D01*
X93429666Y-29470047D02*
X93308714Y-29530523D01*
X93006333Y-29530523D01*
X92885380Y-29470047D01*
X92824904Y-29349095D01*
X92824904Y-29228142D01*
X92885380Y-29107190D01*
X93006333Y-29046714D01*
X93308714Y-29046714D01*
X93429666Y-28986238D01*
X93913476Y-28683857D02*
X94215857Y-29530523D01*
X94518238Y-28683857D02*
X94215857Y-29530523D01*
X94094904Y-29832904D01*
X94034428Y-29893380D01*
X93913476Y-29953857D01*
X95969666Y-29530523D02*
X95969666Y-28683857D01*
X95969666Y-28260523D02*
X95909190Y-28321000D01*
X95969666Y-28381476D01*
X96030142Y-28321000D01*
X95969666Y-28260523D01*
X95969666Y-28381476D01*
X96513952Y-29470047D02*
X96634904Y-29530523D01*
X96876809Y-29530523D01*
X96997761Y-29470047D01*
X97058238Y-29349095D01*
X97058238Y-29288619D01*
X96997761Y-29167666D01*
X96876809Y-29107190D01*
X96695380Y-29107190D01*
X96574428Y-29046714D01*
X96513952Y-28925761D01*
X96513952Y-28865285D01*
X96574428Y-28744333D01*
X96695380Y-28683857D01*
X96876809Y-28683857D01*
X96997761Y-28744333D01*
X98570142Y-29530523D02*
X98570142Y-28260523D01*
X98993476Y-29167666D01*
X99416809Y-28260523D01*
X99416809Y-29530523D01*
X100565857Y-29530523D02*
X100565857Y-28865285D01*
X100505380Y-28744333D01*
X100384428Y-28683857D01*
X100142523Y-28683857D01*
X100021571Y-28744333D01*
X100565857Y-29470047D02*
X100444904Y-29530523D01*
X100142523Y-29530523D01*
X100021571Y-29470047D01*
X99961095Y-29349095D01*
X99961095Y-29228142D01*
X100021571Y-29107190D01*
X100142523Y-29046714D01*
X100444904Y-29046714D01*
X100565857Y-28986238D01*
X101170619Y-29530523D02*
X101170619Y-28260523D01*
X101291571Y-29046714D02*
X101654428Y-29530523D01*
X101654428Y-28683857D02*
X101170619Y-29167666D01*
X102682523Y-29470047D02*
X102561571Y-29530523D01*
X102319666Y-29530523D01*
X102198714Y-29470047D01*
X102138238Y-29349095D01*
X102138238Y-28865285D01*
X102198714Y-28744333D01*
X102319666Y-28683857D01*
X102561571Y-28683857D01*
X102682523Y-28744333D01*
X102743000Y-28865285D01*
X102743000Y-28986238D01*
X102138238Y-29107190D01*
X103287285Y-29530523D02*
X103287285Y-28683857D01*
X103287285Y-28925761D02*
X103347761Y-28804809D01*
X103408238Y-28744333D01*
X103529190Y-28683857D01*
X103650142Y-28683857D01*
X104617761Y-29530523D02*
X104617761Y-28260523D01*
X104617761Y-29470047D02*
X104496809Y-29530523D01*
X104254904Y-29530523D01*
X104133952Y-29470047D01*
X104073476Y-29409571D01*
X104013000Y-29288619D01*
X104013000Y-28925761D01*
X104073476Y-28804809D01*
X104133952Y-28744333D01*
X104254904Y-28683857D01*
X104496809Y-28683857D01*
X104617761Y-28744333D01*
X105766809Y-29530523D02*
X105766809Y-28865285D01*
X105706333Y-28744333D01*
X105585380Y-28683857D01*
X105343476Y-28683857D01*
X105222523Y-28744333D01*
X105766809Y-29470047D02*
X105645857Y-29530523D01*
X105343476Y-29530523D01*
X105222523Y-29470047D01*
X105162047Y-29349095D01*
X105162047Y-29228142D01*
X105222523Y-29107190D01*
X105343476Y-29046714D01*
X105645857Y-29046714D01*
X105766809Y-28986238D01*
X106250619Y-28683857D02*
X106553000Y-29530523D01*
X106855380Y-28683857D02*
X106553000Y-29530523D01*
X106432047Y-29832904D01*
X106371571Y-29893380D01*
X106250619Y-29953857D01*
X107339190Y-29409571D02*
X107399666Y-29470047D01*
X107339190Y-29530523D01*
X107278714Y-29470047D01*
X107339190Y-29409571D01*
X107339190Y-29530523D01*
X107339190Y-29046714D02*
X107278714Y-28321000D01*
X107339190Y-28260523D01*
X107399666Y-28321000D01*
X107339190Y-29046714D01*
X107339190Y-28260523D01*
D14*
X101195293Y-122546533D02*
X101679102Y-122546533D01*
X101098531Y-122836819D02*
X101437198Y-121820819D01*
X101775864Y-122836819D01*
X102259674Y-122836819D02*
X102162912Y-122788438D01*
X102114531Y-122691676D01*
X102114531Y-121820819D01*
X102791864Y-122836819D02*
X102695102Y-122788438D01*
X102646721Y-122691676D01*
X102646721Y-121820819D01*
X103178912Y-122449771D02*
X103953007Y-122449771D01*
X104291674Y-121820819D02*
X104872245Y-121820819D01*
X104581960Y-122836819D02*
X104581960Y-121820819D01*
X105597960Y-122788438D02*
X105501198Y-122836819D01*
X105307674Y-122836819D01*
X105210912Y-122788438D01*
X105162531Y-122691676D01*
X105162531Y-122304628D01*
X105210912Y-122207866D01*
X105307674Y-122159485D01*
X105501198Y-122159485D01*
X105597960Y-122207866D01*
X105646340Y-122304628D01*
X105646340Y-122401390D01*
X105162531Y-122498152D01*
X106081769Y-122836819D02*
X106081769Y-122159485D01*
X106081769Y-122353009D02*
X106130150Y-122256247D01*
X106178531Y-122207866D01*
X106275293Y-122159485D01*
X106372055Y-122159485D01*
X106710721Y-122836819D02*
X106710721Y-122159485D01*
X106710721Y-122353009D02*
X106759102Y-122256247D01*
X106807483Y-122207866D01*
X106904245Y-122159485D01*
X107001007Y-122159485D01*
X107775102Y-122836819D02*
X107775102Y-122304628D01*
X107726721Y-122207866D01*
X107629960Y-122159485D01*
X107436436Y-122159485D01*
X107339674Y-122207866D01*
X107775102Y-122788438D02*
X107678340Y-122836819D01*
X107436436Y-122836819D01*
X107339674Y-122788438D01*
X107291293Y-122691676D01*
X107291293Y-122594914D01*
X107339674Y-122498152D01*
X107436436Y-122449771D01*
X107678340Y-122449771D01*
X107775102Y-122401390D01*
X108258912Y-122836819D02*
X108258912Y-122159485D01*
X108258912Y-121820819D02*
X108210531Y-121869200D01*
X108258912Y-121917580D01*
X108307293Y-121869200D01*
X108258912Y-121820819D01*
X108258912Y-121917580D01*
X108742721Y-122159485D02*
X108742721Y-122836819D01*
X108742721Y-122256247D02*
X108791102Y-122207866D01*
X108887864Y-122159485D01*
X109033007Y-122159485D01*
X109129769Y-122207866D01*
X109178150Y-122304628D01*
X109178150Y-122836819D01*
X110774721Y-122304628D02*
X110919864Y-122353009D01*
X110968245Y-122401390D01*
X111016626Y-122498152D01*
X111016626Y-122643295D01*
X110968245Y-122740057D01*
X110919864Y-122788438D01*
X110823102Y-122836819D01*
X110436055Y-122836819D01*
X110436055Y-121820819D01*
X110774721Y-121820819D01*
X110871483Y-121869200D01*
X110919864Y-121917580D01*
X110968245Y-122014342D01*
X110968245Y-122111104D01*
X110919864Y-122207866D01*
X110871483Y-122256247D01*
X110774721Y-122304628D01*
X110436055Y-122304628D01*
X111887483Y-122159485D02*
X111887483Y-122836819D01*
X111452055Y-122159485D02*
X111452055Y-122691676D01*
X111500436Y-122788438D01*
X111597198Y-122836819D01*
X111742340Y-122836819D01*
X111839102Y-122788438D01*
X111887483Y-122740057D01*
X112806721Y-122159485D02*
X112806721Y-122981961D01*
X112758340Y-123078723D01*
X112709960Y-123127104D01*
X112613198Y-123175485D01*
X112468055Y-123175485D01*
X112371293Y-123127104D01*
X112806721Y-122788438D02*
X112709960Y-122836819D01*
X112516436Y-122836819D01*
X112419674Y-122788438D01*
X112371293Y-122740057D01*
X112322912Y-122643295D01*
X112322912Y-122353009D01*
X112371293Y-122256247D01*
X112419674Y-122207866D01*
X112516436Y-122159485D01*
X112709960Y-122159485D01*
X112806721Y-122207866D01*
X113725960Y-122159485D02*
X113725960Y-122981961D01*
X113677579Y-123078723D01*
X113629198Y-123127104D01*
X113532436Y-123175485D01*
X113387293Y-123175485D01*
X113290531Y-123127104D01*
X113725960Y-122788438D02*
X113629198Y-122836819D01*
X113435674Y-122836819D01*
X113338912Y-122788438D01*
X113290531Y-122740057D01*
X113242150Y-122643295D01*
X113242150Y-122353009D01*
X113290531Y-122256247D01*
X113338912Y-122207866D01*
X113435674Y-122159485D01*
X113629198Y-122159485D01*
X113725960Y-122207866D01*
X114113007Y-122159485D02*
X114354912Y-122836819D01*
X114596817Y-122159485D02*
X114354912Y-122836819D01*
X114258150Y-123078723D01*
X114209769Y-123127104D01*
X114113007Y-123175485D01*
X111693960Y-123785085D02*
X111935864Y-124462419D01*
X112177769Y-123785085D01*
X113097007Y-124462419D02*
X112516436Y-124462419D01*
X112806721Y-124462419D02*
X112806721Y-123446419D01*
X112709960Y-123591561D01*
X112613198Y-123688323D01*
X112516436Y-123736704D01*
X113532436Y-124365657D02*
X113580817Y-124414038D01*
X113532436Y-124462419D01*
X113484055Y-124414038D01*
X113532436Y-124365657D01*
X113532436Y-124462419D01*
X114209769Y-123446419D02*
X114306531Y-123446419D01*
X114403293Y-123494800D01*
X114451674Y-123543180D01*
X114500055Y-123639942D01*
X114548436Y-123833466D01*
X114548436Y-124075371D01*
X114500055Y-124268895D01*
X114451674Y-124365657D01*
X114403293Y-124414038D01*
X114306531Y-124462419D01*
X114209769Y-124462419D01*
X114113007Y-124414038D01*
X114064626Y-124365657D01*
X114016245Y-124268895D01*
X113967864Y-124075371D01*
X113967864Y-123833466D01*
X114016245Y-123639942D01*
X114064626Y-123543180D01*
X114113007Y-123494800D01*
X114209769Y-123446419D01*
D11*
X74676095Y-88146000D02*
X74580857Y-88098380D01*
X74438000Y-88098380D01*
X74295142Y-88146000D01*
X74199904Y-88241238D01*
X74152285Y-88336476D01*
X74104666Y-88526952D01*
X74104666Y-88669809D01*
X74152285Y-88860285D01*
X74199904Y-88955523D01*
X74295142Y-89050761D01*
X74438000Y-89098380D01*
X74533238Y-89098380D01*
X74676095Y-89050761D01*
X74723714Y-89003142D01*
X74723714Y-88669809D01*
X74533238Y-88669809D01*
X75152285Y-89098380D02*
X75152285Y-88098380D01*
X75723714Y-89098380D01*
X75723714Y-88098380D01*
X76199904Y-89098380D02*
X76199904Y-88098380D01*
X76438000Y-88098380D01*
X76580857Y-88146000D01*
X76676095Y-88241238D01*
X76723714Y-88336476D01*
X76771333Y-88526952D01*
X76771333Y-88669809D01*
X76723714Y-88860285D01*
X76676095Y-88955523D01*
X76580857Y-89050761D01*
X76438000Y-89098380D01*
X76199904Y-89098380D01*
X74533238Y-90638380D02*
X74866571Y-91638380D01*
X75199904Y-90638380D01*
X75533238Y-91638380D02*
X75533238Y-90638380D01*
X75866571Y-91352666D01*
X76199904Y-90638380D01*
X76199904Y-91638380D01*
X74271333Y-93654571D02*
X74414190Y-93702190D01*
X74461809Y-93749809D01*
X74509428Y-93845047D01*
X74509428Y-93987904D01*
X74461809Y-94083142D01*
X74414190Y-94130761D01*
X74318952Y-94178380D01*
X73938000Y-94178380D01*
X73938000Y-93178380D01*
X74271333Y-93178380D01*
X74366571Y-93226000D01*
X74414190Y-93273619D01*
X74461809Y-93368857D01*
X74461809Y-93464095D01*
X74414190Y-93559333D01*
X74366571Y-93606952D01*
X74271333Y-93654571D01*
X73938000Y-93654571D01*
X74938000Y-94178380D02*
X74938000Y-93178380D01*
X75414190Y-94178380D02*
X75414190Y-93178380D01*
X75985619Y-94178380D01*
X75985619Y-93178380D01*
X76414190Y-93273619D02*
X76461809Y-93226000D01*
X76557047Y-93178380D01*
X76795142Y-93178380D01*
X76890380Y-93226000D01*
X76938000Y-93273619D01*
X76985619Y-93368857D01*
X76985619Y-93464095D01*
X76938000Y-93606952D01*
X76366571Y-94178380D01*
X76985619Y-94178380D01*
X74271333Y-96194571D02*
X74414190Y-96242190D01*
X74461809Y-96289809D01*
X74509428Y-96385047D01*
X74509428Y-96527904D01*
X74461809Y-96623142D01*
X74414190Y-96670761D01*
X74318952Y-96718380D01*
X73938000Y-96718380D01*
X73938000Y-95718380D01*
X74271333Y-95718380D01*
X74366571Y-95766000D01*
X74414190Y-95813619D01*
X74461809Y-95908857D01*
X74461809Y-96004095D01*
X74414190Y-96099333D01*
X74366571Y-96146952D01*
X74271333Y-96194571D01*
X73938000Y-96194571D01*
X74938000Y-96718380D02*
X74938000Y-95718380D01*
X75414190Y-96718380D02*
X75414190Y-95718380D01*
X75985619Y-96718380D01*
X75985619Y-95718380D01*
X76985619Y-96718380D02*
X76414190Y-96718380D01*
X76699904Y-96718380D02*
X76699904Y-95718380D01*
X76604666Y-95861238D01*
X76509428Y-95956476D01*
X76414190Y-96004095D01*
X117141809Y-88812666D02*
X117618000Y-88812666D01*
X117046571Y-89098380D02*
X117379904Y-88098380D01*
X117713238Y-89098380D01*
X118046571Y-89098380D02*
X118046571Y-88098380D01*
X118522761Y-89098380D02*
X118522761Y-88098380D01*
X119094190Y-89098380D01*
X119094190Y-88098380D01*
X120094190Y-89098380D02*
X119522761Y-89098380D01*
X119808476Y-89098380D02*
X119808476Y-88098380D01*
X119713238Y-88241238D01*
X119618000Y-88336476D01*
X119522761Y-88384095D01*
X117856095Y-95766000D02*
X117760857Y-95718380D01*
X117618000Y-95718380D01*
X117475142Y-95766000D01*
X117379904Y-95861238D01*
X117332285Y-95956476D01*
X117284666Y-96146952D01*
X117284666Y-96289809D01*
X117332285Y-96480285D01*
X117379904Y-96575523D01*
X117475142Y-96670761D01*
X117618000Y-96718380D01*
X117713238Y-96718380D01*
X117856095Y-96670761D01*
X117903714Y-96623142D01*
X117903714Y-96289809D01*
X117713238Y-96289809D01*
X118332285Y-96718380D02*
X118332285Y-95718380D01*
X118903714Y-96718380D01*
X118903714Y-95718380D01*
X119379904Y-96718380D02*
X119379904Y-95718380D01*
X119618000Y-95718380D01*
X119760857Y-95766000D01*
X119856095Y-95861238D01*
X119903714Y-95956476D01*
X119951333Y-96146952D01*
X119951333Y-96289809D01*
X119903714Y-96480285D01*
X119856095Y-96575523D01*
X119760857Y-96670761D01*
X119618000Y-96718380D01*
X119379904Y-96718380D01*
X117713238Y-93178380D02*
X118046571Y-94178380D01*
X118379904Y-93178380D01*
X118713238Y-94178380D02*
X118713238Y-93178380D01*
X119046571Y-93892666D01*
X119379904Y-93178380D01*
X119379904Y-94178380D01*
X117141809Y-91352666D02*
X117618000Y-91352666D01*
X117046571Y-91638380D02*
X117379904Y-90638380D01*
X117713238Y-91638380D01*
X118046571Y-91638380D02*
X118046571Y-90638380D01*
X118522761Y-91638380D02*
X118522761Y-90638380D01*
X119094190Y-91638380D01*
X119094190Y-90638380D01*
X119522761Y-90733619D02*
X119570380Y-90686000D01*
X119665619Y-90638380D01*
X119903714Y-90638380D01*
X119998952Y-90686000D01*
X120046571Y-90733619D01*
X120094190Y-90828857D01*
X120094190Y-90924095D01*
X120046571Y-91066952D01*
X119475142Y-91638380D01*
X120094190Y-91638380D01*
X117856095Y-75446000D02*
X117760857Y-75398380D01*
X117618000Y-75398380D01*
X117475142Y-75446000D01*
X117379904Y-75541238D01*
X117332285Y-75636476D01*
X117284666Y-75826952D01*
X117284666Y-75969809D01*
X117332285Y-76160285D01*
X117379904Y-76255523D01*
X117475142Y-76350761D01*
X117618000Y-76398380D01*
X117713238Y-76398380D01*
X117856095Y-76350761D01*
X117903714Y-76303142D01*
X117903714Y-75969809D01*
X117713238Y-75969809D01*
X118332285Y-76398380D02*
X118332285Y-75398380D01*
X118903714Y-76398380D01*
X118903714Y-75398380D01*
X119379904Y-76398380D02*
X119379904Y-75398380D01*
X119618000Y-75398380D01*
X119760857Y-75446000D01*
X119856095Y-75541238D01*
X119903714Y-75636476D01*
X119951333Y-75826952D01*
X119951333Y-75969809D01*
X119903714Y-76160285D01*
X119856095Y-76255523D01*
X119760857Y-76350761D01*
X119618000Y-76398380D01*
X119379904Y-76398380D01*
X117713238Y-72858380D02*
X118046571Y-73858380D01*
X118379904Y-72858380D01*
X118713238Y-73858380D02*
X118713238Y-72858380D01*
X119046571Y-73572666D01*
X119379904Y-72858380D01*
X119379904Y-73858380D01*
X117141809Y-71032666D02*
X117618000Y-71032666D01*
X117046571Y-71318380D02*
X117379904Y-70318380D01*
X117713238Y-71318380D01*
X118046571Y-71318380D02*
X118046571Y-70318380D01*
X118522761Y-71318380D02*
X118522761Y-70318380D01*
X119094190Y-71318380D01*
X119094190Y-70318380D01*
X119522761Y-70413619D02*
X119570380Y-70366000D01*
X119665619Y-70318380D01*
X119903714Y-70318380D01*
X119998952Y-70366000D01*
X120046571Y-70413619D01*
X120094190Y-70508857D01*
X120094190Y-70604095D01*
X120046571Y-70746952D01*
X119475142Y-71318380D01*
X120094190Y-71318380D01*
X117141809Y-68492666D02*
X117618000Y-68492666D01*
X117046571Y-68778380D02*
X117379904Y-67778380D01*
X117713238Y-68778380D01*
X118046571Y-68778380D02*
X118046571Y-67778380D01*
X118522761Y-68778380D02*
X118522761Y-67778380D01*
X119094190Y-68778380D01*
X119094190Y-67778380D01*
X120094190Y-68778380D02*
X119522761Y-68778380D01*
X119808476Y-68778380D02*
X119808476Y-67778380D01*
X119713238Y-67921238D01*
X119618000Y-68016476D01*
X119522761Y-68064095D01*
X117856095Y-55126000D02*
X117760857Y-55078380D01*
X117618000Y-55078380D01*
X117475142Y-55126000D01*
X117379904Y-55221238D01*
X117332285Y-55316476D01*
X117284666Y-55506952D01*
X117284666Y-55649809D01*
X117332285Y-55840285D01*
X117379904Y-55935523D01*
X117475142Y-56030761D01*
X117618000Y-56078380D01*
X117713238Y-56078380D01*
X117856095Y-56030761D01*
X117903714Y-55983142D01*
X117903714Y-55649809D01*
X117713238Y-55649809D01*
X118332285Y-56078380D02*
X118332285Y-55078380D01*
X118903714Y-56078380D01*
X118903714Y-55078380D01*
X119379904Y-56078380D02*
X119379904Y-55078380D01*
X119618000Y-55078380D01*
X119760857Y-55126000D01*
X119856095Y-55221238D01*
X119903714Y-55316476D01*
X119951333Y-55506952D01*
X119951333Y-55649809D01*
X119903714Y-55840285D01*
X119856095Y-55935523D01*
X119760857Y-56030761D01*
X119618000Y-56078380D01*
X119379904Y-56078380D01*
X117713238Y-52538380D02*
X118046571Y-53538380D01*
X118379904Y-52538380D01*
X118713238Y-53538380D02*
X118713238Y-52538380D01*
X119046571Y-53252666D01*
X119379904Y-52538380D01*
X119379904Y-53538380D01*
X117141809Y-50712666D02*
X117618000Y-50712666D01*
X117046571Y-50998380D02*
X117379904Y-49998380D01*
X117713238Y-50998380D01*
X118046571Y-50998380D02*
X118046571Y-49998380D01*
X118522761Y-50998380D02*
X118522761Y-49998380D01*
X119094190Y-50998380D01*
X119094190Y-49998380D01*
X119522761Y-50093619D02*
X119570380Y-50046000D01*
X119665619Y-49998380D01*
X119903714Y-49998380D01*
X119998952Y-50046000D01*
X120046571Y-50093619D01*
X120094190Y-50188857D01*
X120094190Y-50284095D01*
X120046571Y-50426952D01*
X119475142Y-50998380D01*
X120094190Y-50998380D01*
X117141809Y-48172666D02*
X117618000Y-48172666D01*
X117046571Y-48458380D02*
X117379904Y-47458380D01*
X117713238Y-48458380D01*
X118046571Y-48458380D02*
X118046571Y-47458380D01*
X118522761Y-48458380D02*
X118522761Y-47458380D01*
X119094190Y-48458380D01*
X119094190Y-47458380D01*
X120094190Y-48458380D02*
X119522761Y-48458380D01*
X119808476Y-48458380D02*
X119808476Y-47458380D01*
X119713238Y-47601238D01*
X119618000Y-47696476D01*
X119522761Y-47744095D01*
D13*
G04 #@! TO.C,A1*
X85488000Y-34036000D02*
X85488000Y-79756000D01*
X108568000Y-34036000D02*
X108568000Y-79756000D01*
X105918000Y-82406000D02*
X88138000Y-82406000D01*
X105918000Y-31386000D02*
X88138000Y-31386000D01*
X85168000Y-38846000D02*
X85168000Y-36846000D01*
X88138000Y-82406000D02*
G75*
G02*
X85488000Y-79756000I0J2650000D01*
G01*
X108568000Y-79756000D02*
G75*
G02*
X105918000Y-82406000I-2650000J0D01*
G01*
X85488000Y-34036000D02*
G75*
G02*
X88138000Y-31386000I2650000J0D01*
G01*
X105918000Y-31386000D02*
G75*
G02*
X108568000Y-34036000I0J-2650000D01*
G01*
D15*
G04 #@! TO.C,REF\u002A\u002A*
G36*
X86176886Y-98215505D02*
G01*
X86251539Y-98252727D01*
X86317431Y-98321261D01*
X86335577Y-98346648D01*
X86355345Y-98379866D01*
X86368172Y-98415945D01*
X86375510Y-98464098D01*
X86378813Y-98533536D01*
X86379538Y-98625206D01*
X86376263Y-98750830D01*
X86364877Y-98845154D01*
X86343041Y-98915523D01*
X86308419Y-98969286D01*
X86258670Y-99013788D01*
X86255014Y-99016423D01*
X86205985Y-99043377D01*
X86146945Y-99056712D01*
X86071859Y-99060000D01*
X85949795Y-99060000D01*
X85949744Y-99178497D01*
X85948608Y-99244492D01*
X85941686Y-99283202D01*
X85923598Y-99306419D01*
X85888962Y-99325933D01*
X85880645Y-99329920D01*
X85841720Y-99348603D01*
X85811583Y-99360403D01*
X85789174Y-99361422D01*
X85773433Y-99347761D01*
X85763302Y-99315522D01*
X85757723Y-99260804D01*
X85755635Y-99179711D01*
X85755981Y-99068344D01*
X85757700Y-98922802D01*
X85758237Y-98879269D01*
X85760172Y-98729205D01*
X85761904Y-98631042D01*
X85949692Y-98631042D01*
X85950748Y-98714364D01*
X85955438Y-98768880D01*
X85966051Y-98804837D01*
X85984872Y-98832482D01*
X85997650Y-98845965D01*
X86049890Y-98885417D01*
X86096142Y-98888628D01*
X86143867Y-98856049D01*
X86145077Y-98854846D01*
X86164494Y-98829668D01*
X86176307Y-98795447D01*
X86182265Y-98742748D01*
X86184120Y-98662131D01*
X86184154Y-98644271D01*
X86179670Y-98533175D01*
X86165074Y-98456161D01*
X86138650Y-98409147D01*
X86098683Y-98388050D01*
X86075584Y-98385923D01*
X86020762Y-98395900D01*
X85983158Y-98428752D01*
X85960523Y-98488857D01*
X85950606Y-98580598D01*
X85949692Y-98631042D01*
X85761904Y-98631042D01*
X85762222Y-98613060D01*
X85764873Y-98525679D01*
X85768606Y-98461905D01*
X85773907Y-98416582D01*
X85781258Y-98384555D01*
X85791143Y-98360668D01*
X85804046Y-98339764D01*
X85809579Y-98331898D01*
X85882969Y-98257595D01*
X85975760Y-98215467D01*
X86083096Y-98203722D01*
X86176886Y-98215505D01*
G37*
X86176886Y-98215505D02*
X86251539Y-98252727D01*
X86317431Y-98321261D01*
X86335577Y-98346648D01*
X86355345Y-98379866D01*
X86368172Y-98415945D01*
X86375510Y-98464098D01*
X86378813Y-98533536D01*
X86379538Y-98625206D01*
X86376263Y-98750830D01*
X86364877Y-98845154D01*
X86343041Y-98915523D01*
X86308419Y-98969286D01*
X86258670Y-99013788D01*
X86255014Y-99016423D01*
X86205985Y-99043377D01*
X86146945Y-99056712D01*
X86071859Y-99060000D01*
X85949795Y-99060000D01*
X85949744Y-99178497D01*
X85948608Y-99244492D01*
X85941686Y-99283202D01*
X85923598Y-99306419D01*
X85888962Y-99325933D01*
X85880645Y-99329920D01*
X85841720Y-99348603D01*
X85811583Y-99360403D01*
X85789174Y-99361422D01*
X85773433Y-99347761D01*
X85763302Y-99315522D01*
X85757723Y-99260804D01*
X85755635Y-99179711D01*
X85755981Y-99068344D01*
X85757700Y-98922802D01*
X85758237Y-98879269D01*
X85760172Y-98729205D01*
X85761904Y-98631042D01*
X85949692Y-98631042D01*
X85950748Y-98714364D01*
X85955438Y-98768880D01*
X85966051Y-98804837D01*
X85984872Y-98832482D01*
X85997650Y-98845965D01*
X86049890Y-98885417D01*
X86096142Y-98888628D01*
X86143867Y-98856049D01*
X86145077Y-98854846D01*
X86164494Y-98829668D01*
X86176307Y-98795447D01*
X86182265Y-98742748D01*
X86184120Y-98662131D01*
X86184154Y-98644271D01*
X86179670Y-98533175D01*
X86165074Y-98456161D01*
X86138650Y-98409147D01*
X86098683Y-98388050D01*
X86075584Y-98385923D01*
X86020762Y-98395900D01*
X85983158Y-98428752D01*
X85960523Y-98488857D01*
X85950606Y-98580598D01*
X85949692Y-98631042D01*
X85761904Y-98631042D01*
X85762222Y-98613060D01*
X85764873Y-98525679D01*
X85768606Y-98461905D01*
X85773907Y-98416582D01*
X85781258Y-98384555D01*
X85791143Y-98360668D01*
X85804046Y-98339764D01*
X85809579Y-98331898D01*
X85882969Y-98257595D01*
X85975760Y-98215467D01*
X86083096Y-98203722D01*
X86176886Y-98215505D01*
G36*
X87679664Y-98226089D02*
G01*
X87742367Y-98262358D01*
X87785961Y-98298358D01*
X87817845Y-98336075D01*
X87839810Y-98382199D01*
X87853649Y-98443421D01*
X87861153Y-98526431D01*
X87864117Y-98637919D01*
X87864461Y-98718062D01*
X87864461Y-99013065D01*
X87698385Y-99087515D01*
X87688615Y-98764402D01*
X87684579Y-98643729D01*
X87680344Y-98556141D01*
X87675097Y-98495650D01*
X87668025Y-98456268D01*
X87658311Y-98432007D01*
X87645144Y-98416880D01*
X87640919Y-98413606D01*
X87576909Y-98388034D01*
X87512208Y-98398153D01*
X87473692Y-98425000D01*
X87458025Y-98444024D01*
X87447180Y-98468988D01*
X87440288Y-98506834D01*
X87436479Y-98564502D01*
X87434883Y-98648935D01*
X87434615Y-98736928D01*
X87434563Y-98847323D01*
X87432672Y-98925463D01*
X87426345Y-98978165D01*
X87412983Y-99012242D01*
X87389985Y-99034511D01*
X87354754Y-99051787D01*
X87307697Y-99069738D01*
X87256303Y-99089278D01*
X87262421Y-98742485D01*
X87264884Y-98617468D01*
X87267767Y-98525082D01*
X87271898Y-98458881D01*
X87278107Y-98412420D01*
X87287226Y-98379256D01*
X87300083Y-98352944D01*
X87315584Y-98329729D01*
X87390371Y-98255569D01*
X87481628Y-98212684D01*
X87580883Y-98202412D01*
X87679664Y-98226089D01*
G37*
X87679664Y-98226089D02*
X87742367Y-98262358D01*
X87785961Y-98298358D01*
X87817845Y-98336075D01*
X87839810Y-98382199D01*
X87853649Y-98443421D01*
X87861153Y-98526431D01*
X87864117Y-98637919D01*
X87864461Y-98718062D01*
X87864461Y-99013065D01*
X87698385Y-99087515D01*
X87688615Y-98764402D01*
X87684579Y-98643729D01*
X87680344Y-98556141D01*
X87675097Y-98495650D01*
X87668025Y-98456268D01*
X87658311Y-98432007D01*
X87645144Y-98416880D01*
X87640919Y-98413606D01*
X87576909Y-98388034D01*
X87512208Y-98398153D01*
X87473692Y-98425000D01*
X87458025Y-98444024D01*
X87447180Y-98468988D01*
X87440288Y-98506834D01*
X87436479Y-98564502D01*
X87434883Y-98648935D01*
X87434615Y-98736928D01*
X87434563Y-98847323D01*
X87432672Y-98925463D01*
X87426345Y-98978165D01*
X87412983Y-99012242D01*
X87389985Y-99034511D01*
X87354754Y-99051787D01*
X87307697Y-99069738D01*
X87256303Y-99089278D01*
X87262421Y-98742485D01*
X87264884Y-98617468D01*
X87267767Y-98525082D01*
X87271898Y-98458881D01*
X87278107Y-98412420D01*
X87287226Y-98379256D01*
X87300083Y-98352944D01*
X87315584Y-98329729D01*
X87390371Y-98255569D01*
X87481628Y-98212684D01*
X87580883Y-98202412D01*
X87679664Y-98226089D01*
G36*
X85424886Y-98218256D02*
G01*
X85516464Y-98266409D01*
X85584049Y-98343905D01*
X85608057Y-98393727D01*
X85626738Y-98468533D01*
X85636301Y-98563052D01*
X85637208Y-98666210D01*
X85629921Y-98766935D01*
X85614903Y-98854153D01*
X85592615Y-98916791D01*
X85585765Y-98927579D01*
X85504632Y-99008105D01*
X85408266Y-99056336D01*
X85303701Y-99070450D01*
X85197968Y-99048629D01*
X85168543Y-99035547D01*
X85111241Y-98995231D01*
X85060950Y-98941775D01*
X85056197Y-98934995D01*
X85036878Y-98902321D01*
X85024108Y-98867394D01*
X85016564Y-98821414D01*
X85012924Y-98755584D01*
X85011865Y-98661105D01*
X85011846Y-98639923D01*
X85011894Y-98633182D01*
X85207231Y-98633182D01*
X85208368Y-98722349D01*
X85212841Y-98781520D01*
X85222246Y-98819741D01*
X85238176Y-98846053D01*
X85246308Y-98854846D01*
X85293058Y-98888261D01*
X85338447Y-98886737D01*
X85384340Y-98857752D01*
X85411712Y-98826809D01*
X85427923Y-98781643D01*
X85437026Y-98710420D01*
X85437651Y-98702114D01*
X85439204Y-98573037D01*
X85422965Y-98477172D01*
X85389152Y-98415107D01*
X85337984Y-98387432D01*
X85319720Y-98385923D01*
X85271760Y-98393513D01*
X85238953Y-98419808D01*
X85218895Y-98470095D01*
X85209178Y-98549664D01*
X85207231Y-98633182D01*
X85011894Y-98633182D01*
X85012574Y-98539249D01*
X85015629Y-98468906D01*
X85022322Y-98420163D01*
X85033960Y-98384288D01*
X85051853Y-98352548D01*
X85055808Y-98346648D01*
X85122267Y-98267104D01*
X85194685Y-98220929D01*
X85282849Y-98202599D01*
X85312787Y-98201703D01*
X85424886Y-98218256D01*
G37*
X85424886Y-98218256D02*
X85516464Y-98266409D01*
X85584049Y-98343905D01*
X85608057Y-98393727D01*
X85626738Y-98468533D01*
X85636301Y-98563052D01*
X85637208Y-98666210D01*
X85629921Y-98766935D01*
X85614903Y-98854153D01*
X85592615Y-98916791D01*
X85585765Y-98927579D01*
X85504632Y-99008105D01*
X85408266Y-99056336D01*
X85303701Y-99070450D01*
X85197968Y-99048629D01*
X85168543Y-99035547D01*
X85111241Y-98995231D01*
X85060950Y-98941775D01*
X85056197Y-98934995D01*
X85036878Y-98902321D01*
X85024108Y-98867394D01*
X85016564Y-98821414D01*
X85012924Y-98755584D01*
X85011865Y-98661105D01*
X85011846Y-98639923D01*
X85011894Y-98633182D01*
X85207231Y-98633182D01*
X85208368Y-98722349D01*
X85212841Y-98781520D01*
X85222246Y-98819741D01*
X85238176Y-98846053D01*
X85246308Y-98854846D01*
X85293058Y-98888261D01*
X85338447Y-98886737D01*
X85384340Y-98857752D01*
X85411712Y-98826809D01*
X85427923Y-98781643D01*
X85437026Y-98710420D01*
X85437651Y-98702114D01*
X85439204Y-98573037D01*
X85422965Y-98477172D01*
X85389152Y-98415107D01*
X85337984Y-98387432D01*
X85319720Y-98385923D01*
X85271760Y-98393513D01*
X85238953Y-98419808D01*
X85218895Y-98470095D01*
X85209178Y-98549664D01*
X85207231Y-98633182D01*
X85011894Y-98633182D01*
X85012574Y-98539249D01*
X85015629Y-98468906D01*
X85022322Y-98420163D01*
X85033960Y-98384288D01*
X85051853Y-98352548D01*
X85055808Y-98346648D01*
X85122267Y-98267104D01*
X85194685Y-98220929D01*
X85282849Y-98202599D01*
X85312787Y-98201703D01*
X85424886Y-98218256D01*
G36*
X86942254Y-98230745D02*
G01*
X87019286Y-98282567D01*
X87078816Y-98357412D01*
X87114378Y-98452654D01*
X87121571Y-98522756D01*
X87120754Y-98552009D01*
X87113914Y-98574407D01*
X87095112Y-98594474D01*
X87058408Y-98616733D01*
X86997862Y-98645709D01*
X86907534Y-98685927D01*
X86907077Y-98686129D01*
X86823933Y-98724210D01*
X86755753Y-98758025D01*
X86709505Y-98783933D01*
X86692158Y-98798295D01*
X86692154Y-98798411D01*
X86707443Y-98829685D01*
X86743196Y-98864157D01*
X86784242Y-98888990D01*
X86805037Y-98893923D01*
X86861770Y-98876862D01*
X86910627Y-98834133D01*
X86934465Y-98787155D01*
X86957397Y-98752522D01*
X87002318Y-98713081D01*
X87055123Y-98679009D01*
X87101710Y-98660480D01*
X87111452Y-98659462D01*
X87122418Y-98676215D01*
X87123079Y-98719039D01*
X87115020Y-98776781D01*
X87099827Y-98838289D01*
X87079086Y-98892409D01*
X87078038Y-98894510D01*
X87015621Y-98981660D01*
X86934726Y-99040939D01*
X86842856Y-99070034D01*
X86747513Y-99066634D01*
X86656198Y-99028428D01*
X86652138Y-99025741D01*
X86580306Y-98960642D01*
X86533073Y-98875705D01*
X86506934Y-98764021D01*
X86503426Y-98732643D01*
X86497213Y-98584536D01*
X86504661Y-98515468D01*
X86692154Y-98515468D01*
X86694590Y-98558552D01*
X86707914Y-98571126D01*
X86741132Y-98561719D01*
X86793494Y-98539483D01*
X86852024Y-98511610D01*
X86853479Y-98510872D01*
X86903089Y-98484777D01*
X86923000Y-98467363D01*
X86918090Y-98449107D01*
X86897416Y-98425120D01*
X86844819Y-98390406D01*
X86788177Y-98387856D01*
X86737369Y-98413119D01*
X86702276Y-98461847D01*
X86692154Y-98515468D01*
X86504661Y-98515468D01*
X86509992Y-98466036D01*
X86542778Y-98372055D01*
X86588421Y-98306215D01*
X86670802Y-98239681D01*
X86761546Y-98206676D01*
X86854185Y-98204573D01*
X86942254Y-98230745D01*
G37*
X86942254Y-98230745D02*
X87019286Y-98282567D01*
X87078816Y-98357412D01*
X87114378Y-98452654D01*
X87121571Y-98522756D01*
X87120754Y-98552009D01*
X87113914Y-98574407D01*
X87095112Y-98594474D01*
X87058408Y-98616733D01*
X86997862Y-98645709D01*
X86907534Y-98685927D01*
X86907077Y-98686129D01*
X86823933Y-98724210D01*
X86755753Y-98758025D01*
X86709505Y-98783933D01*
X86692158Y-98798295D01*
X86692154Y-98798411D01*
X86707443Y-98829685D01*
X86743196Y-98864157D01*
X86784242Y-98888990D01*
X86805037Y-98893923D01*
X86861770Y-98876862D01*
X86910627Y-98834133D01*
X86934465Y-98787155D01*
X86957397Y-98752522D01*
X87002318Y-98713081D01*
X87055123Y-98679009D01*
X87101710Y-98660480D01*
X87111452Y-98659462D01*
X87122418Y-98676215D01*
X87123079Y-98719039D01*
X87115020Y-98776781D01*
X87099827Y-98838289D01*
X87079086Y-98892409D01*
X87078038Y-98894510D01*
X87015621Y-98981660D01*
X86934726Y-99040939D01*
X86842856Y-99070034D01*
X86747513Y-99066634D01*
X86656198Y-99028428D01*
X86652138Y-99025741D01*
X86580306Y-98960642D01*
X86533073Y-98875705D01*
X86506934Y-98764021D01*
X86503426Y-98732643D01*
X86497213Y-98584536D01*
X86504661Y-98515468D01*
X86692154Y-98515468D01*
X86694590Y-98558552D01*
X86707914Y-98571126D01*
X86741132Y-98561719D01*
X86793494Y-98539483D01*
X86852024Y-98511610D01*
X86853479Y-98510872D01*
X86903089Y-98484777D01*
X86923000Y-98467363D01*
X86918090Y-98449107D01*
X86897416Y-98425120D01*
X86844819Y-98390406D01*
X86788177Y-98387856D01*
X86737369Y-98413119D01*
X86702276Y-98461847D01*
X86692154Y-98515468D01*
X86504661Y-98515468D01*
X86509992Y-98466036D01*
X86542778Y-98372055D01*
X86588421Y-98306215D01*
X86670802Y-98239681D01*
X86761546Y-98206676D01*
X86854185Y-98204573D01*
X86942254Y-98230745D01*
G36*
X88567846Y-98123120D02*
G01*
X88573572Y-98202980D01*
X88580149Y-98250039D01*
X88589262Y-98270566D01*
X88602598Y-98270829D01*
X88606923Y-98268378D01*
X88664444Y-98250636D01*
X88739268Y-98251672D01*
X88815339Y-98269910D01*
X88862918Y-98293505D01*
X88911702Y-98331198D01*
X88947364Y-98373855D01*
X88971845Y-98428057D01*
X88987087Y-98500384D01*
X88995030Y-98597419D01*
X88997616Y-98725742D01*
X88997662Y-98750358D01*
X88997692Y-99026870D01*
X88936161Y-99048320D01*
X88892459Y-99062912D01*
X88868482Y-99069706D01*
X88867777Y-99069769D01*
X88865415Y-99051345D01*
X88863406Y-99000526D01*
X88861901Y-98923993D01*
X88861053Y-98828430D01*
X88860923Y-98770329D01*
X88860651Y-98655771D01*
X88859252Y-98573667D01*
X88855849Y-98517393D01*
X88849567Y-98480326D01*
X88839529Y-98455844D01*
X88824861Y-98437325D01*
X88815702Y-98428406D01*
X88752789Y-98392466D01*
X88684136Y-98389775D01*
X88621848Y-98420170D01*
X88610329Y-98431144D01*
X88593433Y-98451779D01*
X88581714Y-98476256D01*
X88574233Y-98511647D01*
X88570054Y-98565026D01*
X88568237Y-98643466D01*
X88567846Y-98751617D01*
X88567846Y-99026870D01*
X88506315Y-99048320D01*
X88462613Y-99062912D01*
X88438636Y-99069706D01*
X88437930Y-99069769D01*
X88436126Y-99051069D01*
X88434500Y-98998322D01*
X88433117Y-98916557D01*
X88432042Y-98810805D01*
X88431340Y-98686094D01*
X88431077Y-98547455D01*
X88431077Y-98012806D01*
X88558077Y-97959236D01*
X88567846Y-98123120D01*
G37*
X88567846Y-98123120D02*
X88573572Y-98202980D01*
X88580149Y-98250039D01*
X88589262Y-98270566D01*
X88602598Y-98270829D01*
X88606923Y-98268378D01*
X88664444Y-98250636D01*
X88739268Y-98251672D01*
X88815339Y-98269910D01*
X88862918Y-98293505D01*
X88911702Y-98331198D01*
X88947364Y-98373855D01*
X88971845Y-98428057D01*
X88987087Y-98500384D01*
X88995030Y-98597419D01*
X88997616Y-98725742D01*
X88997662Y-98750358D01*
X88997692Y-99026870D01*
X88936161Y-99048320D01*
X88892459Y-99062912D01*
X88868482Y-99069706D01*
X88867777Y-99069769D01*
X88865415Y-99051345D01*
X88863406Y-99000526D01*
X88861901Y-98923993D01*
X88861053Y-98828430D01*
X88860923Y-98770329D01*
X88860651Y-98655771D01*
X88859252Y-98573667D01*
X88855849Y-98517393D01*
X88849567Y-98480326D01*
X88839529Y-98455844D01*
X88824861Y-98437325D01*
X88815702Y-98428406D01*
X88752789Y-98392466D01*
X88684136Y-98389775D01*
X88621848Y-98420170D01*
X88610329Y-98431144D01*
X88593433Y-98451779D01*
X88581714Y-98476256D01*
X88574233Y-98511647D01*
X88570054Y-98565026D01*
X88568237Y-98643466D01*
X88567846Y-98751617D01*
X88567846Y-99026870D01*
X88506315Y-99048320D01*
X88462613Y-99062912D01*
X88438636Y-99069706D01*
X88437930Y-99069769D01*
X88436126Y-99051069D01*
X88434500Y-98998322D01*
X88433117Y-98916557D01*
X88432042Y-98810805D01*
X88431340Y-98686094D01*
X88431077Y-98547455D01*
X88431077Y-98012806D01*
X88558077Y-97959236D01*
X88567846Y-98123120D01*
G36*
X89461501Y-98257303D02*
G01*
X89538060Y-98285733D01*
X89538936Y-98286279D01*
X89586285Y-98321127D01*
X89621241Y-98361852D01*
X89645825Y-98414925D01*
X89662062Y-98486814D01*
X89671975Y-98583992D01*
X89677586Y-98712928D01*
X89678077Y-98731298D01*
X89685141Y-99008287D01*
X89625695Y-99039028D01*
X89582681Y-99059802D01*
X89556710Y-99069646D01*
X89555509Y-99069769D01*
X89551014Y-99051606D01*
X89547444Y-99002612D01*
X89545248Y-98931031D01*
X89544769Y-98873068D01*
X89544758Y-98779170D01*
X89540466Y-98720203D01*
X89525503Y-98692079D01*
X89493482Y-98690706D01*
X89438014Y-98711998D01*
X89354269Y-98751136D01*
X89292689Y-98783643D01*
X89261017Y-98811845D01*
X89251706Y-98842582D01*
X89251692Y-98844104D01*
X89267057Y-98897054D01*
X89312547Y-98925660D01*
X89382166Y-98929803D01*
X89432313Y-98929084D01*
X89458754Y-98943527D01*
X89475243Y-98978218D01*
X89484733Y-99022416D01*
X89471057Y-99047493D01*
X89465907Y-99051082D01*
X89417425Y-99065496D01*
X89349531Y-99067537D01*
X89279612Y-99057983D01*
X89230068Y-99040522D01*
X89161570Y-98982364D01*
X89122634Y-98901408D01*
X89114923Y-98838160D01*
X89120807Y-98781111D01*
X89142101Y-98734542D01*
X89184265Y-98693181D01*
X89252759Y-98651755D01*
X89353044Y-98604993D01*
X89359154Y-98602350D01*
X89449490Y-98560617D01*
X89505235Y-98526391D01*
X89529129Y-98495635D01*
X89523913Y-98464311D01*
X89492328Y-98428383D01*
X89482883Y-98420116D01*
X89419617Y-98388058D01*
X89354064Y-98389407D01*
X89296972Y-98420838D01*
X89259093Y-98479024D01*
X89255574Y-98490446D01*
X89221300Y-98545837D01*
X89177809Y-98572518D01*
X89114923Y-98598960D01*
X89114923Y-98530548D01*
X89134052Y-98431110D01*
X89190831Y-98339902D01*
X89220378Y-98309389D01*
X89287542Y-98270228D01*
X89372956Y-98252500D01*
X89461501Y-98257303D01*
G37*
X89461501Y-98257303D02*
X89538060Y-98285733D01*
X89538936Y-98286279D01*
X89586285Y-98321127D01*
X89621241Y-98361852D01*
X89645825Y-98414925D01*
X89662062Y-98486814D01*
X89671975Y-98583992D01*
X89677586Y-98712928D01*
X89678077Y-98731298D01*
X89685141Y-99008287D01*
X89625695Y-99039028D01*
X89582681Y-99059802D01*
X89556710Y-99069646D01*
X89555509Y-99069769D01*
X89551014Y-99051606D01*
X89547444Y-99002612D01*
X89545248Y-98931031D01*
X89544769Y-98873068D01*
X89544758Y-98779170D01*
X89540466Y-98720203D01*
X89525503Y-98692079D01*
X89493482Y-98690706D01*
X89438014Y-98711998D01*
X89354269Y-98751136D01*
X89292689Y-98783643D01*
X89261017Y-98811845D01*
X89251706Y-98842582D01*
X89251692Y-98844104D01*
X89267057Y-98897054D01*
X89312547Y-98925660D01*
X89382166Y-98929803D01*
X89432313Y-98929084D01*
X89458754Y-98943527D01*
X89475243Y-98978218D01*
X89484733Y-99022416D01*
X89471057Y-99047493D01*
X89465907Y-99051082D01*
X89417425Y-99065496D01*
X89349531Y-99067537D01*
X89279612Y-99057983D01*
X89230068Y-99040522D01*
X89161570Y-98982364D01*
X89122634Y-98901408D01*
X89114923Y-98838160D01*
X89120807Y-98781111D01*
X89142101Y-98734542D01*
X89184265Y-98693181D01*
X89252759Y-98651755D01*
X89353044Y-98604993D01*
X89359154Y-98602350D01*
X89449490Y-98560617D01*
X89505235Y-98526391D01*
X89529129Y-98495635D01*
X89523913Y-98464311D01*
X89492328Y-98428383D01*
X89482883Y-98420116D01*
X89419617Y-98388058D01*
X89354064Y-98389407D01*
X89296972Y-98420838D01*
X89259093Y-98479024D01*
X89255574Y-98490446D01*
X89221300Y-98545837D01*
X89177809Y-98572518D01*
X89114923Y-98598960D01*
X89114923Y-98530548D01*
X89134052Y-98431110D01*
X89190831Y-98339902D01*
X89220378Y-98309389D01*
X89287542Y-98270228D01*
X89372956Y-98252500D01*
X89461501Y-98257303D01*
G36*
X90121362Y-98255670D02*
G01*
X90210117Y-98288421D01*
X90282022Y-98346350D01*
X90310144Y-98387128D01*
X90340802Y-98461954D01*
X90340165Y-98516058D01*
X90307987Y-98552446D01*
X90296081Y-98558633D01*
X90244675Y-98577925D01*
X90218422Y-98572982D01*
X90209530Y-98540587D01*
X90209077Y-98522692D01*
X90192797Y-98456859D01*
X90150365Y-98410807D01*
X90091388Y-98388564D01*
X90025475Y-98394161D01*
X89971895Y-98423229D01*
X89953798Y-98439810D01*
X89940971Y-98459925D01*
X89932306Y-98490332D01*
X89926696Y-98537788D01*
X89923035Y-98609050D01*
X89920215Y-98710875D01*
X89919484Y-98743115D01*
X89916820Y-98853410D01*
X89913792Y-98931036D01*
X89909250Y-98982396D01*
X89902046Y-99013890D01*
X89891033Y-99031920D01*
X89875060Y-99042888D01*
X89864834Y-99047733D01*
X89821406Y-99064301D01*
X89795842Y-99069769D01*
X89787395Y-99051507D01*
X89782239Y-98996296D01*
X89780346Y-98903499D01*
X89781689Y-98772478D01*
X89782107Y-98752269D01*
X89785058Y-98632733D01*
X89788548Y-98545449D01*
X89793514Y-98483591D01*
X89800893Y-98440336D01*
X89811624Y-98408860D01*
X89826645Y-98382339D01*
X89834502Y-98370975D01*
X89879553Y-98320692D01*
X89929940Y-98281581D01*
X89936108Y-98278167D01*
X90026458Y-98251212D01*
X90121362Y-98255670D01*
G37*
X90121362Y-98255670D02*
X90210117Y-98288421D01*
X90282022Y-98346350D01*
X90310144Y-98387128D01*
X90340802Y-98461954D01*
X90340165Y-98516058D01*
X90307987Y-98552446D01*
X90296081Y-98558633D01*
X90244675Y-98577925D01*
X90218422Y-98572982D01*
X90209530Y-98540587D01*
X90209077Y-98522692D01*
X90192797Y-98456859D01*
X90150365Y-98410807D01*
X90091388Y-98388564D01*
X90025475Y-98394161D01*
X89971895Y-98423229D01*
X89953798Y-98439810D01*
X89940971Y-98459925D01*
X89932306Y-98490332D01*
X89926696Y-98537788D01*
X89923035Y-98609050D01*
X89920215Y-98710875D01*
X89919484Y-98743115D01*
X89916820Y-98853410D01*
X89913792Y-98931036D01*
X89909250Y-98982396D01*
X89902046Y-99013890D01*
X89891033Y-99031920D01*
X89875060Y-99042888D01*
X89864834Y-99047733D01*
X89821406Y-99064301D01*
X89795842Y-99069769D01*
X89787395Y-99051507D01*
X89782239Y-98996296D01*
X89780346Y-98903499D01*
X89781689Y-98772478D01*
X89782107Y-98752269D01*
X89785058Y-98632733D01*
X89788548Y-98545449D01*
X89793514Y-98483591D01*
X89800893Y-98440336D01*
X89811624Y-98408860D01*
X89826645Y-98382339D01*
X89834502Y-98370975D01*
X89879553Y-98320692D01*
X89929940Y-98281581D01*
X89936108Y-98278167D01*
X90026458Y-98251212D01*
X90121362Y-98255670D01*
G36*
X91010081Y-98411289D02*
G01*
X91009833Y-98557320D01*
X91008872Y-98669655D01*
X91006794Y-98753678D01*
X91003193Y-98814769D01*
X90997665Y-98858309D01*
X90989804Y-98889679D01*
X90979207Y-98914262D01*
X90971182Y-98928294D01*
X90904728Y-99004388D01*
X90820470Y-99052084D01*
X90727249Y-99069199D01*
X90633900Y-99053546D01*
X90578312Y-99025418D01*
X90519957Y-98976760D01*
X90480186Y-98917333D01*
X90456190Y-98839507D01*
X90445161Y-98735652D01*
X90443599Y-98659462D01*
X90443809Y-98653986D01*
X90580308Y-98653986D01*
X90581141Y-98741355D01*
X90584961Y-98799192D01*
X90593746Y-98837029D01*
X90609474Y-98864398D01*
X90628266Y-98885042D01*
X90691375Y-98924890D01*
X90759137Y-98928295D01*
X90823179Y-98895025D01*
X90828164Y-98890517D01*
X90849439Y-98867067D01*
X90862779Y-98839166D01*
X90870001Y-98797641D01*
X90872923Y-98733316D01*
X90873385Y-98662200D01*
X90872383Y-98572858D01*
X90868238Y-98513258D01*
X90859236Y-98474089D01*
X90843667Y-98446040D01*
X90830902Y-98431144D01*
X90771600Y-98393575D01*
X90703301Y-98389057D01*
X90638110Y-98417753D01*
X90625528Y-98428406D01*
X90604111Y-98452063D01*
X90590744Y-98480251D01*
X90583566Y-98522245D01*
X90580719Y-98587319D01*
X90580308Y-98653986D01*
X90443809Y-98653986D01*
X90448322Y-98536765D01*
X90464362Y-98444577D01*
X90494528Y-98375269D01*
X90541629Y-98321211D01*
X90578312Y-98293505D01*
X90644990Y-98263572D01*
X90722272Y-98249678D01*
X90794110Y-98253397D01*
X90834308Y-98268400D01*
X90850082Y-98272670D01*
X90860550Y-98256750D01*
X90867856Y-98214089D01*
X90873385Y-98149106D01*
X90879437Y-98076732D01*
X90887844Y-98033187D01*
X90903141Y-98008287D01*
X90929864Y-97991845D01*
X90946654Y-97984564D01*
X91010154Y-97957963D01*
X91010081Y-98411289D01*
G37*
X91010081Y-98411289D02*
X91009833Y-98557320D01*
X91008872Y-98669655D01*
X91006794Y-98753678D01*
X91003193Y-98814769D01*
X90997665Y-98858309D01*
X90989804Y-98889679D01*
X90979207Y-98914262D01*
X90971182Y-98928294D01*
X90904728Y-99004388D01*
X90820470Y-99052084D01*
X90727249Y-99069199D01*
X90633900Y-99053546D01*
X90578312Y-99025418D01*
X90519957Y-98976760D01*
X90480186Y-98917333D01*
X90456190Y-98839507D01*
X90445161Y-98735652D01*
X90443599Y-98659462D01*
X90443809Y-98653986D01*
X90580308Y-98653986D01*
X90581141Y-98741355D01*
X90584961Y-98799192D01*
X90593746Y-98837029D01*
X90609474Y-98864398D01*
X90628266Y-98885042D01*
X90691375Y-98924890D01*
X90759137Y-98928295D01*
X90823179Y-98895025D01*
X90828164Y-98890517D01*
X90849439Y-98867067D01*
X90862779Y-98839166D01*
X90870001Y-98797641D01*
X90872923Y-98733316D01*
X90873385Y-98662200D01*
X90872383Y-98572858D01*
X90868238Y-98513258D01*
X90859236Y-98474089D01*
X90843667Y-98446040D01*
X90830902Y-98431144D01*
X90771600Y-98393575D01*
X90703301Y-98389057D01*
X90638110Y-98417753D01*
X90625528Y-98428406D01*
X90604111Y-98452063D01*
X90590744Y-98480251D01*
X90583566Y-98522245D01*
X90580719Y-98587319D01*
X90580308Y-98653986D01*
X90443809Y-98653986D01*
X90448322Y-98536765D01*
X90464362Y-98444577D01*
X90494528Y-98375269D01*
X90541629Y-98321211D01*
X90578312Y-98293505D01*
X90644990Y-98263572D01*
X90722272Y-98249678D01*
X90794110Y-98253397D01*
X90834308Y-98268400D01*
X90850082Y-98272670D01*
X90860550Y-98256750D01*
X90867856Y-98214089D01*
X90873385Y-98149106D01*
X90879437Y-98076732D01*
X90887844Y-98033187D01*
X90903141Y-98008287D01*
X90929864Y-97991845D01*
X90946654Y-97984564D01*
X91010154Y-97957963D01*
X91010081Y-98411289D01*
G36*
X91803929Y-98267662D02*
G01*
X91806911Y-98319068D01*
X91809247Y-98397192D01*
X91810749Y-98495857D01*
X91811231Y-98599343D01*
X91811231Y-98949533D01*
X91749401Y-99011363D01*
X91706793Y-99049462D01*
X91669390Y-99064895D01*
X91618270Y-99063918D01*
X91597978Y-99061433D01*
X91534554Y-99054200D01*
X91482095Y-99050055D01*
X91469308Y-99049672D01*
X91426199Y-99052176D01*
X91364544Y-99058462D01*
X91340638Y-99061433D01*
X91281922Y-99066028D01*
X91242464Y-99056046D01*
X91203338Y-99025228D01*
X91189215Y-99011363D01*
X91127385Y-98949533D01*
X91127385Y-98294503D01*
X91177150Y-98271829D01*
X91220002Y-98255034D01*
X91245073Y-98249154D01*
X91251501Y-98267736D01*
X91257509Y-98319655D01*
X91262697Y-98399172D01*
X91266664Y-98500546D01*
X91268577Y-98586192D01*
X91273923Y-98923231D01*
X91320560Y-98929825D01*
X91362976Y-98925214D01*
X91383760Y-98910287D01*
X91389570Y-98882377D01*
X91394530Y-98822925D01*
X91398246Y-98739466D01*
X91400324Y-98639532D01*
X91400624Y-98588104D01*
X91400923Y-98292054D01*
X91462454Y-98270604D01*
X91506004Y-98256020D01*
X91529694Y-98249219D01*
X91530377Y-98249154D01*
X91532754Y-98267642D01*
X91535366Y-98318906D01*
X91537995Y-98396649D01*
X91540421Y-98494574D01*
X91542115Y-98586192D01*
X91547461Y-98923231D01*
X91664692Y-98923231D01*
X91670072Y-98615746D01*
X91675451Y-98308261D01*
X91732601Y-98278707D01*
X91774797Y-98258413D01*
X91799770Y-98249204D01*
X91800491Y-98249154D01*
X91803929Y-98267662D01*
G37*
X91803929Y-98267662D02*
X91806911Y-98319068D01*
X91809247Y-98397192D01*
X91810749Y-98495857D01*
X91811231Y-98599343D01*
X91811231Y-98949533D01*
X91749401Y-99011363D01*
X91706793Y-99049462D01*
X91669390Y-99064895D01*
X91618270Y-99063918D01*
X91597978Y-99061433D01*
X91534554Y-99054200D01*
X91482095Y-99050055D01*
X91469308Y-99049672D01*
X91426199Y-99052176D01*
X91364544Y-99058462D01*
X91340638Y-99061433D01*
X91281922Y-99066028D01*
X91242464Y-99056046D01*
X91203338Y-99025228D01*
X91189215Y-99011363D01*
X91127385Y-98949533D01*
X91127385Y-98294503D01*
X91177150Y-98271829D01*
X91220002Y-98255034D01*
X91245073Y-98249154D01*
X91251501Y-98267736D01*
X91257509Y-98319655D01*
X91262697Y-98399172D01*
X91266664Y-98500546D01*
X91268577Y-98586192D01*
X91273923Y-98923231D01*
X91320560Y-98929825D01*
X91362976Y-98925214D01*
X91383760Y-98910287D01*
X91389570Y-98882377D01*
X91394530Y-98822925D01*
X91398246Y-98739466D01*
X91400324Y-98639532D01*
X91400624Y-98588104D01*
X91400923Y-98292054D01*
X91462454Y-98270604D01*
X91506004Y-98256020D01*
X91529694Y-98249219D01*
X91530377Y-98249154D01*
X91532754Y-98267642D01*
X91535366Y-98318906D01*
X91537995Y-98396649D01*
X91540421Y-98494574D01*
X91542115Y-98586192D01*
X91547461Y-98923231D01*
X91664692Y-98923231D01*
X91670072Y-98615746D01*
X91675451Y-98308261D01*
X91732601Y-98278707D01*
X91774797Y-98258413D01*
X91799770Y-98249204D01*
X91800491Y-98249154D01*
X91803929Y-98267662D01*
G36*
X92295333Y-98264528D02*
G01*
X92351590Y-98290117D01*
X92395747Y-98321124D01*
X92428101Y-98355795D01*
X92450438Y-98400520D01*
X92464546Y-98461692D01*
X92472211Y-98545701D01*
X92475220Y-98658940D01*
X92475538Y-98733509D01*
X92475538Y-99024420D01*
X92425773Y-99047095D01*
X92386576Y-99063667D01*
X92367157Y-99069769D01*
X92363442Y-99051610D01*
X92360495Y-99002648D01*
X92358691Y-98931153D01*
X92358308Y-98874385D01*
X92356661Y-98792371D01*
X92352222Y-98727309D01*
X92345740Y-98687467D01*
X92340590Y-98679000D01*
X92305977Y-98687646D01*
X92251640Y-98709823D01*
X92188722Y-98739886D01*
X92128368Y-98772192D01*
X92081721Y-98801098D01*
X92059926Y-98820961D01*
X92059839Y-98821175D01*
X92061714Y-98857935D01*
X92078525Y-98893026D01*
X92108039Y-98921528D01*
X92151116Y-98931061D01*
X92187932Y-98929950D01*
X92240074Y-98929133D01*
X92267444Y-98941349D01*
X92283882Y-98973624D01*
X92285955Y-98979710D01*
X92293081Y-99025739D01*
X92274024Y-99053687D01*
X92224353Y-99067007D01*
X92170697Y-99069470D01*
X92074142Y-99051210D01*
X92024159Y-99025131D01*
X91962429Y-98963868D01*
X91929690Y-98888670D01*
X91926753Y-98809211D01*
X91954424Y-98735167D01*
X91996047Y-98688769D01*
X92037604Y-98662793D01*
X92102922Y-98629907D01*
X92179038Y-98596557D01*
X92191726Y-98591461D01*
X92275333Y-98554565D01*
X92323530Y-98522046D01*
X92339030Y-98489718D01*
X92324550Y-98453394D01*
X92299692Y-98425000D01*
X92240939Y-98390039D01*
X92176293Y-98387417D01*
X92117008Y-98414358D01*
X92074339Y-98468088D01*
X92068739Y-98481950D01*
X92036133Y-98532936D01*
X91988530Y-98570787D01*
X91928461Y-98601850D01*
X91928461Y-98513768D01*
X91931997Y-98459951D01*
X91947156Y-98417534D01*
X91980768Y-98372279D01*
X92013035Y-98337420D01*
X92063209Y-98288062D01*
X92102193Y-98261547D01*
X92144064Y-98250911D01*
X92191460Y-98249154D01*
X92295333Y-98264528D01*
G37*
X92295333Y-98264528D02*
X92351590Y-98290117D01*
X92395747Y-98321124D01*
X92428101Y-98355795D01*
X92450438Y-98400520D01*
X92464546Y-98461692D01*
X92472211Y-98545701D01*
X92475220Y-98658940D01*
X92475538Y-98733509D01*
X92475538Y-99024420D01*
X92425773Y-99047095D01*
X92386576Y-99063667D01*
X92367157Y-99069769D01*
X92363442Y-99051610D01*
X92360495Y-99002648D01*
X92358691Y-98931153D01*
X92358308Y-98874385D01*
X92356661Y-98792371D01*
X92352222Y-98727309D01*
X92345740Y-98687467D01*
X92340590Y-98679000D01*
X92305977Y-98687646D01*
X92251640Y-98709823D01*
X92188722Y-98739886D01*
X92128368Y-98772192D01*
X92081721Y-98801098D01*
X92059926Y-98820961D01*
X92059839Y-98821175D01*
X92061714Y-98857935D01*
X92078525Y-98893026D01*
X92108039Y-98921528D01*
X92151116Y-98931061D01*
X92187932Y-98929950D01*
X92240074Y-98929133D01*
X92267444Y-98941349D01*
X92283882Y-98973624D01*
X92285955Y-98979710D01*
X92293081Y-99025739D01*
X92274024Y-99053687D01*
X92224353Y-99067007D01*
X92170697Y-99069470D01*
X92074142Y-99051210D01*
X92024159Y-99025131D01*
X91962429Y-98963868D01*
X91929690Y-98888670D01*
X91926753Y-98809211D01*
X91954424Y-98735167D01*
X91996047Y-98688769D01*
X92037604Y-98662793D01*
X92102922Y-98629907D01*
X92179038Y-98596557D01*
X92191726Y-98591461D01*
X92275333Y-98554565D01*
X92323530Y-98522046D01*
X92339030Y-98489718D01*
X92324550Y-98453394D01*
X92299692Y-98425000D01*
X92240939Y-98390039D01*
X92176293Y-98387417D01*
X92117008Y-98414358D01*
X92074339Y-98468088D01*
X92068739Y-98481950D01*
X92036133Y-98532936D01*
X91988530Y-98570787D01*
X91928461Y-98601850D01*
X91928461Y-98513768D01*
X91931997Y-98459951D01*
X91947156Y-98417534D01*
X91980768Y-98372279D01*
X92013035Y-98337420D01*
X92063209Y-98288062D01*
X92102193Y-98261547D01*
X92144064Y-98250911D01*
X92191460Y-98249154D01*
X92295333Y-98264528D01*
G36*
X92978807Y-98267782D02*
G01*
X93002161Y-98277988D01*
X93057902Y-98322134D01*
X93105569Y-98385967D01*
X93135048Y-98454087D01*
X93139846Y-98487670D01*
X93123760Y-98534556D01*
X93088475Y-98559365D01*
X93050644Y-98574387D01*
X93033321Y-98577155D01*
X93024886Y-98557066D01*
X93008230Y-98513351D01*
X93000923Y-98493598D01*
X92959948Y-98425271D01*
X92900622Y-98391191D01*
X92824552Y-98392239D01*
X92818918Y-98393581D01*
X92778305Y-98412836D01*
X92748448Y-98450375D01*
X92728055Y-98510809D01*
X92715836Y-98598751D01*
X92710500Y-98718813D01*
X92710000Y-98782698D01*
X92709752Y-98883403D01*
X92708126Y-98952054D01*
X92703801Y-98995673D01*
X92695454Y-99021282D01*
X92681765Y-99035903D01*
X92661411Y-99046558D01*
X92660234Y-99047095D01*
X92621038Y-99063667D01*
X92601619Y-99069769D01*
X92598635Y-99051319D01*
X92596081Y-99000323D01*
X92594140Y-98923308D01*
X92592997Y-98826805D01*
X92592769Y-98756184D01*
X92593932Y-98619525D01*
X92598479Y-98515851D01*
X92607999Y-98439108D01*
X92624081Y-98383246D01*
X92648313Y-98342212D01*
X92682286Y-98309954D01*
X92715833Y-98287440D01*
X92796499Y-98257476D01*
X92890381Y-98250718D01*
X92978807Y-98267782D01*
G37*
X92978807Y-98267782D02*
X93002161Y-98277988D01*
X93057902Y-98322134D01*
X93105569Y-98385967D01*
X93135048Y-98454087D01*
X93139846Y-98487670D01*
X93123760Y-98534556D01*
X93088475Y-98559365D01*
X93050644Y-98574387D01*
X93033321Y-98577155D01*
X93024886Y-98557066D01*
X93008230Y-98513351D01*
X93000923Y-98493598D01*
X92959948Y-98425271D01*
X92900622Y-98391191D01*
X92824552Y-98392239D01*
X92818918Y-98393581D01*
X92778305Y-98412836D01*
X92748448Y-98450375D01*
X92728055Y-98510809D01*
X92715836Y-98598751D01*
X92710500Y-98718813D01*
X92710000Y-98782698D01*
X92709752Y-98883403D01*
X92708126Y-98952054D01*
X92703801Y-98995673D01*
X92695454Y-99021282D01*
X92681765Y-99035903D01*
X92661411Y-99046558D01*
X92660234Y-99047095D01*
X92621038Y-99063667D01*
X92601619Y-99069769D01*
X92598635Y-99051319D01*
X92596081Y-99000323D01*
X92594140Y-98923308D01*
X92592997Y-98826805D01*
X92592769Y-98756184D01*
X92593932Y-98619525D01*
X92598479Y-98515851D01*
X92607999Y-98439108D01*
X92624081Y-98383246D01*
X92648313Y-98342212D01*
X92682286Y-98309954D01*
X92715833Y-98287440D01*
X92796499Y-98257476D01*
X92890381Y-98250718D01*
X92978807Y-98267782D01*
G36*
X93653224Y-98278838D02*
G01*
X93730528Y-98329361D01*
X93767814Y-98374590D01*
X93797353Y-98456663D01*
X93799699Y-98521607D01*
X93794385Y-98608445D01*
X93594115Y-98696103D01*
X93496739Y-98740887D01*
X93433113Y-98776913D01*
X93400029Y-98808117D01*
X93394280Y-98838436D01*
X93412658Y-98871805D01*
X93432923Y-98893923D01*
X93491889Y-98929393D01*
X93556024Y-98931879D01*
X93614926Y-98904235D01*
X93658197Y-98849320D01*
X93665936Y-98829928D01*
X93703006Y-98769364D01*
X93745654Y-98743552D01*
X93804154Y-98721471D01*
X93804154Y-98805184D01*
X93798982Y-98862150D01*
X93778723Y-98910189D01*
X93736262Y-98965346D01*
X93729951Y-98972514D01*
X93682720Y-99021585D01*
X93642121Y-99047920D01*
X93591328Y-99060035D01*
X93549220Y-99064003D01*
X93473902Y-99064991D01*
X93420286Y-99052466D01*
X93386838Y-99033869D01*
X93334268Y-98992975D01*
X93297879Y-98948748D01*
X93274850Y-98893126D01*
X93262359Y-98818047D01*
X93257587Y-98715449D01*
X93257206Y-98663376D01*
X93258501Y-98600948D01*
X93376471Y-98600948D01*
X93377839Y-98634438D01*
X93381249Y-98639923D01*
X93403753Y-98632472D01*
X93452182Y-98612753D01*
X93516908Y-98584718D01*
X93530443Y-98578692D01*
X93612244Y-98537096D01*
X93657312Y-98500538D01*
X93667217Y-98466296D01*
X93643526Y-98431648D01*
X93623960Y-98416339D01*
X93553360Y-98385721D01*
X93487280Y-98390780D01*
X93431959Y-98428151D01*
X93393636Y-98494473D01*
X93381349Y-98547116D01*
X93376471Y-98600948D01*
X93258501Y-98600948D01*
X93259730Y-98541720D01*
X93269032Y-98451710D01*
X93287460Y-98386167D01*
X93317360Y-98337912D01*
X93361080Y-98299767D01*
X93380141Y-98287440D01*
X93466726Y-98255336D01*
X93561522Y-98253316D01*
X93653224Y-98278838D01*
G37*
X93653224Y-98278838D02*
X93730528Y-98329361D01*
X93767814Y-98374590D01*
X93797353Y-98456663D01*
X93799699Y-98521607D01*
X93794385Y-98608445D01*
X93594115Y-98696103D01*
X93496739Y-98740887D01*
X93433113Y-98776913D01*
X93400029Y-98808117D01*
X93394280Y-98838436D01*
X93412658Y-98871805D01*
X93432923Y-98893923D01*
X93491889Y-98929393D01*
X93556024Y-98931879D01*
X93614926Y-98904235D01*
X93658197Y-98849320D01*
X93665936Y-98829928D01*
X93703006Y-98769364D01*
X93745654Y-98743552D01*
X93804154Y-98721471D01*
X93804154Y-98805184D01*
X93798982Y-98862150D01*
X93778723Y-98910189D01*
X93736262Y-98965346D01*
X93729951Y-98972514D01*
X93682720Y-99021585D01*
X93642121Y-99047920D01*
X93591328Y-99060035D01*
X93549220Y-99064003D01*
X93473902Y-99064991D01*
X93420286Y-99052466D01*
X93386838Y-99033869D01*
X93334268Y-98992975D01*
X93297879Y-98948748D01*
X93274850Y-98893126D01*
X93262359Y-98818047D01*
X93257587Y-98715449D01*
X93257206Y-98663376D01*
X93258501Y-98600948D01*
X93376471Y-98600948D01*
X93377839Y-98634438D01*
X93381249Y-98639923D01*
X93403753Y-98632472D01*
X93452182Y-98612753D01*
X93516908Y-98584718D01*
X93530443Y-98578692D01*
X93612244Y-98537096D01*
X93657312Y-98500538D01*
X93667217Y-98466296D01*
X93643526Y-98431648D01*
X93623960Y-98416339D01*
X93553360Y-98385721D01*
X93487280Y-98390780D01*
X93431959Y-98428151D01*
X93393636Y-98494473D01*
X93381349Y-98547116D01*
X93376471Y-98600948D01*
X93258501Y-98600948D01*
X93259730Y-98541720D01*
X93269032Y-98451710D01*
X93287460Y-98386167D01*
X93317360Y-98337912D01*
X93361080Y-98299767D01*
X93380141Y-98287440D01*
X93466726Y-98255336D01*
X93561522Y-98253316D01*
X93653224Y-98278838D01*
G36*
X89547878Y-91918776D02*
G01*
X89653612Y-91919355D01*
X89730132Y-91920922D01*
X89782372Y-91923972D01*
X89815263Y-91928996D01*
X89833737Y-91936489D01*
X89842727Y-91946944D01*
X89847163Y-91960853D01*
X89847594Y-91962654D01*
X89854333Y-91995145D01*
X89866808Y-92059252D01*
X89883719Y-92148151D01*
X89903771Y-92255019D01*
X89925664Y-92373033D01*
X89926429Y-92377178D01*
X89948359Y-92492831D01*
X89968877Y-92595014D01*
X89986659Y-92677598D01*
X90000381Y-92734456D01*
X90008718Y-92759458D01*
X90009116Y-92759901D01*
X90033677Y-92772110D01*
X90084315Y-92792456D01*
X90150095Y-92816545D01*
X90150461Y-92816674D01*
X90233317Y-92847818D01*
X90331000Y-92887491D01*
X90423077Y-92927381D01*
X90427434Y-92929353D01*
X90577407Y-92997420D01*
X90909498Y-92770639D01*
X91011374Y-92701504D01*
X91103657Y-92639697D01*
X91181003Y-92588733D01*
X91238064Y-92552127D01*
X91269495Y-92533394D01*
X91272479Y-92532004D01*
X91295321Y-92538190D01*
X91337982Y-92568035D01*
X91402128Y-92622947D01*
X91489421Y-92704334D01*
X91578535Y-92790922D01*
X91664441Y-92876247D01*
X91741327Y-92954108D01*
X91804564Y-93019697D01*
X91849523Y-93068205D01*
X91871576Y-93094825D01*
X91872396Y-93096195D01*
X91874834Y-93114463D01*
X91865650Y-93144295D01*
X91842574Y-93189721D01*
X91803337Y-93254770D01*
X91745670Y-93343470D01*
X91668795Y-93457657D01*
X91600570Y-93558162D01*
X91539582Y-93648303D01*
X91489356Y-93722849D01*
X91453416Y-93776565D01*
X91435287Y-93804218D01*
X91434146Y-93806095D01*
X91436359Y-93832590D01*
X91453138Y-93884086D01*
X91481142Y-93950851D01*
X91491122Y-93972172D01*
X91534672Y-94067159D01*
X91581134Y-94174937D01*
X91618877Y-94268192D01*
X91646073Y-94337406D01*
X91667675Y-94390006D01*
X91680158Y-94417497D01*
X91681709Y-94419616D01*
X91704668Y-94423124D01*
X91758786Y-94432738D01*
X91836868Y-94447089D01*
X91931719Y-94464807D01*
X92036143Y-94484525D01*
X92142944Y-94504874D01*
X92244926Y-94524486D01*
X92334894Y-94541991D01*
X92405653Y-94556022D01*
X92450006Y-94565209D01*
X92460885Y-94567807D01*
X92472122Y-94574218D01*
X92480605Y-94588697D01*
X92486714Y-94616133D01*
X92490832Y-94661411D01*
X92493341Y-94729420D01*
X92494621Y-94825047D01*
X92495054Y-94953180D01*
X92495077Y-95005701D01*
X92495077Y-95432845D01*
X92392500Y-95453091D01*
X92335431Y-95464070D01*
X92250269Y-95480095D01*
X92147372Y-95499233D01*
X92037096Y-95519551D01*
X92006615Y-95525132D01*
X91904855Y-95544917D01*
X91816205Y-95564373D01*
X91748108Y-95581697D01*
X91708004Y-95595088D01*
X91701323Y-95599079D01*
X91684919Y-95627342D01*
X91661399Y-95682109D01*
X91635316Y-95752588D01*
X91630142Y-95767769D01*
X91595956Y-95861896D01*
X91553523Y-95968101D01*
X91511997Y-96063473D01*
X91511792Y-96063916D01*
X91442640Y-96213525D01*
X91897512Y-96882617D01*
X91605500Y-97175116D01*
X91517180Y-97262170D01*
X91436625Y-97338909D01*
X91368360Y-97401237D01*
X91316908Y-97445056D01*
X91286794Y-97466270D01*
X91282474Y-97467616D01*
X91257111Y-97457016D01*
X91205358Y-97427547D01*
X91132868Y-97382705D01*
X91045294Y-97325984D01*
X90950612Y-97262462D01*
X90854516Y-97197668D01*
X90768837Y-97141287D01*
X90699016Y-97096788D01*
X90650494Y-97067639D01*
X90628782Y-97057308D01*
X90602293Y-97066050D01*
X90552062Y-97089087D01*
X90488451Y-97121631D01*
X90481708Y-97125249D01*
X90396046Y-97168210D01*
X90337306Y-97189279D01*
X90300772Y-97189503D01*
X90281731Y-97169928D01*
X90281620Y-97169654D01*
X90272102Y-97146472D01*
X90249403Y-97091441D01*
X90215282Y-97008822D01*
X90171500Y-96902872D01*
X90119816Y-96777852D01*
X90061992Y-96638020D01*
X90005991Y-96502637D01*
X89944447Y-96353234D01*
X89887939Y-96214832D01*
X89838161Y-96091673D01*
X89796806Y-95988002D01*
X89765568Y-95908059D01*
X89746141Y-95856088D01*
X89740154Y-95836692D01*
X89755168Y-95814443D01*
X89794439Y-95778982D01*
X89846807Y-95739887D01*
X89995941Y-95616245D01*
X90112511Y-95474522D01*
X90195118Y-95317704D01*
X90242366Y-95148775D01*
X90252857Y-94970722D01*
X90245231Y-94888539D01*
X90203682Y-94718031D01*
X90132123Y-94567459D01*
X90034995Y-94438309D01*
X89916734Y-94332064D01*
X89781780Y-94250210D01*
X89634571Y-94194232D01*
X89479544Y-94165615D01*
X89321139Y-94165844D01*
X89163794Y-94196405D01*
X89011946Y-94258782D01*
X88870035Y-94354460D01*
X88810803Y-94408572D01*
X88697203Y-94547520D01*
X88618106Y-94699361D01*
X88572986Y-94859667D01*
X88561316Y-95024012D01*
X88582569Y-95187971D01*
X88636220Y-95347118D01*
X88721740Y-95497025D01*
X88838605Y-95633267D01*
X88969193Y-95739887D01*
X89023588Y-95780642D01*
X89062014Y-95815718D01*
X89075846Y-95836726D01*
X89068603Y-95859635D01*
X89048005Y-95914365D01*
X89015746Y-95996672D01*
X88973521Y-96102315D01*
X88923023Y-96227050D01*
X88865948Y-96366636D01*
X88809854Y-96502670D01*
X88747967Y-96652201D01*
X88690644Y-96790767D01*
X88639644Y-96914107D01*
X88596727Y-97017964D01*
X88563653Y-97098080D01*
X88542181Y-97150195D01*
X88534225Y-97169654D01*
X88515429Y-97189423D01*
X88479074Y-97189365D01*
X88420479Y-97168441D01*
X88334968Y-97125613D01*
X88334292Y-97125249D01*
X88269907Y-97092012D01*
X88217861Y-97067802D01*
X88188512Y-97057404D01*
X88187217Y-97057308D01*
X88165124Y-97067855D01*
X88116348Y-97097184D01*
X88046331Y-97141827D01*
X87960514Y-97198314D01*
X87865388Y-97262462D01*
X87768540Y-97327411D01*
X87681253Y-97383896D01*
X87609181Y-97428421D01*
X87557977Y-97457490D01*
X87533526Y-97467616D01*
X87511010Y-97454307D01*
X87465742Y-97417112D01*
X87402244Y-97360128D01*
X87325039Y-97287449D01*
X87238651Y-97203171D01*
X87210399Y-97175016D01*
X86918287Y-96882416D01*
X87140631Y-96556104D01*
X87208202Y-96455897D01*
X87267507Y-96365963D01*
X87315217Y-96291510D01*
X87348007Y-96237751D01*
X87362548Y-96209894D01*
X87362974Y-96207912D01*
X87355308Y-96181655D01*
X87334689Y-96128837D01*
X87304685Y-96058310D01*
X87283625Y-96011093D01*
X87244248Y-95920694D01*
X87207165Y-95829366D01*
X87178415Y-95752200D01*
X87170605Y-95728692D01*
X87148417Y-95665916D01*
X87126727Y-95617411D01*
X87114813Y-95599079D01*
X87088523Y-95587859D01*
X87031142Y-95571954D01*
X86950118Y-95553167D01*
X86852895Y-95533299D01*
X86809385Y-95525132D01*
X86698896Y-95504829D01*
X86592916Y-95485170D01*
X86501801Y-95468088D01*
X86435908Y-95455518D01*
X86423500Y-95453091D01*
X86320923Y-95432845D01*
X86320923Y-95005701D01*
X86321153Y-94865246D01*
X86322099Y-94758979D01*
X86324141Y-94682013D01*
X86327662Y-94629460D01*
X86333043Y-94596433D01*
X86340666Y-94578045D01*
X86350912Y-94569408D01*
X86355115Y-94567807D01*
X86380470Y-94562127D01*
X86436484Y-94550795D01*
X86515964Y-94535179D01*
X86611712Y-94516647D01*
X86716533Y-94496569D01*
X86823232Y-94476312D01*
X86924613Y-94457246D01*
X87013479Y-94440739D01*
X87082637Y-94428159D01*
X87124889Y-94420875D01*
X87134290Y-94419616D01*
X87142807Y-94402763D01*
X87161660Y-94357870D01*
X87187324Y-94293430D01*
X87197123Y-94268192D01*
X87236648Y-94170686D01*
X87283192Y-94062959D01*
X87324877Y-93972172D01*
X87355550Y-93902753D01*
X87375956Y-93845710D01*
X87382768Y-93810777D01*
X87381682Y-93806095D01*
X87367285Y-93783991D01*
X87334412Y-93734831D01*
X87286590Y-93663848D01*
X87227348Y-93576278D01*
X87160215Y-93477357D01*
X87146941Y-93457830D01*
X87069046Y-93342140D01*
X87011787Y-93254044D01*
X86972881Y-93189486D01*
X86950044Y-93144411D01*
X86940994Y-93114763D01*
X86943448Y-93096485D01*
X86943511Y-93096369D01*
X86962827Y-93072361D01*
X87005551Y-93025947D01*
X87067051Y-92961937D01*
X87142698Y-92885145D01*
X87227861Y-92800382D01*
X87237465Y-92790922D01*
X87344790Y-92686989D01*
X87427615Y-92610675D01*
X87487605Y-92560571D01*
X87526423Y-92535270D01*
X87543520Y-92532004D01*
X87568473Y-92546250D01*
X87620255Y-92579156D01*
X87693520Y-92627208D01*
X87782920Y-92686890D01*
X87883111Y-92754688D01*
X87906501Y-92770639D01*
X88238593Y-92997420D01*
X88388565Y-92929353D01*
X88479770Y-92889685D01*
X88577669Y-92849791D01*
X88661831Y-92817983D01*
X88665538Y-92816674D01*
X88731369Y-92792576D01*
X88782116Y-92772200D01*
X88806842Y-92759936D01*
X88806884Y-92759901D01*
X88814729Y-92737734D01*
X88828066Y-92683217D01*
X88845570Y-92602480D01*
X88865917Y-92501650D01*
X88887782Y-92386856D01*
X88889571Y-92377178D01*
X88911504Y-92258904D01*
X88931640Y-92151542D01*
X88948680Y-92061917D01*
X88961328Y-91996851D01*
X88968284Y-91963168D01*
X88968406Y-91962654D01*
X88972639Y-91948325D01*
X88980871Y-91937507D01*
X88998033Y-91929706D01*
X89029058Y-91924429D01*
X89078878Y-91921182D01*
X89152424Y-91919472D01*
X89254629Y-91918807D01*
X89390425Y-91918693D01*
X89408000Y-91918692D01*
X89547878Y-91918776D01*
G37*
X89547878Y-91918776D02*
X89653612Y-91919355D01*
X89730132Y-91920922D01*
X89782372Y-91923972D01*
X89815263Y-91928996D01*
X89833737Y-91936489D01*
X89842727Y-91946944D01*
X89847163Y-91960853D01*
X89847594Y-91962654D01*
X89854333Y-91995145D01*
X89866808Y-92059252D01*
X89883719Y-92148151D01*
X89903771Y-92255019D01*
X89925664Y-92373033D01*
X89926429Y-92377178D01*
X89948359Y-92492831D01*
X89968877Y-92595014D01*
X89986659Y-92677598D01*
X90000381Y-92734456D01*
X90008718Y-92759458D01*
X90009116Y-92759901D01*
X90033677Y-92772110D01*
X90084315Y-92792456D01*
X90150095Y-92816545D01*
X90150461Y-92816674D01*
X90233317Y-92847818D01*
X90331000Y-92887491D01*
X90423077Y-92927381D01*
X90427434Y-92929353D01*
X90577407Y-92997420D01*
X90909498Y-92770639D01*
X91011374Y-92701504D01*
X91103657Y-92639697D01*
X91181003Y-92588733D01*
X91238064Y-92552127D01*
X91269495Y-92533394D01*
X91272479Y-92532004D01*
X91295321Y-92538190D01*
X91337982Y-92568035D01*
X91402128Y-92622947D01*
X91489421Y-92704334D01*
X91578535Y-92790922D01*
X91664441Y-92876247D01*
X91741327Y-92954108D01*
X91804564Y-93019697D01*
X91849523Y-93068205D01*
X91871576Y-93094825D01*
X91872396Y-93096195D01*
X91874834Y-93114463D01*
X91865650Y-93144295D01*
X91842574Y-93189721D01*
X91803337Y-93254770D01*
X91745670Y-93343470D01*
X91668795Y-93457657D01*
X91600570Y-93558162D01*
X91539582Y-93648303D01*
X91489356Y-93722849D01*
X91453416Y-93776565D01*
X91435287Y-93804218D01*
X91434146Y-93806095D01*
X91436359Y-93832590D01*
X91453138Y-93884086D01*
X91481142Y-93950851D01*
X91491122Y-93972172D01*
X91534672Y-94067159D01*
X91581134Y-94174937D01*
X91618877Y-94268192D01*
X91646073Y-94337406D01*
X91667675Y-94390006D01*
X91680158Y-94417497D01*
X91681709Y-94419616D01*
X91704668Y-94423124D01*
X91758786Y-94432738D01*
X91836868Y-94447089D01*
X91931719Y-94464807D01*
X92036143Y-94484525D01*
X92142944Y-94504874D01*
X92244926Y-94524486D01*
X92334894Y-94541991D01*
X92405653Y-94556022D01*
X92450006Y-94565209D01*
X92460885Y-94567807D01*
X92472122Y-94574218D01*
X92480605Y-94588697D01*
X92486714Y-94616133D01*
X92490832Y-94661411D01*
X92493341Y-94729420D01*
X92494621Y-94825047D01*
X92495054Y-94953180D01*
X92495077Y-95005701D01*
X92495077Y-95432845D01*
X92392500Y-95453091D01*
X92335431Y-95464070D01*
X92250269Y-95480095D01*
X92147372Y-95499233D01*
X92037096Y-95519551D01*
X92006615Y-95525132D01*
X91904855Y-95544917D01*
X91816205Y-95564373D01*
X91748108Y-95581697D01*
X91708004Y-95595088D01*
X91701323Y-95599079D01*
X91684919Y-95627342D01*
X91661399Y-95682109D01*
X91635316Y-95752588D01*
X91630142Y-95767769D01*
X91595956Y-95861896D01*
X91553523Y-95968101D01*
X91511997Y-96063473D01*
X91511792Y-96063916D01*
X91442640Y-96213525D01*
X91897512Y-96882617D01*
X91605500Y-97175116D01*
X91517180Y-97262170D01*
X91436625Y-97338909D01*
X91368360Y-97401237D01*
X91316908Y-97445056D01*
X91286794Y-97466270D01*
X91282474Y-97467616D01*
X91257111Y-97457016D01*
X91205358Y-97427547D01*
X91132868Y-97382705D01*
X91045294Y-97325984D01*
X90950612Y-97262462D01*
X90854516Y-97197668D01*
X90768837Y-97141287D01*
X90699016Y-97096788D01*
X90650494Y-97067639D01*
X90628782Y-97057308D01*
X90602293Y-97066050D01*
X90552062Y-97089087D01*
X90488451Y-97121631D01*
X90481708Y-97125249D01*
X90396046Y-97168210D01*
X90337306Y-97189279D01*
X90300772Y-97189503D01*
X90281731Y-97169928D01*
X90281620Y-97169654D01*
X90272102Y-97146472D01*
X90249403Y-97091441D01*
X90215282Y-97008822D01*
X90171500Y-96902872D01*
X90119816Y-96777852D01*
X90061992Y-96638020D01*
X90005991Y-96502637D01*
X89944447Y-96353234D01*
X89887939Y-96214832D01*
X89838161Y-96091673D01*
X89796806Y-95988002D01*
X89765568Y-95908059D01*
X89746141Y-95856088D01*
X89740154Y-95836692D01*
X89755168Y-95814443D01*
X89794439Y-95778982D01*
X89846807Y-95739887D01*
X89995941Y-95616245D01*
X90112511Y-95474522D01*
X90195118Y-95317704D01*
X90242366Y-95148775D01*
X90252857Y-94970722D01*
X90245231Y-94888539D01*
X90203682Y-94718031D01*
X90132123Y-94567459D01*
X90034995Y-94438309D01*
X89916734Y-94332064D01*
X89781780Y-94250210D01*
X89634571Y-94194232D01*
X89479544Y-94165615D01*
X89321139Y-94165844D01*
X89163794Y-94196405D01*
X89011946Y-94258782D01*
X88870035Y-94354460D01*
X88810803Y-94408572D01*
X88697203Y-94547520D01*
X88618106Y-94699361D01*
X88572986Y-94859667D01*
X88561316Y-95024012D01*
X88582569Y-95187971D01*
X88636220Y-95347118D01*
X88721740Y-95497025D01*
X88838605Y-95633267D01*
X88969193Y-95739887D01*
X89023588Y-95780642D01*
X89062014Y-95815718D01*
X89075846Y-95836726D01*
X89068603Y-95859635D01*
X89048005Y-95914365D01*
X89015746Y-95996672D01*
X88973521Y-96102315D01*
X88923023Y-96227050D01*
X88865948Y-96366636D01*
X88809854Y-96502670D01*
X88747967Y-96652201D01*
X88690644Y-96790767D01*
X88639644Y-96914107D01*
X88596727Y-97017964D01*
X88563653Y-97098080D01*
X88542181Y-97150195D01*
X88534225Y-97169654D01*
X88515429Y-97189423D01*
X88479074Y-97189365D01*
X88420479Y-97168441D01*
X88334968Y-97125613D01*
X88334292Y-97125249D01*
X88269907Y-97092012D01*
X88217861Y-97067802D01*
X88188512Y-97057404D01*
X88187217Y-97057308D01*
X88165124Y-97067855D01*
X88116348Y-97097184D01*
X88046331Y-97141827D01*
X87960514Y-97198314D01*
X87865388Y-97262462D01*
X87768540Y-97327411D01*
X87681253Y-97383896D01*
X87609181Y-97428421D01*
X87557977Y-97457490D01*
X87533526Y-97467616D01*
X87511010Y-97454307D01*
X87465742Y-97417112D01*
X87402244Y-97360128D01*
X87325039Y-97287449D01*
X87238651Y-97203171D01*
X87210399Y-97175016D01*
X86918287Y-96882416D01*
X87140631Y-96556104D01*
X87208202Y-96455897D01*
X87267507Y-96365963D01*
X87315217Y-96291510D01*
X87348007Y-96237751D01*
X87362548Y-96209894D01*
X87362974Y-96207912D01*
X87355308Y-96181655D01*
X87334689Y-96128837D01*
X87304685Y-96058310D01*
X87283625Y-96011093D01*
X87244248Y-95920694D01*
X87207165Y-95829366D01*
X87178415Y-95752200D01*
X87170605Y-95728692D01*
X87148417Y-95665916D01*
X87126727Y-95617411D01*
X87114813Y-95599079D01*
X87088523Y-95587859D01*
X87031142Y-95571954D01*
X86950118Y-95553167D01*
X86852895Y-95533299D01*
X86809385Y-95525132D01*
X86698896Y-95504829D01*
X86592916Y-95485170D01*
X86501801Y-95468088D01*
X86435908Y-95455518D01*
X86423500Y-95453091D01*
X86320923Y-95432845D01*
X86320923Y-95005701D01*
X86321153Y-94865246D01*
X86322099Y-94758979D01*
X86324141Y-94682013D01*
X86327662Y-94629460D01*
X86333043Y-94596433D01*
X86340666Y-94578045D01*
X86350912Y-94569408D01*
X86355115Y-94567807D01*
X86380470Y-94562127D01*
X86436484Y-94550795D01*
X86515964Y-94535179D01*
X86611712Y-94516647D01*
X86716533Y-94496569D01*
X86823232Y-94476312D01*
X86924613Y-94457246D01*
X87013479Y-94440739D01*
X87082637Y-94428159D01*
X87124889Y-94420875D01*
X87134290Y-94419616D01*
X87142807Y-94402763D01*
X87161660Y-94357870D01*
X87187324Y-94293430D01*
X87197123Y-94268192D01*
X87236648Y-94170686D01*
X87283192Y-94062959D01*
X87324877Y-93972172D01*
X87355550Y-93902753D01*
X87375956Y-93845710D01*
X87382768Y-93810777D01*
X87381682Y-93806095D01*
X87367285Y-93783991D01*
X87334412Y-93734831D01*
X87286590Y-93663848D01*
X87227348Y-93576278D01*
X87160215Y-93477357D01*
X87146941Y-93457830D01*
X87069046Y-93342140D01*
X87011787Y-93254044D01*
X86972881Y-93189486D01*
X86950044Y-93144411D01*
X86940994Y-93114763D01*
X86943448Y-93096485D01*
X86943511Y-93096369D01*
X86962827Y-93072361D01*
X87005551Y-93025947D01*
X87067051Y-92961937D01*
X87142698Y-92885145D01*
X87227861Y-92800382D01*
X87237465Y-92790922D01*
X87344790Y-92686989D01*
X87427615Y-92610675D01*
X87487605Y-92560571D01*
X87526423Y-92535270D01*
X87543520Y-92532004D01*
X87568473Y-92546250D01*
X87620255Y-92579156D01*
X87693520Y-92627208D01*
X87782920Y-92686890D01*
X87883111Y-92754688D01*
X87906501Y-92770639D01*
X88238593Y-92997420D01*
X88388565Y-92929353D01*
X88479770Y-92889685D01*
X88577669Y-92849791D01*
X88661831Y-92817983D01*
X88665538Y-92816674D01*
X88731369Y-92792576D01*
X88782116Y-92772200D01*
X88806842Y-92759936D01*
X88806884Y-92759901D01*
X88814729Y-92737734D01*
X88828066Y-92683217D01*
X88845570Y-92602480D01*
X88865917Y-92501650D01*
X88887782Y-92386856D01*
X88889571Y-92377178D01*
X88911504Y-92258904D01*
X88931640Y-92151542D01*
X88948680Y-92061917D01*
X88961328Y-91996851D01*
X88968284Y-91963168D01*
X88968406Y-91962654D01*
X88972639Y-91948325D01*
X88980871Y-91937507D01*
X88998033Y-91929706D01*
X89029058Y-91924429D01*
X89078878Y-91921182D01*
X89152424Y-91919472D01*
X89254629Y-91918807D01*
X89390425Y-91918693D01*
X89408000Y-91918692D01*
X89547878Y-91918776D01*
D13*
G04 #@! TO.C,A7*
X80578000Y-94996000D02*
X77918000Y-94996000D01*
X80578000Y-94996000D02*
X80578000Y-87316000D01*
X80578000Y-87316000D02*
X77918000Y-87316000D01*
X77918000Y-94996000D02*
X77918000Y-87316000D01*
X77918000Y-97596000D02*
X77918000Y-96266000D01*
X79248000Y-97596000D02*
X77918000Y-97596000D01*
G04 #@! TO.C,C1*
X99133000Y-103946354D02*
X98133000Y-103946354D01*
X98633000Y-103446354D02*
X98633000Y-104446354D01*
X96357000Y-114007000D02*
X95159000Y-114007000D01*
X96620000Y-113967000D02*
X94896000Y-113967000D01*
X96820000Y-113927000D02*
X94696000Y-113927000D01*
X96988000Y-113887000D02*
X94528000Y-113887000D01*
X97136000Y-113847000D02*
X94380000Y-113847000D01*
X97268000Y-113807000D02*
X94248000Y-113807000D01*
X97388000Y-113767000D02*
X94128000Y-113767000D01*
X97500000Y-113727000D02*
X94016000Y-113727000D01*
X97604000Y-113687000D02*
X93912000Y-113687000D01*
X97702000Y-113647000D02*
X93814000Y-113647000D01*
X97795000Y-113607000D02*
X93721000Y-113607000D01*
X97883000Y-113567000D02*
X93633000Y-113567000D01*
X97967000Y-113527000D02*
X93549000Y-113527000D01*
X98047000Y-113487000D02*
X93469000Y-113487000D01*
X98123000Y-113447000D02*
X93393000Y-113447000D01*
X98197000Y-113407000D02*
X93319000Y-113407000D01*
X98268000Y-113367000D02*
X93248000Y-113367000D01*
X98337000Y-113327000D02*
X93179000Y-113327000D01*
X98403000Y-113287000D02*
X93113000Y-113287000D01*
X98467000Y-113247000D02*
X93049000Y-113247000D01*
X98528000Y-113207000D02*
X92988000Y-113207000D01*
X98588000Y-113167000D02*
X92928000Y-113167000D01*
X98647000Y-113127000D02*
X92869000Y-113127000D01*
X98703000Y-113087000D02*
X92813000Y-113087000D01*
X98758000Y-113047000D02*
X92758000Y-113047000D01*
X98812000Y-113007000D02*
X92704000Y-113007000D01*
X98864000Y-112967000D02*
X92652000Y-112967000D01*
X98914000Y-112927000D02*
X92602000Y-112927000D01*
X98964000Y-112887000D02*
X92552000Y-112887000D01*
X99012000Y-112847000D02*
X92504000Y-112847000D01*
X99059000Y-112807000D02*
X92457000Y-112807000D01*
X99105000Y-112767000D02*
X92411000Y-112767000D01*
X99150000Y-112727000D02*
X92366000Y-112727000D01*
X99194000Y-112687000D02*
X92322000Y-112687000D01*
X94517000Y-112647000D02*
X92280000Y-112647000D01*
X99236000Y-112647000D02*
X96999000Y-112647000D01*
X94517000Y-112607000D02*
X92238000Y-112607000D01*
X99278000Y-112607000D02*
X96999000Y-112607000D01*
X94517000Y-112567000D02*
X92197000Y-112567000D01*
X99319000Y-112567000D02*
X96999000Y-112567000D01*
X94517000Y-112527000D02*
X92157000Y-112527000D01*
X99359000Y-112527000D02*
X96999000Y-112527000D01*
X94517000Y-112487000D02*
X92118000Y-112487000D01*
X99398000Y-112487000D02*
X96999000Y-112487000D01*
X94517000Y-112447000D02*
X92079000Y-112447000D01*
X99437000Y-112447000D02*
X96999000Y-112447000D01*
X94517000Y-112407000D02*
X92042000Y-112407000D01*
X99474000Y-112407000D02*
X96999000Y-112407000D01*
X94517000Y-112367000D02*
X92005000Y-112367000D01*
X99511000Y-112367000D02*
X96999000Y-112367000D01*
X94517000Y-112327000D02*
X91969000Y-112327000D01*
X99547000Y-112327000D02*
X96999000Y-112327000D01*
X94517000Y-112287000D02*
X91934000Y-112287000D01*
X99582000Y-112287000D02*
X96999000Y-112287000D01*
X94517000Y-112247000D02*
X91900000Y-112247000D01*
X99616000Y-112247000D02*
X96999000Y-112247000D01*
X94517000Y-112207000D02*
X91866000Y-112207000D01*
X99650000Y-112207000D02*
X96999000Y-112207000D01*
X94517000Y-112167000D02*
X91833000Y-112167000D01*
X99683000Y-112167000D02*
X96999000Y-112167000D01*
X94517000Y-112127000D02*
X91801000Y-112127000D01*
X99715000Y-112127000D02*
X96999000Y-112127000D01*
X94517000Y-112087000D02*
X91769000Y-112087000D01*
X99747000Y-112087000D02*
X96999000Y-112087000D01*
X94517000Y-112047000D02*
X91738000Y-112047000D01*
X99778000Y-112047000D02*
X96999000Y-112047000D01*
X94517000Y-112007000D02*
X91708000Y-112007000D01*
X99808000Y-112007000D02*
X96999000Y-112007000D01*
X94517000Y-111967000D02*
X91678000Y-111967000D01*
X99838000Y-111967000D02*
X96999000Y-111967000D01*
X94517000Y-111927000D02*
X91648000Y-111927000D01*
X99868000Y-111927000D02*
X96999000Y-111927000D01*
X94517000Y-111887000D02*
X91620000Y-111887000D01*
X99896000Y-111887000D02*
X96999000Y-111887000D01*
X94517000Y-111847000D02*
X91592000Y-111847000D01*
X99924000Y-111847000D02*
X96999000Y-111847000D01*
X94517000Y-111807000D02*
X91564000Y-111807000D01*
X99952000Y-111807000D02*
X96999000Y-111807000D01*
X94517000Y-111767000D02*
X91537000Y-111767000D01*
X99979000Y-111767000D02*
X96999000Y-111767000D01*
X94517000Y-111727000D02*
X91511000Y-111727000D01*
X100005000Y-111727000D02*
X96999000Y-111727000D01*
X94517000Y-111687000D02*
X91485000Y-111687000D01*
X100031000Y-111687000D02*
X96999000Y-111687000D01*
X94517000Y-111647000D02*
X91460000Y-111647000D01*
X100056000Y-111647000D02*
X96999000Y-111647000D01*
X94517000Y-111607000D02*
X91435000Y-111607000D01*
X100081000Y-111607000D02*
X96999000Y-111607000D01*
X94517000Y-111567000D02*
X91411000Y-111567000D01*
X100105000Y-111567000D02*
X96999000Y-111567000D01*
X94517000Y-111527000D02*
X91387000Y-111527000D01*
X100129000Y-111527000D02*
X96999000Y-111527000D01*
X94517000Y-111487000D02*
X91363000Y-111487000D01*
X100153000Y-111487000D02*
X96999000Y-111487000D01*
X94517000Y-111447000D02*
X91341000Y-111447000D01*
X100175000Y-111447000D02*
X96999000Y-111447000D01*
X94517000Y-111407000D02*
X91318000Y-111407000D01*
X100198000Y-111407000D02*
X96999000Y-111407000D01*
X94517000Y-111367000D02*
X91296000Y-111367000D01*
X100220000Y-111367000D02*
X96999000Y-111367000D01*
X94517000Y-111327000D02*
X91275000Y-111327000D01*
X100241000Y-111327000D02*
X96999000Y-111327000D01*
X94517000Y-111287000D02*
X91254000Y-111287000D01*
X100262000Y-111287000D02*
X96999000Y-111287000D01*
X94517000Y-111247000D02*
X91233000Y-111247000D01*
X100283000Y-111247000D02*
X96999000Y-111247000D01*
X94517000Y-111207000D02*
X91213000Y-111207000D01*
X100303000Y-111207000D02*
X96999000Y-111207000D01*
X94517000Y-111167000D02*
X91194000Y-111167000D01*
X100322000Y-111167000D02*
X96999000Y-111167000D01*
X94517000Y-111127000D02*
X91174000Y-111127000D01*
X100342000Y-111127000D02*
X96999000Y-111127000D01*
X94517000Y-111087000D02*
X91155000Y-111087000D01*
X100361000Y-111087000D02*
X96999000Y-111087000D01*
X94517000Y-111047000D02*
X91137000Y-111047000D01*
X100379000Y-111047000D02*
X96999000Y-111047000D01*
X94517000Y-111007000D02*
X91119000Y-111007000D01*
X100397000Y-111007000D02*
X96999000Y-111007000D01*
X94517000Y-110967000D02*
X91101000Y-110967000D01*
X100415000Y-110967000D02*
X96999000Y-110967000D01*
X94517000Y-110927000D02*
X91084000Y-110927000D01*
X100432000Y-110927000D02*
X96999000Y-110927000D01*
X94517000Y-110887000D02*
X91068000Y-110887000D01*
X100448000Y-110887000D02*
X96999000Y-110887000D01*
X94517000Y-110847000D02*
X91051000Y-110847000D01*
X100465000Y-110847000D02*
X96999000Y-110847000D01*
X94517000Y-110807000D02*
X91035000Y-110807000D01*
X100481000Y-110807000D02*
X96999000Y-110807000D01*
X94517000Y-110767000D02*
X91020000Y-110767000D01*
X100496000Y-110767000D02*
X96999000Y-110767000D01*
X94517000Y-110727000D02*
X91004000Y-110727000D01*
X100512000Y-110727000D02*
X96999000Y-110727000D01*
X94517000Y-110687000D02*
X90990000Y-110687000D01*
X100526000Y-110687000D02*
X96999000Y-110687000D01*
X94517000Y-110647000D02*
X90975000Y-110647000D01*
X100541000Y-110647000D02*
X96999000Y-110647000D01*
X94517000Y-110607000D02*
X90961000Y-110607000D01*
X100555000Y-110607000D02*
X96999000Y-110607000D01*
X94517000Y-110567000D02*
X90947000Y-110567000D01*
X100569000Y-110567000D02*
X96999000Y-110567000D01*
X94517000Y-110527000D02*
X90934000Y-110527000D01*
X100582000Y-110527000D02*
X96999000Y-110527000D01*
X94517000Y-110487000D02*
X90921000Y-110487000D01*
X100595000Y-110487000D02*
X96999000Y-110487000D01*
X94517000Y-110447000D02*
X90908000Y-110447000D01*
X100608000Y-110447000D02*
X96999000Y-110447000D01*
X94517000Y-110407000D02*
X90896000Y-110407000D01*
X100620000Y-110407000D02*
X96999000Y-110407000D01*
X94517000Y-110367000D02*
X90884000Y-110367000D01*
X100632000Y-110367000D02*
X96999000Y-110367000D01*
X94517000Y-110327000D02*
X90873000Y-110327000D01*
X100643000Y-110327000D02*
X96999000Y-110327000D01*
X94517000Y-110287000D02*
X90861000Y-110287000D01*
X100655000Y-110287000D02*
X96999000Y-110287000D01*
X94517000Y-110247000D02*
X90851000Y-110247000D01*
X100665000Y-110247000D02*
X96999000Y-110247000D01*
X94517000Y-110207000D02*
X90840000Y-110207000D01*
X100676000Y-110207000D02*
X96999000Y-110207000D01*
X100686000Y-110167000D02*
X90830000Y-110167000D01*
X100696000Y-110127000D02*
X90820000Y-110127000D01*
X100705000Y-110087000D02*
X90811000Y-110087000D01*
X100714000Y-110047000D02*
X90802000Y-110047000D01*
X100723000Y-110007000D02*
X90793000Y-110007000D01*
X100732000Y-109967000D02*
X90784000Y-109967000D01*
X100740000Y-109927000D02*
X90776000Y-109927000D01*
X100748000Y-109887000D02*
X90768000Y-109887000D01*
X100755000Y-109847000D02*
X90761000Y-109847000D01*
X100762000Y-109807000D02*
X90754000Y-109807000D01*
X100769000Y-109767000D02*
X90747000Y-109767000D01*
X100776000Y-109727000D02*
X90740000Y-109727000D01*
X100782000Y-109687000D02*
X90734000Y-109687000D01*
X100788000Y-109647000D02*
X90728000Y-109647000D01*
X100793000Y-109606000D02*
X90723000Y-109606000D01*
X100798000Y-109566000D02*
X90718000Y-109566000D01*
X100803000Y-109526000D02*
X90713000Y-109526000D01*
X100808000Y-109486000D02*
X90708000Y-109486000D01*
X100812000Y-109446000D02*
X90704000Y-109446000D01*
X100816000Y-109406000D02*
X90700000Y-109406000D01*
X100820000Y-109366000D02*
X90696000Y-109366000D01*
X100823000Y-109326000D02*
X90693000Y-109326000D01*
X100826000Y-109286000D02*
X90690000Y-109286000D01*
X100828000Y-109246000D02*
X90688000Y-109246000D01*
X100831000Y-109206000D02*
X90685000Y-109206000D01*
X100833000Y-109166000D02*
X90683000Y-109166000D01*
X100835000Y-109126000D02*
X90681000Y-109126000D01*
X100836000Y-109086000D02*
X90680000Y-109086000D01*
X100837000Y-109046000D02*
X90679000Y-109046000D01*
X100838000Y-109006000D02*
X90678000Y-109006000D01*
X100838000Y-108966000D02*
X90678000Y-108966000D01*
X100838000Y-108926000D02*
X90678000Y-108926000D01*
X100878000Y-108926000D02*
G75*
G03*
X100878000Y-108926000I-5120000J0D01*
G01*
G04 #@! TO.C,R1*
X75980936Y-107336000D02*
X77435064Y-107336000D01*
X75980936Y-105516000D02*
X77435064Y-105516000D01*
G04 #@! TO.C,D1*
X106622600Y-111921000D02*
X105112600Y-111921000D01*
X106622600Y-108220000D02*
X105112600Y-108220000D01*
X105112600Y-104950000D02*
X105112600Y-115190000D01*
X106622600Y-115190000D02*
X101981600Y-115190000D01*
X106622600Y-104950000D02*
X101981600Y-104950000D01*
X101981600Y-104950000D02*
X101981600Y-115190000D01*
X106622600Y-104950000D02*
X106622600Y-115190000D01*
G04 #@! TO.C,A6*
X79248000Y-77276000D02*
X77918000Y-77276000D01*
X77918000Y-77276000D02*
X77918000Y-75946000D01*
X77918000Y-74676000D02*
X77918000Y-66996000D01*
X80578000Y-66996000D02*
X77918000Y-66996000D01*
X80578000Y-74676000D02*
X80578000Y-66996000D01*
X80578000Y-74676000D02*
X77918000Y-74676000D01*
G04 #@! TO.C,A4*
X114808000Y-87316000D02*
X116138000Y-87316000D01*
X116138000Y-87316000D02*
X116138000Y-88646000D01*
X116138000Y-89916000D02*
X116138000Y-97596000D01*
X113478000Y-97596000D02*
X116138000Y-97596000D01*
X113478000Y-89916000D02*
X113478000Y-97596000D01*
X113478000Y-89916000D02*
X116138000Y-89916000D01*
G04 #@! TO.C,A2*
X114703001Y-46676000D02*
X116033001Y-46676000D01*
X116033001Y-46676000D02*
X116033001Y-48006000D01*
X116033001Y-49276000D02*
X116033001Y-56956000D01*
X113373001Y-56956000D02*
X116033001Y-56956000D01*
X113373001Y-49276000D02*
X113373001Y-56956000D01*
X113373001Y-49276000D02*
X116033001Y-49276000D01*
G04 #@! TO.C,A3*
X113478000Y-69596000D02*
X116138000Y-69596000D01*
X113478000Y-69596000D02*
X113478000Y-77276000D01*
X113478000Y-77276000D02*
X116138000Y-77276000D01*
X116138000Y-69596000D02*
X116138000Y-77276000D01*
X116138000Y-66996000D02*
X116138000Y-68326000D01*
X114808000Y-66996000D02*
X116138000Y-66996000D01*
G04 #@! TO.C,A5*
X80578000Y-54356000D02*
X77918000Y-54356000D01*
X80578000Y-54356000D02*
X80578000Y-46676000D01*
X80578000Y-46676000D02*
X77918000Y-46676000D01*
X77918000Y-54356000D02*
X77918000Y-46676000D01*
X77918000Y-56956000D02*
X77918000Y-55626000D01*
X79248000Y-56956000D02*
X77918000Y-56956000D01*
G04 #@! TO.C,J1*
X113258000Y-100906000D02*
X110658000Y-103756000D01*
X118958000Y-103756000D02*
X116408000Y-100906000D01*
X110658000Y-116606000D02*
X118958000Y-116606000D01*
X110658000Y-103756000D02*
X110658000Y-116606000D01*
X116408000Y-100906000D02*
X113258000Y-100906000D01*
X118958000Y-116606000D02*
X118958000Y-103756000D01*
D16*
G04 #@! TO.C,Z1*
X87038180Y-105023920D02*
X87038180Y-105483660D01*
X87038180Y-105483660D02*
X86961980Y-105483660D01*
X86961980Y-105483660D02*
X86961980Y-105023920D01*
X86961980Y-105023920D02*
X87038180Y-105023920D01*
X87038180Y-107825540D02*
X87038180Y-107360720D01*
X87038180Y-107360720D02*
X86961980Y-107360720D01*
X86961980Y-107360720D02*
X86961980Y-107825540D01*
X86961980Y-107825540D02*
X87038180Y-107825540D01*
X83348000Y-105026000D02*
X83748000Y-105026000D01*
X83348000Y-105026000D02*
X83348000Y-105426000D01*
X87848000Y-105026000D02*
X87448000Y-105026000D01*
X87848000Y-105026000D02*
X87848000Y-105426000D01*
X87848000Y-107826000D02*
X87848000Y-107426000D01*
X87848000Y-107826000D02*
X87448000Y-107826000D01*
X83348000Y-107826000D02*
X83748000Y-107826000D01*
X83348000Y-107826000D02*
X83348000Y-107426000D01*
D13*
G04 #@! TO.C,BZ1*
X107202000Y-94996000D02*
G75*
G03*
X107202000Y-94996000I-6100000J0D01*
G01*
G04 #@! TO.C,R2*
X74964936Y-38968000D02*
X76419064Y-38968000D01*
X74964936Y-40788000D02*
X76419064Y-40788000D01*
G04 #@! TO.C,R3*
X80552936Y-40788000D02*
X82007064Y-40788000D01*
X80552936Y-38968000D02*
X82007064Y-38968000D01*
G04 #@! TO.C,D2*
X73407000Y-38473000D02*
X77292000Y-38473000D01*
X73407000Y-36203000D02*
X73407000Y-38473000D01*
X77292000Y-36203000D02*
X73407000Y-36203000D01*
G04 #@! TO.C,D3*
X75108000Y-104767000D02*
X78993000Y-104767000D01*
X78993000Y-104767000D02*
X78993000Y-102497000D01*
X78993000Y-102497000D02*
X75108000Y-102497000D01*
G04 #@! TO.C,D4*
X78995000Y-38473000D02*
X82880000Y-38473000D01*
X78995000Y-36203000D02*
X78995000Y-38473000D01*
X82880000Y-36203000D02*
X78995000Y-36203000D01*
G04 #@! TO.C,J2*
X104852600Y-117856000D02*
G75*
G03*
X104852600Y-117856000I-1500000J0D01*
G01*
G04 #@! TO.C,J3*
X99798000Y-117831001D02*
G75*
G03*
X99798000Y-117831001I-1500000J0D01*
G01*
G04 #@! TO.C,J4*
X90678000Y-86166000D02*
X90678000Y-83506000D01*
X90678000Y-86166000D02*
X100898000Y-86166000D01*
X100898000Y-86166000D02*
X100898000Y-83506000D01*
X90678000Y-83506000D02*
X100898000Y-83506000D01*
X88078000Y-83506000D02*
X89408000Y-83506000D01*
X88078000Y-84836000D02*
X88078000Y-83506000D01*
G04 #@! TO.C,A1*
D11*
X96313714Y-55792666D02*
X96789904Y-55792666D01*
X96218476Y-56078380D02*
X96551809Y-55078380D01*
X96885142Y-56078380D01*
X97742285Y-56078380D02*
X97170857Y-56078380D01*
X97456571Y-56078380D02*
X97456571Y-55078380D01*
X97361333Y-55221238D01*
X97266095Y-55316476D01*
X97170857Y-55364095D01*
G04 #@! TO.C,A7*
X78533714Y-86272666D02*
X79009904Y-86272666D01*
X78438476Y-86558380D02*
X78771809Y-85558380D01*
X79105142Y-86558380D01*
X79343238Y-85558380D02*
X80009904Y-85558380D01*
X79581333Y-86558380D01*
G04 #@! TO.C,C1*
D17*
X99314000Y-108222142D02*
X99277714Y-108258428D01*
X99168857Y-108294714D01*
X99096285Y-108294714D01*
X98987428Y-108258428D01*
X98914857Y-108185857D01*
X98878571Y-108113285D01*
X98842285Y-107968142D01*
X98842285Y-107859285D01*
X98878571Y-107714142D01*
X98914857Y-107641571D01*
X98987428Y-107569000D01*
X99096285Y-107532714D01*
X99168857Y-107532714D01*
X99277714Y-107569000D01*
X99314000Y-107605285D01*
X100039714Y-108294714D02*
X99604285Y-108294714D01*
X99822000Y-108294714D02*
X99822000Y-107532714D01*
X99749428Y-107641571D01*
X99676857Y-107714142D01*
X99604285Y-107750428D01*
G04 #@! TO.C,R1*
D11*
X72985333Y-106878380D02*
X72652000Y-106402190D01*
X72413904Y-106878380D02*
X72413904Y-105878380D01*
X72794857Y-105878380D01*
X72890095Y-105926000D01*
X72937714Y-105973619D01*
X72985333Y-106068857D01*
X72985333Y-106211714D01*
X72937714Y-106306952D01*
X72890095Y-106354571D01*
X72794857Y-106402190D01*
X72413904Y-106402190D01*
X73937714Y-106878380D02*
X73366285Y-106878380D01*
X73652000Y-106878380D02*
X73652000Y-105878380D01*
X73556761Y-106021238D01*
X73461523Y-106116476D01*
X73366285Y-106164095D01*
G04 #@! TO.C,D1*
X102741504Y-110522380D02*
X102741504Y-109522380D01*
X102979600Y-109522380D01*
X103122457Y-109570000D01*
X103217695Y-109665238D01*
X103265314Y-109760476D01*
X103312933Y-109950952D01*
X103312933Y-110093809D01*
X103265314Y-110284285D01*
X103217695Y-110379523D01*
X103122457Y-110474761D01*
X102979600Y-110522380D01*
X102741504Y-110522380D01*
X104265314Y-110522380D02*
X103693885Y-110522380D01*
X103979600Y-110522380D02*
X103979600Y-109522380D01*
X103884361Y-109665238D01*
X103789123Y-109760476D01*
X103693885Y-109808095D01*
G04 #@! TO.C,A6*
X78533714Y-65952666D02*
X79009904Y-65952666D01*
X78438476Y-66238380D02*
X78771809Y-65238380D01*
X79105142Y-66238380D01*
X79867047Y-65238380D02*
X79676571Y-65238380D01*
X79581333Y-65286000D01*
X79533714Y-65333619D01*
X79438476Y-65476476D01*
X79390857Y-65666952D01*
X79390857Y-66047904D01*
X79438476Y-66143142D01*
X79486095Y-66190761D01*
X79581333Y-66238380D01*
X79771809Y-66238380D01*
X79867047Y-66190761D01*
X79914666Y-66143142D01*
X79962285Y-66047904D01*
X79962285Y-65809809D01*
X79914666Y-65714571D01*
X79867047Y-65666952D01*
X79771809Y-65619333D01*
X79581333Y-65619333D01*
X79486095Y-65666952D01*
X79438476Y-65714571D01*
X79390857Y-65809809D01*
G04 #@! TO.C,A4*
X114093714Y-86042666D02*
X114569904Y-86042666D01*
X113998476Y-86328380D02*
X114331809Y-85328380D01*
X114665142Y-86328380D01*
X115427047Y-85661714D02*
X115427047Y-86328380D01*
X115188952Y-85280761D02*
X114950857Y-85995047D01*
X115569904Y-85995047D01*
G04 #@! TO.C,A2*
X113988715Y-45402666D02*
X114464905Y-45402666D01*
X113893477Y-45688380D02*
X114226810Y-44688380D01*
X114560143Y-45688380D01*
X114845858Y-44783619D02*
X114893477Y-44736000D01*
X114988715Y-44688380D01*
X115226810Y-44688380D01*
X115322048Y-44736000D01*
X115369667Y-44783619D01*
X115417286Y-44878857D01*
X115417286Y-44974095D01*
X115369667Y-45116952D01*
X114798239Y-45688380D01*
X115417286Y-45688380D01*
G04 #@! TO.C,A3*
X114093714Y-65722666D02*
X114569904Y-65722666D01*
X113998476Y-66008380D02*
X114331809Y-65008380D01*
X114665142Y-66008380D01*
X114903238Y-65008380D02*
X115522285Y-65008380D01*
X115188952Y-65389333D01*
X115331809Y-65389333D01*
X115427047Y-65436952D01*
X115474666Y-65484571D01*
X115522285Y-65579809D01*
X115522285Y-65817904D01*
X115474666Y-65913142D01*
X115427047Y-65960761D01*
X115331809Y-66008380D01*
X115046095Y-66008380D01*
X114950857Y-65960761D01*
X114903238Y-65913142D01*
G04 #@! TO.C,A5*
X78533714Y-45632666D02*
X79009904Y-45632666D01*
X78438476Y-45918380D02*
X78771809Y-44918380D01*
X79105142Y-45918380D01*
X79914666Y-44918380D02*
X79438476Y-44918380D01*
X79390857Y-45394571D01*
X79438476Y-45346952D01*
X79533714Y-45299333D01*
X79771809Y-45299333D01*
X79867047Y-45346952D01*
X79914666Y-45394571D01*
X79962285Y-45489809D01*
X79962285Y-45727904D01*
X79914666Y-45823142D01*
X79867047Y-45870761D01*
X79771809Y-45918380D01*
X79533714Y-45918380D01*
X79438476Y-45870761D01*
X79390857Y-45823142D01*
G04 #@! TO.C,J1*
X111426666Y-115276380D02*
X111426666Y-115990666D01*
X111379047Y-116133523D01*
X111283809Y-116228761D01*
X111140952Y-116276380D01*
X111045714Y-116276380D01*
X112426666Y-116276380D02*
X111855238Y-116276380D01*
X112140952Y-116276380D02*
X112140952Y-115276380D01*
X112045714Y-115419238D01*
X111950476Y-115514476D01*
X111855238Y-115562095D01*
G04 #@! TO.C,Z1*
X84788476Y-103338380D02*
X85455142Y-103338380D01*
X84788476Y-104338380D01*
X85455142Y-104338380D01*
X86359904Y-104338380D02*
X85788476Y-104338380D01*
X86074190Y-104338380D02*
X86074190Y-103338380D01*
X85978952Y-103481238D01*
X85883714Y-103576476D01*
X85788476Y-103624095D01*
G04 #@! TO.C,BZ1*
X104531047Y-97607428D02*
X105292952Y-97607428D01*
X104912000Y-97988380D02*
X104912000Y-97226476D01*
G04 #@! TO.C,R2*
X75525333Y-42362380D02*
X75192000Y-41886190D01*
X74953904Y-42362380D02*
X74953904Y-41362380D01*
X75334857Y-41362380D01*
X75430095Y-41410000D01*
X75477714Y-41457619D01*
X75525333Y-41552857D01*
X75525333Y-41695714D01*
X75477714Y-41790952D01*
X75430095Y-41838571D01*
X75334857Y-41886190D01*
X74953904Y-41886190D01*
X75906285Y-41457619D02*
X75953904Y-41410000D01*
X76049142Y-41362380D01*
X76287238Y-41362380D01*
X76382476Y-41410000D01*
X76430095Y-41457619D01*
X76477714Y-41552857D01*
X76477714Y-41648095D01*
X76430095Y-41790952D01*
X75858666Y-42362380D01*
X76477714Y-42362380D01*
G04 #@! TO.C,R3*
X81113333Y-42362380D02*
X80780000Y-41886190D01*
X80541904Y-42362380D02*
X80541904Y-41362380D01*
X80922857Y-41362380D01*
X81018095Y-41410000D01*
X81065714Y-41457619D01*
X81113333Y-41552857D01*
X81113333Y-41695714D01*
X81065714Y-41790952D01*
X81018095Y-41838571D01*
X80922857Y-41886190D01*
X80541904Y-41886190D01*
X81446666Y-41362380D02*
X82065714Y-41362380D01*
X81732380Y-41743333D01*
X81875238Y-41743333D01*
X81970476Y-41790952D01*
X82018095Y-41838571D01*
X82065714Y-41933809D01*
X82065714Y-42171904D01*
X82018095Y-42267142D01*
X81970476Y-42314761D01*
X81875238Y-42362380D01*
X81589523Y-42362380D01*
X81494285Y-42314761D01*
X81446666Y-42267142D01*
G04 #@! TO.C,J4*
X86304666Y-84288380D02*
X86304666Y-85002666D01*
X86257047Y-85145523D01*
X86161809Y-85240761D01*
X86018952Y-85288380D01*
X85923714Y-85288380D01*
X87209428Y-84621714D02*
X87209428Y-85288380D01*
X86971333Y-84240761D02*
X86733238Y-84955047D01*
X87352285Y-84955047D01*
G04 #@! TD*
%LPC*%
D13*
X72263000Y-109855000D02*
X72263000Y-112395000D01*
D10*
X76136500Y-111741857D02*
X76100214Y-111705571D01*
X76027642Y-111669285D01*
X75955071Y-111669285D01*
X75882500Y-111705571D01*
X75846214Y-111741857D01*
X75809928Y-111814428D01*
X75809928Y-111887000D01*
X75846214Y-111959571D01*
X75882500Y-111995857D01*
X75955071Y-112032142D01*
X76027642Y-112032142D01*
X76100214Y-111995857D01*
X76136500Y-111959571D01*
X76136500Y-111669285D02*
X76136500Y-111959571D01*
X76172785Y-111995857D01*
X76209071Y-111995857D01*
X76281642Y-111959571D01*
X76317928Y-111887000D01*
X76317928Y-111705571D01*
X76245357Y-111596714D01*
X76136500Y-111524142D01*
X75991357Y-111487857D01*
X75846214Y-111524142D01*
X75737357Y-111596714D01*
X75664785Y-111705571D01*
X75628500Y-111850714D01*
X75664785Y-111995857D01*
X75737357Y-112104714D01*
X75846214Y-112177285D01*
X75991357Y-112213571D01*
X76136500Y-112177285D01*
X76245357Y-112104714D01*
X76644500Y-111342714D02*
X76644500Y-111959571D01*
X76680785Y-112032142D01*
X76717071Y-112068428D01*
X76789642Y-112104714D01*
X76934785Y-112104714D01*
X77007357Y-112068428D01*
X77043642Y-112032142D01*
X77079928Y-111959571D01*
X77079928Y-111342714D01*
X77442785Y-112104714D02*
X77442785Y-111342714D01*
X77696785Y-111887000D01*
X77950785Y-111342714D01*
X77950785Y-112104714D01*
X78640214Y-112104714D02*
X78640214Y-111705571D01*
X78603928Y-111633000D01*
X78531357Y-111596714D01*
X78386214Y-111596714D01*
X78313642Y-111633000D01*
X78640214Y-112068428D02*
X78567642Y-112104714D01*
X78386214Y-112104714D01*
X78313642Y-112068428D01*
X78277357Y-111995857D01*
X78277357Y-111923285D01*
X78313642Y-111850714D01*
X78386214Y-111814428D01*
X78567642Y-111814428D01*
X78640214Y-111778142D01*
X78966785Y-112068428D02*
X79039357Y-112104714D01*
X79184500Y-112104714D01*
X79257071Y-112068428D01*
X79293357Y-111995857D01*
X79293357Y-111959571D01*
X79257071Y-111887000D01*
X79184500Y-111850714D01*
X79075642Y-111850714D01*
X79003071Y-111814428D01*
X78966785Y-111741857D01*
X78966785Y-111705571D01*
X79003071Y-111633000D01*
X79075642Y-111596714D01*
X79184500Y-111596714D01*
X79257071Y-111633000D01*
X79583642Y-112068428D02*
X79656214Y-112104714D01*
X79801357Y-112104714D01*
X79873928Y-112068428D01*
X79910214Y-111995857D01*
X79910214Y-111959571D01*
X79873928Y-111887000D01*
X79801357Y-111850714D01*
X79692500Y-111850714D01*
X79619928Y-111814428D01*
X79583642Y-111741857D01*
X79583642Y-111705571D01*
X79619928Y-111633000D01*
X79692500Y-111596714D01*
X79801357Y-111596714D01*
X79873928Y-111633000D01*
X80200500Y-111887000D02*
X80563357Y-111887000D01*
X80127928Y-112104714D02*
X80381928Y-111342714D01*
X80635928Y-112104714D01*
X80889928Y-112104714D02*
X80889928Y-111596714D01*
X80889928Y-111669285D02*
X80926214Y-111633000D01*
X80998785Y-111596714D01*
X81107642Y-111596714D01*
X81180214Y-111633000D01*
X81216500Y-111705571D01*
X81216500Y-112104714D01*
X81216500Y-111705571D02*
X81252785Y-111633000D01*
X81325357Y-111596714D01*
X81434214Y-111596714D01*
X81506785Y-111633000D01*
X81543071Y-111705571D01*
X81543071Y-112104714D01*
X81905928Y-112104714D02*
X81905928Y-111342714D01*
X82232500Y-112104714D02*
X82232500Y-111705571D01*
X82196214Y-111633000D01*
X82123642Y-111596714D01*
X82014785Y-111596714D01*
X81942214Y-111633000D01*
X81905928Y-111669285D01*
X82885642Y-112068428D02*
X82813071Y-112104714D01*
X82667928Y-112104714D01*
X82595357Y-112068428D01*
X82559071Y-111995857D01*
X82559071Y-111705571D01*
X82595357Y-111633000D01*
X82667928Y-111596714D01*
X82813071Y-111596714D01*
X82885642Y-111633000D01*
X82921928Y-111705571D01*
X82921928Y-111778142D01*
X82559071Y-111850714D01*
X83248500Y-112104714D02*
X83248500Y-111596714D01*
X83248500Y-111741857D02*
X83284785Y-111669285D01*
X83321071Y-111633000D01*
X83393642Y-111596714D01*
X83466214Y-111596714D01*
X83683928Y-112068428D02*
X83756500Y-112104714D01*
X83901642Y-112104714D01*
X83974214Y-112068428D01*
X84010500Y-111995857D01*
X84010500Y-111959571D01*
X83974214Y-111887000D01*
X83901642Y-111850714D01*
X83792785Y-111850714D01*
X83720214Y-111814428D01*
X83683928Y-111741857D01*
X83683928Y-111705571D01*
X83720214Y-111633000D01*
X83792785Y-111596714D01*
X83901642Y-111596714D01*
X83974214Y-111633000D01*
X84228214Y-111596714D02*
X84518500Y-111596714D01*
X84337071Y-111342714D02*
X84337071Y-111995857D01*
X84373357Y-112068428D01*
X84445928Y-112104714D01*
X84518500Y-112104714D01*
X84772500Y-112104714D02*
X84772500Y-111342714D01*
X85026500Y-111887000D01*
X85280500Y-111342714D01*
X85280500Y-112104714D01*
X86006214Y-111342714D02*
X85643357Y-111342714D01*
X85607071Y-111705571D01*
X85643357Y-111669285D01*
X85715928Y-111633000D01*
X85897357Y-111633000D01*
X85969928Y-111669285D01*
X86006214Y-111705571D01*
X86042500Y-111778142D01*
X86042500Y-111959571D01*
X86006214Y-112032142D01*
X85969928Y-112068428D01*
X85897357Y-112104714D01*
X85715928Y-112104714D01*
X85643357Y-112068428D01*
X85607071Y-112032142D01*
X75737357Y-110326714D02*
X76281642Y-110326714D01*
X75955071Y-110000142D02*
X75737357Y-110979857D01*
X76209071Y-110653285D02*
X75664785Y-110653285D01*
X75991357Y-110979857D02*
X76209071Y-110000142D01*
X76535642Y-110072714D02*
X76535642Y-110689571D01*
X76571928Y-110762142D01*
X76608214Y-110798428D01*
X76680785Y-110834714D01*
X76825928Y-110834714D01*
X76898500Y-110798428D01*
X76934785Y-110762142D01*
X76971071Y-110689571D01*
X76971071Y-110072714D01*
X77333928Y-110834714D02*
X77333928Y-110072714D01*
X77587928Y-110617000D01*
X77841928Y-110072714D01*
X77841928Y-110834714D01*
X78531357Y-110834714D02*
X78531357Y-110435571D01*
X78495071Y-110363000D01*
X78422500Y-110326714D01*
X78277357Y-110326714D01*
X78204785Y-110363000D01*
X78531357Y-110798428D02*
X78458785Y-110834714D01*
X78277357Y-110834714D01*
X78204785Y-110798428D01*
X78168500Y-110725857D01*
X78168500Y-110653285D01*
X78204785Y-110580714D01*
X78277357Y-110544428D01*
X78458785Y-110544428D01*
X78531357Y-110508142D01*
X78857928Y-110798428D02*
X78930500Y-110834714D01*
X79075642Y-110834714D01*
X79148214Y-110798428D01*
X79184500Y-110725857D01*
X79184500Y-110689571D01*
X79148214Y-110617000D01*
X79075642Y-110580714D01*
X78966785Y-110580714D01*
X78894214Y-110544428D01*
X78857928Y-110471857D01*
X78857928Y-110435571D01*
X78894214Y-110363000D01*
X78966785Y-110326714D01*
X79075642Y-110326714D01*
X79148214Y-110363000D01*
X79474785Y-110798428D02*
X79547357Y-110834714D01*
X79692500Y-110834714D01*
X79765071Y-110798428D01*
X79801357Y-110725857D01*
X79801357Y-110689571D01*
X79765071Y-110617000D01*
X79692500Y-110580714D01*
X79583642Y-110580714D01*
X79511071Y-110544428D01*
X79474785Y-110471857D01*
X79474785Y-110435571D01*
X79511071Y-110363000D01*
X79583642Y-110326714D01*
X79692500Y-110326714D01*
X79765071Y-110363000D01*
X80091642Y-110617000D02*
X80454500Y-110617000D01*
X80019071Y-110834714D02*
X80273071Y-110072714D01*
X80527071Y-110834714D01*
X80781071Y-110834714D02*
X80781071Y-110326714D01*
X80781071Y-110399285D02*
X80817357Y-110363000D01*
X80889928Y-110326714D01*
X80998785Y-110326714D01*
X81071357Y-110363000D01*
X81107642Y-110435571D01*
X81107642Y-110834714D01*
X81107642Y-110435571D02*
X81143928Y-110363000D01*
X81216500Y-110326714D01*
X81325357Y-110326714D01*
X81397928Y-110363000D01*
X81434214Y-110435571D01*
X81434214Y-110834714D01*
X81797071Y-110834714D02*
X81797071Y-110072714D01*
X82123642Y-110834714D02*
X82123642Y-110435571D01*
X82087357Y-110363000D01*
X82014785Y-110326714D01*
X81905928Y-110326714D01*
X81833357Y-110363000D01*
X81797071Y-110399285D01*
X82776785Y-110798428D02*
X82704214Y-110834714D01*
X82559071Y-110834714D01*
X82486500Y-110798428D01*
X82450214Y-110725857D01*
X82450214Y-110435571D01*
X82486500Y-110363000D01*
X82559071Y-110326714D01*
X82704214Y-110326714D01*
X82776785Y-110363000D01*
X82813071Y-110435571D01*
X82813071Y-110508142D01*
X82450214Y-110580714D01*
X83139642Y-110834714D02*
X83139642Y-110326714D01*
X83139642Y-110471857D02*
X83175928Y-110399285D01*
X83212214Y-110363000D01*
X83284785Y-110326714D01*
X83357357Y-110326714D01*
X83575071Y-110798428D02*
X83647642Y-110834714D01*
X83792785Y-110834714D01*
X83865357Y-110798428D01*
X83901642Y-110725857D01*
X83901642Y-110689571D01*
X83865357Y-110617000D01*
X83792785Y-110580714D01*
X83683928Y-110580714D01*
X83611357Y-110544428D01*
X83575071Y-110471857D01*
X83575071Y-110435571D01*
X83611357Y-110363000D01*
X83683928Y-110326714D01*
X83792785Y-110326714D01*
X83865357Y-110363000D01*
X84119357Y-110326714D02*
X84409642Y-110326714D01*
X84228214Y-110072714D02*
X84228214Y-110725857D01*
X84264500Y-110798428D01*
X84337071Y-110834714D01*
X84409642Y-110834714D01*
X84663642Y-110834714D02*
X84663642Y-110072714D01*
X84917642Y-110617000D01*
X85171642Y-110072714D01*
X85171642Y-110834714D01*
X85897357Y-110072714D02*
X85534500Y-110072714D01*
X85498214Y-110435571D01*
X85534500Y-110399285D01*
X85607071Y-110363000D01*
X85788500Y-110363000D01*
X85861071Y-110399285D01*
X85897357Y-110435571D01*
X85933642Y-110508142D01*
X85933642Y-110689571D01*
X85897357Y-110762142D01*
X85861071Y-110798428D01*
X85788500Y-110834714D01*
X85607071Y-110834714D01*
X85534500Y-110798428D01*
X85498214Y-110762142D01*
D15*
G04 #@! TO.C,G\u002A\u002A\u002A*
G36*
X87083612Y-113054282D02*
G01*
X87668964Y-113157303D01*
X88241071Y-113319947D01*
X88795001Y-113541798D01*
X88915875Y-113599463D01*
X89448188Y-113895072D01*
X89939894Y-114236601D01*
X90389131Y-114620243D01*
X90794037Y-115042193D01*
X91152750Y-115498647D01*
X91463408Y-115985799D01*
X91724150Y-116499843D01*
X91933114Y-117036975D01*
X92088437Y-117593389D01*
X92188259Y-118165280D01*
X92230716Y-118748843D01*
X92213948Y-119340272D01*
X92136093Y-119935763D01*
X92101485Y-120110250D01*
X91948138Y-120679889D01*
X91738530Y-121226938D01*
X91476295Y-121747776D01*
X91165066Y-122238779D01*
X90808477Y-122696328D01*
X90410160Y-123116799D01*
X89973750Y-123496572D01*
X89502880Y-123832025D01*
X89001183Y-124119536D01*
X88472293Y-124355483D01*
X87919843Y-124536246D01*
X87580822Y-124616253D01*
X87187201Y-124680987D01*
X86772362Y-124722364D01*
X86361194Y-124738741D01*
X85978586Y-124728478D01*
X85931375Y-124725033D01*
X85315753Y-124645816D01*
X84723030Y-124507641D01*
X84154560Y-124311079D01*
X83611695Y-124056699D01*
X83095788Y-123745072D01*
X82608193Y-123376767D01*
X82489986Y-123275117D01*
X82112799Y-122907512D01*
X81761307Y-122495945D01*
X81444365Y-122053014D01*
X81170827Y-121591316D01*
X80949547Y-121123448D01*
X80912634Y-121031000D01*
X80715626Y-120437978D01*
X80581630Y-119842268D01*
X80510570Y-119245878D01*
X80502369Y-118650816D01*
X80556953Y-118059090D01*
X80674246Y-117472708D01*
X80854171Y-116893678D01*
X81089537Y-116338730D01*
X81180415Y-116172656D01*
X82329705Y-116172656D01*
X82339407Y-116244272D01*
X82372186Y-116309373D01*
X82436617Y-116392871D01*
X82452329Y-116411887D01*
X82527795Y-116514514D01*
X82588235Y-116617391D01*
X82614861Y-116681250D01*
X82622899Y-116731296D01*
X82635633Y-116838263D01*
X82652495Y-116995790D01*
X82672914Y-117197517D01*
X82696320Y-117437083D01*
X82722142Y-117708128D01*
X82749812Y-118004291D01*
X82778758Y-118319212D01*
X82808410Y-118646531D01*
X82838199Y-118979887D01*
X82867555Y-119312919D01*
X82895907Y-119639267D01*
X82922685Y-119952570D01*
X82947320Y-120246469D01*
X82969241Y-120514602D01*
X82987878Y-120750610D01*
X83002661Y-120948131D01*
X83013020Y-121100805D01*
X83016690Y-121164610D01*
X83024331Y-121323668D01*
X83026616Y-121433265D01*
X83021666Y-121507346D01*
X83007598Y-121559855D01*
X82982535Y-121604735D01*
X82951694Y-121646628D01*
X82856036Y-121798429D01*
X82815122Y-121935023D01*
X82819207Y-122038732D01*
X82832976Y-122096984D01*
X82857501Y-122127860D01*
X82909726Y-122140051D01*
X83006596Y-122142245D01*
X83021069Y-122142250D01*
X83134506Y-122137918D01*
X83280283Y-122126185D01*
X83443911Y-122108942D01*
X83610904Y-122088084D01*
X83766774Y-122065501D01*
X83897034Y-122043086D01*
X83987195Y-122022732D01*
X84016054Y-122012277D01*
X84058774Y-121957451D01*
X84074184Y-121868959D01*
X84059941Y-121771522D01*
X84042757Y-121730448D01*
X83999452Y-121682397D01*
X83920428Y-121619552D01*
X83851377Y-121573537D01*
X83759245Y-121507863D01*
X83689576Y-121441817D01*
X83664098Y-121403616D01*
X83640409Y-121313734D01*
X83615376Y-121169548D01*
X83589979Y-120980208D01*
X83565197Y-120754866D01*
X83542009Y-120502677D01*
X83521397Y-120232790D01*
X83504339Y-119954359D01*
X83500139Y-119872125D01*
X83483510Y-119528883D01*
X83469915Y-119243847D01*
X83459196Y-119011799D01*
X83451193Y-118827526D01*
X83445748Y-118685812D01*
X83442702Y-118581441D01*
X83441896Y-118509199D01*
X83443172Y-118463871D01*
X83446370Y-118440240D01*
X83451332Y-118433093D01*
X83456402Y-118435677D01*
X83472844Y-118470093D01*
X83508338Y-118557321D01*
X83560258Y-118690485D01*
X83625979Y-118862712D01*
X83702878Y-119067125D01*
X83788328Y-119296850D01*
X83874023Y-119529510D01*
X83966300Y-119778792D01*
X84053895Y-120010861D01*
X84133961Y-120218518D01*
X84203654Y-120394564D01*
X84260127Y-120531799D01*
X84300534Y-120623026D01*
X84320929Y-120659973D01*
X84390702Y-120696971D01*
X84496197Y-120710684D01*
X84614783Y-120702873D01*
X84723826Y-120675295D01*
X84800697Y-120629710D01*
X84807469Y-120622158D01*
X84831588Y-120567631D01*
X84863139Y-120458696D01*
X84900455Y-120303790D01*
X84941868Y-120111350D01*
X84985711Y-119889812D01*
X85030317Y-119647613D01*
X85074018Y-119393191D01*
X85115147Y-119134982D01*
X85152037Y-118881422D01*
X85153332Y-118872000D01*
X85185652Y-118640231D01*
X85211898Y-118466104D01*
X85233913Y-118344255D01*
X85253543Y-118269321D01*
X85272631Y-118235938D01*
X85293021Y-118238743D01*
X85316557Y-118272373D01*
X85341727Y-118324065D01*
X85357907Y-118369327D01*
X85373099Y-118434649D01*
X85387778Y-118525161D01*
X85402416Y-118645996D01*
X85417487Y-118802285D01*
X85433465Y-118999160D01*
X85450825Y-119241753D01*
X85470039Y-119535194D01*
X85491582Y-119884617D01*
X85502193Y-120062003D01*
X85521036Y-120377029D01*
X85536401Y-120634651D01*
X85548121Y-120840880D01*
X85556032Y-121001725D01*
X85559967Y-121123196D01*
X85559760Y-121211303D01*
X85555247Y-121272056D01*
X85546261Y-121311464D01*
X85532636Y-121335538D01*
X85514208Y-121350288D01*
X85490809Y-121361723D01*
X85466027Y-121373789D01*
X85349508Y-121446543D01*
X85282469Y-121519303D01*
X85253151Y-121608858D01*
X85248750Y-121683962D01*
X85256265Y-121787755D01*
X85275099Y-121873829D01*
X85283525Y-121893903D01*
X85295188Y-121912310D01*
X85312842Y-121926770D01*
X85343408Y-121937664D01*
X85393807Y-121945374D01*
X85470961Y-121950280D01*
X85581791Y-121952762D01*
X85733218Y-121953203D01*
X85932164Y-121951983D01*
X86185550Y-121949483D01*
X86275713Y-121948513D01*
X87233125Y-121938144D01*
X87439500Y-122052464D01*
X87551889Y-122109138D01*
X87673273Y-122157328D01*
X87818332Y-122201714D01*
X88001747Y-122246976D01*
X88153875Y-122280221D01*
X88310323Y-122295664D01*
X88507536Y-122283091D01*
X88753209Y-122241991D01*
X88764111Y-122239755D01*
X89019361Y-122169758D01*
X89275898Y-122068095D01*
X89519724Y-121942526D01*
X89736841Y-121800809D01*
X89913248Y-121650703D01*
X89995844Y-121557081D01*
X90065769Y-121438727D01*
X90138314Y-121267337D01*
X90210016Y-121053086D01*
X90277412Y-120806145D01*
X90328227Y-120580588D01*
X90355562Y-120436338D01*
X90374160Y-120305753D01*
X90385171Y-120171741D01*
X90389747Y-120017206D01*
X90389038Y-119825054D01*
X90387021Y-119707463D01*
X90376375Y-119173625D01*
X90217727Y-118872000D01*
X90036974Y-118581661D01*
X89830078Y-118347671D01*
X89598063Y-118171119D01*
X89514921Y-118125018D01*
X89424717Y-118082324D01*
X89343531Y-118054012D01*
X89253157Y-118036540D01*
X89135389Y-118026367D01*
X88975262Y-118020049D01*
X88566149Y-118033389D01*
X88161893Y-118095153D01*
X88014274Y-118131003D01*
X87938174Y-118151594D01*
X87960990Y-117810989D01*
X87980122Y-117564458D01*
X88000863Y-117376829D01*
X88023993Y-117243507D01*
X88050297Y-117159899D01*
X88078244Y-117122763D01*
X88120270Y-117115605D01*
X88217352Y-117109096D01*
X88361046Y-117103486D01*
X88542907Y-117099026D01*
X88754495Y-117095963D01*
X88987363Y-117094548D01*
X89034937Y-117094486D01*
X89300782Y-117094108D01*
X89510406Y-117092988D01*
X89671088Y-117090675D01*
X89790107Y-117086717D01*
X89874741Y-117080662D01*
X89932269Y-117072060D01*
X89969970Y-117060458D01*
X89995123Y-117045405D01*
X90007610Y-117034139D01*
X90041077Y-116975944D01*
X90080944Y-116868659D01*
X90123721Y-116725920D01*
X90165917Y-116561361D01*
X90204043Y-116388619D01*
X90234611Y-116221329D01*
X90254129Y-116073127D01*
X90254466Y-116069564D01*
X90259580Y-115924178D01*
X90237006Y-115830595D01*
X90178656Y-115780220D01*
X90076442Y-115764456D01*
X89972242Y-115769612D01*
X89856233Y-115787401D01*
X89755766Y-115815204D01*
X89710947Y-115836089D01*
X89683522Y-115849811D01*
X89643561Y-115860413D01*
X89584285Y-115868076D01*
X89498914Y-115872981D01*
X89380671Y-115875312D01*
X89222775Y-115875249D01*
X89018447Y-115872975D01*
X88760910Y-115868670D01*
X88605534Y-115865725D01*
X87575904Y-115845707D01*
X87555862Y-115925562D01*
X87547169Y-115981430D01*
X87534933Y-116089280D01*
X87520273Y-116237764D01*
X87504305Y-116415536D01*
X87488147Y-116611246D01*
X87487366Y-116621146D01*
X87468741Y-116845992D01*
X87447706Y-117080527D01*
X87426112Y-117305320D01*
X87405811Y-117500937D01*
X87392416Y-117617875D01*
X87345653Y-118006334D01*
X87307482Y-118335702D01*
X87277581Y-118609755D01*
X87255625Y-118832272D01*
X87241291Y-119007032D01*
X87234257Y-119137814D01*
X87234199Y-119228395D01*
X87240794Y-119282555D01*
X87248528Y-119300056D01*
X87305412Y-119329516D01*
X87400741Y-119345664D01*
X87510680Y-119347568D01*
X87611392Y-119334297D01*
X87662245Y-119316234D01*
X87705075Y-119273796D01*
X87763969Y-119190643D01*
X87827459Y-119083283D01*
X87838875Y-119061930D01*
X87972146Y-118853163D01*
X88120518Y-118705841D01*
X88284571Y-118619595D01*
X88464885Y-118594053D01*
X88556159Y-118603039D01*
X88650817Y-118625297D01*
X88728639Y-118660993D01*
X88791390Y-118716051D01*
X88840838Y-118796396D01*
X88878751Y-118907953D01*
X88906895Y-119056645D01*
X88927037Y-119248397D01*
X88940944Y-119489134D01*
X88950384Y-119784779D01*
X88953612Y-119935625D01*
X88958092Y-120204496D01*
X88959777Y-120421923D01*
X88958216Y-120599915D01*
X88952961Y-120750484D01*
X88943563Y-120885642D01*
X88929572Y-121017398D01*
X88910541Y-121157765D01*
X88907030Y-121181610D01*
X88881083Y-121341172D01*
X88854260Y-121480188D01*
X88829425Y-121585383D01*
X88809444Y-121643478D01*
X88806365Y-121648178D01*
X88744754Y-121686388D01*
X88637708Y-121719432D01*
X88503274Y-121743783D01*
X88359496Y-121755914D01*
X88259504Y-121755056D01*
X88090375Y-121745375D01*
X88100795Y-121233369D01*
X88111215Y-120721364D01*
X88008551Y-120604436D01*
X87876945Y-120485319D01*
X87729777Y-120402476D01*
X87585753Y-120365887D01*
X87559827Y-120364991D01*
X87456567Y-120384484D01*
X87336438Y-120433766D01*
X87221122Y-120500909D01*
X87132305Y-120573985D01*
X87099438Y-120618250D01*
X87079612Y-120691732D01*
X87065712Y-120814065D01*
X87059244Y-120970755D01*
X87058968Y-121008183D01*
X87055477Y-121169781D01*
X87043182Y-121275221D01*
X87018474Y-121331635D01*
X86977749Y-121346151D01*
X86917400Y-121325901D01*
X86902230Y-121318077D01*
X86871107Y-121301562D01*
X86844129Y-121284726D01*
X86820908Y-121263127D01*
X86801056Y-121232325D01*
X86784184Y-121187878D01*
X86769904Y-121125345D01*
X86757826Y-121040283D01*
X86747563Y-120928252D01*
X86738726Y-120784810D01*
X86730926Y-120605515D01*
X86723774Y-120385927D01*
X86716883Y-120121603D01*
X86709863Y-119808102D01*
X86702326Y-119440984D01*
X86693884Y-119015805D01*
X86691853Y-118913320D01*
X86684447Y-118538142D01*
X86677403Y-118177298D01*
X86670827Y-117836495D01*
X86664825Y-117521441D01*
X86659503Y-117237844D01*
X86654969Y-116991411D01*
X86651329Y-116787851D01*
X86648689Y-116632871D01*
X86647156Y-116532178D01*
X86646809Y-116499792D01*
X86649998Y-116383118D01*
X86666187Y-116304822D01*
X86702992Y-116240009D01*
X86740006Y-116195107D01*
X86823463Y-116120239D01*
X86914940Y-116066301D01*
X86938040Y-116057992D01*
X87024063Y-116013752D01*
X87083359Y-115949927D01*
X87109750Y-115851760D01*
X87109757Y-115728218D01*
X87086553Y-115605926D01*
X87043309Y-115511510D01*
X87029140Y-115494779D01*
X87007871Y-115475428D01*
X86982566Y-115461113D01*
X86945228Y-115451686D01*
X86887859Y-115446999D01*
X86802459Y-115446903D01*
X86681030Y-115451253D01*
X86515573Y-115459898D01*
X86298091Y-115472692D01*
X86189508Y-115479255D01*
X85918094Y-115497202D01*
X85696818Y-115515015D01*
X85528984Y-115532352D01*
X85417901Y-115548870D01*
X85366873Y-115564225D01*
X85366193Y-115564756D01*
X85324874Y-115623867D01*
X85301690Y-115689774D01*
X85290865Y-115741446D01*
X85268776Y-115847036D01*
X85237147Y-115998306D01*
X85197699Y-116187015D01*
X85152155Y-116404925D01*
X85102237Y-116643796D01*
X85075911Y-116769790D01*
X85024383Y-117015894D01*
X84976215Y-117244984D01*
X84933148Y-117448860D01*
X84896919Y-117619324D01*
X84869270Y-117748180D01*
X84851938Y-117827227D01*
X84847645Y-117845672D01*
X84826947Y-117928139D01*
X84752239Y-117804757D01*
X84647924Y-117609441D01*
X84539742Y-117365049D01*
X84432950Y-117085346D01*
X84332804Y-116784098D01*
X84244882Y-116476295D01*
X84183841Y-116243709D01*
X84135995Y-116065008D01*
X84098743Y-115932575D01*
X84069479Y-115838792D01*
X84045603Y-115776043D01*
X84024510Y-115736709D01*
X84003598Y-115713172D01*
X83980263Y-115697816D01*
X83978548Y-115696892D01*
X83925629Y-115688121D01*
X83821618Y-115686517D01*
X83677543Y-115691094D01*
X83504430Y-115700867D01*
X83313306Y-115714849D01*
X83115197Y-115732056D01*
X82921131Y-115751502D01*
X82742133Y-115772200D01*
X82589231Y-115793166D01*
X82473451Y-115813414D01*
X82405821Y-115831958D01*
X82394951Y-115838441D01*
X82365779Y-115896762D01*
X82342975Y-115995792D01*
X82334504Y-116069613D01*
X82329705Y-116172656D01*
X81180415Y-116172656D01*
X81375668Y-115815847D01*
X81712340Y-115326142D01*
X82095111Y-114873410D01*
X82519541Y-114461446D01*
X82981186Y-114094044D01*
X83475608Y-113775001D01*
X83998363Y-113508109D01*
X84545011Y-113297165D01*
X84708434Y-113246688D01*
X85297428Y-113107085D01*
X85892911Y-113028759D01*
X86489950Y-113011296D01*
X87083612Y-113054282D01*
G37*
X87083612Y-113054282D02*
X87668964Y-113157303D01*
X88241071Y-113319947D01*
X88795001Y-113541798D01*
X88915875Y-113599463D01*
X89448188Y-113895072D01*
X89939894Y-114236601D01*
X90389131Y-114620243D01*
X90794037Y-115042193D01*
X91152750Y-115498647D01*
X91463408Y-115985799D01*
X91724150Y-116499843D01*
X91933114Y-117036975D01*
X92088437Y-117593389D01*
X92188259Y-118165280D01*
X92230716Y-118748843D01*
X92213948Y-119340272D01*
X92136093Y-119935763D01*
X92101485Y-120110250D01*
X91948138Y-120679889D01*
X91738530Y-121226938D01*
X91476295Y-121747776D01*
X91165066Y-122238779D01*
X90808477Y-122696328D01*
X90410160Y-123116799D01*
X89973750Y-123496572D01*
X89502880Y-123832025D01*
X89001183Y-124119536D01*
X88472293Y-124355483D01*
X87919843Y-124536246D01*
X87580822Y-124616253D01*
X87187201Y-124680987D01*
X86772362Y-124722364D01*
X86361194Y-124738741D01*
X85978586Y-124728478D01*
X85931375Y-124725033D01*
X85315753Y-124645816D01*
X84723030Y-124507641D01*
X84154560Y-124311079D01*
X83611695Y-124056699D01*
X83095788Y-123745072D01*
X82608193Y-123376767D01*
X82489986Y-123275117D01*
X82112799Y-122907512D01*
X81761307Y-122495945D01*
X81444365Y-122053014D01*
X81170827Y-121591316D01*
X80949547Y-121123448D01*
X80912634Y-121031000D01*
X80715626Y-120437978D01*
X80581630Y-119842268D01*
X80510570Y-119245878D01*
X80502369Y-118650816D01*
X80556953Y-118059090D01*
X80674246Y-117472708D01*
X80854171Y-116893678D01*
X81089537Y-116338730D01*
X81180415Y-116172656D01*
X82329705Y-116172656D01*
X82339407Y-116244272D01*
X82372186Y-116309373D01*
X82436617Y-116392871D01*
X82452329Y-116411887D01*
X82527795Y-116514514D01*
X82588235Y-116617391D01*
X82614861Y-116681250D01*
X82622899Y-116731296D01*
X82635633Y-116838263D01*
X82652495Y-116995790D01*
X82672914Y-117197517D01*
X82696320Y-117437083D01*
X82722142Y-117708128D01*
X82749812Y-118004291D01*
X82778758Y-118319212D01*
X82808410Y-118646531D01*
X82838199Y-118979887D01*
X82867555Y-119312919D01*
X82895907Y-119639267D01*
X82922685Y-119952570D01*
X82947320Y-120246469D01*
X82969241Y-120514602D01*
X82987878Y-120750610D01*
X83002661Y-120948131D01*
X83013020Y-121100805D01*
X83016690Y-121164610D01*
X83024331Y-121323668D01*
X83026616Y-121433265D01*
X83021666Y-121507346D01*
X83007598Y-121559855D01*
X82982535Y-121604735D01*
X82951694Y-121646628D01*
X82856036Y-121798429D01*
X82815122Y-121935023D01*
X82819207Y-122038732D01*
X82832976Y-122096984D01*
X82857501Y-122127860D01*
X82909726Y-122140051D01*
X83006596Y-122142245D01*
X83021069Y-122142250D01*
X83134506Y-122137918D01*
X83280283Y-122126185D01*
X83443911Y-122108942D01*
X83610904Y-122088084D01*
X83766774Y-122065501D01*
X83897034Y-122043086D01*
X83987195Y-122022732D01*
X84016054Y-122012277D01*
X84058774Y-121957451D01*
X84074184Y-121868959D01*
X84059941Y-121771522D01*
X84042757Y-121730448D01*
X83999452Y-121682397D01*
X83920428Y-121619552D01*
X83851377Y-121573537D01*
X83759245Y-121507863D01*
X83689576Y-121441817D01*
X83664098Y-121403616D01*
X83640409Y-121313734D01*
X83615376Y-121169548D01*
X83589979Y-120980208D01*
X83565197Y-120754866D01*
X83542009Y-120502677D01*
X83521397Y-120232790D01*
X83504339Y-119954359D01*
X83500139Y-119872125D01*
X83483510Y-119528883D01*
X83469915Y-119243847D01*
X83459196Y-119011799D01*
X83451193Y-118827526D01*
X83445748Y-118685812D01*
X83442702Y-118581441D01*
X83441896Y-118509199D01*
X83443172Y-118463871D01*
X83446370Y-118440240D01*
X83451332Y-118433093D01*
X83456402Y-118435677D01*
X83472844Y-118470093D01*
X83508338Y-118557321D01*
X83560258Y-118690485D01*
X83625979Y-118862712D01*
X83702878Y-119067125D01*
X83788328Y-119296850D01*
X83874023Y-119529510D01*
X83966300Y-119778792D01*
X84053895Y-120010861D01*
X84133961Y-120218518D01*
X84203654Y-120394564D01*
X84260127Y-120531799D01*
X84300534Y-120623026D01*
X84320929Y-120659973D01*
X84390702Y-120696971D01*
X84496197Y-120710684D01*
X84614783Y-120702873D01*
X84723826Y-120675295D01*
X84800697Y-120629710D01*
X84807469Y-120622158D01*
X84831588Y-120567631D01*
X84863139Y-120458696D01*
X84900455Y-120303790D01*
X84941868Y-120111350D01*
X84985711Y-119889812D01*
X85030317Y-119647613D01*
X85074018Y-119393191D01*
X85115147Y-119134982D01*
X85152037Y-118881422D01*
X85153332Y-118872000D01*
X85185652Y-118640231D01*
X85211898Y-118466104D01*
X85233913Y-118344255D01*
X85253543Y-118269321D01*
X85272631Y-118235938D01*
X85293021Y-118238743D01*
X85316557Y-118272373D01*
X85341727Y-118324065D01*
X85357907Y-118369327D01*
X85373099Y-118434649D01*
X85387778Y-118525161D01*
X85402416Y-118645996D01*
X85417487Y-118802285D01*
X85433465Y-118999160D01*
X85450825Y-119241753D01*
X85470039Y-119535194D01*
X85491582Y-119884617D01*
X85502193Y-120062003D01*
X85521036Y-120377029D01*
X85536401Y-120634651D01*
X85548121Y-120840880D01*
X85556032Y-121001725D01*
X85559967Y-121123196D01*
X85559760Y-121211303D01*
X85555247Y-121272056D01*
X85546261Y-121311464D01*
X85532636Y-121335538D01*
X85514208Y-121350288D01*
X85490809Y-121361723D01*
X85466027Y-121373789D01*
X85349508Y-121446543D01*
X85282469Y-121519303D01*
X85253151Y-121608858D01*
X85248750Y-121683962D01*
X85256265Y-121787755D01*
X85275099Y-121873829D01*
X85283525Y-121893903D01*
X85295188Y-121912310D01*
X85312842Y-121926770D01*
X85343408Y-121937664D01*
X85393807Y-121945374D01*
X85470961Y-121950280D01*
X85581791Y-121952762D01*
X85733218Y-121953203D01*
X85932164Y-121951983D01*
X86185550Y-121949483D01*
X86275713Y-121948513D01*
X87233125Y-121938144D01*
X87439500Y-122052464D01*
X87551889Y-122109138D01*
X87673273Y-122157328D01*
X87818332Y-122201714D01*
X88001747Y-122246976D01*
X88153875Y-122280221D01*
X88310323Y-122295664D01*
X88507536Y-122283091D01*
X88753209Y-122241991D01*
X88764111Y-122239755D01*
X89019361Y-122169758D01*
X89275898Y-122068095D01*
X89519724Y-121942526D01*
X89736841Y-121800809D01*
X89913248Y-121650703D01*
X89995844Y-121557081D01*
X90065769Y-121438727D01*
X90138314Y-121267337D01*
X90210016Y-121053086D01*
X90277412Y-120806145D01*
X90328227Y-120580588D01*
X90355562Y-120436338D01*
X90374160Y-120305753D01*
X90385171Y-120171741D01*
X90389747Y-120017206D01*
X90389038Y-119825054D01*
X90387021Y-119707463D01*
X90376375Y-119173625D01*
X90217727Y-118872000D01*
X90036974Y-118581661D01*
X89830078Y-118347671D01*
X89598063Y-118171119D01*
X89514921Y-118125018D01*
X89424717Y-118082324D01*
X89343531Y-118054012D01*
X89253157Y-118036540D01*
X89135389Y-118026367D01*
X88975262Y-118020049D01*
X88566149Y-118033389D01*
X88161893Y-118095153D01*
X88014274Y-118131003D01*
X87938174Y-118151594D01*
X87960990Y-117810989D01*
X87980122Y-117564458D01*
X88000863Y-117376829D01*
X88023993Y-117243507D01*
X88050297Y-117159899D01*
X88078244Y-117122763D01*
X88120270Y-117115605D01*
X88217352Y-117109096D01*
X88361046Y-117103486D01*
X88542907Y-117099026D01*
X88754495Y-117095963D01*
X88987363Y-117094548D01*
X89034937Y-117094486D01*
X89300782Y-117094108D01*
X89510406Y-117092988D01*
X89671088Y-117090675D01*
X89790107Y-117086717D01*
X89874741Y-117080662D01*
X89932269Y-117072060D01*
X89969970Y-117060458D01*
X89995123Y-117045405D01*
X90007610Y-117034139D01*
X90041077Y-116975944D01*
X90080944Y-116868659D01*
X90123721Y-116725920D01*
X90165917Y-116561361D01*
X90204043Y-116388619D01*
X90234611Y-116221329D01*
X90254129Y-116073127D01*
X90254466Y-116069564D01*
X90259580Y-115924178D01*
X90237006Y-115830595D01*
X90178656Y-115780220D01*
X90076442Y-115764456D01*
X89972242Y-115769612D01*
X89856233Y-115787401D01*
X89755766Y-115815204D01*
X89710947Y-115836089D01*
X89683522Y-115849811D01*
X89643561Y-115860413D01*
X89584285Y-115868076D01*
X89498914Y-115872981D01*
X89380671Y-115875312D01*
X89222775Y-115875249D01*
X89018447Y-115872975D01*
X88760910Y-115868670D01*
X88605534Y-115865725D01*
X87575904Y-115845707D01*
X87555862Y-115925562D01*
X87547169Y-115981430D01*
X87534933Y-116089280D01*
X87520273Y-116237764D01*
X87504305Y-116415536D01*
X87488147Y-116611246D01*
X87487366Y-116621146D01*
X87468741Y-116845992D01*
X87447706Y-117080527D01*
X87426112Y-117305320D01*
X87405811Y-117500937D01*
X87392416Y-117617875D01*
X87345653Y-118006334D01*
X87307482Y-118335702D01*
X87277581Y-118609755D01*
X87255625Y-118832272D01*
X87241291Y-119007032D01*
X87234257Y-119137814D01*
X87234199Y-119228395D01*
X87240794Y-119282555D01*
X87248528Y-119300056D01*
X87305412Y-119329516D01*
X87400741Y-119345664D01*
X87510680Y-119347568D01*
X87611392Y-119334297D01*
X87662245Y-119316234D01*
X87705075Y-119273796D01*
X87763969Y-119190643D01*
X87827459Y-119083283D01*
X87838875Y-119061930D01*
X87972146Y-118853163D01*
X88120518Y-118705841D01*
X88284571Y-118619595D01*
X88464885Y-118594053D01*
X88556159Y-118603039D01*
X88650817Y-118625297D01*
X88728639Y-118660993D01*
X88791390Y-118716051D01*
X88840838Y-118796396D01*
X88878751Y-118907953D01*
X88906895Y-119056645D01*
X88927037Y-119248397D01*
X88940944Y-119489134D01*
X88950384Y-119784779D01*
X88953612Y-119935625D01*
X88958092Y-120204496D01*
X88959777Y-120421923D01*
X88958216Y-120599915D01*
X88952961Y-120750484D01*
X88943563Y-120885642D01*
X88929572Y-121017398D01*
X88910541Y-121157765D01*
X88907030Y-121181610D01*
X88881083Y-121341172D01*
X88854260Y-121480188D01*
X88829425Y-121585383D01*
X88809444Y-121643478D01*
X88806365Y-121648178D01*
X88744754Y-121686388D01*
X88637708Y-121719432D01*
X88503274Y-121743783D01*
X88359496Y-121755914D01*
X88259504Y-121755056D01*
X88090375Y-121745375D01*
X88100795Y-121233369D01*
X88111215Y-120721364D01*
X88008551Y-120604436D01*
X87876945Y-120485319D01*
X87729777Y-120402476D01*
X87585753Y-120365887D01*
X87559827Y-120364991D01*
X87456567Y-120384484D01*
X87336438Y-120433766D01*
X87221122Y-120500909D01*
X87132305Y-120573985D01*
X87099438Y-120618250D01*
X87079612Y-120691732D01*
X87065712Y-120814065D01*
X87059244Y-120970755D01*
X87058968Y-121008183D01*
X87055477Y-121169781D01*
X87043182Y-121275221D01*
X87018474Y-121331635D01*
X86977749Y-121346151D01*
X86917400Y-121325901D01*
X86902230Y-121318077D01*
X86871107Y-121301562D01*
X86844129Y-121284726D01*
X86820908Y-121263127D01*
X86801056Y-121232325D01*
X86784184Y-121187878D01*
X86769904Y-121125345D01*
X86757826Y-121040283D01*
X86747563Y-120928252D01*
X86738726Y-120784810D01*
X86730926Y-120605515D01*
X86723774Y-120385927D01*
X86716883Y-120121603D01*
X86709863Y-119808102D01*
X86702326Y-119440984D01*
X86693884Y-119015805D01*
X86691853Y-118913320D01*
X86684447Y-118538142D01*
X86677403Y-118177298D01*
X86670827Y-117836495D01*
X86664825Y-117521441D01*
X86659503Y-117237844D01*
X86654969Y-116991411D01*
X86651329Y-116787851D01*
X86648689Y-116632871D01*
X86647156Y-116532178D01*
X86646809Y-116499792D01*
X86649998Y-116383118D01*
X86666187Y-116304822D01*
X86702992Y-116240009D01*
X86740006Y-116195107D01*
X86823463Y-116120239D01*
X86914940Y-116066301D01*
X86938040Y-116057992D01*
X87024063Y-116013752D01*
X87083359Y-115949927D01*
X87109750Y-115851760D01*
X87109757Y-115728218D01*
X87086553Y-115605926D01*
X87043309Y-115511510D01*
X87029140Y-115494779D01*
X87007871Y-115475428D01*
X86982566Y-115461113D01*
X86945228Y-115451686D01*
X86887859Y-115446999D01*
X86802459Y-115446903D01*
X86681030Y-115451253D01*
X86515573Y-115459898D01*
X86298091Y-115472692D01*
X86189508Y-115479255D01*
X85918094Y-115497202D01*
X85696818Y-115515015D01*
X85528984Y-115532352D01*
X85417901Y-115548870D01*
X85366873Y-115564225D01*
X85366193Y-115564756D01*
X85324874Y-115623867D01*
X85301690Y-115689774D01*
X85290865Y-115741446D01*
X85268776Y-115847036D01*
X85237147Y-115998306D01*
X85197699Y-116187015D01*
X85152155Y-116404925D01*
X85102237Y-116643796D01*
X85075911Y-116769790D01*
X85024383Y-117015894D01*
X84976215Y-117244984D01*
X84933148Y-117448860D01*
X84896919Y-117619324D01*
X84869270Y-117748180D01*
X84851938Y-117827227D01*
X84847645Y-117845672D01*
X84826947Y-117928139D01*
X84752239Y-117804757D01*
X84647924Y-117609441D01*
X84539742Y-117365049D01*
X84432950Y-117085346D01*
X84332804Y-116784098D01*
X84244882Y-116476295D01*
X84183841Y-116243709D01*
X84135995Y-116065008D01*
X84098743Y-115932575D01*
X84069479Y-115838792D01*
X84045603Y-115776043D01*
X84024510Y-115736709D01*
X84003598Y-115713172D01*
X83980263Y-115697816D01*
X83978548Y-115696892D01*
X83925629Y-115688121D01*
X83821618Y-115686517D01*
X83677543Y-115691094D01*
X83504430Y-115700867D01*
X83313306Y-115714849D01*
X83115197Y-115732056D01*
X82921131Y-115751502D01*
X82742133Y-115772200D01*
X82589231Y-115793166D01*
X82473451Y-115813414D01*
X82405821Y-115831958D01*
X82394951Y-115838441D01*
X82365779Y-115896762D01*
X82342975Y-115995792D01*
X82334504Y-116069613D01*
X82329705Y-116172656D01*
X81180415Y-116172656D01*
X81375668Y-115815847D01*
X81712340Y-115326142D01*
X82095111Y-114873410D01*
X82519541Y-114461446D01*
X82981186Y-114094044D01*
X83475608Y-113775001D01*
X83998363Y-113508109D01*
X84545011Y-113297165D01*
X84708434Y-113246688D01*
X85297428Y-113107085D01*
X85892911Y-113028759D01*
X86489950Y-113011296D01*
X87083612Y-113054282D01*
G36*
X73987145Y-109823704D02*
G01*
X74060893Y-109823849D01*
X74133095Y-109824093D01*
X74202970Y-109824434D01*
X74269738Y-109824873D01*
X74332618Y-109825411D01*
X74390830Y-109826047D01*
X74443594Y-109826782D01*
X74490128Y-109827614D01*
X74529654Y-109828545D01*
X74561389Y-109829574D01*
X74584555Y-109830701D01*
X74598370Y-109831926D01*
X74598689Y-109831973D01*
X74682315Y-109849484D01*
X74761860Y-109875980D01*
X74836786Y-109910923D01*
X74906556Y-109953775D01*
X74970632Y-110003998D01*
X75028477Y-110061055D01*
X75079552Y-110124409D01*
X75123321Y-110193521D01*
X75159245Y-110267855D01*
X75186787Y-110346871D01*
X75205410Y-110430034D01*
X75207026Y-110440310D01*
X75208255Y-110453767D01*
X75209386Y-110476603D01*
X75210418Y-110508038D01*
X75211352Y-110547292D01*
X75212188Y-110593583D01*
X75212926Y-110646132D01*
X75213566Y-110704158D01*
X75214108Y-110766880D01*
X75214551Y-110833519D01*
X75214897Y-110903294D01*
X75215144Y-110975424D01*
X75215293Y-111049130D01*
X75215344Y-111123630D01*
X75215296Y-111198145D01*
X75215151Y-111271893D01*
X75214907Y-111344095D01*
X75214566Y-111413970D01*
X75214126Y-111480738D01*
X75213588Y-111543618D01*
X75212952Y-111601830D01*
X75212217Y-111654594D01*
X75211385Y-111701128D01*
X75210454Y-111740654D01*
X75209425Y-111772389D01*
X75208298Y-111795555D01*
X75207073Y-111809370D01*
X75207026Y-111809689D01*
X75189515Y-111893315D01*
X75163019Y-111972860D01*
X75128076Y-112047786D01*
X75085224Y-112117556D01*
X75035001Y-112181632D01*
X74977944Y-112239477D01*
X74914590Y-112290552D01*
X74845478Y-112334321D01*
X74771144Y-112370245D01*
X74692128Y-112397787D01*
X74608965Y-112416410D01*
X74598689Y-112418026D01*
X74586000Y-112419146D01*
X74563954Y-112420176D01*
X74533319Y-112421116D01*
X74494867Y-112421967D01*
X74449366Y-112422729D01*
X74397586Y-112423401D01*
X74340297Y-112423984D01*
X74278269Y-112424478D01*
X74212272Y-112424884D01*
X74143075Y-112425200D01*
X74071448Y-112425427D01*
X73998161Y-112425566D01*
X73923984Y-112425616D01*
X73849686Y-112425578D01*
X73776037Y-112425452D01*
X73703807Y-112425237D01*
X73633766Y-112424934D01*
X73566683Y-112424543D01*
X73503329Y-112424064D01*
X73444472Y-112423497D01*
X73390884Y-112422842D01*
X73343332Y-112422100D01*
X73302588Y-112421270D01*
X73269421Y-112420352D01*
X73244601Y-112419348D01*
X73228897Y-112418256D01*
X73225660Y-112417847D01*
X73141683Y-112399536D01*
X73061802Y-112372254D01*
X72986577Y-112336492D01*
X72916570Y-112292745D01*
X72852342Y-112241506D01*
X72794453Y-112183268D01*
X72743467Y-112118524D01*
X72699943Y-112047767D01*
X72664444Y-111971491D01*
X72641556Y-111904622D01*
X72637575Y-111890841D01*
X72633990Y-111878006D01*
X72630780Y-111865540D01*
X72627924Y-111852866D01*
X72625402Y-111839407D01*
X72623193Y-111824588D01*
X72621276Y-111807832D01*
X72619631Y-111788561D01*
X72618236Y-111766200D01*
X72617072Y-111740173D01*
X72616117Y-111709901D01*
X72615351Y-111674810D01*
X72614752Y-111634322D01*
X72614300Y-111587861D01*
X72613975Y-111534850D01*
X72613756Y-111474713D01*
X72613621Y-111406873D01*
X72613551Y-111330754D01*
X72613524Y-111245780D01*
X72613520Y-111151372D01*
X72613520Y-111124999D01*
X72613535Y-111028771D01*
X72613585Y-110942165D01*
X72613677Y-110864642D01*
X72613815Y-110795665D01*
X72614005Y-110734695D01*
X72614254Y-110681193D01*
X72614567Y-110634623D01*
X72614950Y-110594445D01*
X72615410Y-110560122D01*
X72615950Y-110531115D01*
X72616579Y-110506886D01*
X72617301Y-110486897D01*
X72618123Y-110470609D01*
X72619050Y-110457485D01*
X72619099Y-110456980D01*
X72849740Y-110456980D01*
X72849740Y-111793020D01*
X72861356Y-111833126D01*
X72885998Y-111900973D01*
X72918835Y-111963298D01*
X72959432Y-112019553D01*
X73007352Y-112069189D01*
X73062158Y-112111658D01*
X73102094Y-112135605D01*
X73138529Y-112153007D01*
X73178397Y-112168413D01*
X73217516Y-112180336D01*
X73244272Y-112186169D01*
X73252794Y-112186749D01*
X73270889Y-112187291D01*
X73297971Y-112187794D01*
X73333452Y-112188254D01*
X73376747Y-112188668D01*
X73427268Y-112189031D01*
X73484429Y-112189342D01*
X73547643Y-112189597D01*
X73616323Y-112189793D01*
X73689883Y-112189926D01*
X73767736Y-112189994D01*
X73849295Y-112189992D01*
X73929240Y-112189925D01*
X74587100Y-112189109D01*
X74625200Y-112177504D01*
X74693541Y-112151654D01*
X74755972Y-112117754D01*
X74812035Y-112076264D01*
X74861275Y-112027644D01*
X74903236Y-111972353D01*
X74937462Y-111910853D01*
X74963495Y-111843602D01*
X74966643Y-111833126D01*
X74978260Y-111793020D01*
X74978260Y-110456980D01*
X74966643Y-110416873D01*
X74941874Y-110348835D01*
X74908858Y-110286470D01*
X74868088Y-110230270D01*
X74820058Y-110180730D01*
X74765261Y-110138343D01*
X74704191Y-110103603D01*
X74637342Y-110077004D01*
X74622126Y-110072356D01*
X74582020Y-110060740D01*
X73245980Y-110060740D01*
X73205873Y-110072356D01*
X73138093Y-110097047D01*
X73075841Y-110129997D01*
X73019659Y-110170666D01*
X72970089Y-110218513D01*
X72927673Y-110272996D01*
X72892952Y-110333574D01*
X72866469Y-110399707D01*
X72861401Y-110416340D01*
X72849740Y-110456980D01*
X72619099Y-110456980D01*
X72620088Y-110446986D01*
X72620973Y-110440310D01*
X72638484Y-110356684D01*
X72664980Y-110277139D01*
X72699923Y-110202213D01*
X72742775Y-110132443D01*
X72792998Y-110068367D01*
X72850055Y-110010522D01*
X72913409Y-109959447D01*
X72982521Y-109915678D01*
X73056855Y-109879754D01*
X73135871Y-109852212D01*
X73219034Y-109833589D01*
X73229310Y-109831973D01*
X73242767Y-109830744D01*
X73265603Y-109829613D01*
X73297038Y-109828581D01*
X73336292Y-109827647D01*
X73382583Y-109826811D01*
X73435132Y-109826073D01*
X73493158Y-109825433D01*
X73555880Y-109824891D01*
X73622519Y-109824449D01*
X73692294Y-109824103D01*
X73764424Y-109823856D01*
X73838130Y-109823707D01*
X73912630Y-109823656D01*
X73987145Y-109823704D01*
G37*
X73987145Y-109823704D02*
X74060893Y-109823849D01*
X74133095Y-109824093D01*
X74202970Y-109824434D01*
X74269738Y-109824873D01*
X74332618Y-109825411D01*
X74390830Y-109826047D01*
X74443594Y-109826782D01*
X74490128Y-109827614D01*
X74529654Y-109828545D01*
X74561389Y-109829574D01*
X74584555Y-109830701D01*
X74598370Y-109831926D01*
X74598689Y-109831973D01*
X74682315Y-109849484D01*
X74761860Y-109875980D01*
X74836786Y-109910923D01*
X74906556Y-109953775D01*
X74970632Y-110003998D01*
X75028477Y-110061055D01*
X75079552Y-110124409D01*
X75123321Y-110193521D01*
X75159245Y-110267855D01*
X75186787Y-110346871D01*
X75205410Y-110430034D01*
X75207026Y-110440310D01*
X75208255Y-110453767D01*
X75209386Y-110476603D01*
X75210418Y-110508038D01*
X75211352Y-110547292D01*
X75212188Y-110593583D01*
X75212926Y-110646132D01*
X75213566Y-110704158D01*
X75214108Y-110766880D01*
X75214551Y-110833519D01*
X75214897Y-110903294D01*
X75215144Y-110975424D01*
X75215293Y-111049130D01*
X75215344Y-111123630D01*
X75215296Y-111198145D01*
X75215151Y-111271893D01*
X75214907Y-111344095D01*
X75214566Y-111413970D01*
X75214126Y-111480738D01*
X75213588Y-111543618D01*
X75212952Y-111601830D01*
X75212217Y-111654594D01*
X75211385Y-111701128D01*
X75210454Y-111740654D01*
X75209425Y-111772389D01*
X75208298Y-111795555D01*
X75207073Y-111809370D01*
X75207026Y-111809689D01*
X75189515Y-111893315D01*
X75163019Y-111972860D01*
X75128076Y-112047786D01*
X75085224Y-112117556D01*
X75035001Y-112181632D01*
X74977944Y-112239477D01*
X74914590Y-112290552D01*
X74845478Y-112334321D01*
X74771144Y-112370245D01*
X74692128Y-112397787D01*
X74608965Y-112416410D01*
X74598689Y-112418026D01*
X74586000Y-112419146D01*
X74563954Y-112420176D01*
X74533319Y-112421116D01*
X74494867Y-112421967D01*
X74449366Y-112422729D01*
X74397586Y-112423401D01*
X74340297Y-112423984D01*
X74278269Y-112424478D01*
X74212272Y-112424884D01*
X74143075Y-112425200D01*
X74071448Y-112425427D01*
X73998161Y-112425566D01*
X73923984Y-112425616D01*
X73849686Y-112425578D01*
X73776037Y-112425452D01*
X73703807Y-112425237D01*
X73633766Y-112424934D01*
X73566683Y-112424543D01*
X73503329Y-112424064D01*
X73444472Y-112423497D01*
X73390884Y-112422842D01*
X73343332Y-112422100D01*
X73302588Y-112421270D01*
X73269421Y-112420352D01*
X73244601Y-112419348D01*
X73228897Y-112418256D01*
X73225660Y-112417847D01*
X73141683Y-112399536D01*
X73061802Y-112372254D01*
X72986577Y-112336492D01*
X72916570Y-112292745D01*
X72852342Y-112241506D01*
X72794453Y-112183268D01*
X72743467Y-112118524D01*
X72699943Y-112047767D01*
X72664444Y-111971491D01*
X72641556Y-111904622D01*
X72637575Y-111890841D01*
X72633990Y-111878006D01*
X72630780Y-111865540D01*
X72627924Y-111852866D01*
X72625402Y-111839407D01*
X72623193Y-111824588D01*
X72621276Y-111807832D01*
X72619631Y-111788561D01*
X72618236Y-111766200D01*
X72617072Y-111740173D01*
X72616117Y-111709901D01*
X72615351Y-111674810D01*
X72614752Y-111634322D01*
X72614300Y-111587861D01*
X72613975Y-111534850D01*
X72613756Y-111474713D01*
X72613621Y-111406873D01*
X72613551Y-111330754D01*
X72613524Y-111245780D01*
X72613520Y-111151372D01*
X72613520Y-111124999D01*
X72613535Y-111028771D01*
X72613585Y-110942165D01*
X72613677Y-110864642D01*
X72613815Y-110795665D01*
X72614005Y-110734695D01*
X72614254Y-110681193D01*
X72614567Y-110634623D01*
X72614950Y-110594445D01*
X72615410Y-110560122D01*
X72615950Y-110531115D01*
X72616579Y-110506886D01*
X72617301Y-110486897D01*
X72618123Y-110470609D01*
X72619050Y-110457485D01*
X72619099Y-110456980D01*
X72849740Y-110456980D01*
X72849740Y-111793020D01*
X72861356Y-111833126D01*
X72885998Y-111900973D01*
X72918835Y-111963298D01*
X72959432Y-112019553D01*
X73007352Y-112069189D01*
X73062158Y-112111658D01*
X73102094Y-112135605D01*
X73138529Y-112153007D01*
X73178397Y-112168413D01*
X73217516Y-112180336D01*
X73244272Y-112186169D01*
X73252794Y-112186749D01*
X73270889Y-112187291D01*
X73297971Y-112187794D01*
X73333452Y-112188254D01*
X73376747Y-112188668D01*
X73427268Y-112189031D01*
X73484429Y-112189342D01*
X73547643Y-112189597D01*
X73616323Y-112189793D01*
X73689883Y-112189926D01*
X73767736Y-112189994D01*
X73849295Y-112189992D01*
X73929240Y-112189925D01*
X74587100Y-112189109D01*
X74625200Y-112177504D01*
X74693541Y-112151654D01*
X74755972Y-112117754D01*
X74812035Y-112076264D01*
X74861275Y-112027644D01*
X74903236Y-111972353D01*
X74937462Y-111910853D01*
X74963495Y-111843602D01*
X74966643Y-111833126D01*
X74978260Y-111793020D01*
X74978260Y-110456980D01*
X74966643Y-110416873D01*
X74941874Y-110348835D01*
X74908858Y-110286470D01*
X74868088Y-110230270D01*
X74820058Y-110180730D01*
X74765261Y-110138343D01*
X74704191Y-110103603D01*
X74637342Y-110077004D01*
X74622126Y-110072356D01*
X74582020Y-110060740D01*
X73245980Y-110060740D01*
X73205873Y-110072356D01*
X73138093Y-110097047D01*
X73075841Y-110129997D01*
X73019659Y-110170666D01*
X72970089Y-110218513D01*
X72927673Y-110272996D01*
X72892952Y-110333574D01*
X72866469Y-110399707D01*
X72861401Y-110416340D01*
X72849740Y-110456980D01*
X72619099Y-110456980D01*
X72620088Y-110446986D01*
X72620973Y-110440310D01*
X72638484Y-110356684D01*
X72664980Y-110277139D01*
X72699923Y-110202213D01*
X72742775Y-110132443D01*
X72792998Y-110068367D01*
X72850055Y-110010522D01*
X72913409Y-109959447D01*
X72982521Y-109915678D01*
X73056855Y-109879754D01*
X73135871Y-109852212D01*
X73219034Y-109833589D01*
X73229310Y-109831973D01*
X73242767Y-109830744D01*
X73265603Y-109829613D01*
X73297038Y-109828581D01*
X73336292Y-109827647D01*
X73382583Y-109826811D01*
X73435132Y-109826073D01*
X73493158Y-109825433D01*
X73555880Y-109824891D01*
X73622519Y-109824449D01*
X73692294Y-109824103D01*
X73764424Y-109823856D01*
X73838130Y-109823707D01*
X73912630Y-109823656D01*
X73987145Y-109823704D01*
G36*
X73996935Y-110460118D02*
G01*
X74076518Y-110474844D01*
X74149694Y-110497606D01*
X74222767Y-110530411D01*
X74291111Y-110571690D01*
X74354013Y-110620654D01*
X74410761Y-110676516D01*
X74460644Y-110738488D01*
X74502949Y-110805782D01*
X74536965Y-110877609D01*
X74561980Y-110953181D01*
X74562274Y-110954305D01*
X74577989Y-111033903D01*
X74583948Y-111113295D01*
X74580527Y-111191753D01*
X74568102Y-111268551D01*
X74547049Y-111342960D01*
X74517745Y-111414253D01*
X74480565Y-111481704D01*
X74435885Y-111544584D01*
X74384081Y-111602166D01*
X74325530Y-111653723D01*
X74260607Y-111698528D01*
X74189688Y-111735853D01*
X74149694Y-111752393D01*
X74079662Y-111774093D01*
X74006035Y-111788283D01*
X73931354Y-111794694D01*
X73858159Y-111793055D01*
X73814940Y-111787927D01*
X73734741Y-111770274D01*
X73658735Y-111743855D01*
X73587444Y-111709273D01*
X73521385Y-111667131D01*
X73461078Y-111618032D01*
X73407044Y-111562579D01*
X73359801Y-111501374D01*
X73319869Y-111435020D01*
X73287768Y-111364121D01*
X73264016Y-111289278D01*
X73249134Y-111211095D01*
X73243641Y-111130174D01*
X73243622Y-111125000D01*
X73480098Y-111125000D01*
X73480209Y-111156837D01*
X73480714Y-111180817D01*
X73481874Y-111199241D01*
X73483948Y-111214410D01*
X73487197Y-111228627D01*
X73491880Y-111244192D01*
X73494441Y-111252000D01*
X73512344Y-111299797D01*
X73532584Y-111340868D01*
X73557074Y-111378637D01*
X73584102Y-111412370D01*
X73628840Y-111456562D01*
X73680632Y-111494535D01*
X73737850Y-111525345D01*
X73798864Y-111548047D01*
X73833051Y-111556652D01*
X73846547Y-111558294D01*
X73867528Y-111559443D01*
X73893326Y-111560009D01*
X73921275Y-111559903D01*
X73926700Y-111559797D01*
X73956949Y-111558904D01*
X73980008Y-111557484D01*
X73998845Y-111555102D01*
X74016430Y-111551326D01*
X74035731Y-111545724D01*
X74046080Y-111542389D01*
X74108523Y-111516739D01*
X74165325Y-111482848D01*
X74215927Y-111441275D01*
X74259772Y-111392577D01*
X74296302Y-111337311D01*
X74324960Y-111276033D01*
X74331764Y-111257080D01*
X74337801Y-111238647D01*
X74342117Y-111223441D01*
X74345000Y-111209113D01*
X74346738Y-111193314D01*
X74347619Y-111173692D01*
X74347932Y-111147900D01*
X74347968Y-111125000D01*
X74347880Y-111093510D01*
X74347426Y-111069832D01*
X74346316Y-111051613D01*
X74344262Y-111036506D01*
X74340976Y-111022161D01*
X74336171Y-111006227D01*
X74331764Y-110992920D01*
X74305371Y-110929530D01*
X74270881Y-110872219D01*
X74228505Y-110821247D01*
X74178455Y-110776876D01*
X74132440Y-110745957D01*
X74109413Y-110733743D01*
X74081587Y-110721010D01*
X74053942Y-110709990D01*
X74046080Y-110707235D01*
X74027647Y-110701198D01*
X74012441Y-110696882D01*
X73998113Y-110693999D01*
X73982314Y-110692261D01*
X73962692Y-110691380D01*
X73936900Y-110691067D01*
X73914000Y-110691031D01*
X73882510Y-110691119D01*
X73858832Y-110691573D01*
X73840613Y-110692683D01*
X73825506Y-110694737D01*
X73811161Y-110698023D01*
X73795227Y-110702828D01*
X73781920Y-110707235D01*
X73720802Y-110732675D01*
X73664415Y-110766052D01*
X73614210Y-110806411D01*
X73584102Y-110837629D01*
X73554196Y-110875345D01*
X73530251Y-110913304D01*
X73510352Y-110954930D01*
X73494441Y-110998000D01*
X73489050Y-111014876D01*
X73485207Y-111029398D01*
X73482652Y-111043868D01*
X73481125Y-111060588D01*
X73480366Y-111081858D01*
X73480115Y-111109981D01*
X73480098Y-111125000D01*
X73243622Y-111125000D01*
X73248568Y-111044457D01*
X73263068Y-110966056D01*
X73286613Y-110890530D01*
X73318695Y-110818614D01*
X73358806Y-110751040D01*
X73406438Y-110688543D01*
X73461081Y-110631855D01*
X73522229Y-110581712D01*
X73589371Y-110538846D01*
X73662001Y-110503990D01*
X73678305Y-110497606D01*
X73755847Y-110473775D01*
X73835519Y-110459584D01*
X73916242Y-110455032D01*
X73996935Y-110460118D01*
G37*
X73996935Y-110460118D02*
X74076518Y-110474844D01*
X74149694Y-110497606D01*
X74222767Y-110530411D01*
X74291111Y-110571690D01*
X74354013Y-110620654D01*
X74410761Y-110676516D01*
X74460644Y-110738488D01*
X74502949Y-110805782D01*
X74536965Y-110877609D01*
X74561980Y-110953181D01*
X74562274Y-110954305D01*
X74577989Y-111033903D01*
X74583948Y-111113295D01*
X74580527Y-111191753D01*
X74568102Y-111268551D01*
X74547049Y-111342960D01*
X74517745Y-111414253D01*
X74480565Y-111481704D01*
X74435885Y-111544584D01*
X74384081Y-111602166D01*
X74325530Y-111653723D01*
X74260607Y-111698528D01*
X74189688Y-111735853D01*
X74149694Y-111752393D01*
X74079662Y-111774093D01*
X74006035Y-111788283D01*
X73931354Y-111794694D01*
X73858159Y-111793055D01*
X73814940Y-111787927D01*
X73734741Y-111770274D01*
X73658735Y-111743855D01*
X73587444Y-111709273D01*
X73521385Y-111667131D01*
X73461078Y-111618032D01*
X73407044Y-111562579D01*
X73359801Y-111501374D01*
X73319869Y-111435020D01*
X73287768Y-111364121D01*
X73264016Y-111289278D01*
X73249134Y-111211095D01*
X73243641Y-111130174D01*
X73243622Y-111125000D01*
X73480098Y-111125000D01*
X73480209Y-111156837D01*
X73480714Y-111180817D01*
X73481874Y-111199241D01*
X73483948Y-111214410D01*
X73487197Y-111228627D01*
X73491880Y-111244192D01*
X73494441Y-111252000D01*
X73512344Y-111299797D01*
X73532584Y-111340868D01*
X73557074Y-111378637D01*
X73584102Y-111412370D01*
X73628840Y-111456562D01*
X73680632Y-111494535D01*
X73737850Y-111525345D01*
X73798864Y-111548047D01*
X73833051Y-111556652D01*
X73846547Y-111558294D01*
X73867528Y-111559443D01*
X73893326Y-111560009D01*
X73921275Y-111559903D01*
X73926700Y-111559797D01*
X73956949Y-111558904D01*
X73980008Y-111557484D01*
X73998845Y-111555102D01*
X74016430Y-111551326D01*
X74035731Y-111545724D01*
X74046080Y-111542389D01*
X74108523Y-111516739D01*
X74165325Y-111482848D01*
X74215927Y-111441275D01*
X74259772Y-111392577D01*
X74296302Y-111337311D01*
X74324960Y-111276033D01*
X74331764Y-111257080D01*
X74337801Y-111238647D01*
X74342117Y-111223441D01*
X74345000Y-111209113D01*
X74346738Y-111193314D01*
X74347619Y-111173692D01*
X74347932Y-111147900D01*
X74347968Y-111125000D01*
X74347880Y-111093510D01*
X74347426Y-111069832D01*
X74346316Y-111051613D01*
X74344262Y-111036506D01*
X74340976Y-111022161D01*
X74336171Y-111006227D01*
X74331764Y-110992920D01*
X74305371Y-110929530D01*
X74270881Y-110872219D01*
X74228505Y-110821247D01*
X74178455Y-110776876D01*
X74132440Y-110745957D01*
X74109413Y-110733743D01*
X74081587Y-110721010D01*
X74053942Y-110709990D01*
X74046080Y-110707235D01*
X74027647Y-110701198D01*
X74012441Y-110696882D01*
X73998113Y-110693999D01*
X73982314Y-110692261D01*
X73962692Y-110691380D01*
X73936900Y-110691067D01*
X73914000Y-110691031D01*
X73882510Y-110691119D01*
X73858832Y-110691573D01*
X73840613Y-110692683D01*
X73825506Y-110694737D01*
X73811161Y-110698023D01*
X73795227Y-110702828D01*
X73781920Y-110707235D01*
X73720802Y-110732675D01*
X73664415Y-110766052D01*
X73614210Y-110806411D01*
X73584102Y-110837629D01*
X73554196Y-110875345D01*
X73530251Y-110913304D01*
X73510352Y-110954930D01*
X73494441Y-110998000D01*
X73489050Y-111014876D01*
X73485207Y-111029398D01*
X73482652Y-111043868D01*
X73481125Y-111060588D01*
X73480366Y-111081858D01*
X73480115Y-111109981D01*
X73480098Y-111125000D01*
X73243622Y-111125000D01*
X73248568Y-111044457D01*
X73263068Y-110966056D01*
X73286613Y-110890530D01*
X73318695Y-110818614D01*
X73358806Y-110751040D01*
X73406438Y-110688543D01*
X73461081Y-110631855D01*
X73522229Y-110581712D01*
X73589371Y-110538846D01*
X73662001Y-110503990D01*
X73678305Y-110497606D01*
X73755847Y-110473775D01*
X73835519Y-110459584D01*
X73916242Y-110455032D01*
X73996935Y-110460118D01*
G36*
X74658982Y-110266904D02*
G01*
X74691971Y-110280690D01*
X74721662Y-110301277D01*
X74746768Y-110328273D01*
X74766005Y-110361287D01*
X74778088Y-110399927D01*
X74778437Y-110401759D01*
X74780441Y-110439217D01*
X74773348Y-110476195D01*
X74758148Y-110511036D01*
X74735836Y-110542083D01*
X74707403Y-110567680D01*
X74673844Y-110586170D01*
X74666205Y-110589006D01*
X74637617Y-110595000D01*
X74604835Y-110596035D01*
X74572464Y-110592226D01*
X74550811Y-110586102D01*
X74517441Y-110568123D01*
X74489156Y-110542736D01*
X74466890Y-110511692D01*
X74451579Y-110476740D01*
X74444161Y-110439633D01*
X74445572Y-110402120D01*
X74447440Y-110392770D01*
X74455124Y-110366020D01*
X74465212Y-110344716D01*
X74480118Y-110324327D01*
X74489536Y-110313704D01*
X74519741Y-110287608D01*
X74553073Y-110270271D01*
X74588248Y-110261303D01*
X74623979Y-110260311D01*
X74658982Y-110266904D01*
G37*
X74658982Y-110266904D02*
X74691971Y-110280690D01*
X74721662Y-110301277D01*
X74746768Y-110328273D01*
X74766005Y-110361287D01*
X74778088Y-110399927D01*
X74778437Y-110401759D01*
X74780441Y-110439217D01*
X74773348Y-110476195D01*
X74758148Y-110511036D01*
X74735836Y-110542083D01*
X74707403Y-110567680D01*
X74673844Y-110586170D01*
X74666205Y-110589006D01*
X74637617Y-110595000D01*
X74604835Y-110596035D01*
X74572464Y-110592226D01*
X74550811Y-110586102D01*
X74517441Y-110568123D01*
X74489156Y-110542736D01*
X74466890Y-110511692D01*
X74451579Y-110476740D01*
X74444161Y-110439633D01*
X74445572Y-110402120D01*
X74447440Y-110392770D01*
X74455124Y-110366020D01*
X74465212Y-110344716D01*
X74480118Y-110324327D01*
X74489536Y-110313704D01*
X74519741Y-110287608D01*
X74553073Y-110270271D01*
X74588248Y-110261303D01*
X74623979Y-110260311D01*
X74658982Y-110266904D01*
G04 #@! TD*
D18*
G04 #@! TO.C,A1*
X86868000Y-75946000D03*
X86868000Y-73406000D03*
X86868000Y-70866000D03*
X86868000Y-68326000D03*
X86868000Y-65786000D03*
X86868000Y-63246000D03*
X86868000Y-60706000D03*
X86868000Y-58166000D03*
X86868000Y-55626000D03*
X86868000Y-53086000D03*
X86868000Y-50546000D03*
X86868000Y-48006000D03*
X86868000Y-45466000D03*
X86868000Y-42926000D03*
X86868000Y-40386000D03*
D19*
X86868000Y-37846000D03*
D18*
X107188000Y-48006000D03*
X107188000Y-50546000D03*
X107188000Y-53086000D03*
X107188000Y-55626000D03*
X107188000Y-58166000D03*
X107188000Y-60706000D03*
X107188000Y-63246000D03*
X107188000Y-65786000D03*
X107188000Y-68326000D03*
X107188000Y-70866000D03*
X107188000Y-73406000D03*
X107188000Y-75946000D03*
G04 #@! TD*
D20*
G04 #@! TO.C,A7*
X79248000Y-96266000D03*
D21*
X79248000Y-93726000D03*
X79248000Y-91186000D03*
X79248000Y-88646000D03*
G04 #@! TD*
D22*
G04 #@! TO.C,C1*
X95758000Y-106426000D03*
D23*
X95758000Y-111426000D03*
G04 #@! TD*
G04 #@! TO.C,R1*
G36*
G01*
X74683000Y-107051003D02*
X74683000Y-105800997D01*
G75*
G02*
X74932997Y-105551000I249997J0D01*
G01*
X75558003Y-105551000D01*
G75*
G02*
X75808000Y-105800997I0J-249997D01*
G01*
X75808000Y-107051003D01*
G75*
G02*
X75558003Y-107301000I-249997J0D01*
G01*
X74932997Y-107301000D01*
G75*
G02*
X74683000Y-107051003I0J249997D01*
G01*
G37*
G36*
G01*
X77608000Y-107051003D02*
X77608000Y-105800997D01*
G75*
G02*
X77857997Y-105551000I249997J0D01*
G01*
X78483003Y-105551000D01*
G75*
G02*
X78733000Y-105800997I0J-249997D01*
G01*
X78733000Y-107051003D01*
G75*
G02*
X78483003Y-107301000I-249997J0D01*
G01*
X77857997Y-107301000D01*
G75*
G02*
X77608000Y-107051003I0J249997D01*
G01*
G37*
G04 #@! TD*
D22*
G04 #@! TO.C,D1*
X103352600Y-107530000D03*
D24*
X103352600Y-112610000D03*
G04 #@! TD*
D21*
G04 #@! TO.C,A6*
X79248000Y-68326000D03*
X79248000Y-70866000D03*
X79248000Y-73406000D03*
D20*
X79248000Y-75946000D03*
G04 #@! TD*
D21*
G04 #@! TO.C,A4*
X114808000Y-96266000D03*
X114808000Y-93726000D03*
X114808000Y-91186000D03*
D20*
X114808000Y-88646000D03*
G04 #@! TD*
D21*
G04 #@! TO.C,A2*
X114703001Y-55626000D03*
X114703001Y-53086000D03*
X114703001Y-50546000D03*
D20*
X114703001Y-48006000D03*
G04 #@! TD*
G04 #@! TO.C,A3*
X114808000Y-68326000D03*
D21*
X114808000Y-70866000D03*
X114808000Y-73406000D03*
X114808000Y-75946000D03*
G04 #@! TD*
D20*
G04 #@! TO.C,A5*
X79248000Y-55626000D03*
D21*
X79248000Y-53086000D03*
X79248000Y-50546000D03*
X79248000Y-48006000D03*
G04 #@! TD*
D25*
G04 #@! TO.C,J1*
X114808000Y-112356000D03*
G36*
G01*
X113308000Y-102156000D02*
X116308000Y-102156000D01*
G75*
G02*
X117808000Y-103656000I0J-1500000D01*
G01*
X117808000Y-106656000D01*
G75*
G02*
X116308000Y-108156000I-1500000J0D01*
G01*
X113308000Y-108156000D01*
G75*
G02*
X111808000Y-106656000I0J1500000D01*
G01*
X111808000Y-103656000D01*
G75*
G02*
X113308000Y-102156000I1500000J0D01*
G01*
G37*
G04 #@! TD*
D26*
G04 #@! TO.C,Z1*
X83598000Y-106426000D03*
X87598000Y-106426000D03*
G04 #@! TD*
D27*
G04 #@! TO.C,H1*
X75438000Y-30226000D03*
D28*
X77838000Y-30226000D03*
X77135056Y-31923056D03*
X75438000Y-32626000D03*
X73740944Y-31923056D03*
X73038000Y-30226000D03*
X73740944Y-28528944D03*
X75438000Y-27826000D03*
X77135056Y-28528944D03*
G04 #@! TD*
G04 #@! TO.C,H2*
X120315056Y-28528944D03*
X118618000Y-27826000D03*
X116920944Y-28528944D03*
X116218000Y-30226000D03*
X116920944Y-31923056D03*
X118618000Y-32626000D03*
X120315056Y-31923056D03*
X121018000Y-30226000D03*
D27*
X118618000Y-30226000D03*
G04 #@! TD*
D28*
G04 #@! TO.C,H3*
X120315056Y-119968944D03*
X118618000Y-119266000D03*
X116920944Y-119968944D03*
X116218000Y-121666000D03*
X116920944Y-123363056D03*
X118618000Y-124066000D03*
X120315056Y-123363056D03*
X121018000Y-121666000D03*
D27*
X118618000Y-121666000D03*
G04 #@! TD*
G04 #@! TO.C,H4*
X75438000Y-121666000D03*
D28*
X77838000Y-121666000D03*
X77135056Y-123363056D03*
X75438000Y-124066000D03*
X73740944Y-123363056D03*
X73038000Y-121666000D03*
X73740944Y-119968944D03*
X75438000Y-119266000D03*
X77135056Y-119968944D03*
G04 #@! TD*
D22*
G04 #@! TO.C,BZ1*
X104902000Y-94996000D03*
D23*
X97302000Y-94996000D03*
G04 #@! TD*
G04 #@! TO.C,R2*
G36*
G01*
X76592000Y-40503003D02*
X76592000Y-39252997D01*
G75*
G02*
X76841997Y-39003000I249997J0D01*
G01*
X77467003Y-39003000D01*
G75*
G02*
X77717000Y-39252997I0J-249997D01*
G01*
X77717000Y-40503003D01*
G75*
G02*
X77467003Y-40753000I-249997J0D01*
G01*
X76841997Y-40753000D01*
G75*
G02*
X76592000Y-40503003I0J249997D01*
G01*
G37*
G36*
G01*
X73667000Y-40503003D02*
X73667000Y-39252997D01*
G75*
G02*
X73916997Y-39003000I249997J0D01*
G01*
X74542003Y-39003000D01*
G75*
G02*
X74792000Y-39252997I0J-249997D01*
G01*
X74792000Y-40503003D01*
G75*
G02*
X74542003Y-40753000I-249997J0D01*
G01*
X73916997Y-40753000D01*
G75*
G02*
X73667000Y-40503003I0J249997D01*
G01*
G37*
G04 #@! TD*
G04 #@! TO.C,R3*
G36*
G01*
X79255000Y-40503003D02*
X79255000Y-39252997D01*
G75*
G02*
X79504997Y-39003000I249997J0D01*
G01*
X80130003Y-39003000D01*
G75*
G02*
X80380000Y-39252997I0J-249997D01*
G01*
X80380000Y-40503003D01*
G75*
G02*
X80130003Y-40753000I-249997J0D01*
G01*
X79504997Y-40753000D01*
G75*
G02*
X79255000Y-40503003I0J249997D01*
G01*
G37*
G36*
G01*
X82180000Y-40503003D02*
X82180000Y-39252997D01*
G75*
G02*
X82429997Y-39003000I249997J0D01*
G01*
X83055003Y-39003000D01*
G75*
G02*
X83305000Y-39252997I0J-249997D01*
G01*
X83305000Y-40503003D01*
G75*
G02*
X83055003Y-40753000I-249997J0D01*
G01*
X82429997Y-40753000D01*
G75*
G02*
X82180000Y-40503003I0J249997D01*
G01*
G37*
G04 #@! TD*
G04 #@! TO.C,D2*
G36*
G01*
X73667000Y-37963000D02*
X73667000Y-36713000D01*
G75*
G02*
X73917000Y-36463000I250000J0D01*
G01*
X74667000Y-36463000D01*
G75*
G02*
X74917000Y-36713000I0J-250000D01*
G01*
X74917000Y-37963000D01*
G75*
G02*
X74667000Y-38213000I-250000J0D01*
G01*
X73917000Y-38213000D01*
G75*
G02*
X73667000Y-37963000I0J250000D01*
G01*
G37*
G36*
G01*
X76467000Y-37963000D02*
X76467000Y-36713000D01*
G75*
G02*
X76717000Y-36463000I250000J0D01*
G01*
X77467000Y-36463000D01*
G75*
G02*
X77717000Y-36713000I0J-250000D01*
G01*
X77717000Y-37963000D01*
G75*
G02*
X77467000Y-38213000I-250000J0D01*
G01*
X76717000Y-38213000D01*
G75*
G02*
X76467000Y-37963000I0J250000D01*
G01*
G37*
G04 #@! TD*
G04 #@! TO.C,D3*
G36*
G01*
X75933000Y-103007000D02*
X75933000Y-104257000D01*
G75*
G02*
X75683000Y-104507000I-250000J0D01*
G01*
X74933000Y-104507000D01*
G75*
G02*
X74683000Y-104257000I0J250000D01*
G01*
X74683000Y-103007000D01*
G75*
G02*
X74933000Y-102757000I250000J0D01*
G01*
X75683000Y-102757000D01*
G75*
G02*
X75933000Y-103007000I0J-250000D01*
G01*
G37*
G36*
G01*
X78733000Y-103007000D02*
X78733000Y-104257000D01*
G75*
G02*
X78483000Y-104507000I-250000J0D01*
G01*
X77733000Y-104507000D01*
G75*
G02*
X77483000Y-104257000I0J250000D01*
G01*
X77483000Y-103007000D01*
G75*
G02*
X77733000Y-102757000I250000J0D01*
G01*
X78483000Y-102757000D01*
G75*
G02*
X78733000Y-103007000I0J-250000D01*
G01*
G37*
G04 #@! TD*
G04 #@! TO.C,D4*
G36*
G01*
X79255000Y-37963000D02*
X79255000Y-36713000D01*
G75*
G02*
X79505000Y-36463000I250000J0D01*
G01*
X80255000Y-36463000D01*
G75*
G02*
X80505000Y-36713000I0J-250000D01*
G01*
X80505000Y-37963000D01*
G75*
G02*
X80255000Y-38213000I-250000J0D01*
G01*
X79505000Y-38213000D01*
G75*
G02*
X79255000Y-37963000I0J250000D01*
G01*
G37*
G36*
G01*
X82055000Y-37963000D02*
X82055000Y-36713000D01*
G75*
G02*
X82305000Y-36463000I250000J0D01*
G01*
X83055000Y-36463000D01*
G75*
G02*
X83305000Y-36713000I0J-250000D01*
G01*
X83305000Y-37963000D01*
G75*
G02*
X83055000Y-38213000I-250000J0D01*
G01*
X82305000Y-38213000D01*
G75*
G02*
X82055000Y-37963000I0J250000D01*
G01*
G37*
G04 #@! TD*
G04 #@! TO.C,J2*
X103352600Y-117856000D03*
G04 #@! TD*
G04 #@! TO.C,J3*
X98298000Y-117831001D03*
G04 #@! TD*
D20*
G04 #@! TO.C,J4*
X89408000Y-84836000D03*
D21*
X91948000Y-84836000D03*
X94488000Y-84836000D03*
X97028000Y-84836000D03*
X99568000Y-84836000D03*
G04 #@! TD*
M02*
