M48
; DRILL file {KiCad (5.1.10)-1} date 02/12/22 13:06:08
; FORMAT={-:-/ absolute / metric / decimal}
; #@! TF.CreationDate,2022-02-12T13:06:08-05:00
; #@! TF.GenerationSoftware,Kicad,Pcbnew,(5.1.10)-1
; #@! TF.FileFunction,Plated,1,2,PTH
FMAT,2
METRIC
T1C0.400
T2C0.500
T3C0.800
T4C1.000
T5C1.100
T6C3.200
T7C4.500
%
G90
G05
T1
X78.486Y-42.164
X80.518Y-106.426
X83.058Y-78.486
X84.328Y-39.116
X84.328Y-60.706
X84.328Y-75.946
X109.728Y-55.626
X109.728Y-70.866
X112.268Y-68.326
T2
X73.038Y-30.226
X73.038Y-121.666
X73.741Y-28.529
X73.741Y-31.923
X73.741Y-119.969
X73.741Y-123.363
X75.438Y-27.826
X75.438Y-32.626
X75.438Y-119.266
X75.438Y-124.066
X77.135Y-28.529
X77.135Y-31.923
X77.135Y-119.969
X77.135Y-123.363
X77.838Y-30.226
X77.838Y-121.666
X116.218Y-30.226
X116.218Y-121.666
X116.921Y-28.529
X116.921Y-31.923
X116.921Y-119.969
X116.921Y-123.363
X118.618Y-27.826
X118.618Y-32.626
X118.618Y-119.266
X118.618Y-124.066
X120.315Y-28.529
X120.315Y-31.923
X120.315Y-119.969
X120.315Y-123.363
X121.018Y-30.226
X121.018Y-121.666
T3
X86.868Y-37.846
X86.868Y-40.386
X86.868Y-42.926
X86.868Y-45.466
X86.868Y-48.006
X86.868Y-50.546
X86.868Y-53.086
X86.868Y-55.626
X86.868Y-58.166
X86.868Y-60.706
X86.868Y-63.246
X86.868Y-65.786
X86.868Y-68.326
X86.868Y-70.866
X86.868Y-73.406
X86.868Y-75.946
X107.188Y-48.006
X107.188Y-50.546
X107.188Y-53.086
X107.188Y-55.626
X107.188Y-58.166
X107.188Y-60.706
X107.188Y-63.246
X107.188Y-65.786
X107.188Y-68.326
X107.188Y-70.866
X107.188Y-73.406
X107.188Y-75.946
T4
X79.248Y-48.006
X79.248Y-50.546
X79.248Y-53.086
X79.248Y-55.626
X79.248Y-68.326
X79.248Y-70.866
X79.248Y-73.406
X79.248Y-75.946
X79.248Y-88.646
X79.248Y-91.186
X79.248Y-93.726
X79.248Y-96.266
X89.408Y-84.836
X91.948Y-84.836
X94.488Y-84.836
X95.758Y-106.426
X95.758Y-111.426
X97.028Y-84.836
X97.302Y-94.996
X98.298Y-117.831
X99.568Y-84.836
X103.353Y-117.856
X104.902Y-94.996
X114.703Y-48.006
X114.703Y-50.546
X114.703Y-53.086
X114.703Y-55.626
X114.808Y-68.326
X114.808Y-70.866
X114.808Y-73.406
X114.808Y-75.946
X114.808Y-88.646
X114.808Y-91.186
X114.808Y-93.726
X114.808Y-96.266
T5
X103.353Y-107.53
X103.353Y-112.61
T6
X75.438Y-30.226
X75.438Y-121.666
X118.618Y-30.226
X118.618Y-121.666
T7
X114.808Y-105.156
X114.808Y-112.356
T0
M30
