%FSLAX45Y45*%
G04 Gerber Fmt 4.5, Leading zero omitted, Abs format (unit mm)*
G04 Created by KiCad (PCBNEW (5.1.10)-1) date 2022-02-12 13:06:28*
%MOMM*%
%LPD*%
G01*
G04 APERTURE LIST*
%TA.AperFunction,Profile*%
%ADD10C,0.025400*%
%TD*%
%ADD11C,0.200000*%
%ADD12C,0.300000*%
G04 APERTURE END LIST*
D10*
X7543800Y-2641600D02*
X11861800Y-2641600D01*
X7543800Y-12547600D02*
X11861800Y-12547600D01*
X7162800Y-12166600D02*
X7162800Y-3022600D01*
X12242800Y-3022600D02*
X12242800Y-12166600D01*
X7543800Y-12547600D02*
G75*
G02*
X7162800Y-12166600I0J381000D01*
G01*
X12242800Y-12166600D02*
G75*
G02*
X11861800Y-12547600I-381000J0D01*
G01*
X7162800Y-3022600D02*
G75*
G02*
X7543800Y-2641600I381000J0D01*
G01*
X11861800Y-2641600D02*
G75*
G02*
X12242800Y-3022600I0J-381000D01*
G01*
D11*
D12*
X7447958Y-13014584D02*
X7447958Y-12714584D01*
X7519387Y-12714584D01*
X7562244Y-12728870D01*
X7590816Y-12757441D01*
X7605101Y-12786013D01*
X7619387Y-12843156D01*
X7619387Y-12886013D01*
X7605101Y-12943156D01*
X7590816Y-12971727D01*
X7562244Y-13000299D01*
X7519387Y-13014584D01*
X7447958Y-13014584D01*
X7747958Y-13014584D02*
X7747958Y-12814584D01*
X7747958Y-12871727D02*
X7762244Y-12843156D01*
X7776530Y-12828870D01*
X7805101Y-12814584D01*
X7833673Y-12814584D01*
X7933673Y-13014584D02*
X7933673Y-12814584D01*
X7933673Y-12714584D02*
X7919387Y-12728870D01*
X7933673Y-12743156D01*
X7947958Y-12728870D01*
X7933673Y-12714584D01*
X7933673Y-12743156D01*
X8119387Y-13014584D02*
X8090816Y-13000299D01*
X8076530Y-12971727D01*
X8076530Y-12714584D01*
X8276530Y-13014584D02*
X8247958Y-13000299D01*
X8233673Y-12971727D01*
X8233673Y-12714584D01*
X8619387Y-13014584D02*
X8619387Y-12714584D01*
X8719387Y-12928870D01*
X8819387Y-12714584D01*
X8819387Y-13014584D01*
X9090816Y-13014584D02*
X9090816Y-12857441D01*
X9076530Y-12828870D01*
X9047958Y-12814584D01*
X8990816Y-12814584D01*
X8962244Y-12828870D01*
X9090816Y-13000299D02*
X9062244Y-13014584D01*
X8990816Y-13014584D01*
X8962244Y-13000299D01*
X8947958Y-12971727D01*
X8947958Y-12943156D01*
X8962244Y-12914584D01*
X8990816Y-12900299D01*
X9062244Y-12900299D01*
X9090816Y-12886013D01*
X9233673Y-12814584D02*
X9233673Y-13114584D01*
X9233673Y-12828870D02*
X9262244Y-12814584D01*
X9319387Y-12814584D01*
X9347958Y-12828870D01*
X9362244Y-12843156D01*
X9376530Y-12871727D01*
X9376530Y-12957441D01*
X9362244Y-12986013D01*
X9347958Y-13000299D01*
X9319387Y-13014584D01*
X9262244Y-13014584D01*
X9233673Y-13000299D01*
X9505101Y-12986013D02*
X9519387Y-13000299D01*
X9505101Y-13014584D01*
X9490816Y-13000299D01*
X9505101Y-12986013D01*
X9505101Y-13014584D01*
X9505101Y-12828870D02*
X9519387Y-12843156D01*
X9505101Y-12857441D01*
X9490816Y-12843156D01*
X9505101Y-12828870D01*
X9505101Y-12857441D01*
M02*
