G04 #@! TF.GenerationSoftware,KiCad,Pcbnew,(5.1.10)-1*
G04 #@! TF.CreationDate,2022-02-12T13:03:44-05:00*
G04 #@! TF.ProjectId,M5_BuggyProject,4d355f42-7567-4677-9950-726f6a656374,v1.0*
G04 #@! TF.SameCoordinates,Original*
G04 #@! TF.FileFunction,Soldermask,Top*
G04 #@! TF.FilePolarity,Negative*
%FSLAX46Y46*%
G04 Gerber Fmt 4.6, Leading zero omitted, Abs format (unit mm)*
G04 Created by KiCad (PCBNEW (5.1.10)-1) date 2022-02-12 13:03:44*
%MOMM*%
%LPD*%
G01*
G04 APERTURE LIST*
%ADD10C,0.120000*%
%ADD11C,0.076200*%
%ADD12C,0.010000*%
%ADD13C,1.600000*%
%ADD14R,1.600000X1.600000*%
%ADD15R,1.700000X1.700000*%
%ADD16O,1.700000X1.700000*%
%ADD17R,2.000000X2.000000*%
%ADD18C,2.000000*%
%ADD19O,2.000000X2.000000*%
%ADD20C,6.000000*%
%ADD21R,2.500000X1.700000*%
%ADD22C,6.400000*%
%ADD23C,0.800000*%
G04 APERTURE END LIST*
D10*
X72263000Y-109855000D02*
X72263000Y-112395000D01*
D11*
X76136500Y-111741857D02*
X76100214Y-111705571D01*
X76027642Y-111669285D01*
X75955071Y-111669285D01*
X75882500Y-111705571D01*
X75846214Y-111741857D01*
X75809928Y-111814428D01*
X75809928Y-111887000D01*
X75846214Y-111959571D01*
X75882500Y-111995857D01*
X75955071Y-112032142D01*
X76027642Y-112032142D01*
X76100214Y-111995857D01*
X76136500Y-111959571D01*
X76136500Y-111669285D02*
X76136500Y-111959571D01*
X76172785Y-111995857D01*
X76209071Y-111995857D01*
X76281642Y-111959571D01*
X76317928Y-111887000D01*
X76317928Y-111705571D01*
X76245357Y-111596714D01*
X76136500Y-111524142D01*
X75991357Y-111487857D01*
X75846214Y-111524142D01*
X75737357Y-111596714D01*
X75664785Y-111705571D01*
X75628500Y-111850714D01*
X75664785Y-111995857D01*
X75737357Y-112104714D01*
X75846214Y-112177285D01*
X75991357Y-112213571D01*
X76136500Y-112177285D01*
X76245357Y-112104714D01*
X76644500Y-111342714D02*
X76644500Y-111959571D01*
X76680785Y-112032142D01*
X76717071Y-112068428D01*
X76789642Y-112104714D01*
X76934785Y-112104714D01*
X77007357Y-112068428D01*
X77043642Y-112032142D01*
X77079928Y-111959571D01*
X77079928Y-111342714D01*
X77442785Y-112104714D02*
X77442785Y-111342714D01*
X77696785Y-111887000D01*
X77950785Y-111342714D01*
X77950785Y-112104714D01*
X78640214Y-112104714D02*
X78640214Y-111705571D01*
X78603928Y-111633000D01*
X78531357Y-111596714D01*
X78386214Y-111596714D01*
X78313642Y-111633000D01*
X78640214Y-112068428D02*
X78567642Y-112104714D01*
X78386214Y-112104714D01*
X78313642Y-112068428D01*
X78277357Y-111995857D01*
X78277357Y-111923285D01*
X78313642Y-111850714D01*
X78386214Y-111814428D01*
X78567642Y-111814428D01*
X78640214Y-111778142D01*
X78966785Y-112068428D02*
X79039357Y-112104714D01*
X79184500Y-112104714D01*
X79257071Y-112068428D01*
X79293357Y-111995857D01*
X79293357Y-111959571D01*
X79257071Y-111887000D01*
X79184500Y-111850714D01*
X79075642Y-111850714D01*
X79003071Y-111814428D01*
X78966785Y-111741857D01*
X78966785Y-111705571D01*
X79003071Y-111633000D01*
X79075642Y-111596714D01*
X79184500Y-111596714D01*
X79257071Y-111633000D01*
X79583642Y-112068428D02*
X79656214Y-112104714D01*
X79801357Y-112104714D01*
X79873928Y-112068428D01*
X79910214Y-111995857D01*
X79910214Y-111959571D01*
X79873928Y-111887000D01*
X79801357Y-111850714D01*
X79692500Y-111850714D01*
X79619928Y-111814428D01*
X79583642Y-111741857D01*
X79583642Y-111705571D01*
X79619928Y-111633000D01*
X79692500Y-111596714D01*
X79801357Y-111596714D01*
X79873928Y-111633000D01*
X80200500Y-111887000D02*
X80563357Y-111887000D01*
X80127928Y-112104714D02*
X80381928Y-111342714D01*
X80635928Y-112104714D01*
X80889928Y-112104714D02*
X80889928Y-111596714D01*
X80889928Y-111669285D02*
X80926214Y-111633000D01*
X80998785Y-111596714D01*
X81107642Y-111596714D01*
X81180214Y-111633000D01*
X81216500Y-111705571D01*
X81216500Y-112104714D01*
X81216500Y-111705571D02*
X81252785Y-111633000D01*
X81325357Y-111596714D01*
X81434214Y-111596714D01*
X81506785Y-111633000D01*
X81543071Y-111705571D01*
X81543071Y-112104714D01*
X81905928Y-112104714D02*
X81905928Y-111342714D01*
X82232500Y-112104714D02*
X82232500Y-111705571D01*
X82196214Y-111633000D01*
X82123642Y-111596714D01*
X82014785Y-111596714D01*
X81942214Y-111633000D01*
X81905928Y-111669285D01*
X82885642Y-112068428D02*
X82813071Y-112104714D01*
X82667928Y-112104714D01*
X82595357Y-112068428D01*
X82559071Y-111995857D01*
X82559071Y-111705571D01*
X82595357Y-111633000D01*
X82667928Y-111596714D01*
X82813071Y-111596714D01*
X82885642Y-111633000D01*
X82921928Y-111705571D01*
X82921928Y-111778142D01*
X82559071Y-111850714D01*
X83248500Y-112104714D02*
X83248500Y-111596714D01*
X83248500Y-111741857D02*
X83284785Y-111669285D01*
X83321071Y-111633000D01*
X83393642Y-111596714D01*
X83466214Y-111596714D01*
X83683928Y-112068428D02*
X83756500Y-112104714D01*
X83901642Y-112104714D01*
X83974214Y-112068428D01*
X84010500Y-111995857D01*
X84010500Y-111959571D01*
X83974214Y-111887000D01*
X83901642Y-111850714D01*
X83792785Y-111850714D01*
X83720214Y-111814428D01*
X83683928Y-111741857D01*
X83683928Y-111705571D01*
X83720214Y-111633000D01*
X83792785Y-111596714D01*
X83901642Y-111596714D01*
X83974214Y-111633000D01*
X84228214Y-111596714D02*
X84518500Y-111596714D01*
X84337071Y-111342714D02*
X84337071Y-111995857D01*
X84373357Y-112068428D01*
X84445928Y-112104714D01*
X84518500Y-112104714D01*
X84772500Y-112104714D02*
X84772500Y-111342714D01*
X85026500Y-111887000D01*
X85280500Y-111342714D01*
X85280500Y-112104714D01*
X86006214Y-111342714D02*
X85643357Y-111342714D01*
X85607071Y-111705571D01*
X85643357Y-111669285D01*
X85715928Y-111633000D01*
X85897357Y-111633000D01*
X85969928Y-111669285D01*
X86006214Y-111705571D01*
X86042500Y-111778142D01*
X86042500Y-111959571D01*
X86006214Y-112032142D01*
X85969928Y-112068428D01*
X85897357Y-112104714D01*
X85715928Y-112104714D01*
X85643357Y-112068428D01*
X85607071Y-112032142D01*
X75737357Y-110326714D02*
X76281642Y-110326714D01*
X75955071Y-110000142D02*
X75737357Y-110979857D01*
X76209071Y-110653285D02*
X75664785Y-110653285D01*
X75991357Y-110979857D02*
X76209071Y-110000142D01*
X76535642Y-110072714D02*
X76535642Y-110689571D01*
X76571928Y-110762142D01*
X76608214Y-110798428D01*
X76680785Y-110834714D01*
X76825928Y-110834714D01*
X76898500Y-110798428D01*
X76934785Y-110762142D01*
X76971071Y-110689571D01*
X76971071Y-110072714D01*
X77333928Y-110834714D02*
X77333928Y-110072714D01*
X77587928Y-110617000D01*
X77841928Y-110072714D01*
X77841928Y-110834714D01*
X78531357Y-110834714D02*
X78531357Y-110435571D01*
X78495071Y-110363000D01*
X78422500Y-110326714D01*
X78277357Y-110326714D01*
X78204785Y-110363000D01*
X78531357Y-110798428D02*
X78458785Y-110834714D01*
X78277357Y-110834714D01*
X78204785Y-110798428D01*
X78168500Y-110725857D01*
X78168500Y-110653285D01*
X78204785Y-110580714D01*
X78277357Y-110544428D01*
X78458785Y-110544428D01*
X78531357Y-110508142D01*
X78857928Y-110798428D02*
X78930500Y-110834714D01*
X79075642Y-110834714D01*
X79148214Y-110798428D01*
X79184500Y-110725857D01*
X79184500Y-110689571D01*
X79148214Y-110617000D01*
X79075642Y-110580714D01*
X78966785Y-110580714D01*
X78894214Y-110544428D01*
X78857928Y-110471857D01*
X78857928Y-110435571D01*
X78894214Y-110363000D01*
X78966785Y-110326714D01*
X79075642Y-110326714D01*
X79148214Y-110363000D01*
X79474785Y-110798428D02*
X79547357Y-110834714D01*
X79692500Y-110834714D01*
X79765071Y-110798428D01*
X79801357Y-110725857D01*
X79801357Y-110689571D01*
X79765071Y-110617000D01*
X79692500Y-110580714D01*
X79583642Y-110580714D01*
X79511071Y-110544428D01*
X79474785Y-110471857D01*
X79474785Y-110435571D01*
X79511071Y-110363000D01*
X79583642Y-110326714D01*
X79692500Y-110326714D01*
X79765071Y-110363000D01*
X80091642Y-110617000D02*
X80454500Y-110617000D01*
X80019071Y-110834714D02*
X80273071Y-110072714D01*
X80527071Y-110834714D01*
X80781071Y-110834714D02*
X80781071Y-110326714D01*
X80781071Y-110399285D02*
X80817357Y-110363000D01*
X80889928Y-110326714D01*
X80998785Y-110326714D01*
X81071357Y-110363000D01*
X81107642Y-110435571D01*
X81107642Y-110834714D01*
X81107642Y-110435571D02*
X81143928Y-110363000D01*
X81216500Y-110326714D01*
X81325357Y-110326714D01*
X81397928Y-110363000D01*
X81434214Y-110435571D01*
X81434214Y-110834714D01*
X81797071Y-110834714D02*
X81797071Y-110072714D01*
X82123642Y-110834714D02*
X82123642Y-110435571D01*
X82087357Y-110363000D01*
X82014785Y-110326714D01*
X81905928Y-110326714D01*
X81833357Y-110363000D01*
X81797071Y-110399285D01*
X82776785Y-110798428D02*
X82704214Y-110834714D01*
X82559071Y-110834714D01*
X82486500Y-110798428D01*
X82450214Y-110725857D01*
X82450214Y-110435571D01*
X82486500Y-110363000D01*
X82559071Y-110326714D01*
X82704214Y-110326714D01*
X82776785Y-110363000D01*
X82813071Y-110435571D01*
X82813071Y-110508142D01*
X82450214Y-110580714D01*
X83139642Y-110834714D02*
X83139642Y-110326714D01*
X83139642Y-110471857D02*
X83175928Y-110399285D01*
X83212214Y-110363000D01*
X83284785Y-110326714D01*
X83357357Y-110326714D01*
X83575071Y-110798428D02*
X83647642Y-110834714D01*
X83792785Y-110834714D01*
X83865357Y-110798428D01*
X83901642Y-110725857D01*
X83901642Y-110689571D01*
X83865357Y-110617000D01*
X83792785Y-110580714D01*
X83683928Y-110580714D01*
X83611357Y-110544428D01*
X83575071Y-110471857D01*
X83575071Y-110435571D01*
X83611357Y-110363000D01*
X83683928Y-110326714D01*
X83792785Y-110326714D01*
X83865357Y-110363000D01*
X84119357Y-110326714D02*
X84409642Y-110326714D01*
X84228214Y-110072714D02*
X84228214Y-110725857D01*
X84264500Y-110798428D01*
X84337071Y-110834714D01*
X84409642Y-110834714D01*
X84663642Y-110834714D02*
X84663642Y-110072714D01*
X84917642Y-110617000D01*
X85171642Y-110072714D01*
X85171642Y-110834714D01*
X85897357Y-110072714D02*
X85534500Y-110072714D01*
X85498214Y-110435571D01*
X85534500Y-110399285D01*
X85607071Y-110363000D01*
X85788500Y-110363000D01*
X85861071Y-110399285D01*
X85897357Y-110435571D01*
X85933642Y-110508142D01*
X85933642Y-110689571D01*
X85897357Y-110762142D01*
X85861071Y-110798428D01*
X85788500Y-110834714D01*
X85607071Y-110834714D01*
X85534500Y-110798428D01*
X85498214Y-110762142D01*
D12*
G04 #@! TO.C,G\u002A\u002A\u002A*
G36*
X87083612Y-113054282D02*
G01*
X87668964Y-113157303D01*
X88241071Y-113319947D01*
X88795001Y-113541798D01*
X88915875Y-113599463D01*
X89448188Y-113895072D01*
X89939894Y-114236601D01*
X90389131Y-114620243D01*
X90794037Y-115042193D01*
X91152750Y-115498647D01*
X91463408Y-115985799D01*
X91724150Y-116499843D01*
X91933114Y-117036975D01*
X92088437Y-117593389D01*
X92188259Y-118165280D01*
X92230716Y-118748843D01*
X92213948Y-119340272D01*
X92136093Y-119935763D01*
X92101485Y-120110250D01*
X91948138Y-120679889D01*
X91738530Y-121226938D01*
X91476295Y-121747776D01*
X91165066Y-122238779D01*
X90808477Y-122696328D01*
X90410160Y-123116799D01*
X89973750Y-123496572D01*
X89502880Y-123832025D01*
X89001183Y-124119536D01*
X88472293Y-124355483D01*
X87919843Y-124536246D01*
X87580822Y-124616253D01*
X87187201Y-124680987D01*
X86772362Y-124722364D01*
X86361194Y-124738741D01*
X85978586Y-124728478D01*
X85931375Y-124725033D01*
X85315753Y-124645816D01*
X84723030Y-124507641D01*
X84154560Y-124311079D01*
X83611695Y-124056699D01*
X83095788Y-123745072D01*
X82608193Y-123376767D01*
X82489986Y-123275117D01*
X82112799Y-122907512D01*
X81761307Y-122495945D01*
X81444365Y-122053014D01*
X81170827Y-121591316D01*
X80949547Y-121123448D01*
X80912634Y-121031000D01*
X80715626Y-120437978D01*
X80581630Y-119842268D01*
X80510570Y-119245878D01*
X80502369Y-118650816D01*
X80556953Y-118059090D01*
X80674246Y-117472708D01*
X80854171Y-116893678D01*
X81089537Y-116338730D01*
X81180415Y-116172656D01*
X82329705Y-116172656D01*
X82339407Y-116244272D01*
X82372186Y-116309373D01*
X82436617Y-116392871D01*
X82452329Y-116411887D01*
X82527795Y-116514514D01*
X82588235Y-116617391D01*
X82614861Y-116681250D01*
X82622899Y-116731296D01*
X82635633Y-116838263D01*
X82652495Y-116995790D01*
X82672914Y-117197517D01*
X82696320Y-117437083D01*
X82722142Y-117708128D01*
X82749812Y-118004291D01*
X82778758Y-118319212D01*
X82808410Y-118646531D01*
X82838199Y-118979887D01*
X82867555Y-119312919D01*
X82895907Y-119639267D01*
X82922685Y-119952570D01*
X82947320Y-120246469D01*
X82969241Y-120514602D01*
X82987878Y-120750610D01*
X83002661Y-120948131D01*
X83013020Y-121100805D01*
X83016690Y-121164610D01*
X83024331Y-121323668D01*
X83026616Y-121433265D01*
X83021666Y-121507346D01*
X83007598Y-121559855D01*
X82982535Y-121604735D01*
X82951694Y-121646628D01*
X82856036Y-121798429D01*
X82815122Y-121935023D01*
X82819207Y-122038732D01*
X82832976Y-122096984D01*
X82857501Y-122127860D01*
X82909726Y-122140051D01*
X83006596Y-122142245D01*
X83021069Y-122142250D01*
X83134506Y-122137918D01*
X83280283Y-122126185D01*
X83443911Y-122108942D01*
X83610904Y-122088084D01*
X83766774Y-122065501D01*
X83897034Y-122043086D01*
X83987195Y-122022732D01*
X84016054Y-122012277D01*
X84058774Y-121957451D01*
X84074184Y-121868959D01*
X84059941Y-121771522D01*
X84042757Y-121730448D01*
X83999452Y-121682397D01*
X83920428Y-121619552D01*
X83851377Y-121573537D01*
X83759245Y-121507863D01*
X83689576Y-121441817D01*
X83664098Y-121403616D01*
X83640409Y-121313734D01*
X83615376Y-121169548D01*
X83589979Y-120980208D01*
X83565197Y-120754866D01*
X83542009Y-120502677D01*
X83521397Y-120232790D01*
X83504339Y-119954359D01*
X83500139Y-119872125D01*
X83483510Y-119528883D01*
X83469915Y-119243847D01*
X83459196Y-119011799D01*
X83451193Y-118827526D01*
X83445748Y-118685812D01*
X83442702Y-118581441D01*
X83441896Y-118509199D01*
X83443172Y-118463871D01*
X83446370Y-118440240D01*
X83451332Y-118433093D01*
X83456402Y-118435677D01*
X83472844Y-118470093D01*
X83508338Y-118557321D01*
X83560258Y-118690485D01*
X83625979Y-118862712D01*
X83702878Y-119067125D01*
X83788328Y-119296850D01*
X83874023Y-119529510D01*
X83966300Y-119778792D01*
X84053895Y-120010861D01*
X84133961Y-120218518D01*
X84203654Y-120394564D01*
X84260127Y-120531799D01*
X84300534Y-120623026D01*
X84320929Y-120659973D01*
X84390702Y-120696971D01*
X84496197Y-120710684D01*
X84614783Y-120702873D01*
X84723826Y-120675295D01*
X84800697Y-120629710D01*
X84807469Y-120622158D01*
X84831588Y-120567631D01*
X84863139Y-120458696D01*
X84900455Y-120303790D01*
X84941868Y-120111350D01*
X84985711Y-119889812D01*
X85030317Y-119647613D01*
X85074018Y-119393191D01*
X85115147Y-119134982D01*
X85152037Y-118881422D01*
X85153332Y-118872000D01*
X85185652Y-118640231D01*
X85211898Y-118466104D01*
X85233913Y-118344255D01*
X85253543Y-118269321D01*
X85272631Y-118235938D01*
X85293021Y-118238743D01*
X85316557Y-118272373D01*
X85341727Y-118324065D01*
X85357907Y-118369327D01*
X85373099Y-118434649D01*
X85387778Y-118525161D01*
X85402416Y-118645996D01*
X85417487Y-118802285D01*
X85433465Y-118999160D01*
X85450825Y-119241753D01*
X85470039Y-119535194D01*
X85491582Y-119884617D01*
X85502193Y-120062003D01*
X85521036Y-120377029D01*
X85536401Y-120634651D01*
X85548121Y-120840880D01*
X85556032Y-121001725D01*
X85559967Y-121123196D01*
X85559760Y-121211303D01*
X85555247Y-121272056D01*
X85546261Y-121311464D01*
X85532636Y-121335538D01*
X85514208Y-121350288D01*
X85490809Y-121361723D01*
X85466027Y-121373789D01*
X85349508Y-121446543D01*
X85282469Y-121519303D01*
X85253151Y-121608858D01*
X85248750Y-121683962D01*
X85256265Y-121787755D01*
X85275099Y-121873829D01*
X85283525Y-121893903D01*
X85295188Y-121912310D01*
X85312842Y-121926770D01*
X85343408Y-121937664D01*
X85393807Y-121945374D01*
X85470961Y-121950280D01*
X85581791Y-121952762D01*
X85733218Y-121953203D01*
X85932164Y-121951983D01*
X86185550Y-121949483D01*
X86275713Y-121948513D01*
X87233125Y-121938144D01*
X87439500Y-122052464D01*
X87551889Y-122109138D01*
X87673273Y-122157328D01*
X87818332Y-122201714D01*
X88001747Y-122246976D01*
X88153875Y-122280221D01*
X88310323Y-122295664D01*
X88507536Y-122283091D01*
X88753209Y-122241991D01*
X88764111Y-122239755D01*
X89019361Y-122169758D01*
X89275898Y-122068095D01*
X89519724Y-121942526D01*
X89736841Y-121800809D01*
X89913248Y-121650703D01*
X89995844Y-121557081D01*
X90065769Y-121438727D01*
X90138314Y-121267337D01*
X90210016Y-121053086D01*
X90277412Y-120806145D01*
X90328227Y-120580588D01*
X90355562Y-120436338D01*
X90374160Y-120305753D01*
X90385171Y-120171741D01*
X90389747Y-120017206D01*
X90389038Y-119825054D01*
X90387021Y-119707463D01*
X90376375Y-119173625D01*
X90217727Y-118872000D01*
X90036974Y-118581661D01*
X89830078Y-118347671D01*
X89598063Y-118171119D01*
X89514921Y-118125018D01*
X89424717Y-118082324D01*
X89343531Y-118054012D01*
X89253157Y-118036540D01*
X89135389Y-118026367D01*
X88975262Y-118020049D01*
X88566149Y-118033389D01*
X88161893Y-118095153D01*
X88014274Y-118131003D01*
X87938174Y-118151594D01*
X87960990Y-117810989D01*
X87980122Y-117564458D01*
X88000863Y-117376829D01*
X88023993Y-117243507D01*
X88050297Y-117159899D01*
X88078244Y-117122763D01*
X88120270Y-117115605D01*
X88217352Y-117109096D01*
X88361046Y-117103486D01*
X88542907Y-117099026D01*
X88754495Y-117095963D01*
X88987363Y-117094548D01*
X89034937Y-117094486D01*
X89300782Y-117094108D01*
X89510406Y-117092988D01*
X89671088Y-117090675D01*
X89790107Y-117086717D01*
X89874741Y-117080662D01*
X89932269Y-117072060D01*
X89969970Y-117060458D01*
X89995123Y-117045405D01*
X90007610Y-117034139D01*
X90041077Y-116975944D01*
X90080944Y-116868659D01*
X90123721Y-116725920D01*
X90165917Y-116561361D01*
X90204043Y-116388619D01*
X90234611Y-116221329D01*
X90254129Y-116073127D01*
X90254466Y-116069564D01*
X90259580Y-115924178D01*
X90237006Y-115830595D01*
X90178656Y-115780220D01*
X90076442Y-115764456D01*
X89972242Y-115769612D01*
X89856233Y-115787401D01*
X89755766Y-115815204D01*
X89710947Y-115836089D01*
X89683522Y-115849811D01*
X89643561Y-115860413D01*
X89584285Y-115868076D01*
X89498914Y-115872981D01*
X89380671Y-115875312D01*
X89222775Y-115875249D01*
X89018447Y-115872975D01*
X88760910Y-115868670D01*
X88605534Y-115865725D01*
X87575904Y-115845707D01*
X87555862Y-115925562D01*
X87547169Y-115981430D01*
X87534933Y-116089280D01*
X87520273Y-116237764D01*
X87504305Y-116415536D01*
X87488147Y-116611246D01*
X87487366Y-116621146D01*
X87468741Y-116845992D01*
X87447706Y-117080527D01*
X87426112Y-117305320D01*
X87405811Y-117500937D01*
X87392416Y-117617875D01*
X87345653Y-118006334D01*
X87307482Y-118335702D01*
X87277581Y-118609755D01*
X87255625Y-118832272D01*
X87241291Y-119007032D01*
X87234257Y-119137814D01*
X87234199Y-119228395D01*
X87240794Y-119282555D01*
X87248528Y-119300056D01*
X87305412Y-119329516D01*
X87400741Y-119345664D01*
X87510680Y-119347568D01*
X87611392Y-119334297D01*
X87662245Y-119316234D01*
X87705075Y-119273796D01*
X87763969Y-119190643D01*
X87827459Y-119083283D01*
X87838875Y-119061930D01*
X87972146Y-118853163D01*
X88120518Y-118705841D01*
X88284571Y-118619595D01*
X88464885Y-118594053D01*
X88556159Y-118603039D01*
X88650817Y-118625297D01*
X88728639Y-118660993D01*
X88791390Y-118716051D01*
X88840838Y-118796396D01*
X88878751Y-118907953D01*
X88906895Y-119056645D01*
X88927037Y-119248397D01*
X88940944Y-119489134D01*
X88950384Y-119784779D01*
X88953612Y-119935625D01*
X88958092Y-120204496D01*
X88959777Y-120421923D01*
X88958216Y-120599915D01*
X88952961Y-120750484D01*
X88943563Y-120885642D01*
X88929572Y-121017398D01*
X88910541Y-121157765D01*
X88907030Y-121181610D01*
X88881083Y-121341172D01*
X88854260Y-121480188D01*
X88829425Y-121585383D01*
X88809444Y-121643478D01*
X88806365Y-121648178D01*
X88744754Y-121686388D01*
X88637708Y-121719432D01*
X88503274Y-121743783D01*
X88359496Y-121755914D01*
X88259504Y-121755056D01*
X88090375Y-121745375D01*
X88100795Y-121233369D01*
X88111215Y-120721364D01*
X88008551Y-120604436D01*
X87876945Y-120485319D01*
X87729777Y-120402476D01*
X87585753Y-120365887D01*
X87559827Y-120364991D01*
X87456567Y-120384484D01*
X87336438Y-120433766D01*
X87221122Y-120500909D01*
X87132305Y-120573985D01*
X87099438Y-120618250D01*
X87079612Y-120691732D01*
X87065712Y-120814065D01*
X87059244Y-120970755D01*
X87058968Y-121008183D01*
X87055477Y-121169781D01*
X87043182Y-121275221D01*
X87018474Y-121331635D01*
X86977749Y-121346151D01*
X86917400Y-121325901D01*
X86902230Y-121318077D01*
X86871107Y-121301562D01*
X86844129Y-121284726D01*
X86820908Y-121263127D01*
X86801056Y-121232325D01*
X86784184Y-121187878D01*
X86769904Y-121125345D01*
X86757826Y-121040283D01*
X86747563Y-120928252D01*
X86738726Y-120784810D01*
X86730926Y-120605515D01*
X86723774Y-120385927D01*
X86716883Y-120121603D01*
X86709863Y-119808102D01*
X86702326Y-119440984D01*
X86693884Y-119015805D01*
X86691853Y-118913320D01*
X86684447Y-118538142D01*
X86677403Y-118177298D01*
X86670827Y-117836495D01*
X86664825Y-117521441D01*
X86659503Y-117237844D01*
X86654969Y-116991411D01*
X86651329Y-116787851D01*
X86648689Y-116632871D01*
X86647156Y-116532178D01*
X86646809Y-116499792D01*
X86649998Y-116383118D01*
X86666187Y-116304822D01*
X86702992Y-116240009D01*
X86740006Y-116195107D01*
X86823463Y-116120239D01*
X86914940Y-116066301D01*
X86938040Y-116057992D01*
X87024063Y-116013752D01*
X87083359Y-115949927D01*
X87109750Y-115851760D01*
X87109757Y-115728218D01*
X87086553Y-115605926D01*
X87043309Y-115511510D01*
X87029140Y-115494779D01*
X87007871Y-115475428D01*
X86982566Y-115461113D01*
X86945228Y-115451686D01*
X86887859Y-115446999D01*
X86802459Y-115446903D01*
X86681030Y-115451253D01*
X86515573Y-115459898D01*
X86298091Y-115472692D01*
X86189508Y-115479255D01*
X85918094Y-115497202D01*
X85696818Y-115515015D01*
X85528984Y-115532352D01*
X85417901Y-115548870D01*
X85366873Y-115564225D01*
X85366193Y-115564756D01*
X85324874Y-115623867D01*
X85301690Y-115689774D01*
X85290865Y-115741446D01*
X85268776Y-115847036D01*
X85237147Y-115998306D01*
X85197699Y-116187015D01*
X85152155Y-116404925D01*
X85102237Y-116643796D01*
X85075911Y-116769790D01*
X85024383Y-117015894D01*
X84976215Y-117244984D01*
X84933148Y-117448860D01*
X84896919Y-117619324D01*
X84869270Y-117748180D01*
X84851938Y-117827227D01*
X84847645Y-117845672D01*
X84826947Y-117928139D01*
X84752239Y-117804757D01*
X84647924Y-117609441D01*
X84539742Y-117365049D01*
X84432950Y-117085346D01*
X84332804Y-116784098D01*
X84244882Y-116476295D01*
X84183841Y-116243709D01*
X84135995Y-116065008D01*
X84098743Y-115932575D01*
X84069479Y-115838792D01*
X84045603Y-115776043D01*
X84024510Y-115736709D01*
X84003598Y-115713172D01*
X83980263Y-115697816D01*
X83978548Y-115696892D01*
X83925629Y-115688121D01*
X83821618Y-115686517D01*
X83677543Y-115691094D01*
X83504430Y-115700867D01*
X83313306Y-115714849D01*
X83115197Y-115732056D01*
X82921131Y-115751502D01*
X82742133Y-115772200D01*
X82589231Y-115793166D01*
X82473451Y-115813414D01*
X82405821Y-115831958D01*
X82394951Y-115838441D01*
X82365779Y-115896762D01*
X82342975Y-115995792D01*
X82334504Y-116069613D01*
X82329705Y-116172656D01*
X81180415Y-116172656D01*
X81375668Y-115815847D01*
X81712340Y-115326142D01*
X82095111Y-114873410D01*
X82519541Y-114461446D01*
X82981186Y-114094044D01*
X83475608Y-113775001D01*
X83998363Y-113508109D01*
X84545011Y-113297165D01*
X84708434Y-113246688D01*
X85297428Y-113107085D01*
X85892911Y-113028759D01*
X86489950Y-113011296D01*
X87083612Y-113054282D01*
G37*
X87083612Y-113054282D02*
X87668964Y-113157303D01*
X88241071Y-113319947D01*
X88795001Y-113541798D01*
X88915875Y-113599463D01*
X89448188Y-113895072D01*
X89939894Y-114236601D01*
X90389131Y-114620243D01*
X90794037Y-115042193D01*
X91152750Y-115498647D01*
X91463408Y-115985799D01*
X91724150Y-116499843D01*
X91933114Y-117036975D01*
X92088437Y-117593389D01*
X92188259Y-118165280D01*
X92230716Y-118748843D01*
X92213948Y-119340272D01*
X92136093Y-119935763D01*
X92101485Y-120110250D01*
X91948138Y-120679889D01*
X91738530Y-121226938D01*
X91476295Y-121747776D01*
X91165066Y-122238779D01*
X90808477Y-122696328D01*
X90410160Y-123116799D01*
X89973750Y-123496572D01*
X89502880Y-123832025D01*
X89001183Y-124119536D01*
X88472293Y-124355483D01*
X87919843Y-124536246D01*
X87580822Y-124616253D01*
X87187201Y-124680987D01*
X86772362Y-124722364D01*
X86361194Y-124738741D01*
X85978586Y-124728478D01*
X85931375Y-124725033D01*
X85315753Y-124645816D01*
X84723030Y-124507641D01*
X84154560Y-124311079D01*
X83611695Y-124056699D01*
X83095788Y-123745072D01*
X82608193Y-123376767D01*
X82489986Y-123275117D01*
X82112799Y-122907512D01*
X81761307Y-122495945D01*
X81444365Y-122053014D01*
X81170827Y-121591316D01*
X80949547Y-121123448D01*
X80912634Y-121031000D01*
X80715626Y-120437978D01*
X80581630Y-119842268D01*
X80510570Y-119245878D01*
X80502369Y-118650816D01*
X80556953Y-118059090D01*
X80674246Y-117472708D01*
X80854171Y-116893678D01*
X81089537Y-116338730D01*
X81180415Y-116172656D01*
X82329705Y-116172656D01*
X82339407Y-116244272D01*
X82372186Y-116309373D01*
X82436617Y-116392871D01*
X82452329Y-116411887D01*
X82527795Y-116514514D01*
X82588235Y-116617391D01*
X82614861Y-116681250D01*
X82622899Y-116731296D01*
X82635633Y-116838263D01*
X82652495Y-116995790D01*
X82672914Y-117197517D01*
X82696320Y-117437083D01*
X82722142Y-117708128D01*
X82749812Y-118004291D01*
X82778758Y-118319212D01*
X82808410Y-118646531D01*
X82838199Y-118979887D01*
X82867555Y-119312919D01*
X82895907Y-119639267D01*
X82922685Y-119952570D01*
X82947320Y-120246469D01*
X82969241Y-120514602D01*
X82987878Y-120750610D01*
X83002661Y-120948131D01*
X83013020Y-121100805D01*
X83016690Y-121164610D01*
X83024331Y-121323668D01*
X83026616Y-121433265D01*
X83021666Y-121507346D01*
X83007598Y-121559855D01*
X82982535Y-121604735D01*
X82951694Y-121646628D01*
X82856036Y-121798429D01*
X82815122Y-121935023D01*
X82819207Y-122038732D01*
X82832976Y-122096984D01*
X82857501Y-122127860D01*
X82909726Y-122140051D01*
X83006596Y-122142245D01*
X83021069Y-122142250D01*
X83134506Y-122137918D01*
X83280283Y-122126185D01*
X83443911Y-122108942D01*
X83610904Y-122088084D01*
X83766774Y-122065501D01*
X83897034Y-122043086D01*
X83987195Y-122022732D01*
X84016054Y-122012277D01*
X84058774Y-121957451D01*
X84074184Y-121868959D01*
X84059941Y-121771522D01*
X84042757Y-121730448D01*
X83999452Y-121682397D01*
X83920428Y-121619552D01*
X83851377Y-121573537D01*
X83759245Y-121507863D01*
X83689576Y-121441817D01*
X83664098Y-121403616D01*
X83640409Y-121313734D01*
X83615376Y-121169548D01*
X83589979Y-120980208D01*
X83565197Y-120754866D01*
X83542009Y-120502677D01*
X83521397Y-120232790D01*
X83504339Y-119954359D01*
X83500139Y-119872125D01*
X83483510Y-119528883D01*
X83469915Y-119243847D01*
X83459196Y-119011799D01*
X83451193Y-118827526D01*
X83445748Y-118685812D01*
X83442702Y-118581441D01*
X83441896Y-118509199D01*
X83443172Y-118463871D01*
X83446370Y-118440240D01*
X83451332Y-118433093D01*
X83456402Y-118435677D01*
X83472844Y-118470093D01*
X83508338Y-118557321D01*
X83560258Y-118690485D01*
X83625979Y-118862712D01*
X83702878Y-119067125D01*
X83788328Y-119296850D01*
X83874023Y-119529510D01*
X83966300Y-119778792D01*
X84053895Y-120010861D01*
X84133961Y-120218518D01*
X84203654Y-120394564D01*
X84260127Y-120531799D01*
X84300534Y-120623026D01*
X84320929Y-120659973D01*
X84390702Y-120696971D01*
X84496197Y-120710684D01*
X84614783Y-120702873D01*
X84723826Y-120675295D01*
X84800697Y-120629710D01*
X84807469Y-120622158D01*
X84831588Y-120567631D01*
X84863139Y-120458696D01*
X84900455Y-120303790D01*
X84941868Y-120111350D01*
X84985711Y-119889812D01*
X85030317Y-119647613D01*
X85074018Y-119393191D01*
X85115147Y-119134982D01*
X85152037Y-118881422D01*
X85153332Y-118872000D01*
X85185652Y-118640231D01*
X85211898Y-118466104D01*
X85233913Y-118344255D01*
X85253543Y-118269321D01*
X85272631Y-118235938D01*
X85293021Y-118238743D01*
X85316557Y-118272373D01*
X85341727Y-118324065D01*
X85357907Y-118369327D01*
X85373099Y-118434649D01*
X85387778Y-118525161D01*
X85402416Y-118645996D01*
X85417487Y-118802285D01*
X85433465Y-118999160D01*
X85450825Y-119241753D01*
X85470039Y-119535194D01*
X85491582Y-119884617D01*
X85502193Y-120062003D01*
X85521036Y-120377029D01*
X85536401Y-120634651D01*
X85548121Y-120840880D01*
X85556032Y-121001725D01*
X85559967Y-121123196D01*
X85559760Y-121211303D01*
X85555247Y-121272056D01*
X85546261Y-121311464D01*
X85532636Y-121335538D01*
X85514208Y-121350288D01*
X85490809Y-121361723D01*
X85466027Y-121373789D01*
X85349508Y-121446543D01*
X85282469Y-121519303D01*
X85253151Y-121608858D01*
X85248750Y-121683962D01*
X85256265Y-121787755D01*
X85275099Y-121873829D01*
X85283525Y-121893903D01*
X85295188Y-121912310D01*
X85312842Y-121926770D01*
X85343408Y-121937664D01*
X85393807Y-121945374D01*
X85470961Y-121950280D01*
X85581791Y-121952762D01*
X85733218Y-121953203D01*
X85932164Y-121951983D01*
X86185550Y-121949483D01*
X86275713Y-121948513D01*
X87233125Y-121938144D01*
X87439500Y-122052464D01*
X87551889Y-122109138D01*
X87673273Y-122157328D01*
X87818332Y-122201714D01*
X88001747Y-122246976D01*
X88153875Y-122280221D01*
X88310323Y-122295664D01*
X88507536Y-122283091D01*
X88753209Y-122241991D01*
X88764111Y-122239755D01*
X89019361Y-122169758D01*
X89275898Y-122068095D01*
X89519724Y-121942526D01*
X89736841Y-121800809D01*
X89913248Y-121650703D01*
X89995844Y-121557081D01*
X90065769Y-121438727D01*
X90138314Y-121267337D01*
X90210016Y-121053086D01*
X90277412Y-120806145D01*
X90328227Y-120580588D01*
X90355562Y-120436338D01*
X90374160Y-120305753D01*
X90385171Y-120171741D01*
X90389747Y-120017206D01*
X90389038Y-119825054D01*
X90387021Y-119707463D01*
X90376375Y-119173625D01*
X90217727Y-118872000D01*
X90036974Y-118581661D01*
X89830078Y-118347671D01*
X89598063Y-118171119D01*
X89514921Y-118125018D01*
X89424717Y-118082324D01*
X89343531Y-118054012D01*
X89253157Y-118036540D01*
X89135389Y-118026367D01*
X88975262Y-118020049D01*
X88566149Y-118033389D01*
X88161893Y-118095153D01*
X88014274Y-118131003D01*
X87938174Y-118151594D01*
X87960990Y-117810989D01*
X87980122Y-117564458D01*
X88000863Y-117376829D01*
X88023993Y-117243507D01*
X88050297Y-117159899D01*
X88078244Y-117122763D01*
X88120270Y-117115605D01*
X88217352Y-117109096D01*
X88361046Y-117103486D01*
X88542907Y-117099026D01*
X88754495Y-117095963D01*
X88987363Y-117094548D01*
X89034937Y-117094486D01*
X89300782Y-117094108D01*
X89510406Y-117092988D01*
X89671088Y-117090675D01*
X89790107Y-117086717D01*
X89874741Y-117080662D01*
X89932269Y-117072060D01*
X89969970Y-117060458D01*
X89995123Y-117045405D01*
X90007610Y-117034139D01*
X90041077Y-116975944D01*
X90080944Y-116868659D01*
X90123721Y-116725920D01*
X90165917Y-116561361D01*
X90204043Y-116388619D01*
X90234611Y-116221329D01*
X90254129Y-116073127D01*
X90254466Y-116069564D01*
X90259580Y-115924178D01*
X90237006Y-115830595D01*
X90178656Y-115780220D01*
X90076442Y-115764456D01*
X89972242Y-115769612D01*
X89856233Y-115787401D01*
X89755766Y-115815204D01*
X89710947Y-115836089D01*
X89683522Y-115849811D01*
X89643561Y-115860413D01*
X89584285Y-115868076D01*
X89498914Y-115872981D01*
X89380671Y-115875312D01*
X89222775Y-115875249D01*
X89018447Y-115872975D01*
X88760910Y-115868670D01*
X88605534Y-115865725D01*
X87575904Y-115845707D01*
X87555862Y-115925562D01*
X87547169Y-115981430D01*
X87534933Y-116089280D01*
X87520273Y-116237764D01*
X87504305Y-116415536D01*
X87488147Y-116611246D01*
X87487366Y-116621146D01*
X87468741Y-116845992D01*
X87447706Y-117080527D01*
X87426112Y-117305320D01*
X87405811Y-117500937D01*
X87392416Y-117617875D01*
X87345653Y-118006334D01*
X87307482Y-118335702D01*
X87277581Y-118609755D01*
X87255625Y-118832272D01*
X87241291Y-119007032D01*
X87234257Y-119137814D01*
X87234199Y-119228395D01*
X87240794Y-119282555D01*
X87248528Y-119300056D01*
X87305412Y-119329516D01*
X87400741Y-119345664D01*
X87510680Y-119347568D01*
X87611392Y-119334297D01*
X87662245Y-119316234D01*
X87705075Y-119273796D01*
X87763969Y-119190643D01*
X87827459Y-119083283D01*
X87838875Y-119061930D01*
X87972146Y-118853163D01*
X88120518Y-118705841D01*
X88284571Y-118619595D01*
X88464885Y-118594053D01*
X88556159Y-118603039D01*
X88650817Y-118625297D01*
X88728639Y-118660993D01*
X88791390Y-118716051D01*
X88840838Y-118796396D01*
X88878751Y-118907953D01*
X88906895Y-119056645D01*
X88927037Y-119248397D01*
X88940944Y-119489134D01*
X88950384Y-119784779D01*
X88953612Y-119935625D01*
X88958092Y-120204496D01*
X88959777Y-120421923D01*
X88958216Y-120599915D01*
X88952961Y-120750484D01*
X88943563Y-120885642D01*
X88929572Y-121017398D01*
X88910541Y-121157765D01*
X88907030Y-121181610D01*
X88881083Y-121341172D01*
X88854260Y-121480188D01*
X88829425Y-121585383D01*
X88809444Y-121643478D01*
X88806365Y-121648178D01*
X88744754Y-121686388D01*
X88637708Y-121719432D01*
X88503274Y-121743783D01*
X88359496Y-121755914D01*
X88259504Y-121755056D01*
X88090375Y-121745375D01*
X88100795Y-121233369D01*
X88111215Y-120721364D01*
X88008551Y-120604436D01*
X87876945Y-120485319D01*
X87729777Y-120402476D01*
X87585753Y-120365887D01*
X87559827Y-120364991D01*
X87456567Y-120384484D01*
X87336438Y-120433766D01*
X87221122Y-120500909D01*
X87132305Y-120573985D01*
X87099438Y-120618250D01*
X87079612Y-120691732D01*
X87065712Y-120814065D01*
X87059244Y-120970755D01*
X87058968Y-121008183D01*
X87055477Y-121169781D01*
X87043182Y-121275221D01*
X87018474Y-121331635D01*
X86977749Y-121346151D01*
X86917400Y-121325901D01*
X86902230Y-121318077D01*
X86871107Y-121301562D01*
X86844129Y-121284726D01*
X86820908Y-121263127D01*
X86801056Y-121232325D01*
X86784184Y-121187878D01*
X86769904Y-121125345D01*
X86757826Y-121040283D01*
X86747563Y-120928252D01*
X86738726Y-120784810D01*
X86730926Y-120605515D01*
X86723774Y-120385927D01*
X86716883Y-120121603D01*
X86709863Y-119808102D01*
X86702326Y-119440984D01*
X86693884Y-119015805D01*
X86691853Y-118913320D01*
X86684447Y-118538142D01*
X86677403Y-118177298D01*
X86670827Y-117836495D01*
X86664825Y-117521441D01*
X86659503Y-117237844D01*
X86654969Y-116991411D01*
X86651329Y-116787851D01*
X86648689Y-116632871D01*
X86647156Y-116532178D01*
X86646809Y-116499792D01*
X86649998Y-116383118D01*
X86666187Y-116304822D01*
X86702992Y-116240009D01*
X86740006Y-116195107D01*
X86823463Y-116120239D01*
X86914940Y-116066301D01*
X86938040Y-116057992D01*
X87024063Y-116013752D01*
X87083359Y-115949927D01*
X87109750Y-115851760D01*
X87109757Y-115728218D01*
X87086553Y-115605926D01*
X87043309Y-115511510D01*
X87029140Y-115494779D01*
X87007871Y-115475428D01*
X86982566Y-115461113D01*
X86945228Y-115451686D01*
X86887859Y-115446999D01*
X86802459Y-115446903D01*
X86681030Y-115451253D01*
X86515573Y-115459898D01*
X86298091Y-115472692D01*
X86189508Y-115479255D01*
X85918094Y-115497202D01*
X85696818Y-115515015D01*
X85528984Y-115532352D01*
X85417901Y-115548870D01*
X85366873Y-115564225D01*
X85366193Y-115564756D01*
X85324874Y-115623867D01*
X85301690Y-115689774D01*
X85290865Y-115741446D01*
X85268776Y-115847036D01*
X85237147Y-115998306D01*
X85197699Y-116187015D01*
X85152155Y-116404925D01*
X85102237Y-116643796D01*
X85075911Y-116769790D01*
X85024383Y-117015894D01*
X84976215Y-117244984D01*
X84933148Y-117448860D01*
X84896919Y-117619324D01*
X84869270Y-117748180D01*
X84851938Y-117827227D01*
X84847645Y-117845672D01*
X84826947Y-117928139D01*
X84752239Y-117804757D01*
X84647924Y-117609441D01*
X84539742Y-117365049D01*
X84432950Y-117085346D01*
X84332804Y-116784098D01*
X84244882Y-116476295D01*
X84183841Y-116243709D01*
X84135995Y-116065008D01*
X84098743Y-115932575D01*
X84069479Y-115838792D01*
X84045603Y-115776043D01*
X84024510Y-115736709D01*
X84003598Y-115713172D01*
X83980263Y-115697816D01*
X83978548Y-115696892D01*
X83925629Y-115688121D01*
X83821618Y-115686517D01*
X83677543Y-115691094D01*
X83504430Y-115700867D01*
X83313306Y-115714849D01*
X83115197Y-115732056D01*
X82921131Y-115751502D01*
X82742133Y-115772200D01*
X82589231Y-115793166D01*
X82473451Y-115813414D01*
X82405821Y-115831958D01*
X82394951Y-115838441D01*
X82365779Y-115896762D01*
X82342975Y-115995792D01*
X82334504Y-116069613D01*
X82329705Y-116172656D01*
X81180415Y-116172656D01*
X81375668Y-115815847D01*
X81712340Y-115326142D01*
X82095111Y-114873410D01*
X82519541Y-114461446D01*
X82981186Y-114094044D01*
X83475608Y-113775001D01*
X83998363Y-113508109D01*
X84545011Y-113297165D01*
X84708434Y-113246688D01*
X85297428Y-113107085D01*
X85892911Y-113028759D01*
X86489950Y-113011296D01*
X87083612Y-113054282D01*
G36*
X73987145Y-109823704D02*
G01*
X74060893Y-109823849D01*
X74133095Y-109824093D01*
X74202970Y-109824434D01*
X74269738Y-109824873D01*
X74332618Y-109825411D01*
X74390830Y-109826047D01*
X74443594Y-109826782D01*
X74490128Y-109827614D01*
X74529654Y-109828545D01*
X74561389Y-109829574D01*
X74584555Y-109830701D01*
X74598370Y-109831926D01*
X74598689Y-109831973D01*
X74682315Y-109849484D01*
X74761860Y-109875980D01*
X74836786Y-109910923D01*
X74906556Y-109953775D01*
X74970632Y-110003998D01*
X75028477Y-110061055D01*
X75079552Y-110124409D01*
X75123321Y-110193521D01*
X75159245Y-110267855D01*
X75186787Y-110346871D01*
X75205410Y-110430034D01*
X75207026Y-110440310D01*
X75208255Y-110453767D01*
X75209386Y-110476603D01*
X75210418Y-110508038D01*
X75211352Y-110547292D01*
X75212188Y-110593583D01*
X75212926Y-110646132D01*
X75213566Y-110704158D01*
X75214108Y-110766880D01*
X75214551Y-110833519D01*
X75214897Y-110903294D01*
X75215144Y-110975424D01*
X75215293Y-111049130D01*
X75215344Y-111123630D01*
X75215296Y-111198145D01*
X75215151Y-111271893D01*
X75214907Y-111344095D01*
X75214566Y-111413970D01*
X75214126Y-111480738D01*
X75213588Y-111543618D01*
X75212952Y-111601830D01*
X75212217Y-111654594D01*
X75211385Y-111701128D01*
X75210454Y-111740654D01*
X75209425Y-111772389D01*
X75208298Y-111795555D01*
X75207073Y-111809370D01*
X75207026Y-111809689D01*
X75189515Y-111893315D01*
X75163019Y-111972860D01*
X75128076Y-112047786D01*
X75085224Y-112117556D01*
X75035001Y-112181632D01*
X74977944Y-112239477D01*
X74914590Y-112290552D01*
X74845478Y-112334321D01*
X74771144Y-112370245D01*
X74692128Y-112397787D01*
X74608965Y-112416410D01*
X74598689Y-112418026D01*
X74586000Y-112419146D01*
X74563954Y-112420176D01*
X74533319Y-112421116D01*
X74494867Y-112421967D01*
X74449366Y-112422729D01*
X74397586Y-112423401D01*
X74340297Y-112423984D01*
X74278269Y-112424478D01*
X74212272Y-112424884D01*
X74143075Y-112425200D01*
X74071448Y-112425427D01*
X73998161Y-112425566D01*
X73923984Y-112425616D01*
X73849686Y-112425578D01*
X73776037Y-112425452D01*
X73703807Y-112425237D01*
X73633766Y-112424934D01*
X73566683Y-112424543D01*
X73503329Y-112424064D01*
X73444472Y-112423497D01*
X73390884Y-112422842D01*
X73343332Y-112422100D01*
X73302588Y-112421270D01*
X73269421Y-112420352D01*
X73244601Y-112419348D01*
X73228897Y-112418256D01*
X73225660Y-112417847D01*
X73141683Y-112399536D01*
X73061802Y-112372254D01*
X72986577Y-112336492D01*
X72916570Y-112292745D01*
X72852342Y-112241506D01*
X72794453Y-112183268D01*
X72743467Y-112118524D01*
X72699943Y-112047767D01*
X72664444Y-111971491D01*
X72641556Y-111904622D01*
X72637575Y-111890841D01*
X72633990Y-111878006D01*
X72630780Y-111865540D01*
X72627924Y-111852866D01*
X72625402Y-111839407D01*
X72623193Y-111824588D01*
X72621276Y-111807832D01*
X72619631Y-111788561D01*
X72618236Y-111766200D01*
X72617072Y-111740173D01*
X72616117Y-111709901D01*
X72615351Y-111674810D01*
X72614752Y-111634322D01*
X72614300Y-111587861D01*
X72613975Y-111534850D01*
X72613756Y-111474713D01*
X72613621Y-111406873D01*
X72613551Y-111330754D01*
X72613524Y-111245780D01*
X72613520Y-111151372D01*
X72613520Y-111124999D01*
X72613535Y-111028771D01*
X72613585Y-110942165D01*
X72613677Y-110864642D01*
X72613815Y-110795665D01*
X72614005Y-110734695D01*
X72614254Y-110681193D01*
X72614567Y-110634623D01*
X72614950Y-110594445D01*
X72615410Y-110560122D01*
X72615950Y-110531115D01*
X72616579Y-110506886D01*
X72617301Y-110486897D01*
X72618123Y-110470609D01*
X72619050Y-110457485D01*
X72619099Y-110456980D01*
X72849740Y-110456980D01*
X72849740Y-111793020D01*
X72861356Y-111833126D01*
X72885998Y-111900973D01*
X72918835Y-111963298D01*
X72959432Y-112019553D01*
X73007352Y-112069189D01*
X73062158Y-112111658D01*
X73102094Y-112135605D01*
X73138529Y-112153007D01*
X73178397Y-112168413D01*
X73217516Y-112180336D01*
X73244272Y-112186169D01*
X73252794Y-112186749D01*
X73270889Y-112187291D01*
X73297971Y-112187794D01*
X73333452Y-112188254D01*
X73376747Y-112188668D01*
X73427268Y-112189031D01*
X73484429Y-112189342D01*
X73547643Y-112189597D01*
X73616323Y-112189793D01*
X73689883Y-112189926D01*
X73767736Y-112189994D01*
X73849295Y-112189992D01*
X73929240Y-112189925D01*
X74587100Y-112189109D01*
X74625200Y-112177504D01*
X74693541Y-112151654D01*
X74755972Y-112117754D01*
X74812035Y-112076264D01*
X74861275Y-112027644D01*
X74903236Y-111972353D01*
X74937462Y-111910853D01*
X74963495Y-111843602D01*
X74966643Y-111833126D01*
X74978260Y-111793020D01*
X74978260Y-110456980D01*
X74966643Y-110416873D01*
X74941874Y-110348835D01*
X74908858Y-110286470D01*
X74868088Y-110230270D01*
X74820058Y-110180730D01*
X74765261Y-110138343D01*
X74704191Y-110103603D01*
X74637342Y-110077004D01*
X74622126Y-110072356D01*
X74582020Y-110060740D01*
X73245980Y-110060740D01*
X73205873Y-110072356D01*
X73138093Y-110097047D01*
X73075841Y-110129997D01*
X73019659Y-110170666D01*
X72970089Y-110218513D01*
X72927673Y-110272996D01*
X72892952Y-110333574D01*
X72866469Y-110399707D01*
X72861401Y-110416340D01*
X72849740Y-110456980D01*
X72619099Y-110456980D01*
X72620088Y-110446986D01*
X72620973Y-110440310D01*
X72638484Y-110356684D01*
X72664980Y-110277139D01*
X72699923Y-110202213D01*
X72742775Y-110132443D01*
X72792998Y-110068367D01*
X72850055Y-110010522D01*
X72913409Y-109959447D01*
X72982521Y-109915678D01*
X73056855Y-109879754D01*
X73135871Y-109852212D01*
X73219034Y-109833589D01*
X73229310Y-109831973D01*
X73242767Y-109830744D01*
X73265603Y-109829613D01*
X73297038Y-109828581D01*
X73336292Y-109827647D01*
X73382583Y-109826811D01*
X73435132Y-109826073D01*
X73493158Y-109825433D01*
X73555880Y-109824891D01*
X73622519Y-109824449D01*
X73692294Y-109824103D01*
X73764424Y-109823856D01*
X73838130Y-109823707D01*
X73912630Y-109823656D01*
X73987145Y-109823704D01*
G37*
X73987145Y-109823704D02*
X74060893Y-109823849D01*
X74133095Y-109824093D01*
X74202970Y-109824434D01*
X74269738Y-109824873D01*
X74332618Y-109825411D01*
X74390830Y-109826047D01*
X74443594Y-109826782D01*
X74490128Y-109827614D01*
X74529654Y-109828545D01*
X74561389Y-109829574D01*
X74584555Y-109830701D01*
X74598370Y-109831926D01*
X74598689Y-109831973D01*
X74682315Y-109849484D01*
X74761860Y-109875980D01*
X74836786Y-109910923D01*
X74906556Y-109953775D01*
X74970632Y-110003998D01*
X75028477Y-110061055D01*
X75079552Y-110124409D01*
X75123321Y-110193521D01*
X75159245Y-110267855D01*
X75186787Y-110346871D01*
X75205410Y-110430034D01*
X75207026Y-110440310D01*
X75208255Y-110453767D01*
X75209386Y-110476603D01*
X75210418Y-110508038D01*
X75211352Y-110547292D01*
X75212188Y-110593583D01*
X75212926Y-110646132D01*
X75213566Y-110704158D01*
X75214108Y-110766880D01*
X75214551Y-110833519D01*
X75214897Y-110903294D01*
X75215144Y-110975424D01*
X75215293Y-111049130D01*
X75215344Y-111123630D01*
X75215296Y-111198145D01*
X75215151Y-111271893D01*
X75214907Y-111344095D01*
X75214566Y-111413970D01*
X75214126Y-111480738D01*
X75213588Y-111543618D01*
X75212952Y-111601830D01*
X75212217Y-111654594D01*
X75211385Y-111701128D01*
X75210454Y-111740654D01*
X75209425Y-111772389D01*
X75208298Y-111795555D01*
X75207073Y-111809370D01*
X75207026Y-111809689D01*
X75189515Y-111893315D01*
X75163019Y-111972860D01*
X75128076Y-112047786D01*
X75085224Y-112117556D01*
X75035001Y-112181632D01*
X74977944Y-112239477D01*
X74914590Y-112290552D01*
X74845478Y-112334321D01*
X74771144Y-112370245D01*
X74692128Y-112397787D01*
X74608965Y-112416410D01*
X74598689Y-112418026D01*
X74586000Y-112419146D01*
X74563954Y-112420176D01*
X74533319Y-112421116D01*
X74494867Y-112421967D01*
X74449366Y-112422729D01*
X74397586Y-112423401D01*
X74340297Y-112423984D01*
X74278269Y-112424478D01*
X74212272Y-112424884D01*
X74143075Y-112425200D01*
X74071448Y-112425427D01*
X73998161Y-112425566D01*
X73923984Y-112425616D01*
X73849686Y-112425578D01*
X73776037Y-112425452D01*
X73703807Y-112425237D01*
X73633766Y-112424934D01*
X73566683Y-112424543D01*
X73503329Y-112424064D01*
X73444472Y-112423497D01*
X73390884Y-112422842D01*
X73343332Y-112422100D01*
X73302588Y-112421270D01*
X73269421Y-112420352D01*
X73244601Y-112419348D01*
X73228897Y-112418256D01*
X73225660Y-112417847D01*
X73141683Y-112399536D01*
X73061802Y-112372254D01*
X72986577Y-112336492D01*
X72916570Y-112292745D01*
X72852342Y-112241506D01*
X72794453Y-112183268D01*
X72743467Y-112118524D01*
X72699943Y-112047767D01*
X72664444Y-111971491D01*
X72641556Y-111904622D01*
X72637575Y-111890841D01*
X72633990Y-111878006D01*
X72630780Y-111865540D01*
X72627924Y-111852866D01*
X72625402Y-111839407D01*
X72623193Y-111824588D01*
X72621276Y-111807832D01*
X72619631Y-111788561D01*
X72618236Y-111766200D01*
X72617072Y-111740173D01*
X72616117Y-111709901D01*
X72615351Y-111674810D01*
X72614752Y-111634322D01*
X72614300Y-111587861D01*
X72613975Y-111534850D01*
X72613756Y-111474713D01*
X72613621Y-111406873D01*
X72613551Y-111330754D01*
X72613524Y-111245780D01*
X72613520Y-111151372D01*
X72613520Y-111124999D01*
X72613535Y-111028771D01*
X72613585Y-110942165D01*
X72613677Y-110864642D01*
X72613815Y-110795665D01*
X72614005Y-110734695D01*
X72614254Y-110681193D01*
X72614567Y-110634623D01*
X72614950Y-110594445D01*
X72615410Y-110560122D01*
X72615950Y-110531115D01*
X72616579Y-110506886D01*
X72617301Y-110486897D01*
X72618123Y-110470609D01*
X72619050Y-110457485D01*
X72619099Y-110456980D01*
X72849740Y-110456980D01*
X72849740Y-111793020D01*
X72861356Y-111833126D01*
X72885998Y-111900973D01*
X72918835Y-111963298D01*
X72959432Y-112019553D01*
X73007352Y-112069189D01*
X73062158Y-112111658D01*
X73102094Y-112135605D01*
X73138529Y-112153007D01*
X73178397Y-112168413D01*
X73217516Y-112180336D01*
X73244272Y-112186169D01*
X73252794Y-112186749D01*
X73270889Y-112187291D01*
X73297971Y-112187794D01*
X73333452Y-112188254D01*
X73376747Y-112188668D01*
X73427268Y-112189031D01*
X73484429Y-112189342D01*
X73547643Y-112189597D01*
X73616323Y-112189793D01*
X73689883Y-112189926D01*
X73767736Y-112189994D01*
X73849295Y-112189992D01*
X73929240Y-112189925D01*
X74587100Y-112189109D01*
X74625200Y-112177504D01*
X74693541Y-112151654D01*
X74755972Y-112117754D01*
X74812035Y-112076264D01*
X74861275Y-112027644D01*
X74903236Y-111972353D01*
X74937462Y-111910853D01*
X74963495Y-111843602D01*
X74966643Y-111833126D01*
X74978260Y-111793020D01*
X74978260Y-110456980D01*
X74966643Y-110416873D01*
X74941874Y-110348835D01*
X74908858Y-110286470D01*
X74868088Y-110230270D01*
X74820058Y-110180730D01*
X74765261Y-110138343D01*
X74704191Y-110103603D01*
X74637342Y-110077004D01*
X74622126Y-110072356D01*
X74582020Y-110060740D01*
X73245980Y-110060740D01*
X73205873Y-110072356D01*
X73138093Y-110097047D01*
X73075841Y-110129997D01*
X73019659Y-110170666D01*
X72970089Y-110218513D01*
X72927673Y-110272996D01*
X72892952Y-110333574D01*
X72866469Y-110399707D01*
X72861401Y-110416340D01*
X72849740Y-110456980D01*
X72619099Y-110456980D01*
X72620088Y-110446986D01*
X72620973Y-110440310D01*
X72638484Y-110356684D01*
X72664980Y-110277139D01*
X72699923Y-110202213D01*
X72742775Y-110132443D01*
X72792998Y-110068367D01*
X72850055Y-110010522D01*
X72913409Y-109959447D01*
X72982521Y-109915678D01*
X73056855Y-109879754D01*
X73135871Y-109852212D01*
X73219034Y-109833589D01*
X73229310Y-109831973D01*
X73242767Y-109830744D01*
X73265603Y-109829613D01*
X73297038Y-109828581D01*
X73336292Y-109827647D01*
X73382583Y-109826811D01*
X73435132Y-109826073D01*
X73493158Y-109825433D01*
X73555880Y-109824891D01*
X73622519Y-109824449D01*
X73692294Y-109824103D01*
X73764424Y-109823856D01*
X73838130Y-109823707D01*
X73912630Y-109823656D01*
X73987145Y-109823704D01*
G36*
X73996935Y-110460118D02*
G01*
X74076518Y-110474844D01*
X74149694Y-110497606D01*
X74222767Y-110530411D01*
X74291111Y-110571690D01*
X74354013Y-110620654D01*
X74410761Y-110676516D01*
X74460644Y-110738488D01*
X74502949Y-110805782D01*
X74536965Y-110877609D01*
X74561980Y-110953181D01*
X74562274Y-110954305D01*
X74577989Y-111033903D01*
X74583948Y-111113295D01*
X74580527Y-111191753D01*
X74568102Y-111268551D01*
X74547049Y-111342960D01*
X74517745Y-111414253D01*
X74480565Y-111481704D01*
X74435885Y-111544584D01*
X74384081Y-111602166D01*
X74325530Y-111653723D01*
X74260607Y-111698528D01*
X74189688Y-111735853D01*
X74149694Y-111752393D01*
X74079662Y-111774093D01*
X74006035Y-111788283D01*
X73931354Y-111794694D01*
X73858159Y-111793055D01*
X73814940Y-111787927D01*
X73734741Y-111770274D01*
X73658735Y-111743855D01*
X73587444Y-111709273D01*
X73521385Y-111667131D01*
X73461078Y-111618032D01*
X73407044Y-111562579D01*
X73359801Y-111501374D01*
X73319869Y-111435020D01*
X73287768Y-111364121D01*
X73264016Y-111289278D01*
X73249134Y-111211095D01*
X73243641Y-111130174D01*
X73243622Y-111125000D01*
X73480098Y-111125000D01*
X73480209Y-111156837D01*
X73480714Y-111180817D01*
X73481874Y-111199241D01*
X73483948Y-111214410D01*
X73487197Y-111228627D01*
X73491880Y-111244192D01*
X73494441Y-111252000D01*
X73512344Y-111299797D01*
X73532584Y-111340868D01*
X73557074Y-111378637D01*
X73584102Y-111412370D01*
X73628840Y-111456562D01*
X73680632Y-111494535D01*
X73737850Y-111525345D01*
X73798864Y-111548047D01*
X73833051Y-111556652D01*
X73846547Y-111558294D01*
X73867528Y-111559443D01*
X73893326Y-111560009D01*
X73921275Y-111559903D01*
X73926700Y-111559797D01*
X73956949Y-111558904D01*
X73980008Y-111557484D01*
X73998845Y-111555102D01*
X74016430Y-111551326D01*
X74035731Y-111545724D01*
X74046080Y-111542389D01*
X74108523Y-111516739D01*
X74165325Y-111482848D01*
X74215927Y-111441275D01*
X74259772Y-111392577D01*
X74296302Y-111337311D01*
X74324960Y-111276033D01*
X74331764Y-111257080D01*
X74337801Y-111238647D01*
X74342117Y-111223441D01*
X74345000Y-111209113D01*
X74346738Y-111193314D01*
X74347619Y-111173692D01*
X74347932Y-111147900D01*
X74347968Y-111125000D01*
X74347880Y-111093510D01*
X74347426Y-111069832D01*
X74346316Y-111051613D01*
X74344262Y-111036506D01*
X74340976Y-111022161D01*
X74336171Y-111006227D01*
X74331764Y-110992920D01*
X74305371Y-110929530D01*
X74270881Y-110872219D01*
X74228505Y-110821247D01*
X74178455Y-110776876D01*
X74132440Y-110745957D01*
X74109413Y-110733743D01*
X74081587Y-110721010D01*
X74053942Y-110709990D01*
X74046080Y-110707235D01*
X74027647Y-110701198D01*
X74012441Y-110696882D01*
X73998113Y-110693999D01*
X73982314Y-110692261D01*
X73962692Y-110691380D01*
X73936900Y-110691067D01*
X73914000Y-110691031D01*
X73882510Y-110691119D01*
X73858832Y-110691573D01*
X73840613Y-110692683D01*
X73825506Y-110694737D01*
X73811161Y-110698023D01*
X73795227Y-110702828D01*
X73781920Y-110707235D01*
X73720802Y-110732675D01*
X73664415Y-110766052D01*
X73614210Y-110806411D01*
X73584102Y-110837629D01*
X73554196Y-110875345D01*
X73530251Y-110913304D01*
X73510352Y-110954930D01*
X73494441Y-110998000D01*
X73489050Y-111014876D01*
X73485207Y-111029398D01*
X73482652Y-111043868D01*
X73481125Y-111060588D01*
X73480366Y-111081858D01*
X73480115Y-111109981D01*
X73480098Y-111125000D01*
X73243622Y-111125000D01*
X73248568Y-111044457D01*
X73263068Y-110966056D01*
X73286613Y-110890530D01*
X73318695Y-110818614D01*
X73358806Y-110751040D01*
X73406438Y-110688543D01*
X73461081Y-110631855D01*
X73522229Y-110581712D01*
X73589371Y-110538846D01*
X73662001Y-110503990D01*
X73678305Y-110497606D01*
X73755847Y-110473775D01*
X73835519Y-110459584D01*
X73916242Y-110455032D01*
X73996935Y-110460118D01*
G37*
X73996935Y-110460118D02*
X74076518Y-110474844D01*
X74149694Y-110497606D01*
X74222767Y-110530411D01*
X74291111Y-110571690D01*
X74354013Y-110620654D01*
X74410761Y-110676516D01*
X74460644Y-110738488D01*
X74502949Y-110805782D01*
X74536965Y-110877609D01*
X74561980Y-110953181D01*
X74562274Y-110954305D01*
X74577989Y-111033903D01*
X74583948Y-111113295D01*
X74580527Y-111191753D01*
X74568102Y-111268551D01*
X74547049Y-111342960D01*
X74517745Y-111414253D01*
X74480565Y-111481704D01*
X74435885Y-111544584D01*
X74384081Y-111602166D01*
X74325530Y-111653723D01*
X74260607Y-111698528D01*
X74189688Y-111735853D01*
X74149694Y-111752393D01*
X74079662Y-111774093D01*
X74006035Y-111788283D01*
X73931354Y-111794694D01*
X73858159Y-111793055D01*
X73814940Y-111787927D01*
X73734741Y-111770274D01*
X73658735Y-111743855D01*
X73587444Y-111709273D01*
X73521385Y-111667131D01*
X73461078Y-111618032D01*
X73407044Y-111562579D01*
X73359801Y-111501374D01*
X73319869Y-111435020D01*
X73287768Y-111364121D01*
X73264016Y-111289278D01*
X73249134Y-111211095D01*
X73243641Y-111130174D01*
X73243622Y-111125000D01*
X73480098Y-111125000D01*
X73480209Y-111156837D01*
X73480714Y-111180817D01*
X73481874Y-111199241D01*
X73483948Y-111214410D01*
X73487197Y-111228627D01*
X73491880Y-111244192D01*
X73494441Y-111252000D01*
X73512344Y-111299797D01*
X73532584Y-111340868D01*
X73557074Y-111378637D01*
X73584102Y-111412370D01*
X73628840Y-111456562D01*
X73680632Y-111494535D01*
X73737850Y-111525345D01*
X73798864Y-111548047D01*
X73833051Y-111556652D01*
X73846547Y-111558294D01*
X73867528Y-111559443D01*
X73893326Y-111560009D01*
X73921275Y-111559903D01*
X73926700Y-111559797D01*
X73956949Y-111558904D01*
X73980008Y-111557484D01*
X73998845Y-111555102D01*
X74016430Y-111551326D01*
X74035731Y-111545724D01*
X74046080Y-111542389D01*
X74108523Y-111516739D01*
X74165325Y-111482848D01*
X74215927Y-111441275D01*
X74259772Y-111392577D01*
X74296302Y-111337311D01*
X74324960Y-111276033D01*
X74331764Y-111257080D01*
X74337801Y-111238647D01*
X74342117Y-111223441D01*
X74345000Y-111209113D01*
X74346738Y-111193314D01*
X74347619Y-111173692D01*
X74347932Y-111147900D01*
X74347968Y-111125000D01*
X74347880Y-111093510D01*
X74347426Y-111069832D01*
X74346316Y-111051613D01*
X74344262Y-111036506D01*
X74340976Y-111022161D01*
X74336171Y-111006227D01*
X74331764Y-110992920D01*
X74305371Y-110929530D01*
X74270881Y-110872219D01*
X74228505Y-110821247D01*
X74178455Y-110776876D01*
X74132440Y-110745957D01*
X74109413Y-110733743D01*
X74081587Y-110721010D01*
X74053942Y-110709990D01*
X74046080Y-110707235D01*
X74027647Y-110701198D01*
X74012441Y-110696882D01*
X73998113Y-110693999D01*
X73982314Y-110692261D01*
X73962692Y-110691380D01*
X73936900Y-110691067D01*
X73914000Y-110691031D01*
X73882510Y-110691119D01*
X73858832Y-110691573D01*
X73840613Y-110692683D01*
X73825506Y-110694737D01*
X73811161Y-110698023D01*
X73795227Y-110702828D01*
X73781920Y-110707235D01*
X73720802Y-110732675D01*
X73664415Y-110766052D01*
X73614210Y-110806411D01*
X73584102Y-110837629D01*
X73554196Y-110875345D01*
X73530251Y-110913304D01*
X73510352Y-110954930D01*
X73494441Y-110998000D01*
X73489050Y-111014876D01*
X73485207Y-111029398D01*
X73482652Y-111043868D01*
X73481125Y-111060588D01*
X73480366Y-111081858D01*
X73480115Y-111109981D01*
X73480098Y-111125000D01*
X73243622Y-111125000D01*
X73248568Y-111044457D01*
X73263068Y-110966056D01*
X73286613Y-110890530D01*
X73318695Y-110818614D01*
X73358806Y-110751040D01*
X73406438Y-110688543D01*
X73461081Y-110631855D01*
X73522229Y-110581712D01*
X73589371Y-110538846D01*
X73662001Y-110503990D01*
X73678305Y-110497606D01*
X73755847Y-110473775D01*
X73835519Y-110459584D01*
X73916242Y-110455032D01*
X73996935Y-110460118D01*
G36*
X74658982Y-110266904D02*
G01*
X74691971Y-110280690D01*
X74721662Y-110301277D01*
X74746768Y-110328273D01*
X74766005Y-110361287D01*
X74778088Y-110399927D01*
X74778437Y-110401759D01*
X74780441Y-110439217D01*
X74773348Y-110476195D01*
X74758148Y-110511036D01*
X74735836Y-110542083D01*
X74707403Y-110567680D01*
X74673844Y-110586170D01*
X74666205Y-110589006D01*
X74637617Y-110595000D01*
X74604835Y-110596035D01*
X74572464Y-110592226D01*
X74550811Y-110586102D01*
X74517441Y-110568123D01*
X74489156Y-110542736D01*
X74466890Y-110511692D01*
X74451579Y-110476740D01*
X74444161Y-110439633D01*
X74445572Y-110402120D01*
X74447440Y-110392770D01*
X74455124Y-110366020D01*
X74465212Y-110344716D01*
X74480118Y-110324327D01*
X74489536Y-110313704D01*
X74519741Y-110287608D01*
X74553073Y-110270271D01*
X74588248Y-110261303D01*
X74623979Y-110260311D01*
X74658982Y-110266904D01*
G37*
X74658982Y-110266904D02*
X74691971Y-110280690D01*
X74721662Y-110301277D01*
X74746768Y-110328273D01*
X74766005Y-110361287D01*
X74778088Y-110399927D01*
X74778437Y-110401759D01*
X74780441Y-110439217D01*
X74773348Y-110476195D01*
X74758148Y-110511036D01*
X74735836Y-110542083D01*
X74707403Y-110567680D01*
X74673844Y-110586170D01*
X74666205Y-110589006D01*
X74637617Y-110595000D01*
X74604835Y-110596035D01*
X74572464Y-110592226D01*
X74550811Y-110586102D01*
X74517441Y-110568123D01*
X74489156Y-110542736D01*
X74466890Y-110511692D01*
X74451579Y-110476740D01*
X74444161Y-110439633D01*
X74445572Y-110402120D01*
X74447440Y-110392770D01*
X74455124Y-110366020D01*
X74465212Y-110344716D01*
X74480118Y-110324327D01*
X74489536Y-110313704D01*
X74519741Y-110287608D01*
X74553073Y-110270271D01*
X74588248Y-110261303D01*
X74623979Y-110260311D01*
X74658982Y-110266904D01*
G04 #@! TD*
D13*
G04 #@! TO.C,A1*
X86868000Y-75946000D03*
X86868000Y-73406000D03*
X86868000Y-70866000D03*
X86868000Y-68326000D03*
X86868000Y-65786000D03*
X86868000Y-63246000D03*
X86868000Y-60706000D03*
X86868000Y-58166000D03*
X86868000Y-55626000D03*
X86868000Y-53086000D03*
X86868000Y-50546000D03*
X86868000Y-48006000D03*
X86868000Y-45466000D03*
X86868000Y-42926000D03*
X86868000Y-40386000D03*
D14*
X86868000Y-37846000D03*
D13*
X107188000Y-48006000D03*
X107188000Y-50546000D03*
X107188000Y-53086000D03*
X107188000Y-55626000D03*
X107188000Y-58166000D03*
X107188000Y-60706000D03*
X107188000Y-63246000D03*
X107188000Y-65786000D03*
X107188000Y-68326000D03*
X107188000Y-70866000D03*
X107188000Y-73406000D03*
X107188000Y-75946000D03*
G04 #@! TD*
D15*
G04 #@! TO.C,A7*
X79248000Y-96266000D03*
D16*
X79248000Y-93726000D03*
X79248000Y-91186000D03*
X79248000Y-88646000D03*
G04 #@! TD*
D17*
G04 #@! TO.C,C1*
X95758000Y-106426000D03*
D18*
X95758000Y-111426000D03*
G04 #@! TD*
G04 #@! TO.C,R1*
G36*
G01*
X74683000Y-107051003D02*
X74683000Y-105800997D01*
G75*
G02*
X74932997Y-105551000I249997J0D01*
G01*
X75558003Y-105551000D01*
G75*
G02*
X75808000Y-105800997I0J-249997D01*
G01*
X75808000Y-107051003D01*
G75*
G02*
X75558003Y-107301000I-249997J0D01*
G01*
X74932997Y-107301000D01*
G75*
G02*
X74683000Y-107051003I0J249997D01*
G01*
G37*
G36*
G01*
X77608000Y-107051003D02*
X77608000Y-105800997D01*
G75*
G02*
X77857997Y-105551000I249997J0D01*
G01*
X78483003Y-105551000D01*
G75*
G02*
X78733000Y-105800997I0J-249997D01*
G01*
X78733000Y-107051003D01*
G75*
G02*
X78483003Y-107301000I-249997J0D01*
G01*
X77857997Y-107301000D01*
G75*
G02*
X77608000Y-107051003I0J249997D01*
G01*
G37*
G04 #@! TD*
D17*
G04 #@! TO.C,D1*
X103352600Y-107530000D03*
D19*
X103352600Y-112610000D03*
G04 #@! TD*
D16*
G04 #@! TO.C,A6*
X79248000Y-68326000D03*
X79248000Y-70866000D03*
X79248000Y-73406000D03*
D15*
X79248000Y-75946000D03*
G04 #@! TD*
D16*
G04 #@! TO.C,A4*
X114808000Y-96266000D03*
X114808000Y-93726000D03*
X114808000Y-91186000D03*
D15*
X114808000Y-88646000D03*
G04 #@! TD*
D16*
G04 #@! TO.C,A2*
X114703001Y-55626000D03*
X114703001Y-53086000D03*
X114703001Y-50546000D03*
D15*
X114703001Y-48006000D03*
G04 #@! TD*
G04 #@! TO.C,A3*
X114808000Y-68326000D03*
D16*
X114808000Y-70866000D03*
X114808000Y-73406000D03*
X114808000Y-75946000D03*
G04 #@! TD*
D15*
G04 #@! TO.C,A5*
X79248000Y-55626000D03*
D16*
X79248000Y-53086000D03*
X79248000Y-50546000D03*
X79248000Y-48006000D03*
G04 #@! TD*
D20*
G04 #@! TO.C,J1*
X114808000Y-112356000D03*
G36*
G01*
X113308000Y-102156000D02*
X116308000Y-102156000D01*
G75*
G02*
X117808000Y-103656000I0J-1500000D01*
G01*
X117808000Y-106656000D01*
G75*
G02*
X116308000Y-108156000I-1500000J0D01*
G01*
X113308000Y-108156000D01*
G75*
G02*
X111808000Y-106656000I0J1500000D01*
G01*
X111808000Y-103656000D01*
G75*
G02*
X113308000Y-102156000I1500000J0D01*
G01*
G37*
G04 #@! TD*
D21*
G04 #@! TO.C,Z1*
X83598000Y-106426000D03*
X87598000Y-106426000D03*
G04 #@! TD*
D22*
G04 #@! TO.C,H1*
X75438000Y-30226000D03*
D23*
X77838000Y-30226000D03*
X77135056Y-31923056D03*
X75438000Y-32626000D03*
X73740944Y-31923056D03*
X73038000Y-30226000D03*
X73740944Y-28528944D03*
X75438000Y-27826000D03*
X77135056Y-28528944D03*
G04 #@! TD*
G04 #@! TO.C,H2*
X120315056Y-28528944D03*
X118618000Y-27826000D03*
X116920944Y-28528944D03*
X116218000Y-30226000D03*
X116920944Y-31923056D03*
X118618000Y-32626000D03*
X120315056Y-31923056D03*
X121018000Y-30226000D03*
D22*
X118618000Y-30226000D03*
G04 #@! TD*
D23*
G04 #@! TO.C,H3*
X120315056Y-119968944D03*
X118618000Y-119266000D03*
X116920944Y-119968944D03*
X116218000Y-121666000D03*
X116920944Y-123363056D03*
X118618000Y-124066000D03*
X120315056Y-123363056D03*
X121018000Y-121666000D03*
D22*
X118618000Y-121666000D03*
G04 #@! TD*
G04 #@! TO.C,H4*
X75438000Y-121666000D03*
D23*
X77838000Y-121666000D03*
X77135056Y-123363056D03*
X75438000Y-124066000D03*
X73740944Y-123363056D03*
X73038000Y-121666000D03*
X73740944Y-119968944D03*
X75438000Y-119266000D03*
X77135056Y-119968944D03*
G04 #@! TD*
D17*
G04 #@! TO.C,BZ1*
X104902000Y-94996000D03*
D18*
X97302000Y-94996000D03*
G04 #@! TD*
G04 #@! TO.C,R2*
G36*
G01*
X76592000Y-40503003D02*
X76592000Y-39252997D01*
G75*
G02*
X76841997Y-39003000I249997J0D01*
G01*
X77467003Y-39003000D01*
G75*
G02*
X77717000Y-39252997I0J-249997D01*
G01*
X77717000Y-40503003D01*
G75*
G02*
X77467003Y-40753000I-249997J0D01*
G01*
X76841997Y-40753000D01*
G75*
G02*
X76592000Y-40503003I0J249997D01*
G01*
G37*
G36*
G01*
X73667000Y-40503003D02*
X73667000Y-39252997D01*
G75*
G02*
X73916997Y-39003000I249997J0D01*
G01*
X74542003Y-39003000D01*
G75*
G02*
X74792000Y-39252997I0J-249997D01*
G01*
X74792000Y-40503003D01*
G75*
G02*
X74542003Y-40753000I-249997J0D01*
G01*
X73916997Y-40753000D01*
G75*
G02*
X73667000Y-40503003I0J249997D01*
G01*
G37*
G04 #@! TD*
G04 #@! TO.C,R3*
G36*
G01*
X79255000Y-40503003D02*
X79255000Y-39252997D01*
G75*
G02*
X79504997Y-39003000I249997J0D01*
G01*
X80130003Y-39003000D01*
G75*
G02*
X80380000Y-39252997I0J-249997D01*
G01*
X80380000Y-40503003D01*
G75*
G02*
X80130003Y-40753000I-249997J0D01*
G01*
X79504997Y-40753000D01*
G75*
G02*
X79255000Y-40503003I0J249997D01*
G01*
G37*
G36*
G01*
X82180000Y-40503003D02*
X82180000Y-39252997D01*
G75*
G02*
X82429997Y-39003000I249997J0D01*
G01*
X83055003Y-39003000D01*
G75*
G02*
X83305000Y-39252997I0J-249997D01*
G01*
X83305000Y-40503003D01*
G75*
G02*
X83055003Y-40753000I-249997J0D01*
G01*
X82429997Y-40753000D01*
G75*
G02*
X82180000Y-40503003I0J249997D01*
G01*
G37*
G04 #@! TD*
G04 #@! TO.C,D2*
G36*
G01*
X73667000Y-37963000D02*
X73667000Y-36713000D01*
G75*
G02*
X73917000Y-36463000I250000J0D01*
G01*
X74667000Y-36463000D01*
G75*
G02*
X74917000Y-36713000I0J-250000D01*
G01*
X74917000Y-37963000D01*
G75*
G02*
X74667000Y-38213000I-250000J0D01*
G01*
X73917000Y-38213000D01*
G75*
G02*
X73667000Y-37963000I0J250000D01*
G01*
G37*
G36*
G01*
X76467000Y-37963000D02*
X76467000Y-36713000D01*
G75*
G02*
X76717000Y-36463000I250000J0D01*
G01*
X77467000Y-36463000D01*
G75*
G02*
X77717000Y-36713000I0J-250000D01*
G01*
X77717000Y-37963000D01*
G75*
G02*
X77467000Y-38213000I-250000J0D01*
G01*
X76717000Y-38213000D01*
G75*
G02*
X76467000Y-37963000I0J250000D01*
G01*
G37*
G04 #@! TD*
G04 #@! TO.C,D3*
G36*
G01*
X75933000Y-103007000D02*
X75933000Y-104257000D01*
G75*
G02*
X75683000Y-104507000I-250000J0D01*
G01*
X74933000Y-104507000D01*
G75*
G02*
X74683000Y-104257000I0J250000D01*
G01*
X74683000Y-103007000D01*
G75*
G02*
X74933000Y-102757000I250000J0D01*
G01*
X75683000Y-102757000D01*
G75*
G02*
X75933000Y-103007000I0J-250000D01*
G01*
G37*
G36*
G01*
X78733000Y-103007000D02*
X78733000Y-104257000D01*
G75*
G02*
X78483000Y-104507000I-250000J0D01*
G01*
X77733000Y-104507000D01*
G75*
G02*
X77483000Y-104257000I0J250000D01*
G01*
X77483000Y-103007000D01*
G75*
G02*
X77733000Y-102757000I250000J0D01*
G01*
X78483000Y-102757000D01*
G75*
G02*
X78733000Y-103007000I0J-250000D01*
G01*
G37*
G04 #@! TD*
G04 #@! TO.C,D4*
G36*
G01*
X79255000Y-37963000D02*
X79255000Y-36713000D01*
G75*
G02*
X79505000Y-36463000I250000J0D01*
G01*
X80255000Y-36463000D01*
G75*
G02*
X80505000Y-36713000I0J-250000D01*
G01*
X80505000Y-37963000D01*
G75*
G02*
X80255000Y-38213000I-250000J0D01*
G01*
X79505000Y-38213000D01*
G75*
G02*
X79255000Y-37963000I0J250000D01*
G01*
G37*
G36*
G01*
X82055000Y-37963000D02*
X82055000Y-36713000D01*
G75*
G02*
X82305000Y-36463000I250000J0D01*
G01*
X83055000Y-36463000D01*
G75*
G02*
X83305000Y-36713000I0J-250000D01*
G01*
X83305000Y-37963000D01*
G75*
G02*
X83055000Y-38213000I-250000J0D01*
G01*
X82305000Y-38213000D01*
G75*
G02*
X82055000Y-37963000I0J250000D01*
G01*
G37*
G04 #@! TD*
G04 #@! TO.C,J2*
X103352600Y-117856000D03*
G04 #@! TD*
G04 #@! TO.C,J3*
X98298000Y-117831001D03*
G04 #@! TD*
D15*
G04 #@! TO.C,J4*
X89408000Y-84836000D03*
D16*
X91948000Y-84836000D03*
X94488000Y-84836000D03*
X97028000Y-84836000D03*
X99568000Y-84836000D03*
G04 #@! TD*
M02*
