<?xml version="1.0" standalone="no"?>
 <!DOCTYPE svg PUBLIC "-//W3C//DTD SVG 1.1//EN" 
 "http://www.w3.org/Graphics/SVG/1.1/DTD/svg11.dtd"> 
<svg
  xmlns:svg="http://www.w3.org/2000/svg"
  xmlns="http://www.w3.org/2000/svg"
  xmlns:xlink="http://www.w3.org/1999/xlink"
  version="1.1"
  width="17.780000cm" height="17.780000cm" viewBox="0 0 70000 70000">
<title>SVG Picture created as M5_BuggyProject-B_Cu.svg date 2022/01/28 00:36:10 </title>
  <desc>Picture generated by PCBNEW </desc>
<g style="fill:#000000; fill-opacity:1;stroke:#000000; stroke-opacity:1;
stroke-linecap:round; stroke-linejoin:round;"
 transform="translate(0 0) scale(1 1)">
</g>
<g style="fill:#000000; fill-opacity:0.0; 
stroke:#000000; stroke-width:-0.000393701; stroke-opacity:1; 
stroke-linecap:round; stroke-linejoin:round;">
<g >
</g>
<g >
</g>
<g style="fill:#000000; fill-opacity:0.0; 
stroke:#000000; stroke-width:-0.000393701; stroke-opacity:1; 
stroke-linecap:round; stroke-linejoin:round;">
</g>
<g style="fill:#000000; fill-opacity:0.0; 
stroke:#000000; stroke-width:0; stroke-opacity:1; 
stroke-linecap:round; stroke-linejoin:round;">
</g>
<g style="fill:#000000; fill-opacity:1.0; 
stroke:#000000; stroke-width:0; stroke-opacity:1; 
stroke-linecap:round; stroke-linejoin:round;">
<path style="fill:#000000; fill-opacity:1.0; 
stroke:#000000; stroke-width:0; stroke-opacity:1; 
stroke-linecap:round; stroke-linejoin:round;fill-rule:evenodd;"
d="M 31534.6,37565.4
31534.6,38234.6
30865.4,38234.6
30865.4,37565.4
Z" /> 
<circle cx="31200" cy="36900" r="334.646" /> 
<circle cx="31200" cy="35900" r="334.646" /> 
<circle cx="31200" cy="34900" r="334.646" /> 
</g>
<g >
</g>
<g style="fill:#000000; fill-opacity:1.0; 
stroke:#000000; stroke-width:0; stroke-opacity:1; 
stroke-linecap:round; stroke-linejoin:round;">
<path style="fill:#000000; fill-opacity:1.0; 
stroke:#000000; stroke-width:0; stroke-opacity:1; 
stroke-linecap:round; stroke-linejoin:round;fill-rule:evenodd;"
d="M 37356.3,41806.3
38143.7,41806.3
38143.7,42593.7
37356.3,42593.7
Z" /> 
<circle cx="37750" cy="44168.5" r="393.701" /> 
</g>
<g style="fill:#000000; fill-opacity:1.0; 
stroke:#000000; stroke-width:39.3701; stroke-opacity:1; 
stroke-linecap:round; stroke-linejoin:round;">
</g>
<g >
</g>
<g >
</g>
<g style="fill:#000000; fill-opacity:1.0; 
stroke:#000000; stroke-width:39.3701; stroke-opacity:1; 
stroke-linecap:round; stroke-linejoin:round;">
</g>
<g style="fill:#000000; fill-opacity:1.0; 
stroke:#000000; stroke-width:0; stroke-opacity:1; 
stroke-linecap:round; stroke-linejoin:round;">
<path style="fill:#000000; fill-opacity:1.0; 
stroke:#000000; stroke-width:0; stroke-opacity:1; 
stroke-linecap:round; stroke-linejoin:round;fill-rule:evenodd;"
d="M 40296.3,41956.3
41083.7,41956.3
41083.7,42743.7
40296.3,42743.7
Z" /> 
<circle cx="40690" cy="44350" r="393.701" /> 
</g>
<g >
</g>
<g style="fill:#000000; fill-opacity:1.0; 
stroke:#000000; stroke-width:0; stroke-opacity:1; 
stroke-linecap:round; stroke-linejoin:round;">
<circle cx="31200" cy="26900" r="334.646" /> 
<circle cx="31200" cy="27900" r="334.646" /> 
<circle cx="31200" cy="28900" r="334.646" /> 
<path style="fill:#000000; fill-opacity:1.0; 
stroke:#000000; stroke-width:0; stroke-opacity:1; 
stroke-linecap:round; stroke-linejoin:round;fill-rule:evenodd;"
d="M 31534.6,29565.4
31534.6,30234.6
30865.4,30234.6
30865.4,29565.4
Z" /> 
</g>
<g >
</g>
<g style="fill:#000000; fill-opacity:1.0; 
stroke:#000000; stroke-width:0; stroke-opacity:1; 
stroke-linecap:round; stroke-linejoin:round;">
<circle cx="34200" cy="37900" r="314.961" /> 
</g>
<g style="fill:#000000; fill-opacity:1.0; 
stroke:#000000; stroke-width:39.3701; stroke-opacity:1; 
stroke-linecap:round; stroke-linejoin:round;">
</g>
<g style="fill:#000000; fill-opacity:1.0; 
stroke:#000000; stroke-width:0; stroke-opacity:1; 
stroke-linecap:round; stroke-linejoin:round;">
<circle cx="34200" cy="36900" r="314.961" /> 
</g>
<g style="fill:#000000; fill-opacity:1.0; 
stroke:#000000; stroke-width:39.3701; stroke-opacity:1; 
stroke-linecap:round; stroke-linejoin:round;">
</g>
<g style="fill:#000000; fill-opacity:1.0; 
stroke:#000000; stroke-width:0; stroke-opacity:1; 
stroke-linecap:round; stroke-linejoin:round;">
<circle cx="34200" cy="35900" r="314.961" /> 
</g>
<g style="fill:#000000; fill-opacity:1.0; 
stroke:#000000; stroke-width:39.3701; stroke-opacity:1; 
stroke-linecap:round; stroke-linejoin:round;">
</g>
<g style="fill:#000000; fill-opacity:1.0; 
stroke:#000000; stroke-width:0; stroke-opacity:1; 
stroke-linecap:round; stroke-linejoin:round;">
<circle cx="34200" cy="34900" r="314.961" /> 
</g>
<g style="fill:#000000; fill-opacity:1.0; 
stroke:#000000; stroke-width:39.3701; stroke-opacity:1; 
stroke-linecap:round; stroke-linejoin:round;">
</g>
<g style="fill:#000000; fill-opacity:1.0; 
stroke:#000000; stroke-width:0; stroke-opacity:1; 
stroke-linecap:round; stroke-linejoin:round;">
<circle cx="34200" cy="33900" r="314.961" /> 
</g>
<g style="fill:#000000; fill-opacity:1.0; 
stroke:#000000; stroke-width:39.3701; stroke-opacity:1; 
stroke-linecap:round; stroke-linejoin:round;">
</g>
<g style="fill:#000000; fill-opacity:1.0; 
stroke:#000000; stroke-width:0; stroke-opacity:1; 
stroke-linecap:round; stroke-linejoin:round;">
<circle cx="34200" cy="32900" r="314.961" /> 
</g>
<g style="fill:#000000; fill-opacity:1.0; 
stroke:#000000; stroke-width:39.3701; stroke-opacity:1; 
stroke-linecap:round; stroke-linejoin:round;">
</g>
<g style="fill:#000000; fill-opacity:1.0; 
stroke:#000000; stroke-width:0; stroke-opacity:1; 
stroke-linecap:round; stroke-linejoin:round;">
<circle cx="34200" cy="31900" r="314.961" /> 
</g>
<g style="fill:#000000; fill-opacity:1.0; 
stroke:#000000; stroke-width:39.3701; stroke-opacity:1; 
stroke-linecap:round; stroke-linejoin:round;">
</g>
<g style="fill:#000000; fill-opacity:1.0; 
stroke:#000000; stroke-width:0; stroke-opacity:1; 
stroke-linecap:round; stroke-linejoin:round;">
<circle cx="34200" cy="30900" r="314.961" /> 
</g>
<g style="fill:#000000; fill-opacity:1.0; 
stroke:#000000; stroke-width:39.3701; stroke-opacity:1; 
stroke-linecap:round; stroke-linejoin:round;">
</g>
<g style="fill:#000000; fill-opacity:1.0; 
stroke:#000000; stroke-width:0; stroke-opacity:1; 
stroke-linecap:round; stroke-linejoin:round;">
<circle cx="34200" cy="29900" r="314.961" /> 
</g>
<g style="fill:#000000; fill-opacity:1.0; 
stroke:#000000; stroke-width:39.3701; stroke-opacity:1; 
stroke-linecap:round; stroke-linejoin:round;">
</g>
<g style="fill:#000000; fill-opacity:1.0; 
stroke:#000000; stroke-width:0; stroke-opacity:1; 
stroke-linecap:round; stroke-linejoin:round;">
<circle cx="34200" cy="28900" r="314.961" /> 
</g>
<g style="fill:#000000; fill-opacity:1.0; 
stroke:#000000; stroke-width:39.3701; stroke-opacity:1; 
stroke-linecap:round; stroke-linejoin:round;">
</g>
<g style="fill:#000000; fill-opacity:1.0; 
stroke:#000000; stroke-width:0; stroke-opacity:1; 
stroke-linecap:round; stroke-linejoin:round;">
<circle cx="34200" cy="27900" r="314.961" /> 
</g>
<g style="fill:#000000; fill-opacity:1.0; 
stroke:#000000; stroke-width:39.3701; stroke-opacity:1; 
stroke-linecap:round; stroke-linejoin:round;">
</g>
<g style="fill:#000000; fill-opacity:1.0; 
stroke:#000000; stroke-width:0; stroke-opacity:1; 
stroke-linecap:round; stroke-linejoin:round;">
<circle cx="34200" cy="26900" r="314.961" /> 
</g>
<g style="fill:#000000; fill-opacity:1.0; 
stroke:#000000; stroke-width:39.3701; stroke-opacity:1; 
stroke-linecap:round; stroke-linejoin:round;">
</g>
<g style="fill:#000000; fill-opacity:1.0; 
stroke:#000000; stroke-width:0; stroke-opacity:1; 
stroke-linecap:round; stroke-linejoin:round;">
<circle cx="34200" cy="25900" r="314.961" /> 
</g>
<g style="fill:#000000; fill-opacity:1.0; 
stroke:#000000; stroke-width:39.3701; stroke-opacity:1; 
stroke-linecap:round; stroke-linejoin:round;">
</g>
<g style="fill:#000000; fill-opacity:1.0; 
stroke:#000000; stroke-width:0; stroke-opacity:1; 
stroke-linecap:round; stroke-linejoin:round;">
<circle cx="34200" cy="24900" r="314.961" /> 
</g>
<g style="fill:#000000; fill-opacity:1.0; 
stroke:#000000; stroke-width:39.3701; stroke-opacity:1; 
stroke-linecap:round; stroke-linejoin:round;">
</g>
<g style="fill:#000000; fill-opacity:1.0; 
stroke:#000000; stroke-width:0; stroke-opacity:1; 
stroke-linecap:round; stroke-linejoin:round;">
<circle cx="34200" cy="23900" r="314.961" /> 
</g>
<g style="fill:#000000; fill-opacity:1.0; 
stroke:#000000; stroke-width:39.3701; stroke-opacity:1; 
stroke-linecap:round; stroke-linejoin:round;">
</g>
<g style="fill:#000000; fill-opacity:1.0; 
stroke:#000000; stroke-width:0; stroke-opacity:1; 
stroke-linecap:round; stroke-linejoin:round;">
<path style="fill:#000000; fill-opacity:1.0; 
stroke:#000000; stroke-width:0; stroke-opacity:1; 
stroke-linecap:round; stroke-linejoin:round;fill-rule:evenodd;"
d="M 34515,22585
34515,23215
33885,23215
33885,22585
Z" /> 
<circle cx="42200" cy="26900" r="314.961" /> 
</g>
<g style="fill:#000000; fill-opacity:1.0; 
stroke:#000000; stroke-width:39.3701; stroke-opacity:1; 
stroke-linecap:round; stroke-linejoin:round;">
</g>
<g style="fill:#000000; fill-opacity:1.0; 
stroke:#000000; stroke-width:0; stroke-opacity:1; 
stroke-linecap:round; stroke-linejoin:round;">
<circle cx="42200" cy="27900" r="314.961" /> 
</g>
<g style="fill:#000000; fill-opacity:1.0; 
stroke:#000000; stroke-width:39.3701; stroke-opacity:1; 
stroke-linecap:round; stroke-linejoin:round;">
</g>
<g style="fill:#000000; fill-opacity:1.0; 
stroke:#000000; stroke-width:0; stroke-opacity:1; 
stroke-linecap:round; stroke-linejoin:round;">
<circle cx="42200" cy="28900" r="314.961" /> 
</g>
<g style="fill:#000000; fill-opacity:1.0; 
stroke:#000000; stroke-width:39.3701; stroke-opacity:1; 
stroke-linecap:round; stroke-linejoin:round;">
</g>
<g style="fill:#000000; fill-opacity:1.0; 
stroke:#000000; stroke-width:0; stroke-opacity:1; 
stroke-linecap:round; stroke-linejoin:round;">
<circle cx="42200" cy="29900" r="314.961" /> 
</g>
<g style="fill:#000000; fill-opacity:1.0; 
stroke:#000000; stroke-width:39.3701; stroke-opacity:1; 
stroke-linecap:round; stroke-linejoin:round;">
</g>
<g style="fill:#000000; fill-opacity:1.0; 
stroke:#000000; stroke-width:0; stroke-opacity:1; 
stroke-linecap:round; stroke-linejoin:round;">
<circle cx="42200" cy="30900" r="314.961" /> 
</g>
<g style="fill:#000000; fill-opacity:1.0; 
stroke:#000000; stroke-width:39.3701; stroke-opacity:1; 
stroke-linecap:round; stroke-linejoin:round;">
</g>
<g style="fill:#000000; fill-opacity:1.0; 
stroke:#000000; stroke-width:0; stroke-opacity:1; 
stroke-linecap:round; stroke-linejoin:round;">
<circle cx="42200" cy="31900" r="314.961" /> 
</g>
<g style="fill:#000000; fill-opacity:1.0; 
stroke:#000000; stroke-width:39.3701; stroke-opacity:1; 
stroke-linecap:round; stroke-linejoin:round;">
</g>
<g style="fill:#000000; fill-opacity:1.0; 
stroke:#000000; stroke-width:0; stroke-opacity:1; 
stroke-linecap:round; stroke-linejoin:round;">
<circle cx="42200" cy="32900" r="314.961" /> 
</g>
<g style="fill:#000000; fill-opacity:1.0; 
stroke:#000000; stroke-width:39.3701; stroke-opacity:1; 
stroke-linecap:round; stroke-linejoin:round;">
</g>
<g style="fill:#000000; fill-opacity:1.0; 
stroke:#000000; stroke-width:0; stroke-opacity:1; 
stroke-linecap:round; stroke-linejoin:round;">
<circle cx="42200" cy="33900" r="314.961" /> 
</g>
<g style="fill:#000000; fill-opacity:1.0; 
stroke:#000000; stroke-width:39.3701; stroke-opacity:1; 
stroke-linecap:round; stroke-linejoin:round;">
</g>
<g style="fill:#000000; fill-opacity:1.0; 
stroke:#000000; stroke-width:0; stroke-opacity:1; 
stroke-linecap:round; stroke-linejoin:round;">
<circle cx="42200" cy="34900" r="314.961" /> 
</g>
<g style="fill:#000000; fill-opacity:1.0; 
stroke:#000000; stroke-width:39.3701; stroke-opacity:1; 
stroke-linecap:round; stroke-linejoin:round;">
</g>
<g style="fill:#000000; fill-opacity:1.0; 
stroke:#000000; stroke-width:0; stroke-opacity:1; 
stroke-linecap:round; stroke-linejoin:round;">
<circle cx="42200" cy="35900" r="314.961" /> 
</g>
<g style="fill:#000000; fill-opacity:1.0; 
stroke:#000000; stroke-width:39.3701; stroke-opacity:1; 
stroke-linecap:round; stroke-linejoin:round;">
</g>
<g style="fill:#000000; fill-opacity:1.0; 
stroke:#000000; stroke-width:0; stroke-opacity:1; 
stroke-linecap:round; stroke-linejoin:round;">
<circle cx="42200" cy="36900" r="314.961" /> 
</g>
<g style="fill:#000000; fill-opacity:1.0; 
stroke:#000000; stroke-width:39.3701; stroke-opacity:1; 
stroke-linecap:round; stroke-linejoin:round;">
</g>
<g style="fill:#000000; fill-opacity:1.0; 
stroke:#000000; stroke-width:0; stroke-opacity:1; 
stroke-linecap:round; stroke-linejoin:round;">
<circle cx="42200" cy="37900" r="314.961" /> 
</g>
<g style="fill:#000000; fill-opacity:1.0; 
stroke:#000000; stroke-width:39.3701; stroke-opacity:1; 
stroke-linecap:round; stroke-linejoin:round;">
</g>
<g >
</g>
<g style="fill:#000000; fill-opacity:1.0; 
stroke:#000000; stroke-width:39.3701; stroke-opacity:1; 
stroke-linecap:round; stroke-linejoin:round;">
</g>
<g style="fill:#000000; fill-opacity:1.0; 
stroke:#000000; stroke-width:0; stroke-opacity:1; 
stroke-linecap:round; stroke-linejoin:round;">
<circle cx="45200" cy="37900" r="334.646" /> 
<circle cx="45200" cy="36900" r="334.646" /> 
<circle cx="45200" cy="35900" r="334.646" /> 
<path style="fill:#000000; fill-opacity:1.0; 
stroke:#000000; stroke-width:0; stroke-opacity:1; 
stroke-linecap:round; stroke-linejoin:round;fill-rule:evenodd;"
d="M 44865.4,35234.6
44865.4,34565.4
45534.6,34565.4
45534.6,35234.6
Z" /> 
</g>
<g >
</g>
<g style="fill:#000000; fill-opacity:1.0; 
stroke:#000000; stroke-width:0; stroke-opacity:1; 
stroke-linecap:round; stroke-linejoin:round;">
<circle cx="45158.7" cy="21900" r="334.646" /> 
<circle cx="45158.7" cy="20900" r="334.646" /> 
<circle cx="45158.7" cy="19900" r="334.646" /> 
<path style="fill:#000000; fill-opacity:1.0; 
stroke:#000000; stroke-width:0; stroke-opacity:1; 
stroke-linecap:round; stroke-linejoin:round;fill-rule:evenodd;"
d="M 44824,19234.6
44824,18565.4
45493.3,18565.4
45493.3,19234.6
Z" /> 
</g>
<g >
</g>
<g style="fill:#000000; fill-opacity:1.0; 
stroke:#000000; stroke-width:0; stroke-opacity:1; 
stroke-linecap:round; stroke-linejoin:round;">
<path style="fill:#000000; fill-opacity:1.0; 
stroke:#000000; stroke-width:0; stroke-opacity:1; 
stroke-linecap:round; stroke-linejoin:round;fill-rule:evenodd;"
d="M 44865.4,27234.6
44865.4,26565.4
45534.6,26565.4
45534.6,27234.6
Z" /> 
<circle cx="45200" cy="27900" r="334.646" /> 
<circle cx="45200" cy="28900" r="334.646" /> 
<circle cx="45200" cy="29900" r="334.646" /> 
</g>
<g >
</g>
<g style="fill:#000000; fill-opacity:1.0; 
stroke:#000000; stroke-width:0; stroke-opacity:1; 
stroke-linecap:round; stroke-linejoin:round;">
<path style="fill:#000000; fill-opacity:1.0; 
stroke:#000000; stroke-width:0; stroke-opacity:1; 
stroke-linecap:round; stroke-linejoin:round;fill-rule:evenodd;"
d="M 31534.6,21565.4
31534.6,22234.6
30865.4,22234.6
30865.4,21565.4
Z" /> 
<circle cx="31200" cy="20900" r="334.646" /> 
<circle cx="31200" cy="19900" r="334.646" /> 
<circle cx="31200" cy="18900" r="334.646" /> 
</g>
<g >
</g>
<g style="fill:#000000; fill-opacity:1.0; 
stroke:#000000; stroke-width:0; stroke-opacity:1; 
stroke-linecap:round; stroke-linejoin:round;">
<circle cx="44200" cy="44334.6" r="1181.1" /> 
</g>
<g style="fill:#000000; fill-opacity:1.0; 
stroke:#000000; stroke-width:39.3701; stroke-opacity:1; 
stroke-linecap:round; stroke-linejoin:round;">
</g>
<g style="fill:#000000; fill-opacity:1.0; 
stroke:#000000; stroke-width:0; stroke-opacity:1; 
stroke-linecap:round; stroke-linejoin:round;">
<path style="fill:#000000; fill-opacity:1.0; 
stroke:#000000; stroke-width:0; stroke-opacity:1; 
stroke-linecap:round; stroke-linejoin:round;fill-rule:evenodd;"
d="M 44848.4,40321.7
44905.8,40330.2
44962,40344.3
45016.5,40363.9
45068.9,40388.6
45118.6,40418.4
45165.2,40452.9
45208.1,40491.9
45247.1,40534.8
45281.6,40581.4
45311.4,40631.1
45336.1,40683.5
45355.7,40738
45369.8,40794.2
45378.3,40851.6
45381.1,40909.4
45381.1,42090.6
45378.3,42148.4
45369.8,42205.8
45355.7,42262
45336.1,42316.5
45311.4,42368.9
45281.6,42418.6
45247.1,42465.2
45208.1,42508.1
45165.2,42547.1
45118.6,42581.6
45068.9,42611.4
45016.5,42636.1
44962,42655.7
44905.8,42669.8
44848.4,42678.3
44790.6,42681.1
43609.4,42681.1
43551.6,42678.3
43494.2,42669.8
43438,42655.7
43383.5,42636.1
43331.1,42611.4
43281.4,42581.6
43234.8,42547.1
43191.9,42508.1
43152.9,42465.2
43118.4,42418.6
43088.6,42368.9
43063.9,42316.5
43044.3,42262
43030.2,42205.8
43021.7,42148.4
43018.9,42090.6
43018.9,40909.4
43021.7,40851.6
43030.2,40794.2
43044.3,40738
43063.9,40683.5
43088.6,40631.1
43118.4,40581.4
43152.9,40534.8
43191.9,40491.9
43234.8,40452.9
43281.4,40418.4
43331.1,40388.6
43383.5,40363.9
43438,40344.3
43494.2,40330.2
43551.6,40321.7
43609.4,40318.9
44790.6,40318.9
Z" /> 
</g>
<g >
</g>
<g >
</g>
<g style="fill:#000000; fill-opacity:1.0; 
stroke:#000000; stroke-width:0; stroke-opacity:1; 
stroke-linecap:round; stroke-linejoin:round;">
<circle cx="31700" cy="15400" r="1259.84" /> 
</g>
<g style="fill:#000000; fill-opacity:1.0; 
stroke:#000000; stroke-width:39.3701; stroke-opacity:1; 
stroke-linecap:round; stroke-linejoin:round;">
</g>
<g style="fill:#000000; fill-opacity:1.0; 
stroke:#000000; stroke-width:0; stroke-opacity:1; 
stroke-linecap:round; stroke-linejoin:round;">
<circle cx="32644.9" cy="15400" r="157.48" /> 
</g>
<g style="fill:#000000; fill-opacity:1.0; 
stroke:#000000; stroke-width:39.3701; stroke-opacity:1; 
stroke-linecap:round; stroke-linejoin:round;">
</g>
<g style="fill:#000000; fill-opacity:1.0; 
stroke:#000000; stroke-width:0; stroke-opacity:1; 
stroke-linecap:round; stroke-linejoin:round;">
<circle cx="32368.1" cy="16068.1" r="157.48" /> 
</g>
<g style="fill:#000000; fill-opacity:1.0; 
stroke:#000000; stroke-width:39.3701; stroke-opacity:1; 
stroke-linecap:round; stroke-linejoin:round;">
</g>
<g style="fill:#000000; fill-opacity:1.0; 
stroke:#000000; stroke-width:0; stroke-opacity:1; 
stroke-linecap:round; stroke-linejoin:round;">
<circle cx="31700" cy="16344.9" r="157.48" /> 
</g>
<g style="fill:#000000; fill-opacity:1.0; 
stroke:#000000; stroke-width:39.3701; stroke-opacity:1; 
stroke-linecap:round; stroke-linejoin:round;">
</g>
<g style="fill:#000000; fill-opacity:1.0; 
stroke:#000000; stroke-width:0; stroke-opacity:1; 
stroke-linecap:round; stroke-linejoin:round;">
<circle cx="31031.9" cy="16068.1" r="157.48" /> 
</g>
<g style="fill:#000000; fill-opacity:1.0; 
stroke:#000000; stroke-width:39.3701; stroke-opacity:1; 
stroke-linecap:round; stroke-linejoin:round;">
</g>
<g style="fill:#000000; fill-opacity:1.0; 
stroke:#000000; stroke-width:0; stroke-opacity:1; 
stroke-linecap:round; stroke-linejoin:round;">
<circle cx="30755.1" cy="15400" r="157.48" /> 
</g>
<g style="fill:#000000; fill-opacity:1.0; 
stroke:#000000; stroke-width:39.3701; stroke-opacity:1; 
stroke-linecap:round; stroke-linejoin:round;">
</g>
<g style="fill:#000000; fill-opacity:1.0; 
stroke:#000000; stroke-width:0; stroke-opacity:1; 
stroke-linecap:round; stroke-linejoin:round;">
<circle cx="31031.9" cy="14731.9" r="157.48" /> 
</g>
<g style="fill:#000000; fill-opacity:1.0; 
stroke:#000000; stroke-width:39.3701; stroke-opacity:1; 
stroke-linecap:round; stroke-linejoin:round;">
</g>
<g style="fill:#000000; fill-opacity:1.0; 
stroke:#000000; stroke-width:0; stroke-opacity:1; 
stroke-linecap:round; stroke-linejoin:round;">
<circle cx="31700" cy="14455.1" r="157.48" /> 
</g>
<g style="fill:#000000; fill-opacity:1.0; 
stroke:#000000; stroke-width:39.3701; stroke-opacity:1; 
stroke-linecap:round; stroke-linejoin:round;">
</g>
<g style="fill:#000000; fill-opacity:1.0; 
stroke:#000000; stroke-width:0; stroke-opacity:1; 
stroke-linecap:round; stroke-linejoin:round;">
<circle cx="32368.1" cy="14731.9" r="157.48" /> 
</g>
<g style="fill:#000000; fill-opacity:1.0; 
stroke:#000000; stroke-width:39.3701; stroke-opacity:1; 
stroke-linecap:round; stroke-linejoin:round;">
</g>
<g >
</g>
<g style="fill:#000000; fill-opacity:1.0; 
stroke:#000000; stroke-width:39.3701; stroke-opacity:1; 
stroke-linecap:round; stroke-linejoin:round;">
</g>
<g style="fill:#000000; fill-opacity:1.0; 
stroke:#000000; stroke-width:0; stroke-opacity:1; 
stroke-linecap:round; stroke-linejoin:round;">
<circle cx="45368.1" cy="14731.9" r="157.48" /> 
</g>
<g style="fill:#000000; fill-opacity:1.0; 
stroke:#000000; stroke-width:39.3701; stroke-opacity:1; 
stroke-linecap:round; stroke-linejoin:round;">
</g>
<g style="fill:#000000; fill-opacity:1.0; 
stroke:#000000; stroke-width:0; stroke-opacity:1; 
stroke-linecap:round; stroke-linejoin:round;">
<circle cx="44700" cy="14455.1" r="157.48" /> 
</g>
<g style="fill:#000000; fill-opacity:1.0; 
stroke:#000000; stroke-width:39.3701; stroke-opacity:1; 
stroke-linecap:round; stroke-linejoin:round;">
</g>
<g style="fill:#000000; fill-opacity:1.0; 
stroke:#000000; stroke-width:0; stroke-opacity:1; 
stroke-linecap:round; stroke-linejoin:round;">
<circle cx="44031.9" cy="14731.9" r="157.48" /> 
</g>
<g style="fill:#000000; fill-opacity:1.0; 
stroke:#000000; stroke-width:39.3701; stroke-opacity:1; 
stroke-linecap:round; stroke-linejoin:round;">
</g>
<g style="fill:#000000; fill-opacity:1.0; 
stroke:#000000; stroke-width:0; stroke-opacity:1; 
stroke-linecap:round; stroke-linejoin:round;">
<circle cx="43755.1" cy="15400" r="157.48" /> 
</g>
<g style="fill:#000000; fill-opacity:1.0; 
stroke:#000000; stroke-width:39.3701; stroke-opacity:1; 
stroke-linecap:round; stroke-linejoin:round;">
</g>
<g style="fill:#000000; fill-opacity:1.0; 
stroke:#000000; stroke-width:0; stroke-opacity:1; 
stroke-linecap:round; stroke-linejoin:round;">
<circle cx="44031.9" cy="16068.1" r="157.48" /> 
</g>
<g style="fill:#000000; fill-opacity:1.0; 
stroke:#000000; stroke-width:39.3701; stroke-opacity:1; 
stroke-linecap:round; stroke-linejoin:round;">
</g>
<g style="fill:#000000; fill-opacity:1.0; 
stroke:#000000; stroke-width:0; stroke-opacity:1; 
stroke-linecap:round; stroke-linejoin:round;">
<circle cx="44700" cy="16344.9" r="157.48" /> 
</g>
<g style="fill:#000000; fill-opacity:1.0; 
stroke:#000000; stroke-width:39.3701; stroke-opacity:1; 
stroke-linecap:round; stroke-linejoin:round;">
</g>
<g style="fill:#000000; fill-opacity:1.0; 
stroke:#000000; stroke-width:0; stroke-opacity:1; 
stroke-linecap:round; stroke-linejoin:round;">
<circle cx="45368.1" cy="16068.1" r="157.48" /> 
</g>
<g style="fill:#000000; fill-opacity:1.0; 
stroke:#000000; stroke-width:39.3701; stroke-opacity:1; 
stroke-linecap:round; stroke-linejoin:round;">
</g>
<g style="fill:#000000; fill-opacity:1.0; 
stroke:#000000; stroke-width:0; stroke-opacity:1; 
stroke-linecap:round; stroke-linejoin:round;">
<circle cx="45644.9" cy="15400" r="157.48" /> 
</g>
<g style="fill:#000000; fill-opacity:1.0; 
stroke:#000000; stroke-width:39.3701; stroke-opacity:1; 
stroke-linecap:round; stroke-linejoin:round;">
</g>
<g style="fill:#000000; fill-opacity:1.0; 
stroke:#000000; stroke-width:0; stroke-opacity:1; 
stroke-linecap:round; stroke-linejoin:round;">
<circle cx="44700" cy="15400" r="1259.84" /> 
</g>
<g style="fill:#000000; fill-opacity:1.0; 
stroke:#000000; stroke-width:39.3701; stroke-opacity:1; 
stroke-linecap:round; stroke-linejoin:round;">
</g>
<g >
</g>
<g style="fill:#000000; fill-opacity:1.0; 
stroke:#000000; stroke-width:39.3701; stroke-opacity:1; 
stroke-linecap:round; stroke-linejoin:round;">
</g>
<g style="fill:#000000; fill-opacity:1.0; 
stroke:#000000; stroke-width:0; stroke-opacity:1; 
stroke-linecap:round; stroke-linejoin:round;">
<circle cx="45368.1" cy="47231.9" r="157.48" /> 
</g>
<g style="fill:#000000; fill-opacity:1.0; 
stroke:#000000; stroke-width:39.3701; stroke-opacity:1; 
stroke-linecap:round; stroke-linejoin:round;">
</g>
<g style="fill:#000000; fill-opacity:1.0; 
stroke:#000000; stroke-width:0; stroke-opacity:1; 
stroke-linecap:round; stroke-linejoin:round;">
<circle cx="44700" cy="46955.1" r="157.48" /> 
</g>
<g style="fill:#000000; fill-opacity:1.0; 
stroke:#000000; stroke-width:39.3701; stroke-opacity:1; 
stroke-linecap:round; stroke-linejoin:round;">
</g>
<g style="fill:#000000; fill-opacity:1.0; 
stroke:#000000; stroke-width:0; stroke-opacity:1; 
stroke-linecap:round; stroke-linejoin:round;">
<circle cx="44031.9" cy="47231.9" r="157.48" /> 
</g>
<g style="fill:#000000; fill-opacity:1.0; 
stroke:#000000; stroke-width:39.3701; stroke-opacity:1; 
stroke-linecap:round; stroke-linejoin:round;">
</g>
<g style="fill:#000000; fill-opacity:1.0; 
stroke:#000000; stroke-width:0; stroke-opacity:1; 
stroke-linecap:round; stroke-linejoin:round;">
<circle cx="43755.1" cy="47900" r="157.48" /> 
</g>
<g style="fill:#000000; fill-opacity:1.0; 
stroke:#000000; stroke-width:39.3701; stroke-opacity:1; 
stroke-linecap:round; stroke-linejoin:round;">
</g>
<g style="fill:#000000; fill-opacity:1.0; 
stroke:#000000; stroke-width:0; stroke-opacity:1; 
stroke-linecap:round; stroke-linejoin:round;">
<circle cx="44031.9" cy="48568.1" r="157.48" /> 
</g>
<g style="fill:#000000; fill-opacity:1.0; 
stroke:#000000; stroke-width:39.3701; stroke-opacity:1; 
stroke-linecap:round; stroke-linejoin:round;">
</g>
<g style="fill:#000000; fill-opacity:1.0; 
stroke:#000000; stroke-width:0; stroke-opacity:1; 
stroke-linecap:round; stroke-linejoin:round;">
<circle cx="44700" cy="48844.9" r="157.48" /> 
</g>
<g style="fill:#000000; fill-opacity:1.0; 
stroke:#000000; stroke-width:39.3701; stroke-opacity:1; 
stroke-linecap:round; stroke-linejoin:round;">
</g>
<g style="fill:#000000; fill-opacity:1.0; 
stroke:#000000; stroke-width:0; stroke-opacity:1; 
stroke-linecap:round; stroke-linejoin:round;">
<circle cx="45368.1" cy="48568.1" r="157.48" /> 
</g>
<g style="fill:#000000; fill-opacity:1.0; 
stroke:#000000; stroke-width:39.3701; stroke-opacity:1; 
stroke-linecap:round; stroke-linejoin:round;">
</g>
<g style="fill:#000000; fill-opacity:1.0; 
stroke:#000000; stroke-width:0; stroke-opacity:1; 
stroke-linecap:round; stroke-linejoin:round;">
<circle cx="45644.9" cy="47900" r="157.48" /> 
</g>
<g style="fill:#000000; fill-opacity:1.0; 
stroke:#000000; stroke-width:39.3701; stroke-opacity:1; 
stroke-linecap:round; stroke-linejoin:round;">
</g>
<g style="fill:#000000; fill-opacity:1.0; 
stroke:#000000; stroke-width:0; stroke-opacity:1; 
stroke-linecap:round; stroke-linejoin:round;">
<circle cx="44700" cy="47900" r="1259.84" /> 
</g>
<g style="fill:#000000; fill-opacity:1.0; 
stroke:#000000; stroke-width:39.3701; stroke-opacity:1; 
stroke-linecap:round; stroke-linejoin:round;">
</g>
<g >
</g>
<g style="fill:#000000; fill-opacity:1.0; 
stroke:#000000; stroke-width:39.3701; stroke-opacity:1; 
stroke-linecap:round; stroke-linejoin:round;">
</g>
<g style="fill:#000000; fill-opacity:1.0; 
stroke:#000000; stroke-width:0; stroke-opacity:1; 
stroke-linecap:round; stroke-linejoin:round;">
<circle cx="31700" cy="47900" r="1259.84" /> 
</g>
<g style="fill:#000000; fill-opacity:1.0; 
stroke:#000000; stroke-width:39.3701; stroke-opacity:1; 
stroke-linecap:round; stroke-linejoin:round;">
</g>
<g style="fill:#000000; fill-opacity:1.0; 
stroke:#000000; stroke-width:0; stroke-opacity:1; 
stroke-linecap:round; stroke-linejoin:round;">
<circle cx="32644.9" cy="47900" r="157.48" /> 
</g>
<g style="fill:#000000; fill-opacity:1.0; 
stroke:#000000; stroke-width:39.3701; stroke-opacity:1; 
stroke-linecap:round; stroke-linejoin:round;">
</g>
<g style="fill:#000000; fill-opacity:1.0; 
stroke:#000000; stroke-width:0; stroke-opacity:1; 
stroke-linecap:round; stroke-linejoin:round;">
<circle cx="32368.1" cy="48568.1" r="157.48" /> 
</g>
<g style="fill:#000000; fill-opacity:1.0; 
stroke:#000000; stroke-width:39.3701; stroke-opacity:1; 
stroke-linecap:round; stroke-linejoin:round;">
</g>
<g style="fill:#000000; fill-opacity:1.0; 
stroke:#000000; stroke-width:0; stroke-opacity:1; 
stroke-linecap:round; stroke-linejoin:round;">
<circle cx="31700" cy="48844.9" r="157.48" /> 
</g>
<g style="fill:#000000; fill-opacity:1.0; 
stroke:#000000; stroke-width:39.3701; stroke-opacity:1; 
stroke-linecap:round; stroke-linejoin:round;">
</g>
<g style="fill:#000000; fill-opacity:1.0; 
stroke:#000000; stroke-width:0; stroke-opacity:1; 
stroke-linecap:round; stroke-linejoin:round;">
<circle cx="31031.9" cy="48568.1" r="157.48" /> 
</g>
<g style="fill:#000000; fill-opacity:1.0; 
stroke:#000000; stroke-width:39.3701; stroke-opacity:1; 
stroke-linecap:round; stroke-linejoin:round;">
</g>
<g style="fill:#000000; fill-opacity:1.0; 
stroke:#000000; stroke-width:0; stroke-opacity:1; 
stroke-linecap:round; stroke-linejoin:round;">
<circle cx="30755.1" cy="47900" r="157.48" /> 
</g>
<g style="fill:#000000; fill-opacity:1.0; 
stroke:#000000; stroke-width:39.3701; stroke-opacity:1; 
stroke-linecap:round; stroke-linejoin:round;">
</g>
<g style="fill:#000000; fill-opacity:1.0; 
stroke:#000000; stroke-width:0; stroke-opacity:1; 
stroke-linecap:round; stroke-linejoin:round;">
<circle cx="31031.9" cy="47231.9" r="157.48" /> 
</g>
<g style="fill:#000000; fill-opacity:1.0; 
stroke:#000000; stroke-width:39.3701; stroke-opacity:1; 
stroke-linecap:round; stroke-linejoin:round;">
</g>
<g style="fill:#000000; fill-opacity:1.0; 
stroke:#000000; stroke-width:0; stroke-opacity:1; 
stroke-linecap:round; stroke-linejoin:round;">
<circle cx="31700" cy="46955.1" r="157.48" /> 
</g>
<g style="fill:#000000; fill-opacity:1.0; 
stroke:#000000; stroke-width:39.3701; stroke-opacity:1; 
stroke-linecap:round; stroke-linejoin:round;">
</g>
<g style="fill:#000000; fill-opacity:1.0; 
stroke:#000000; stroke-width:0; stroke-opacity:1; 
stroke-linecap:round; stroke-linejoin:round;">
<circle cx="32368.1" cy="47231.9" r="157.48" /> 
</g>
<g style="fill:#000000; fill-opacity:1.0; 
stroke:#000000; stroke-width:39.3701; stroke-opacity:1; 
stroke-linecap:round; stroke-linejoin:round;">
</g>
<g >
</g>
<g style="fill:#000000; fill-opacity:1.0; 
stroke:#000000; stroke-width:39.3701; stroke-opacity:1; 
stroke-linecap:round; stroke-linejoin:round;">
</g>
<g style="fill:#000000; fill-opacity:1.0; 
stroke:#000000; stroke-width:0; stroke-opacity:1; 
stroke-linecap:round; stroke-linejoin:round;">
<path style="fill:#000000; fill-opacity:1.0; 
stroke:#000000; stroke-width:0; stroke-opacity:1; 
stroke-linecap:round; stroke-linejoin:round;fill-rule:evenodd;"
d="M 42593.7,17006.3
42593.7,17793.7
41806.3,17793.7
41806.3,17006.3
Z" /> 
<circle cx="39207.9" cy="17400" r="393.701" /> 
</g>
<g style="fill:#000000; fill-opacity:1.0; 
stroke:#000000; stroke-width:39.3701; stroke-opacity:1; 
stroke-linecap:round; stroke-linejoin:round;">
</g>
<g >
</g>
<g >
</g>
<g >
</g>
<g >
</g>
<g >
</g>
<g >
</g>
<g style="fill:#000000; fill-opacity:1.0; 
stroke:#000000; stroke-width:39.3701; stroke-opacity:1; 
stroke-linecap:round; stroke-linejoin:round;">
</g>
<g style="fill:#000000; fill-opacity:1.0; 
stroke:#000000; stroke-width:0; stroke-opacity:1; 
stroke-linecap:round; stroke-linejoin:round;">
<circle cx="40700" cy="46400" r="393.701" /> 
</g>
<g style="fill:#000000; fill-opacity:1.0; 
stroke:#000000; stroke-width:39.3701; stroke-opacity:1; 
stroke-linecap:round; stroke-linejoin:round;">
</g>
<g >
</g>
<g style="fill:#000000; fill-opacity:1.0; 
stroke:#000000; stroke-width:39.3701; stroke-opacity:1; 
stroke-linecap:round; stroke-linejoin:round;">
</g>
<g style="fill:#000000; fill-opacity:1.0; 
stroke:#000000; stroke-width:0; stroke-opacity:1; 
stroke-linecap:round; stroke-linejoin:round;">
<circle cx="38700" cy="46390.2" r="393.701" /> 
</g>
<g style="fill:#000000; fill-opacity:1.0; 
stroke:#000000; stroke-width:39.3701; stroke-opacity:1; 
stroke-linecap:round; stroke-linejoin:round;">
</g>
<g >
</g>
<g style="fill:#000000; fill-opacity:1.0; 
stroke:#000000; stroke-width:39.3701; stroke-opacity:1; 
stroke-linecap:round; stroke-linejoin:round;">
</g>
<g style="fill:#000000; fill-opacity:1.0; 
stroke:#000000; stroke-width:0; stroke-opacity:1; 
stroke-linecap:round; stroke-linejoin:round;">
<circle cx="34700" cy="36400" r="157.48" /> 
</g>
<g style="fill:#000000; fill-opacity:1.0; 
stroke:#000000; stroke-width:39.3701; stroke-opacity:1; 
stroke-linecap:round; stroke-linejoin:round;">
</g>
<g style="fill:#000000; fill-opacity:1.0; 
stroke:#000000; stroke-width:0; stroke-opacity:1; 
stroke-linecap:round; stroke-linejoin:round;">
<circle cx="33200" cy="29900" r="157.48" /> 
</g>
<g style="fill:#000000; fill-opacity:1.0; 
stroke:#000000; stroke-width:39.3701; stroke-opacity:1; 
stroke-linecap:round; stroke-linejoin:round;">
</g>
<g style="fill:#000000; fill-opacity:1.0; 
stroke:#000000; stroke-width:0; stroke-opacity:1; 
stroke-linecap:round; stroke-linejoin:round;">
<circle cx="33200" cy="23900" r="157.48" /> 
</g>
<g style="fill:#000000; fill-opacity:1.0; 
stroke:#000000; stroke-width:39.3701; stroke-opacity:1; 
stroke-linecap:round; stroke-linejoin:round;">
</g>
<g style="fill:#000000; fill-opacity:1.0; 
stroke:#000000; stroke-width:0; stroke-opacity:1; 
stroke-linecap:round; stroke-linejoin:round;">
<circle cx="43200" cy="21900" r="157.48" /> 
</g>
<g style="fill:#000000; fill-opacity:1.0; 
stroke:#000000; stroke-width:39.3701; stroke-opacity:1; 
stroke-linecap:round; stroke-linejoin:round;">
</g>
<g style="fill:#000000; fill-opacity:1.0; 
stroke:#000000; stroke-width:0; stroke-opacity:1; 
stroke-linecap:round; stroke-linejoin:round;">
<circle cx="43200" cy="27900" r="157.48" /> 
</g>
<g style="fill:#000000; fill-opacity:1.0; 
stroke:#000000; stroke-width:39.3701; stroke-opacity:1; 
stroke-linecap:round; stroke-linejoin:round;">
</g>
<g style="fill:#000000; fill-opacity:1.0; 
stroke:#000000; stroke-width:0; stroke-opacity:1; 
stroke-linecap:round; stroke-linejoin:round;">
<circle cx="32200" cy="44300" r="157.48" /> 
</g>
<g style="fill:#000000; fill-opacity:1.0; 
stroke:#000000; stroke-width:39.3701; stroke-opacity:1; 
stroke-linecap:round; stroke-linejoin:round;">
</g>
<g >
</g>
<g style="fill:#000000; fill-opacity:1.0; 
stroke:#000000; stroke-width:39.3701; stroke-opacity:1; 
stroke-linecap:round; stroke-linejoin:round;">
</g>
<g style="fill:#000000; fill-opacity:1.0; 
stroke:#000000; stroke-width:200; stroke-opacity:1; 
stroke-linecap:round; stroke-linejoin:round;">
</g>
<g style="fill:#000000; fill-opacity:0.0; 
stroke:#000000; stroke-width:200; stroke-opacity:1; 
stroke-linecap:round; stroke-linejoin:round;">
<path d="M33469 36900
L31200 36900
" />
<path d="M33969 36400
L33469 36900
" />
<path d="M34700 36400
L33969 36400
" />
<path d="M33200 29900
L31200 29900
" />
<path d="M33200 23900
L31200 21900
" />
<path d="M45158 19941
L45158 19900
" />
<path d="M43200 21900
L45158 19941
" />
<path d="M43200 27900
L45200 27900
" />
<path d="M42200 34900
L45200 34900
" />
</g>
<g >
</g>
<g style="fill:#000000; fill-opacity:0.0; 
stroke:#000000; stroke-width:200; stroke-opacity:1; 
stroke-linecap:round; stroke-linejoin:round;">
<g >
</g>
<g style="fill:#000000; fill-opacity:1.0; 
stroke:#000000; stroke-width:100; stroke-opacity:1; 
stroke-linecap:round; stroke-linejoin:round;">
<path style="fill:#000000; fill-opacity:1.0; 
stroke:#000000; stroke-width:100; stroke-opacity:1; 
stroke-linecap:round; stroke-linejoin:round;fill-rule:evenodd;"
d="M 43737.5,14227.2
43527.2,14437.5
43362,14684.8
43248.2,14959.6
43190.2,15251.3
43190.2,15548.7
43248.2,15840.4
43362,16115.2
43527.2,16362.5
43737.5,16572.8
43984.8,16738
44259.6,16851.8
44551.3,16909.8
44848.7,16909.8
45140.4,16851.8
45415.2,16738
45662.5,16572.8
45872.8,16362.5
45945,16254.4
45945,20887.5
45945,20887.5
45945,21887.5
45945,21887.5
45945,45887.5
45945,45887.5
45945,47045.6
45872.8,46937.5
45662.5,46727.2
45415.2,46562
45140.4,46448.2
44848.7,46390.2
44551.3,46390.2
44259.6,46448.2
43984.8,46562
43737.5,46727.2
43527.2,46937.5
43362,47184.8
43248.2,47459.6
43190.2,47751.3
43190.2,48048.7
43248.2,48340.4
43362,48615.2
43527.2,48862.5
43737.5,49072.8
43845.6,49145
32554.4,49145
32662.5,49072.8
32872.8,48862.5
33038,48615.2
33151.8,48340.4
33209.8,48048.7
33209.8,47751.3
33151.8,47459.6
33038,47184.8
32872.8,46937.5
32772.4,46837.2
38323.7,46837.2
38361.4,46941.3
38475.4,46996.7
38598.1,47028.9
38724.6,47036.5
38850.3,47019.3
38970.1,46977.9
39038.6,46941.3
39076.3,46837.2
38700,46460.9
38323.7,46837.2
32772.4,46837.2
32662.5,46727.2
32415.2,46562
32140.4,46448.2
31972.6,46414.8
38053.7,46414.8
38070.9,46540.4
38112.3,46660.3
38148.9,46728.8
38253,46766.5
38629.3,46390.2
38770.7,46390.2
39147,46766.5
39251.1,46728.8
39306.6,46614.7
39338.7,46492.1
39346.3,46365.5
39342.4,46336.6
40056.3,46336.6
40056.3,46463.4
40081,46587.8
40129.6,46704.9
40200,46810.3
40289.7,46900
40395.1,46970.4
40512.2,47019
40636.6,47043.7
40763.4,47043.7
40887.8,47019
41004.9,46970.4
41110.3,46900
41200,46810.3
41270.4,46704.9
41319,46587.8
41343.7,46463.4
41343.7,46336.6
41319,46212.2
41270.4,46095.1
41200,45989.7
41110.3,45900
41004.9,45829.6
40887.8,45781
40763.4,45756.3
40636.6,45756.3
40512.2,45781
40395.1,45829.6
40289.7,45900
40200,45989.7
40129.6,46095.1
40081,46212.2
40056.3,46336.6
39342.4,46336.6
39329.1,46239.9
39287.7,46120
39251.1,46051.6
39147,46013.9
38770.7,46390.2
38629.3,46390.2
38253,46013.9
38148.9,46051.6
38093.4,46165.6
38061.3,46288.2
38053.7,46414.8
31972.6,46414.8
31848.7,46390.2
31551.3,46390.2
31259.6,46448.2
30984.8,46562
30737.5,46727.2
30527.2,46937.5
30455,47045.6
30455,45943.1
38323.7,45943.1
38700,46319.4
39076.3,45943.1
39038.6,45839.1
38924.6,45783.6
38801.9,45751.4
38675.4,45743.8
38549.7,45761
38429.9,45802.4
38361.4,45839.1
38323.7,45943.1
30455,45943.1
30455,44105.1
37106.3,44105.1
37106.3,44231.9
37131,44356.3
37179.6,44473.4
37250,44578.8
37339.7,44668.5
37445.1,44738.9
37562.2,44787.5
37686.6,44812.2
37813.4,44812.2
37937.8,44787.5
38054.9,44738.9
38160.3,44668.5
38250,44578.8
38320.4,44473.4
38369,44356.3
38382.8,44286.6
40046.3,44286.6
40046.3,44413.4
40071,44537.8
40119.6,44654.9
40190,44760.3
40279.7,44850
40385.1,44920.4
40502.2,44969
40626.6,44993.7
40753.4,44993.7
40877.8,44969
40994.9,44920.4
41100.3,44850
41190,44760.3
41260.4,44654.9
41309,44537.8
41333.7,44413.4
41333.7,44286.6
41309,44162.2
41260.4,44045.1
41190,43939.7
41100.3,43850
40994.9,43779.6
40877.8,43731
40753.4,43706.3
40626.6,43706.3
40502.2,43731
40385.1,43779.6
40279.7,43850
40190,43939.7
40119.6,44045.1
40071,44162.2
40046.3,44286.6
38382.8,44286.6
38393.7,44231.9
38393.7,44105.1
38369,43980.7
38320.4,43863.6
38250,43758.2
38160.3,43668.5
38054.9,43598.1
37937.8,43549.5
37813.4,43524.8
37686.6,43524.8
37562.2,43549.5
37445.1,43598.1
37339.7,43668.5
37250,43758.2
37179.6,43863.6
37131,43980.7
37106.3,44105.1
30455,44105.1
30455,42593.7
37105.1,42593.7
37109.9,42642.7
37124.2,42689.8
37147.4,42733.3
37178.7,42771.3
37216.7,42802.6
37260.2,42825.8
37307.3,42840.1
37356.3,42844.9
37637.5,42843.7
37700,42781.2
37700,42250
37800,42250
37800,42781.2
37862.5,42843.7
38143.7,42844.9
38192.7,42840.1
38239.8,42825.8
38283.3,42802.6
38321.3,42771.3
38344,42743.7
40045.1,42743.7
40049.9,42792.7
40064.2,42839.8
40087.4,42883.3
40118.7,42921.3
40156.7,42952.6
40200.2,42975.8
40247.3,42990.1
40296.3,42994.9
40577.5,42993.7
40640,42931.2
40640,42400
40740,42400
40740,42931.2
40802.5,42993.7
41083.7,42994.9
41132.7,42990.1
41179.8,42975.8
41223.3,42952.6
41261.3,42921.3
41292.6,42883.3
41315.8,42839.8
41330.1,42792.7
41334.9,42743.7
41333.7,42462.5
41271.2,42400
40740,42400
40640,42400
40108.8,42400
40046.3,42462.5
40045.1,42743.7
38344,42743.7
38352.6,42733.3
38375.8,42689.8
38390.1,42642.7
38394.9,42593.7
38393.7,42312.5
38331.2,42250
37800,42250
37700,42250
37168.8,42250
37106.3,42312.5
37105.1,42593.7
30455,42593.7
30455,41806.3
37105.1,41806.3
37106.3,42087.5
37168.8,42150
37700,42150
37700,41618.8
37800,41618.8
37800,42150
38331.2,42150
38393.7,42087.5
38394.3,41956.3
40045.1,41956.3
40046.3,42237.5
40108.8,42300
40640,42300
40640,41768.8
40740,41768.8
40740,42300
41271.2,42300
41333.7,42237.5
41334.9,41956.3
41330.1,41907.3
41315.8,41860.2
41292.6,41816.7
41261.3,41778.7
41223.3,41747.4
41179.8,41724.2
41132.7,41709.9
41083.7,41705.1
40802.5,41706.3
40740,41768.8
40640,41768.8
40577.5,41706.3
40296.3,41705.1
40247.3,41709.9
40200.2,41724.2
40156.7,41747.4
40118.7,41778.7
40087.4,41816.7
40064.2,41860.2
40049.9,41907.3
40045.1,41956.3
38394.3,41956.3
38394.9,41806.3
38390.1,41757.3
38375.8,41710.2
38352.6,41666.7
38321.3,41628.7
38283.3,41597.4
38239.8,41574.2
38192.7,41559.9
38143.7,41555.1
37862.5,41556.3
37800,41618.8
37700,41618.8
37637.5,41556.3
37356.3,41555.1
37307.3,41559.9
37260.2,41574.2
37216.7,41597.4
37178.7,41628.7
37147.4,41666.7
37124.2,41710.2
37109.9,41757.3
37105.1,41806.3
30455,41806.3
30455,40909.4
42767.7,40909.4
42767.7,42090.6
42783.9,42254.8
42831.8,42412.7
42909.6,42558.2
43014.2,42685.8
43141.8,42790.4
43287.3,42868.2
43445.2,42916.1
43609.4,42932.3
43914.4,42932.3
43782.6,42958.5
43522.1,43066.4
43287.7,43223
43088.4,43422.4
42931.8,43656.8
42823.9,43917.2
42768.9,44193.7
42768.9,44475.6
42823.9,44752.1
42931.8,45012.5
43088.4,45246.9
43287.7,45446.3
43522.1,45602.9
43782.6,45710.8
44059,45765.7
44341,45765.7
44617.4,45710.8
44877.9,45602.9
45112.3,45446.3
45311.6,45246.9
45468.2,45012.5
45576.1,44752.1
45631.1,44475.6
45631.1,44193.7
45576.1,43917.2
45468.2,43656.8
45311.6,43422.4
45112.3,43223
44877.9,43066.4
44617.4,42958.5
44485.6,42932.3
44790.6,42932.3
44954.8,42916.1
45112.7,42868.2
45258.2,42790.4
45385.8,42685.8
45490.4,42558.2
45568.2,42412.7
45616.1,42254.8
45632.3,42090.6
45632.3,40909.4
45616.1,40745.2
45568.2,40587.3
45490.4,40441.8
45385.8,40314.2
45258.2,40209.6
45112.7,40131.8
44954.8,40083.9
44790.6,40067.7
43609.4,40067.7
43445.2,40083.9
43287.3,40131.8
43141.8,40209.6
43014.2,40314.2
42909.6,40441.8
42831.8,40587.3
42783.9,40745.2
42767.7,40909.4
30455,40909.4
30455,37565.4
30614.1,37565.4
30614.1,38234.6
30619,38283.7
30633.3,38330.8
30656.5,38374.2
30687.7,38412.3
30725.8,38443.5
30769.2,38466.7
30816.3,38481
30865.4,38485.9
31534.6,38485.9
31583.7,38481
31630.8,38466.7
31674.2,38443.5
31712.3,38412.3
31743.5,38374.2
31766.7,38330.8
31781,38283.7
31785.9,38234.6
31785.9,37565.4
31781,37516.3
31766.7,37469.2
31743.5,37425.8
31712.3,37387.7
31674.2,37356.5
31630.8,37333.3
31602.2,37324.6
31654.1,37272.7
31669.3,37250
33452.1,37250
33469.3,37251.7
33486.5,37250
33486.5,37250
33537.9,37244.9
33603.9,37224.9
33664.7,37192.4
33698.2,37164.9
33699.3,37167.6
33761.2,37260.1
33839.9,37338.8
33931.4,37400
33839.9,37461.2
33761.2,37539.9
33699.3,37632.4
33656.8,37735.2
33635,37844.4
33635,37955.6
33656.8,38064.8
33699.3,38167.6
33761.2,38260.1
33839.9,38338.8
33932.4,38400.7
34035.2,38443.2
34144.4,38465
34255.6,38465
34364.8,38443.2
34467.6,38400.7
34560.1,38338.8
34638.8,38260.1
34700.7,38167.6
34743.2,38064.8
34765,37955.6
34765,37844.4
34743.2,37735.2
34700.7,37632.4
34638.8,37539.9
34560.1,37461.2
34468.6,37400
34560.1,37338.8
34638.8,37260.1
34700.7,37167.6
34743.2,37064.8
34765,36955.6
34765,36844.4
34757,36804.1
34818.9,36791.8
34893,36761.1
34959.8,36716.5
35016.5,36659.8
35061.1,36593
35091.8,36518.9
35107.5,36440.1
35107.5,36359.9
35091.8,36281.1
35061.1,36207
35016.5,36140.2
34959.8,36083.5
34893,36038.9
34818.9,36008.2
34757,35995.9
34765,35955.6
34765,35844.4
34743.2,35735.2
34700.7,35632.4
34638.8,35539.9
34560.1,35461.2
34468.6,35400
34560.1,35338.8
34638.8,35260.1
34700.7,35167.6
34743.2,35064.8
34765,34955.6
34765,34844.4
34743.2,34735.2
34700.7,34632.4
34638.8,34539.9
34560.1,34461.2
34468.6,34400
34560.1,34338.8
34638.8,34260.1
34700.7,34167.6
34743.2,34064.8
34765,33955.6
34765,33844.4
34743.2,33735.2
34700.7,33632.4
34638.8,33539.9
34560.1,33461.2
34468.6,33400
34560.1,33338.8
34638.8,33260.1
34700.7,33167.6
34743.2,33064.8
34765,32955.6
34765,32844.4
34743.2,32735.2
34700.7,32632.4
34638.8,32539.9
34560.1,32461.2
34468.6,32400
34560.1,32338.8
34638.8,32260.1
34700.7,32167.6
34743.2,32064.8
34765,31955.6
34765,31844.4
34743.2,31735.2
34700.7,31632.4
34638.8,31539.9
34560.1,31461.2
34468.6,31400
34560.1,31338.8
34638.8,31260.1
34700.7,31167.6
34743.2,31064.8
34765,30955.6
34765,30844.4
34743.2,30735.2
34700.7,30632.4
34638.8,30539.9
34560.1,30461.2
34468.6,30400
34560.1,30338.8
34638.8,30260.1
34700.7,30167.6
34743.2,30064.8
34765,29955.6
34765,29844.4
34743.2,29735.2
34700.7,29632.4
34638.8,29539.9
34560.1,29461.2
34468.6,29400
34560.1,29338.8
34638.8,29260.1
34700.7,29167.6
34743.2,29064.8
34765,28955.6
34765,28844.4
34743.2,28735.2
34700.7,28632.4
34638.8,28539.9
34560.1,28461.2
34468.6,28400
34560.1,28338.8
34638.8,28260.1
34700.7,28167.6
34743.2,28064.8
34765,27955.6
34765,27844.4
34743.2,27735.2
34700.7,27632.4
34638.8,27539.9
34560.1,27461.2
34468.6,27400
34560.1,27338.8
34638.8,27260.1
34700.7,27167.6
34743.2,27064.8
34765,26955.6
34765,26844.4
41635,26844.4
41635,26955.6
41656.8,27064.8
41699.3,27167.6
41761.2,27260.1
41839.9,27338.8
41931.4,27400
41839.9,27461.2
41761.2,27539.9
41699.3,27632.4
41656.8,27735.2
41635,27844.4
41635,27955.6
41656.8,28064.8
41699.3,28167.6
41761.2,28260.1
41839.9,28338.8
41931.4,28400
41839.9,28461.2
41761.2,28539.9
41699.3,28632.4
41656.8,28735.2
41635,28844.4
41635,28955.6
41656.8,29064.8
41699.3,29167.6
41761.2,29260.1
41839.9,29338.8
41931.4,29400
41839.9,29461.2
41761.2,29539.9
41699.3,29632.4
41656.8,29735.2
41635,29844.4
41635,29955.6
41656.8,30064.8
41699.3,30167.6
41761.2,30260.1
41839.9,30338.8
41931.4,30400
41839.9,30461.2
41761.2,30539.9
41699.3,30632.4
41656.8,30735.2
41635,30844.4
41635,30955.6
41656.8,31064.8
41699.3,31167.6
41761.2,31260.1
41839.9,31338.8
41931.4,31400
41839.9,31461.2
41761.2,31539.9
41699.3,31632.4
41656.8,31735.2
41635,31844.4
41635,31955.6
41656.8,32064.8
41699.3,32167.6
41761.2,32260.1
41839.9,32338.8
41931.4,32400
41839.9,32461.2
41761.2,32539.9
41699.3,32632.4
41656.8,32735.2
41635,32844.4
41635,32955.6
41656.8,33064.8
41699.3,33167.6
41761.2,33260.1
41839.9,33338.8
41931.4,33400
41839.9,33461.2
41761.2,33539.9
41699.3,33632.4
41656.8,33735.2
41635,33844.4
41635,33955.6
41656.8,34064.8
41699.3,34167.6
41761.2,34260.1
41839.9,34338.8
41931.4,34400
41839.9,34461.2
41761.2,34539.9
41699.3,34632.4
41656.8,34735.2
41635,34844.4
41635,34955.6
41656.8,35064.8
41699.3,35167.6
41761.2,35260.1
41839.9,35338.8
41931.4,35400
41839.9,35461.2
41761.2,35539.9
41699.3,35632.4
41656.8,35735.2
41635,35844.4
41635,35955.6
41656.8,36064.8
41699.3,36167.6
41761.2,36260.1
41839.9,36338.8
41931.4,36400
41839.9,36461.2
41761.2,36539.9
41699.3,36632.4
41656.8,36735.2
41635,36844.4
41635,36955.6
41656.8,37064.8
41699.3,37167.6
41761.2,37260.1
41839.9,37338.8
41931.4,37400
41839.9,37461.2
41761.2,37539.9
41699.3,37632.4
41656.8,37735.2
41635,37844.4
41635,37955.6
41656.8,38064.8
41699.3,38167.6
41761.2,38260.1
41839.9,38338.8
41932.4,38400.7
42035.2,38443.2
42144.4,38465
42255.6,38465
42364.8,38443.2
42467.6,38400.7
42560.1,38338.8
42638.8,38260.1
42700.7,38167.6
42743.2,38064.8
42765,37955.6
42765,37844.4
42764.6,37842.4
44615.4,37842.4
44615.4,37957.6
44637.8,38070.5
44681.9,38176.9
44745.9,38272.7
44827.3,38354.1
44923.1,38418.1
45029.5,38462.2
45142.4,38484.6
45257.6,38484.6
45370.5,38462.2
45476.9,38418.1
45572.7,38354.1
45654.1,38272.7
45718.1,38176.9
45762.2,38070.5
45784.6,37957.6
45784.6,37842.4
45762.2,37729.5
45718.1,37623.1
45654.1,37527.3
45572.7,37445.9
45501,37398
45547,37370.5
45632.1,37293.8
45700.6,37201.9
45749.9,37098.5
45767.5,37040.5
45719.7,36950
45250,36950
45250,36957.9
45150,36957.9
45150,36950
44680.3,36950
44632.5,37040.5
44650.1,37098.5
44699.4,37201.9
44767.9,37293.8
44853,37370.5
44899,37398
44827.3,37445.9
44745.9,37527.3
44681.9,37623.1
44637.8,37729.5
44615.4,37842.4
42764.6,37842.4
42743.2,37735.2
42700.7,37632.4
42638.8,37539.9
42560.1,37461.2
42468.6,37400
42560.1,37338.8
42638.8,37260.1
42700.7,37167.6
42743.2,37064.8
42765,36955.6
42765,36844.4
42743.2,36735.2
42700.7,36632.4
42638.8,36539.9
42560.1,36461.2
42468.6,36400
42560.1,36338.8
42638.8,36260.1
42700.7,36167.6
42743.2,36064.8
42765,35955.6
42765,35844.4
42743.2,35735.2
42700.7,35632.4
42638.8,35539.9
42560.1,35461.2
42468.6,35400
42560.1,35338.8
42638.8,35260.1
42645.6,35250
44615.7,35250
44619,35283.7
44633.3,35330.8
44656.5,35374.2
44687.7,35412.3
44725.8,35443.5
44769.2,35466.7
44797.8,35475.4
44745.9,35527.3
44681.9,35623.1
44637.8,35729.5
44615.4,35842.4
44615.4,35957.6
44637.8,36070.5
44681.9,36176.9
44745.9,36272.7
44827.3,36354.1
44899,36402
44853,36429.5
44767.9,36506.2
44699.4,36598.1
44650.1,36701.5
44632.5,36759.5
44680.3,36850
45150,36850
45150,36842.1
45250,36842.1
45250,36850
45719.7,36850
45767.5,36759.5
45749.9,36701.5
45700.6,36598.1
45632.1,36506.2
45547,36429.5
45501,36402
45572.7,36354.1
45654.1,36272.7
45718.1,36176.9
45762.2,36070.5
45784.6,35957.6
45784.6,35842.4
45762.2,35729.5
45718.1,35623.1
45654.1,35527.3
45602.2,35475.4
45630.8,35466.7
45674.2,35443.5
45712.3,35412.3
45743.5,35374.2
45766.7,35330.8
45781,35283.7
45785.9,35234.6
45785.9,34565.4
45781,34516.3
45766.7,34469.2
45743.5,34425.8
45712.3,34387.7
45674.2,34356.5
45630.8,34333.3
45583.7,34319
45534.6,34314.1
44865.4,34314.1
44816.3,34319
44769.2,34333.3
44725.8,34356.5
44687.7,34387.7
44656.5,34425.8
44633.3,34469.2
44619,34516.3
44615.7,34550
42645.6,34550
42638.8,34539.9
42560.1,34461.2
42468.6,34400
42560.1,34338.8
42638.8,34260.1
42700.7,34167.6
42743.2,34064.8
42765,33955.6
42765,33844.4
42743.2,33735.2
42700.7,33632.4
42638.8,33539.9
42560.1,33461.2
42468.6,33400
42560.1,33338.8
42638.8,33260.1
42700.7,33167.6
42743.2,33064.8
42765,32955.6
42765,32844.4
42743.2,32735.2
42700.7,32632.4
42638.8,32539.9
42560.1,32461.2
42468.6,32400
42560.1,32338.8
42638.8,32260.1
42700.7,32167.6
42743.2,32064.8
42765,31955.6
42765,31844.4
42743.2,31735.2
42700.7,31632.4
42638.8,31539.9
42560.1,31461.2
42468.6,31400
42560.1,31338.8
42638.8,31260.1
42700.7,31167.6
42743.2,31064.8
42765,30955.6
42765,30844.4
42743.2,30735.2
42700.7,30632.4
42638.8,30539.9
42560.1,30461.2
42468.6,30400
42560.1,30338.8
42638.8,30260.1
42700.7,30167.6
42743.2,30064.8
42765,29955.6
42765,29844.4
42764.6,29842.4
44615.4,29842.4
44615.4,29957.6
44637.8,30070.5
44681.9,30176.9
44745.9,30272.7
44827.3,30354.1
44923.1,30418.1
45029.5,30462.2
45142.4,30484.6
45257.6,30484.6
45370.5,30462.2
45476.9,30418.1
45572.7,30354.1
45654.1,30272.7
45718.1,30176.9
45762.2,30070.5
45784.6,29957.6
45784.6,29842.4
45762.2,29729.5
45718.1,29623.1
45654.1,29527.3
45572.7,29445.9
45501,29398
45547,29370.5
45632.1,29293.8
45700.6,29201.9
45749.9,29098.5
45767.5,29040.5
45719.7,28950
45250,28950
45250,28957.9
45150,28957.9
45150,28950
44680.3,28950
44632.5,29040.5
44650.1,29098.5
44699.4,29201.9
44767.9,29293.8
44853,29370.5
44899,29398
44827.3,29445.9
44745.9,29527.3
44681.9,29623.1
44637.8,29729.5
44615.4,29842.4
42764.6,29842.4
42743.2,29735.2
42700.7,29632.4
42638.8,29539.9
42560.1,29461.2
42468.6,29400
42560.1,29338.8
42638.8,29260.1
42700.7,29167.6
42743.2,29064.8
42765,28955.6
42765,28844.4
42743.2,28735.2
42700.7,28632.4
42638.8,28539.9
42560.1,28461.2
42468.6,28400
42560.1,28338.8
42638.8,28260.1
42700.7,28167.6
42743.2,28064.8
42765,27955.6
42765,27859.9
42792.5,27859.9
42792.5,27940.1
42808.2,28018.9
42838.9,28093
42883.5,28159.8
42940.2,28216.5
43007,28261.1
43081.1,28291.8
43159.9,28307.5
43240.1,28307.5
43318.9,28291.8
43393,28261.1
43409.6,28250
44730.7,28250
44745.9,28272.7
44827.3,28354.1
44899,28402
44853,28429.5
44767.9,28506.2
44699.4,28598.1
44650.1,28701.5
44632.5,28759.5
44680.3,28850
45150,28850
45150,28842.1
45250,28842.1
45250,28850
45719.7,28850
45767.5,28759.5
45749.9,28701.5
45700.6,28598.1
45632.1,28506.2
45547,28429.5
45501,28402
45572.7,28354.1
45654.1,28272.7
45718.1,28176.9
45762.2,28070.5
45784.6,27957.6
45784.6,27842.4
45762.2,27729.5
45718.1,27623.1
45654.1,27527.3
45602.2,27475.4
45630.8,27466.7
45674.2,27443.5
45712.3,27412.3
45743.5,27374.2
45766.7,27330.8
45781,27283.7
45785.9,27234.6
45785.9,26565.4
45781,26516.3
45766.7,26469.2
45743.5,26425.8
45712.3,26387.7
45674.2,26356.5
45630.8,26333.3
45583.7,26319
45534.6,26314.1
44865.4,26314.1
44816.3,26319
44769.2,26333.3
44725.8,26356.5
44687.7,26387.7
44656.5,26425.8
44633.3,26469.2
44619,26516.3
44614.1,26565.4
44614.1,27234.6
44619,27283.7
44633.3,27330.8
44656.5,27374.2
44687.7,27412.3
44725.8,27443.5
44769.2,27466.7
44797.8,27475.4
44745.9,27527.3
44730.7,27550
43409.6,27550
43393,27538.9
43318.9,27508.2
43240.1,27492.5
43159.9,27492.5
43081.1,27508.2
43007,27538.9
42940.2,27583.5
42883.5,27640.2
42838.9,27707
42808.2,27781.1
42792.5,27859.9
42765,27859.9
42765,27844.4
42743.2,27735.2
42700.7,27632.4
42638.8,27539.9
42560.1,27461.2
42468.6,27400
42560.1,27338.8
42638.8,27260.1
42700.7,27167.6
42743.2,27064.8
42765,26955.6
42765,26844.4
42743.2,26735.2
42700.7,26632.4
42638.8,26539.9
42560.1,26461.2
42467.6,26399.3
42364.8,26356.8
42255.6,26335
42144.4,26335
42035.2,26356.8
41932.4,26399.3
41839.9,26461.2
41761.2,26539.9
41699.3,26632.4
41656.8,26735.2
41635,26844.4
34765,26844.4
34743.2,26735.2
34700.7,26632.4
34638.8,26539.9
34560.1,26461.2
34468.6,26400
34560.1,26338.8
34638.8,26260.1
34700.7,26167.6
34743.2,26064.8
34765,25955.6
34765,25844.4
34743.2,25735.2
34700.7,25632.4
34638.8,25539.9
34560.1,25461.2
34468.6,25400
34560.1,25338.8
34638.8,25260.1
34700.7,25167.6
34743.2,25064.8
34765,24955.6
34765,24844.4
34743.2,24735.2
34700.7,24632.4
34638.8,24539.9
34560.1,24461.2
34468.6,24400
34560.1,24338.8
34638.8,24260.1
34700.7,24167.6
34743.2,24064.8
34765,23955.6
34765,23844.4
34743.2,23735.2
34700.7,23632.4
34638.8,23539.9
34560.6,23461.7
34564,23461.3
34611.1,23447
34654.5,23423.8
34692.6,23392.6
34723.8,23354.5
34747,23311.1
34761.3,23264
34766.2,23215
34766.2,22585
34761.3,22536
34747,22488.9
34723.8,22445.5
34692.6,22407.4
34654.5,22376.2
34611.1,22353
34564,22338.7
34515,22333.8
33885,22333.8
33836,22338.7
33788.9,22353
33745.5,22376.2
33707.4,22407.4
33676.2,22445.5
33653,22488.9
33638.7,22536
33633.8,22585
33633.8,23215
33638.7,23264
33653,23311.1
33676.2,23354.5
33707.4,23392.6
33745.5,23423.8
33788.9,23447
33836,23461.3
33839.4,23461.7
33761.2,23539.9
33699.3,23632.4
33656.8,23735.2
33635,23844.4
33635,23955.6
33656.8,24064.8
33699.3,24167.6
33761.2,24260.1
33839.9,24338.8
33931.4,24400
33839.9,24461.2
33761.2,24539.9
33699.3,24632.4
33656.8,24735.2
33635,24844.4
33635,24955.6
33656.8,25064.8
33699.3,25167.6
33761.2,25260.1
33839.9,25338.8
33931.4,25400
33839.9,25461.2
33761.2,25539.9
33699.3,25632.4
33656.8,25735.2
33635,25844.4
33635,25955.6
33656.8,26064.8
33699.3,26167.6
33761.2,26260.1
33839.9,26338.8
33931.4,26400
33839.9,26461.2
33761.2,26539.9
33699.3,26632.4
33656.8,26735.2
33635,26844.4
33635,26955.6
33656.8,27064.8
33699.3,27167.6
33761.2,27260.1
33839.9,27338.8
33931.4,27400
33839.9,27461.2
33761.2,27539.9
33699.3,27632.4
33656.8,27735.2
33635,27844.4
33635,27955.6
33656.8,28064.8
33699.3,28167.6
33761.2,28260.1
33839.9,28338.8
33931.4,28400
33839.9,28461.2
33761.2,28539.9
33699.3,28632.4
33656.8,28735.2
33635,28844.4
33635,28955.6
33656.8,29064.8
33699.3,29167.6
33761.2,29260.1
33839.9,29338.8
33931.4,29400
33839.9,29461.2
33761.2,29539.9
33699.3,29632.4
33656.8,29735.2
33635,29844.4
33635,29955.6
33656.8,30064.8
33699.3,30167.6
33761.2,30260.1
33839.9,30338.8
33931.4,30400
33839.9,30461.2
33761.2,30539.9
33699.3,30632.4
33656.8,30735.2
33635,30844.4
33635,30955.6
33656.8,31064.8
33699.3,31167.6
33761.2,31260.1
33839.9,31338.8
33931.4,31400
33839.9,31461.2
33761.2,31539.9
33699.3,31632.4
33656.8,31735.2
33635,31844.4
33635,31955.6
33656.8,32064.8
33699.3,32167.6
33761.2,32260.1
33839.9,32338.8
33931.4,32400
33839.9,32461.2
33761.2,32539.9
33699.3,32632.4
33656.8,32735.2
33635,32844.4
33635,32955.6
33656.8,33064.8
33699.3,33167.6
33761.2,33260.1
33839.9,33338.8
33931.4,33400
33839.9,33461.2
33761.2,33539.9
33699.3,33632.4
33656.8,33735.2
33635,33844.4
33635,33955.6
33656.8,34064.8
33699.3,34167.6
33761.2,34260.1
33839.9,34338.8
33931.4,34400
33839.9,34461.2
33761.2,34539.9
33699.3,34632.4
33656.8,34735.2
33635,34844.4
33635,34955.6
33656.8,35064.8
33699.3,35167.6
33761.2,35260.1
33839.9,35338.8
33931.4,35400
33839.9,35461.2
33761.2,35539.9
33699.3,35632.4
33656.8,35735.2
33635,35844.4
33635,35955.6
33656.8,36064.8
33699.3,36167.6
33702.3,36172
33324.3,36550
31669.3,36550
31654.1,36527.3
31572.7,36445.9
31501,36398
31547,36370.5
31632.1,36293.8
31700.6,36201.9
31749.9,36098.5
31767.5,36040.5
31719.7,35950
31250,35950
31250,35957.9
31150,35957.9
31150,35950
30680.3,35950
30632.5,36040.5
30650.1,36098.5
30699.4,36201.9
30767.9,36293.8
30853,36370.5
30899,36398
30827.3,36445.9
30745.9,36527.3
30681.9,36623.1
30637.8,36729.5
30615.4,36842.4
30615.4,36957.6
30637.8,37070.5
30681.9,37176.9
30745.9,37272.7
30797.8,37324.6
30769.2,37333.3
30725.8,37356.5
30687.7,37387.7
30656.5,37425.8
30633.3,37469.2
30619,37516.3
30614.1,37565.4
30455,37565.4
30455,34842.4
30615.4,34842.4
30615.4,34957.6
30637.8,35070.5
30681.9,35176.9
30745.9,35272.7
30827.3,35354.1
30899,35402
30853,35429.5
30767.9,35506.2
30699.4,35598.1
30650.1,35701.5
30632.5,35759.5
30680.3,35850
31150,35850
31150,35842.1
31250,35842.1
31250,35850
31719.7,35850
31767.5,35759.5
31749.9,35701.5
31700.6,35598.1
31632.1,35506.2
31547,35429.5
31501,35402
31572.7,35354.1
31654.1,35272.7
31718.1,35176.9
31762.2,35070.5
31784.6,34957.6
31784.6,34842.4
31762.2,34729.5
31718.1,34623.1
31654.1,34527.3
31572.7,34445.9
31476.9,34381.9
31370.5,34337.8
31257.6,34315.4
31142.4,34315.4
31029.5,34337.8
30923.1,34381.9
30827.3,34445.9
30745.9,34527.3
30681.9,34623.1
30637.8,34729.5
30615.4,34842.4
30455,34842.4
30455,29565.4
30614.1,29565.4
30614.1,30234.6
30619,30283.7
30633.3,30330.8
30656.5,30374.2
30687.7,30412.3
30725.8,30443.5
30769.2,30466.7
30816.3,30481
30865.4,30485.9
31534.6,30485.9
31583.7,30481
31630.8,30466.7
31674.2,30443.5
31712.3,30412.3
31743.5,30374.2
31766.7,30330.8
31781,30283.7
31784.3,30250
32990.4,30250
33007,30261.1
33081.1,30291.8
33159.9,30307.5
33240.1,30307.5
33318.9,30291.8
33393,30261.1
33459.8,30216.5
33516.5,30159.8
33561.1,30093
33591.8,30018.9
33607.5,29940.1
33607.5,29859.9
33591.8,29781.1
33561.1,29707
33516.5,29640.2
33459.8,29583.5
33393,29538.9
33318.9,29508.2
33240.1,29492.5
33159.9,29492.5
33081.1,29508.2
33007,29538.9
32990.4,29550
31784.3,29550
31781,29516.3
31766.7,29469.2
31743.5,29425.8
31712.3,29387.7
31674.2,29356.5
31630.8,29333.3
31602.2,29324.6
31654.1,29272.7
31718.1,29176.9
31762.2,29070.5
31784.6,28957.6
31784.6,28842.4
31762.2,28729.5
31718.1,28623.1
31654.1,28527.3
31572.7,28445.9
31501,28398
31547,28370.5
31632.1,28293.8
31700.6,28201.9
31749.9,28098.5
31767.5,28040.5
31719.7,27950
31250,27950
31250,27957.9
31150,27957.9
31150,27950
30680.3,27950
30632.5,28040.5
30650.1,28098.5
30699.4,28201.9
30767.9,28293.8
30853,28370.5
30899,28398
30827.3,28445.9
30745.9,28527.3
30681.9,28623.1
30637.8,28729.5
30615.4,28842.4
30615.4,28957.6
30637.8,29070.5
30681.9,29176.9
30745.9,29272.7
30797.8,29324.6
30769.2,29333.3
30725.8,29356.5
30687.7,29387.7
30656.5,29425.8
30633.3,29469.2
30619,29516.3
30614.1,29565.4
30455,29565.4
30455,26842.4
30615.4,26842.4
30615.4,26957.6
30637.8,27070.5
30681.9,27176.9
30745.9,27272.7
30827.3,27354.1
30899,27402
30853,27429.5
30767.9,27506.2
30699.4,27598.1
30650.1,27701.5
30632.5,27759.5
30680.3,27850
31150,27850
31150,27842.1
31250,27842.1
31250,27850
31719.7,27850
31767.5,27759.5
31749.9,27701.5
31700.6,27598.1
31632.1,27506.2
31547,27429.5
31501,27402
31572.7,27354.1
31654.1,27272.7
31718.1,27176.9
31762.2,27070.5
31784.6,26957.6
31784.6,26842.4
31762.2,26729.5
31718.1,26623.1
31654.1,26527.3
31572.7,26445.9
31476.9,26381.9
31370.5,26337.8
31257.6,26315.4
31142.4,26315.4
31029.5,26337.8
30923.1,26381.9
30827.3,26445.9
30745.9,26527.3
30681.9,26623.1
30637.8,26729.5
30615.4,26842.4
30455,26842.4
30455,21565.4
30614.1,21565.4
30614.1,22234.6
30619,22283.7
30633.3,22330.8
30656.5,22374.2
30687.7,22412.3
30725.8,22443.5
30769.2,22466.7
30816.3,22481
30865.4,22485.9
31290.9,22485.9
32804.3,23999.3
32808.2,24018.9
32838.9,24093
32883.5,24159.8
32940.2,24216.5
33007,24261.1
33081.1,24291.8
33159.9,24307.5
33240.1,24307.5
33318.9,24291.8
33393,24261.1
33459.8,24216.5
33516.5,24159.8
33561.1,24093
33591.8,24018.9
33607.5,23940.1
33607.5,23859.9
33591.8,23781.1
33561.1,23707
33516.5,23640.2
33459.8,23583.5
33393,23538.9
33318.9,23508.2
33299.3,23504.3
31785.9,21990.9
31785.9,21859.9
42792.5,21859.9
42792.5,21940.1
42808.2,22018.9
42838.9,22093
42883.5,22159.8
42940.2,22216.5
43007,22261.1
43081.1,22291.8
43159.9,22307.5
43240.1,22307.5
43318.9,22291.8
43393,22261.1
43459.8,22216.5
43516.5,22159.8
43561.1,22093
43591.8,22018.9
43595.7,21999.3
44632.1,20962.8
44591.2,21040.5
44608.7,21098.5
44658,21201.9
44726.5,21293.8
44811.7,21370.5
44857.7,21398
44786,21445.9
44704.5,21527.3
44640.6,21623.1
44596.5,21729.5
44574,21842.4
44574,21957.6
44596.5,22070.5
44640.6,22176.9
44704.5,22272.7
44786,22354.1
44881.7,22418.1
44988.1,22462.2
45101.1,22484.6
45216.2,22484.6
45329.2,22462.2
45435.6,22418.1
45531.4,22354.1
45612.8,22272.7
45676.8,22176.9
45720.8,22070.5
45743.3,21957.6
45743.3,21842.4
45720.8,21729.5
45676.8,21623.1
45612.8,21527.3
45531.4,21445.9
45459.6,21398
45505.7,21370.5
45590.8,21293.8
45659.3,21201.9
45708.6,21098.5
45726.2,21040.5
45678.4,20950
45208.7,20950
45208.7,20957.9
45108.7,20957.9
45108.7,20950
45100.8,20950
45100.8,20850
45108.7,20850
45108.7,20842.1
45208.7,20842.1
45208.7,20850
45678.4,20850
45726.2,20759.5
45708.6,20701.5
45659.3,20598.1
45590.8,20506.2
45505.7,20429.5
45459.6,20402
45531.4,20354.1
45612.8,20272.7
45676.8,20176.9
45720.8,20070.5
45743.3,19957.6
45743.3,19842.4
45720.8,19729.5
45676.8,19623.1
45612.8,19527.3
45560.9,19475.4
45589.4,19466.7
45632.9,19443.5
45670.9,19412.3
45702.2,19374.2
45725.4,19330.8
45739.7,19283.7
45744.5,19234.6
45744.5,18565.4
45739.7,18516.3
45725.4,18469.2
45702.2,18425.8
45670.9,18387.7
45632.9,18356.5
45589.4,18333.3
45542.3,18319
45493.3,18314.1
44824,18314.1
44775,18319
44727.9,18333.3
44684.5,18356.5
44646.4,18387.7
44615.1,18425.8
44591.9,18469.2
44577.6,18516.3
44572.8,18565.4
44572.8,19234.6
44577.6,19283.7
44591.9,19330.8
44615.1,19374.2
44646.4,19412.3
44684.5,19443.5
44727.9,19466.7
44756.4,19475.4
44704.5,19527.3
44640.6,19623.1
44596.5,19729.5
44574,19842.4
44574,19957.6
44586.2,20018.8
43100.7,21504.3
43081.1,21508.2
43007,21538.9
42940.2,21583.5
42883.5,21640.2
42838.9,21707
42808.2,21781.1
42792.5,21859.9
31785.9,21859.9
31785.9,21565.4
31781,21516.3
31766.7,21469.2
31743.5,21425.8
31712.3,21387.7
31674.2,21356.5
31630.8,21333.3
31602.2,21324.6
31654.1,21272.7
31718.1,21176.9
31762.2,21070.5
31784.6,20957.6
31784.6,20842.4
31762.2,20729.5
31718.1,20623.1
31654.1,20527.3
31572.7,20445.9
31501,20398
31547,20370.5
31632.1,20293.8
31700.6,20201.9
31749.9,20098.5
31767.5,20040.5
31719.7,19950
31250,19950
31250,19957.9
31150,19957.9
31150,19950
30680.3,19950
30632.5,20040.5
30650.1,20098.5
30699.4,20201.9
30767.9,20293.8
30853,20370.5
30899,20398
30827.3,20445.9
30745.9,20527.3
30681.9,20623.1
30637.8,20729.5
30615.4,20842.4
30615.4,20957.6
30637.8,21070.5
30681.9,21176.9
30745.9,21272.7
30797.8,21324.6
30769.2,21333.3
30725.8,21356.5
30687.7,21387.7
30656.5,21425.8
30633.3,21469.2
30619,21516.3
30614.1,21565.4
30455,21565.4
30455,18842.4
30615.4,18842.4
30615.4,18957.6
30637.8,19070.5
30681.9,19176.9
30745.9,19272.7
30827.3,19354.1
30899,19402
30853,19429.5
30767.9,19506.2
30699.4,19598.1
30650.1,19701.5
30632.5,19759.5
30680.3,19850
31150,19850
31150,19842.1
31250,19842.1
31250,19850
31719.7,19850
31767.5,19759.5
31749.9,19701.5
31700.6,19598.1
31632.1,19506.2
31547,19429.5
31501,19402
31572.7,19354.1
31654.1,19272.7
31718.1,19176.9
31762.2,19070.5
31784.6,18957.6
31784.6,18842.4
31762.2,18729.5
31718.1,18623.1
31654.1,18527.3
31572.7,18445.9
31476.9,18381.9
31370.5,18337.8
31257.6,18315.4
31142.4,18315.4
31029.5,18337.8
30923.1,18381.9
30827.3,18445.9
30745.9,18527.3
30681.9,18623.1
30637.8,18729.5
30615.4,18842.4
30455,18842.4
30455,17336.6
38564.2,17336.6
38564.2,17463.4
38588.9,17587.8
38637.4,17704.9
38707.9,17810.3
38797.5,17900
38903,17970.4
39020.1,18019
39144.5,18043.7
39271.3,18043.7
39395.6,18019
39512.8,17970.4
39618.2,17900
39707.9,17810.3
39778.3,17704.9
39826.8,17587.8
39851.6,17463.4
39851.6,17336.6
39826.8,17212.2
39778.3,17095.1
39719,17006.3
41555.1,17006.3
41555.1,17793.7
41559.9,17842.7
41574.2,17889.8
41597.4,17933.3
41628.7,17971.3
41666.7,18002.6
41710.2,18025.8
41757.3,18040.1
41806.3,18044.9
42593.7,18044.9
42642.7,18040.1
42689.8,18025.8
42733.3,18002.6
42771.3,17971.3
42802.6,17933.3
42825.8,17889.8
42840.1,17842.7
42844.9,17793.7
42844.9,17006.3
42840.1,16957.3
42825.8,16910.2
42802.6,16866.7
42771.3,16828.7
42733.3,16797.4
42689.8,16774.2
42642.7,16759.9
42593.7,16755.1
41806.3,16755.1
41757.3,16759.9
41710.2,16774.2
41666.7,16797.4
41628.7,16828.7
41597.4,16866.7
41574.2,16910.2
41559.9,16957.3
41555.1,17006.3
39719,17006.3
39707.9,16989.7
39618.2,16900
39512.8,16829.6
39395.6,16781
39271.3,16756.3
39144.5,16756.3
39020.1,16781
38903,16829.6
38797.5,16900
38707.9,16989.7
38637.4,17095.1
38588.9,17212.2
38564.2,17336.6
30455,17336.6
30455,16254.4
30527.2,16362.5
30737.5,16572.8
30984.8,16738
31259.6,16851.8
31551.3,16909.8
31848.7,16909.8
32140.4,16851.8
32415.2,16738
32662.5,16572.8
32872.8,16362.5
33038,16115.2
33151.8,15840.4
33209.8,15548.7
33209.8,15251.3
33151.8,14959.6
33038,14684.8
32872.8,14437.5
32662.5,14227.2
32554.4,14155
43845.6,14155
Z" /> 
</g>
</g>
</g> 
</svg>
