<?xml version="1.0" standalone="no"?>
 <!DOCTYPE svg PUBLIC "-//W3C//DTD SVG 1.1//EN" 
 "http://www.w3.org/Graphics/SVG/1.1/DTD/svg11.dtd"> 
<svg
  xmlns:svg="http://www.w3.org/2000/svg"
  xmlns="http://www.w3.org/2000/svg"
  xmlns:xlink="http://www.w3.org/1999/xlink"
  version="1.1"
  width="17.780000cm" height="17.780000cm" viewBox="0 0 70000 70000">
<title>SVG Picture created as M5_BuggyProject-F_Paste.svg date 2022/01/28 00:36:10 </title>
  <desc>Picture generated by PCBNEW </desc>
<g style="fill:#000000; fill-opacity:1;stroke:#000000; stroke-opacity:1;
stroke-linecap:round; stroke-linejoin:round;"
 transform="translate(0 0) scale(1 1)">
</g>
<g style="fill:#000000; fill-opacity:0.0; 
stroke:#000000; stroke-width:-0.000393701; stroke-opacity:1; 
stroke-linecap:round; stroke-linejoin:round;">
<g >
</g>
<g >
</g>
<g >
</g>
<g >
</g>
<g style="fill:#000000; fill-opacity:0.0; 
stroke:#000000; stroke-width:-0.000393701; stroke-opacity:1; 
stroke-linecap:round; stroke-linejoin:round;">
</g>
<g style="fill:#000000; fill-opacity:0.0; 
stroke:#000000; stroke-width:0; stroke-opacity:1; 
stroke-linecap:round; stroke-linejoin:round;">
</g>
<g style="fill:#000000; fill-opacity:1.0; 
stroke:#000000; stroke-width:0; stroke-opacity:1; 
stroke-linecap:round; stroke-linejoin:round;">
<path style="fill:#000000; fill-opacity:1.0; 
stroke:#000000; stroke-width:0; stroke-opacity:1; 
stroke-linecap:round; stroke-linejoin:round;fill-rule:evenodd;"
d="M 31705.7,41583.5
31715.3,41585
31724.6,41587.3
31733.7,41590.6
31742.5,41594.7
31750.7,41599.7
31758.5,41605.4
31765.7,41611.9
31772.1,41619.1
31777.9,41626.8
31782.9,41635.1
31787,41643.8
31790.2,41652.9
31792.6,41662.3
31794,41671.8
31794.5,41681.5
31794.5,41927.6
31794,41937.2
31792.6,41946.8
31790.2,41956.1
31787,41965.2
31782.9,41974
31777.9,41982.2
31772.1,41990
31765.7,41997.2
31758.5,42003.6
31750.7,42009.4
31742.5,42014.4
31733.7,42018.5
31724.6,42021.7
31715.3,42024.1
31705.7,42025.5
31696.1,42026
31203.9,42026
31194.3,42025.5
31184.7,42024.1
31175.4,42021.7
31166.3,42018.5
31157.5,42014.4
31149.3,42009.4
31141.5,42003.6
31134.3,41997.2
31127.9,41990
31122.1,41982.2
31117.1,41974
31113,41965.2
31109.8,41956.1
31107.4,41946.8
31106,41937.2
31105.5,41927.6
31105.5,41681.5
31106,41671.8
31107.4,41662.3
31109.8,41652.9
31113,41643.8
31117.1,41635.1
31122.1,41626.8
31127.9,41619.1
31134.3,41611.9
31141.5,41605.4
31149.3,41599.7
31157.5,41594.7
31166.3,41590.6
31175.4,41587.3
31184.7,41585
31194.3,41583.5
31203.9,41583.1
31696.1,41583.1
Z" /> 
<path style="fill:#000000; fill-opacity:1.0; 
stroke:#000000; stroke-width:0; stroke-opacity:1; 
stroke-linecap:round; stroke-linejoin:round;fill-rule:evenodd;"
d="M 31705.7,42735.1
31715.3,42736.5
31724.6,42738.9
31733.7,42742.1
31742.5,42746.3
31750.7,42751.2
31758.5,42757
31765.7,42763.5
31772.1,42770.6
31777.9,42778.4
31782.9,42786.7
31787,42795.4
31790.2,42804.5
31792.6,42813.9
31794,42823.4
31794.5,42833.1
31794.5,43079.1
31794,43088.8
31792.6,43098.3
31790.2,43107.7
31787,43116.8
31782.9,43125.5
31777.9,43133.8
31772.1,43141.6
31765.7,43148.7
31758.5,43155.2
31750.7,43161
31742.5,43165.9
31733.7,43170.1
31724.6,43173.3
31715.3,43175.7
31705.7,43177.1
31696.1,43177.6
31203.9,43177.6
31194.3,43177.1
31184.7,43175.7
31175.4,43173.3
31166.3,43170.1
31157.5,43165.9
31149.3,43161
31141.5,43155.2
31134.3,43148.7
31127.9,43141.6
31122.1,43133.8
31117.1,43125.5
31113,43116.8
31109.8,43107.7
31107.4,43098.3
31106,43088.8
31105.5,43079.1
31105.5,42833.1
31106,42823.4
31107.4,42813.9
31109.8,42804.5
31113,42795.4
31117.1,42786.7
31122.1,42778.4
31127.9,42770.6
31134.3,42763.5
31141.5,42757
31149.3,42751.2
31157.5,42746.3
31166.3,42742.1
31175.4,42738.9
31184.7,42736.5
31194.3,42735.1
31203.9,42734.6
31696.1,42734.6
Z" /> 
</g>
<g >
</g>
<g >
</g>
<g >
</g>
<g >
</g>
<g >
</g>
<g >
</g>
<g >
</g>
<g >
</g>
<g >
</g>
<g style="fill:#000000; fill-opacity:1.0; 
stroke:#000000; stroke-width:0; stroke-opacity:1; 
stroke-linecap:round; stroke-linejoin:round;">
<path style="fill:#000000; fill-opacity:1.0; 
stroke:#000000; stroke-width:0; stroke-opacity:1; 
stroke-linecap:round; stroke-linejoin:round;fill-rule:evenodd;"
d="M 33534.6,41604.7
32865.4,41604.7
32865.4,40620.5
33534.6,40620.5
Z" /> 
<path style="fill:#000000; fill-opacity:1.0; 
stroke:#000000; stroke-width:0; stroke-opacity:1; 
stroke-linecap:round; stroke-linejoin:round;fill-rule:evenodd;"
d="M 33534.6,43179.5
32865.4,43179.5
32865.4,42195.3
33534.6,42195.3
Z" /> 
</g>
<g >
</g>
<g >
</g>
<g >
</g>
<g >
</g>
<g >
</g>
<g >
</g>
<g style="fill:#000000; fill-opacity:1.0; 
stroke:#000000; stroke-width:0; stroke-opacity:1; 
stroke-linecap:round; stroke-linejoin:round;">
<path style="fill:#000000; fill-opacity:1.0; 
stroke:#000000; stroke-width:0; stroke-opacity:1; 
stroke-linecap:round; stroke-linejoin:round;fill-rule:evenodd;"
d="M 35455.7,15103.2
35465.3,15104.6
35474.6,15107
35483.7,15110.2
35492.5,15114.4
35500.7,15119.3
35508.5,15125.1
35515.7,15131.6
35522.1,15138.7
35527.9,15146.5
35532.9,15154.8
35537,15163.5
35540.2,15172.6
35542.6,15182
35544,15191.5
35544.5,15201.2
35544.5,15447.2
35544,15456.9
35542.6,15466.4
35540.2,15475.8
35537,15484.9
35532.9,15493.6
35527.9,15501.9
35522.1,15509.7
35515.7,15516.8
35508.5,15523.3
35500.7,15529.1
35492.5,15534
35483.7,15538.2
35474.6,15541.4
35465.3,15543.8
35455.7,15545.2
35446.1,15545.7
34953.9,15545.7
34944.3,15545.2
34934.7,15543.8
34925.4,15541.4
34916.3,15538.2
34907.5,15534
34899.3,15529.1
34891.5,15523.3
34884.3,15516.8
34877.9,15509.7
34872.1,15501.9
34867.1,15493.6
34863,15484.9
34859.8,15475.8
34857.4,15466.4
34856,15456.9
34855.5,15447.2
34855.5,15201.2
34856,15191.5
34857.4,15182
34859.8,15172.6
34863,15163.5
34867.1,15154.8
34872.1,15146.5
34877.9,15138.7
34884.3,15131.6
34891.5,15125.1
34899.3,15119.3
34907.5,15114.4
34916.3,15110.2
34925.4,15107
34934.7,15104.6
34944.3,15103.2
34953.9,15102.8
35446.1,15102.8
Z" /> 
<path style="fill:#000000; fill-opacity:1.0; 
stroke:#000000; stroke-width:0; stroke-opacity:1; 
stroke-linecap:round; stroke-linejoin:round;fill-rule:evenodd;"
d="M 35455.7,16254.8
35465.3,16256.2
35474.6,16258.6
35483.7,16261.8
35492.5,16266
35500.7,16270.9
35508.5,16276.7
35515.7,16283.2
35522.1,16290.3
35527.9,16298.1
35532.9,16306.4
35537,16315.1
35540.2,16324.2
35542.6,16333.6
35544,16343.1
35544.5,16352.8
35544.5,16598.8
35544,16608.5
35542.6,16618
35540.2,16627.4
35537,16636.5
35532.9,16645.2
35527.9,16653.5
35522.1,16661.3
35515.7,16668.4
35508.5,16674.9
35500.7,16680.7
35492.5,16685.6
35483.7,16689.8
35474.6,16693
35465.3,16695.4
35455.7,16696.8
35446.1,16697.2
34953.9,16697.2
34944.3,16696.8
34934.7,16695.4
34925.4,16693
34916.3,16689.8
34907.5,16685.6
34899.3,16680.7
34891.5,16674.9
34884.3,16668.4
34877.9,16661.3
34872.1,16653.5
34867.1,16645.2
34863,16636.5
34859.8,16627.4
34857.4,16618
34856,16608.5
34855.5,16598.8
34855.5,16352.8
34856,16343.1
34857.4,16333.6
34859.8,16324.2
34863,16315.1
34867.1,16306.4
34872.1,16298.1
34877.9,16290.3
34884.3,16283.2
34891.5,16276.7
34899.3,16270.9
34907.5,16266
34916.3,16261.8
34925.4,16258.6
34934.7,16256.2
34944.3,16254.8
34953.9,16254.3
35446.1,16254.3
Z" /> 
</g>
<g >
</g>
<g style="fill:#000000; fill-opacity:1.0; 
stroke:#000000; stroke-width:0; stroke-opacity:1; 
stroke-linecap:round; stroke-linejoin:round;">
<path style="fill:#000000; fill-opacity:1.0; 
stroke:#000000; stroke-width:0; stroke-opacity:1; 
stroke-linecap:round; stroke-linejoin:round;fill-rule:evenodd;"
d="M 36955.7,16254.8
36965.3,16256.2
36974.6,16258.6
36983.7,16261.8
36992.5,16266
37000.7,16270.9
37008.5,16276.7
37015.7,16283.2
37022.1,16290.3
37027.9,16298.1
37032.9,16306.4
37037,16315.1
37040.2,16324.2
37042.6,16333.6
37044,16343.1
37044.5,16352.8
37044.5,16598.8
37044,16608.5
37042.6,16618
37040.2,16627.4
37037,16636.5
37032.9,16645.2
37027.9,16653.5
37022.1,16661.3
37015.7,16668.4
37008.5,16674.9
37000.7,16680.7
36992.5,16685.6
36983.7,16689.8
36974.6,16693
36965.3,16695.4
36955.7,16696.8
36946.1,16697.2
36453.9,16697.2
36444.3,16696.8
36434.7,16695.4
36425.4,16693
36416.3,16689.8
36407.5,16685.6
36399.3,16680.7
36391.5,16674.9
36384.3,16668.4
36377.9,16661.3
36372.1,16653.5
36367.1,16645.2
36363,16636.5
36359.8,16627.4
36357.4,16618
36356,16608.5
36355.5,16598.8
36355.5,16352.8
36356,16343.1
36357.4,16333.6
36359.8,16324.2
36363,16315.1
36367.1,16306.4
36372.1,16298.1
36377.9,16290.3
36384.3,16283.2
36391.5,16276.7
36399.3,16270.9
36407.5,16266
36416.3,16261.8
36425.4,16258.6
36434.7,16256.2
36444.3,16254.8
36453.9,16254.3
36946.1,16254.3
Z" /> 
<path style="fill:#000000; fill-opacity:1.0; 
stroke:#000000; stroke-width:0; stroke-opacity:1; 
stroke-linecap:round; stroke-linejoin:round;fill-rule:evenodd;"
d="M 36955.7,15103.2
36965.3,15104.6
36974.6,15107
36983.7,15110.2
36992.5,15114.4
37000.7,15119.3
37008.5,15125.1
37015.7,15131.6
37022.1,15138.7
37027.9,15146.5
37032.9,15154.8
37037,15163.5
37040.2,15172.6
37042.6,15182
37044,15191.5
37044.5,15201.2
37044.5,15447.2
37044,15456.9
37042.6,15466.4
37040.2,15475.8
37037,15484.9
37032.9,15493.6
37027.9,15501.9
37022.1,15509.7
37015.7,15516.8
37008.5,15523.3
37000.7,15529.1
36992.5,15534
36983.7,15538.2
36974.6,15541.4
36965.3,15543.8
36955.7,15545.2
36946.1,15545.7
36453.9,15545.7
36444.3,15545.2
36434.7,15543.8
36425.4,15541.4
36416.3,15538.2
36407.5,15534
36399.3,15529.1
36391.5,15523.3
36384.3,15516.8
36377.9,15509.7
36372.1,15501.9
36367.1,15493.6
36363,15484.9
36359.8,15475.8
36357.4,15466.4
36356,15456.9
36355.5,15447.2
36355.5,15201.2
36356,15191.5
36357.4,15182
36359.8,15172.6
36363,15163.5
36367.1,15154.8
36372.1,15146.5
36377.9,15138.7
36384.3,15131.6
36391.5,15125.1
36399.3,15119.3
36407.5,15114.4
36416.3,15110.2
36425.4,15107
36434.7,15104.6
36444.3,15103.2
36453.9,15102.8
36946.1,15102.8
Z" /> 
</g>
<g >
</g>
<g style="fill:#000000; fill-opacity:1.0; 
stroke:#000000; stroke-width:0; stroke-opacity:1; 
stroke-linecap:round; stroke-linejoin:round;">
<path style="fill:#000000; fill-opacity:1.0; 
stroke:#000000; stroke-width:0; stroke-opacity:1; 
stroke-linecap:round; stroke-linejoin:round;fill-rule:evenodd;"
d="M 35455.7,17103.2
35465.3,17104.6
35474.6,17107
35483.7,17110.2
35492.5,17114.4
35500.7,17119.3
35508.5,17125.1
35515.7,17131.6
35522.1,17138.7
35527.9,17146.5
35532.9,17154.8
35537,17163.5
35540.2,17172.6
35542.6,17182
35544,17191.5
35544.5,17201.2
35544.5,17496.5
35544,17506.1
35542.6,17515.7
35540.2,17525
35537,17534.1
35532.9,17542.9
35527.9,17551.1
35522.1,17558.9
35515.7,17566.1
35508.5,17572.5
35500.7,17578.3
35492.5,17583.3
35483.7,17587.4
35474.6,17590.6
35465.3,17593
35455.7,17594.4
35446.1,17594.9
34953.9,17594.9
34944.3,17594.4
34934.7,17593
34925.4,17590.6
34916.3,17587.4
34907.5,17583.3
34899.3,17578.3
34891.5,17572.5
34884.3,17566.1
34877.9,17558.9
34872.1,17551.1
34867.1,17542.9
34863,17534.1
34859.8,17525
34857.4,17515.7
34856,17506.1
34855.5,17496.5
34855.5,17201.2
34856,17191.5
34857.4,17182
34859.8,17172.6
34863,17163.5
34867.1,17154.8
34872.1,17146.5
34877.9,17138.7
34884.3,17131.6
34891.5,17125.1
34899.3,17119.3
34907.5,17114.4
34916.3,17110.2
34925.4,17107
34934.7,17104.6
34944.3,17103.2
34953.9,17102.8
35446.1,17102.8
Z" /> 
<path style="fill:#000000; fill-opacity:1.0; 
stroke:#000000; stroke-width:0; stroke-opacity:1; 
stroke-linecap:round; stroke-linejoin:round;fill-rule:evenodd;"
d="M 35455.7,18205.6
35465.3,18207
35474.6,18209.4
35483.7,18212.6
35492.5,18216.7
35500.7,18221.7
35508.5,18227.5
35515.7,18233.9
35522.1,18241.1
35527.9,18248.9
35532.9,18257.1
35537,18265.9
35540.2,18275
35542.6,18284.3
35544,18293.9
35544.5,18303.5
35544.5,18598.8
35544,18608.5
35542.6,18618
35540.2,18627.4
35537,18636.5
35532.9,18645.2
35527.9,18653.5
35522.1,18661.3
35515.7,18668.4
35508.5,18674.9
35500.7,18680.7
35492.5,18685.6
35483.7,18689.8
35474.6,18693
35465.3,18695.4
35455.7,18696.8
35446.1,18697.2
34953.9,18697.2
34944.3,18696.8
34934.7,18695.4
34925.4,18693
34916.3,18689.8
34907.5,18685.6
34899.3,18680.7
34891.5,18674.9
34884.3,18668.4
34877.9,18661.3
34872.1,18653.5
34867.1,18645.2
34863,18636.5
34859.8,18627.4
34857.4,18618
34856,18608.5
34855.5,18598.8
34855.5,18303.5
34856,18293.9
34857.4,18284.3
34859.8,18275
34863,18265.9
34867.1,18257.1
34872.1,18248.9
34877.9,18241.1
34884.3,18233.9
34891.5,18227.5
34899.3,18221.7
34907.5,18216.7
34916.3,18212.6
34925.4,18209.4
34934.7,18207
34944.3,18205.6
34953.9,18205.1
35446.1,18205.1
Z" /> 
</g>
<g >
</g>
<g style="fill:#000000; fill-opacity:1.0; 
stroke:#000000; stroke-width:0; stroke-opacity:1; 
stroke-linecap:round; stroke-linejoin:round;">
<path style="fill:#000000; fill-opacity:1.0; 
stroke:#000000; stroke-width:0; stroke-opacity:1; 
stroke-linecap:round; stroke-linejoin:round;fill-rule:evenodd;"
d="M 31705.7,40205.6
31715.3,40207
31724.6,40209.4
31733.7,40212.6
31742.5,40216.7
31750.7,40221.7
31758.5,40227.5
31765.7,40233.9
31772.1,40241.1
31777.9,40248.9
31782.9,40257.1
31787,40265.9
31790.2,40275
31792.6,40284.3
31794,40293.9
31794.5,40303.5
31794.5,40598.8
31794,40608.5
31792.6,40618
31790.2,40627.4
31787,40636.5
31782.9,40645.2
31777.9,40653.5
31772.1,40661.3
31765.7,40668.4
31758.5,40674.9
31750.7,40680.7
31742.5,40685.6
31733.7,40689.8
31724.6,40693
31715.3,40695.4
31705.7,40696.8
31696.1,40697.2
31203.9,40697.2
31194.3,40696.8
31184.7,40695.4
31175.4,40693
31166.3,40689.8
31157.5,40685.6
31149.3,40680.7
31141.5,40674.9
31134.3,40668.4
31127.9,40661.3
31122.1,40653.5
31117.1,40645.2
31113,40636.5
31109.8,40627.4
31107.4,40618
31106,40608.5
31105.5,40598.8
31105.5,40303.5
31106,40293.9
31107.4,40284.3
31109.8,40275
31113,40265.9
31117.1,40257.1
31122.1,40248.9
31127.9,40241.1
31134.3,40233.9
31141.5,40227.5
31149.3,40221.7
31157.5,40216.7
31166.3,40212.6
31175.4,40209.4
31184.7,40207
31194.3,40205.6
31203.9,40205.1
31696.1,40205.1
Z" /> 
<path style="fill:#000000; fill-opacity:1.0; 
stroke:#000000; stroke-width:0; stroke-opacity:1; 
stroke-linecap:round; stroke-linejoin:round;fill-rule:evenodd;"
d="M 31705.7,39103.2
31715.3,39104.6
31724.6,39107
31733.7,39110.2
31742.5,39114.4
31750.7,39119.3
31758.5,39125.1
31765.7,39131.6
31772.1,39138.7
31777.9,39146.5
31782.9,39154.8
31787,39163.5
31790.2,39172.6
31792.6,39182
31794,39191.5
31794.5,39201.2
31794.5,39496.5
31794,39506.1
31792.6,39515.7
31790.2,39525
31787,39534.1
31782.9,39542.9
31777.9,39551.1
31772.1,39558.9
31765.7,39566.1
31758.5,39572.5
31750.7,39578.3
31742.5,39583.3
31733.7,39587.4
31724.6,39590.6
31715.3,39593
31705.7,39594.4
31696.1,39594.9
31203.9,39594.9
31194.3,39594.4
31184.7,39593
31175.4,39590.6
31166.3,39587.4
31157.5,39583.3
31149.3,39578.3
31141.5,39572.5
31134.3,39566.1
31127.9,39558.9
31122.1,39551.1
31117.1,39542.9
31113,39534.1
31109.8,39525
31107.4,39515.7
31106,39506.1
31105.5,39496.5
31105.5,39201.2
31106,39191.5
31107.4,39182
31109.8,39172.6
31113,39163.5
31117.1,39154.8
31122.1,39146.5
31127.9,39138.7
31134.3,39131.6
31141.5,39125.1
31149.3,39119.3
31157.5,39114.4
31166.3,39110.2
31175.4,39107
31184.7,39104.6
31194.3,39103.2
31203.9,39102.8
31696.1,39102.8
Z" /> 
</g>
<g >
</g>
<g style="fill:#000000; fill-opacity:1.0; 
stroke:#000000; stroke-width:0; stroke-opacity:1; 
stroke-linecap:round; stroke-linejoin:round;">
<path style="fill:#000000; fill-opacity:1.0; 
stroke:#000000; stroke-width:0; stroke-opacity:1; 
stroke-linecap:round; stroke-linejoin:round;fill-rule:evenodd;"
d="M 36955.7,17103.2
36965.3,17104.6
36974.6,17107
36983.7,17110.2
36992.5,17114.4
37000.7,17119.3
37008.5,17125.1
37015.7,17131.6
37022.1,17138.7
37027.9,17146.5
37032.9,17154.8
37037,17163.5
37040.2,17172.6
37042.6,17182
37044,17191.5
37044.5,17201.2
37044.5,17496.5
37044,17506.1
37042.6,17515.7
37040.2,17525
37037,17534.1
37032.9,17542.9
37027.9,17551.1
37022.1,17558.9
37015.7,17566.1
37008.5,17572.5
37000.7,17578.3
36992.5,17583.3
36983.7,17587.4
36974.6,17590.6
36965.3,17593
36955.7,17594.4
36946.1,17594.9
36453.9,17594.9
36444.3,17594.4
36434.7,17593
36425.4,17590.6
36416.3,17587.4
36407.5,17583.3
36399.3,17578.3
36391.5,17572.5
36384.3,17566.1
36377.9,17558.9
36372.1,17551.1
36367.1,17542.9
36363,17534.1
36359.8,17525
36357.4,17515.7
36356,17506.1
36355.5,17496.5
36355.5,17201.2
36356,17191.5
36357.4,17182
36359.8,17172.6
36363,17163.5
36367.1,17154.8
36372.1,17146.5
36377.9,17138.7
36384.3,17131.6
36391.5,17125.1
36399.3,17119.3
36407.5,17114.4
36416.3,17110.2
36425.4,17107
36434.7,17104.6
36444.3,17103.2
36453.9,17102.8
36946.1,17102.8
Z" /> 
<path style="fill:#000000; fill-opacity:1.0; 
stroke:#000000; stroke-width:0; stroke-opacity:1; 
stroke-linecap:round; stroke-linejoin:round;fill-rule:evenodd;"
d="M 36955.7,18205.6
36965.3,18207
36974.6,18209.4
36983.7,18212.6
36992.5,18216.7
37000.7,18221.7
37008.5,18227.5
37015.7,18233.9
37022.1,18241.1
37027.9,18248.9
37032.9,18257.1
37037,18265.9
37040.2,18275
37042.6,18284.3
37044,18293.9
37044.5,18303.5
37044.5,18598.8
37044,18608.5
37042.6,18618
37040.2,18627.4
37037,18636.5
37032.9,18645.2
37027.9,18653.5
37022.1,18661.3
37015.7,18668.4
37008.5,18674.9
37000.7,18680.7
36992.5,18685.6
36983.7,18689.8
36974.6,18693
36965.3,18695.4
36955.7,18696.8
36946.1,18697.2
36453.9,18697.2
36444.3,18696.8
36434.7,18695.4
36425.4,18693
36416.3,18689.8
36407.5,18685.6
36399.3,18680.7
36391.5,18674.9
36384.3,18668.4
36377.9,18661.3
36372.1,18653.5
36367.1,18645.2
36363,18636.5
36359.8,18627.4
36357.4,18618
36356,18608.5
36355.5,18598.8
36355.5,18303.5
36356,18293.9
36357.4,18284.3
36359.8,18275
36363,18265.9
36367.1,18257.1
36372.1,18248.9
36377.9,18241.1
36384.3,18233.9
36391.5,18227.5
36399.3,18221.7
36407.5,18216.7
36416.3,18212.6
36425.4,18209.4
36434.7,18207
36444.3,18205.6
36453.9,18205.1
36946.1,18205.1
Z" /> 
</g>
<g >
</g>
<g >
</g>
<g >
</g>
<g >
</g>
<g >
</g>
</g> 
</svg>
