<?xml version="1.0" standalone="no"?>
 <!DOCTYPE svg PUBLIC "-//W3C//DTD SVG 1.1//EN" 
 "http://www.w3.org/Graphics/SVG/1.1/DTD/svg11.dtd"> 
<svg
  xmlns:svg="http://www.w3.org/2000/svg"
  xmlns="http://www.w3.org/2000/svg"
  xmlns:xlink="http://www.w3.org/1999/xlink"
  version="1.1"
  width="17.780000cm" height="17.780000cm" viewBox="0 0 70000 70000">
<title>SVG Picture created as M5_BuggyProject-B_SilkS.svg date 2022/01/28 00:36:10 </title>
  <desc>Picture generated by PCBNEW </desc>
<g style="fill:#000000; fill-opacity:1;stroke:#000000; stroke-opacity:1;
stroke-linecap:round; stroke-linejoin:round;"
 transform="translate(0 0) scale(1 1)">
</g>
<g style="fill:#000000; fill-opacity:0.0; 
stroke:#000000; stroke-width:-0.000393701; stroke-opacity:1; 
stroke-linecap:round; stroke-linejoin:round;">
</g>
<g style="fill:#000000; fill-opacity:0.0; 
stroke:#000000; stroke-width:59.0551; stroke-opacity:1; 
stroke-linecap:round; stroke-linejoin:round;">
<g transform="rotate(-90 36200 29900)">
<text x="36200" y="30150"
transform="scale(-1 1) translate(-72400.000000 0)"
textLength="7899.42" font-size="666.667" lengthAdjust="spacingAndGlyphs"
text-anchor="middle" opacity="0">umassamherstm5.org</text>
</g>
<path d="M36092 26245
L36426 26245
" />
<path d="M36092 26030
L36354 26030
L36402 26054
L36426 26102
L36426 26173
L36402 26221
L36378 26245
" />
<path d="M36426 26483
L36092 26483
" />
<path d="M36140 26483
L36116 26507
L36092 26554
L36092 26626
L36116 26673
L36164 26697
L36426 26697
" />
<path d="M36164 26697
L36116 26721
L36092 26769
L36092 26840
L36116 26888
L36164 26911
L36426 26911
" />
<path d="M36426 27364
L36164 27364
L36116 27340
L36092 27292
L36092 27197
L36116 27150
" />
<path d="M36402 27364
L36426 27316
L36426 27197
L36402 27150
L36354 27126
L36307 27126
L36259 27150
L36235 27197
L36235 27316
L36211 27364
" />
<path d="M36402 27578
L36426 27626
L36426 27721
L36402 27769
L36354 27792
L36330 27792
L36283 27769
L36259 27721
L36259 27650
L36235 27602
L36188 27578
L36164 27578
L36116 27602
L36092 27650
L36092 27721
L36116 27769
" />
<path d="M36402 27983
L36426 28030
L36426 28126
L36402 28173
L36354 28197
L36330 28197
L36283 28173
L36259 28126
L36259 28054
L36235 28007
L36188 27983
L36164 27983
L36116 28007
L36092 28054
L36092 28126
L36116 28173
" />
<path d="M36426 28626
L36164 28626
L36116 28602
L36092 28554
L36092 28459
L36116 28411
" />
<path d="M36402 28626
L36426 28578
L36426 28459
L36402 28411
L36354 28388
L36307 28388
L36259 28411
L36235 28459
L36235 28578
L36211 28626
" />
<path d="M36426 28864
L36092 28864
" />
<path d="M36140 28864
L36116 28888
L36092 28935
L36092 29007
L36116 29054
L36164 29078
L36426 29078
" />
<path d="M36164 29078
L36116 29102
L36092 29150
L36092 29221
L36116 29269
L36164 29292
L36426 29292
" />
<path d="M36426 29530
L35926 29530
" />
<path d="M36426 29745
L36164 29745
L36116 29721
L36092 29673
L36092 29602
L36116 29554
L36140 29530
" />
<path d="M36402 30173
L36426 30126
L36426 30030
L36402 29983
L36354 29959
L36164 29959
L36116 29983
L36092 30030
L36092 30126
L36116 30173
L36164 30197
L36211 30197
L36259 29959
" />
<path d="M36426 30411
L36092 30411
" />
<path d="M36188 30411
L36140 30435
L36116 30459
L36092 30507
L36092 30554
" />
<path d="M36402 30697
L36426 30745
L36426 30840
L36402 30888
L36354 30911
L36330 30911
L36283 30888
L36259 30840
L36259 30769
L36235 30721
L36188 30697
L36164 30697
L36116 30721
L36092 30769
L36092 30840
L36116 30888
" />
<path d="M36092 31054
L36092 31245
" />
<path d="M35926 31126
L36354 31126
L36402 31150
L36426 31197
L36426 31245
" />
<path d="M36426 31411
L36092 31411
" />
<path d="M36140 31411
L36116 31435
L36092 31483
L36092 31554
L36116 31602
L36164 31626
L36426 31626
" />
<path d="M36164 31626
L36116 31650
L36092 31697
L36092 31769
L36116 31816
L36164 31840
L36426 31840
" />
<path d="M35926 32316
L35926 32078
L36164 32054
L36140 32078
L36116 32126
L36116 32245
L36140 32292
L36164 32316
L36211 32340
L36330 32340
L36378 32316
L36402 32292
L36426 32245
L36426 32126
L36402 32078
L36378 32054
" />
<path d="M36378 32554
L36402 32578
L36426 32554
L36402 32530
L36378 32554
L36426 32554
" />
<path d="M36426 32864
L36402 32816
L36378 32792
L36330 32769
L36188 32769
L36140 32792
L36116 32816
L36092 32864
L36092 32935
L36116 32983
L36140 33007
L36188 33030
L36330 33030
L36378 33007
L36402 32983
L36426 32935
L36426 32864
" />
<path d="M36426 33245
L36092 33245
" />
<path d="M36188 33245
L36140 33269
L36116 33292
L36092 33340
L36092 33388
" />
<path d="M36092 33769
L36497 33769
L36545 33745
L36569 33721
L36592 33673
L36592 33602
L36569 33554
" />
<path d="M36402 33769
L36426 33721
L36426 33626
L36402 33578
L36378 33554
L36330 33530
L36188 33530
L36140 33554
L36116 33578
L36092 33626
L36092 33721
L36116 33769
" />
</g>
<g style="fill:#000000; fill-opacity:0.0; 
stroke:#000000; stroke-width:60; stroke-opacity:1; 
stroke-linecap:round; stroke-linejoin:round;">
<g transform="rotate(-90 39832.5 36900)">
<text x="39832.5" y="37125"
transform="scale(-1 1) translate(-79665.000000 0)"
textLength="19937.5" font-size="600" lengthAdjust="spacingAndGlyphs"
text-anchor="end" opacity="0">Designers: Akshat Sahay 2023, Sebastian Armstrong 2024</text>
</g>
<path d="M40036 16953
L39586 16953
L39586 17061
L39607 17125
L39650 17168
L39693 17189
L39778 17211
L39843 17211
L39928 17189
L39971 17168
L40014 17125
L40036 17061
L40036 16953
" />
<path d="M40014 17575
L40036 17532
L40036 17446
L40014 17403
L39971 17382
L39800 17382
L39757 17403
L39736 17446
L39736 17532
L39757 17575
L39800 17596
L39843 17596
L39886 17382
" />
<path d="M40014 17768
L40036 17811
L40036 17896
L40014 17939
L39971 17961
L39950 17961
L39907 17939
L39886 17896
L39886 17832
L39864 17789
L39821 17768
L39800 17768
L39757 17789
L39736 17832
L39736 17896
L39757 17939
" />
<path d="M40036 18153
L39736 18153
" />
<path d="M39586 18153
L39607 18132
L39628 18153
L39607 18175
L39586 18153
L39628 18153
" />
<path d="M39736 18561
L40100 18561
L40143 18539
L40164 18518
L40186 18475
L40186 18411
L40164 18368
" />
<path d="M40014 18561
L40036 18518
L40036 18432
L40014 18389
L39993 18368
L39950 18346
L39821 18346
L39778 18368
L39757 18389
L39736 18432
L39736 18518
L39757 18561
" />
<path d="M39736 18775
L40036 18775
" />
<path d="M39778 18775
L39757 18796
L39736 18839
L39736 18903
L39757 18946
L39800 18968
L40036 18968
" />
<path d="M40014 19353
L40036 19311
L40036 19225
L40014 19182
L39971 19161
L39800 19161
L39757 19182
L39736 19225
L39736 19311
L39757 19353
L39800 19375
L39843 19375
L39886 19161
" />
<path d="M40036 19568
L39736 19568
" />
<path d="M39821 19568
L39778 19589
L39757 19611
L39736 19653
L39736 19696
" />
<path d="M40014 19825
L40036 19868
L40036 19953
L40014 19996
L39971 20018
L39950 20018
L39907 19996
L39886 19953
L39886 19889
L39864 19846
L39821 19825
L39800 19825
L39757 19846
L39736 19889
L39736 19953
L39757 19996
" />
<path d="M39993 20211
L40014 20232
L40036 20211
L40014 20189
L39993 20211
L40036 20211
" />
<path d="M39757 20211
L39778 20232
L39800 20211
L39778 20189
L39757 20211
L39800 20211
" />
<path d="M39907 20746
L39907 20961
" />
<path d="M40036 20703
L39586 20853
L40036 21003
" />
<path d="M40036 21153
L39586 21153
" />
<path d="M39864 21196
L40036 21325
" />
<path d="M39736 21325
L39907 21153
" />
<path d="M40014 21496
L40036 21539
L40036 21625
L40014 21668
L39971 21689
L39950 21689
L39907 21668
L39886 21625
L39886 21561
L39864 21518
L39821 21496
L39800 21496
L39757 21518
L39736 21561
L39736 21625
L39757 21668
" />
<path d="M40036 21882
L39586 21882
" />
<path d="M40036 22075
L39800 22075
L39757 22053
L39736 22011
L39736 21946
L39757 21903
L39778 21882
" />
<path d="M40036 22482
L39800 22482
L39757 22461
L39736 22418
L39736 22332
L39757 22289
" />
<path d="M40014 22482
L40036 22439
L40036 22332
L40014 22289
L39971 22268
L39928 22268
L39886 22289
L39864 22332
L39864 22439
L39843 22482
" />
<path d="M39736 22632
L39736 22803
" />
<path d="M39586 22696
L39971 22696
L40014 22718
L40036 22761
L40036 22803
" />
<path d="M40014 23275
L40036 23339
L40036 23446
L40014 23489
L39993 23511
L39950 23532
L39907 23532
L39864 23511
L39843 23489
L39821 23446
L39800 23361
L39778 23318
L39757 23296
L39714 23275
L39671 23275
L39628 23296
L39607 23318
L39586 23361
L39586 23468
L39607 23532
" />
<path d="M40036 23918
L39800 23918
L39757 23896
L39736 23853
L39736 23768
L39757 23725
" />
<path d="M40014 23918
L40036 23875
L40036 23768
L40014 23725
L39971 23703
L39928 23703
L39886 23725
L39864 23768
L39864 23875
L39843 23918
" />
<path d="M40036 24132
L39586 24132
" />
<path d="M40036 24325
L39800 24325
L39757 24303
L39736 24261
L39736 24196
L39757 24153
L39778 24132
" />
<path d="M40036 24732
L39800 24732
L39757 24711
L39736 24668
L39736 24582
L39757 24539
" />
<path d="M40014 24732
L40036 24689
L40036 24582
L40014 24539
L39971 24518
L39928 24518
L39886 24539
L39864 24582
L39864 24689
L39843 24732
" />
<path d="M39736 24903
L40036 25011
" />
<path d="M39736 25118
L40036 25011
L40143 24968
L40164 24946
L40186 24903
" />
<path d="M39628 25611
L39607 25632
L39586 25675
L39586 25782
L39607 25825
L39628 25846
L39671 25868
L39714 25868
L39778 25846
L40036 25589
L40036 25868
" />
<path d="M39586 26146
L39586 26189
L39607 26232
L39628 26253
L39671 26275
L39757 26296
L39864 26296
L39950 26275
L39993 26253
L40014 26232
L40036 26189
L40036 26146
L40014 26103
L39993 26082
L39950 26061
L39864 26039
L39757 26039
L39671 26061
L39628 26082
L39607 26103
L39586 26146
" />
<path d="M39628 26468
L39607 26489
L39586 26532
L39586 26639
L39607 26682
L39628 26703
L39671 26725
L39714 26725
L39778 26703
L40036 26446
L40036 26725
" />
<path d="M39586 26875
L39586 27153
L39757 27003
L39757 27068
L39778 27111
L39800 27132
L39843 27153
L39950 27153
L39993 27132
L40014 27111
L40036 27068
L40036 26939
L40014 26896
L39993 26875
" />
<path d="M40014 27368
L40036 27368
L40078 27346
L40100 27325
" />
<path d="M40014 27882
L40036 27946
L40036 28053
L40014 28096
L39993 28118
L39950 28139
L39907 28139
L39864 28118
L39843 28096
L39821 28053
L39800 27968
L39778 27925
L39757 27903
L39714 27882
L39671 27882
L39628 27903
L39607 27925
L39586 27968
L39586 28075
L39607 28139
" />
<path d="M40014 28503
L40036 28461
L40036 28375
L40014 28332
L39971 28311
L39800 28311
L39757 28332
L39736 28375
L39736 28461
L39757 28503
L39800 28525
L39843 28525
L39886 28311
" />
<path d="M40036 28718
L39586 28718
" />
<path d="M39757 28718
L39736 28761
L39736 28846
L39757 28889
L39778 28911
L39821 28932
L39950 28932
L39993 28911
L40014 28889
L40036 28846
L40036 28761
L40014 28718
" />
<path d="M40036 29318
L39800 29318
L39757 29296
L39736 29253
L39736 29168
L39757 29125
" />
<path d="M40014 29318
L40036 29275
L40036 29168
L40014 29125
L39971 29103
L39928 29103
L39886 29125
L39864 29168
L39864 29275
L39843 29318
" />
<path d="M40014 29511
L40036 29553
L40036 29639
L40014 29682
L39971 29703
L39950 29703
L39907 29682
L39886 29639
L39886 29575
L39864 29532
L39821 29511
L39800 29511
L39757 29532
L39736 29575
L39736 29639
L39757 29682
" />
<path d="M39736 29832
L39736 30003
" />
<path d="M39586 29896
L39971 29896
L40014 29918
L40036 29961
L40036 30003
" />
<path d="M40036 30153
L39736 30153
" />
<path d="M39586 30153
L39607 30132
L39628 30153
L39607 30175
L39586 30153
L39628 30153
" />
<path d="M40036 30561
L39800 30561
L39757 30539
L39736 30496
L39736 30411
L39757 30368
" />
<path d="M40014 30561
L40036 30518
L40036 30411
L40014 30368
L39971 30346
L39928 30346
L39886 30368
L39864 30411
L39864 30518
L39843 30561
" />
<path d="M39736 30775
L40036 30775
" />
<path d="M39778 30775
L39757 30796
L39736 30839
L39736 30903
L39757 30946
L39800 30968
L40036 30968
" />
<path d="M39907 31503
L39907 31718
" />
<path d="M40036 31461
L39586 31611
L40036 31761
" />
<path d="M40036 31911
L39736 31911
" />
<path d="M39821 31911
L39778 31932
L39757 31953
L39736 31996
L39736 32039
" />
<path d="M40036 32189
L39736 32189
" />
<path d="M39778 32189
L39757 32211
L39736 32253
L39736 32318
L39757 32361
L39800 32382
L40036 32382
" />
<path d="M39800 32382
L39757 32403
L39736 32446
L39736 32511
L39757 32553
L39800 32575
L40036 32575
" />
<path d="M40014 32768
L40036 32811
L40036 32896
L40014 32939
L39971 32961
L39950 32961
L39907 32939
L39886 32896
L39886 32832
L39864 32789
L39821 32768
L39800 32768
L39757 32789
L39736 32832
L39736 32896
L39757 32939
" />
<path d="M39736 33089
L39736 33261
" />
<path d="M39586 33153
L39971 33153
L40014 33175
L40036 33218
L40036 33261
" />
<path d="M40036 33411
L39736 33411
" />
<path d="M39821 33411
L39778 33432
L39757 33453
L39736 33496
L39736 33539
" />
<path d="M40036 33753
L40014 33711
L39993 33689
L39950 33668
L39821 33668
L39778 33689
L39757 33711
L39736 33753
L39736 33818
L39757 33861
L39778 33882
L39821 33903
L39950 33903
L39993 33882
L40014 33861
L40036 33818
L40036 33753
" />
<path d="M39736 34096
L40036 34096
" />
<path d="M39778 34096
L39757 34118
L39736 34161
L39736 34225
L39757 34268
L39800 34289
L40036 34289
" />
<path d="M39736 34696
L40100 34696
L40143 34675
L40164 34653
L40186 34611
L40186 34546
L40164 34503
" />
<path d="M40014 34696
L40036 34653
L40036 34568
L40014 34525
L39993 34503
L39950 34482
L39821 34482
L39778 34503
L39757 34525
L39736 34568
L39736 34653
L39757 34696
" />
<path d="M39628 35232
L39607 35253
L39586 35296
L39586 35403
L39607 35446
L39628 35468
L39671 35489
L39714 35489
L39778 35468
L40036 35211
L40036 35489
" />
<path d="M39586 35768
L39586 35811
L39607 35853
L39628 35875
L39671 35896
L39757 35918
L39864 35918
L39950 35896
L39993 35875
L40014 35853
L40036 35811
L40036 35768
L40014 35725
L39993 35703
L39950 35682
L39864 35661
L39757 35661
L39671 35682
L39628 35703
L39607 35725
L39586 35768
" />
<path d="M39628 36089
L39607 36111
L39586 36153
L39586 36261
L39607 36303
L39628 36325
L39671 36346
L39714 36346
L39778 36325
L40036 36068
L40036 36346
" />
<path d="M39736 36732
L40036 36732
" />
<path d="M39564 36625
L39886 36518
L39886 36796
" />
<g transform="rotate(-90 40567.5 36900)">
<text x="40567.5" y="37125"
transform="scale(-1 1) translate(-81135.000000 0)"
textLength="6479.14" font-size="600" lengthAdjust="spacingAndGlyphs"
text-anchor="end" opacity="0">License: CC BY 4.0</text>
</g>
<path d="M40771 30625
L40771 30411
L40321 30411
" />
<path d="M40771 30775
L40471 30775
" />
<path d="M40321 30775
L40342 30753
L40363 30775
L40342 30796
L40321 30775
L40363 30775
" />
<path d="M40749 31182
L40771 31139
L40771 31053
L40749 31011
L40728 30989
L40685 30968
L40556 30968
L40513 30989
L40492 31011
L40471 31053
L40471 31139
L40492 31182
" />
<path d="M40749 31546
L40771 31503
L40771 31418
L40749 31375
L40706 31353
L40535 31353
L40492 31375
L40471 31418
L40471 31503
L40492 31546
L40535 31568
L40578 31568
L40621 31353
" />
<path d="M40471 31761
L40771 31761
" />
<path d="M40513 31761
L40492 31782
L40471 31825
L40471 31889
L40492 31932
L40535 31953
L40771 31953
" />
<path d="M40749 32146
L40771 32189
L40771 32275
L40749 32318
L40706 32339
L40685 32339
L40642 32318
L40621 32275
L40621 32211
L40599 32168
L40556 32146
L40535 32146
L40492 32168
L40471 32211
L40471 32275
L40492 32318
" />
<path d="M40749 32703
L40771 32661
L40771 32575
L40749 32532
L40706 32511
L40535 32511
L40492 32532
L40471 32575
L40471 32661
L40492 32703
L40535 32725
L40578 32725
L40621 32511
" />
<path d="M40728 32918
L40749 32939
L40771 32918
L40749 32896
L40728 32918
L40771 32918
" />
<path d="M40492 32918
L40513 32939
L40535 32918
L40513 32896
L40492 32918
L40535 32918
" />
<path d="M40728 33732
L40749 33711
L40771 33646
L40771 33603
L40749 33539
L40706 33496
L40663 33475
L40578 33453
L40513 33453
L40428 33475
L40385 33496
L40342 33539
L40321 33603
L40321 33646
L40342 33711
L40363 33732
" />
<path d="M40728 34182
L40749 34161
L40771 34096
L40771 34053
L40749 33989
L40706 33946
L40663 33925
L40578 33903
L40513 33903
L40428 33925
L40385 33946
L40342 33989
L40321 34053
L40321 34096
L40342 34161
L40363 34182
" />
<path d="M40535 34868
L40556 34932
L40578 34953
L40621 34975
L40685 34975
L40728 34953
L40749 34932
L40771 34889
L40771 34718
L40321 34718
L40321 34868
L40342 34911
L40363 34932
L40406 34953
L40449 34953
L40492 34932
L40513 34911
L40535 34868
L40535 34718
" />
<path d="M40556 35253
L40771 35253
" />
<path d="M40321 35103
L40556 35253
L40321 35403
" />
<path d="M40471 36089
L40771 36089
" />
<path d="M40299 35982
L40621 35875
L40621 36153
" />
<path d="M40728 36325
L40749 36346
L40771 36325
L40749 36303
L40728 36325
L40771 36325
" />
<path d="M40321 36625
L40321 36668
L40342 36711
L40363 36732
L40406 36753
L40492 36775
L40599 36775
L40685 36753
L40728 36732
L40749 36711
L40771 36668
L40771 36625
L40749 36582
L40728 36561
L40685 36539
L40599 36518
L40492 36518
L40406 36539
L40363 36561
L40342 36582
L40321 36625
" />
<g >
</g>
</g> 
</svg>
