%TF.GenerationSoftware,KiCad,Pcbnew,(5.1.12)-1*%
%TF.CreationDate,2022-01-27T23:25:20+05:30*%
%TF.ProjectId,M5_BuggyProject,4d355f42-7567-4677-9950-726f6a656374,v1.0*%
%TF.SameCoordinates,Original*%
%TF.FileFunction,Paste,Top*%
%TF.FilePolarity,Positive*%
%FSLAX46Y46*%
G04 Gerber Fmt 4.6, Leading zero omitted, Abs format (unit mm)*
G04 Created by KiCad (PCBNEW (5.1.12)-1) date 2022-01-27 23:25:20*
%MOMM*%
%LPD*%
G01*
G04 APERTURE LIST*
%ADD10R,1.700000X2.500000*%
G04 APERTURE END LIST*
%TO.C,R1*%
G36*
G01*
X79257997Y-105621000D02*
X80508003Y-105621000D01*
G75*
G02*
X80758000Y-105870997I0J-249997D01*
G01*
X80758000Y-106496003D01*
G75*
G02*
X80508003Y-106746000I-249997J0D01*
G01*
X79257997Y-106746000D01*
G75*
G02*
X79008000Y-106496003I0J249997D01*
G01*
X79008000Y-105870997D01*
G75*
G02*
X79257997Y-105621000I249997J0D01*
G01*
G37*
G36*
G01*
X79257997Y-108546000D02*
X80508003Y-108546000D01*
G75*
G02*
X80758000Y-108795997I0J-249997D01*
G01*
X80758000Y-109421003D01*
G75*
G02*
X80508003Y-109671000I-249997J0D01*
G01*
X79257997Y-109671000D01*
G75*
G02*
X79008000Y-109421003I0J249997D01*
G01*
X79008000Y-108795997D01*
G75*
G02*
X79257997Y-108546000I249997J0D01*
G01*
G37*
%TD*%
D10*
%TO.C,Z1*%
X84328000Y-104426000D03*
X84328000Y-108426000D03*
%TD*%
%TO.C,R2*%
G36*
G01*
X90033003Y-39486000D02*
X88782997Y-39486000D01*
G75*
G02*
X88533000Y-39236003I0J249997D01*
G01*
X88533000Y-38610997D01*
G75*
G02*
X88782997Y-38361000I249997J0D01*
G01*
X90033003Y-38361000D01*
G75*
G02*
X90283000Y-38610997I0J-249997D01*
G01*
X90283000Y-39236003D01*
G75*
G02*
X90033003Y-39486000I-249997J0D01*
G01*
G37*
G36*
G01*
X90033003Y-42411000D02*
X88782997Y-42411000D01*
G75*
G02*
X88533000Y-42161003I0J249997D01*
G01*
X88533000Y-41535997D01*
G75*
G02*
X88782997Y-41286000I249997J0D01*
G01*
X90033003Y-41286000D01*
G75*
G02*
X90283000Y-41535997I0J-249997D01*
G01*
X90283000Y-42161003D01*
G75*
G02*
X90033003Y-42411000I-249997J0D01*
G01*
G37*
%TD*%
%TO.C,R3*%
G36*
G01*
X93843003Y-42411000D02*
X92592997Y-42411000D01*
G75*
G02*
X92343000Y-42161003I0J249997D01*
G01*
X92343000Y-41535997D01*
G75*
G02*
X92592997Y-41286000I249997J0D01*
G01*
X93843003Y-41286000D01*
G75*
G02*
X94093000Y-41535997I0J-249997D01*
G01*
X94093000Y-42161003D01*
G75*
G02*
X93843003Y-42411000I-249997J0D01*
G01*
G37*
G36*
G01*
X93843003Y-39486000D02*
X92592997Y-39486000D01*
G75*
G02*
X92343000Y-39236003I0J249997D01*
G01*
X92343000Y-38610997D01*
G75*
G02*
X92592997Y-38361000I249997J0D01*
G01*
X93843003Y-38361000D01*
G75*
G02*
X94093000Y-38610997I0J-249997D01*
G01*
X94093000Y-39236003D01*
G75*
G02*
X93843003Y-39486000I-249997J0D01*
G01*
G37*
%TD*%
%TO.C,D2*%
G36*
G01*
X88783000Y-43441000D02*
X90033000Y-43441000D01*
G75*
G02*
X90283000Y-43691000I0J-250000D01*
G01*
X90283000Y-44441000D01*
G75*
G02*
X90033000Y-44691000I-250000J0D01*
G01*
X88783000Y-44691000D01*
G75*
G02*
X88533000Y-44441000I0J250000D01*
G01*
X88533000Y-43691000D01*
G75*
G02*
X88783000Y-43441000I250000J0D01*
G01*
G37*
G36*
G01*
X88783000Y-46241000D02*
X90033000Y-46241000D01*
G75*
G02*
X90283000Y-46491000I0J-250000D01*
G01*
X90283000Y-47241000D01*
G75*
G02*
X90033000Y-47491000I-250000J0D01*
G01*
X88783000Y-47491000D01*
G75*
G02*
X88533000Y-47241000I0J250000D01*
G01*
X88533000Y-46491000D01*
G75*
G02*
X88783000Y-46241000I250000J0D01*
G01*
G37*
%TD*%
%TO.C,D3*%
G36*
G01*
X79258000Y-102121000D02*
X80508000Y-102121000D01*
G75*
G02*
X80758000Y-102371000I0J-250000D01*
G01*
X80758000Y-103121000D01*
G75*
G02*
X80508000Y-103371000I-250000J0D01*
G01*
X79258000Y-103371000D01*
G75*
G02*
X79008000Y-103121000I0J250000D01*
G01*
X79008000Y-102371000D01*
G75*
G02*
X79258000Y-102121000I250000J0D01*
G01*
G37*
G36*
G01*
X79258000Y-99321000D02*
X80508000Y-99321000D01*
G75*
G02*
X80758000Y-99571000I0J-250000D01*
G01*
X80758000Y-100321000D01*
G75*
G02*
X80508000Y-100571000I-250000J0D01*
G01*
X79258000Y-100571000D01*
G75*
G02*
X79008000Y-100321000I0J250000D01*
G01*
X79008000Y-99571000D01*
G75*
G02*
X79258000Y-99321000I250000J0D01*
G01*
G37*
%TD*%
%TO.C,D4*%
G36*
G01*
X92593000Y-43441000D02*
X93843000Y-43441000D01*
G75*
G02*
X94093000Y-43691000I0J-250000D01*
G01*
X94093000Y-44441000D01*
G75*
G02*
X93843000Y-44691000I-250000J0D01*
G01*
X92593000Y-44691000D01*
G75*
G02*
X92343000Y-44441000I0J250000D01*
G01*
X92343000Y-43691000D01*
G75*
G02*
X92593000Y-43441000I250000J0D01*
G01*
G37*
G36*
G01*
X92593000Y-46241000D02*
X93843000Y-46241000D01*
G75*
G02*
X94093000Y-46491000I0J-250000D01*
G01*
X94093000Y-47241000D01*
G75*
G02*
X93843000Y-47491000I-250000J0D01*
G01*
X92593000Y-47491000D01*
G75*
G02*
X92343000Y-47241000I0J250000D01*
G01*
X92343000Y-46491000D01*
G75*
G02*
X92593000Y-46241000I250000J0D01*
G01*
G37*
%TD*%
M02*
