%TF.GenerationSoftware,KiCad,Pcbnew,(5.1.12)-1*%
%TF.CreationDate,2022-01-27T23:25:20+05:30*%
%TF.ProjectId,M5_BuggyProject,4d355f42-7567-4677-9950-726f6a656374,v1.0*%
%TF.SameCoordinates,Original*%
%TF.FileFunction,Copper,L2,Bot*%
%TF.FilePolarity,Positive*%
%FSLAX46Y46*%
G04 Gerber Fmt 4.6, Leading zero omitted, Abs format (unit mm)*
G04 Created by KiCad (PCBNEW (5.1.12)-1) date 2022-01-27 23:25:20*
%MOMM*%
%LPD*%
G01*
G04 APERTURE LIST*
%TA.AperFunction,ComponentPad*%
%ADD10R,1.700000X1.700000*%
%TD*%
%TA.AperFunction,ComponentPad*%
%ADD11O,1.700000X1.700000*%
%TD*%
%TA.AperFunction,ComponentPad*%
%ADD12R,2.000000X2.000000*%
%TD*%
%TA.AperFunction,ComponentPad*%
%ADD13C,2.000000*%
%TD*%
%TA.AperFunction,ComponentPad*%
%ADD14O,2.000000X2.000000*%
%TD*%
%TA.AperFunction,ComponentPad*%
%ADD15C,1.600000*%
%TD*%
%TA.AperFunction,ComponentPad*%
%ADD16R,1.600000X1.600000*%
%TD*%
%TA.AperFunction,ComponentPad*%
%ADD17C,6.000000*%
%TD*%
%TA.AperFunction,ComponentPad*%
%ADD18C,6.400000*%
%TD*%
%TA.AperFunction,ComponentPad*%
%ADD19C,0.800000*%
%TD*%
%TA.AperFunction,ViaPad*%
%ADD20C,0.800000*%
%TD*%
%TA.AperFunction,Conductor*%
%ADD21C,0.508000*%
%TD*%
%TA.AperFunction,Conductor*%
%ADD22C,0.254000*%
%TD*%
%TA.AperFunction,Conductor*%
%ADD23C,0.100000*%
%TD*%
G04 APERTURE END LIST*
D10*
%TO.P,A7,1*%
%TO.N,BIN1*%
X79248000Y-96266000D03*
D11*
%TO.P,A7,2*%
%TO.N,BIN2*%
X79248000Y-93726000D03*
%TO.P,A7,3*%
%TO.N,+10V*%
X79248000Y-91186000D03*
%TO.P,A7,4*%
%TO.N,GND*%
X79248000Y-88646000D03*
%TD*%
D12*
%TO.P,C1,1*%
%TO.N,+10V*%
X95885000Y-107188000D03*
D13*
%TO.P,C1,2*%
%TO.N,GND*%
X95885000Y-112188000D03*
%TD*%
D12*
%TO.P,D1,1*%
%TO.N,+10V*%
X103352600Y-107569000D03*
D14*
%TO.P,D1,2*%
%TO.N,VCC*%
X103352600Y-112649000D03*
%TD*%
D11*
%TO.P,A6,4*%
%TO.N,GND*%
X79248000Y-68326000D03*
%TO.P,A6,3*%
%TO.N,+10V*%
X79248000Y-70866000D03*
%TO.P,A6,2*%
%TO.N,BIN2*%
X79248000Y-73406000D03*
D10*
%TO.P,A6,1*%
%TO.N,BIN1*%
X79248000Y-75946000D03*
%TD*%
D15*
%TO.P,A1,16*%
%TO.N,Net-(A1-Pad16)*%
X86868000Y-96266000D03*
%TO.P,A1,15*%
%TO.N,Net-(A1-Pad15)*%
X86868000Y-93726000D03*
%TO.P,A1,14*%
%TO.N,Net-(A1-Pad14)*%
X86868000Y-91186000D03*
%TO.P,A1,13*%
%TO.N,Net-(A1-Pad13)*%
X86868000Y-88646000D03*
%TO.P,A1,12*%
%TO.N,Net-(A1-Pad12)*%
X86868000Y-86106000D03*
%TO.P,A1,11*%
%TO.N,Net-(A1-Pad11)*%
X86868000Y-83566000D03*
%TO.P,A1,10*%
%TO.N,CONFIG_R*%
X86868000Y-81026000D03*
%TO.P,A1,9*%
%TO.N,CONFIG_L*%
X86868000Y-78486000D03*
%TO.P,A1,8*%
%TO.N,CHANNEL_3*%
X86868000Y-75946000D03*
%TO.P,A1,7*%
%TO.N,CHANNEL_2*%
X86868000Y-73406000D03*
%TO.P,A1,6*%
%TO.N,CHANNEL_1*%
X86868000Y-70866000D03*
%TO.P,A1,5*%
%TO.N,Net-(A1-Pad5)*%
X86868000Y-68326000D03*
%TO.P,A1,4*%
%TO.N,GND*%
X86868000Y-65786000D03*
%TO.P,A1,3*%
%TO.N,Net-(A1-Pad3)*%
X86868000Y-63246000D03*
%TO.P,A1,2*%
%TO.N,Net-(A1-Pad2)*%
X86868000Y-60706000D03*
D16*
%TO.P,A1,1*%
%TO.N,Net-(A1-Pad1)*%
X86868000Y-58166000D03*
D15*
%TO.P,A1,28*%
%TO.N,Net-(A1-Pad28)*%
X107188000Y-68326000D03*
%TO.P,A1,27*%
%TO.N,Net-(A1-Pad27)*%
X107188000Y-70866000D03*
%TO.P,A1,26*%
%TO.N,Net-(A1-Pad26)*%
X107188000Y-73406000D03*
%TO.P,A1,25*%
%TO.N,Net-(A1-Pad25)*%
X107188000Y-75946000D03*
%TO.P,A1,24*%
%TO.N,BEEP*%
X107188000Y-78486000D03*
%TO.P,A1,23*%
%TO.N,Net-(A1-Pad23)*%
X107188000Y-81026000D03*
%TO.P,A1,22*%
%TO.N,BIN2*%
X107188000Y-83566000D03*
%TO.P,A1,21*%
%TO.N,BIN1*%
X107188000Y-86106000D03*
%TO.P,A1,20*%
%TO.N,AIN1*%
X107188000Y-88646000D03*
%TO.P,A1,19*%
%TO.N,AIN2*%
X107188000Y-91186000D03*
%TO.P,A1,18*%
%TO.N,Net-(A1-Pad18)*%
X107188000Y-93726000D03*
%TO.P,A1,17*%
%TO.N,Net-(A1-Pad17)*%
X107188000Y-96266000D03*
%TD*%
D11*
%TO.P,A4,4*%
%TO.N,GND*%
X114808000Y-96266000D03*
%TO.P,A4,3*%
%TO.N,+10V*%
X114808000Y-93726000D03*
%TO.P,A4,2*%
%TO.N,AIN2*%
X114808000Y-91186000D03*
D10*
%TO.P,A4,1*%
%TO.N,AIN1*%
X114808000Y-88646000D03*
%TD*%
D11*
%TO.P,A2,4*%
%TO.N,GND*%
X114703001Y-55626000D03*
%TO.P,A2,3*%
%TO.N,+10V*%
X114703001Y-53086000D03*
%TO.P,A2,2*%
%TO.N,AIN2*%
X114703001Y-50546000D03*
D10*
%TO.P,A2,1*%
%TO.N,AIN1*%
X114703001Y-48006000D03*
%TD*%
%TO.P,A3,1*%
%TO.N,AIN1*%
X114808000Y-68326000D03*
D11*
%TO.P,A3,2*%
%TO.N,AIN2*%
X114808000Y-70866000D03*
%TO.P,A3,3*%
%TO.N,+10V*%
X114808000Y-73406000D03*
%TO.P,A3,4*%
%TO.N,GND*%
X114808000Y-75946000D03*
%TD*%
D10*
%TO.P,A5,1*%
%TO.N,BIN1*%
X79248000Y-55626000D03*
D11*
%TO.P,A5,2*%
%TO.N,BIN2*%
X79248000Y-53086000D03*
%TO.P,A5,3*%
%TO.N,+10V*%
X79248000Y-50546000D03*
%TO.P,A5,4*%
%TO.N,GND*%
X79248000Y-48006000D03*
%TD*%
D17*
%TO.P,J1,2*%
%TO.N,VCC*%
X112268000Y-112610000D03*
%TO.P,J1,1*%
%TO.N,GND*%
%TA.AperFunction,ComponentPad*%
G36*
G01*
X110768000Y-102410000D02*
X113768000Y-102410000D01*
G75*
G02*
X115268000Y-103910000I0J-1500000D01*
G01*
X115268000Y-106910000D01*
G75*
G02*
X113768000Y-108410000I-1500000J0D01*
G01*
X110768000Y-108410000D01*
G75*
G02*
X109268000Y-106910000I0J1500000D01*
G01*
X109268000Y-103910000D01*
G75*
G02*
X110768000Y-102410000I1500000J0D01*
G01*
G37*
%TD.AperFunction*%
%TD*%
D18*
%TO.P,H1,1*%
%TO.N,GND*%
X80518000Y-39116000D03*
D19*
X82918000Y-39116000D03*
X82215056Y-40813056D03*
X80518000Y-41516000D03*
X78820944Y-40813056D03*
X78118000Y-39116000D03*
X78820944Y-37418944D03*
X80518000Y-36716000D03*
X82215056Y-37418944D03*
%TD*%
%TO.P,H2,1*%
%TO.N,GND*%
X115235056Y-37418944D03*
X113538000Y-36716000D03*
X111840944Y-37418944D03*
X111138000Y-39116000D03*
X111840944Y-40813056D03*
X113538000Y-41516000D03*
X115235056Y-40813056D03*
X115938000Y-39116000D03*
D18*
X113538000Y-39116000D03*
%TD*%
D19*
%TO.P,H3,1*%
%TO.N,GND*%
X115235056Y-119968944D03*
X113538000Y-119266000D03*
X111840944Y-119968944D03*
X111138000Y-121666000D03*
X111840944Y-123363056D03*
X113538000Y-124066000D03*
X115235056Y-123363056D03*
X115938000Y-121666000D03*
D18*
X113538000Y-121666000D03*
%TD*%
%TO.P,H4,1*%
%TO.N,GND*%
X80518000Y-121666000D03*
D19*
X82918000Y-121666000D03*
X82215056Y-123363056D03*
X80518000Y-124066000D03*
X78820944Y-123363056D03*
X78118000Y-121666000D03*
X78820944Y-119968944D03*
X80518000Y-119266000D03*
X82215056Y-119968944D03*
%TD*%
D12*
%TO.P,BZ1,1*%
%TO.N,BEEP*%
X107188000Y-44196000D03*
D13*
%TO.P,BZ1,2*%
%TO.N,GND*%
X99588000Y-44196000D03*
%TD*%
%TO.P,J2,1*%
%TO.N,VCC*%
X103378000Y-117856000D03*
%TD*%
%TO.P,J3,1*%
%TO.N,+10V*%
X98298000Y-117831001D03*
%TD*%
D20*
%TO.N,BIN2*%
X88138000Y-92456000D03*
%TO.N,BIN1*%
X84328000Y-75946000D03*
X84328000Y-60706000D03*
%TO.N,AIN2*%
X109728000Y-55626000D03*
X109728000Y-70866000D03*
%TO.N,+10V*%
X81788000Y-112522000D03*
%TD*%
D21*
%TO.N,BIN2*%
X85012078Y-93726000D02*
X79248000Y-93726000D01*
X86282078Y-92456000D02*
X85012078Y-93726000D01*
X88138000Y-92456000D02*
X86282078Y-92456000D01*
%TO.N,BIN1*%
X84328000Y-75946000D02*
X79248000Y-75946000D01*
X84328000Y-60706000D02*
X79248000Y-55626000D01*
%TO.N,AIN2*%
X114703001Y-50650999D02*
X114703001Y-50546000D01*
X109728000Y-55626000D02*
X114703001Y-50650999D01*
X109728000Y-70866000D02*
X114808000Y-70866000D01*
%TO.N,AIN1*%
X107188000Y-88646000D02*
X114808000Y-88646000D01*
%TD*%
D22*
%TO.N,+10V*%
X111093330Y-36137161D02*
X110559161Y-36671330D01*
X110139467Y-37299446D01*
X109850377Y-37997372D01*
X109703000Y-38738285D01*
X109703000Y-39493715D01*
X109850377Y-40234628D01*
X110139467Y-40932554D01*
X110559161Y-41560670D01*
X111093330Y-42094839D01*
X111721446Y-42514533D01*
X112419372Y-42803623D01*
X113160285Y-42951000D01*
X113915715Y-42951000D01*
X114656628Y-42803623D01*
X115354554Y-42514533D01*
X115982670Y-42094839D01*
X116516839Y-41560670D01*
X116700300Y-41286101D01*
X116700301Y-53054182D01*
X116700300Y-53054192D01*
X116700301Y-55594182D01*
X116700300Y-55594192D01*
X116700301Y-116554182D01*
X116700300Y-116554192D01*
X116700301Y-119495900D01*
X116516839Y-119221330D01*
X115982670Y-118687161D01*
X115354554Y-118267467D01*
X114656628Y-117978377D01*
X113915715Y-117831000D01*
X113160285Y-117831000D01*
X112419372Y-117978377D01*
X111721446Y-118267467D01*
X111093330Y-118687161D01*
X110559161Y-119221330D01*
X110139467Y-119849446D01*
X109850377Y-120547372D01*
X109703000Y-121288285D01*
X109703000Y-122043715D01*
X109850377Y-122784628D01*
X110139467Y-123482554D01*
X110559161Y-124110670D01*
X111093330Y-124644839D01*
X111367899Y-124828300D01*
X82688101Y-124828300D01*
X82962670Y-124644839D01*
X83496839Y-124110670D01*
X83916533Y-123482554D01*
X84205623Y-122784628D01*
X84353000Y-122043715D01*
X84353000Y-121288285D01*
X84205623Y-120547372D01*
X83916533Y-119849446D01*
X83496839Y-119221330D01*
X83241923Y-118966414D01*
X97342192Y-118966414D01*
X97437956Y-119230815D01*
X97727571Y-119371705D01*
X98039108Y-119453385D01*
X98360595Y-119472719D01*
X98679675Y-119428962D01*
X98984088Y-119323796D01*
X99158044Y-119230815D01*
X99253808Y-118966414D01*
X98298000Y-118010606D01*
X97342192Y-118966414D01*
X83241923Y-118966414D01*
X82962670Y-118687161D01*
X82334554Y-118267467D01*
X81636628Y-117978377D01*
X81210406Y-117893596D01*
X96656282Y-117893596D01*
X96700039Y-118212676D01*
X96805205Y-118517089D01*
X96898186Y-118691045D01*
X97162587Y-118786809D01*
X98118395Y-117831001D01*
X98477605Y-117831001D01*
X99433413Y-118786809D01*
X99697814Y-118691045D01*
X99838704Y-118401430D01*
X99920384Y-118089893D01*
X99939718Y-117768406D01*
X99929647Y-117694967D01*
X101743000Y-117694967D01*
X101743000Y-118017033D01*
X101805832Y-118332912D01*
X101929082Y-118630463D01*
X102108013Y-118898252D01*
X102335748Y-119125987D01*
X102603537Y-119304918D01*
X102901088Y-119428168D01*
X103216967Y-119491000D01*
X103539033Y-119491000D01*
X103854912Y-119428168D01*
X104152463Y-119304918D01*
X104420252Y-119125987D01*
X104647987Y-118898252D01*
X104826918Y-118630463D01*
X104950168Y-118332912D01*
X105013000Y-118017033D01*
X105013000Y-117694967D01*
X104950168Y-117379088D01*
X104826918Y-117081537D01*
X104647987Y-116813748D01*
X104420252Y-116586013D01*
X104152463Y-116407082D01*
X103854912Y-116283832D01*
X103539033Y-116221000D01*
X103216967Y-116221000D01*
X102901088Y-116283832D01*
X102603537Y-116407082D01*
X102335748Y-116586013D01*
X102108013Y-116813748D01*
X101929082Y-117081537D01*
X101805832Y-117379088D01*
X101743000Y-117694967D01*
X99929647Y-117694967D01*
X99895961Y-117449326D01*
X99790795Y-117144913D01*
X99697814Y-116970957D01*
X99433413Y-116875193D01*
X98477605Y-117831001D01*
X98118395Y-117831001D01*
X97162587Y-116875193D01*
X96898186Y-116970957D01*
X96757296Y-117260572D01*
X96675616Y-117572109D01*
X96656282Y-117893596D01*
X81210406Y-117893596D01*
X80895715Y-117831000D01*
X80140285Y-117831000D01*
X79399372Y-117978377D01*
X78701446Y-118267467D01*
X78073330Y-118687161D01*
X77539161Y-119221330D01*
X77355700Y-119495899D01*
X77355700Y-116695588D01*
X97342192Y-116695588D01*
X98298000Y-117651396D01*
X99253808Y-116695588D01*
X99158044Y-116431187D01*
X98868429Y-116290297D01*
X98556892Y-116208617D01*
X98235405Y-116189283D01*
X97916325Y-116233040D01*
X97611912Y-116338206D01*
X97437956Y-116431187D01*
X97342192Y-116695588D01*
X77355700Y-116695588D01*
X77355700Y-112026967D01*
X94250000Y-112026967D01*
X94250000Y-112349033D01*
X94312832Y-112664912D01*
X94436082Y-112962463D01*
X94615013Y-113230252D01*
X94842748Y-113457987D01*
X95110537Y-113636918D01*
X95408088Y-113760168D01*
X95723967Y-113823000D01*
X96046033Y-113823000D01*
X96361912Y-113760168D01*
X96659463Y-113636918D01*
X96927252Y-113457987D01*
X97154987Y-113230252D01*
X97333918Y-112962463D01*
X97457168Y-112664912D01*
X97492364Y-112487967D01*
X101717600Y-112487967D01*
X101717600Y-112810033D01*
X101780432Y-113125912D01*
X101903682Y-113423463D01*
X102082613Y-113691252D01*
X102310348Y-113918987D01*
X102578137Y-114097918D01*
X102875688Y-114221168D01*
X103191567Y-114284000D01*
X103513633Y-114284000D01*
X103829512Y-114221168D01*
X104127063Y-114097918D01*
X104394852Y-113918987D01*
X104622587Y-113691252D01*
X104801518Y-113423463D01*
X104924768Y-113125912D01*
X104987600Y-112810033D01*
X104987600Y-112487967D01*
X104924768Y-112172088D01*
X104801518Y-111874537D01*
X104622587Y-111606748D01*
X104394852Y-111379013D01*
X104127063Y-111200082D01*
X103829512Y-111076832D01*
X103513633Y-111014000D01*
X103191567Y-111014000D01*
X102875688Y-111076832D01*
X102578137Y-111200082D01*
X102310348Y-111379013D01*
X102082613Y-111606748D01*
X101903682Y-111874537D01*
X101780432Y-112172088D01*
X101717600Y-112487967D01*
X97492364Y-112487967D01*
X97520000Y-112349033D01*
X97520000Y-112026967D01*
X97457168Y-111711088D01*
X97333918Y-111413537D01*
X97154987Y-111145748D01*
X96927252Y-110918013D01*
X96659463Y-110739082D01*
X96361912Y-110615832D01*
X96046033Y-110553000D01*
X95723967Y-110553000D01*
X95408088Y-110615832D01*
X95110537Y-110739082D01*
X94842748Y-110918013D01*
X94615013Y-111145748D01*
X94436082Y-111413537D01*
X94312832Y-111711088D01*
X94250000Y-112026967D01*
X77355700Y-112026967D01*
X77355700Y-108188000D01*
X94246928Y-108188000D01*
X94259188Y-108312482D01*
X94295498Y-108432180D01*
X94354463Y-108542494D01*
X94433815Y-108639185D01*
X94530506Y-108718537D01*
X94640820Y-108777502D01*
X94760518Y-108813812D01*
X94885000Y-108826072D01*
X95599250Y-108823000D01*
X95758000Y-108664250D01*
X95758000Y-107315000D01*
X96012000Y-107315000D01*
X96012000Y-108664250D01*
X96170750Y-108823000D01*
X96885000Y-108826072D01*
X97009482Y-108813812D01*
X97129180Y-108777502D01*
X97239494Y-108718537D01*
X97336185Y-108639185D01*
X97393784Y-108569000D01*
X101714528Y-108569000D01*
X101726788Y-108693482D01*
X101763098Y-108813180D01*
X101822063Y-108923494D01*
X101901415Y-109020185D01*
X101998106Y-109099537D01*
X102108420Y-109158502D01*
X102228118Y-109194812D01*
X102352600Y-109207072D01*
X103066850Y-109204000D01*
X103225600Y-109045250D01*
X103225600Y-107696000D01*
X103479600Y-107696000D01*
X103479600Y-109045250D01*
X103638350Y-109204000D01*
X104352600Y-109207072D01*
X104477082Y-109194812D01*
X104596780Y-109158502D01*
X104707094Y-109099537D01*
X104803785Y-109020185D01*
X104883137Y-108923494D01*
X104942102Y-108813180D01*
X104978412Y-108693482D01*
X104990672Y-108569000D01*
X104987600Y-107854750D01*
X104828850Y-107696000D01*
X103479600Y-107696000D01*
X103225600Y-107696000D01*
X101876350Y-107696000D01*
X101717600Y-107854750D01*
X101714528Y-108569000D01*
X97393784Y-108569000D01*
X97415537Y-108542494D01*
X97474502Y-108432180D01*
X97510812Y-108312482D01*
X97523072Y-108188000D01*
X97520000Y-107473750D01*
X97361250Y-107315000D01*
X96012000Y-107315000D01*
X95758000Y-107315000D01*
X94408750Y-107315000D01*
X94250000Y-107473750D01*
X94246928Y-108188000D01*
X77355700Y-108188000D01*
X77355700Y-106188000D01*
X94246928Y-106188000D01*
X94250000Y-106902250D01*
X94408750Y-107061000D01*
X95758000Y-107061000D01*
X95758000Y-105711750D01*
X96012000Y-105711750D01*
X96012000Y-107061000D01*
X97361250Y-107061000D01*
X97520000Y-106902250D01*
X97521433Y-106569000D01*
X101714528Y-106569000D01*
X101717600Y-107283250D01*
X101876350Y-107442000D01*
X103225600Y-107442000D01*
X103225600Y-106092750D01*
X103479600Y-106092750D01*
X103479600Y-107442000D01*
X104828850Y-107442000D01*
X104987600Y-107283250D01*
X104990672Y-106569000D01*
X104978412Y-106444518D01*
X104942102Y-106324820D01*
X104883137Y-106214506D01*
X104803785Y-106117815D01*
X104707094Y-106038463D01*
X104596780Y-105979498D01*
X104477082Y-105943188D01*
X104352600Y-105930928D01*
X103638350Y-105934000D01*
X103479600Y-106092750D01*
X103225600Y-106092750D01*
X103066850Y-105934000D01*
X102352600Y-105930928D01*
X102228118Y-105943188D01*
X102108420Y-105979498D01*
X101998106Y-106038463D01*
X101901415Y-106117815D01*
X101822063Y-106214506D01*
X101763098Y-106324820D01*
X101726788Y-106444518D01*
X101714528Y-106569000D01*
X97521433Y-106569000D01*
X97523072Y-106188000D01*
X97510812Y-106063518D01*
X97474502Y-105943820D01*
X97415537Y-105833506D01*
X97336185Y-105736815D01*
X97239494Y-105657463D01*
X97129180Y-105598498D01*
X97009482Y-105562188D01*
X96885000Y-105549928D01*
X96170750Y-105553000D01*
X96012000Y-105711750D01*
X95758000Y-105711750D01*
X95599250Y-105553000D01*
X94885000Y-105549928D01*
X94760518Y-105562188D01*
X94640820Y-105598498D01*
X94530506Y-105657463D01*
X94433815Y-105736815D01*
X94354463Y-105833506D01*
X94295498Y-105943820D01*
X94259188Y-106063518D01*
X94246928Y-106188000D01*
X77355700Y-106188000D01*
X77355700Y-103910000D01*
X108629928Y-103910000D01*
X108629928Y-106910000D01*
X108671010Y-107327117D01*
X108792679Y-107728205D01*
X108990258Y-108097849D01*
X109256155Y-108421845D01*
X109580151Y-108687742D01*
X109949795Y-108885321D01*
X110350883Y-109006990D01*
X110768000Y-109048072D01*
X111542626Y-109048072D01*
X111207710Y-109114691D01*
X110546182Y-109388705D01*
X109950823Y-109786511D01*
X109444511Y-110292823D01*
X109046705Y-110888182D01*
X108772691Y-111549710D01*
X108633000Y-112251984D01*
X108633000Y-112968016D01*
X108772691Y-113670290D01*
X109046705Y-114331818D01*
X109444511Y-114927177D01*
X109950823Y-115433489D01*
X110546182Y-115831295D01*
X111207710Y-116105309D01*
X111909984Y-116245000D01*
X112626016Y-116245000D01*
X113328290Y-116105309D01*
X113989818Y-115831295D01*
X114585177Y-115433489D01*
X115091489Y-114927177D01*
X115489295Y-114331818D01*
X115763309Y-113670290D01*
X115903000Y-112968016D01*
X115903000Y-112251984D01*
X115763309Y-111549710D01*
X115489295Y-110888182D01*
X115091489Y-110292823D01*
X114585177Y-109786511D01*
X113989818Y-109388705D01*
X113328290Y-109114691D01*
X112993374Y-109048072D01*
X113768000Y-109048072D01*
X114185117Y-109006990D01*
X114586205Y-108885321D01*
X114955849Y-108687742D01*
X115279845Y-108421845D01*
X115545742Y-108097849D01*
X115743321Y-107728205D01*
X115864990Y-107327117D01*
X115906072Y-106910000D01*
X115906072Y-103910000D01*
X115864990Y-103492883D01*
X115743321Y-103091795D01*
X115545742Y-102722151D01*
X115279845Y-102398155D01*
X114955849Y-102132258D01*
X114586205Y-101934679D01*
X114185117Y-101813010D01*
X113768000Y-101771928D01*
X110768000Y-101771928D01*
X110350883Y-101813010D01*
X109949795Y-101934679D01*
X109580151Y-102132258D01*
X109256155Y-102398155D01*
X108990258Y-102722151D01*
X108792679Y-103091795D01*
X108671010Y-103492883D01*
X108629928Y-103910000D01*
X77355700Y-103910000D01*
X77355700Y-95416000D01*
X77759928Y-95416000D01*
X77759928Y-97116000D01*
X77772188Y-97240482D01*
X77808498Y-97360180D01*
X77867463Y-97470494D01*
X77946815Y-97567185D01*
X78043506Y-97646537D01*
X78153820Y-97705502D01*
X78273518Y-97741812D01*
X78398000Y-97754072D01*
X80098000Y-97754072D01*
X80222482Y-97741812D01*
X80342180Y-97705502D01*
X80452494Y-97646537D01*
X80549185Y-97567185D01*
X80628537Y-97470494D01*
X80687502Y-97360180D01*
X80723812Y-97240482D01*
X80736072Y-97116000D01*
X80736072Y-95416000D01*
X80723812Y-95291518D01*
X80687502Y-95171820D01*
X80628537Y-95061506D01*
X80549185Y-94964815D01*
X80452494Y-94885463D01*
X80342180Y-94826498D01*
X80269620Y-94804487D01*
X80401475Y-94672632D01*
X80439983Y-94615000D01*
X84968418Y-94615000D01*
X85012078Y-94619300D01*
X85055738Y-94615000D01*
X85055745Y-94615000D01*
X85186352Y-94602136D01*
X85353929Y-94551303D01*
X85508369Y-94468753D01*
X85593490Y-94398896D01*
X85596320Y-94405727D01*
X85753363Y-94640759D01*
X85953241Y-94840637D01*
X86185759Y-94996000D01*
X85953241Y-95151363D01*
X85753363Y-95351241D01*
X85596320Y-95586273D01*
X85488147Y-95847426D01*
X85433000Y-96124665D01*
X85433000Y-96407335D01*
X85488147Y-96684574D01*
X85596320Y-96945727D01*
X85753363Y-97180759D01*
X85953241Y-97380637D01*
X86188273Y-97537680D01*
X86449426Y-97645853D01*
X86726665Y-97701000D01*
X87009335Y-97701000D01*
X87286574Y-97645853D01*
X87547727Y-97537680D01*
X87782759Y-97380637D01*
X87982637Y-97180759D01*
X88139680Y-96945727D01*
X88247853Y-96684574D01*
X88303000Y-96407335D01*
X88303000Y-96124665D01*
X88247853Y-95847426D01*
X88139680Y-95586273D01*
X87982637Y-95351241D01*
X87782759Y-95151363D01*
X87550241Y-94996000D01*
X87782759Y-94840637D01*
X87982637Y-94640759D01*
X88139680Y-94405727D01*
X88247853Y-94144574D01*
X88303000Y-93867335D01*
X88303000Y-93584665D01*
X88282678Y-93482499D01*
X88439898Y-93451226D01*
X88628256Y-93373205D01*
X88797774Y-93259937D01*
X88941937Y-93115774D01*
X89055205Y-92946256D01*
X89133226Y-92757898D01*
X89173000Y-92557939D01*
X89173000Y-92354061D01*
X89133226Y-92154102D01*
X89055205Y-91965744D01*
X88941937Y-91796226D01*
X88797774Y-91652063D01*
X88628256Y-91538795D01*
X88439898Y-91460774D01*
X88282678Y-91429501D01*
X88303000Y-91327335D01*
X88303000Y-91044665D01*
X88247853Y-90767426D01*
X88139680Y-90506273D01*
X87982637Y-90271241D01*
X87782759Y-90071363D01*
X87550241Y-89916000D01*
X87782759Y-89760637D01*
X87982637Y-89560759D01*
X88139680Y-89325727D01*
X88247853Y-89064574D01*
X88303000Y-88787335D01*
X88303000Y-88504665D01*
X88247853Y-88227426D01*
X88139680Y-87966273D01*
X87982637Y-87731241D01*
X87782759Y-87531363D01*
X87550241Y-87376000D01*
X87782759Y-87220637D01*
X87982637Y-87020759D01*
X88139680Y-86785727D01*
X88247853Y-86524574D01*
X88303000Y-86247335D01*
X88303000Y-85964665D01*
X88247853Y-85687426D01*
X88139680Y-85426273D01*
X87982637Y-85191241D01*
X87782759Y-84991363D01*
X87550241Y-84836000D01*
X87782759Y-84680637D01*
X87982637Y-84480759D01*
X88139680Y-84245727D01*
X88247853Y-83984574D01*
X88303000Y-83707335D01*
X88303000Y-83424665D01*
X88247853Y-83147426D01*
X88139680Y-82886273D01*
X87982637Y-82651241D01*
X87782759Y-82451363D01*
X87550241Y-82296000D01*
X87782759Y-82140637D01*
X87982637Y-81940759D01*
X88139680Y-81705727D01*
X88247853Y-81444574D01*
X88303000Y-81167335D01*
X88303000Y-80884665D01*
X88247853Y-80607426D01*
X88139680Y-80346273D01*
X87982637Y-80111241D01*
X87782759Y-79911363D01*
X87550241Y-79756000D01*
X87782759Y-79600637D01*
X87982637Y-79400759D01*
X88139680Y-79165727D01*
X88247853Y-78904574D01*
X88303000Y-78627335D01*
X88303000Y-78344665D01*
X88247853Y-78067426D01*
X88139680Y-77806273D01*
X87982637Y-77571241D01*
X87782759Y-77371363D01*
X87550241Y-77216000D01*
X87782759Y-77060637D01*
X87982637Y-76860759D01*
X88139680Y-76625727D01*
X88247853Y-76364574D01*
X88303000Y-76087335D01*
X88303000Y-75804665D01*
X88247853Y-75527426D01*
X88139680Y-75266273D01*
X87982637Y-75031241D01*
X87782759Y-74831363D01*
X87550241Y-74676000D01*
X87782759Y-74520637D01*
X87982637Y-74320759D01*
X88139680Y-74085727D01*
X88247853Y-73824574D01*
X88303000Y-73547335D01*
X88303000Y-73264665D01*
X88247853Y-72987426D01*
X88139680Y-72726273D01*
X87982637Y-72491241D01*
X87782759Y-72291363D01*
X87550241Y-72136000D01*
X87782759Y-71980637D01*
X87982637Y-71780759D01*
X88139680Y-71545727D01*
X88247853Y-71284574D01*
X88303000Y-71007335D01*
X88303000Y-70724665D01*
X88247853Y-70447426D01*
X88139680Y-70186273D01*
X87982637Y-69951241D01*
X87782759Y-69751363D01*
X87550241Y-69596000D01*
X87782759Y-69440637D01*
X87982637Y-69240759D01*
X88139680Y-69005727D01*
X88247853Y-68744574D01*
X88303000Y-68467335D01*
X88303000Y-68184665D01*
X105753000Y-68184665D01*
X105753000Y-68467335D01*
X105808147Y-68744574D01*
X105916320Y-69005727D01*
X106073363Y-69240759D01*
X106273241Y-69440637D01*
X106505759Y-69596000D01*
X106273241Y-69751363D01*
X106073363Y-69951241D01*
X105916320Y-70186273D01*
X105808147Y-70447426D01*
X105753000Y-70724665D01*
X105753000Y-71007335D01*
X105808147Y-71284574D01*
X105916320Y-71545727D01*
X106073363Y-71780759D01*
X106273241Y-71980637D01*
X106505759Y-72136000D01*
X106273241Y-72291363D01*
X106073363Y-72491241D01*
X105916320Y-72726273D01*
X105808147Y-72987426D01*
X105753000Y-73264665D01*
X105753000Y-73547335D01*
X105808147Y-73824574D01*
X105916320Y-74085727D01*
X106073363Y-74320759D01*
X106273241Y-74520637D01*
X106505759Y-74676000D01*
X106273241Y-74831363D01*
X106073363Y-75031241D01*
X105916320Y-75266273D01*
X105808147Y-75527426D01*
X105753000Y-75804665D01*
X105753000Y-76087335D01*
X105808147Y-76364574D01*
X105916320Y-76625727D01*
X106073363Y-76860759D01*
X106273241Y-77060637D01*
X106505759Y-77216000D01*
X106273241Y-77371363D01*
X106073363Y-77571241D01*
X105916320Y-77806273D01*
X105808147Y-78067426D01*
X105753000Y-78344665D01*
X105753000Y-78627335D01*
X105808147Y-78904574D01*
X105916320Y-79165727D01*
X106073363Y-79400759D01*
X106273241Y-79600637D01*
X106505759Y-79756000D01*
X106273241Y-79911363D01*
X106073363Y-80111241D01*
X105916320Y-80346273D01*
X105808147Y-80607426D01*
X105753000Y-80884665D01*
X105753000Y-81167335D01*
X105808147Y-81444574D01*
X105916320Y-81705727D01*
X106073363Y-81940759D01*
X106273241Y-82140637D01*
X106505759Y-82296000D01*
X106273241Y-82451363D01*
X106073363Y-82651241D01*
X105916320Y-82886273D01*
X105808147Y-83147426D01*
X105753000Y-83424665D01*
X105753000Y-83707335D01*
X105808147Y-83984574D01*
X105916320Y-84245727D01*
X106073363Y-84480759D01*
X106273241Y-84680637D01*
X106505759Y-84836000D01*
X106273241Y-84991363D01*
X106073363Y-85191241D01*
X105916320Y-85426273D01*
X105808147Y-85687426D01*
X105753000Y-85964665D01*
X105753000Y-86247335D01*
X105808147Y-86524574D01*
X105916320Y-86785727D01*
X106073363Y-87020759D01*
X106273241Y-87220637D01*
X106505759Y-87376000D01*
X106273241Y-87531363D01*
X106073363Y-87731241D01*
X105916320Y-87966273D01*
X105808147Y-88227426D01*
X105753000Y-88504665D01*
X105753000Y-88787335D01*
X105808147Y-89064574D01*
X105916320Y-89325727D01*
X106073363Y-89560759D01*
X106273241Y-89760637D01*
X106505759Y-89916000D01*
X106273241Y-90071363D01*
X106073363Y-90271241D01*
X105916320Y-90506273D01*
X105808147Y-90767426D01*
X105753000Y-91044665D01*
X105753000Y-91327335D01*
X105808147Y-91604574D01*
X105916320Y-91865727D01*
X106073363Y-92100759D01*
X106273241Y-92300637D01*
X106505759Y-92456000D01*
X106273241Y-92611363D01*
X106073363Y-92811241D01*
X105916320Y-93046273D01*
X105808147Y-93307426D01*
X105753000Y-93584665D01*
X105753000Y-93867335D01*
X105808147Y-94144574D01*
X105916320Y-94405727D01*
X106073363Y-94640759D01*
X106273241Y-94840637D01*
X106505759Y-94996000D01*
X106273241Y-95151363D01*
X106073363Y-95351241D01*
X105916320Y-95586273D01*
X105808147Y-95847426D01*
X105753000Y-96124665D01*
X105753000Y-96407335D01*
X105808147Y-96684574D01*
X105916320Y-96945727D01*
X106073363Y-97180759D01*
X106273241Y-97380637D01*
X106508273Y-97537680D01*
X106769426Y-97645853D01*
X107046665Y-97701000D01*
X107329335Y-97701000D01*
X107606574Y-97645853D01*
X107867727Y-97537680D01*
X108102759Y-97380637D01*
X108302637Y-97180759D01*
X108459680Y-96945727D01*
X108567853Y-96684574D01*
X108623000Y-96407335D01*
X108623000Y-96124665D01*
X108622021Y-96119740D01*
X113323000Y-96119740D01*
X113323000Y-96412260D01*
X113380068Y-96699158D01*
X113492010Y-96969411D01*
X113654525Y-97212632D01*
X113861368Y-97419475D01*
X114104589Y-97581990D01*
X114374842Y-97693932D01*
X114661740Y-97751000D01*
X114954260Y-97751000D01*
X115241158Y-97693932D01*
X115511411Y-97581990D01*
X115754632Y-97419475D01*
X115961475Y-97212632D01*
X116123990Y-96969411D01*
X116235932Y-96699158D01*
X116293000Y-96412260D01*
X116293000Y-96119740D01*
X116235932Y-95832842D01*
X116123990Y-95562589D01*
X115961475Y-95319368D01*
X115754632Y-95112525D01*
X115572466Y-94990805D01*
X115689355Y-94921178D01*
X115905588Y-94726269D01*
X116079641Y-94492920D01*
X116204825Y-94230099D01*
X116249476Y-94082890D01*
X116128155Y-93853000D01*
X114935000Y-93853000D01*
X114935000Y-93873000D01*
X114681000Y-93873000D01*
X114681000Y-93853000D01*
X113487845Y-93853000D01*
X113366524Y-94082890D01*
X113411175Y-94230099D01*
X113536359Y-94492920D01*
X113710412Y-94726269D01*
X113926645Y-94921178D01*
X114043534Y-94990805D01*
X113861368Y-95112525D01*
X113654525Y-95319368D01*
X113492010Y-95562589D01*
X113380068Y-95832842D01*
X113323000Y-96119740D01*
X108622021Y-96119740D01*
X108567853Y-95847426D01*
X108459680Y-95586273D01*
X108302637Y-95351241D01*
X108102759Y-95151363D01*
X107870241Y-94996000D01*
X108102759Y-94840637D01*
X108302637Y-94640759D01*
X108459680Y-94405727D01*
X108567853Y-94144574D01*
X108623000Y-93867335D01*
X108623000Y-93584665D01*
X108567853Y-93307426D01*
X108459680Y-93046273D01*
X108302637Y-92811241D01*
X108102759Y-92611363D01*
X107870241Y-92456000D01*
X108102759Y-92300637D01*
X108302637Y-92100759D01*
X108459680Y-91865727D01*
X108567853Y-91604574D01*
X108623000Y-91327335D01*
X108623000Y-91044665D01*
X108567853Y-90767426D01*
X108459680Y-90506273D01*
X108302637Y-90271241D01*
X108102759Y-90071363D01*
X107870241Y-89916000D01*
X108102759Y-89760637D01*
X108302637Y-89560759D01*
X108319849Y-89535000D01*
X113323769Y-89535000D01*
X113332188Y-89620482D01*
X113368498Y-89740180D01*
X113427463Y-89850494D01*
X113506815Y-89947185D01*
X113603506Y-90026537D01*
X113713820Y-90085502D01*
X113786380Y-90107513D01*
X113654525Y-90239368D01*
X113492010Y-90482589D01*
X113380068Y-90752842D01*
X113323000Y-91039740D01*
X113323000Y-91332260D01*
X113380068Y-91619158D01*
X113492010Y-91889411D01*
X113654525Y-92132632D01*
X113861368Y-92339475D01*
X114043534Y-92461195D01*
X113926645Y-92530822D01*
X113710412Y-92725731D01*
X113536359Y-92959080D01*
X113411175Y-93221901D01*
X113366524Y-93369110D01*
X113487845Y-93599000D01*
X114681000Y-93599000D01*
X114681000Y-93579000D01*
X114935000Y-93579000D01*
X114935000Y-93599000D01*
X116128155Y-93599000D01*
X116249476Y-93369110D01*
X116204825Y-93221901D01*
X116079641Y-92959080D01*
X115905588Y-92725731D01*
X115689355Y-92530822D01*
X115572466Y-92461195D01*
X115754632Y-92339475D01*
X115961475Y-92132632D01*
X116123990Y-91889411D01*
X116235932Y-91619158D01*
X116293000Y-91332260D01*
X116293000Y-91039740D01*
X116235932Y-90752842D01*
X116123990Y-90482589D01*
X115961475Y-90239368D01*
X115829620Y-90107513D01*
X115902180Y-90085502D01*
X116012494Y-90026537D01*
X116109185Y-89947185D01*
X116188537Y-89850494D01*
X116247502Y-89740180D01*
X116283812Y-89620482D01*
X116296072Y-89496000D01*
X116296072Y-87796000D01*
X116283812Y-87671518D01*
X116247502Y-87551820D01*
X116188537Y-87441506D01*
X116109185Y-87344815D01*
X116012494Y-87265463D01*
X115902180Y-87206498D01*
X115782482Y-87170188D01*
X115658000Y-87157928D01*
X113958000Y-87157928D01*
X113833518Y-87170188D01*
X113713820Y-87206498D01*
X113603506Y-87265463D01*
X113506815Y-87344815D01*
X113427463Y-87441506D01*
X113368498Y-87551820D01*
X113332188Y-87671518D01*
X113323769Y-87757000D01*
X108319849Y-87757000D01*
X108302637Y-87731241D01*
X108102759Y-87531363D01*
X107870241Y-87376000D01*
X108102759Y-87220637D01*
X108302637Y-87020759D01*
X108459680Y-86785727D01*
X108567853Y-86524574D01*
X108623000Y-86247335D01*
X108623000Y-85964665D01*
X108567853Y-85687426D01*
X108459680Y-85426273D01*
X108302637Y-85191241D01*
X108102759Y-84991363D01*
X107870241Y-84836000D01*
X108102759Y-84680637D01*
X108302637Y-84480759D01*
X108459680Y-84245727D01*
X108567853Y-83984574D01*
X108623000Y-83707335D01*
X108623000Y-83424665D01*
X108567853Y-83147426D01*
X108459680Y-82886273D01*
X108302637Y-82651241D01*
X108102759Y-82451363D01*
X107870241Y-82296000D01*
X108102759Y-82140637D01*
X108302637Y-81940759D01*
X108459680Y-81705727D01*
X108567853Y-81444574D01*
X108623000Y-81167335D01*
X108623000Y-80884665D01*
X108567853Y-80607426D01*
X108459680Y-80346273D01*
X108302637Y-80111241D01*
X108102759Y-79911363D01*
X107870241Y-79756000D01*
X108102759Y-79600637D01*
X108302637Y-79400759D01*
X108459680Y-79165727D01*
X108567853Y-78904574D01*
X108623000Y-78627335D01*
X108623000Y-78344665D01*
X108567853Y-78067426D01*
X108459680Y-77806273D01*
X108302637Y-77571241D01*
X108102759Y-77371363D01*
X107870241Y-77216000D01*
X108102759Y-77060637D01*
X108302637Y-76860759D01*
X108459680Y-76625727D01*
X108567853Y-76364574D01*
X108623000Y-76087335D01*
X108623000Y-75804665D01*
X108622021Y-75799740D01*
X113323000Y-75799740D01*
X113323000Y-76092260D01*
X113380068Y-76379158D01*
X113492010Y-76649411D01*
X113654525Y-76892632D01*
X113861368Y-77099475D01*
X114104589Y-77261990D01*
X114374842Y-77373932D01*
X114661740Y-77431000D01*
X114954260Y-77431000D01*
X115241158Y-77373932D01*
X115511411Y-77261990D01*
X115754632Y-77099475D01*
X115961475Y-76892632D01*
X116123990Y-76649411D01*
X116235932Y-76379158D01*
X116293000Y-76092260D01*
X116293000Y-75799740D01*
X116235932Y-75512842D01*
X116123990Y-75242589D01*
X115961475Y-74999368D01*
X115754632Y-74792525D01*
X115572466Y-74670805D01*
X115689355Y-74601178D01*
X115905588Y-74406269D01*
X116079641Y-74172920D01*
X116204825Y-73910099D01*
X116249476Y-73762890D01*
X116128155Y-73533000D01*
X114935000Y-73533000D01*
X114935000Y-73553000D01*
X114681000Y-73553000D01*
X114681000Y-73533000D01*
X113487845Y-73533000D01*
X113366524Y-73762890D01*
X113411175Y-73910099D01*
X113536359Y-74172920D01*
X113710412Y-74406269D01*
X113926645Y-74601178D01*
X114043534Y-74670805D01*
X113861368Y-74792525D01*
X113654525Y-74999368D01*
X113492010Y-75242589D01*
X113380068Y-75512842D01*
X113323000Y-75799740D01*
X108622021Y-75799740D01*
X108567853Y-75527426D01*
X108459680Y-75266273D01*
X108302637Y-75031241D01*
X108102759Y-74831363D01*
X107870241Y-74676000D01*
X108102759Y-74520637D01*
X108302637Y-74320759D01*
X108459680Y-74085727D01*
X108567853Y-73824574D01*
X108623000Y-73547335D01*
X108623000Y-73264665D01*
X108567853Y-72987426D01*
X108459680Y-72726273D01*
X108302637Y-72491241D01*
X108102759Y-72291363D01*
X107870241Y-72136000D01*
X108102759Y-71980637D01*
X108302637Y-71780759D01*
X108459680Y-71545727D01*
X108567853Y-71284574D01*
X108623000Y-71007335D01*
X108623000Y-70764061D01*
X108693000Y-70764061D01*
X108693000Y-70967939D01*
X108732774Y-71167898D01*
X108810795Y-71356256D01*
X108924063Y-71525774D01*
X109068226Y-71669937D01*
X109237744Y-71783205D01*
X109426102Y-71861226D01*
X109626061Y-71901000D01*
X109829939Y-71901000D01*
X110029898Y-71861226D01*
X110218256Y-71783205D01*
X110260468Y-71755000D01*
X113616017Y-71755000D01*
X113654525Y-71812632D01*
X113861368Y-72019475D01*
X114043534Y-72141195D01*
X113926645Y-72210822D01*
X113710412Y-72405731D01*
X113536359Y-72639080D01*
X113411175Y-72901901D01*
X113366524Y-73049110D01*
X113487845Y-73279000D01*
X114681000Y-73279000D01*
X114681000Y-73259000D01*
X114935000Y-73259000D01*
X114935000Y-73279000D01*
X116128155Y-73279000D01*
X116249476Y-73049110D01*
X116204825Y-72901901D01*
X116079641Y-72639080D01*
X115905588Y-72405731D01*
X115689355Y-72210822D01*
X115572466Y-72141195D01*
X115754632Y-72019475D01*
X115961475Y-71812632D01*
X116123990Y-71569411D01*
X116235932Y-71299158D01*
X116293000Y-71012260D01*
X116293000Y-70719740D01*
X116235932Y-70432842D01*
X116123990Y-70162589D01*
X115961475Y-69919368D01*
X115829620Y-69787513D01*
X115902180Y-69765502D01*
X116012494Y-69706537D01*
X116109185Y-69627185D01*
X116188537Y-69530494D01*
X116247502Y-69420180D01*
X116283812Y-69300482D01*
X116296072Y-69176000D01*
X116296072Y-67476000D01*
X116283812Y-67351518D01*
X116247502Y-67231820D01*
X116188537Y-67121506D01*
X116109185Y-67024815D01*
X116012494Y-66945463D01*
X115902180Y-66886498D01*
X115782482Y-66850188D01*
X115658000Y-66837928D01*
X113958000Y-66837928D01*
X113833518Y-66850188D01*
X113713820Y-66886498D01*
X113603506Y-66945463D01*
X113506815Y-67024815D01*
X113427463Y-67121506D01*
X113368498Y-67231820D01*
X113332188Y-67351518D01*
X113319928Y-67476000D01*
X113319928Y-69176000D01*
X113332188Y-69300482D01*
X113368498Y-69420180D01*
X113427463Y-69530494D01*
X113506815Y-69627185D01*
X113603506Y-69706537D01*
X113713820Y-69765502D01*
X113786380Y-69787513D01*
X113654525Y-69919368D01*
X113616017Y-69977000D01*
X110260468Y-69977000D01*
X110218256Y-69948795D01*
X110029898Y-69870774D01*
X109829939Y-69831000D01*
X109626061Y-69831000D01*
X109426102Y-69870774D01*
X109237744Y-69948795D01*
X109068226Y-70062063D01*
X108924063Y-70206226D01*
X108810795Y-70375744D01*
X108732774Y-70564102D01*
X108693000Y-70764061D01*
X108623000Y-70764061D01*
X108623000Y-70724665D01*
X108567853Y-70447426D01*
X108459680Y-70186273D01*
X108302637Y-69951241D01*
X108102759Y-69751363D01*
X107870241Y-69596000D01*
X108102759Y-69440637D01*
X108302637Y-69240759D01*
X108459680Y-69005727D01*
X108567853Y-68744574D01*
X108623000Y-68467335D01*
X108623000Y-68184665D01*
X108567853Y-67907426D01*
X108459680Y-67646273D01*
X108302637Y-67411241D01*
X108102759Y-67211363D01*
X107867727Y-67054320D01*
X107606574Y-66946147D01*
X107329335Y-66891000D01*
X107046665Y-66891000D01*
X106769426Y-66946147D01*
X106508273Y-67054320D01*
X106273241Y-67211363D01*
X106073363Y-67411241D01*
X105916320Y-67646273D01*
X105808147Y-67907426D01*
X105753000Y-68184665D01*
X88303000Y-68184665D01*
X88247853Y-67907426D01*
X88139680Y-67646273D01*
X87982637Y-67411241D01*
X87782759Y-67211363D01*
X87550241Y-67056000D01*
X87782759Y-66900637D01*
X87982637Y-66700759D01*
X88139680Y-66465727D01*
X88247853Y-66204574D01*
X88303000Y-65927335D01*
X88303000Y-65644665D01*
X88247853Y-65367426D01*
X88139680Y-65106273D01*
X87982637Y-64871241D01*
X87782759Y-64671363D01*
X87550241Y-64516000D01*
X87782759Y-64360637D01*
X87982637Y-64160759D01*
X88139680Y-63925727D01*
X88247853Y-63664574D01*
X88303000Y-63387335D01*
X88303000Y-63104665D01*
X88247853Y-62827426D01*
X88139680Y-62566273D01*
X87982637Y-62331241D01*
X87782759Y-62131363D01*
X87550241Y-61976000D01*
X87782759Y-61820637D01*
X87982637Y-61620759D01*
X88139680Y-61385727D01*
X88247853Y-61124574D01*
X88303000Y-60847335D01*
X88303000Y-60564665D01*
X88247853Y-60287426D01*
X88139680Y-60026273D01*
X87982637Y-59791241D01*
X87784039Y-59592643D01*
X87792482Y-59591812D01*
X87912180Y-59555502D01*
X88022494Y-59496537D01*
X88119185Y-59417185D01*
X88198537Y-59320494D01*
X88257502Y-59210180D01*
X88293812Y-59090482D01*
X88306072Y-58966000D01*
X88306072Y-57366000D01*
X88293812Y-57241518D01*
X88257502Y-57121820D01*
X88198537Y-57011506D01*
X88119185Y-56914815D01*
X88022494Y-56835463D01*
X87912180Y-56776498D01*
X87792482Y-56740188D01*
X87668000Y-56727928D01*
X86068000Y-56727928D01*
X85943518Y-56740188D01*
X85823820Y-56776498D01*
X85713506Y-56835463D01*
X85616815Y-56914815D01*
X85537463Y-57011506D01*
X85478498Y-57121820D01*
X85442188Y-57241518D01*
X85429928Y-57366000D01*
X85429928Y-58966000D01*
X85442188Y-59090482D01*
X85478498Y-59210180D01*
X85537463Y-59320494D01*
X85616815Y-59417185D01*
X85713506Y-59496537D01*
X85823820Y-59555502D01*
X85943518Y-59591812D01*
X85951961Y-59592643D01*
X85753363Y-59791241D01*
X85596320Y-60026273D01*
X85488147Y-60287426D01*
X85433000Y-60564665D01*
X85433000Y-60847335D01*
X85488147Y-61124574D01*
X85596320Y-61385727D01*
X85753363Y-61620759D01*
X85953241Y-61820637D01*
X86185759Y-61976000D01*
X85953241Y-62131363D01*
X85753363Y-62331241D01*
X85596320Y-62566273D01*
X85488147Y-62827426D01*
X85433000Y-63104665D01*
X85433000Y-63387335D01*
X85488147Y-63664574D01*
X85596320Y-63925727D01*
X85753363Y-64160759D01*
X85953241Y-64360637D01*
X86185759Y-64516000D01*
X85953241Y-64671363D01*
X85753363Y-64871241D01*
X85596320Y-65106273D01*
X85488147Y-65367426D01*
X85433000Y-65644665D01*
X85433000Y-65927335D01*
X85488147Y-66204574D01*
X85596320Y-66465727D01*
X85753363Y-66700759D01*
X85953241Y-66900637D01*
X86185759Y-67056000D01*
X85953241Y-67211363D01*
X85753363Y-67411241D01*
X85596320Y-67646273D01*
X85488147Y-67907426D01*
X85433000Y-68184665D01*
X85433000Y-68467335D01*
X85488147Y-68744574D01*
X85596320Y-69005727D01*
X85753363Y-69240759D01*
X85953241Y-69440637D01*
X86185759Y-69596000D01*
X85953241Y-69751363D01*
X85753363Y-69951241D01*
X85596320Y-70186273D01*
X85488147Y-70447426D01*
X85433000Y-70724665D01*
X85433000Y-71007335D01*
X85488147Y-71284574D01*
X85596320Y-71545727D01*
X85753363Y-71780759D01*
X85953241Y-71980637D01*
X86185759Y-72136000D01*
X85953241Y-72291363D01*
X85753363Y-72491241D01*
X85596320Y-72726273D01*
X85488147Y-72987426D01*
X85433000Y-73264665D01*
X85433000Y-73547335D01*
X85488147Y-73824574D01*
X85596320Y-74085727D01*
X85753363Y-74320759D01*
X85953241Y-74520637D01*
X86185759Y-74676000D01*
X85953241Y-74831363D01*
X85753363Y-75031241D01*
X85596320Y-75266273D01*
X85488147Y-75527426D01*
X85433000Y-75804665D01*
X85433000Y-76087335D01*
X85488147Y-76364574D01*
X85596320Y-76625727D01*
X85753363Y-76860759D01*
X85953241Y-77060637D01*
X86185759Y-77216000D01*
X85953241Y-77371363D01*
X85753363Y-77571241D01*
X85596320Y-77806273D01*
X85488147Y-78067426D01*
X85433000Y-78344665D01*
X85433000Y-78627335D01*
X85488147Y-78904574D01*
X85596320Y-79165727D01*
X85753363Y-79400759D01*
X85953241Y-79600637D01*
X86185759Y-79756000D01*
X85953241Y-79911363D01*
X85753363Y-80111241D01*
X85596320Y-80346273D01*
X85488147Y-80607426D01*
X85433000Y-80884665D01*
X85433000Y-81167335D01*
X85488147Y-81444574D01*
X85596320Y-81705727D01*
X85753363Y-81940759D01*
X85953241Y-82140637D01*
X86185759Y-82296000D01*
X85953241Y-82451363D01*
X85753363Y-82651241D01*
X85596320Y-82886273D01*
X85488147Y-83147426D01*
X85433000Y-83424665D01*
X85433000Y-83707335D01*
X85488147Y-83984574D01*
X85596320Y-84245727D01*
X85753363Y-84480759D01*
X85953241Y-84680637D01*
X86185759Y-84836000D01*
X85953241Y-84991363D01*
X85753363Y-85191241D01*
X85596320Y-85426273D01*
X85488147Y-85687426D01*
X85433000Y-85964665D01*
X85433000Y-86247335D01*
X85488147Y-86524574D01*
X85596320Y-86785727D01*
X85753363Y-87020759D01*
X85953241Y-87220637D01*
X86185759Y-87376000D01*
X85953241Y-87531363D01*
X85753363Y-87731241D01*
X85596320Y-87966273D01*
X85488147Y-88227426D01*
X85433000Y-88504665D01*
X85433000Y-88787335D01*
X85488147Y-89064574D01*
X85596320Y-89325727D01*
X85753363Y-89560759D01*
X85953241Y-89760637D01*
X86185759Y-89916000D01*
X85953241Y-90071363D01*
X85753363Y-90271241D01*
X85596320Y-90506273D01*
X85488147Y-90767426D01*
X85433000Y-91044665D01*
X85433000Y-91327335D01*
X85488147Y-91604574D01*
X85596320Y-91865727D01*
X85603848Y-91876994D01*
X84643843Y-92837000D01*
X80439983Y-92837000D01*
X80401475Y-92779368D01*
X80194632Y-92572525D01*
X80012466Y-92450805D01*
X80129355Y-92381178D01*
X80345588Y-92186269D01*
X80519641Y-91952920D01*
X80644825Y-91690099D01*
X80689476Y-91542890D01*
X80568155Y-91313000D01*
X79375000Y-91313000D01*
X79375000Y-91333000D01*
X79121000Y-91333000D01*
X79121000Y-91313000D01*
X77927845Y-91313000D01*
X77806524Y-91542890D01*
X77851175Y-91690099D01*
X77976359Y-91952920D01*
X78150412Y-92186269D01*
X78366645Y-92381178D01*
X78483534Y-92450805D01*
X78301368Y-92572525D01*
X78094525Y-92779368D01*
X77932010Y-93022589D01*
X77820068Y-93292842D01*
X77763000Y-93579740D01*
X77763000Y-93872260D01*
X77820068Y-94159158D01*
X77932010Y-94429411D01*
X78094525Y-94672632D01*
X78226380Y-94804487D01*
X78153820Y-94826498D01*
X78043506Y-94885463D01*
X77946815Y-94964815D01*
X77867463Y-95061506D01*
X77808498Y-95171820D01*
X77772188Y-95291518D01*
X77759928Y-95416000D01*
X77355700Y-95416000D01*
X77355700Y-88499740D01*
X77763000Y-88499740D01*
X77763000Y-88792260D01*
X77820068Y-89079158D01*
X77932010Y-89349411D01*
X78094525Y-89592632D01*
X78301368Y-89799475D01*
X78483534Y-89921195D01*
X78366645Y-89990822D01*
X78150412Y-90185731D01*
X77976359Y-90419080D01*
X77851175Y-90681901D01*
X77806524Y-90829110D01*
X77927845Y-91059000D01*
X79121000Y-91059000D01*
X79121000Y-91039000D01*
X79375000Y-91039000D01*
X79375000Y-91059000D01*
X80568155Y-91059000D01*
X80689476Y-90829110D01*
X80644825Y-90681901D01*
X80519641Y-90419080D01*
X80345588Y-90185731D01*
X80129355Y-89990822D01*
X80012466Y-89921195D01*
X80194632Y-89799475D01*
X80401475Y-89592632D01*
X80563990Y-89349411D01*
X80675932Y-89079158D01*
X80733000Y-88792260D01*
X80733000Y-88499740D01*
X80675932Y-88212842D01*
X80563990Y-87942589D01*
X80401475Y-87699368D01*
X80194632Y-87492525D01*
X79951411Y-87330010D01*
X79681158Y-87218068D01*
X79394260Y-87161000D01*
X79101740Y-87161000D01*
X78814842Y-87218068D01*
X78544589Y-87330010D01*
X78301368Y-87492525D01*
X78094525Y-87699368D01*
X77932010Y-87942589D01*
X77820068Y-88212842D01*
X77763000Y-88499740D01*
X77355700Y-88499740D01*
X77355700Y-75096000D01*
X77759928Y-75096000D01*
X77759928Y-76796000D01*
X77772188Y-76920482D01*
X77808498Y-77040180D01*
X77867463Y-77150494D01*
X77946815Y-77247185D01*
X78043506Y-77326537D01*
X78153820Y-77385502D01*
X78273518Y-77421812D01*
X78398000Y-77434072D01*
X80098000Y-77434072D01*
X80222482Y-77421812D01*
X80342180Y-77385502D01*
X80452494Y-77326537D01*
X80549185Y-77247185D01*
X80628537Y-77150494D01*
X80687502Y-77040180D01*
X80723812Y-76920482D01*
X80732231Y-76835000D01*
X83795532Y-76835000D01*
X83837744Y-76863205D01*
X84026102Y-76941226D01*
X84226061Y-76981000D01*
X84429939Y-76981000D01*
X84629898Y-76941226D01*
X84818256Y-76863205D01*
X84987774Y-76749937D01*
X85131937Y-76605774D01*
X85245205Y-76436256D01*
X85323226Y-76247898D01*
X85363000Y-76047939D01*
X85363000Y-75844061D01*
X85323226Y-75644102D01*
X85245205Y-75455744D01*
X85131937Y-75286226D01*
X84987774Y-75142063D01*
X84818256Y-75028795D01*
X84629898Y-74950774D01*
X84429939Y-74911000D01*
X84226061Y-74911000D01*
X84026102Y-74950774D01*
X83837744Y-75028795D01*
X83795532Y-75057000D01*
X80732231Y-75057000D01*
X80723812Y-74971518D01*
X80687502Y-74851820D01*
X80628537Y-74741506D01*
X80549185Y-74644815D01*
X80452494Y-74565463D01*
X80342180Y-74506498D01*
X80269620Y-74484487D01*
X80401475Y-74352632D01*
X80563990Y-74109411D01*
X80675932Y-73839158D01*
X80733000Y-73552260D01*
X80733000Y-73259740D01*
X80675932Y-72972842D01*
X80563990Y-72702589D01*
X80401475Y-72459368D01*
X80194632Y-72252525D01*
X80012466Y-72130805D01*
X80129355Y-72061178D01*
X80345588Y-71866269D01*
X80519641Y-71632920D01*
X80644825Y-71370099D01*
X80689476Y-71222890D01*
X80568155Y-70993000D01*
X79375000Y-70993000D01*
X79375000Y-71013000D01*
X79121000Y-71013000D01*
X79121000Y-70993000D01*
X77927845Y-70993000D01*
X77806524Y-71222890D01*
X77851175Y-71370099D01*
X77976359Y-71632920D01*
X78150412Y-71866269D01*
X78366645Y-72061178D01*
X78483534Y-72130805D01*
X78301368Y-72252525D01*
X78094525Y-72459368D01*
X77932010Y-72702589D01*
X77820068Y-72972842D01*
X77763000Y-73259740D01*
X77763000Y-73552260D01*
X77820068Y-73839158D01*
X77932010Y-74109411D01*
X78094525Y-74352632D01*
X78226380Y-74484487D01*
X78153820Y-74506498D01*
X78043506Y-74565463D01*
X77946815Y-74644815D01*
X77867463Y-74741506D01*
X77808498Y-74851820D01*
X77772188Y-74971518D01*
X77759928Y-75096000D01*
X77355700Y-75096000D01*
X77355700Y-68179740D01*
X77763000Y-68179740D01*
X77763000Y-68472260D01*
X77820068Y-68759158D01*
X77932010Y-69029411D01*
X78094525Y-69272632D01*
X78301368Y-69479475D01*
X78483534Y-69601195D01*
X78366645Y-69670822D01*
X78150412Y-69865731D01*
X77976359Y-70099080D01*
X77851175Y-70361901D01*
X77806524Y-70509110D01*
X77927845Y-70739000D01*
X79121000Y-70739000D01*
X79121000Y-70719000D01*
X79375000Y-70719000D01*
X79375000Y-70739000D01*
X80568155Y-70739000D01*
X80689476Y-70509110D01*
X80644825Y-70361901D01*
X80519641Y-70099080D01*
X80345588Y-69865731D01*
X80129355Y-69670822D01*
X80012466Y-69601195D01*
X80194632Y-69479475D01*
X80401475Y-69272632D01*
X80563990Y-69029411D01*
X80675932Y-68759158D01*
X80733000Y-68472260D01*
X80733000Y-68179740D01*
X80675932Y-67892842D01*
X80563990Y-67622589D01*
X80401475Y-67379368D01*
X80194632Y-67172525D01*
X79951411Y-67010010D01*
X79681158Y-66898068D01*
X79394260Y-66841000D01*
X79101740Y-66841000D01*
X78814842Y-66898068D01*
X78544589Y-67010010D01*
X78301368Y-67172525D01*
X78094525Y-67379368D01*
X77932010Y-67622589D01*
X77820068Y-67892842D01*
X77763000Y-68179740D01*
X77355700Y-68179740D01*
X77355700Y-54776000D01*
X77759928Y-54776000D01*
X77759928Y-56476000D01*
X77772188Y-56600482D01*
X77808498Y-56720180D01*
X77867463Y-56830494D01*
X77946815Y-56927185D01*
X78043506Y-57006537D01*
X78153820Y-57065502D01*
X78273518Y-57101812D01*
X78398000Y-57114072D01*
X79478837Y-57114072D01*
X83322870Y-60958106D01*
X83332774Y-61007898D01*
X83410795Y-61196256D01*
X83524063Y-61365774D01*
X83668226Y-61509937D01*
X83837744Y-61623205D01*
X84026102Y-61701226D01*
X84226061Y-61741000D01*
X84429939Y-61741000D01*
X84629898Y-61701226D01*
X84818256Y-61623205D01*
X84987774Y-61509937D01*
X85131937Y-61365774D01*
X85245205Y-61196256D01*
X85323226Y-61007898D01*
X85363000Y-60807939D01*
X85363000Y-60604061D01*
X85323226Y-60404102D01*
X85245205Y-60215744D01*
X85131937Y-60046226D01*
X84987774Y-59902063D01*
X84818256Y-59788795D01*
X84629898Y-59710774D01*
X84580106Y-59700870D01*
X80736072Y-55856837D01*
X80736072Y-55524061D01*
X108693000Y-55524061D01*
X108693000Y-55727939D01*
X108732774Y-55927898D01*
X108810795Y-56116256D01*
X108924063Y-56285774D01*
X109068226Y-56429937D01*
X109237744Y-56543205D01*
X109426102Y-56621226D01*
X109626061Y-56661000D01*
X109829939Y-56661000D01*
X110029898Y-56621226D01*
X110218256Y-56543205D01*
X110387774Y-56429937D01*
X110531937Y-56285774D01*
X110645205Y-56116256D01*
X110723226Y-55927898D01*
X110733130Y-55878105D01*
X113365649Y-53245587D01*
X113261525Y-53442890D01*
X113306176Y-53590099D01*
X113431360Y-53852920D01*
X113605413Y-54086269D01*
X113821646Y-54281178D01*
X113938535Y-54350805D01*
X113756369Y-54472525D01*
X113549526Y-54679368D01*
X113387011Y-54922589D01*
X113275069Y-55192842D01*
X113218001Y-55479740D01*
X113218001Y-55772260D01*
X113275069Y-56059158D01*
X113387011Y-56329411D01*
X113549526Y-56572632D01*
X113756369Y-56779475D01*
X113999590Y-56941990D01*
X114269843Y-57053932D01*
X114556741Y-57111000D01*
X114849261Y-57111000D01*
X115136159Y-57053932D01*
X115406412Y-56941990D01*
X115649633Y-56779475D01*
X115856476Y-56572632D01*
X116018991Y-56329411D01*
X116130933Y-56059158D01*
X116188001Y-55772260D01*
X116188001Y-55479740D01*
X116130933Y-55192842D01*
X116018991Y-54922589D01*
X115856476Y-54679368D01*
X115649633Y-54472525D01*
X115467467Y-54350805D01*
X115584356Y-54281178D01*
X115800589Y-54086269D01*
X115974642Y-53852920D01*
X116099826Y-53590099D01*
X116144477Y-53442890D01*
X116023156Y-53213000D01*
X114830001Y-53213000D01*
X114830001Y-53233000D01*
X114576001Y-53233000D01*
X114576001Y-53213000D01*
X114556001Y-53213000D01*
X114556001Y-52959000D01*
X114576001Y-52959000D01*
X114576001Y-52939000D01*
X114830001Y-52939000D01*
X114830001Y-52959000D01*
X116023156Y-52959000D01*
X116144477Y-52729110D01*
X116099826Y-52581901D01*
X115974642Y-52319080D01*
X115800589Y-52085731D01*
X115584356Y-51890822D01*
X115467467Y-51821195D01*
X115649633Y-51699475D01*
X115856476Y-51492632D01*
X116018991Y-51249411D01*
X116130933Y-50979158D01*
X116188001Y-50692260D01*
X116188001Y-50399740D01*
X116130933Y-50112842D01*
X116018991Y-49842589D01*
X115856476Y-49599368D01*
X115724621Y-49467513D01*
X115797181Y-49445502D01*
X115907495Y-49386537D01*
X116004186Y-49307185D01*
X116083538Y-49210494D01*
X116142503Y-49100180D01*
X116178813Y-48980482D01*
X116191073Y-48856000D01*
X116191073Y-47156000D01*
X116178813Y-47031518D01*
X116142503Y-46911820D01*
X116083538Y-46801506D01*
X116004186Y-46704815D01*
X115907495Y-46625463D01*
X115797181Y-46566498D01*
X115677483Y-46530188D01*
X115553001Y-46517928D01*
X113853001Y-46517928D01*
X113728519Y-46530188D01*
X113608821Y-46566498D01*
X113498507Y-46625463D01*
X113401816Y-46704815D01*
X113322464Y-46801506D01*
X113263499Y-46911820D01*
X113227189Y-47031518D01*
X113214929Y-47156000D01*
X113214929Y-48856000D01*
X113227189Y-48980482D01*
X113263499Y-49100180D01*
X113322464Y-49210494D01*
X113401816Y-49307185D01*
X113498507Y-49386537D01*
X113608821Y-49445502D01*
X113681381Y-49467513D01*
X113549526Y-49599368D01*
X113387011Y-49842589D01*
X113275069Y-50112842D01*
X113218001Y-50399740D01*
X113218001Y-50692260D01*
X113248944Y-50847820D01*
X109475895Y-54620870D01*
X109426102Y-54630774D01*
X109237744Y-54708795D01*
X109068226Y-54822063D01*
X108924063Y-54966226D01*
X108810795Y-55135744D01*
X108732774Y-55324102D01*
X108693000Y-55524061D01*
X80736072Y-55524061D01*
X80736072Y-54776000D01*
X80723812Y-54651518D01*
X80687502Y-54531820D01*
X80628537Y-54421506D01*
X80549185Y-54324815D01*
X80452494Y-54245463D01*
X80342180Y-54186498D01*
X80269620Y-54164487D01*
X80401475Y-54032632D01*
X80563990Y-53789411D01*
X80675932Y-53519158D01*
X80733000Y-53232260D01*
X80733000Y-52939740D01*
X80675932Y-52652842D01*
X80563990Y-52382589D01*
X80401475Y-52139368D01*
X80194632Y-51932525D01*
X80012466Y-51810805D01*
X80129355Y-51741178D01*
X80345588Y-51546269D01*
X80519641Y-51312920D01*
X80644825Y-51050099D01*
X80689476Y-50902890D01*
X80568155Y-50673000D01*
X79375000Y-50673000D01*
X79375000Y-50693000D01*
X79121000Y-50693000D01*
X79121000Y-50673000D01*
X77927845Y-50673000D01*
X77806524Y-50902890D01*
X77851175Y-51050099D01*
X77976359Y-51312920D01*
X78150412Y-51546269D01*
X78366645Y-51741178D01*
X78483534Y-51810805D01*
X78301368Y-51932525D01*
X78094525Y-52139368D01*
X77932010Y-52382589D01*
X77820068Y-52652842D01*
X77763000Y-52939740D01*
X77763000Y-53232260D01*
X77820068Y-53519158D01*
X77932010Y-53789411D01*
X78094525Y-54032632D01*
X78226380Y-54164487D01*
X78153820Y-54186498D01*
X78043506Y-54245463D01*
X77946815Y-54324815D01*
X77867463Y-54421506D01*
X77808498Y-54531820D01*
X77772188Y-54651518D01*
X77759928Y-54776000D01*
X77355700Y-54776000D01*
X77355700Y-47859740D01*
X77763000Y-47859740D01*
X77763000Y-48152260D01*
X77820068Y-48439158D01*
X77932010Y-48709411D01*
X78094525Y-48952632D01*
X78301368Y-49159475D01*
X78483534Y-49281195D01*
X78366645Y-49350822D01*
X78150412Y-49545731D01*
X77976359Y-49779080D01*
X77851175Y-50041901D01*
X77806524Y-50189110D01*
X77927845Y-50419000D01*
X79121000Y-50419000D01*
X79121000Y-50399000D01*
X79375000Y-50399000D01*
X79375000Y-50419000D01*
X80568155Y-50419000D01*
X80689476Y-50189110D01*
X80644825Y-50041901D01*
X80519641Y-49779080D01*
X80345588Y-49545731D01*
X80129355Y-49350822D01*
X80012466Y-49281195D01*
X80194632Y-49159475D01*
X80401475Y-48952632D01*
X80563990Y-48709411D01*
X80675932Y-48439158D01*
X80733000Y-48152260D01*
X80733000Y-47859740D01*
X80675932Y-47572842D01*
X80563990Y-47302589D01*
X80401475Y-47059368D01*
X80194632Y-46852525D01*
X79951411Y-46690010D01*
X79681158Y-46578068D01*
X79394260Y-46521000D01*
X79101740Y-46521000D01*
X78814842Y-46578068D01*
X78544589Y-46690010D01*
X78301368Y-46852525D01*
X78094525Y-47059368D01*
X77932010Y-47302589D01*
X77820068Y-47572842D01*
X77763000Y-47859740D01*
X77355700Y-47859740D01*
X77355700Y-44034967D01*
X97953000Y-44034967D01*
X97953000Y-44357033D01*
X98015832Y-44672912D01*
X98139082Y-44970463D01*
X98318013Y-45238252D01*
X98545748Y-45465987D01*
X98813537Y-45644918D01*
X99111088Y-45768168D01*
X99426967Y-45831000D01*
X99749033Y-45831000D01*
X100064912Y-45768168D01*
X100362463Y-45644918D01*
X100630252Y-45465987D01*
X100857987Y-45238252D01*
X101036918Y-44970463D01*
X101160168Y-44672912D01*
X101223000Y-44357033D01*
X101223000Y-44034967D01*
X101160168Y-43719088D01*
X101036918Y-43421537D01*
X100886219Y-43196000D01*
X105549928Y-43196000D01*
X105549928Y-45196000D01*
X105562188Y-45320482D01*
X105598498Y-45440180D01*
X105657463Y-45550494D01*
X105736815Y-45647185D01*
X105833506Y-45726537D01*
X105943820Y-45785502D01*
X106063518Y-45821812D01*
X106188000Y-45834072D01*
X108188000Y-45834072D01*
X108312482Y-45821812D01*
X108432180Y-45785502D01*
X108542494Y-45726537D01*
X108639185Y-45647185D01*
X108718537Y-45550494D01*
X108777502Y-45440180D01*
X108813812Y-45320482D01*
X108826072Y-45196000D01*
X108826072Y-43196000D01*
X108813812Y-43071518D01*
X108777502Y-42951820D01*
X108718537Y-42841506D01*
X108639185Y-42744815D01*
X108542494Y-42665463D01*
X108432180Y-42606498D01*
X108312482Y-42570188D01*
X108188000Y-42557928D01*
X106188000Y-42557928D01*
X106063518Y-42570188D01*
X105943820Y-42606498D01*
X105833506Y-42665463D01*
X105736815Y-42744815D01*
X105657463Y-42841506D01*
X105598498Y-42951820D01*
X105562188Y-43071518D01*
X105549928Y-43196000D01*
X100886219Y-43196000D01*
X100857987Y-43153748D01*
X100630252Y-42926013D01*
X100362463Y-42747082D01*
X100064912Y-42623832D01*
X99749033Y-42561000D01*
X99426967Y-42561000D01*
X99111088Y-42623832D01*
X98813537Y-42747082D01*
X98545748Y-42926013D01*
X98318013Y-43153748D01*
X98139082Y-43421537D01*
X98015832Y-43719088D01*
X97953000Y-44034967D01*
X77355700Y-44034967D01*
X77355700Y-41286101D01*
X77539161Y-41560670D01*
X78073330Y-42094839D01*
X78701446Y-42514533D01*
X79399372Y-42803623D01*
X80140285Y-42951000D01*
X80895715Y-42951000D01*
X81636628Y-42803623D01*
X82334554Y-42514533D01*
X82962670Y-42094839D01*
X83496839Y-41560670D01*
X83916533Y-40932554D01*
X84205623Y-40234628D01*
X84353000Y-39493715D01*
X84353000Y-38738285D01*
X84205623Y-37997372D01*
X83916533Y-37299446D01*
X83496839Y-36671330D01*
X82962670Y-36137161D01*
X82688101Y-35953700D01*
X111367899Y-35953700D01*
X111093330Y-36137161D01*
%TA.AperFunction,Conductor*%
D23*
G36*
X111093330Y-36137161D02*
G01*
X110559161Y-36671330D01*
X110139467Y-37299446D01*
X109850377Y-37997372D01*
X109703000Y-38738285D01*
X109703000Y-39493715D01*
X109850377Y-40234628D01*
X110139467Y-40932554D01*
X110559161Y-41560670D01*
X111093330Y-42094839D01*
X111721446Y-42514533D01*
X112419372Y-42803623D01*
X113160285Y-42951000D01*
X113915715Y-42951000D01*
X114656628Y-42803623D01*
X115354554Y-42514533D01*
X115982670Y-42094839D01*
X116516839Y-41560670D01*
X116700300Y-41286101D01*
X116700301Y-53054182D01*
X116700300Y-53054192D01*
X116700301Y-55594182D01*
X116700300Y-55594192D01*
X116700301Y-116554182D01*
X116700300Y-116554192D01*
X116700301Y-119495900D01*
X116516839Y-119221330D01*
X115982670Y-118687161D01*
X115354554Y-118267467D01*
X114656628Y-117978377D01*
X113915715Y-117831000D01*
X113160285Y-117831000D01*
X112419372Y-117978377D01*
X111721446Y-118267467D01*
X111093330Y-118687161D01*
X110559161Y-119221330D01*
X110139467Y-119849446D01*
X109850377Y-120547372D01*
X109703000Y-121288285D01*
X109703000Y-122043715D01*
X109850377Y-122784628D01*
X110139467Y-123482554D01*
X110559161Y-124110670D01*
X111093330Y-124644839D01*
X111367899Y-124828300D01*
X82688101Y-124828300D01*
X82962670Y-124644839D01*
X83496839Y-124110670D01*
X83916533Y-123482554D01*
X84205623Y-122784628D01*
X84353000Y-122043715D01*
X84353000Y-121288285D01*
X84205623Y-120547372D01*
X83916533Y-119849446D01*
X83496839Y-119221330D01*
X83241923Y-118966414D01*
X97342192Y-118966414D01*
X97437956Y-119230815D01*
X97727571Y-119371705D01*
X98039108Y-119453385D01*
X98360595Y-119472719D01*
X98679675Y-119428962D01*
X98984088Y-119323796D01*
X99158044Y-119230815D01*
X99253808Y-118966414D01*
X98298000Y-118010606D01*
X97342192Y-118966414D01*
X83241923Y-118966414D01*
X82962670Y-118687161D01*
X82334554Y-118267467D01*
X81636628Y-117978377D01*
X81210406Y-117893596D01*
X96656282Y-117893596D01*
X96700039Y-118212676D01*
X96805205Y-118517089D01*
X96898186Y-118691045D01*
X97162587Y-118786809D01*
X98118395Y-117831001D01*
X98477605Y-117831001D01*
X99433413Y-118786809D01*
X99697814Y-118691045D01*
X99838704Y-118401430D01*
X99920384Y-118089893D01*
X99939718Y-117768406D01*
X99929647Y-117694967D01*
X101743000Y-117694967D01*
X101743000Y-118017033D01*
X101805832Y-118332912D01*
X101929082Y-118630463D01*
X102108013Y-118898252D01*
X102335748Y-119125987D01*
X102603537Y-119304918D01*
X102901088Y-119428168D01*
X103216967Y-119491000D01*
X103539033Y-119491000D01*
X103854912Y-119428168D01*
X104152463Y-119304918D01*
X104420252Y-119125987D01*
X104647987Y-118898252D01*
X104826918Y-118630463D01*
X104950168Y-118332912D01*
X105013000Y-118017033D01*
X105013000Y-117694967D01*
X104950168Y-117379088D01*
X104826918Y-117081537D01*
X104647987Y-116813748D01*
X104420252Y-116586013D01*
X104152463Y-116407082D01*
X103854912Y-116283832D01*
X103539033Y-116221000D01*
X103216967Y-116221000D01*
X102901088Y-116283832D01*
X102603537Y-116407082D01*
X102335748Y-116586013D01*
X102108013Y-116813748D01*
X101929082Y-117081537D01*
X101805832Y-117379088D01*
X101743000Y-117694967D01*
X99929647Y-117694967D01*
X99895961Y-117449326D01*
X99790795Y-117144913D01*
X99697814Y-116970957D01*
X99433413Y-116875193D01*
X98477605Y-117831001D01*
X98118395Y-117831001D01*
X97162587Y-116875193D01*
X96898186Y-116970957D01*
X96757296Y-117260572D01*
X96675616Y-117572109D01*
X96656282Y-117893596D01*
X81210406Y-117893596D01*
X80895715Y-117831000D01*
X80140285Y-117831000D01*
X79399372Y-117978377D01*
X78701446Y-118267467D01*
X78073330Y-118687161D01*
X77539161Y-119221330D01*
X77355700Y-119495899D01*
X77355700Y-116695588D01*
X97342192Y-116695588D01*
X98298000Y-117651396D01*
X99253808Y-116695588D01*
X99158044Y-116431187D01*
X98868429Y-116290297D01*
X98556892Y-116208617D01*
X98235405Y-116189283D01*
X97916325Y-116233040D01*
X97611912Y-116338206D01*
X97437956Y-116431187D01*
X97342192Y-116695588D01*
X77355700Y-116695588D01*
X77355700Y-112026967D01*
X94250000Y-112026967D01*
X94250000Y-112349033D01*
X94312832Y-112664912D01*
X94436082Y-112962463D01*
X94615013Y-113230252D01*
X94842748Y-113457987D01*
X95110537Y-113636918D01*
X95408088Y-113760168D01*
X95723967Y-113823000D01*
X96046033Y-113823000D01*
X96361912Y-113760168D01*
X96659463Y-113636918D01*
X96927252Y-113457987D01*
X97154987Y-113230252D01*
X97333918Y-112962463D01*
X97457168Y-112664912D01*
X97492364Y-112487967D01*
X101717600Y-112487967D01*
X101717600Y-112810033D01*
X101780432Y-113125912D01*
X101903682Y-113423463D01*
X102082613Y-113691252D01*
X102310348Y-113918987D01*
X102578137Y-114097918D01*
X102875688Y-114221168D01*
X103191567Y-114284000D01*
X103513633Y-114284000D01*
X103829512Y-114221168D01*
X104127063Y-114097918D01*
X104394852Y-113918987D01*
X104622587Y-113691252D01*
X104801518Y-113423463D01*
X104924768Y-113125912D01*
X104987600Y-112810033D01*
X104987600Y-112487967D01*
X104924768Y-112172088D01*
X104801518Y-111874537D01*
X104622587Y-111606748D01*
X104394852Y-111379013D01*
X104127063Y-111200082D01*
X103829512Y-111076832D01*
X103513633Y-111014000D01*
X103191567Y-111014000D01*
X102875688Y-111076832D01*
X102578137Y-111200082D01*
X102310348Y-111379013D01*
X102082613Y-111606748D01*
X101903682Y-111874537D01*
X101780432Y-112172088D01*
X101717600Y-112487967D01*
X97492364Y-112487967D01*
X97520000Y-112349033D01*
X97520000Y-112026967D01*
X97457168Y-111711088D01*
X97333918Y-111413537D01*
X97154987Y-111145748D01*
X96927252Y-110918013D01*
X96659463Y-110739082D01*
X96361912Y-110615832D01*
X96046033Y-110553000D01*
X95723967Y-110553000D01*
X95408088Y-110615832D01*
X95110537Y-110739082D01*
X94842748Y-110918013D01*
X94615013Y-111145748D01*
X94436082Y-111413537D01*
X94312832Y-111711088D01*
X94250000Y-112026967D01*
X77355700Y-112026967D01*
X77355700Y-108188000D01*
X94246928Y-108188000D01*
X94259188Y-108312482D01*
X94295498Y-108432180D01*
X94354463Y-108542494D01*
X94433815Y-108639185D01*
X94530506Y-108718537D01*
X94640820Y-108777502D01*
X94760518Y-108813812D01*
X94885000Y-108826072D01*
X95599250Y-108823000D01*
X95758000Y-108664250D01*
X95758000Y-107315000D01*
X96012000Y-107315000D01*
X96012000Y-108664250D01*
X96170750Y-108823000D01*
X96885000Y-108826072D01*
X97009482Y-108813812D01*
X97129180Y-108777502D01*
X97239494Y-108718537D01*
X97336185Y-108639185D01*
X97393784Y-108569000D01*
X101714528Y-108569000D01*
X101726788Y-108693482D01*
X101763098Y-108813180D01*
X101822063Y-108923494D01*
X101901415Y-109020185D01*
X101998106Y-109099537D01*
X102108420Y-109158502D01*
X102228118Y-109194812D01*
X102352600Y-109207072D01*
X103066850Y-109204000D01*
X103225600Y-109045250D01*
X103225600Y-107696000D01*
X103479600Y-107696000D01*
X103479600Y-109045250D01*
X103638350Y-109204000D01*
X104352600Y-109207072D01*
X104477082Y-109194812D01*
X104596780Y-109158502D01*
X104707094Y-109099537D01*
X104803785Y-109020185D01*
X104883137Y-108923494D01*
X104942102Y-108813180D01*
X104978412Y-108693482D01*
X104990672Y-108569000D01*
X104987600Y-107854750D01*
X104828850Y-107696000D01*
X103479600Y-107696000D01*
X103225600Y-107696000D01*
X101876350Y-107696000D01*
X101717600Y-107854750D01*
X101714528Y-108569000D01*
X97393784Y-108569000D01*
X97415537Y-108542494D01*
X97474502Y-108432180D01*
X97510812Y-108312482D01*
X97523072Y-108188000D01*
X97520000Y-107473750D01*
X97361250Y-107315000D01*
X96012000Y-107315000D01*
X95758000Y-107315000D01*
X94408750Y-107315000D01*
X94250000Y-107473750D01*
X94246928Y-108188000D01*
X77355700Y-108188000D01*
X77355700Y-106188000D01*
X94246928Y-106188000D01*
X94250000Y-106902250D01*
X94408750Y-107061000D01*
X95758000Y-107061000D01*
X95758000Y-105711750D01*
X96012000Y-105711750D01*
X96012000Y-107061000D01*
X97361250Y-107061000D01*
X97520000Y-106902250D01*
X97521433Y-106569000D01*
X101714528Y-106569000D01*
X101717600Y-107283250D01*
X101876350Y-107442000D01*
X103225600Y-107442000D01*
X103225600Y-106092750D01*
X103479600Y-106092750D01*
X103479600Y-107442000D01*
X104828850Y-107442000D01*
X104987600Y-107283250D01*
X104990672Y-106569000D01*
X104978412Y-106444518D01*
X104942102Y-106324820D01*
X104883137Y-106214506D01*
X104803785Y-106117815D01*
X104707094Y-106038463D01*
X104596780Y-105979498D01*
X104477082Y-105943188D01*
X104352600Y-105930928D01*
X103638350Y-105934000D01*
X103479600Y-106092750D01*
X103225600Y-106092750D01*
X103066850Y-105934000D01*
X102352600Y-105930928D01*
X102228118Y-105943188D01*
X102108420Y-105979498D01*
X101998106Y-106038463D01*
X101901415Y-106117815D01*
X101822063Y-106214506D01*
X101763098Y-106324820D01*
X101726788Y-106444518D01*
X101714528Y-106569000D01*
X97521433Y-106569000D01*
X97523072Y-106188000D01*
X97510812Y-106063518D01*
X97474502Y-105943820D01*
X97415537Y-105833506D01*
X97336185Y-105736815D01*
X97239494Y-105657463D01*
X97129180Y-105598498D01*
X97009482Y-105562188D01*
X96885000Y-105549928D01*
X96170750Y-105553000D01*
X96012000Y-105711750D01*
X95758000Y-105711750D01*
X95599250Y-105553000D01*
X94885000Y-105549928D01*
X94760518Y-105562188D01*
X94640820Y-105598498D01*
X94530506Y-105657463D01*
X94433815Y-105736815D01*
X94354463Y-105833506D01*
X94295498Y-105943820D01*
X94259188Y-106063518D01*
X94246928Y-106188000D01*
X77355700Y-106188000D01*
X77355700Y-103910000D01*
X108629928Y-103910000D01*
X108629928Y-106910000D01*
X108671010Y-107327117D01*
X108792679Y-107728205D01*
X108990258Y-108097849D01*
X109256155Y-108421845D01*
X109580151Y-108687742D01*
X109949795Y-108885321D01*
X110350883Y-109006990D01*
X110768000Y-109048072D01*
X111542626Y-109048072D01*
X111207710Y-109114691D01*
X110546182Y-109388705D01*
X109950823Y-109786511D01*
X109444511Y-110292823D01*
X109046705Y-110888182D01*
X108772691Y-111549710D01*
X108633000Y-112251984D01*
X108633000Y-112968016D01*
X108772691Y-113670290D01*
X109046705Y-114331818D01*
X109444511Y-114927177D01*
X109950823Y-115433489D01*
X110546182Y-115831295D01*
X111207710Y-116105309D01*
X111909984Y-116245000D01*
X112626016Y-116245000D01*
X113328290Y-116105309D01*
X113989818Y-115831295D01*
X114585177Y-115433489D01*
X115091489Y-114927177D01*
X115489295Y-114331818D01*
X115763309Y-113670290D01*
X115903000Y-112968016D01*
X115903000Y-112251984D01*
X115763309Y-111549710D01*
X115489295Y-110888182D01*
X115091489Y-110292823D01*
X114585177Y-109786511D01*
X113989818Y-109388705D01*
X113328290Y-109114691D01*
X112993374Y-109048072D01*
X113768000Y-109048072D01*
X114185117Y-109006990D01*
X114586205Y-108885321D01*
X114955849Y-108687742D01*
X115279845Y-108421845D01*
X115545742Y-108097849D01*
X115743321Y-107728205D01*
X115864990Y-107327117D01*
X115906072Y-106910000D01*
X115906072Y-103910000D01*
X115864990Y-103492883D01*
X115743321Y-103091795D01*
X115545742Y-102722151D01*
X115279845Y-102398155D01*
X114955849Y-102132258D01*
X114586205Y-101934679D01*
X114185117Y-101813010D01*
X113768000Y-101771928D01*
X110768000Y-101771928D01*
X110350883Y-101813010D01*
X109949795Y-101934679D01*
X109580151Y-102132258D01*
X109256155Y-102398155D01*
X108990258Y-102722151D01*
X108792679Y-103091795D01*
X108671010Y-103492883D01*
X108629928Y-103910000D01*
X77355700Y-103910000D01*
X77355700Y-95416000D01*
X77759928Y-95416000D01*
X77759928Y-97116000D01*
X77772188Y-97240482D01*
X77808498Y-97360180D01*
X77867463Y-97470494D01*
X77946815Y-97567185D01*
X78043506Y-97646537D01*
X78153820Y-97705502D01*
X78273518Y-97741812D01*
X78398000Y-97754072D01*
X80098000Y-97754072D01*
X80222482Y-97741812D01*
X80342180Y-97705502D01*
X80452494Y-97646537D01*
X80549185Y-97567185D01*
X80628537Y-97470494D01*
X80687502Y-97360180D01*
X80723812Y-97240482D01*
X80736072Y-97116000D01*
X80736072Y-95416000D01*
X80723812Y-95291518D01*
X80687502Y-95171820D01*
X80628537Y-95061506D01*
X80549185Y-94964815D01*
X80452494Y-94885463D01*
X80342180Y-94826498D01*
X80269620Y-94804487D01*
X80401475Y-94672632D01*
X80439983Y-94615000D01*
X84968418Y-94615000D01*
X85012078Y-94619300D01*
X85055738Y-94615000D01*
X85055745Y-94615000D01*
X85186352Y-94602136D01*
X85353929Y-94551303D01*
X85508369Y-94468753D01*
X85593490Y-94398896D01*
X85596320Y-94405727D01*
X85753363Y-94640759D01*
X85953241Y-94840637D01*
X86185759Y-94996000D01*
X85953241Y-95151363D01*
X85753363Y-95351241D01*
X85596320Y-95586273D01*
X85488147Y-95847426D01*
X85433000Y-96124665D01*
X85433000Y-96407335D01*
X85488147Y-96684574D01*
X85596320Y-96945727D01*
X85753363Y-97180759D01*
X85953241Y-97380637D01*
X86188273Y-97537680D01*
X86449426Y-97645853D01*
X86726665Y-97701000D01*
X87009335Y-97701000D01*
X87286574Y-97645853D01*
X87547727Y-97537680D01*
X87782759Y-97380637D01*
X87982637Y-97180759D01*
X88139680Y-96945727D01*
X88247853Y-96684574D01*
X88303000Y-96407335D01*
X88303000Y-96124665D01*
X88247853Y-95847426D01*
X88139680Y-95586273D01*
X87982637Y-95351241D01*
X87782759Y-95151363D01*
X87550241Y-94996000D01*
X87782759Y-94840637D01*
X87982637Y-94640759D01*
X88139680Y-94405727D01*
X88247853Y-94144574D01*
X88303000Y-93867335D01*
X88303000Y-93584665D01*
X88282678Y-93482499D01*
X88439898Y-93451226D01*
X88628256Y-93373205D01*
X88797774Y-93259937D01*
X88941937Y-93115774D01*
X89055205Y-92946256D01*
X89133226Y-92757898D01*
X89173000Y-92557939D01*
X89173000Y-92354061D01*
X89133226Y-92154102D01*
X89055205Y-91965744D01*
X88941937Y-91796226D01*
X88797774Y-91652063D01*
X88628256Y-91538795D01*
X88439898Y-91460774D01*
X88282678Y-91429501D01*
X88303000Y-91327335D01*
X88303000Y-91044665D01*
X88247853Y-90767426D01*
X88139680Y-90506273D01*
X87982637Y-90271241D01*
X87782759Y-90071363D01*
X87550241Y-89916000D01*
X87782759Y-89760637D01*
X87982637Y-89560759D01*
X88139680Y-89325727D01*
X88247853Y-89064574D01*
X88303000Y-88787335D01*
X88303000Y-88504665D01*
X88247853Y-88227426D01*
X88139680Y-87966273D01*
X87982637Y-87731241D01*
X87782759Y-87531363D01*
X87550241Y-87376000D01*
X87782759Y-87220637D01*
X87982637Y-87020759D01*
X88139680Y-86785727D01*
X88247853Y-86524574D01*
X88303000Y-86247335D01*
X88303000Y-85964665D01*
X88247853Y-85687426D01*
X88139680Y-85426273D01*
X87982637Y-85191241D01*
X87782759Y-84991363D01*
X87550241Y-84836000D01*
X87782759Y-84680637D01*
X87982637Y-84480759D01*
X88139680Y-84245727D01*
X88247853Y-83984574D01*
X88303000Y-83707335D01*
X88303000Y-83424665D01*
X88247853Y-83147426D01*
X88139680Y-82886273D01*
X87982637Y-82651241D01*
X87782759Y-82451363D01*
X87550241Y-82296000D01*
X87782759Y-82140637D01*
X87982637Y-81940759D01*
X88139680Y-81705727D01*
X88247853Y-81444574D01*
X88303000Y-81167335D01*
X88303000Y-80884665D01*
X88247853Y-80607426D01*
X88139680Y-80346273D01*
X87982637Y-80111241D01*
X87782759Y-79911363D01*
X87550241Y-79756000D01*
X87782759Y-79600637D01*
X87982637Y-79400759D01*
X88139680Y-79165727D01*
X88247853Y-78904574D01*
X88303000Y-78627335D01*
X88303000Y-78344665D01*
X88247853Y-78067426D01*
X88139680Y-77806273D01*
X87982637Y-77571241D01*
X87782759Y-77371363D01*
X87550241Y-77216000D01*
X87782759Y-77060637D01*
X87982637Y-76860759D01*
X88139680Y-76625727D01*
X88247853Y-76364574D01*
X88303000Y-76087335D01*
X88303000Y-75804665D01*
X88247853Y-75527426D01*
X88139680Y-75266273D01*
X87982637Y-75031241D01*
X87782759Y-74831363D01*
X87550241Y-74676000D01*
X87782759Y-74520637D01*
X87982637Y-74320759D01*
X88139680Y-74085727D01*
X88247853Y-73824574D01*
X88303000Y-73547335D01*
X88303000Y-73264665D01*
X88247853Y-72987426D01*
X88139680Y-72726273D01*
X87982637Y-72491241D01*
X87782759Y-72291363D01*
X87550241Y-72136000D01*
X87782759Y-71980637D01*
X87982637Y-71780759D01*
X88139680Y-71545727D01*
X88247853Y-71284574D01*
X88303000Y-71007335D01*
X88303000Y-70724665D01*
X88247853Y-70447426D01*
X88139680Y-70186273D01*
X87982637Y-69951241D01*
X87782759Y-69751363D01*
X87550241Y-69596000D01*
X87782759Y-69440637D01*
X87982637Y-69240759D01*
X88139680Y-69005727D01*
X88247853Y-68744574D01*
X88303000Y-68467335D01*
X88303000Y-68184665D01*
X105753000Y-68184665D01*
X105753000Y-68467335D01*
X105808147Y-68744574D01*
X105916320Y-69005727D01*
X106073363Y-69240759D01*
X106273241Y-69440637D01*
X106505759Y-69596000D01*
X106273241Y-69751363D01*
X106073363Y-69951241D01*
X105916320Y-70186273D01*
X105808147Y-70447426D01*
X105753000Y-70724665D01*
X105753000Y-71007335D01*
X105808147Y-71284574D01*
X105916320Y-71545727D01*
X106073363Y-71780759D01*
X106273241Y-71980637D01*
X106505759Y-72136000D01*
X106273241Y-72291363D01*
X106073363Y-72491241D01*
X105916320Y-72726273D01*
X105808147Y-72987426D01*
X105753000Y-73264665D01*
X105753000Y-73547335D01*
X105808147Y-73824574D01*
X105916320Y-74085727D01*
X106073363Y-74320759D01*
X106273241Y-74520637D01*
X106505759Y-74676000D01*
X106273241Y-74831363D01*
X106073363Y-75031241D01*
X105916320Y-75266273D01*
X105808147Y-75527426D01*
X105753000Y-75804665D01*
X105753000Y-76087335D01*
X105808147Y-76364574D01*
X105916320Y-76625727D01*
X106073363Y-76860759D01*
X106273241Y-77060637D01*
X106505759Y-77216000D01*
X106273241Y-77371363D01*
X106073363Y-77571241D01*
X105916320Y-77806273D01*
X105808147Y-78067426D01*
X105753000Y-78344665D01*
X105753000Y-78627335D01*
X105808147Y-78904574D01*
X105916320Y-79165727D01*
X106073363Y-79400759D01*
X106273241Y-79600637D01*
X106505759Y-79756000D01*
X106273241Y-79911363D01*
X106073363Y-80111241D01*
X105916320Y-80346273D01*
X105808147Y-80607426D01*
X105753000Y-80884665D01*
X105753000Y-81167335D01*
X105808147Y-81444574D01*
X105916320Y-81705727D01*
X106073363Y-81940759D01*
X106273241Y-82140637D01*
X106505759Y-82296000D01*
X106273241Y-82451363D01*
X106073363Y-82651241D01*
X105916320Y-82886273D01*
X105808147Y-83147426D01*
X105753000Y-83424665D01*
X105753000Y-83707335D01*
X105808147Y-83984574D01*
X105916320Y-84245727D01*
X106073363Y-84480759D01*
X106273241Y-84680637D01*
X106505759Y-84836000D01*
X106273241Y-84991363D01*
X106073363Y-85191241D01*
X105916320Y-85426273D01*
X105808147Y-85687426D01*
X105753000Y-85964665D01*
X105753000Y-86247335D01*
X105808147Y-86524574D01*
X105916320Y-86785727D01*
X106073363Y-87020759D01*
X106273241Y-87220637D01*
X106505759Y-87376000D01*
X106273241Y-87531363D01*
X106073363Y-87731241D01*
X105916320Y-87966273D01*
X105808147Y-88227426D01*
X105753000Y-88504665D01*
X105753000Y-88787335D01*
X105808147Y-89064574D01*
X105916320Y-89325727D01*
X106073363Y-89560759D01*
X106273241Y-89760637D01*
X106505759Y-89916000D01*
X106273241Y-90071363D01*
X106073363Y-90271241D01*
X105916320Y-90506273D01*
X105808147Y-90767426D01*
X105753000Y-91044665D01*
X105753000Y-91327335D01*
X105808147Y-91604574D01*
X105916320Y-91865727D01*
X106073363Y-92100759D01*
X106273241Y-92300637D01*
X106505759Y-92456000D01*
X106273241Y-92611363D01*
X106073363Y-92811241D01*
X105916320Y-93046273D01*
X105808147Y-93307426D01*
X105753000Y-93584665D01*
X105753000Y-93867335D01*
X105808147Y-94144574D01*
X105916320Y-94405727D01*
X106073363Y-94640759D01*
X106273241Y-94840637D01*
X106505759Y-94996000D01*
X106273241Y-95151363D01*
X106073363Y-95351241D01*
X105916320Y-95586273D01*
X105808147Y-95847426D01*
X105753000Y-96124665D01*
X105753000Y-96407335D01*
X105808147Y-96684574D01*
X105916320Y-96945727D01*
X106073363Y-97180759D01*
X106273241Y-97380637D01*
X106508273Y-97537680D01*
X106769426Y-97645853D01*
X107046665Y-97701000D01*
X107329335Y-97701000D01*
X107606574Y-97645853D01*
X107867727Y-97537680D01*
X108102759Y-97380637D01*
X108302637Y-97180759D01*
X108459680Y-96945727D01*
X108567853Y-96684574D01*
X108623000Y-96407335D01*
X108623000Y-96124665D01*
X108622021Y-96119740D01*
X113323000Y-96119740D01*
X113323000Y-96412260D01*
X113380068Y-96699158D01*
X113492010Y-96969411D01*
X113654525Y-97212632D01*
X113861368Y-97419475D01*
X114104589Y-97581990D01*
X114374842Y-97693932D01*
X114661740Y-97751000D01*
X114954260Y-97751000D01*
X115241158Y-97693932D01*
X115511411Y-97581990D01*
X115754632Y-97419475D01*
X115961475Y-97212632D01*
X116123990Y-96969411D01*
X116235932Y-96699158D01*
X116293000Y-96412260D01*
X116293000Y-96119740D01*
X116235932Y-95832842D01*
X116123990Y-95562589D01*
X115961475Y-95319368D01*
X115754632Y-95112525D01*
X115572466Y-94990805D01*
X115689355Y-94921178D01*
X115905588Y-94726269D01*
X116079641Y-94492920D01*
X116204825Y-94230099D01*
X116249476Y-94082890D01*
X116128155Y-93853000D01*
X114935000Y-93853000D01*
X114935000Y-93873000D01*
X114681000Y-93873000D01*
X114681000Y-93853000D01*
X113487845Y-93853000D01*
X113366524Y-94082890D01*
X113411175Y-94230099D01*
X113536359Y-94492920D01*
X113710412Y-94726269D01*
X113926645Y-94921178D01*
X114043534Y-94990805D01*
X113861368Y-95112525D01*
X113654525Y-95319368D01*
X113492010Y-95562589D01*
X113380068Y-95832842D01*
X113323000Y-96119740D01*
X108622021Y-96119740D01*
X108567853Y-95847426D01*
X108459680Y-95586273D01*
X108302637Y-95351241D01*
X108102759Y-95151363D01*
X107870241Y-94996000D01*
X108102759Y-94840637D01*
X108302637Y-94640759D01*
X108459680Y-94405727D01*
X108567853Y-94144574D01*
X108623000Y-93867335D01*
X108623000Y-93584665D01*
X108567853Y-93307426D01*
X108459680Y-93046273D01*
X108302637Y-92811241D01*
X108102759Y-92611363D01*
X107870241Y-92456000D01*
X108102759Y-92300637D01*
X108302637Y-92100759D01*
X108459680Y-91865727D01*
X108567853Y-91604574D01*
X108623000Y-91327335D01*
X108623000Y-91044665D01*
X108567853Y-90767426D01*
X108459680Y-90506273D01*
X108302637Y-90271241D01*
X108102759Y-90071363D01*
X107870241Y-89916000D01*
X108102759Y-89760637D01*
X108302637Y-89560759D01*
X108319849Y-89535000D01*
X113323769Y-89535000D01*
X113332188Y-89620482D01*
X113368498Y-89740180D01*
X113427463Y-89850494D01*
X113506815Y-89947185D01*
X113603506Y-90026537D01*
X113713820Y-90085502D01*
X113786380Y-90107513D01*
X113654525Y-90239368D01*
X113492010Y-90482589D01*
X113380068Y-90752842D01*
X113323000Y-91039740D01*
X113323000Y-91332260D01*
X113380068Y-91619158D01*
X113492010Y-91889411D01*
X113654525Y-92132632D01*
X113861368Y-92339475D01*
X114043534Y-92461195D01*
X113926645Y-92530822D01*
X113710412Y-92725731D01*
X113536359Y-92959080D01*
X113411175Y-93221901D01*
X113366524Y-93369110D01*
X113487845Y-93599000D01*
X114681000Y-93599000D01*
X114681000Y-93579000D01*
X114935000Y-93579000D01*
X114935000Y-93599000D01*
X116128155Y-93599000D01*
X116249476Y-93369110D01*
X116204825Y-93221901D01*
X116079641Y-92959080D01*
X115905588Y-92725731D01*
X115689355Y-92530822D01*
X115572466Y-92461195D01*
X115754632Y-92339475D01*
X115961475Y-92132632D01*
X116123990Y-91889411D01*
X116235932Y-91619158D01*
X116293000Y-91332260D01*
X116293000Y-91039740D01*
X116235932Y-90752842D01*
X116123990Y-90482589D01*
X115961475Y-90239368D01*
X115829620Y-90107513D01*
X115902180Y-90085502D01*
X116012494Y-90026537D01*
X116109185Y-89947185D01*
X116188537Y-89850494D01*
X116247502Y-89740180D01*
X116283812Y-89620482D01*
X116296072Y-89496000D01*
X116296072Y-87796000D01*
X116283812Y-87671518D01*
X116247502Y-87551820D01*
X116188537Y-87441506D01*
X116109185Y-87344815D01*
X116012494Y-87265463D01*
X115902180Y-87206498D01*
X115782482Y-87170188D01*
X115658000Y-87157928D01*
X113958000Y-87157928D01*
X113833518Y-87170188D01*
X113713820Y-87206498D01*
X113603506Y-87265463D01*
X113506815Y-87344815D01*
X113427463Y-87441506D01*
X113368498Y-87551820D01*
X113332188Y-87671518D01*
X113323769Y-87757000D01*
X108319849Y-87757000D01*
X108302637Y-87731241D01*
X108102759Y-87531363D01*
X107870241Y-87376000D01*
X108102759Y-87220637D01*
X108302637Y-87020759D01*
X108459680Y-86785727D01*
X108567853Y-86524574D01*
X108623000Y-86247335D01*
X108623000Y-85964665D01*
X108567853Y-85687426D01*
X108459680Y-85426273D01*
X108302637Y-85191241D01*
X108102759Y-84991363D01*
X107870241Y-84836000D01*
X108102759Y-84680637D01*
X108302637Y-84480759D01*
X108459680Y-84245727D01*
X108567853Y-83984574D01*
X108623000Y-83707335D01*
X108623000Y-83424665D01*
X108567853Y-83147426D01*
X108459680Y-82886273D01*
X108302637Y-82651241D01*
X108102759Y-82451363D01*
X107870241Y-82296000D01*
X108102759Y-82140637D01*
X108302637Y-81940759D01*
X108459680Y-81705727D01*
X108567853Y-81444574D01*
X108623000Y-81167335D01*
X108623000Y-80884665D01*
X108567853Y-80607426D01*
X108459680Y-80346273D01*
X108302637Y-80111241D01*
X108102759Y-79911363D01*
X107870241Y-79756000D01*
X108102759Y-79600637D01*
X108302637Y-79400759D01*
X108459680Y-79165727D01*
X108567853Y-78904574D01*
X108623000Y-78627335D01*
X108623000Y-78344665D01*
X108567853Y-78067426D01*
X108459680Y-77806273D01*
X108302637Y-77571241D01*
X108102759Y-77371363D01*
X107870241Y-77216000D01*
X108102759Y-77060637D01*
X108302637Y-76860759D01*
X108459680Y-76625727D01*
X108567853Y-76364574D01*
X108623000Y-76087335D01*
X108623000Y-75804665D01*
X108622021Y-75799740D01*
X113323000Y-75799740D01*
X113323000Y-76092260D01*
X113380068Y-76379158D01*
X113492010Y-76649411D01*
X113654525Y-76892632D01*
X113861368Y-77099475D01*
X114104589Y-77261990D01*
X114374842Y-77373932D01*
X114661740Y-77431000D01*
X114954260Y-77431000D01*
X115241158Y-77373932D01*
X115511411Y-77261990D01*
X115754632Y-77099475D01*
X115961475Y-76892632D01*
X116123990Y-76649411D01*
X116235932Y-76379158D01*
X116293000Y-76092260D01*
X116293000Y-75799740D01*
X116235932Y-75512842D01*
X116123990Y-75242589D01*
X115961475Y-74999368D01*
X115754632Y-74792525D01*
X115572466Y-74670805D01*
X115689355Y-74601178D01*
X115905588Y-74406269D01*
X116079641Y-74172920D01*
X116204825Y-73910099D01*
X116249476Y-73762890D01*
X116128155Y-73533000D01*
X114935000Y-73533000D01*
X114935000Y-73553000D01*
X114681000Y-73553000D01*
X114681000Y-73533000D01*
X113487845Y-73533000D01*
X113366524Y-73762890D01*
X113411175Y-73910099D01*
X113536359Y-74172920D01*
X113710412Y-74406269D01*
X113926645Y-74601178D01*
X114043534Y-74670805D01*
X113861368Y-74792525D01*
X113654525Y-74999368D01*
X113492010Y-75242589D01*
X113380068Y-75512842D01*
X113323000Y-75799740D01*
X108622021Y-75799740D01*
X108567853Y-75527426D01*
X108459680Y-75266273D01*
X108302637Y-75031241D01*
X108102759Y-74831363D01*
X107870241Y-74676000D01*
X108102759Y-74520637D01*
X108302637Y-74320759D01*
X108459680Y-74085727D01*
X108567853Y-73824574D01*
X108623000Y-73547335D01*
X108623000Y-73264665D01*
X108567853Y-72987426D01*
X108459680Y-72726273D01*
X108302637Y-72491241D01*
X108102759Y-72291363D01*
X107870241Y-72136000D01*
X108102759Y-71980637D01*
X108302637Y-71780759D01*
X108459680Y-71545727D01*
X108567853Y-71284574D01*
X108623000Y-71007335D01*
X108623000Y-70764061D01*
X108693000Y-70764061D01*
X108693000Y-70967939D01*
X108732774Y-71167898D01*
X108810795Y-71356256D01*
X108924063Y-71525774D01*
X109068226Y-71669937D01*
X109237744Y-71783205D01*
X109426102Y-71861226D01*
X109626061Y-71901000D01*
X109829939Y-71901000D01*
X110029898Y-71861226D01*
X110218256Y-71783205D01*
X110260468Y-71755000D01*
X113616017Y-71755000D01*
X113654525Y-71812632D01*
X113861368Y-72019475D01*
X114043534Y-72141195D01*
X113926645Y-72210822D01*
X113710412Y-72405731D01*
X113536359Y-72639080D01*
X113411175Y-72901901D01*
X113366524Y-73049110D01*
X113487845Y-73279000D01*
X114681000Y-73279000D01*
X114681000Y-73259000D01*
X114935000Y-73259000D01*
X114935000Y-73279000D01*
X116128155Y-73279000D01*
X116249476Y-73049110D01*
X116204825Y-72901901D01*
X116079641Y-72639080D01*
X115905588Y-72405731D01*
X115689355Y-72210822D01*
X115572466Y-72141195D01*
X115754632Y-72019475D01*
X115961475Y-71812632D01*
X116123990Y-71569411D01*
X116235932Y-71299158D01*
X116293000Y-71012260D01*
X116293000Y-70719740D01*
X116235932Y-70432842D01*
X116123990Y-70162589D01*
X115961475Y-69919368D01*
X115829620Y-69787513D01*
X115902180Y-69765502D01*
X116012494Y-69706537D01*
X116109185Y-69627185D01*
X116188537Y-69530494D01*
X116247502Y-69420180D01*
X116283812Y-69300482D01*
X116296072Y-69176000D01*
X116296072Y-67476000D01*
X116283812Y-67351518D01*
X116247502Y-67231820D01*
X116188537Y-67121506D01*
X116109185Y-67024815D01*
X116012494Y-66945463D01*
X115902180Y-66886498D01*
X115782482Y-66850188D01*
X115658000Y-66837928D01*
X113958000Y-66837928D01*
X113833518Y-66850188D01*
X113713820Y-66886498D01*
X113603506Y-66945463D01*
X113506815Y-67024815D01*
X113427463Y-67121506D01*
X113368498Y-67231820D01*
X113332188Y-67351518D01*
X113319928Y-67476000D01*
X113319928Y-69176000D01*
X113332188Y-69300482D01*
X113368498Y-69420180D01*
X113427463Y-69530494D01*
X113506815Y-69627185D01*
X113603506Y-69706537D01*
X113713820Y-69765502D01*
X113786380Y-69787513D01*
X113654525Y-69919368D01*
X113616017Y-69977000D01*
X110260468Y-69977000D01*
X110218256Y-69948795D01*
X110029898Y-69870774D01*
X109829939Y-69831000D01*
X109626061Y-69831000D01*
X109426102Y-69870774D01*
X109237744Y-69948795D01*
X109068226Y-70062063D01*
X108924063Y-70206226D01*
X108810795Y-70375744D01*
X108732774Y-70564102D01*
X108693000Y-70764061D01*
X108623000Y-70764061D01*
X108623000Y-70724665D01*
X108567853Y-70447426D01*
X108459680Y-70186273D01*
X108302637Y-69951241D01*
X108102759Y-69751363D01*
X107870241Y-69596000D01*
X108102759Y-69440637D01*
X108302637Y-69240759D01*
X108459680Y-69005727D01*
X108567853Y-68744574D01*
X108623000Y-68467335D01*
X108623000Y-68184665D01*
X108567853Y-67907426D01*
X108459680Y-67646273D01*
X108302637Y-67411241D01*
X108102759Y-67211363D01*
X107867727Y-67054320D01*
X107606574Y-66946147D01*
X107329335Y-66891000D01*
X107046665Y-66891000D01*
X106769426Y-66946147D01*
X106508273Y-67054320D01*
X106273241Y-67211363D01*
X106073363Y-67411241D01*
X105916320Y-67646273D01*
X105808147Y-67907426D01*
X105753000Y-68184665D01*
X88303000Y-68184665D01*
X88247853Y-67907426D01*
X88139680Y-67646273D01*
X87982637Y-67411241D01*
X87782759Y-67211363D01*
X87550241Y-67056000D01*
X87782759Y-66900637D01*
X87982637Y-66700759D01*
X88139680Y-66465727D01*
X88247853Y-66204574D01*
X88303000Y-65927335D01*
X88303000Y-65644665D01*
X88247853Y-65367426D01*
X88139680Y-65106273D01*
X87982637Y-64871241D01*
X87782759Y-64671363D01*
X87550241Y-64516000D01*
X87782759Y-64360637D01*
X87982637Y-64160759D01*
X88139680Y-63925727D01*
X88247853Y-63664574D01*
X88303000Y-63387335D01*
X88303000Y-63104665D01*
X88247853Y-62827426D01*
X88139680Y-62566273D01*
X87982637Y-62331241D01*
X87782759Y-62131363D01*
X87550241Y-61976000D01*
X87782759Y-61820637D01*
X87982637Y-61620759D01*
X88139680Y-61385727D01*
X88247853Y-61124574D01*
X88303000Y-60847335D01*
X88303000Y-60564665D01*
X88247853Y-60287426D01*
X88139680Y-60026273D01*
X87982637Y-59791241D01*
X87784039Y-59592643D01*
X87792482Y-59591812D01*
X87912180Y-59555502D01*
X88022494Y-59496537D01*
X88119185Y-59417185D01*
X88198537Y-59320494D01*
X88257502Y-59210180D01*
X88293812Y-59090482D01*
X88306072Y-58966000D01*
X88306072Y-57366000D01*
X88293812Y-57241518D01*
X88257502Y-57121820D01*
X88198537Y-57011506D01*
X88119185Y-56914815D01*
X88022494Y-56835463D01*
X87912180Y-56776498D01*
X87792482Y-56740188D01*
X87668000Y-56727928D01*
X86068000Y-56727928D01*
X85943518Y-56740188D01*
X85823820Y-56776498D01*
X85713506Y-56835463D01*
X85616815Y-56914815D01*
X85537463Y-57011506D01*
X85478498Y-57121820D01*
X85442188Y-57241518D01*
X85429928Y-57366000D01*
X85429928Y-58966000D01*
X85442188Y-59090482D01*
X85478498Y-59210180D01*
X85537463Y-59320494D01*
X85616815Y-59417185D01*
X85713506Y-59496537D01*
X85823820Y-59555502D01*
X85943518Y-59591812D01*
X85951961Y-59592643D01*
X85753363Y-59791241D01*
X85596320Y-60026273D01*
X85488147Y-60287426D01*
X85433000Y-60564665D01*
X85433000Y-60847335D01*
X85488147Y-61124574D01*
X85596320Y-61385727D01*
X85753363Y-61620759D01*
X85953241Y-61820637D01*
X86185759Y-61976000D01*
X85953241Y-62131363D01*
X85753363Y-62331241D01*
X85596320Y-62566273D01*
X85488147Y-62827426D01*
X85433000Y-63104665D01*
X85433000Y-63387335D01*
X85488147Y-63664574D01*
X85596320Y-63925727D01*
X85753363Y-64160759D01*
X85953241Y-64360637D01*
X86185759Y-64516000D01*
X85953241Y-64671363D01*
X85753363Y-64871241D01*
X85596320Y-65106273D01*
X85488147Y-65367426D01*
X85433000Y-65644665D01*
X85433000Y-65927335D01*
X85488147Y-66204574D01*
X85596320Y-66465727D01*
X85753363Y-66700759D01*
X85953241Y-66900637D01*
X86185759Y-67056000D01*
X85953241Y-67211363D01*
X85753363Y-67411241D01*
X85596320Y-67646273D01*
X85488147Y-67907426D01*
X85433000Y-68184665D01*
X85433000Y-68467335D01*
X85488147Y-68744574D01*
X85596320Y-69005727D01*
X85753363Y-69240759D01*
X85953241Y-69440637D01*
X86185759Y-69596000D01*
X85953241Y-69751363D01*
X85753363Y-69951241D01*
X85596320Y-70186273D01*
X85488147Y-70447426D01*
X85433000Y-70724665D01*
X85433000Y-71007335D01*
X85488147Y-71284574D01*
X85596320Y-71545727D01*
X85753363Y-71780759D01*
X85953241Y-71980637D01*
X86185759Y-72136000D01*
X85953241Y-72291363D01*
X85753363Y-72491241D01*
X85596320Y-72726273D01*
X85488147Y-72987426D01*
X85433000Y-73264665D01*
X85433000Y-73547335D01*
X85488147Y-73824574D01*
X85596320Y-74085727D01*
X85753363Y-74320759D01*
X85953241Y-74520637D01*
X86185759Y-74676000D01*
X85953241Y-74831363D01*
X85753363Y-75031241D01*
X85596320Y-75266273D01*
X85488147Y-75527426D01*
X85433000Y-75804665D01*
X85433000Y-76087335D01*
X85488147Y-76364574D01*
X85596320Y-76625727D01*
X85753363Y-76860759D01*
X85953241Y-77060637D01*
X86185759Y-77216000D01*
X85953241Y-77371363D01*
X85753363Y-77571241D01*
X85596320Y-77806273D01*
X85488147Y-78067426D01*
X85433000Y-78344665D01*
X85433000Y-78627335D01*
X85488147Y-78904574D01*
X85596320Y-79165727D01*
X85753363Y-79400759D01*
X85953241Y-79600637D01*
X86185759Y-79756000D01*
X85953241Y-79911363D01*
X85753363Y-80111241D01*
X85596320Y-80346273D01*
X85488147Y-80607426D01*
X85433000Y-80884665D01*
X85433000Y-81167335D01*
X85488147Y-81444574D01*
X85596320Y-81705727D01*
X85753363Y-81940759D01*
X85953241Y-82140637D01*
X86185759Y-82296000D01*
X85953241Y-82451363D01*
X85753363Y-82651241D01*
X85596320Y-82886273D01*
X85488147Y-83147426D01*
X85433000Y-83424665D01*
X85433000Y-83707335D01*
X85488147Y-83984574D01*
X85596320Y-84245727D01*
X85753363Y-84480759D01*
X85953241Y-84680637D01*
X86185759Y-84836000D01*
X85953241Y-84991363D01*
X85753363Y-85191241D01*
X85596320Y-85426273D01*
X85488147Y-85687426D01*
X85433000Y-85964665D01*
X85433000Y-86247335D01*
X85488147Y-86524574D01*
X85596320Y-86785727D01*
X85753363Y-87020759D01*
X85953241Y-87220637D01*
X86185759Y-87376000D01*
X85953241Y-87531363D01*
X85753363Y-87731241D01*
X85596320Y-87966273D01*
X85488147Y-88227426D01*
X85433000Y-88504665D01*
X85433000Y-88787335D01*
X85488147Y-89064574D01*
X85596320Y-89325727D01*
X85753363Y-89560759D01*
X85953241Y-89760637D01*
X86185759Y-89916000D01*
X85953241Y-90071363D01*
X85753363Y-90271241D01*
X85596320Y-90506273D01*
X85488147Y-90767426D01*
X85433000Y-91044665D01*
X85433000Y-91327335D01*
X85488147Y-91604574D01*
X85596320Y-91865727D01*
X85603848Y-91876994D01*
X84643843Y-92837000D01*
X80439983Y-92837000D01*
X80401475Y-92779368D01*
X80194632Y-92572525D01*
X80012466Y-92450805D01*
X80129355Y-92381178D01*
X80345588Y-92186269D01*
X80519641Y-91952920D01*
X80644825Y-91690099D01*
X80689476Y-91542890D01*
X80568155Y-91313000D01*
X79375000Y-91313000D01*
X79375000Y-91333000D01*
X79121000Y-91333000D01*
X79121000Y-91313000D01*
X77927845Y-91313000D01*
X77806524Y-91542890D01*
X77851175Y-91690099D01*
X77976359Y-91952920D01*
X78150412Y-92186269D01*
X78366645Y-92381178D01*
X78483534Y-92450805D01*
X78301368Y-92572525D01*
X78094525Y-92779368D01*
X77932010Y-93022589D01*
X77820068Y-93292842D01*
X77763000Y-93579740D01*
X77763000Y-93872260D01*
X77820068Y-94159158D01*
X77932010Y-94429411D01*
X78094525Y-94672632D01*
X78226380Y-94804487D01*
X78153820Y-94826498D01*
X78043506Y-94885463D01*
X77946815Y-94964815D01*
X77867463Y-95061506D01*
X77808498Y-95171820D01*
X77772188Y-95291518D01*
X77759928Y-95416000D01*
X77355700Y-95416000D01*
X77355700Y-88499740D01*
X77763000Y-88499740D01*
X77763000Y-88792260D01*
X77820068Y-89079158D01*
X77932010Y-89349411D01*
X78094525Y-89592632D01*
X78301368Y-89799475D01*
X78483534Y-89921195D01*
X78366645Y-89990822D01*
X78150412Y-90185731D01*
X77976359Y-90419080D01*
X77851175Y-90681901D01*
X77806524Y-90829110D01*
X77927845Y-91059000D01*
X79121000Y-91059000D01*
X79121000Y-91039000D01*
X79375000Y-91039000D01*
X79375000Y-91059000D01*
X80568155Y-91059000D01*
X80689476Y-90829110D01*
X80644825Y-90681901D01*
X80519641Y-90419080D01*
X80345588Y-90185731D01*
X80129355Y-89990822D01*
X80012466Y-89921195D01*
X80194632Y-89799475D01*
X80401475Y-89592632D01*
X80563990Y-89349411D01*
X80675932Y-89079158D01*
X80733000Y-88792260D01*
X80733000Y-88499740D01*
X80675932Y-88212842D01*
X80563990Y-87942589D01*
X80401475Y-87699368D01*
X80194632Y-87492525D01*
X79951411Y-87330010D01*
X79681158Y-87218068D01*
X79394260Y-87161000D01*
X79101740Y-87161000D01*
X78814842Y-87218068D01*
X78544589Y-87330010D01*
X78301368Y-87492525D01*
X78094525Y-87699368D01*
X77932010Y-87942589D01*
X77820068Y-88212842D01*
X77763000Y-88499740D01*
X77355700Y-88499740D01*
X77355700Y-75096000D01*
X77759928Y-75096000D01*
X77759928Y-76796000D01*
X77772188Y-76920482D01*
X77808498Y-77040180D01*
X77867463Y-77150494D01*
X77946815Y-77247185D01*
X78043506Y-77326537D01*
X78153820Y-77385502D01*
X78273518Y-77421812D01*
X78398000Y-77434072D01*
X80098000Y-77434072D01*
X80222482Y-77421812D01*
X80342180Y-77385502D01*
X80452494Y-77326537D01*
X80549185Y-77247185D01*
X80628537Y-77150494D01*
X80687502Y-77040180D01*
X80723812Y-76920482D01*
X80732231Y-76835000D01*
X83795532Y-76835000D01*
X83837744Y-76863205D01*
X84026102Y-76941226D01*
X84226061Y-76981000D01*
X84429939Y-76981000D01*
X84629898Y-76941226D01*
X84818256Y-76863205D01*
X84987774Y-76749937D01*
X85131937Y-76605774D01*
X85245205Y-76436256D01*
X85323226Y-76247898D01*
X85363000Y-76047939D01*
X85363000Y-75844061D01*
X85323226Y-75644102D01*
X85245205Y-75455744D01*
X85131937Y-75286226D01*
X84987774Y-75142063D01*
X84818256Y-75028795D01*
X84629898Y-74950774D01*
X84429939Y-74911000D01*
X84226061Y-74911000D01*
X84026102Y-74950774D01*
X83837744Y-75028795D01*
X83795532Y-75057000D01*
X80732231Y-75057000D01*
X80723812Y-74971518D01*
X80687502Y-74851820D01*
X80628537Y-74741506D01*
X80549185Y-74644815D01*
X80452494Y-74565463D01*
X80342180Y-74506498D01*
X80269620Y-74484487D01*
X80401475Y-74352632D01*
X80563990Y-74109411D01*
X80675932Y-73839158D01*
X80733000Y-73552260D01*
X80733000Y-73259740D01*
X80675932Y-72972842D01*
X80563990Y-72702589D01*
X80401475Y-72459368D01*
X80194632Y-72252525D01*
X80012466Y-72130805D01*
X80129355Y-72061178D01*
X80345588Y-71866269D01*
X80519641Y-71632920D01*
X80644825Y-71370099D01*
X80689476Y-71222890D01*
X80568155Y-70993000D01*
X79375000Y-70993000D01*
X79375000Y-71013000D01*
X79121000Y-71013000D01*
X79121000Y-70993000D01*
X77927845Y-70993000D01*
X77806524Y-71222890D01*
X77851175Y-71370099D01*
X77976359Y-71632920D01*
X78150412Y-71866269D01*
X78366645Y-72061178D01*
X78483534Y-72130805D01*
X78301368Y-72252525D01*
X78094525Y-72459368D01*
X77932010Y-72702589D01*
X77820068Y-72972842D01*
X77763000Y-73259740D01*
X77763000Y-73552260D01*
X77820068Y-73839158D01*
X77932010Y-74109411D01*
X78094525Y-74352632D01*
X78226380Y-74484487D01*
X78153820Y-74506498D01*
X78043506Y-74565463D01*
X77946815Y-74644815D01*
X77867463Y-74741506D01*
X77808498Y-74851820D01*
X77772188Y-74971518D01*
X77759928Y-75096000D01*
X77355700Y-75096000D01*
X77355700Y-68179740D01*
X77763000Y-68179740D01*
X77763000Y-68472260D01*
X77820068Y-68759158D01*
X77932010Y-69029411D01*
X78094525Y-69272632D01*
X78301368Y-69479475D01*
X78483534Y-69601195D01*
X78366645Y-69670822D01*
X78150412Y-69865731D01*
X77976359Y-70099080D01*
X77851175Y-70361901D01*
X77806524Y-70509110D01*
X77927845Y-70739000D01*
X79121000Y-70739000D01*
X79121000Y-70719000D01*
X79375000Y-70719000D01*
X79375000Y-70739000D01*
X80568155Y-70739000D01*
X80689476Y-70509110D01*
X80644825Y-70361901D01*
X80519641Y-70099080D01*
X80345588Y-69865731D01*
X80129355Y-69670822D01*
X80012466Y-69601195D01*
X80194632Y-69479475D01*
X80401475Y-69272632D01*
X80563990Y-69029411D01*
X80675932Y-68759158D01*
X80733000Y-68472260D01*
X80733000Y-68179740D01*
X80675932Y-67892842D01*
X80563990Y-67622589D01*
X80401475Y-67379368D01*
X80194632Y-67172525D01*
X79951411Y-67010010D01*
X79681158Y-66898068D01*
X79394260Y-66841000D01*
X79101740Y-66841000D01*
X78814842Y-66898068D01*
X78544589Y-67010010D01*
X78301368Y-67172525D01*
X78094525Y-67379368D01*
X77932010Y-67622589D01*
X77820068Y-67892842D01*
X77763000Y-68179740D01*
X77355700Y-68179740D01*
X77355700Y-54776000D01*
X77759928Y-54776000D01*
X77759928Y-56476000D01*
X77772188Y-56600482D01*
X77808498Y-56720180D01*
X77867463Y-56830494D01*
X77946815Y-56927185D01*
X78043506Y-57006537D01*
X78153820Y-57065502D01*
X78273518Y-57101812D01*
X78398000Y-57114072D01*
X79478837Y-57114072D01*
X83322870Y-60958106D01*
X83332774Y-61007898D01*
X83410795Y-61196256D01*
X83524063Y-61365774D01*
X83668226Y-61509937D01*
X83837744Y-61623205D01*
X84026102Y-61701226D01*
X84226061Y-61741000D01*
X84429939Y-61741000D01*
X84629898Y-61701226D01*
X84818256Y-61623205D01*
X84987774Y-61509937D01*
X85131937Y-61365774D01*
X85245205Y-61196256D01*
X85323226Y-61007898D01*
X85363000Y-60807939D01*
X85363000Y-60604061D01*
X85323226Y-60404102D01*
X85245205Y-60215744D01*
X85131937Y-60046226D01*
X84987774Y-59902063D01*
X84818256Y-59788795D01*
X84629898Y-59710774D01*
X84580106Y-59700870D01*
X80736072Y-55856837D01*
X80736072Y-55524061D01*
X108693000Y-55524061D01*
X108693000Y-55727939D01*
X108732774Y-55927898D01*
X108810795Y-56116256D01*
X108924063Y-56285774D01*
X109068226Y-56429937D01*
X109237744Y-56543205D01*
X109426102Y-56621226D01*
X109626061Y-56661000D01*
X109829939Y-56661000D01*
X110029898Y-56621226D01*
X110218256Y-56543205D01*
X110387774Y-56429937D01*
X110531937Y-56285774D01*
X110645205Y-56116256D01*
X110723226Y-55927898D01*
X110733130Y-55878105D01*
X113365649Y-53245587D01*
X113261525Y-53442890D01*
X113306176Y-53590099D01*
X113431360Y-53852920D01*
X113605413Y-54086269D01*
X113821646Y-54281178D01*
X113938535Y-54350805D01*
X113756369Y-54472525D01*
X113549526Y-54679368D01*
X113387011Y-54922589D01*
X113275069Y-55192842D01*
X113218001Y-55479740D01*
X113218001Y-55772260D01*
X113275069Y-56059158D01*
X113387011Y-56329411D01*
X113549526Y-56572632D01*
X113756369Y-56779475D01*
X113999590Y-56941990D01*
X114269843Y-57053932D01*
X114556741Y-57111000D01*
X114849261Y-57111000D01*
X115136159Y-57053932D01*
X115406412Y-56941990D01*
X115649633Y-56779475D01*
X115856476Y-56572632D01*
X116018991Y-56329411D01*
X116130933Y-56059158D01*
X116188001Y-55772260D01*
X116188001Y-55479740D01*
X116130933Y-55192842D01*
X116018991Y-54922589D01*
X115856476Y-54679368D01*
X115649633Y-54472525D01*
X115467467Y-54350805D01*
X115584356Y-54281178D01*
X115800589Y-54086269D01*
X115974642Y-53852920D01*
X116099826Y-53590099D01*
X116144477Y-53442890D01*
X116023156Y-53213000D01*
X114830001Y-53213000D01*
X114830001Y-53233000D01*
X114576001Y-53233000D01*
X114576001Y-53213000D01*
X114556001Y-53213000D01*
X114556001Y-52959000D01*
X114576001Y-52959000D01*
X114576001Y-52939000D01*
X114830001Y-52939000D01*
X114830001Y-52959000D01*
X116023156Y-52959000D01*
X116144477Y-52729110D01*
X116099826Y-52581901D01*
X115974642Y-52319080D01*
X115800589Y-52085731D01*
X115584356Y-51890822D01*
X115467467Y-51821195D01*
X115649633Y-51699475D01*
X115856476Y-51492632D01*
X116018991Y-51249411D01*
X116130933Y-50979158D01*
X116188001Y-50692260D01*
X116188001Y-50399740D01*
X116130933Y-50112842D01*
X116018991Y-49842589D01*
X115856476Y-49599368D01*
X115724621Y-49467513D01*
X115797181Y-49445502D01*
X115907495Y-49386537D01*
X116004186Y-49307185D01*
X116083538Y-49210494D01*
X116142503Y-49100180D01*
X116178813Y-48980482D01*
X116191073Y-48856000D01*
X116191073Y-47156000D01*
X116178813Y-47031518D01*
X116142503Y-46911820D01*
X116083538Y-46801506D01*
X116004186Y-46704815D01*
X115907495Y-46625463D01*
X115797181Y-46566498D01*
X115677483Y-46530188D01*
X115553001Y-46517928D01*
X113853001Y-46517928D01*
X113728519Y-46530188D01*
X113608821Y-46566498D01*
X113498507Y-46625463D01*
X113401816Y-46704815D01*
X113322464Y-46801506D01*
X113263499Y-46911820D01*
X113227189Y-47031518D01*
X113214929Y-47156000D01*
X113214929Y-48856000D01*
X113227189Y-48980482D01*
X113263499Y-49100180D01*
X113322464Y-49210494D01*
X113401816Y-49307185D01*
X113498507Y-49386537D01*
X113608821Y-49445502D01*
X113681381Y-49467513D01*
X113549526Y-49599368D01*
X113387011Y-49842589D01*
X113275069Y-50112842D01*
X113218001Y-50399740D01*
X113218001Y-50692260D01*
X113248944Y-50847820D01*
X109475895Y-54620870D01*
X109426102Y-54630774D01*
X109237744Y-54708795D01*
X109068226Y-54822063D01*
X108924063Y-54966226D01*
X108810795Y-55135744D01*
X108732774Y-55324102D01*
X108693000Y-55524061D01*
X80736072Y-55524061D01*
X80736072Y-54776000D01*
X80723812Y-54651518D01*
X80687502Y-54531820D01*
X80628537Y-54421506D01*
X80549185Y-54324815D01*
X80452494Y-54245463D01*
X80342180Y-54186498D01*
X80269620Y-54164487D01*
X80401475Y-54032632D01*
X80563990Y-53789411D01*
X80675932Y-53519158D01*
X80733000Y-53232260D01*
X80733000Y-52939740D01*
X80675932Y-52652842D01*
X80563990Y-52382589D01*
X80401475Y-52139368D01*
X80194632Y-51932525D01*
X80012466Y-51810805D01*
X80129355Y-51741178D01*
X80345588Y-51546269D01*
X80519641Y-51312920D01*
X80644825Y-51050099D01*
X80689476Y-50902890D01*
X80568155Y-50673000D01*
X79375000Y-50673000D01*
X79375000Y-50693000D01*
X79121000Y-50693000D01*
X79121000Y-50673000D01*
X77927845Y-50673000D01*
X77806524Y-50902890D01*
X77851175Y-51050099D01*
X77976359Y-51312920D01*
X78150412Y-51546269D01*
X78366645Y-51741178D01*
X78483534Y-51810805D01*
X78301368Y-51932525D01*
X78094525Y-52139368D01*
X77932010Y-52382589D01*
X77820068Y-52652842D01*
X77763000Y-52939740D01*
X77763000Y-53232260D01*
X77820068Y-53519158D01*
X77932010Y-53789411D01*
X78094525Y-54032632D01*
X78226380Y-54164487D01*
X78153820Y-54186498D01*
X78043506Y-54245463D01*
X77946815Y-54324815D01*
X77867463Y-54421506D01*
X77808498Y-54531820D01*
X77772188Y-54651518D01*
X77759928Y-54776000D01*
X77355700Y-54776000D01*
X77355700Y-47859740D01*
X77763000Y-47859740D01*
X77763000Y-48152260D01*
X77820068Y-48439158D01*
X77932010Y-48709411D01*
X78094525Y-48952632D01*
X78301368Y-49159475D01*
X78483534Y-49281195D01*
X78366645Y-49350822D01*
X78150412Y-49545731D01*
X77976359Y-49779080D01*
X77851175Y-50041901D01*
X77806524Y-50189110D01*
X77927845Y-50419000D01*
X79121000Y-50419000D01*
X79121000Y-50399000D01*
X79375000Y-50399000D01*
X79375000Y-50419000D01*
X80568155Y-50419000D01*
X80689476Y-50189110D01*
X80644825Y-50041901D01*
X80519641Y-49779080D01*
X80345588Y-49545731D01*
X80129355Y-49350822D01*
X80012466Y-49281195D01*
X80194632Y-49159475D01*
X80401475Y-48952632D01*
X80563990Y-48709411D01*
X80675932Y-48439158D01*
X80733000Y-48152260D01*
X80733000Y-47859740D01*
X80675932Y-47572842D01*
X80563990Y-47302589D01*
X80401475Y-47059368D01*
X80194632Y-46852525D01*
X79951411Y-46690010D01*
X79681158Y-46578068D01*
X79394260Y-46521000D01*
X79101740Y-46521000D01*
X78814842Y-46578068D01*
X78544589Y-46690010D01*
X78301368Y-46852525D01*
X78094525Y-47059368D01*
X77932010Y-47302589D01*
X77820068Y-47572842D01*
X77763000Y-47859740D01*
X77355700Y-47859740D01*
X77355700Y-44034967D01*
X97953000Y-44034967D01*
X97953000Y-44357033D01*
X98015832Y-44672912D01*
X98139082Y-44970463D01*
X98318013Y-45238252D01*
X98545748Y-45465987D01*
X98813537Y-45644918D01*
X99111088Y-45768168D01*
X99426967Y-45831000D01*
X99749033Y-45831000D01*
X100064912Y-45768168D01*
X100362463Y-45644918D01*
X100630252Y-45465987D01*
X100857987Y-45238252D01*
X101036918Y-44970463D01*
X101160168Y-44672912D01*
X101223000Y-44357033D01*
X101223000Y-44034967D01*
X101160168Y-43719088D01*
X101036918Y-43421537D01*
X100886219Y-43196000D01*
X105549928Y-43196000D01*
X105549928Y-45196000D01*
X105562188Y-45320482D01*
X105598498Y-45440180D01*
X105657463Y-45550494D01*
X105736815Y-45647185D01*
X105833506Y-45726537D01*
X105943820Y-45785502D01*
X106063518Y-45821812D01*
X106188000Y-45834072D01*
X108188000Y-45834072D01*
X108312482Y-45821812D01*
X108432180Y-45785502D01*
X108542494Y-45726537D01*
X108639185Y-45647185D01*
X108718537Y-45550494D01*
X108777502Y-45440180D01*
X108813812Y-45320482D01*
X108826072Y-45196000D01*
X108826072Y-43196000D01*
X108813812Y-43071518D01*
X108777502Y-42951820D01*
X108718537Y-42841506D01*
X108639185Y-42744815D01*
X108542494Y-42665463D01*
X108432180Y-42606498D01*
X108312482Y-42570188D01*
X108188000Y-42557928D01*
X106188000Y-42557928D01*
X106063518Y-42570188D01*
X105943820Y-42606498D01*
X105833506Y-42665463D01*
X105736815Y-42744815D01*
X105657463Y-42841506D01*
X105598498Y-42951820D01*
X105562188Y-43071518D01*
X105549928Y-43196000D01*
X100886219Y-43196000D01*
X100857987Y-43153748D01*
X100630252Y-42926013D01*
X100362463Y-42747082D01*
X100064912Y-42623832D01*
X99749033Y-42561000D01*
X99426967Y-42561000D01*
X99111088Y-42623832D01*
X98813537Y-42747082D01*
X98545748Y-42926013D01*
X98318013Y-43153748D01*
X98139082Y-43421537D01*
X98015832Y-43719088D01*
X97953000Y-44034967D01*
X77355700Y-44034967D01*
X77355700Y-41286101D01*
X77539161Y-41560670D01*
X78073330Y-42094839D01*
X78701446Y-42514533D01*
X79399372Y-42803623D01*
X80140285Y-42951000D01*
X80895715Y-42951000D01*
X81636628Y-42803623D01*
X82334554Y-42514533D01*
X82962670Y-42094839D01*
X83496839Y-41560670D01*
X83916533Y-40932554D01*
X84205623Y-40234628D01*
X84353000Y-39493715D01*
X84353000Y-38738285D01*
X84205623Y-37997372D01*
X83916533Y-37299446D01*
X83496839Y-36671330D01*
X82962670Y-36137161D01*
X82688101Y-35953700D01*
X111367899Y-35953700D01*
X111093330Y-36137161D01*
G37*
%TD.AperFunction*%
%TD*%
M02*
