%TF.GenerationSoftware,KiCad,Pcbnew,(5.1.12)-1*%
%TF.CreationDate,2022-01-27T23:25:20+05:30*%
%TF.ProjectId,M5_BuggyProject,4d355f42-7567-4677-9950-726f6a656374,v1.0*%
%TF.SameCoordinates,Original*%
%TF.FileFunction,Legend,Top*%
%TF.FilePolarity,Positive*%
%FSLAX46Y46*%
G04 Gerber Fmt 4.6, Leading zero omitted, Abs format (unit mm)*
G04 Created by KiCad (PCBNEW (5.1.12)-1) date 2022-01-27 23:25:20*
%MOMM*%
%LPD*%
G01*
G04 APERTURE LIST*
%ADD10C,0.150000*%
%ADD11C,0.120000*%
%ADD12C,0.076200*%
%ADD13C,0.063500*%
%ADD14C,0.101600*%
%ADD15C,0.010000*%
%ADD16C,0.100000*%
%ADD17C,0.127000*%
G04 APERTURE END LIST*
D10*
X92408952Y-69048380D02*
X92408952Y-69762666D01*
X92361333Y-69905523D01*
X92266095Y-70000761D01*
X92123238Y-70048380D01*
X92028000Y-70048380D01*
X93361333Y-70048380D02*
X92885142Y-70048380D01*
X92885142Y-69048380D01*
X94266095Y-69953142D02*
X94218476Y-70000761D01*
X94075619Y-70048380D01*
X93980380Y-70048380D01*
X93837523Y-70000761D01*
X93742285Y-69905523D01*
X93694666Y-69810285D01*
X93647047Y-69619809D01*
X93647047Y-69476952D01*
X93694666Y-69286476D01*
X93742285Y-69191238D01*
X93837523Y-69096000D01*
X93980380Y-69048380D01*
X94075619Y-69048380D01*
X94218476Y-69096000D01*
X94266095Y-69143619D01*
X94980380Y-69048380D02*
X94980380Y-69762666D01*
X94932761Y-69905523D01*
X94837523Y-70000761D01*
X94694666Y-70048380D01*
X94599428Y-70048380D01*
X95932761Y-70048380D02*
X95456571Y-70048380D01*
X95456571Y-69048380D01*
X96837523Y-69953142D02*
X96789904Y-70000761D01*
X96647047Y-70048380D01*
X96551809Y-70048380D01*
X96408952Y-70000761D01*
X96313714Y-69905523D01*
X96266095Y-69810285D01*
X96218476Y-69619809D01*
X96218476Y-69476952D01*
X96266095Y-69286476D01*
X96313714Y-69191238D01*
X96408952Y-69096000D01*
X96551809Y-69048380D01*
X96647047Y-69048380D01*
X96789904Y-69096000D01*
X96837523Y-69143619D01*
X97551809Y-69048380D02*
X97551809Y-69762666D01*
X97504190Y-69905523D01*
X97408952Y-70000761D01*
X97266095Y-70048380D01*
X97170857Y-70048380D01*
X98504190Y-70048380D02*
X98028000Y-70048380D01*
X98028000Y-69048380D01*
X99408952Y-69953142D02*
X99361333Y-70000761D01*
X99218476Y-70048380D01*
X99123238Y-70048380D01*
X98980380Y-70000761D01*
X98885142Y-69905523D01*
X98837523Y-69810285D01*
X98789904Y-69619809D01*
X98789904Y-69476952D01*
X98837523Y-69286476D01*
X98885142Y-69191238D01*
X98980380Y-69096000D01*
X99123238Y-69048380D01*
X99218476Y-69048380D01*
X99361333Y-69096000D01*
X99408952Y-69143619D01*
X100123238Y-69048380D02*
X100123238Y-69762666D01*
X100075619Y-69905523D01*
X99980380Y-70000761D01*
X99837523Y-70048380D01*
X99742285Y-70048380D01*
X101075619Y-70048380D02*
X100599428Y-70048380D01*
X100599428Y-69048380D01*
X101980380Y-69953142D02*
X101932761Y-70000761D01*
X101789904Y-70048380D01*
X101694666Y-70048380D01*
X101551809Y-70000761D01*
X101456571Y-69905523D01*
X101408952Y-69810285D01*
X101361333Y-69619809D01*
X101361333Y-69476952D01*
X101408952Y-69286476D01*
X101456571Y-69191238D01*
X101551809Y-69096000D01*
X101694666Y-69048380D01*
X101789904Y-69048380D01*
X101932761Y-69096000D01*
X101980380Y-69143619D01*
X102044666Y-119848380D02*
X102378000Y-120848380D01*
X102711333Y-119848380D01*
X103616095Y-120753142D02*
X103568476Y-120800761D01*
X103425619Y-120848380D01*
X103330380Y-120848380D01*
X103187523Y-120800761D01*
X103092285Y-120705523D01*
X103044666Y-120610285D01*
X102997047Y-120419809D01*
X102997047Y-120276952D01*
X103044666Y-120086476D01*
X103092285Y-119991238D01*
X103187523Y-119896000D01*
X103330380Y-119848380D01*
X103425619Y-119848380D01*
X103568476Y-119896000D01*
X103616095Y-119943619D01*
X104616095Y-120753142D02*
X104568476Y-120800761D01*
X104425619Y-120848380D01*
X104330380Y-120848380D01*
X104187523Y-120800761D01*
X104092285Y-120705523D01*
X104044666Y-120610285D01*
X103997047Y-120419809D01*
X103997047Y-120276952D01*
X104044666Y-120086476D01*
X104092285Y-119991238D01*
X104187523Y-119896000D01*
X104330380Y-119848380D01*
X104425619Y-119848380D01*
X104568476Y-119896000D01*
X104616095Y-119943619D01*
X97678952Y-120848380D02*
X97107523Y-120848380D01*
X97393238Y-120848380D02*
X97393238Y-119848380D01*
X97298000Y-119991238D01*
X97202761Y-120086476D01*
X97107523Y-120134095D01*
X98298000Y-119848380D02*
X98393238Y-119848380D01*
X98488476Y-119896000D01*
X98536095Y-119943619D01*
X98583714Y-120038857D01*
X98631333Y-120229333D01*
X98631333Y-120467428D01*
X98583714Y-120657904D01*
X98536095Y-120753142D01*
X98488476Y-120800761D01*
X98393238Y-120848380D01*
X98298000Y-120848380D01*
X98202761Y-120800761D01*
X98155142Y-120753142D01*
X98107523Y-120657904D01*
X98059904Y-120467428D01*
X98059904Y-120229333D01*
X98107523Y-120038857D01*
X98155142Y-119943619D01*
X98202761Y-119896000D01*
X98298000Y-119848380D01*
X98917047Y-119848380D02*
X99250380Y-120848380D01*
X99583714Y-119848380D01*
X91720942Y-47085047D02*
X91768561Y-47132666D01*
X91816180Y-47275523D01*
X91816180Y-47370761D01*
X91768561Y-47513619D01*
X91673323Y-47608857D01*
X91578085Y-47656476D01*
X91387609Y-47704095D01*
X91244752Y-47704095D01*
X91054276Y-47656476D01*
X90959038Y-47608857D01*
X90863800Y-47513619D01*
X90816180Y-47370761D01*
X90816180Y-47275523D01*
X90863800Y-47132666D01*
X90911419Y-47085047D01*
X90816180Y-46466000D02*
X90816180Y-46275523D01*
X90863800Y-46180285D01*
X90959038Y-46085047D01*
X91149514Y-46037428D01*
X91482847Y-46037428D01*
X91673323Y-46085047D01*
X91768561Y-46180285D01*
X91816180Y-46275523D01*
X91816180Y-46466000D01*
X91768561Y-46561238D01*
X91673323Y-46656476D01*
X91482847Y-46704095D01*
X91149514Y-46704095D01*
X90959038Y-46656476D01*
X90863800Y-46561238D01*
X90816180Y-46466000D01*
X91816180Y-45608857D02*
X90816180Y-45608857D01*
X91816180Y-45037428D01*
X90816180Y-45037428D01*
X91911419Y-44799333D02*
X91911419Y-44037428D01*
X91816180Y-43227904D02*
X91339990Y-43561238D01*
X91816180Y-43799333D02*
X90816180Y-43799333D01*
X90816180Y-43418380D01*
X90863800Y-43323142D01*
X90911419Y-43275523D01*
X91006657Y-43227904D01*
X91149514Y-43227904D01*
X91244752Y-43275523D01*
X91292371Y-43323142D01*
X91339990Y-43418380D01*
X91339990Y-43799333D01*
X87733142Y-46989809D02*
X87780761Y-47037428D01*
X87828380Y-47180285D01*
X87828380Y-47275523D01*
X87780761Y-47418380D01*
X87685523Y-47513619D01*
X87590285Y-47561238D01*
X87399809Y-47608857D01*
X87256952Y-47608857D01*
X87066476Y-47561238D01*
X86971238Y-47513619D01*
X86876000Y-47418380D01*
X86828380Y-47275523D01*
X86828380Y-47180285D01*
X86876000Y-47037428D01*
X86923619Y-46989809D01*
X86828380Y-46370761D02*
X86828380Y-46180285D01*
X86876000Y-46085047D01*
X86971238Y-45989809D01*
X87161714Y-45942190D01*
X87495047Y-45942190D01*
X87685523Y-45989809D01*
X87780761Y-46085047D01*
X87828380Y-46180285D01*
X87828380Y-46370761D01*
X87780761Y-46466000D01*
X87685523Y-46561238D01*
X87495047Y-46608857D01*
X87161714Y-46608857D01*
X86971238Y-46561238D01*
X86876000Y-46466000D01*
X86828380Y-46370761D01*
X87828380Y-45513619D02*
X86828380Y-45513619D01*
X87828380Y-44942190D01*
X86828380Y-44942190D01*
X87923619Y-44704095D02*
X87923619Y-43942190D01*
X87828380Y-43227904D02*
X87828380Y-43704095D01*
X86828380Y-43704095D01*
X105537047Y-106624428D02*
X106298952Y-106624428D01*
X105537047Y-113609428D02*
X106298952Y-113609428D01*
X105918000Y-113990380D02*
X105918000Y-113228476D01*
X114427047Y-108402428D02*
X115188952Y-108402428D01*
X114427047Y-114752428D02*
X115188952Y-114752428D01*
X114808000Y-115133380D02*
X114808000Y-114371476D01*
D11*
X77978000Y-114300000D02*
X77978000Y-116840000D01*
D12*
X78994000Y-116186857D02*
X78957714Y-116150571D01*
X78885142Y-116114285D01*
X78812571Y-116114285D01*
X78740000Y-116150571D01*
X78703714Y-116186857D01*
X78667428Y-116259428D01*
X78667428Y-116332000D01*
X78703714Y-116404571D01*
X78740000Y-116440857D01*
X78812571Y-116477142D01*
X78885142Y-116477142D01*
X78957714Y-116440857D01*
X78994000Y-116404571D01*
X78994000Y-116114285D02*
X78994000Y-116404571D01*
X79030285Y-116440857D01*
X79066571Y-116440857D01*
X79139142Y-116404571D01*
X79175428Y-116332000D01*
X79175428Y-116150571D01*
X79102857Y-116041714D01*
X78994000Y-115969142D01*
X78848857Y-115932857D01*
X78703714Y-115969142D01*
X78594857Y-116041714D01*
X78522285Y-116150571D01*
X78486000Y-116295714D01*
X78522285Y-116440857D01*
X78594857Y-116549714D01*
X78703714Y-116622285D01*
X78848857Y-116658571D01*
X78994000Y-116622285D01*
X79102857Y-116549714D01*
X79502000Y-115787714D02*
X79502000Y-116404571D01*
X79538285Y-116477142D01*
X79574571Y-116513428D01*
X79647142Y-116549714D01*
X79792285Y-116549714D01*
X79864857Y-116513428D01*
X79901142Y-116477142D01*
X79937428Y-116404571D01*
X79937428Y-115787714D01*
X80300285Y-116549714D02*
X80300285Y-115787714D01*
X80554285Y-116332000D01*
X80808285Y-115787714D01*
X80808285Y-116549714D01*
X81497714Y-116549714D02*
X81497714Y-116150571D01*
X81461428Y-116078000D01*
X81388857Y-116041714D01*
X81243714Y-116041714D01*
X81171142Y-116078000D01*
X81497714Y-116513428D02*
X81425142Y-116549714D01*
X81243714Y-116549714D01*
X81171142Y-116513428D01*
X81134857Y-116440857D01*
X81134857Y-116368285D01*
X81171142Y-116295714D01*
X81243714Y-116259428D01*
X81425142Y-116259428D01*
X81497714Y-116223142D01*
X81824285Y-116513428D02*
X81896857Y-116549714D01*
X82042000Y-116549714D01*
X82114571Y-116513428D01*
X82150857Y-116440857D01*
X82150857Y-116404571D01*
X82114571Y-116332000D01*
X82042000Y-116295714D01*
X81933142Y-116295714D01*
X81860571Y-116259428D01*
X81824285Y-116186857D01*
X81824285Y-116150571D01*
X81860571Y-116078000D01*
X81933142Y-116041714D01*
X82042000Y-116041714D01*
X82114571Y-116078000D01*
X82441142Y-116513428D02*
X82513714Y-116549714D01*
X82658857Y-116549714D01*
X82731428Y-116513428D01*
X82767714Y-116440857D01*
X82767714Y-116404571D01*
X82731428Y-116332000D01*
X82658857Y-116295714D01*
X82550000Y-116295714D01*
X82477428Y-116259428D01*
X82441142Y-116186857D01*
X82441142Y-116150571D01*
X82477428Y-116078000D01*
X82550000Y-116041714D01*
X82658857Y-116041714D01*
X82731428Y-116078000D01*
X83058000Y-116332000D02*
X83420857Y-116332000D01*
X82985428Y-116549714D02*
X83239428Y-115787714D01*
X83493428Y-116549714D01*
X83747428Y-116549714D02*
X83747428Y-116041714D01*
X83747428Y-116114285D02*
X83783714Y-116078000D01*
X83856285Y-116041714D01*
X83965142Y-116041714D01*
X84037714Y-116078000D01*
X84074000Y-116150571D01*
X84074000Y-116549714D01*
X84074000Y-116150571D02*
X84110285Y-116078000D01*
X84182857Y-116041714D01*
X84291714Y-116041714D01*
X84364285Y-116078000D01*
X84400571Y-116150571D01*
X84400571Y-116549714D01*
X84763428Y-116549714D02*
X84763428Y-115787714D01*
X85090000Y-116549714D02*
X85090000Y-116150571D01*
X85053714Y-116078000D01*
X84981142Y-116041714D01*
X84872285Y-116041714D01*
X84799714Y-116078000D01*
X84763428Y-116114285D01*
X85743142Y-116513428D02*
X85670571Y-116549714D01*
X85525428Y-116549714D01*
X85452857Y-116513428D01*
X85416571Y-116440857D01*
X85416571Y-116150571D01*
X85452857Y-116078000D01*
X85525428Y-116041714D01*
X85670571Y-116041714D01*
X85743142Y-116078000D01*
X85779428Y-116150571D01*
X85779428Y-116223142D01*
X85416571Y-116295714D01*
X86106000Y-116549714D02*
X86106000Y-116041714D01*
X86106000Y-116186857D02*
X86142285Y-116114285D01*
X86178571Y-116078000D01*
X86251142Y-116041714D01*
X86323714Y-116041714D01*
X86541428Y-116513428D02*
X86614000Y-116549714D01*
X86759142Y-116549714D01*
X86831714Y-116513428D01*
X86868000Y-116440857D01*
X86868000Y-116404571D01*
X86831714Y-116332000D01*
X86759142Y-116295714D01*
X86650285Y-116295714D01*
X86577714Y-116259428D01*
X86541428Y-116186857D01*
X86541428Y-116150571D01*
X86577714Y-116078000D01*
X86650285Y-116041714D01*
X86759142Y-116041714D01*
X86831714Y-116078000D01*
X87085714Y-116041714D02*
X87376000Y-116041714D01*
X87194571Y-115787714D02*
X87194571Y-116440857D01*
X87230857Y-116513428D01*
X87303428Y-116549714D01*
X87376000Y-116549714D01*
X87630000Y-116549714D02*
X87630000Y-115787714D01*
X87884000Y-116332000D01*
X88138000Y-115787714D01*
X88138000Y-116549714D01*
X88863714Y-115787714D02*
X88500857Y-115787714D01*
X88464571Y-116150571D01*
X88500857Y-116114285D01*
X88573428Y-116078000D01*
X88754857Y-116078000D01*
X88827428Y-116114285D01*
X88863714Y-116150571D01*
X88900000Y-116223142D01*
X88900000Y-116404571D01*
X88863714Y-116477142D01*
X88827428Y-116513428D01*
X88754857Y-116549714D01*
X88573428Y-116549714D01*
X88500857Y-116513428D01*
X88464571Y-116477142D01*
X78594857Y-114771714D02*
X79139142Y-114771714D01*
X78812571Y-114445142D02*
X78594857Y-115424857D01*
X79066571Y-115098285D02*
X78522285Y-115098285D01*
X78848857Y-115424857D02*
X79066571Y-114445142D01*
X79393142Y-114517714D02*
X79393142Y-115134571D01*
X79429428Y-115207142D01*
X79465714Y-115243428D01*
X79538285Y-115279714D01*
X79683428Y-115279714D01*
X79756000Y-115243428D01*
X79792285Y-115207142D01*
X79828571Y-115134571D01*
X79828571Y-114517714D01*
X80191428Y-115279714D02*
X80191428Y-114517714D01*
X80445428Y-115062000D01*
X80699428Y-114517714D01*
X80699428Y-115279714D01*
X81388857Y-115279714D02*
X81388857Y-114880571D01*
X81352571Y-114808000D01*
X81280000Y-114771714D01*
X81134857Y-114771714D01*
X81062285Y-114808000D01*
X81388857Y-115243428D02*
X81316285Y-115279714D01*
X81134857Y-115279714D01*
X81062285Y-115243428D01*
X81026000Y-115170857D01*
X81026000Y-115098285D01*
X81062285Y-115025714D01*
X81134857Y-114989428D01*
X81316285Y-114989428D01*
X81388857Y-114953142D01*
X81715428Y-115243428D02*
X81788000Y-115279714D01*
X81933142Y-115279714D01*
X82005714Y-115243428D01*
X82042000Y-115170857D01*
X82042000Y-115134571D01*
X82005714Y-115062000D01*
X81933142Y-115025714D01*
X81824285Y-115025714D01*
X81751714Y-114989428D01*
X81715428Y-114916857D01*
X81715428Y-114880571D01*
X81751714Y-114808000D01*
X81824285Y-114771714D01*
X81933142Y-114771714D01*
X82005714Y-114808000D01*
X82332285Y-115243428D02*
X82404857Y-115279714D01*
X82550000Y-115279714D01*
X82622571Y-115243428D01*
X82658857Y-115170857D01*
X82658857Y-115134571D01*
X82622571Y-115062000D01*
X82550000Y-115025714D01*
X82441142Y-115025714D01*
X82368571Y-114989428D01*
X82332285Y-114916857D01*
X82332285Y-114880571D01*
X82368571Y-114808000D01*
X82441142Y-114771714D01*
X82550000Y-114771714D01*
X82622571Y-114808000D01*
X82949142Y-115062000D02*
X83312000Y-115062000D01*
X82876571Y-115279714D02*
X83130571Y-114517714D01*
X83384571Y-115279714D01*
X83638571Y-115279714D02*
X83638571Y-114771714D01*
X83638571Y-114844285D02*
X83674857Y-114808000D01*
X83747428Y-114771714D01*
X83856285Y-114771714D01*
X83928857Y-114808000D01*
X83965142Y-114880571D01*
X83965142Y-115279714D01*
X83965142Y-114880571D02*
X84001428Y-114808000D01*
X84074000Y-114771714D01*
X84182857Y-114771714D01*
X84255428Y-114808000D01*
X84291714Y-114880571D01*
X84291714Y-115279714D01*
X84654571Y-115279714D02*
X84654571Y-114517714D01*
X84981142Y-115279714D02*
X84981142Y-114880571D01*
X84944857Y-114808000D01*
X84872285Y-114771714D01*
X84763428Y-114771714D01*
X84690857Y-114808000D01*
X84654571Y-114844285D01*
X85634285Y-115243428D02*
X85561714Y-115279714D01*
X85416571Y-115279714D01*
X85344000Y-115243428D01*
X85307714Y-115170857D01*
X85307714Y-114880571D01*
X85344000Y-114808000D01*
X85416571Y-114771714D01*
X85561714Y-114771714D01*
X85634285Y-114808000D01*
X85670571Y-114880571D01*
X85670571Y-114953142D01*
X85307714Y-115025714D01*
X85997142Y-115279714D02*
X85997142Y-114771714D01*
X85997142Y-114916857D02*
X86033428Y-114844285D01*
X86069714Y-114808000D01*
X86142285Y-114771714D01*
X86214857Y-114771714D01*
X86432571Y-115243428D02*
X86505142Y-115279714D01*
X86650285Y-115279714D01*
X86722857Y-115243428D01*
X86759142Y-115170857D01*
X86759142Y-115134571D01*
X86722857Y-115062000D01*
X86650285Y-115025714D01*
X86541428Y-115025714D01*
X86468857Y-114989428D01*
X86432571Y-114916857D01*
X86432571Y-114880571D01*
X86468857Y-114808000D01*
X86541428Y-114771714D01*
X86650285Y-114771714D01*
X86722857Y-114808000D01*
X86976857Y-114771714D02*
X87267142Y-114771714D01*
X87085714Y-114517714D02*
X87085714Y-115170857D01*
X87122000Y-115243428D01*
X87194571Y-115279714D01*
X87267142Y-115279714D01*
X87521142Y-115279714D02*
X87521142Y-114517714D01*
X87775142Y-115062000D01*
X88029142Y-114517714D01*
X88029142Y-115279714D01*
X88754857Y-114517714D02*
X88392000Y-114517714D01*
X88355714Y-114880571D01*
X88392000Y-114844285D01*
X88464571Y-114808000D01*
X88646000Y-114808000D01*
X88718571Y-114844285D01*
X88754857Y-114880571D01*
X88791142Y-114953142D01*
X88791142Y-115134571D01*
X88754857Y-115207142D01*
X88718571Y-115243428D01*
X88646000Y-115279714D01*
X88464571Y-115279714D01*
X88392000Y-115243428D01*
X88355714Y-115207142D01*
D11*
X95377000Y-121920000D02*
X95377000Y-121666000D01*
X95377000Y-121920000D02*
X95377000Y-124460000D01*
D13*
X88609714Y-36904990D02*
X88725828Y-36943695D01*
X88919352Y-36943695D01*
X88996761Y-36904990D01*
X89035466Y-36866285D01*
X89074171Y-36788876D01*
X89074171Y-36711466D01*
X89035466Y-36634057D01*
X88996761Y-36595352D01*
X88919352Y-36556647D01*
X88764533Y-36517942D01*
X88687123Y-36479238D01*
X88648419Y-36440533D01*
X88609714Y-36363123D01*
X88609714Y-36285714D01*
X88648419Y-36208304D01*
X88687123Y-36169600D01*
X88764533Y-36130895D01*
X88958057Y-36130895D01*
X89074171Y-36169600D01*
X89770857Y-36943695D02*
X89770857Y-36517942D01*
X89732152Y-36440533D01*
X89654742Y-36401828D01*
X89499923Y-36401828D01*
X89422514Y-36440533D01*
X89770857Y-36904990D02*
X89693447Y-36943695D01*
X89499923Y-36943695D01*
X89422514Y-36904990D01*
X89383809Y-36827580D01*
X89383809Y-36750171D01*
X89422514Y-36672761D01*
X89499923Y-36634057D01*
X89693447Y-36634057D01*
X89770857Y-36595352D01*
X90041790Y-36401828D02*
X90351428Y-36401828D01*
X90157904Y-36130895D02*
X90157904Y-36827580D01*
X90196609Y-36904990D01*
X90274019Y-36943695D01*
X90351428Y-36943695D01*
X90970704Y-36401828D02*
X90970704Y-36943695D01*
X90622361Y-36401828D02*
X90622361Y-36827580D01*
X90661066Y-36904990D01*
X90738476Y-36943695D01*
X90854590Y-36943695D01*
X90932000Y-36904990D01*
X90970704Y-36866285D01*
X91357752Y-36943695D02*
X91357752Y-36401828D01*
X91357752Y-36556647D02*
X91396457Y-36479238D01*
X91435161Y-36440533D01*
X91512571Y-36401828D01*
X91589980Y-36401828D01*
X92209257Y-36943695D02*
X92209257Y-36130895D01*
X92209257Y-36904990D02*
X92131847Y-36943695D01*
X91977028Y-36943695D01*
X91899619Y-36904990D01*
X91860914Y-36866285D01*
X91822209Y-36788876D01*
X91822209Y-36556647D01*
X91860914Y-36479238D01*
X91899619Y-36440533D01*
X91977028Y-36401828D01*
X92131847Y-36401828D01*
X92209257Y-36440533D01*
X92944647Y-36943695D02*
X92944647Y-36517942D01*
X92905942Y-36440533D01*
X92828533Y-36401828D01*
X92673714Y-36401828D01*
X92596304Y-36440533D01*
X92944647Y-36904990D02*
X92867238Y-36943695D01*
X92673714Y-36943695D01*
X92596304Y-36904990D01*
X92557600Y-36827580D01*
X92557600Y-36750171D01*
X92596304Y-36672761D01*
X92673714Y-36634057D01*
X92867238Y-36634057D01*
X92944647Y-36595352D01*
X93254285Y-36401828D02*
X93447809Y-36943695D01*
X93641333Y-36401828D02*
X93447809Y-36943695D01*
X93370400Y-37137219D01*
X93331695Y-37175923D01*
X93254285Y-37214628D01*
X94570247Y-36943695D02*
X94570247Y-36401828D01*
X94570247Y-36130895D02*
X94531542Y-36169600D01*
X94570247Y-36208304D01*
X94608952Y-36169600D01*
X94570247Y-36130895D01*
X94570247Y-36208304D01*
X94918590Y-36904990D02*
X94996000Y-36943695D01*
X95150819Y-36943695D01*
X95228228Y-36904990D01*
X95266933Y-36827580D01*
X95266933Y-36788876D01*
X95228228Y-36711466D01*
X95150819Y-36672761D01*
X95034704Y-36672761D01*
X94957295Y-36634057D01*
X94918590Y-36556647D01*
X94918590Y-36517942D01*
X94957295Y-36440533D01*
X95034704Y-36401828D01*
X95150819Y-36401828D01*
X95228228Y-36440533D01*
X96118438Y-36401828D02*
X96428076Y-36401828D01*
X96234552Y-36943695D02*
X96234552Y-36247009D01*
X96273257Y-36169600D01*
X96350666Y-36130895D01*
X96428076Y-36130895D01*
X96815123Y-36943695D02*
X96737714Y-36904990D01*
X96699009Y-36866285D01*
X96660304Y-36788876D01*
X96660304Y-36556647D01*
X96699009Y-36479238D01*
X96737714Y-36440533D01*
X96815123Y-36401828D01*
X96931238Y-36401828D01*
X97008647Y-36440533D01*
X97047352Y-36479238D01*
X97086057Y-36556647D01*
X97086057Y-36788876D01*
X97047352Y-36866285D01*
X97008647Y-36904990D01*
X96931238Y-36943695D01*
X96815123Y-36943695D01*
X97434400Y-36943695D02*
X97434400Y-36401828D01*
X97434400Y-36556647D02*
X97473104Y-36479238D01*
X97511809Y-36440533D01*
X97589219Y-36401828D01*
X97666628Y-36401828D01*
X98440723Y-36401828D02*
X98750361Y-36401828D01*
X98556838Y-36130895D02*
X98556838Y-36827580D01*
X98595542Y-36904990D01*
X98672952Y-36943695D01*
X98750361Y-36943695D01*
X99021295Y-36943695D02*
X99021295Y-36130895D01*
X99369638Y-36943695D02*
X99369638Y-36517942D01*
X99330933Y-36440533D01*
X99253523Y-36401828D01*
X99137409Y-36401828D01*
X99060000Y-36440533D01*
X99021295Y-36479238D01*
X100066323Y-36904990D02*
X99988914Y-36943695D01*
X99834095Y-36943695D01*
X99756685Y-36904990D01*
X99717980Y-36827580D01*
X99717980Y-36517942D01*
X99756685Y-36440533D01*
X99834095Y-36401828D01*
X99988914Y-36401828D01*
X100066323Y-36440533D01*
X100105028Y-36517942D01*
X100105028Y-36595352D01*
X99717980Y-36672761D01*
X101072647Y-36943695D02*
X101072647Y-36401828D01*
X101072647Y-36479238D02*
X101111352Y-36440533D01*
X101188761Y-36401828D01*
X101304876Y-36401828D01*
X101382285Y-36440533D01*
X101420990Y-36517942D01*
X101420990Y-36943695D01*
X101420990Y-36517942D02*
X101459695Y-36440533D01*
X101537104Y-36401828D01*
X101653219Y-36401828D01*
X101730628Y-36440533D01*
X101769333Y-36517942D01*
X101769333Y-36943695D01*
X102504723Y-36943695D02*
X102504723Y-36517942D01*
X102466019Y-36440533D01*
X102388609Y-36401828D01*
X102233790Y-36401828D01*
X102156380Y-36440533D01*
X102504723Y-36904990D02*
X102427314Y-36943695D01*
X102233790Y-36943695D01*
X102156380Y-36904990D01*
X102117676Y-36827580D01*
X102117676Y-36750171D01*
X102156380Y-36672761D01*
X102233790Y-36634057D01*
X102427314Y-36634057D01*
X102504723Y-36595352D01*
X102891771Y-36943695D02*
X102891771Y-36130895D01*
X102969180Y-36634057D02*
X103201409Y-36943695D01*
X103201409Y-36401828D02*
X102891771Y-36711466D01*
X103859390Y-36904990D02*
X103781980Y-36943695D01*
X103627161Y-36943695D01*
X103549752Y-36904990D01*
X103511047Y-36827580D01*
X103511047Y-36517942D01*
X103549752Y-36440533D01*
X103627161Y-36401828D01*
X103781980Y-36401828D01*
X103859390Y-36440533D01*
X103898095Y-36517942D01*
X103898095Y-36595352D01*
X103511047Y-36672761D01*
X104246438Y-36943695D02*
X104246438Y-36401828D01*
X104246438Y-36556647D02*
X104285142Y-36479238D01*
X104323847Y-36440533D01*
X104401257Y-36401828D01*
X104478666Y-36401828D01*
X104710895Y-36904990D02*
X104788304Y-36943695D01*
X104943123Y-36943695D01*
X105020533Y-36904990D01*
X105059238Y-36827580D01*
X105059238Y-36788876D01*
X105020533Y-36711466D01*
X104943123Y-36672761D01*
X104827009Y-36672761D01*
X104749600Y-36634057D01*
X104710895Y-36556647D01*
X104710895Y-36517942D01*
X104749600Y-36440533D01*
X104827009Y-36401828D01*
X104943123Y-36401828D01*
X105020533Y-36440533D01*
X105407580Y-36866285D02*
X105446285Y-36904990D01*
X105407580Y-36943695D01*
X105368876Y-36904990D01*
X105407580Y-36866285D01*
X105407580Y-36943695D01*
X105407580Y-36634057D02*
X105368876Y-36169600D01*
X105407580Y-36130895D01*
X105446285Y-36169600D01*
X105407580Y-36634057D01*
X105407580Y-36130895D01*
D14*
X96115293Y-122546533D02*
X96599102Y-122546533D01*
X96018531Y-122836819D02*
X96357198Y-121820819D01*
X96695864Y-122836819D01*
X97179674Y-122836819D02*
X97082912Y-122788438D01*
X97034531Y-122691676D01*
X97034531Y-121820819D01*
X97711864Y-122836819D02*
X97615102Y-122788438D01*
X97566721Y-122691676D01*
X97566721Y-121820819D01*
X98098912Y-122449771D02*
X98873007Y-122449771D01*
X99211674Y-121820819D02*
X99792245Y-121820819D01*
X99501960Y-122836819D02*
X99501960Y-121820819D01*
X100517960Y-122788438D02*
X100421198Y-122836819D01*
X100227674Y-122836819D01*
X100130912Y-122788438D01*
X100082531Y-122691676D01*
X100082531Y-122304628D01*
X100130912Y-122207866D01*
X100227674Y-122159485D01*
X100421198Y-122159485D01*
X100517960Y-122207866D01*
X100566340Y-122304628D01*
X100566340Y-122401390D01*
X100082531Y-122498152D01*
X101001769Y-122836819D02*
X101001769Y-122159485D01*
X101001769Y-122353009D02*
X101050150Y-122256247D01*
X101098531Y-122207866D01*
X101195293Y-122159485D01*
X101292055Y-122159485D01*
X101630721Y-122836819D02*
X101630721Y-122159485D01*
X101630721Y-122353009D02*
X101679102Y-122256247D01*
X101727483Y-122207866D01*
X101824245Y-122159485D01*
X101921007Y-122159485D01*
X102695102Y-122836819D02*
X102695102Y-122304628D01*
X102646721Y-122207866D01*
X102549960Y-122159485D01*
X102356436Y-122159485D01*
X102259674Y-122207866D01*
X102695102Y-122788438D02*
X102598340Y-122836819D01*
X102356436Y-122836819D01*
X102259674Y-122788438D01*
X102211293Y-122691676D01*
X102211293Y-122594914D01*
X102259674Y-122498152D01*
X102356436Y-122449771D01*
X102598340Y-122449771D01*
X102695102Y-122401390D01*
X103178912Y-122836819D02*
X103178912Y-122159485D01*
X103178912Y-121820819D02*
X103130531Y-121869200D01*
X103178912Y-121917580D01*
X103227293Y-121869200D01*
X103178912Y-121820819D01*
X103178912Y-121917580D01*
X103662721Y-122159485D02*
X103662721Y-122836819D01*
X103662721Y-122256247D02*
X103711102Y-122207866D01*
X103807864Y-122159485D01*
X103953007Y-122159485D01*
X104049769Y-122207866D01*
X104098150Y-122304628D01*
X104098150Y-122836819D01*
X105694721Y-122304628D02*
X105839864Y-122353009D01*
X105888245Y-122401390D01*
X105936626Y-122498152D01*
X105936626Y-122643295D01*
X105888245Y-122740057D01*
X105839864Y-122788438D01*
X105743102Y-122836819D01*
X105356055Y-122836819D01*
X105356055Y-121820819D01*
X105694721Y-121820819D01*
X105791483Y-121869200D01*
X105839864Y-121917580D01*
X105888245Y-122014342D01*
X105888245Y-122111104D01*
X105839864Y-122207866D01*
X105791483Y-122256247D01*
X105694721Y-122304628D01*
X105356055Y-122304628D01*
X106807483Y-122159485D02*
X106807483Y-122836819D01*
X106372055Y-122159485D02*
X106372055Y-122691676D01*
X106420436Y-122788438D01*
X106517198Y-122836819D01*
X106662340Y-122836819D01*
X106759102Y-122788438D01*
X106807483Y-122740057D01*
X107726721Y-122159485D02*
X107726721Y-122981961D01*
X107678340Y-123078723D01*
X107629960Y-123127104D01*
X107533198Y-123175485D01*
X107388055Y-123175485D01*
X107291293Y-123127104D01*
X107726721Y-122788438D02*
X107629960Y-122836819D01*
X107436436Y-122836819D01*
X107339674Y-122788438D01*
X107291293Y-122740057D01*
X107242912Y-122643295D01*
X107242912Y-122353009D01*
X107291293Y-122256247D01*
X107339674Y-122207866D01*
X107436436Y-122159485D01*
X107629960Y-122159485D01*
X107726721Y-122207866D01*
X108645960Y-122159485D02*
X108645960Y-122981961D01*
X108597579Y-123078723D01*
X108549198Y-123127104D01*
X108452436Y-123175485D01*
X108307293Y-123175485D01*
X108210531Y-123127104D01*
X108645960Y-122788438D02*
X108549198Y-122836819D01*
X108355674Y-122836819D01*
X108258912Y-122788438D01*
X108210531Y-122740057D01*
X108162150Y-122643295D01*
X108162150Y-122353009D01*
X108210531Y-122256247D01*
X108258912Y-122207866D01*
X108355674Y-122159485D01*
X108549198Y-122159485D01*
X108645960Y-122207866D01*
X109033007Y-122159485D02*
X109274912Y-122836819D01*
X109516817Y-122159485D02*
X109274912Y-122836819D01*
X109178150Y-123078723D01*
X109129769Y-123127104D01*
X109033007Y-123175485D01*
X106613960Y-123785085D02*
X106855864Y-124462419D01*
X107097769Y-123785085D01*
X108017007Y-124462419D02*
X107436436Y-124462419D01*
X107726721Y-124462419D02*
X107726721Y-123446419D01*
X107629960Y-123591561D01*
X107533198Y-123688323D01*
X107436436Y-123736704D01*
X108452436Y-124365657D02*
X108500817Y-124414038D01*
X108452436Y-124462419D01*
X108404055Y-124414038D01*
X108452436Y-124365657D01*
X108452436Y-124462419D01*
X109129769Y-123446419D02*
X109226531Y-123446419D01*
X109323293Y-123494800D01*
X109371674Y-123543180D01*
X109420055Y-123639942D01*
X109468436Y-123833466D01*
X109468436Y-124075371D01*
X109420055Y-124268895D01*
X109371674Y-124365657D01*
X109323293Y-124414038D01*
X109226531Y-124462419D01*
X109129769Y-124462419D01*
X109033007Y-124414038D01*
X108984626Y-124365657D01*
X108936245Y-124268895D01*
X108887864Y-124075371D01*
X108887864Y-123833466D01*
X108936245Y-123639942D01*
X108984626Y-123543180D01*
X109033007Y-123494800D01*
X109129769Y-123446419D01*
D10*
X82296095Y-88146000D02*
X82200857Y-88098380D01*
X82058000Y-88098380D01*
X81915142Y-88146000D01*
X81819904Y-88241238D01*
X81772285Y-88336476D01*
X81724666Y-88526952D01*
X81724666Y-88669809D01*
X81772285Y-88860285D01*
X81819904Y-88955523D01*
X81915142Y-89050761D01*
X82058000Y-89098380D01*
X82153238Y-89098380D01*
X82296095Y-89050761D01*
X82343714Y-89003142D01*
X82343714Y-88669809D01*
X82153238Y-88669809D01*
X82772285Y-89098380D02*
X82772285Y-88098380D01*
X83343714Y-89098380D01*
X83343714Y-88098380D01*
X83819904Y-89098380D02*
X83819904Y-88098380D01*
X84058000Y-88098380D01*
X84200857Y-88146000D01*
X84296095Y-88241238D01*
X84343714Y-88336476D01*
X84391333Y-88526952D01*
X84391333Y-88669809D01*
X84343714Y-88860285D01*
X84296095Y-88955523D01*
X84200857Y-89050761D01*
X84058000Y-89098380D01*
X83819904Y-89098380D01*
X82153238Y-90638380D02*
X82486571Y-91638380D01*
X82819904Y-90638380D01*
X83153238Y-91638380D02*
X83153238Y-90638380D01*
X83486571Y-91352666D01*
X83819904Y-90638380D01*
X83819904Y-91638380D01*
X81891333Y-93654571D02*
X82034190Y-93702190D01*
X82081809Y-93749809D01*
X82129428Y-93845047D01*
X82129428Y-93987904D01*
X82081809Y-94083142D01*
X82034190Y-94130761D01*
X81938952Y-94178380D01*
X81558000Y-94178380D01*
X81558000Y-93178380D01*
X81891333Y-93178380D01*
X81986571Y-93226000D01*
X82034190Y-93273619D01*
X82081809Y-93368857D01*
X82081809Y-93464095D01*
X82034190Y-93559333D01*
X81986571Y-93606952D01*
X81891333Y-93654571D01*
X81558000Y-93654571D01*
X82558000Y-94178380D02*
X82558000Y-93178380D01*
X83034190Y-94178380D02*
X83034190Y-93178380D01*
X83605619Y-94178380D01*
X83605619Y-93178380D01*
X84034190Y-93273619D02*
X84081809Y-93226000D01*
X84177047Y-93178380D01*
X84415142Y-93178380D01*
X84510380Y-93226000D01*
X84558000Y-93273619D01*
X84605619Y-93368857D01*
X84605619Y-93464095D01*
X84558000Y-93606952D01*
X83986571Y-94178380D01*
X84605619Y-94178380D01*
X81891333Y-96194571D02*
X82034190Y-96242190D01*
X82081809Y-96289809D01*
X82129428Y-96385047D01*
X82129428Y-96527904D01*
X82081809Y-96623142D01*
X82034190Y-96670761D01*
X81938952Y-96718380D01*
X81558000Y-96718380D01*
X81558000Y-95718380D01*
X81891333Y-95718380D01*
X81986571Y-95766000D01*
X82034190Y-95813619D01*
X82081809Y-95908857D01*
X82081809Y-96004095D01*
X82034190Y-96099333D01*
X81986571Y-96146952D01*
X81891333Y-96194571D01*
X81558000Y-96194571D01*
X82558000Y-96718380D02*
X82558000Y-95718380D01*
X83034190Y-96718380D02*
X83034190Y-95718380D01*
X83605619Y-96718380D01*
X83605619Y-95718380D01*
X84605619Y-96718380D02*
X84034190Y-96718380D01*
X84319904Y-96718380D02*
X84319904Y-95718380D01*
X84224666Y-95861238D01*
X84129428Y-95956476D01*
X84034190Y-96004095D01*
X82296095Y-67826000D02*
X82200857Y-67778380D01*
X82058000Y-67778380D01*
X81915142Y-67826000D01*
X81819904Y-67921238D01*
X81772285Y-68016476D01*
X81724666Y-68206952D01*
X81724666Y-68349809D01*
X81772285Y-68540285D01*
X81819904Y-68635523D01*
X81915142Y-68730761D01*
X82058000Y-68778380D01*
X82153238Y-68778380D01*
X82296095Y-68730761D01*
X82343714Y-68683142D01*
X82343714Y-68349809D01*
X82153238Y-68349809D01*
X82772285Y-68778380D02*
X82772285Y-67778380D01*
X83343714Y-68778380D01*
X83343714Y-67778380D01*
X83819904Y-68778380D02*
X83819904Y-67778380D01*
X84058000Y-67778380D01*
X84200857Y-67826000D01*
X84296095Y-67921238D01*
X84343714Y-68016476D01*
X84391333Y-68206952D01*
X84391333Y-68349809D01*
X84343714Y-68540285D01*
X84296095Y-68635523D01*
X84200857Y-68730761D01*
X84058000Y-68778380D01*
X83819904Y-68778380D01*
X82153238Y-70318380D02*
X82486571Y-71318380D01*
X82819904Y-70318380D01*
X83153238Y-71318380D02*
X83153238Y-70318380D01*
X83486571Y-71032666D01*
X83819904Y-70318380D01*
X83819904Y-71318380D01*
X81891333Y-73334571D02*
X82034190Y-73382190D01*
X82081809Y-73429809D01*
X82129428Y-73525047D01*
X82129428Y-73667904D01*
X82081809Y-73763142D01*
X82034190Y-73810761D01*
X81938952Y-73858380D01*
X81558000Y-73858380D01*
X81558000Y-72858380D01*
X81891333Y-72858380D01*
X81986571Y-72906000D01*
X82034190Y-72953619D01*
X82081809Y-73048857D01*
X82081809Y-73144095D01*
X82034190Y-73239333D01*
X81986571Y-73286952D01*
X81891333Y-73334571D01*
X81558000Y-73334571D01*
X82558000Y-73858380D02*
X82558000Y-72858380D01*
X83034190Y-73858380D02*
X83034190Y-72858380D01*
X83605619Y-73858380D01*
X83605619Y-72858380D01*
X84034190Y-72953619D02*
X84081809Y-72906000D01*
X84177047Y-72858380D01*
X84415142Y-72858380D01*
X84510380Y-72906000D01*
X84558000Y-72953619D01*
X84605619Y-73048857D01*
X84605619Y-73144095D01*
X84558000Y-73286952D01*
X83986571Y-73858380D01*
X84605619Y-73858380D01*
X81891333Y-75874571D02*
X82034190Y-75922190D01*
X82081809Y-75969809D01*
X82129428Y-76065047D01*
X82129428Y-76207904D01*
X82081809Y-76303142D01*
X82034190Y-76350761D01*
X81938952Y-76398380D01*
X81558000Y-76398380D01*
X81558000Y-75398380D01*
X81891333Y-75398380D01*
X81986571Y-75446000D01*
X82034190Y-75493619D01*
X82081809Y-75588857D01*
X82081809Y-75684095D01*
X82034190Y-75779333D01*
X81986571Y-75826952D01*
X81891333Y-75874571D01*
X81558000Y-75874571D01*
X82558000Y-76398380D02*
X82558000Y-75398380D01*
X83034190Y-76398380D02*
X83034190Y-75398380D01*
X83605619Y-76398380D01*
X83605619Y-75398380D01*
X84605619Y-76398380D02*
X84034190Y-76398380D01*
X84319904Y-76398380D02*
X84319904Y-75398380D01*
X84224666Y-75541238D01*
X84129428Y-75636476D01*
X84034190Y-75684095D01*
X82296095Y-47506000D02*
X82200857Y-47458380D01*
X82058000Y-47458380D01*
X81915142Y-47506000D01*
X81819904Y-47601238D01*
X81772285Y-47696476D01*
X81724666Y-47886952D01*
X81724666Y-48029809D01*
X81772285Y-48220285D01*
X81819904Y-48315523D01*
X81915142Y-48410761D01*
X82058000Y-48458380D01*
X82153238Y-48458380D01*
X82296095Y-48410761D01*
X82343714Y-48363142D01*
X82343714Y-48029809D01*
X82153238Y-48029809D01*
X82772285Y-48458380D02*
X82772285Y-47458380D01*
X83343714Y-48458380D01*
X83343714Y-47458380D01*
X83819904Y-48458380D02*
X83819904Y-47458380D01*
X84058000Y-47458380D01*
X84200857Y-47506000D01*
X84296095Y-47601238D01*
X84343714Y-47696476D01*
X84391333Y-47886952D01*
X84391333Y-48029809D01*
X84343714Y-48220285D01*
X84296095Y-48315523D01*
X84200857Y-48410761D01*
X84058000Y-48458380D01*
X83819904Y-48458380D01*
X82153238Y-49998380D02*
X82486571Y-50998380D01*
X82819904Y-49998380D01*
X83153238Y-50998380D02*
X83153238Y-49998380D01*
X83486571Y-50712666D01*
X83819904Y-49998380D01*
X83819904Y-50998380D01*
X81891333Y-53014571D02*
X82034190Y-53062190D01*
X82081809Y-53109809D01*
X82129428Y-53205047D01*
X82129428Y-53347904D01*
X82081809Y-53443142D01*
X82034190Y-53490761D01*
X81938952Y-53538380D01*
X81558000Y-53538380D01*
X81558000Y-52538380D01*
X81891333Y-52538380D01*
X81986571Y-52586000D01*
X82034190Y-52633619D01*
X82081809Y-52728857D01*
X82081809Y-52824095D01*
X82034190Y-52919333D01*
X81986571Y-52966952D01*
X81891333Y-53014571D01*
X81558000Y-53014571D01*
X82558000Y-53538380D02*
X82558000Y-52538380D01*
X83034190Y-53538380D02*
X83034190Y-52538380D01*
X83605619Y-53538380D01*
X83605619Y-52538380D01*
X84034190Y-52633619D02*
X84081809Y-52586000D01*
X84177047Y-52538380D01*
X84415142Y-52538380D01*
X84510380Y-52586000D01*
X84558000Y-52633619D01*
X84605619Y-52728857D01*
X84605619Y-52824095D01*
X84558000Y-52966952D01*
X83986571Y-53538380D01*
X84605619Y-53538380D01*
X81891333Y-55554571D02*
X82034190Y-55602190D01*
X82081809Y-55649809D01*
X82129428Y-55745047D01*
X82129428Y-55887904D01*
X82081809Y-55983142D01*
X82034190Y-56030761D01*
X81938952Y-56078380D01*
X81558000Y-56078380D01*
X81558000Y-55078380D01*
X81891333Y-55078380D01*
X81986571Y-55126000D01*
X82034190Y-55173619D01*
X82081809Y-55268857D01*
X82081809Y-55364095D01*
X82034190Y-55459333D01*
X81986571Y-55506952D01*
X81891333Y-55554571D01*
X81558000Y-55554571D01*
X82558000Y-56078380D02*
X82558000Y-55078380D01*
X83034190Y-56078380D02*
X83034190Y-55078380D01*
X83605619Y-56078380D01*
X83605619Y-55078380D01*
X84605619Y-56078380D02*
X84034190Y-56078380D01*
X84319904Y-56078380D02*
X84319904Y-55078380D01*
X84224666Y-55221238D01*
X84129428Y-55316476D01*
X84034190Y-55364095D01*
X109521809Y-88812666D02*
X109998000Y-88812666D01*
X109426571Y-89098380D02*
X109759904Y-88098380D01*
X110093238Y-89098380D01*
X110426571Y-89098380D02*
X110426571Y-88098380D01*
X110902761Y-89098380D02*
X110902761Y-88098380D01*
X111474190Y-89098380D01*
X111474190Y-88098380D01*
X112474190Y-89098380D02*
X111902761Y-89098380D01*
X112188476Y-89098380D02*
X112188476Y-88098380D01*
X112093238Y-88241238D01*
X111998000Y-88336476D01*
X111902761Y-88384095D01*
X110236095Y-95766000D02*
X110140857Y-95718380D01*
X109998000Y-95718380D01*
X109855142Y-95766000D01*
X109759904Y-95861238D01*
X109712285Y-95956476D01*
X109664666Y-96146952D01*
X109664666Y-96289809D01*
X109712285Y-96480285D01*
X109759904Y-96575523D01*
X109855142Y-96670761D01*
X109998000Y-96718380D01*
X110093238Y-96718380D01*
X110236095Y-96670761D01*
X110283714Y-96623142D01*
X110283714Y-96289809D01*
X110093238Y-96289809D01*
X110712285Y-96718380D02*
X110712285Y-95718380D01*
X111283714Y-96718380D01*
X111283714Y-95718380D01*
X111759904Y-96718380D02*
X111759904Y-95718380D01*
X111998000Y-95718380D01*
X112140857Y-95766000D01*
X112236095Y-95861238D01*
X112283714Y-95956476D01*
X112331333Y-96146952D01*
X112331333Y-96289809D01*
X112283714Y-96480285D01*
X112236095Y-96575523D01*
X112140857Y-96670761D01*
X111998000Y-96718380D01*
X111759904Y-96718380D01*
X110093238Y-93178380D02*
X110426571Y-94178380D01*
X110759904Y-93178380D01*
X111093238Y-94178380D02*
X111093238Y-93178380D01*
X111426571Y-93892666D01*
X111759904Y-93178380D01*
X111759904Y-94178380D01*
X109521809Y-91352666D02*
X109998000Y-91352666D01*
X109426571Y-91638380D02*
X109759904Y-90638380D01*
X110093238Y-91638380D01*
X110426571Y-91638380D02*
X110426571Y-90638380D01*
X110902761Y-91638380D02*
X110902761Y-90638380D01*
X111474190Y-91638380D01*
X111474190Y-90638380D01*
X111902761Y-90733619D02*
X111950380Y-90686000D01*
X112045619Y-90638380D01*
X112283714Y-90638380D01*
X112378952Y-90686000D01*
X112426571Y-90733619D01*
X112474190Y-90828857D01*
X112474190Y-90924095D01*
X112426571Y-91066952D01*
X111855142Y-91638380D01*
X112474190Y-91638380D01*
X110236095Y-75446000D02*
X110140857Y-75398380D01*
X109998000Y-75398380D01*
X109855142Y-75446000D01*
X109759904Y-75541238D01*
X109712285Y-75636476D01*
X109664666Y-75826952D01*
X109664666Y-75969809D01*
X109712285Y-76160285D01*
X109759904Y-76255523D01*
X109855142Y-76350761D01*
X109998000Y-76398380D01*
X110093238Y-76398380D01*
X110236095Y-76350761D01*
X110283714Y-76303142D01*
X110283714Y-75969809D01*
X110093238Y-75969809D01*
X110712285Y-76398380D02*
X110712285Y-75398380D01*
X111283714Y-76398380D01*
X111283714Y-75398380D01*
X111759904Y-76398380D02*
X111759904Y-75398380D01*
X111998000Y-75398380D01*
X112140857Y-75446000D01*
X112236095Y-75541238D01*
X112283714Y-75636476D01*
X112331333Y-75826952D01*
X112331333Y-75969809D01*
X112283714Y-76160285D01*
X112236095Y-76255523D01*
X112140857Y-76350761D01*
X111998000Y-76398380D01*
X111759904Y-76398380D01*
X110093238Y-72858380D02*
X110426571Y-73858380D01*
X110759904Y-72858380D01*
X111093238Y-73858380D02*
X111093238Y-72858380D01*
X111426571Y-73572666D01*
X111759904Y-72858380D01*
X111759904Y-73858380D01*
X109521809Y-71032666D02*
X109998000Y-71032666D01*
X109426571Y-71318380D02*
X109759904Y-70318380D01*
X110093238Y-71318380D01*
X110426571Y-71318380D02*
X110426571Y-70318380D01*
X110902761Y-71318380D02*
X110902761Y-70318380D01*
X111474190Y-71318380D01*
X111474190Y-70318380D01*
X111902761Y-70413619D02*
X111950380Y-70366000D01*
X112045619Y-70318380D01*
X112283714Y-70318380D01*
X112378952Y-70366000D01*
X112426571Y-70413619D01*
X112474190Y-70508857D01*
X112474190Y-70604095D01*
X112426571Y-70746952D01*
X111855142Y-71318380D01*
X112474190Y-71318380D01*
X109521809Y-68492666D02*
X109998000Y-68492666D01*
X109426571Y-68778380D02*
X109759904Y-67778380D01*
X110093238Y-68778380D01*
X110426571Y-68778380D02*
X110426571Y-67778380D01*
X110902761Y-68778380D02*
X110902761Y-67778380D01*
X111474190Y-68778380D01*
X111474190Y-67778380D01*
X112474190Y-68778380D02*
X111902761Y-68778380D01*
X112188476Y-68778380D02*
X112188476Y-67778380D01*
X112093238Y-67921238D01*
X111998000Y-68016476D01*
X111902761Y-68064095D01*
X110236095Y-55126000D02*
X110140857Y-55078380D01*
X109998000Y-55078380D01*
X109855142Y-55126000D01*
X109759904Y-55221238D01*
X109712285Y-55316476D01*
X109664666Y-55506952D01*
X109664666Y-55649809D01*
X109712285Y-55840285D01*
X109759904Y-55935523D01*
X109855142Y-56030761D01*
X109998000Y-56078380D01*
X110093238Y-56078380D01*
X110236095Y-56030761D01*
X110283714Y-55983142D01*
X110283714Y-55649809D01*
X110093238Y-55649809D01*
X110712285Y-56078380D02*
X110712285Y-55078380D01*
X111283714Y-56078380D01*
X111283714Y-55078380D01*
X111759904Y-56078380D02*
X111759904Y-55078380D01*
X111998000Y-55078380D01*
X112140857Y-55126000D01*
X112236095Y-55221238D01*
X112283714Y-55316476D01*
X112331333Y-55506952D01*
X112331333Y-55649809D01*
X112283714Y-55840285D01*
X112236095Y-55935523D01*
X112140857Y-56030761D01*
X111998000Y-56078380D01*
X111759904Y-56078380D01*
X110093238Y-52538380D02*
X110426571Y-53538380D01*
X110759904Y-52538380D01*
X111093238Y-53538380D02*
X111093238Y-52538380D01*
X111426571Y-53252666D01*
X111759904Y-52538380D01*
X111759904Y-53538380D01*
X109521809Y-50712666D02*
X109998000Y-50712666D01*
X109426571Y-50998380D02*
X109759904Y-49998380D01*
X110093238Y-50998380D01*
X110426571Y-50998380D02*
X110426571Y-49998380D01*
X110902761Y-50998380D02*
X110902761Y-49998380D01*
X111474190Y-50998380D01*
X111474190Y-49998380D01*
X111902761Y-50093619D02*
X111950380Y-50046000D01*
X112045619Y-49998380D01*
X112283714Y-49998380D01*
X112378952Y-50046000D01*
X112426571Y-50093619D01*
X112474190Y-50188857D01*
X112474190Y-50284095D01*
X112426571Y-50426952D01*
X111855142Y-50998380D01*
X112474190Y-50998380D01*
X109521809Y-48172666D02*
X109998000Y-48172666D01*
X109426571Y-48458380D02*
X109759904Y-47458380D01*
X110093238Y-48458380D01*
X110426571Y-48458380D02*
X110426571Y-47458380D01*
X110902761Y-48458380D02*
X110902761Y-47458380D01*
X111474190Y-48458380D01*
X111474190Y-47458380D01*
X112474190Y-48458380D02*
X111902761Y-48458380D01*
X112188476Y-48458380D02*
X112188476Y-47458380D01*
X112093238Y-47601238D01*
X111998000Y-47696476D01*
X111902761Y-47744095D01*
D15*
%TO.C,G\u002A\u002A\u002A*%
G36*
X89890408Y-117020609D02*
G01*
X90280643Y-117089290D01*
X90662047Y-117197719D01*
X91031334Y-117345620D01*
X91111917Y-117384063D01*
X91466792Y-117581136D01*
X91794596Y-117808822D01*
X92094087Y-118064583D01*
X92364025Y-118345884D01*
X92603167Y-118650186D01*
X92810272Y-118974954D01*
X92984100Y-119317650D01*
X93123409Y-119675738D01*
X93226958Y-120046681D01*
X93293506Y-120427942D01*
X93321811Y-120816984D01*
X93310632Y-121211270D01*
X93258729Y-121608263D01*
X93235657Y-121724588D01*
X93133426Y-122104348D01*
X92993687Y-122469047D01*
X92818864Y-122816272D01*
X92611378Y-123143608D01*
X92373651Y-123448640D01*
X92108107Y-123728954D01*
X91817167Y-123982136D01*
X91503253Y-124205772D01*
X91168789Y-124397446D01*
X90816196Y-124554744D01*
X90447896Y-124675252D01*
X90221882Y-124728590D01*
X89959467Y-124771746D01*
X89682908Y-124799331D01*
X89408796Y-124810249D01*
X89153724Y-124803407D01*
X89122250Y-124801110D01*
X88711835Y-124748299D01*
X88316687Y-124656182D01*
X87937707Y-124525141D01*
X87575797Y-124355554D01*
X87231859Y-124147803D01*
X86906795Y-123902266D01*
X86827991Y-123834500D01*
X86576533Y-123589429D01*
X86342205Y-123315051D01*
X86130910Y-123019764D01*
X85948551Y-122711965D01*
X85801032Y-122400054D01*
X85776423Y-122338421D01*
X85645084Y-121943074D01*
X85555754Y-121545934D01*
X85508380Y-121148340D01*
X85502913Y-120751632D01*
X85539302Y-120357148D01*
X85617497Y-119966227D01*
X85737448Y-119580207D01*
X85894358Y-119210242D01*
X85954944Y-119099525D01*
X86721137Y-119099525D01*
X86727605Y-119147269D01*
X86749457Y-119190670D01*
X86792412Y-119246336D01*
X86802886Y-119259013D01*
X86853197Y-119327431D01*
X86893490Y-119396016D01*
X86911241Y-119438588D01*
X86916599Y-119471952D01*
X86925089Y-119543263D01*
X86936330Y-119648281D01*
X86949943Y-119782766D01*
X86965547Y-119942477D01*
X86982762Y-120123173D01*
X87001208Y-120320616D01*
X87020505Y-120530563D01*
X87040274Y-120748775D01*
X87060133Y-120971013D01*
X87079703Y-121193034D01*
X87098605Y-121410599D01*
X87116457Y-121619468D01*
X87132880Y-121815401D01*
X87147494Y-121994156D01*
X87159919Y-122151495D01*
X87169774Y-122283175D01*
X87176680Y-122384958D01*
X87179127Y-122427495D01*
X87184221Y-122533534D01*
X87185744Y-122606598D01*
X87182444Y-122655986D01*
X87173066Y-122690991D01*
X87156357Y-122720912D01*
X87135796Y-122748840D01*
X87072024Y-122850041D01*
X87044748Y-122941103D01*
X87047471Y-123010243D01*
X87056651Y-123049077D01*
X87073001Y-123069662D01*
X87107818Y-123077789D01*
X87172397Y-123079252D01*
X87182046Y-123079255D01*
X87257671Y-123076367D01*
X87354855Y-123068545D01*
X87463941Y-123057050D01*
X87575270Y-123043144D01*
X87679183Y-123028089D01*
X87766023Y-123013145D01*
X87826130Y-122999576D01*
X87845370Y-122992606D01*
X87873850Y-122956055D01*
X87884123Y-122897061D01*
X87874628Y-122832103D01*
X87863172Y-122804720D01*
X87834301Y-122772686D01*
X87781619Y-122730789D01*
X87735585Y-122700113D01*
X87674164Y-122656330D01*
X87627718Y-122612300D01*
X87610732Y-122586832D01*
X87594940Y-122526911D01*
X87578251Y-122430787D01*
X87561319Y-122304560D01*
X87544798Y-122154332D01*
X87529340Y-121986206D01*
X87515598Y-121806282D01*
X87504226Y-121620661D01*
X87501426Y-121565838D01*
X87490340Y-121337010D01*
X87481277Y-121146986D01*
X87474131Y-120992288D01*
X87468795Y-120869439D01*
X87465165Y-120774963D01*
X87463135Y-120705382D01*
X87462598Y-120657221D01*
X87463448Y-120627002D01*
X87465580Y-120611248D01*
X87468888Y-120606483D01*
X87472268Y-120608206D01*
X87483230Y-120631150D01*
X87506892Y-120689302D01*
X87541505Y-120778078D01*
X87585320Y-120892896D01*
X87636585Y-121029171D01*
X87693552Y-121182322D01*
X87750682Y-121337428D01*
X87812200Y-121503616D01*
X87870597Y-121658329D01*
X87923974Y-121796767D01*
X87970436Y-121914131D01*
X88008085Y-122005621D01*
X88035023Y-122066439D01*
X88048619Y-122091070D01*
X88095135Y-122115735D01*
X88165465Y-122124878D01*
X88244522Y-122119670D01*
X88317218Y-122101285D01*
X88368465Y-122070895D01*
X88372979Y-122065860D01*
X88389059Y-122029509D01*
X88410093Y-121956886D01*
X88434970Y-121853615D01*
X88462579Y-121725321D01*
X88491807Y-121577629D01*
X88521545Y-121416164D01*
X88550679Y-121246549D01*
X88578098Y-121074409D01*
X88602692Y-120905370D01*
X88603555Y-120899088D01*
X88625101Y-120744576D01*
X88642599Y-120628491D01*
X88657276Y-120547258D01*
X88670362Y-120497302D01*
X88683087Y-120475047D01*
X88696681Y-120476917D01*
X88712371Y-120499337D01*
X88729151Y-120533798D01*
X88739938Y-120563973D01*
X88750066Y-120607521D01*
X88759852Y-120667862D01*
X88769611Y-120748419D01*
X88779658Y-120852612D01*
X88790310Y-120983862D01*
X88801883Y-121145590D01*
X88814693Y-121341218D01*
X88829055Y-121574166D01*
X88836129Y-121692423D01*
X88848691Y-121902441D01*
X88858934Y-122074189D01*
X88866748Y-122211675D01*
X88872021Y-122318905D01*
X88874645Y-122399886D01*
X88874507Y-122458623D01*
X88871498Y-122499125D01*
X88865507Y-122525398D01*
X88856424Y-122541447D01*
X88844139Y-122551280D01*
X88828540Y-122558903D01*
X88812018Y-122566947D01*
X88734339Y-122615450D01*
X88689646Y-122663957D01*
X88670101Y-122723660D01*
X88667167Y-122773729D01*
X88672177Y-122842925D01*
X88684733Y-122900307D01*
X88690350Y-122913690D01*
X88698126Y-122925961D01*
X88709895Y-122935601D01*
X88730272Y-122942864D01*
X88763872Y-122948004D01*
X88815307Y-122951275D01*
X88889194Y-122952930D01*
X88990145Y-122953224D01*
X89122776Y-122952410D01*
X89291700Y-122950743D01*
X89351809Y-122950097D01*
X89990083Y-122943184D01*
X90127667Y-123019397D01*
X90202593Y-123057180D01*
X90283516Y-123089307D01*
X90380222Y-123118897D01*
X90502498Y-123149072D01*
X90603917Y-123171236D01*
X90708216Y-123181531D01*
X90839691Y-123173149D01*
X91003473Y-123145749D01*
X91010741Y-123144258D01*
X91180907Y-123097593D01*
X91351932Y-123029818D01*
X91514483Y-122946106D01*
X91659227Y-122851628D01*
X91776832Y-122751557D01*
X91831896Y-122689142D01*
X91878513Y-122610239D01*
X91926876Y-122495980D01*
X91974677Y-122353145D01*
X92019608Y-122188518D01*
X92053485Y-122038147D01*
X92071708Y-121941980D01*
X92084107Y-121854924D01*
X92091447Y-121765582D01*
X92094498Y-121662559D01*
X92094026Y-121534458D01*
X92092681Y-121456063D01*
X92085583Y-121100171D01*
X91979818Y-120899088D01*
X91859316Y-120705529D01*
X91721386Y-120549536D01*
X91566709Y-120431834D01*
X91511281Y-120401100D01*
X91451145Y-120372638D01*
X91397021Y-120353763D01*
X91336771Y-120342115D01*
X91258259Y-120335333D01*
X91151508Y-120331121D01*
X90878766Y-120340014D01*
X90609262Y-120381190D01*
X90510850Y-120405090D01*
X90460116Y-120418818D01*
X90475327Y-120191748D01*
X90488082Y-120027394D01*
X90501909Y-119902307D01*
X90517329Y-119813426D01*
X90534865Y-119757687D01*
X90553496Y-119732930D01*
X90581514Y-119728158D01*
X90646235Y-119723819D01*
X90742031Y-119720079D01*
X90863272Y-119717105D01*
X91004330Y-119715064D01*
X91159576Y-119714120D01*
X91191292Y-119714079D01*
X91368521Y-119713827D01*
X91508271Y-119713080D01*
X91615392Y-119711538D01*
X91694738Y-119708899D01*
X91751161Y-119704863D01*
X91789513Y-119699128D01*
X91814647Y-119691394D01*
X91831415Y-119681358D01*
X91839740Y-119673848D01*
X91862052Y-119635051D01*
X91888630Y-119563528D01*
X91917147Y-119468368D01*
X91945278Y-119358662D01*
X91970696Y-119243501D01*
X91991074Y-119131974D01*
X92004086Y-119033173D01*
X92004311Y-119030797D01*
X92007720Y-118933873D01*
X91992671Y-118871485D01*
X91953771Y-118837901D01*
X91885628Y-118827392D01*
X91816162Y-118830830D01*
X91738822Y-118842689D01*
X91671844Y-118861224D01*
X91641965Y-118875147D01*
X91623681Y-118884295D01*
X91597041Y-118891363D01*
X91557523Y-118896472D01*
X91500610Y-118899742D01*
X91421781Y-118901296D01*
X91316517Y-118901254D01*
X91180298Y-118899738D01*
X91008607Y-118896868D01*
X90905023Y-118894905D01*
X90218603Y-118881559D01*
X90205241Y-118934796D01*
X90199446Y-118972042D01*
X90191289Y-119043942D01*
X90181515Y-119142931D01*
X90170870Y-119261445D01*
X90160098Y-119391919D01*
X90159578Y-119398519D01*
X90147161Y-119548416D01*
X90133138Y-119704773D01*
X90118742Y-119854635D01*
X90105207Y-119985046D01*
X90096278Y-120063005D01*
X90065102Y-120321978D01*
X90039655Y-120541556D01*
X90019721Y-120724258D01*
X90005083Y-120872603D01*
X89995528Y-120989110D01*
X89990838Y-121076297D01*
X89990799Y-121136685D01*
X89995196Y-121172791D01*
X90000352Y-121184459D01*
X90038275Y-121204099D01*
X90101827Y-121214864D01*
X90175120Y-121216134D01*
X90242262Y-121207286D01*
X90276163Y-121195244D01*
X90304717Y-121166952D01*
X90343979Y-121111517D01*
X90386306Y-121039943D01*
X90393917Y-121025708D01*
X90482764Y-120886530D01*
X90581679Y-120788316D01*
X90691047Y-120730818D01*
X90811257Y-120713790D01*
X90872106Y-120719781D01*
X90935212Y-120734619D01*
X90987093Y-120758417D01*
X91028927Y-120795122D01*
X91061892Y-120848686D01*
X91087168Y-120923057D01*
X91105930Y-121022185D01*
X91119358Y-121150019D01*
X91128630Y-121310511D01*
X91134923Y-121507608D01*
X91137075Y-121608171D01*
X91140062Y-121787419D01*
X91141185Y-121932370D01*
X91140144Y-122051032D01*
X91136641Y-122151411D01*
X91130375Y-122241516D01*
X91121048Y-122329354D01*
X91108361Y-122422932D01*
X91106020Y-122438828D01*
X91088722Y-122545203D01*
X91070840Y-122637880D01*
X91054284Y-122708010D01*
X91040963Y-122746740D01*
X91038910Y-122749873D01*
X90997836Y-122775347D01*
X90926472Y-122797376D01*
X90836849Y-122813610D01*
X90740997Y-122821698D01*
X90674336Y-122821125D01*
X90561583Y-122814671D01*
X90568530Y-122473334D01*
X90575477Y-122131998D01*
X90507034Y-122054046D01*
X90419297Y-121974634D01*
X90321185Y-121919405D01*
X90225169Y-121895013D01*
X90207885Y-121894416D01*
X90139045Y-121907411D01*
X90058959Y-121940266D01*
X89982082Y-121985028D01*
X89922870Y-122033745D01*
X89900959Y-122063255D01*
X89887741Y-122112243D01*
X89878475Y-122193798D01*
X89874163Y-122298258D01*
X89873979Y-122323210D01*
X89871652Y-122430942D01*
X89863455Y-122501236D01*
X89846983Y-122538845D01*
X89819833Y-122548522D01*
X89779600Y-122535022D01*
X89769487Y-122529806D01*
X89748738Y-122518796D01*
X89730753Y-122507572D01*
X89715272Y-122493173D01*
X89702038Y-122472638D01*
X89690790Y-122443007D01*
X89681269Y-122401318D01*
X89673218Y-122344610D01*
X89666376Y-122269923D01*
X89660484Y-122174295D01*
X89655284Y-122054765D01*
X89650516Y-121908373D01*
X89645922Y-121732157D01*
X89641242Y-121523156D01*
X89636218Y-121278411D01*
X89630590Y-120994958D01*
X89629235Y-120926635D01*
X89624298Y-120676516D01*
X89619602Y-120435953D01*
X89615218Y-120208751D01*
X89611217Y-119998715D01*
X89607669Y-119809651D01*
X89604646Y-119645362D01*
X89602219Y-119509656D01*
X89600460Y-119406335D01*
X89599437Y-119339207D01*
X89599206Y-119317616D01*
X89601332Y-119239834D01*
X89612125Y-119187636D01*
X89636662Y-119144428D01*
X89661337Y-119114493D01*
X89716976Y-119064581D01*
X89777960Y-119028622D01*
X89793360Y-119023083D01*
X89850709Y-118993590D01*
X89890240Y-118951039D01*
X89907833Y-118885595D01*
X89907838Y-118803233D01*
X89892369Y-118721705D01*
X89863540Y-118658762D01*
X89854094Y-118647608D01*
X89839914Y-118634707D01*
X89823044Y-118625164D01*
X89798152Y-118618879D01*
X89759906Y-118615754D01*
X89702973Y-118615690D01*
X89622020Y-118618590D01*
X89511716Y-118624354D01*
X89366728Y-118632883D01*
X89294339Y-118637258D01*
X89113396Y-118649223D01*
X88965879Y-118661098D01*
X88853990Y-118672656D01*
X88779934Y-118683668D01*
X88745915Y-118693905D01*
X88745462Y-118694259D01*
X88717916Y-118733666D01*
X88702460Y-118777604D01*
X88695243Y-118812052D01*
X88680518Y-118882446D01*
X88659431Y-118983292D01*
X88633133Y-119109098D01*
X88602770Y-119254372D01*
X88569492Y-119413619D01*
X88551941Y-119497615D01*
X88517589Y-119661684D01*
X88485477Y-119814411D01*
X88456765Y-119950328D01*
X88432613Y-120063971D01*
X88414180Y-120149875D01*
X88402626Y-120202573D01*
X88399764Y-120214870D01*
X88385965Y-120269847D01*
X88336159Y-120187593D01*
X88266616Y-120057382D01*
X88194495Y-119894454D01*
X88123300Y-119707986D01*
X88056536Y-119507153D01*
X87997922Y-119301952D01*
X87957227Y-119146894D01*
X87925330Y-119027760D01*
X87900495Y-118939471D01*
X87880986Y-118876950D01*
X87865069Y-118835117D01*
X87851007Y-118808894D01*
X87837066Y-118793203D01*
X87821509Y-118782966D01*
X87820365Y-118782349D01*
X87785086Y-118776502D01*
X87715746Y-118775433D01*
X87619696Y-118778484D01*
X87504287Y-118784999D01*
X87376871Y-118794321D01*
X87244798Y-118805792D01*
X87115421Y-118818756D01*
X86996089Y-118832555D01*
X86894154Y-118846532D01*
X86816968Y-118860031D01*
X86771881Y-118872394D01*
X86764634Y-118876716D01*
X86745186Y-118915596D01*
X86729984Y-118981616D01*
X86724336Y-119030830D01*
X86721137Y-119099525D01*
X85954944Y-119099525D01*
X86085112Y-118861653D01*
X86309560Y-118535183D01*
X86564741Y-118233361D01*
X86847694Y-117958719D01*
X87155458Y-117713784D01*
X87485072Y-117501089D01*
X87833576Y-117323161D01*
X88198007Y-117182531D01*
X88306956Y-117148880D01*
X88699619Y-117055812D01*
X89096608Y-117003594D01*
X89494634Y-116991952D01*
X89890408Y-117020609D01*
G37*
X89890408Y-117020609D02*
X90280643Y-117089290D01*
X90662047Y-117197719D01*
X91031334Y-117345620D01*
X91111917Y-117384063D01*
X91466792Y-117581136D01*
X91794596Y-117808822D01*
X92094087Y-118064583D01*
X92364025Y-118345884D01*
X92603167Y-118650186D01*
X92810272Y-118974954D01*
X92984100Y-119317650D01*
X93123409Y-119675738D01*
X93226958Y-120046681D01*
X93293506Y-120427942D01*
X93321811Y-120816984D01*
X93310632Y-121211270D01*
X93258729Y-121608263D01*
X93235657Y-121724588D01*
X93133426Y-122104348D01*
X92993687Y-122469047D01*
X92818864Y-122816272D01*
X92611378Y-123143608D01*
X92373651Y-123448640D01*
X92108107Y-123728954D01*
X91817167Y-123982136D01*
X91503253Y-124205772D01*
X91168789Y-124397446D01*
X90816196Y-124554744D01*
X90447896Y-124675252D01*
X90221882Y-124728590D01*
X89959467Y-124771746D01*
X89682908Y-124799331D01*
X89408796Y-124810249D01*
X89153724Y-124803407D01*
X89122250Y-124801110D01*
X88711835Y-124748299D01*
X88316687Y-124656182D01*
X87937707Y-124525141D01*
X87575797Y-124355554D01*
X87231859Y-124147803D01*
X86906795Y-123902266D01*
X86827991Y-123834500D01*
X86576533Y-123589429D01*
X86342205Y-123315051D01*
X86130910Y-123019764D01*
X85948551Y-122711965D01*
X85801032Y-122400054D01*
X85776423Y-122338421D01*
X85645084Y-121943074D01*
X85555754Y-121545934D01*
X85508380Y-121148340D01*
X85502913Y-120751632D01*
X85539302Y-120357148D01*
X85617497Y-119966227D01*
X85737448Y-119580207D01*
X85894358Y-119210242D01*
X85954944Y-119099525D01*
X86721137Y-119099525D01*
X86727605Y-119147269D01*
X86749457Y-119190670D01*
X86792412Y-119246336D01*
X86802886Y-119259013D01*
X86853197Y-119327431D01*
X86893490Y-119396016D01*
X86911241Y-119438588D01*
X86916599Y-119471952D01*
X86925089Y-119543263D01*
X86936330Y-119648281D01*
X86949943Y-119782766D01*
X86965547Y-119942477D01*
X86982762Y-120123173D01*
X87001208Y-120320616D01*
X87020505Y-120530563D01*
X87040274Y-120748775D01*
X87060133Y-120971013D01*
X87079703Y-121193034D01*
X87098605Y-121410599D01*
X87116457Y-121619468D01*
X87132880Y-121815401D01*
X87147494Y-121994156D01*
X87159919Y-122151495D01*
X87169774Y-122283175D01*
X87176680Y-122384958D01*
X87179127Y-122427495D01*
X87184221Y-122533534D01*
X87185744Y-122606598D01*
X87182444Y-122655986D01*
X87173066Y-122690991D01*
X87156357Y-122720912D01*
X87135796Y-122748840D01*
X87072024Y-122850041D01*
X87044748Y-122941103D01*
X87047471Y-123010243D01*
X87056651Y-123049077D01*
X87073001Y-123069662D01*
X87107818Y-123077789D01*
X87172397Y-123079252D01*
X87182046Y-123079255D01*
X87257671Y-123076367D01*
X87354855Y-123068545D01*
X87463941Y-123057050D01*
X87575270Y-123043144D01*
X87679183Y-123028089D01*
X87766023Y-123013145D01*
X87826130Y-122999576D01*
X87845370Y-122992606D01*
X87873850Y-122956055D01*
X87884123Y-122897061D01*
X87874628Y-122832103D01*
X87863172Y-122804720D01*
X87834301Y-122772686D01*
X87781619Y-122730789D01*
X87735585Y-122700113D01*
X87674164Y-122656330D01*
X87627718Y-122612300D01*
X87610732Y-122586832D01*
X87594940Y-122526911D01*
X87578251Y-122430787D01*
X87561319Y-122304560D01*
X87544798Y-122154332D01*
X87529340Y-121986206D01*
X87515598Y-121806282D01*
X87504226Y-121620661D01*
X87501426Y-121565838D01*
X87490340Y-121337010D01*
X87481277Y-121146986D01*
X87474131Y-120992288D01*
X87468795Y-120869439D01*
X87465165Y-120774963D01*
X87463135Y-120705382D01*
X87462598Y-120657221D01*
X87463448Y-120627002D01*
X87465580Y-120611248D01*
X87468888Y-120606483D01*
X87472268Y-120608206D01*
X87483230Y-120631150D01*
X87506892Y-120689302D01*
X87541505Y-120778078D01*
X87585320Y-120892896D01*
X87636585Y-121029171D01*
X87693552Y-121182322D01*
X87750682Y-121337428D01*
X87812200Y-121503616D01*
X87870597Y-121658329D01*
X87923974Y-121796767D01*
X87970436Y-121914131D01*
X88008085Y-122005621D01*
X88035023Y-122066439D01*
X88048619Y-122091070D01*
X88095135Y-122115735D01*
X88165465Y-122124878D01*
X88244522Y-122119670D01*
X88317218Y-122101285D01*
X88368465Y-122070895D01*
X88372979Y-122065860D01*
X88389059Y-122029509D01*
X88410093Y-121956886D01*
X88434970Y-121853615D01*
X88462579Y-121725321D01*
X88491807Y-121577629D01*
X88521545Y-121416164D01*
X88550679Y-121246549D01*
X88578098Y-121074409D01*
X88602692Y-120905370D01*
X88603555Y-120899088D01*
X88625101Y-120744576D01*
X88642599Y-120628491D01*
X88657276Y-120547258D01*
X88670362Y-120497302D01*
X88683087Y-120475047D01*
X88696681Y-120476917D01*
X88712371Y-120499337D01*
X88729151Y-120533798D01*
X88739938Y-120563973D01*
X88750066Y-120607521D01*
X88759852Y-120667862D01*
X88769611Y-120748419D01*
X88779658Y-120852612D01*
X88790310Y-120983862D01*
X88801883Y-121145590D01*
X88814693Y-121341218D01*
X88829055Y-121574166D01*
X88836129Y-121692423D01*
X88848691Y-121902441D01*
X88858934Y-122074189D01*
X88866748Y-122211675D01*
X88872021Y-122318905D01*
X88874645Y-122399886D01*
X88874507Y-122458623D01*
X88871498Y-122499125D01*
X88865507Y-122525398D01*
X88856424Y-122541447D01*
X88844139Y-122551280D01*
X88828540Y-122558903D01*
X88812018Y-122566947D01*
X88734339Y-122615450D01*
X88689646Y-122663957D01*
X88670101Y-122723660D01*
X88667167Y-122773729D01*
X88672177Y-122842925D01*
X88684733Y-122900307D01*
X88690350Y-122913690D01*
X88698126Y-122925961D01*
X88709895Y-122935601D01*
X88730272Y-122942864D01*
X88763872Y-122948004D01*
X88815307Y-122951275D01*
X88889194Y-122952930D01*
X88990145Y-122953224D01*
X89122776Y-122952410D01*
X89291700Y-122950743D01*
X89351809Y-122950097D01*
X89990083Y-122943184D01*
X90127667Y-123019397D01*
X90202593Y-123057180D01*
X90283516Y-123089307D01*
X90380222Y-123118897D01*
X90502498Y-123149072D01*
X90603917Y-123171236D01*
X90708216Y-123181531D01*
X90839691Y-123173149D01*
X91003473Y-123145749D01*
X91010741Y-123144258D01*
X91180907Y-123097593D01*
X91351932Y-123029818D01*
X91514483Y-122946106D01*
X91659227Y-122851628D01*
X91776832Y-122751557D01*
X91831896Y-122689142D01*
X91878513Y-122610239D01*
X91926876Y-122495980D01*
X91974677Y-122353145D01*
X92019608Y-122188518D01*
X92053485Y-122038147D01*
X92071708Y-121941980D01*
X92084107Y-121854924D01*
X92091447Y-121765582D01*
X92094498Y-121662559D01*
X92094026Y-121534458D01*
X92092681Y-121456063D01*
X92085583Y-121100171D01*
X91979818Y-120899088D01*
X91859316Y-120705529D01*
X91721386Y-120549536D01*
X91566709Y-120431834D01*
X91511281Y-120401100D01*
X91451145Y-120372638D01*
X91397021Y-120353763D01*
X91336771Y-120342115D01*
X91258259Y-120335333D01*
X91151508Y-120331121D01*
X90878766Y-120340014D01*
X90609262Y-120381190D01*
X90510850Y-120405090D01*
X90460116Y-120418818D01*
X90475327Y-120191748D01*
X90488082Y-120027394D01*
X90501909Y-119902307D01*
X90517329Y-119813426D01*
X90534865Y-119757687D01*
X90553496Y-119732930D01*
X90581514Y-119728158D01*
X90646235Y-119723819D01*
X90742031Y-119720079D01*
X90863272Y-119717105D01*
X91004330Y-119715064D01*
X91159576Y-119714120D01*
X91191292Y-119714079D01*
X91368521Y-119713827D01*
X91508271Y-119713080D01*
X91615392Y-119711538D01*
X91694738Y-119708899D01*
X91751161Y-119704863D01*
X91789513Y-119699128D01*
X91814647Y-119691394D01*
X91831415Y-119681358D01*
X91839740Y-119673848D01*
X91862052Y-119635051D01*
X91888630Y-119563528D01*
X91917147Y-119468368D01*
X91945278Y-119358662D01*
X91970696Y-119243501D01*
X91991074Y-119131974D01*
X92004086Y-119033173D01*
X92004311Y-119030797D01*
X92007720Y-118933873D01*
X91992671Y-118871485D01*
X91953771Y-118837901D01*
X91885628Y-118827392D01*
X91816162Y-118830830D01*
X91738822Y-118842689D01*
X91671844Y-118861224D01*
X91641965Y-118875147D01*
X91623681Y-118884295D01*
X91597041Y-118891363D01*
X91557523Y-118896472D01*
X91500610Y-118899742D01*
X91421781Y-118901296D01*
X91316517Y-118901254D01*
X91180298Y-118899738D01*
X91008607Y-118896868D01*
X90905023Y-118894905D01*
X90218603Y-118881559D01*
X90205241Y-118934796D01*
X90199446Y-118972042D01*
X90191289Y-119043942D01*
X90181515Y-119142931D01*
X90170870Y-119261445D01*
X90160098Y-119391919D01*
X90159578Y-119398519D01*
X90147161Y-119548416D01*
X90133138Y-119704773D01*
X90118742Y-119854635D01*
X90105207Y-119985046D01*
X90096278Y-120063005D01*
X90065102Y-120321978D01*
X90039655Y-120541556D01*
X90019721Y-120724258D01*
X90005083Y-120872603D01*
X89995528Y-120989110D01*
X89990838Y-121076297D01*
X89990799Y-121136685D01*
X89995196Y-121172791D01*
X90000352Y-121184459D01*
X90038275Y-121204099D01*
X90101827Y-121214864D01*
X90175120Y-121216134D01*
X90242262Y-121207286D01*
X90276163Y-121195244D01*
X90304717Y-121166952D01*
X90343979Y-121111517D01*
X90386306Y-121039943D01*
X90393917Y-121025708D01*
X90482764Y-120886530D01*
X90581679Y-120788316D01*
X90691047Y-120730818D01*
X90811257Y-120713790D01*
X90872106Y-120719781D01*
X90935212Y-120734619D01*
X90987093Y-120758417D01*
X91028927Y-120795122D01*
X91061892Y-120848686D01*
X91087168Y-120923057D01*
X91105930Y-121022185D01*
X91119358Y-121150019D01*
X91128630Y-121310511D01*
X91134923Y-121507608D01*
X91137075Y-121608171D01*
X91140062Y-121787419D01*
X91141185Y-121932370D01*
X91140144Y-122051032D01*
X91136641Y-122151411D01*
X91130375Y-122241516D01*
X91121048Y-122329354D01*
X91108361Y-122422932D01*
X91106020Y-122438828D01*
X91088722Y-122545203D01*
X91070840Y-122637880D01*
X91054284Y-122708010D01*
X91040963Y-122746740D01*
X91038910Y-122749873D01*
X90997836Y-122775347D01*
X90926472Y-122797376D01*
X90836849Y-122813610D01*
X90740997Y-122821698D01*
X90674336Y-122821125D01*
X90561583Y-122814671D01*
X90568530Y-122473334D01*
X90575477Y-122131998D01*
X90507034Y-122054046D01*
X90419297Y-121974634D01*
X90321185Y-121919405D01*
X90225169Y-121895013D01*
X90207885Y-121894416D01*
X90139045Y-121907411D01*
X90058959Y-121940266D01*
X89982082Y-121985028D01*
X89922870Y-122033745D01*
X89900959Y-122063255D01*
X89887741Y-122112243D01*
X89878475Y-122193798D01*
X89874163Y-122298258D01*
X89873979Y-122323210D01*
X89871652Y-122430942D01*
X89863455Y-122501236D01*
X89846983Y-122538845D01*
X89819833Y-122548522D01*
X89779600Y-122535022D01*
X89769487Y-122529806D01*
X89748738Y-122518796D01*
X89730753Y-122507572D01*
X89715272Y-122493173D01*
X89702038Y-122472638D01*
X89690790Y-122443007D01*
X89681269Y-122401318D01*
X89673218Y-122344610D01*
X89666376Y-122269923D01*
X89660484Y-122174295D01*
X89655284Y-122054765D01*
X89650516Y-121908373D01*
X89645922Y-121732157D01*
X89641242Y-121523156D01*
X89636218Y-121278411D01*
X89630590Y-120994958D01*
X89629235Y-120926635D01*
X89624298Y-120676516D01*
X89619602Y-120435953D01*
X89615218Y-120208751D01*
X89611217Y-119998715D01*
X89607669Y-119809651D01*
X89604646Y-119645362D01*
X89602219Y-119509656D01*
X89600460Y-119406335D01*
X89599437Y-119339207D01*
X89599206Y-119317616D01*
X89601332Y-119239834D01*
X89612125Y-119187636D01*
X89636662Y-119144428D01*
X89661337Y-119114493D01*
X89716976Y-119064581D01*
X89777960Y-119028622D01*
X89793360Y-119023083D01*
X89850709Y-118993590D01*
X89890240Y-118951039D01*
X89907833Y-118885595D01*
X89907838Y-118803233D01*
X89892369Y-118721705D01*
X89863540Y-118658762D01*
X89854094Y-118647608D01*
X89839914Y-118634707D01*
X89823044Y-118625164D01*
X89798152Y-118618879D01*
X89759906Y-118615754D01*
X89702973Y-118615690D01*
X89622020Y-118618590D01*
X89511716Y-118624354D01*
X89366728Y-118632883D01*
X89294339Y-118637258D01*
X89113396Y-118649223D01*
X88965879Y-118661098D01*
X88853990Y-118672656D01*
X88779934Y-118683668D01*
X88745915Y-118693905D01*
X88745462Y-118694259D01*
X88717916Y-118733666D01*
X88702460Y-118777604D01*
X88695243Y-118812052D01*
X88680518Y-118882446D01*
X88659431Y-118983292D01*
X88633133Y-119109098D01*
X88602770Y-119254372D01*
X88569492Y-119413619D01*
X88551941Y-119497615D01*
X88517589Y-119661684D01*
X88485477Y-119814411D01*
X88456765Y-119950328D01*
X88432613Y-120063971D01*
X88414180Y-120149875D01*
X88402626Y-120202573D01*
X88399764Y-120214870D01*
X88385965Y-120269847D01*
X88336159Y-120187593D01*
X88266616Y-120057382D01*
X88194495Y-119894454D01*
X88123300Y-119707986D01*
X88056536Y-119507153D01*
X87997922Y-119301952D01*
X87957227Y-119146894D01*
X87925330Y-119027760D01*
X87900495Y-118939471D01*
X87880986Y-118876950D01*
X87865069Y-118835117D01*
X87851007Y-118808894D01*
X87837066Y-118793203D01*
X87821509Y-118782966D01*
X87820365Y-118782349D01*
X87785086Y-118776502D01*
X87715746Y-118775433D01*
X87619696Y-118778484D01*
X87504287Y-118784999D01*
X87376871Y-118794321D01*
X87244798Y-118805792D01*
X87115421Y-118818756D01*
X86996089Y-118832555D01*
X86894154Y-118846532D01*
X86816968Y-118860031D01*
X86771881Y-118872394D01*
X86764634Y-118876716D01*
X86745186Y-118915596D01*
X86729984Y-118981616D01*
X86724336Y-119030830D01*
X86721137Y-119099525D01*
X85954944Y-119099525D01*
X86085112Y-118861653D01*
X86309560Y-118535183D01*
X86564741Y-118233361D01*
X86847694Y-117958719D01*
X87155458Y-117713784D01*
X87485072Y-117501089D01*
X87833576Y-117323161D01*
X88198007Y-117182531D01*
X88306956Y-117148880D01*
X88699619Y-117055812D01*
X89096608Y-117003594D01*
X89494634Y-116991952D01*
X89890408Y-117020609D01*
D11*
%TO.C,A7*%
X79248000Y-97596000D02*
X77918000Y-97596000D01*
X77918000Y-97596000D02*
X77918000Y-96266000D01*
X77918000Y-94996000D02*
X77918000Y-87316000D01*
X80578000Y-87316000D02*
X77918000Y-87316000D01*
X80578000Y-94996000D02*
X80578000Y-87316000D01*
X80578000Y-94996000D02*
X77918000Y-94996000D01*
%TO.C,C1*%
X101005000Y-109688000D02*
G75*
G03*
X101005000Y-109688000I-5120000J0D01*
G01*
X100965000Y-109688000D02*
X90805000Y-109688000D01*
X100965000Y-109728000D02*
X90805000Y-109728000D01*
X100965000Y-109768000D02*
X90805000Y-109768000D01*
X100964000Y-109808000D02*
X90806000Y-109808000D01*
X100963000Y-109848000D02*
X90807000Y-109848000D01*
X100962000Y-109888000D02*
X90808000Y-109888000D01*
X100960000Y-109928000D02*
X90810000Y-109928000D01*
X100958000Y-109968000D02*
X90812000Y-109968000D01*
X100955000Y-110008000D02*
X90815000Y-110008000D01*
X100953000Y-110048000D02*
X90817000Y-110048000D01*
X100950000Y-110088000D02*
X90820000Y-110088000D01*
X100947000Y-110128000D02*
X90823000Y-110128000D01*
X100943000Y-110168000D02*
X90827000Y-110168000D01*
X100939000Y-110208000D02*
X90831000Y-110208000D01*
X100935000Y-110248000D02*
X90835000Y-110248000D01*
X100930000Y-110288000D02*
X90840000Y-110288000D01*
X100925000Y-110328000D02*
X90845000Y-110328000D01*
X100920000Y-110368000D02*
X90850000Y-110368000D01*
X100915000Y-110409000D02*
X90855000Y-110409000D01*
X100909000Y-110449000D02*
X90861000Y-110449000D01*
X100903000Y-110489000D02*
X90867000Y-110489000D01*
X100896000Y-110529000D02*
X90874000Y-110529000D01*
X100889000Y-110569000D02*
X90881000Y-110569000D01*
X100882000Y-110609000D02*
X90888000Y-110609000D01*
X100875000Y-110649000D02*
X90895000Y-110649000D01*
X100867000Y-110689000D02*
X90903000Y-110689000D01*
X100859000Y-110729000D02*
X90911000Y-110729000D01*
X100850000Y-110769000D02*
X90920000Y-110769000D01*
X100841000Y-110809000D02*
X90929000Y-110809000D01*
X100832000Y-110849000D02*
X90938000Y-110849000D01*
X100823000Y-110889000D02*
X90947000Y-110889000D01*
X100813000Y-110929000D02*
X90957000Y-110929000D01*
X100803000Y-110969000D02*
X97126000Y-110969000D01*
X94644000Y-110969000D02*
X90967000Y-110969000D01*
X100792000Y-111009000D02*
X97126000Y-111009000D01*
X94644000Y-111009000D02*
X90978000Y-111009000D01*
X100782000Y-111049000D02*
X97126000Y-111049000D01*
X94644000Y-111049000D02*
X90988000Y-111049000D01*
X100770000Y-111089000D02*
X97126000Y-111089000D01*
X94644000Y-111089000D02*
X91000000Y-111089000D01*
X100759000Y-111129000D02*
X97126000Y-111129000D01*
X94644000Y-111129000D02*
X91011000Y-111129000D01*
X100747000Y-111169000D02*
X97126000Y-111169000D01*
X94644000Y-111169000D02*
X91023000Y-111169000D01*
X100735000Y-111209000D02*
X97126000Y-111209000D01*
X94644000Y-111209000D02*
X91035000Y-111209000D01*
X100722000Y-111249000D02*
X97126000Y-111249000D01*
X94644000Y-111249000D02*
X91048000Y-111249000D01*
X100709000Y-111289000D02*
X97126000Y-111289000D01*
X94644000Y-111289000D02*
X91061000Y-111289000D01*
X100696000Y-111329000D02*
X97126000Y-111329000D01*
X94644000Y-111329000D02*
X91074000Y-111329000D01*
X100682000Y-111369000D02*
X97126000Y-111369000D01*
X94644000Y-111369000D02*
X91088000Y-111369000D01*
X100668000Y-111409000D02*
X97126000Y-111409000D01*
X94644000Y-111409000D02*
X91102000Y-111409000D01*
X100653000Y-111449000D02*
X97126000Y-111449000D01*
X94644000Y-111449000D02*
X91117000Y-111449000D01*
X100639000Y-111489000D02*
X97126000Y-111489000D01*
X94644000Y-111489000D02*
X91131000Y-111489000D01*
X100623000Y-111529000D02*
X97126000Y-111529000D01*
X94644000Y-111529000D02*
X91147000Y-111529000D01*
X100608000Y-111569000D02*
X97126000Y-111569000D01*
X94644000Y-111569000D02*
X91162000Y-111569000D01*
X100592000Y-111609000D02*
X97126000Y-111609000D01*
X94644000Y-111609000D02*
X91178000Y-111609000D01*
X100575000Y-111649000D02*
X97126000Y-111649000D01*
X94644000Y-111649000D02*
X91195000Y-111649000D01*
X100559000Y-111689000D02*
X97126000Y-111689000D01*
X94644000Y-111689000D02*
X91211000Y-111689000D01*
X100542000Y-111729000D02*
X97126000Y-111729000D01*
X94644000Y-111729000D02*
X91228000Y-111729000D01*
X100524000Y-111769000D02*
X97126000Y-111769000D01*
X94644000Y-111769000D02*
X91246000Y-111769000D01*
X100506000Y-111809000D02*
X97126000Y-111809000D01*
X94644000Y-111809000D02*
X91264000Y-111809000D01*
X100488000Y-111849000D02*
X97126000Y-111849000D01*
X94644000Y-111849000D02*
X91282000Y-111849000D01*
X100469000Y-111889000D02*
X97126000Y-111889000D01*
X94644000Y-111889000D02*
X91301000Y-111889000D01*
X100449000Y-111929000D02*
X97126000Y-111929000D01*
X94644000Y-111929000D02*
X91321000Y-111929000D01*
X100430000Y-111969000D02*
X97126000Y-111969000D01*
X94644000Y-111969000D02*
X91340000Y-111969000D01*
X100410000Y-112009000D02*
X97126000Y-112009000D01*
X94644000Y-112009000D02*
X91360000Y-112009000D01*
X100389000Y-112049000D02*
X97126000Y-112049000D01*
X94644000Y-112049000D02*
X91381000Y-112049000D01*
X100368000Y-112089000D02*
X97126000Y-112089000D01*
X94644000Y-112089000D02*
X91402000Y-112089000D01*
X100347000Y-112129000D02*
X97126000Y-112129000D01*
X94644000Y-112129000D02*
X91423000Y-112129000D01*
X100325000Y-112169000D02*
X97126000Y-112169000D01*
X94644000Y-112169000D02*
X91445000Y-112169000D01*
X100302000Y-112209000D02*
X97126000Y-112209000D01*
X94644000Y-112209000D02*
X91468000Y-112209000D01*
X100280000Y-112249000D02*
X97126000Y-112249000D01*
X94644000Y-112249000D02*
X91490000Y-112249000D01*
X100256000Y-112289000D02*
X97126000Y-112289000D01*
X94644000Y-112289000D02*
X91514000Y-112289000D01*
X100232000Y-112329000D02*
X97126000Y-112329000D01*
X94644000Y-112329000D02*
X91538000Y-112329000D01*
X100208000Y-112369000D02*
X97126000Y-112369000D01*
X94644000Y-112369000D02*
X91562000Y-112369000D01*
X100183000Y-112409000D02*
X97126000Y-112409000D01*
X94644000Y-112409000D02*
X91587000Y-112409000D01*
X100158000Y-112449000D02*
X97126000Y-112449000D01*
X94644000Y-112449000D02*
X91612000Y-112449000D01*
X100132000Y-112489000D02*
X97126000Y-112489000D01*
X94644000Y-112489000D02*
X91638000Y-112489000D01*
X100106000Y-112529000D02*
X97126000Y-112529000D01*
X94644000Y-112529000D02*
X91664000Y-112529000D01*
X100079000Y-112569000D02*
X97126000Y-112569000D01*
X94644000Y-112569000D02*
X91691000Y-112569000D01*
X100051000Y-112609000D02*
X97126000Y-112609000D01*
X94644000Y-112609000D02*
X91719000Y-112609000D01*
X100023000Y-112649000D02*
X97126000Y-112649000D01*
X94644000Y-112649000D02*
X91747000Y-112649000D01*
X99995000Y-112689000D02*
X97126000Y-112689000D01*
X94644000Y-112689000D02*
X91775000Y-112689000D01*
X99965000Y-112729000D02*
X97126000Y-112729000D01*
X94644000Y-112729000D02*
X91805000Y-112729000D01*
X99935000Y-112769000D02*
X97126000Y-112769000D01*
X94644000Y-112769000D02*
X91835000Y-112769000D01*
X99905000Y-112809000D02*
X97126000Y-112809000D01*
X94644000Y-112809000D02*
X91865000Y-112809000D01*
X99874000Y-112849000D02*
X97126000Y-112849000D01*
X94644000Y-112849000D02*
X91896000Y-112849000D01*
X99842000Y-112889000D02*
X97126000Y-112889000D01*
X94644000Y-112889000D02*
X91928000Y-112889000D01*
X99810000Y-112929000D02*
X97126000Y-112929000D01*
X94644000Y-112929000D02*
X91960000Y-112929000D01*
X99777000Y-112969000D02*
X97126000Y-112969000D01*
X94644000Y-112969000D02*
X91993000Y-112969000D01*
X99743000Y-113009000D02*
X97126000Y-113009000D01*
X94644000Y-113009000D02*
X92027000Y-113009000D01*
X99709000Y-113049000D02*
X97126000Y-113049000D01*
X94644000Y-113049000D02*
X92061000Y-113049000D01*
X99674000Y-113089000D02*
X97126000Y-113089000D01*
X94644000Y-113089000D02*
X92096000Y-113089000D01*
X99638000Y-113129000D02*
X97126000Y-113129000D01*
X94644000Y-113129000D02*
X92132000Y-113129000D01*
X99601000Y-113169000D02*
X97126000Y-113169000D01*
X94644000Y-113169000D02*
X92169000Y-113169000D01*
X99564000Y-113209000D02*
X97126000Y-113209000D01*
X94644000Y-113209000D02*
X92206000Y-113209000D01*
X99525000Y-113249000D02*
X97126000Y-113249000D01*
X94644000Y-113249000D02*
X92245000Y-113249000D01*
X99486000Y-113289000D02*
X97126000Y-113289000D01*
X94644000Y-113289000D02*
X92284000Y-113289000D01*
X99446000Y-113329000D02*
X97126000Y-113329000D01*
X94644000Y-113329000D02*
X92324000Y-113329000D01*
X99405000Y-113369000D02*
X97126000Y-113369000D01*
X94644000Y-113369000D02*
X92365000Y-113369000D01*
X99363000Y-113409000D02*
X97126000Y-113409000D01*
X94644000Y-113409000D02*
X92407000Y-113409000D01*
X99321000Y-113449000D02*
X92449000Y-113449000D01*
X99277000Y-113489000D02*
X92493000Y-113489000D01*
X99232000Y-113529000D02*
X92538000Y-113529000D01*
X99186000Y-113569000D02*
X92584000Y-113569000D01*
X99139000Y-113609000D02*
X92631000Y-113609000D01*
X99091000Y-113649000D02*
X92679000Y-113649000D01*
X99041000Y-113689000D02*
X92729000Y-113689000D01*
X98991000Y-113729000D02*
X92779000Y-113729000D01*
X98939000Y-113769000D02*
X92831000Y-113769000D01*
X98885000Y-113809000D02*
X92885000Y-113809000D01*
X98830000Y-113849000D02*
X92940000Y-113849000D01*
X98774000Y-113889000D02*
X92996000Y-113889000D01*
X98715000Y-113929000D02*
X93055000Y-113929000D01*
X98655000Y-113969000D02*
X93115000Y-113969000D01*
X98594000Y-114009000D02*
X93176000Y-114009000D01*
X98530000Y-114049000D02*
X93240000Y-114049000D01*
X98464000Y-114089000D02*
X93306000Y-114089000D01*
X98395000Y-114129000D02*
X93375000Y-114129000D01*
X98324000Y-114169000D02*
X93446000Y-114169000D01*
X98250000Y-114209000D02*
X93520000Y-114209000D01*
X98174000Y-114249000D02*
X93596000Y-114249000D01*
X98094000Y-114289000D02*
X93676000Y-114289000D01*
X98010000Y-114329000D02*
X93760000Y-114329000D01*
X97922000Y-114369000D02*
X93848000Y-114369000D01*
X97829000Y-114409000D02*
X93941000Y-114409000D01*
X97731000Y-114449000D02*
X94039000Y-114449000D01*
X97627000Y-114489000D02*
X94143000Y-114489000D01*
X97515000Y-114529000D02*
X94255000Y-114529000D01*
X97395000Y-114569000D02*
X94375000Y-114569000D01*
X97263000Y-114609000D02*
X94507000Y-114609000D01*
X97115000Y-114649000D02*
X94655000Y-114649000D01*
X96947000Y-114689000D02*
X94823000Y-114689000D01*
X96747000Y-114729000D02*
X95023000Y-114729000D01*
X96484000Y-114769000D02*
X95286000Y-114769000D01*
X98760000Y-104208354D02*
X98760000Y-105208354D01*
X99260000Y-104708354D02*
X98260000Y-104708354D01*
%TO.C,R1*%
X80793000Y-106918936D02*
X80793000Y-108373064D01*
X78973000Y-106918936D02*
X78973000Y-108373064D01*
%TO.C,D1*%
X106622600Y-104989000D02*
X106622600Y-115229000D01*
X101981600Y-104989000D02*
X101981600Y-115229000D01*
X106622600Y-104989000D02*
X101981600Y-104989000D01*
X106622600Y-115229000D02*
X101981600Y-115229000D01*
X105112600Y-104989000D02*
X105112600Y-115229000D01*
X106622600Y-108259000D02*
X105112600Y-108259000D01*
X106622600Y-111960000D02*
X105112600Y-111960000D01*
%TO.C,A6*%
X80578000Y-74676000D02*
X77918000Y-74676000D01*
X80578000Y-74676000D02*
X80578000Y-66996000D01*
X80578000Y-66996000D02*
X77918000Y-66996000D01*
X77918000Y-74676000D02*
X77918000Y-66996000D01*
X77918000Y-77276000D02*
X77918000Y-75946000D01*
X79248000Y-77276000D02*
X77918000Y-77276000D01*
%TO.C,A1*%
X85168000Y-59166000D02*
X85168000Y-57166000D01*
X105918000Y-51706000D02*
X88138000Y-51706000D01*
X105918000Y-102726000D02*
X88138000Y-102726000D01*
X108568000Y-54356000D02*
X108568000Y-100076000D01*
X85488000Y-54356000D02*
X85488000Y-100076000D01*
X88138000Y-102726000D02*
G75*
G02*
X85488000Y-100076000I0J2650000D01*
G01*
X108568000Y-100076000D02*
G75*
G02*
X105918000Y-102726000I-2650000J0D01*
G01*
X85488000Y-54356000D02*
G75*
G02*
X88138000Y-51706000I2650000J0D01*
G01*
X105918000Y-51706000D02*
G75*
G02*
X108568000Y-54356000I0J-2650000D01*
G01*
%TO.C,A4*%
X113478000Y-89916000D02*
X116138000Y-89916000D01*
X113478000Y-89916000D02*
X113478000Y-97596000D01*
X113478000Y-97596000D02*
X116138000Y-97596000D01*
X116138000Y-89916000D02*
X116138000Y-97596000D01*
X116138000Y-87316000D02*
X116138000Y-88646000D01*
X114808000Y-87316000D02*
X116138000Y-87316000D01*
%TO.C,A2*%
X113373001Y-49276000D02*
X116033001Y-49276000D01*
X113373001Y-49276000D02*
X113373001Y-56956000D01*
X113373001Y-56956000D02*
X116033001Y-56956000D01*
X116033001Y-49276000D02*
X116033001Y-56956000D01*
X116033001Y-46676000D02*
X116033001Y-48006000D01*
X114703001Y-46676000D02*
X116033001Y-46676000D01*
%TO.C,A3*%
X114808000Y-66996000D02*
X116138000Y-66996000D01*
X116138000Y-66996000D02*
X116138000Y-68326000D01*
X116138000Y-69596000D02*
X116138000Y-77276000D01*
X113478000Y-77276000D02*
X116138000Y-77276000D01*
X113478000Y-69596000D02*
X113478000Y-77276000D01*
X113478000Y-69596000D02*
X116138000Y-69596000D01*
%TO.C,A5*%
X79248000Y-56956000D02*
X77918000Y-56956000D01*
X77918000Y-56956000D02*
X77918000Y-55626000D01*
X77918000Y-54356000D02*
X77918000Y-46676000D01*
X80578000Y-46676000D02*
X77918000Y-46676000D01*
X80578000Y-54356000D02*
X80578000Y-46676000D01*
X80578000Y-54356000D02*
X77918000Y-54356000D01*
%TO.C,J1*%
X116418000Y-116860000D02*
X116418000Y-104010000D01*
X113868000Y-101160000D02*
X110718000Y-101160000D01*
X108118000Y-104010000D02*
X108118000Y-116860000D01*
X108118000Y-116860000D02*
X116418000Y-116860000D01*
X116418000Y-104010000D02*
X113868000Y-101160000D01*
X110718000Y-101160000D02*
X108118000Y-104010000D01*
D16*
%TO.C,Z1*%
X82928000Y-104176000D02*
X83328000Y-104176000D01*
X82928000Y-104176000D02*
X82928000Y-104576000D01*
X82928000Y-108676000D02*
X82928000Y-108276000D01*
X82928000Y-108676000D02*
X83328000Y-108676000D01*
X85728000Y-108676000D02*
X85328000Y-108676000D01*
X85728000Y-108676000D02*
X85728000Y-108276000D01*
X85728000Y-104176000D02*
X85328000Y-104176000D01*
X85728000Y-104176000D02*
X85728000Y-104576000D01*
X82928460Y-107789980D02*
X82928460Y-107866180D01*
X83393280Y-107789980D02*
X82928460Y-107789980D01*
X83393280Y-107866180D02*
X83393280Y-107789980D01*
X82928460Y-107866180D02*
X83393280Y-107866180D01*
X85730080Y-107789980D02*
X85730080Y-107866180D01*
X85270340Y-107789980D02*
X85730080Y-107789980D01*
X85270340Y-107866180D02*
X85270340Y-107789980D01*
X85730080Y-107866180D02*
X85270340Y-107866180D01*
D11*
%TO.C,BZ1*%
X109488000Y-44196000D02*
G75*
G03*
X109488000Y-44196000I-6100000J0D01*
G01*
%TO.C,R2*%
X90318000Y-41113064D02*
X90318000Y-39658936D01*
X88498000Y-41113064D02*
X88498000Y-39658936D01*
%TO.C,R3*%
X92308000Y-41113064D02*
X92308000Y-39658936D01*
X94128000Y-41113064D02*
X94128000Y-39658936D01*
%TO.C,D2*%
X90543000Y-47066000D02*
X90543000Y-43181000D01*
X90543000Y-43181000D02*
X88273000Y-43181000D01*
X88273000Y-43181000D02*
X88273000Y-47066000D01*
%TO.C,D3*%
X78748000Y-99061000D02*
X78748000Y-102946000D01*
X81018000Y-99061000D02*
X78748000Y-99061000D01*
X81018000Y-102946000D02*
X81018000Y-99061000D01*
%TO.C,D4*%
X94353000Y-47066000D02*
X94353000Y-43181000D01*
X94353000Y-43181000D02*
X92083000Y-43181000D01*
X92083000Y-43181000D02*
X92083000Y-47066000D01*
%TO.C,J2*%
X104878000Y-117856000D02*
G75*
G03*
X104878000Y-117856000I-1500000J0D01*
G01*
%TO.C,J3*%
X99798000Y-117831001D02*
G75*
G03*
X99798000Y-117831001I-1500000J0D01*
G01*
%TO.C,A7*%
D10*
X78533714Y-86272666D02*
X79009904Y-86272666D01*
X78438476Y-86558380D02*
X78771809Y-85558380D01*
X79105142Y-86558380D01*
X79343238Y-85558380D02*
X80009904Y-85558380D01*
X79581333Y-86558380D01*
%TO.C,C1*%
D17*
X99441000Y-108984142D02*
X99404714Y-109020428D01*
X99295857Y-109056714D01*
X99223285Y-109056714D01*
X99114428Y-109020428D01*
X99041857Y-108947857D01*
X99005571Y-108875285D01*
X98969285Y-108730142D01*
X98969285Y-108621285D01*
X99005571Y-108476142D01*
X99041857Y-108403571D01*
X99114428Y-108331000D01*
X99223285Y-108294714D01*
X99295857Y-108294714D01*
X99404714Y-108331000D01*
X99441000Y-108367285D01*
X100166714Y-109056714D02*
X99731285Y-109056714D01*
X99949000Y-109056714D02*
X99949000Y-108294714D01*
X99876428Y-108403571D01*
X99803857Y-108476142D01*
X99731285Y-108512428D01*
%TO.C,R1*%
D10*
X82240380Y-107812666D02*
X81764190Y-108146000D01*
X82240380Y-108384095D02*
X81240380Y-108384095D01*
X81240380Y-108003142D01*
X81288000Y-107907904D01*
X81335619Y-107860285D01*
X81430857Y-107812666D01*
X81573714Y-107812666D01*
X81668952Y-107860285D01*
X81716571Y-107907904D01*
X81764190Y-108003142D01*
X81764190Y-108384095D01*
X82240380Y-106860285D02*
X82240380Y-107431714D01*
X82240380Y-107146000D02*
X81240380Y-107146000D01*
X81383238Y-107241238D01*
X81478476Y-107336476D01*
X81526095Y-107431714D01*
%TO.C,D1*%
X102741504Y-110561380D02*
X102741504Y-109561380D01*
X102979600Y-109561380D01*
X103122457Y-109609000D01*
X103217695Y-109704238D01*
X103265314Y-109799476D01*
X103312933Y-109989952D01*
X103312933Y-110132809D01*
X103265314Y-110323285D01*
X103217695Y-110418523D01*
X103122457Y-110513761D01*
X102979600Y-110561380D01*
X102741504Y-110561380D01*
X104265314Y-110561380D02*
X103693885Y-110561380D01*
X103979600Y-110561380D02*
X103979600Y-109561380D01*
X103884361Y-109704238D01*
X103789123Y-109799476D01*
X103693885Y-109847095D01*
%TO.C,A6*%
X78533714Y-65952666D02*
X79009904Y-65952666D01*
X78438476Y-66238380D02*
X78771809Y-65238380D01*
X79105142Y-66238380D01*
X79867047Y-65238380D02*
X79676571Y-65238380D01*
X79581333Y-65286000D01*
X79533714Y-65333619D01*
X79438476Y-65476476D01*
X79390857Y-65666952D01*
X79390857Y-66047904D01*
X79438476Y-66143142D01*
X79486095Y-66190761D01*
X79581333Y-66238380D01*
X79771809Y-66238380D01*
X79867047Y-66190761D01*
X79914666Y-66143142D01*
X79962285Y-66047904D01*
X79962285Y-65809809D01*
X79914666Y-65714571D01*
X79867047Y-65666952D01*
X79771809Y-65619333D01*
X79581333Y-65619333D01*
X79486095Y-65666952D01*
X79438476Y-65714571D01*
X79390857Y-65809809D01*
%TO.C,A1*%
X96313714Y-76112666D02*
X96789904Y-76112666D01*
X96218476Y-76398380D02*
X96551809Y-75398380D01*
X96885142Y-76398380D01*
X97742285Y-76398380D02*
X97170857Y-76398380D01*
X97456571Y-76398380D02*
X97456571Y-75398380D01*
X97361333Y-75541238D01*
X97266095Y-75636476D01*
X97170857Y-75684095D01*
%TO.C,A4*%
X114093714Y-86042666D02*
X114569904Y-86042666D01*
X113998476Y-86328380D02*
X114331809Y-85328380D01*
X114665142Y-86328380D01*
X115427047Y-85661714D02*
X115427047Y-86328380D01*
X115188952Y-85280761D02*
X114950857Y-85995047D01*
X115569904Y-85995047D01*
%TO.C,A2*%
X113988715Y-45402666D02*
X114464905Y-45402666D01*
X113893477Y-45688380D02*
X114226810Y-44688380D01*
X114560143Y-45688380D01*
X114845858Y-44783619D02*
X114893477Y-44736000D01*
X114988715Y-44688380D01*
X115226810Y-44688380D01*
X115322048Y-44736000D01*
X115369667Y-44783619D01*
X115417286Y-44878857D01*
X115417286Y-44974095D01*
X115369667Y-45116952D01*
X114798239Y-45688380D01*
X115417286Y-45688380D01*
%TO.C,A3*%
X114093714Y-65722666D02*
X114569904Y-65722666D01*
X113998476Y-66008380D02*
X114331809Y-65008380D01*
X114665142Y-66008380D01*
X114903238Y-65008380D02*
X115522285Y-65008380D01*
X115188952Y-65389333D01*
X115331809Y-65389333D01*
X115427047Y-65436952D01*
X115474666Y-65484571D01*
X115522285Y-65579809D01*
X115522285Y-65817904D01*
X115474666Y-65913142D01*
X115427047Y-65960761D01*
X115331809Y-66008380D01*
X115046095Y-66008380D01*
X114950857Y-65960761D01*
X114903238Y-65913142D01*
%TO.C,A5*%
X78533714Y-45632666D02*
X79009904Y-45632666D01*
X78438476Y-45918380D02*
X78771809Y-44918380D01*
X79105142Y-45918380D01*
X79914666Y-44918380D02*
X79438476Y-44918380D01*
X79390857Y-45394571D01*
X79438476Y-45346952D01*
X79533714Y-45299333D01*
X79771809Y-45299333D01*
X79867047Y-45346952D01*
X79914666Y-45394571D01*
X79962285Y-45489809D01*
X79962285Y-45727904D01*
X79914666Y-45823142D01*
X79867047Y-45870761D01*
X79771809Y-45918380D01*
X79533714Y-45918380D01*
X79438476Y-45870761D01*
X79390857Y-45823142D01*
%TO.C,J1*%
X108886666Y-115530380D02*
X108886666Y-116244666D01*
X108839047Y-116387523D01*
X108743809Y-116482761D01*
X108600952Y-116530380D01*
X108505714Y-116530380D01*
X109886666Y-116530380D02*
X109315238Y-116530380D01*
X109600952Y-116530380D02*
X109600952Y-115530380D01*
X109505714Y-115673238D01*
X109410476Y-115768476D01*
X109315238Y-115816095D01*
%TO.C,Z1*%
X86320380Y-107235523D02*
X86320380Y-106568857D01*
X87320380Y-107235523D01*
X87320380Y-106568857D01*
X87320380Y-105664095D02*
X87320380Y-106235523D01*
X87320380Y-105949809D02*
X86320380Y-105949809D01*
X86463238Y-106045047D01*
X86558476Y-106140285D01*
X86606095Y-106235523D01*
%TO.C,BZ1*%
X102507047Y-44124571D02*
X102649904Y-44172190D01*
X102697523Y-44219809D01*
X102745142Y-44315047D01*
X102745142Y-44457904D01*
X102697523Y-44553142D01*
X102649904Y-44600761D01*
X102554666Y-44648380D01*
X102173714Y-44648380D01*
X102173714Y-43648380D01*
X102507047Y-43648380D01*
X102602285Y-43696000D01*
X102649904Y-43743619D01*
X102697523Y-43838857D01*
X102697523Y-43934095D01*
X102649904Y-44029333D01*
X102602285Y-44076952D01*
X102507047Y-44124571D01*
X102173714Y-44124571D01*
X103078476Y-43648380D02*
X103745142Y-43648380D01*
X103078476Y-44648380D01*
X103745142Y-44648380D01*
X104649904Y-44648380D02*
X104078476Y-44648380D01*
X104364190Y-44648380D02*
X104364190Y-43648380D01*
X104268952Y-43791238D01*
X104173714Y-43886476D01*
X104078476Y-43934095D01*
X106817047Y-46807428D02*
X107578952Y-46807428D01*
X107198000Y-47188380D02*
X107198000Y-46426476D01*
%TO.C,R2*%
X87828380Y-40552666D02*
X87352190Y-40886000D01*
X87828380Y-41124095D02*
X86828380Y-41124095D01*
X86828380Y-40743142D01*
X86876000Y-40647904D01*
X86923619Y-40600285D01*
X87018857Y-40552666D01*
X87161714Y-40552666D01*
X87256952Y-40600285D01*
X87304571Y-40647904D01*
X87352190Y-40743142D01*
X87352190Y-41124095D01*
X86923619Y-40171714D02*
X86876000Y-40124095D01*
X86828380Y-40028857D01*
X86828380Y-39790761D01*
X86876000Y-39695523D01*
X86923619Y-39647904D01*
X87018857Y-39600285D01*
X87114095Y-39600285D01*
X87256952Y-39647904D01*
X87828380Y-40219333D01*
X87828380Y-39600285D01*
%TO.C,R3*%
X91892380Y-40552666D02*
X91416190Y-40886000D01*
X91892380Y-41124095D02*
X90892380Y-41124095D01*
X90892380Y-40743142D01*
X90940000Y-40647904D01*
X90987619Y-40600285D01*
X91082857Y-40552666D01*
X91225714Y-40552666D01*
X91320952Y-40600285D01*
X91368571Y-40647904D01*
X91416190Y-40743142D01*
X91416190Y-41124095D01*
X90892380Y-40219333D02*
X90892380Y-39600285D01*
X91273333Y-39933619D01*
X91273333Y-39790761D01*
X91320952Y-39695523D01*
X91368571Y-39647904D01*
X91463809Y-39600285D01*
X91701904Y-39600285D01*
X91797142Y-39647904D01*
X91844761Y-39695523D01*
X91892380Y-39790761D01*
X91892380Y-40076476D01*
X91844761Y-40171714D01*
X91797142Y-40219333D01*
%TO.C,D3*%
X82155380Y-102084095D02*
X81155380Y-102084095D01*
X81155380Y-101846000D01*
X81203000Y-101703142D01*
X81298238Y-101607904D01*
X81393476Y-101560285D01*
X81583952Y-101512666D01*
X81726809Y-101512666D01*
X81917285Y-101560285D01*
X82012523Y-101607904D01*
X82107761Y-101703142D01*
X82155380Y-101846000D01*
X82155380Y-102084095D01*
X81155380Y-101179333D02*
X81155380Y-100560285D01*
X81536333Y-100893619D01*
X81536333Y-100750761D01*
X81583952Y-100655523D01*
X81631571Y-100607904D01*
X81726809Y-100560285D01*
X81964904Y-100560285D01*
X82060142Y-100607904D01*
X82107761Y-100655523D01*
X82155380Y-100750761D01*
X82155380Y-101036476D01*
X82107761Y-101131714D01*
X82060142Y-101179333D01*
%TD*%
M02*
