G04 #@! TF.GenerationSoftware,KiCad,Pcbnew,(5.1.10)-1*
G04 #@! TF.CreationDate,2022-02-12T13:03:44-05:00*
G04 #@! TF.ProjectId,M5_BuggyProject,4d355f42-7567-4677-9950-726f6a656374,v1.0*
G04 #@! TF.SameCoordinates,Original*
G04 #@! TF.FileFunction,Soldermask,Bot*
G04 #@! TF.FilePolarity,Negative*
%FSLAX46Y46*%
G04 Gerber Fmt 4.6, Leading zero omitted, Abs format (unit mm)*
G04 Created by KiCad (PCBNEW (5.1.10)-1) date 2022-02-12 13:03:44*
%MOMM*%
%LPD*%
G01*
G04 APERTURE LIST*
%ADD10C,1.600000*%
%ADD11R,1.600000X1.600000*%
%ADD12R,1.700000X1.700000*%
%ADD13O,1.700000X1.700000*%
%ADD14R,2.000000X2.000000*%
%ADD15C,2.000000*%
%ADD16O,2.000000X2.000000*%
%ADD17C,6.000000*%
%ADD18C,6.400000*%
%ADD19C,0.800000*%
G04 APERTURE END LIST*
D10*
G04 #@! TO.C,A1*
X86868000Y-75946000D03*
X86868000Y-73406000D03*
X86868000Y-70866000D03*
X86868000Y-68326000D03*
X86868000Y-65786000D03*
X86868000Y-63246000D03*
X86868000Y-60706000D03*
X86868000Y-58166000D03*
X86868000Y-55626000D03*
X86868000Y-53086000D03*
X86868000Y-50546000D03*
X86868000Y-48006000D03*
X86868000Y-45466000D03*
X86868000Y-42926000D03*
X86868000Y-40386000D03*
D11*
X86868000Y-37846000D03*
D10*
X107188000Y-48006000D03*
X107188000Y-50546000D03*
X107188000Y-53086000D03*
X107188000Y-55626000D03*
X107188000Y-58166000D03*
X107188000Y-60706000D03*
X107188000Y-63246000D03*
X107188000Y-65786000D03*
X107188000Y-68326000D03*
X107188000Y-70866000D03*
X107188000Y-73406000D03*
X107188000Y-75946000D03*
G04 #@! TD*
D12*
G04 #@! TO.C,A7*
X79248000Y-96266000D03*
D13*
X79248000Y-93726000D03*
X79248000Y-91186000D03*
X79248000Y-88646000D03*
G04 #@! TD*
D14*
G04 #@! TO.C,C1*
X95758000Y-106426000D03*
D15*
X95758000Y-111426000D03*
G04 #@! TD*
D14*
G04 #@! TO.C,D1*
X103352600Y-107530000D03*
D16*
X103352600Y-112610000D03*
G04 #@! TD*
D13*
G04 #@! TO.C,A6*
X79248000Y-68326000D03*
X79248000Y-70866000D03*
X79248000Y-73406000D03*
D12*
X79248000Y-75946000D03*
G04 #@! TD*
D13*
G04 #@! TO.C,A4*
X114808000Y-96266000D03*
X114808000Y-93726000D03*
X114808000Y-91186000D03*
D12*
X114808000Y-88646000D03*
G04 #@! TD*
D13*
G04 #@! TO.C,A2*
X114703001Y-55626000D03*
X114703001Y-53086000D03*
X114703001Y-50546000D03*
D12*
X114703001Y-48006000D03*
G04 #@! TD*
G04 #@! TO.C,A3*
X114808000Y-68326000D03*
D13*
X114808000Y-70866000D03*
X114808000Y-73406000D03*
X114808000Y-75946000D03*
G04 #@! TD*
D12*
G04 #@! TO.C,A5*
X79248000Y-55626000D03*
D13*
X79248000Y-53086000D03*
X79248000Y-50546000D03*
X79248000Y-48006000D03*
G04 #@! TD*
D17*
G04 #@! TO.C,J1*
X114808000Y-112356000D03*
G36*
G01*
X113308000Y-102156000D02*
X116308000Y-102156000D01*
G75*
G02*
X117808000Y-103656000I0J-1500000D01*
G01*
X117808000Y-106656000D01*
G75*
G02*
X116308000Y-108156000I-1500000J0D01*
G01*
X113308000Y-108156000D01*
G75*
G02*
X111808000Y-106656000I0J1500000D01*
G01*
X111808000Y-103656000D01*
G75*
G02*
X113308000Y-102156000I1500000J0D01*
G01*
G37*
G04 #@! TD*
D18*
G04 #@! TO.C,H1*
X75438000Y-30226000D03*
D19*
X77838000Y-30226000D03*
X77135056Y-31923056D03*
X75438000Y-32626000D03*
X73740944Y-31923056D03*
X73038000Y-30226000D03*
X73740944Y-28528944D03*
X75438000Y-27826000D03*
X77135056Y-28528944D03*
G04 #@! TD*
G04 #@! TO.C,H2*
X120315056Y-28528944D03*
X118618000Y-27826000D03*
X116920944Y-28528944D03*
X116218000Y-30226000D03*
X116920944Y-31923056D03*
X118618000Y-32626000D03*
X120315056Y-31923056D03*
X121018000Y-30226000D03*
D18*
X118618000Y-30226000D03*
G04 #@! TD*
D19*
G04 #@! TO.C,H3*
X120315056Y-119968944D03*
X118618000Y-119266000D03*
X116920944Y-119968944D03*
X116218000Y-121666000D03*
X116920944Y-123363056D03*
X118618000Y-124066000D03*
X120315056Y-123363056D03*
X121018000Y-121666000D03*
D18*
X118618000Y-121666000D03*
G04 #@! TD*
G04 #@! TO.C,H4*
X75438000Y-121666000D03*
D19*
X77838000Y-121666000D03*
X77135056Y-123363056D03*
X75438000Y-124066000D03*
X73740944Y-123363056D03*
X73038000Y-121666000D03*
X73740944Y-119968944D03*
X75438000Y-119266000D03*
X77135056Y-119968944D03*
G04 #@! TD*
D14*
G04 #@! TO.C,BZ1*
X104902000Y-94996000D03*
D15*
X97302000Y-94996000D03*
G04 #@! TD*
G04 #@! TO.C,J2*
X103352600Y-117856000D03*
G04 #@! TD*
G04 #@! TO.C,J3*
X98298000Y-117831001D03*
G04 #@! TD*
D12*
G04 #@! TO.C,J4*
X89408000Y-84836000D03*
D13*
X91948000Y-84836000D03*
X94488000Y-84836000D03*
X97028000Y-84836000D03*
X99568000Y-84836000D03*
G04 #@! TD*
M02*
