<?xml version="1.0" standalone="no"?>
 <!DOCTYPE svg PUBLIC "-//W3C//DTD SVG 1.1//EN" 
 "http://www.w3.org/Graphics/SVG/1.1/DTD/svg11.dtd"> 
<svg
  xmlns:svg="http://www.w3.org/2000/svg"
  xmlns="http://www.w3.org/2000/svg"
  xmlns:xlink="http://www.w3.org/1999/xlink"
  version="1.1"
  width="17.780000cm" height="17.780000cm" viewBox="0 0 70000 70000">
<title>SVG Picture created as M5_BuggyProject-F_Mask.svg date 2022/03/10 12:53:45 </title>
  <desc>Picture generated by PCBNEW </desc>
<g style="fill:#000000; fill-opacity:1;stroke:#000000; stroke-opacity:1;
stroke-linecap:round; stroke-linejoin:round;"
 transform="translate(0 0) scale(1 1)">
</g>
<g style="fill:#000000; fill-opacity:0.0; 
stroke:#000000; stroke-width:-0.000393701; stroke-opacity:1; 
stroke-linecap:round; stroke-linejoin:round;">
</g>
<g style="fill:#000000; fill-opacity:0.0; 
stroke:#000000; stroke-width:47.2441; stroke-opacity:1; 
stroke-linecap:round; stroke-linejoin:round;">
<path d="M28450 43250
L28450 44250
" />
</g>
<g style="fill:#000000; fill-opacity:0.0; 
stroke:#000000; stroke-width:30; stroke-opacity:1; 
stroke-linecap:round; stroke-linejoin:round;">
<text x="31825" y="44150"
textLength="4292.29" font-size="400" lengthAdjust="spacingAndGlyphs"
text-anchor="middle" opacity="0">@UMassAmherstM5</text>
<path d="M29975 43992
L29960 43978
L29932 43964
L29903 43964
L29875 43978
L29860 43992
L29846 44021
L29846 44050
L29860 44078
L29875 44092
L29903 44107
L29932 44107
L29960 44092
L29975 44078
" />
<path d="M29975 43964
L29975 44078
L29989 44092
L30003 44092
L30032 44078
L30046 44050
L30046 43978
L30017 43935
L29975 43907
L29917 43892
L29860 43907
L29817 43935
L29789 43978
L29775 44035
L29789 44092
L29817 44135
L29860 44164
L29917 44178
L29975 44164
L30017 44135
" />
<path d="M30175 43835
L30175 44078
L30189 44107
L30203 44121
L30232 44135
L30289 44135
L30317 44121
L30332 44107
L30346 44078
L30346 43835
" />
<path d="M30489 44135
L30489 43835
L30589 44050
L30689 43835
L30689 44135
" />
<path d="M30960 44135
L30960 43978
L30946 43950
L30917 43935
L30860 43935
L30832 43950
" />
<path d="M30960 44121
L30932 44135
L30860 44135
L30832 44121
L30817 44092
L30817 44064
L30832 44035
L30860 44021
L30932 44021
L30960 44007
" />
<path d="M31089 44121
L31117 44135
L31175 44135
L31203 44121
L31217 44092
L31217 44078
L31203 44050
L31175 44035
L31132 44035
L31103 44021
L31089 43992
L31089 43978
L31103 43950
L31132 43935
L31175 43935
L31203 43950
" />
<path d="M31332 44121
L31360 44135
L31417 44135
L31446 44121
L31460 44092
L31460 44078
L31446 44050
L31417 44035
L31375 44035
L31346 44021
L31332 43992
L31332 43978
L31346 43950
L31375 43935
L31417 43935
L31446 43950
" />
<path d="M31575 44050
L31717 44050
" />
<path d="M31546 44135
L31646 43835
L31746 44135
" />
<path d="M31846 44135
L31846 43935
" />
<path d="M31846 43964
L31860 43950
L31889 43935
L31932 43935
L31960 43950
L31975 43978
L31975 44135
" />
<path d="M31975 43978
L31989 43950
L32017 43935
L32060 43935
L32089 43950
L32103 43978
L32103 44135
" />
<path d="M32246 44135
L32246 43835
" />
<path d="M32375 44135
L32375 43978
L32360 43950
L32332 43935
L32289 43935
L32260 43950
L32246 43964
" />
<path d="M32632 44121
L32603 44135
L32546 44135
L32517 44121
L32503 44092
L32503 43978
L32517 43950
L32546 43935
L32603 43935
L32632 43950
L32646 43978
L32646 44007
L32503 44035
" />
<path d="M32775 44135
L32775 43935
" />
<path d="M32775 43992
L32789 43964
L32803 43950
L32832 43935
L32860 43935
" />
<path d="M32946 44121
L32975 44135
L33032 44135
L33060 44121
L33075 44092
L33075 44078
L33060 44050
L33032 44035
L32989 44035
L32960 44021
L32946 43992
L32946 43978
L32960 43950
L32989 43935
L33032 43935
L33060 43950
" />
<path d="M33160 43935
L33275 43935
" />
<path d="M33203 43835
L33203 44092
L33217 44121
L33246 44135
L33275 44135
" />
<path d="M33375 44135
L33375 43835
L33475 44050
L33575 43835
L33575 44135
" />
<path d="M33860 43835
L33717 43835
L33703 43978
L33717 43964
L33746 43950
L33817 43950
L33846 43964
L33860 43978
L33875 44007
L33875 44078
L33860 44107
L33846 44121
L33817 44135
L33746 44135
L33717 44121
L33703 44107
" />
<text x="31825" y="43650"
textLength="4167.57" font-size="400" lengthAdjust="spacingAndGlyphs"
text-anchor="middle" opacity="0">#UMassAmherstM5</text>
<path d="M29817 43435
L30032 43435
" />
<path d="M29903 43307
L29817 43692
" />
<path d="M30003 43564
L29789 43564
" />
<path d="M29917 43692
L30003 43307
" />
<path d="M30132 43335
L30132 43578
L30146 43607
L30160 43621
L30189 43635
L30246 43635
L30275 43621
L30289 43607
L30303 43578
L30303 43335
" />
<path d="M30446 43635
L30446 43335
L30546 43550
L30646 43335
L30646 43635
" />
<path d="M30917 43635
L30917 43478
L30903 43450
L30875 43435
L30817 43435
L30789 43450
" />
<path d="M30917 43621
L30889 43635
L30817 43635
L30789 43621
L30775 43592
L30775 43564
L30789 43535
L30817 43521
L30889 43521
L30917 43507
" />
<path d="M31046 43621
L31075 43635
L31132 43635
L31160 43621
L31175 43592
L31175 43578
L31160 43550
L31132 43535
L31089 43535
L31060 43521
L31046 43492
L31046 43478
L31060 43450
L31089 43435
L31132 43435
L31160 43450
" />
<path d="M31289 43621
L31317 43635
L31375 43635
L31403 43621
L31417 43592
L31417 43578
L31403 43550
L31375 43535
L31332 43535
L31303 43521
L31289 43492
L31289 43478
L31303 43450
L31332 43435
L31375 43435
L31403 43450
" />
<path d="M31532 43550
L31675 43550
" />
<path d="M31503 43635
L31603 43335
L31703 43635
" />
<path d="M31803 43635
L31803 43435
" />
<path d="M31803 43464
L31817 43450
L31846 43435
L31889 43435
L31917 43450
L31932 43478
L31932 43635
" />
<path d="M31932 43478
L31946 43450
L31975 43435
L32017 43435
L32046 43450
L32060 43478
L32060 43635
" />
<path d="M32203 43635
L32203 43335
" />
<path d="M32332 43635
L32332 43478
L32317 43450
L32289 43435
L32246 43435
L32217 43450
L32203 43464
" />
<path d="M32589 43621
L32560 43635
L32503 43635
L32475 43621
L32460 43592
L32460 43478
L32475 43450
L32503 43435
L32560 43435
L32589 43450
L32603 43478
L32603 43507
L32460 43535
" />
<path d="M32732 43635
L32732 43435
" />
<path d="M32732 43492
L32746 43464
L32760 43450
L32789 43435
L32817 43435
" />
<path d="M32903 43621
L32932 43635
L32989 43635
L33017 43621
L33032 43592
L33032 43578
L33017 43550
L32989 43535
L32946 43535
L32917 43521
L32903 43492
L32903 43478
L32917 43450
L32946 43435
L32989 43435
L33017 43450
" />
<path d="M33117 43435
L33232 43435
" />
<path d="M33160 43335
L33160 43592
L33175 43621
L33203 43635
L33232 43635
" />
<path d="M33332 43635
L33332 43335
L33432 43550
L33532 43335
L33532 43635
" />
<path d="M33817 43335
L33675 43335
L33660 43478
L33675 43464
L33703 43450
L33775 43450
L33803 43464
L33817 43478
L33832 43507
L33832 43578
L33817 43607
L33803 43621
L33775 43635
L33703 43635
L33675 43621
L33660 43607
" />
</g>
<g style="fill:#000000; fill-opacity:1.0; 
stroke:#000000; stroke-width:3.93701; stroke-opacity:1; 
stroke-linecap:round; stroke-linejoin:round;">
<path style="fill:#000000; fill-opacity:1.0; 
stroke:#000000; stroke-width:3.93701; stroke-opacity:1; 
stroke-linecap:round; stroke-linejoin:round;fill-rule:evenodd;"
d="M 34284.9,44509.6
34515.3,44550.1
34740.6,44614.2
34958.7,44701.5
35006.2,44724.2
35215.8,44840.6
35409.4,44975
35586.3,45126.1
35745.7,45292.2
35886.9,45471.9
36009.2,45663.7
36111.9,45866.1
36194.1,46077.5
36255.3,46296.6
36294.6,46521.8
36311.3,46751.5
36304.7,46984.4
36274.1,47218.8
36260.4,47287.5
36200.1,47511.8
36117.5,47727.1
36014.3,47932.2
35891.8,48125.5
35751.4,48305.6
35594.6,48471.2
35422.7,48620.7
35237.4,48752.8
35039.8,48866
34831.6,48958.9
34614.1,49030
34480.6,49061.5
34325.7,49087
34162.3,49103.3
34000.5,49109.7
33849.8,49105.7
33831.2,49104.3
33588.9,49073.2
33355.5,49018.8
33131.7,48941.4
32918,48841.2
32714.9,48718.5
32522.9,48573.5
32476.4,48533.5
32327.9,48388.8
32189.5,48226.8
32064.7,48052.4
31957,47870.6
31869.9,47686.4
31855.4,47650
31777.8,47416.5
31725.1,47182
31697.1,46947.2
31693.8,46712.9
31715.3,46480
31761.5,46249.1
31832.4,46021.1
31925,45802.6
31960.8,45737.3
32413.3,45737.3
32417.1,45765.5
32430,45791.1
32455.4,45824
32461.5,45831.5
32491.3,45871.9
32515.1,45912.4
32525.5,45937.5
32528.7,45957.2
32533.7,45999.3
32540.4,46061.3
32548.4,46140.8
32557.6,46235.1
32567.8,46341.8
32578.7,46458.4
32590.1,46582.4
32601.7,46711.2
32613.5,46842.5
32625,46973.6
32636.2,47102.1
32646.7,47225.4
32656.4,47341.1
32665.1,47446.7
32672.4,47539.6
32678.2,47617.4
32682.3,47677.5
32683.7,47702.6
32686.7,47765.2
32687.6,47808.4
32685.7,47837.5
32680.2,47858.2
32670.3,47875.9
32658.1,47892.4
32620.5,47952.1
32604.4,48005.9
32606,48046.7
32611.4,48069.7
32621.1,48081.8
32641.6,48086.6
32679.8,48087.5
32685.5,48087.5
32730.1,48085.8
32787.5,48081.2
32851.9,48074.4
32917.7,48066.2
32979,48057.3
33030.3,48048.5
33065.8,48040.4
33077.2,48036.3
33094,48014.7
33100.1,47979.9
33094.5,47941.5
33087.7,47925.4
33070.7,47906.5
33039.5,47881.7
33012.4,47863.6
32976.1,47837.7
32948.7,47811.7
32938.6,47796.7
32929.3,47761.3
32919.4,47704.5
32909.4,47630
32899.7,47541.3
32890.6,47442
32882.4,47335.7
32875.7,47226.1
32874.1,47193.8
32867.5,47058.6
32862.2,46946.4
32858,46855
32854.8,46782.5
32852.7,46726.7
32851.5,46685.6
32851.1,46657.2
32851.6,46639.3
32852.9,46630
32854.9,46627.2
32856.9,46628.2
32863.3,46641.8
32877.3,46676.1
32897.7,46728.5
32923.6,46796.3
32953.9,46876.8
32987.5,46967.3
33021.3,47058.9
33057.6,47157
33092.1,47248.4
33123.6,47330.1
33151,47399.4
33173.3,47453.5
33189.2,47489.4
33197.2,47503.9
33224.7,47518.5
33266.2,47523.9
33312.9,47520.8
33355.8,47510
33386.1,47492
33388.8,47489
33398.3,47467.6
33410.7,47424.7
33425.4,47363.7
33441.7,47287.9
33458.9,47200.7
33476.5,47105.4
33493.7,47005.2
33509.9,46903.5
33524.4,46803.7
33524.9,46800
33537.7,46708.8
33548,46640.2
33556.7,46592.2
33564.4,46562.7
33571.9,46549.6
33579.9,46550.7
33589.2,46563.9
33599.1,46584.3
33605.5,46602.1
33611.5,46627.8
33617.2,46663.4
33623,46711
33628.9,46772.6
33635.2,46850.1
33642.1,46945.6
33649.6,47061.1
33658.1,47198.7
33662.3,47268.5
33669.7,47392.5
33675.7,47494
33680.4,47575.1
33683.5,47638.5
33685,47686.3
33684.9,47721
33683.2,47744.9
33679.6,47760.4
33674.3,47769.9
33667,47775.7
33657.8,47780.2
33648,47785
33602.2,47813.6
33575.8,47842.2
33564.2,47877.5
33562.5,47907.1
33565.5,47947.9
33572.9,47981.8
33576.2,47989.7
33580.8,47997
33587.7,48002.7
33599.8,48007
33619.6,48010
33650,48011.9
33693.6,48012.9
33753.2,48013.1
33831.6,48012.6
33931.3,48011.6
33966.8,48011.2
34343.8,48007.1
34425,48052.2
34469.2,48074.5
34517,48093.4
34574.1,48110.9
34646.4,48128.7
34706.2,48141.8
34767.8,48147.9
34845.5,48142.9
34942.2,48126.8
34946.5,48125.9
35047,48098.3
35148,48058.3
35244,48008.9
35329.5,47953.1
35398.9,47894
35431.4,47857.1
35459,47810.5
35487.5,47743
35515.8,47658.7
35542.3,47561.5
35562.3,47472.7
35573.1,47415.9
35580.4,47364.5
35584.7,47311.7
35586.5,47250.9
35586.2,47175.2
35585.4,47128.9
35581.2,46918.8
35518.8,46800
35447.6,46685.7
35366.2,46593.6
35274.8,46524.1
35242.1,46505.9
35206.6,46489.1
35174.6,46478
35139,46471.1
35092.7,46467.1
35029.6,46464.6
34868.6,46469.8
34709.4,46494.2
34651.3,46508.3
34621.3,46516.4
34630.3,46382.3
34637.8,46285.2
34646,46211.3
34655.1,46158.9
34665.5,46125.9
34676.5,46111.3
34693,46108.5
34731.2,46105.9
34787.8,46103.7
34859.4,46102
34942.7,46100.8
35034.4,46100.2
35053.1,46100.2
35157.8,46100
35240.3,46099.6
35303.6,46098.7
35350.4,46097.1
35383.8,46094.7
35406.4,46091.4
35421.2,46086.8
35431.2,46080.9
35436.1,46076.4
35449.2,46053.5
35464.9,46011.3
35481.8,45955.1
35498.4,45890.3
35513.4,45822.3
35525.4,45756.4
35533.1,45698.1
35533.3,45696.7
35535.3,45639.4
35526.4,45602.6
35503.4,45582.8
35463.2,45576.6
35422.1,45578.6
35376.5,45585.6
35336.9,45596.5
35319.3,45604.8
35308.5,45610.2
35292.7,45614.3
35269.4,45617.4
35235.8,45619.3
35189.2,45620.2
35127.1,45620.2
35046.6,45619.3
34945.2,45617.6
34884.1,45616.4
34478.7,45608.5
34470.8,45640
34467.4,45662
34462.6,45704.4
34456.8,45762.9
34450.5,45832.9
34444.2,45909.9
34443.8,45913.8
34436.5,46002.4
34428.2,46094.7
34419.7,46183.2
34411.7,46260.2
34406.5,46306.2
34388.1,46459.2
34373,46588.9
34361.3,46696.8
34352.6,46784.4
34347,46853.2
34344.2,46904.7
34344.2,46940.3
34346.8,46961.6
34349.8,46968.5
34372.2,46980.1
34409.7,46986.5
34453,46987.2
34492.7,46982
34512.7,46974.9
34529.6,46958.2
34552.7,46925.4
34577.7,46883.2
34582.2,46874.8
34634.7,46792.6
34693.1,46734.6
34757.7,46700.6
34828.7,46690.6
34864.6,46694.1
34901.9,46702.9
34932.5,46716.9
34957.2,46738.6
34976.7,46770.2
34991.6,46814.2
35002.7,46872.7
35010.6,46948.2
35016.1,47043
35019.8,47159.4
35021.1,47218.8
35022.9,47324.6
35023.5,47410.2
35022.9,47480.3
35020.9,47539.6
35017.2,47592.8
35011.6,47644.6
35004.2,47699.9
35002.8,47709.3
34992.6,47772.1
34982,47826.8
34972.2,47868.3
34964.3,47891.1
34963.1,47893
34938.9,47908
34896.7,47921
34843.8,47930.6
34787.2,47935.4
34747.8,47935.1
34681.2,47931.2
34685.4,47729.7
34689.5,47528.1
34649,47482.1
34597.2,47435.2
34539.3,47402.5
34482.6,47388.1
34472.4,47387.8
34431.7,47395.5
34384.4,47414.9
34339,47441.3
34304.1,47470.1
34291.1,47487.5
34283.3,47516.4
34277.8,47564.6
34275.3,47626.3
34275.2,47641
34273.8,47704.6
34269,47746.2
34259.2,47768.4
34243.2,47774.1
34219.4,47766.1
34213.5,47763
34201.2,47756.5
34190.6,47749.9
34181.5,47741.4
34173.6,47729.3
34167,47711.8
34161.4,47687.1
34156.6,47653.7
34152.6,47609.5
34149.1,47553.1
34146,47482.5
34143.2,47396
34140.5,47292
34137.7,47168.5
34134.8,47024
34131.5,46856.6
34130.7,46816.3
34127.7,46668.6
34125,46526.5
34122.4,46392.3
34120,46268.3
34117.9,46156.6
34116.1,46059.6
34114.7,45979.5
34113.7,45918.5
34113.1,45878.8
34112.9,45866.1
34114.2,45820.1
34120.5,45789.3
34135,45763.8
34149.6,45746.1
34182.5,45716.6
34218.5,45695.4
34227.6,45692.1
34261.4,45674.7
34284.8,45649.6
34295.2,45610.9
34295.2,45562.3
34286,45514.1
34269,45477
34263.4,45470.4
34255.1,45462.8
34245.1,45457.1
34230.4,45453.4
34207.8,45451.6
34174.2,45451.5
34126.4,45453.2
34061.2,45456.7
33975.6,45461.7
33932.9,45464.3
33826,45471.3
33738.9,45478.4
33672.8,45485.2
33629.1,45491.7
33609,45497.7
33608.7,45497.9
33592.5,45521.2
33583.3,45547.2
33579.1,45567.5
33570.4,45609.1
33557.9,45668.6
33542.4,45742.9
33524.5,45828.7
33504.8,45922.8
33494.5,45972.4
33474.2,46069.2
33455.2,46159.4
33438.2,46239.7
33424,46306.8
33413.1,46357.6
33406.3,46388.7
33404.6,46395.9
33396.4,46428.4
33367,46379.8
33326,46302.9
33283.4,46206.7
33241.3,46096.6
33201.9,45978
33167.3,45856.8
33143.2,45765.2
33124.4,45694.9
33109.7,45642.7
33098.2,45605.8
33088.8,45581.1
33080.5,45565.6
33072.3,45556.4
33063.1,45550.3
33062.4,45550
33041.6,45546.5
33000.6,45545.9
32943.9,45547.7
32875.8,45551.5
32800.5,45557
32722.5,45563.8
32646.1,45571.5
32575.6,45579.6
32515.4,45587.9
32469.9,45595.8
32443.2,45603.1
32439,45605.7
32427.5,45628.6
32418.5,45667.6
32415.2,45696.7
32413.3,45737.3
31960.8,45737.3
32037.7,45596.8
32170.2,45404
32320.9,45225.8
32488,45063.6
32669.8,44918.9
32864.4,44793.3
33070.2,44688.2
33285.4,44605.2
33349.8,44585.3
33581.7,44530.3
33816.1,44499.5
34051.2,44492.6
Z" /> 
<path style="fill:#000000; fill-opacity:1.0; 
stroke:#000000; stroke-width:3.93701; stroke-opacity:1; 
stroke-linecap:round; stroke-linejoin:round;fill-rule:evenodd;"
d="M 29393.3,43412.2
29406.3,43417.6
29418,43425.7
29427.9,43436.3
29435.4,43449.3
29440.2,43464.5
29440.3,43465.3
29441.1,43480
29438.3,43494.6
29432.3,43508.3
29423.6,43520.5
29412.4,43530.6
29399.2,43537.9
29396.1,43539
29384.9,43541.3
29372,43541.7
29359.2,43540.2
29350.7,43537.8
29337.6,43530.8
29326.4,43520.8
29317.7,43508.5
29311.6,43494.8
29308.7,43480.2
29309.3,43465.4
29310,43461.7
29313,43451.2
29317,43442.8
29322.9,43434.8
29326.6,43430.6
29338.5,43420.3
29351.6,43413.5
29365.5,43410
29379.5,43409.6
Z" /> 
<path style="fill:#000000; fill-opacity:1.0; 
stroke:#000000; stroke-width:3.93701; stroke-opacity:1; 
stroke-linecap:round; stroke-linejoin:round;fill-rule:evenodd;"
d="M 29132.7,43488.2
29164,43494
29192.8,43503
29221.6,43515.9
29248.5,43532.2
29273.2,43551.4
29295.6,43573.4
29315.2,43597.8
29331.9,43624.3
29345.3,43652.6
29355.1,43682.4
29355.2,43682.8
29361.4,43714.1
29363.8,43745.4
29362.4,43776.3
29357.5,43806.5
29349.2,43835.8
29337.7,43863.9
29323.1,43890.4
29305.5,43915.2
29285.1,43937.9
29262,43958.2
29236.5,43975.8
29208.5,43990.5
29192.8,43997
29165.2,44005.5
29136.2,44011.1
29106.8,44013.7
29078,44013
29061,44011
29029.4,44004
28999.5,43993.6
28971.4,43980
28945.4,43963.4
28921.7,43944.1
28900.4,43922.3
28881.8,43898.2
28866.1,43872.1
28853.5,43844.1
28844.1,43814.7
28838.2,43783.9
28836.1,43752
28836.1,43750
28929.2,43750
28929.2,43762.5
28929.4,43772
28929.9,43779.2
28930.7,43785.2
28932,43790.8
28933.8,43796.9
28934.8,43800
28941.9,43818.8
28949.8,43835
28959.5,43849.9
28970.1,43863.1
28987.7,43880.5
29008.1,43895.5
29030.6,43907.6
29054.7,43916.6
29068.1,43919.9
29073.4,43920.6
29081.7,43921
29091.9,43921.3
29102.9,43921.2
29105,43921.2
29116.9,43920.8
29126,43920.3
29133.4,43919.3
29140.3,43917.8
29147.9,43915.6
29152,43914.3
29176.6,43904.2
29198.9,43890.9
29218.9,43874.5
29236.1,43855.3
29250.5,43833.6
29261.8,43809.5
29264.5,43802
29266.9,43794.7
29268.5,43788.8
29269.7,43783.1
29270.4,43776.9
29270.7,43769.2
29270.8,43759
29270.9,43750
29270.8,43737.6
29270.6,43728.3
29270.2,43721.1
29269.4,43715.2
29268.1,43709.5
29266.2,43703.2
29264.5,43698
29254.1,43673
29240.5,43650.5
29223.8,43630.4
29204.1,43612.9
29186,43600.8
29176.9,43596
29166,43590.9
29155.1,43586.6
29152,43585.5
29144.7,43583.1
29138.8,43581.4
29133.1,43580.3
29126.9,43579.6
29119.2,43579.3
29109,43579.2
29100,43579.1
29087.6,43579.2
29078.3,43579.4
29071.1,43579.8
29065.2,43580.6
29059.5,43581.9
29053.2,43583.8
29048,43585.5
29023.9,43595.5
29001.7,43608.7
28982,43624.6
28970.1,43636.9
28958.3,43651.7
28948.9,43666.7
28941.1,43683
28934.8,43700
28932.7,43706.6
28931.2,43712.4
28930.2,43718.1
28929.6,43724.6
28929.3,43733
28929.2,43744.1
28929.2,43750
28836.1,43750
28838,43718.3
28843.7,43687.4
28853,43657.7
28865.6,43629.4
28881.4,43602.8
28900.2,43578.2
28921.7,43555.8
28945.8,43536.1
28972.2,43519.2
29000.8,43505.5
29007.2,43503
29037.7,43493.6
29069.1,43488
29100.9,43486.2
Z" /> 
<path style="fill:#000000; fill-opacity:1.0; 
stroke:#000000; stroke-width:3.93701; stroke-opacity:1; 
stroke-linecap:round; stroke-linejoin:round;fill-rule:evenodd;"
d="M 29128.8,43237.7
29157.8,43237.7
29186.3,43237.8
29213.8,43238
29240.1,43238.1
29264.8,43238.4
29287.7,43238.6
29308.5,43238.9
29326.8,43239.2
29342.4,43239.6
29354.9,43240
29364,43240.4
29369.4,43240.9
29369.6,43240.9
29402.5,43247.8
29433.8,43258.3
29463.3,43272
29490.8,43288.9
29516,43308.7
29538.8,43331.1
29558.9,43356.1
29576.1,43383.3
29590.3,43412.5
29601.1,43443.7
29608.4,43476.4
29609.1,43480.4
29609.5,43485.7
29610,43494.7
29610.4,43507.1
29610.8,43522.6
29611.1,43540.8
29611.4,43561.5
29611.6,43584.3
29611.9,43609
29612,43635.2
29612.2,43662.7
29612.3,43691.1
29612.3,43720.1
29612.3,43749.5
29612.3,43778.8
29612.3,43807.8
29612.2,43836.3
29612,43863.8
29611.9,43890.1
29611.6,43914.8
29611.4,43937.7
29611.1,43958.5
29610.8,43976.8
29610.4,43992.4
29610,44004.9
29609.6,44014
29609.1,44019.4
29609.1,44019.6
29602.2,44052.5
29591.7,44083.8
29578,44113.3
29561.1,44140.8
29541.3,44166
29518.9,44188.8
29493.9,44208.9
29466.7,44226.1
29437.5,44240.3
29406.3,44251.1
29373.6,44258.4
29369.6,44259.1
29364.6,44259.5
29355.9,44259.9
29343.8,44260.3
29328.7,44260.6
29310.8,44260.9
29290.4,44261.2
29267.8,44261.4
29243.4,44261.6
29217.4,44261.8
29190.2,44261.9
29162,44262
29133.1,44262
29103.9,44262.1
29074.7,44262
29045.7,44262
29017.2,44261.9
28989.7,44261.8
28963.3,44261.6
28938.3,44261.4
28915.1,44261.2
28894,44261
28875.3,44260.7
28859.3,44260.3
28846.2,44260
28836.5,44259.6
28830.3,44259.2
28829,44259
28795.9,44251.8
28764.5,44241
28734.9,44227
28707.3,44209.7
28682,44189.6
28659.2,44166.6
28639.2,44141.2
28622,44113.3
28608,44083.3
28599,44056.9
28597.5,44051.5
28596.1,44046.5
28594.8,44041.6
28593.7,44036.6
28592.7,44031.3
28591.8,44025.4
28591.1,44018.8
28590.4,44011.2
28589.9,44002.4
28589.4,43992.2
28589,43980.3
28588.7,43966.5
28588.5,43950.5
28588.3,43932.2
28588.2,43911.4
28588.1,43887.7
28588,43861
28588,43831
28588,43797.6
28588,43760.4
28588,43750
28588,43712.1
28588,43678
28588.1,43647.5
28588.1,43620.3
28588.2,43596.3
28588.3,43575.3
28588.4,43556.9
28588.6,43541.1
28588.7,43527.6
28589,43516.2
28589.2,43506.6
28589.5,43498.8
28589.8,43492.4
28590.2,43487.2
28590.2,43487
28681,43487
28681,44013
28685.6,44028.8
28695.3,44055.5
28708.2,44080
28724.2,44102.2
28743.1,44121.7
28764.6,44138.4
28780.4,44147.9
28794.7,44154.7
28810.4,44160.8
28825.8,44165.5
28836.3,44167.8
28839.7,44168
28846.8,44168.2
28857.5,44168.4
28871.4,44168.6
28888.5,44168.8
28908.4,44168.9
28930.9,44169
28955.8,44169.1
28982.8,44169.2
29011.8,44169.3
29042.4,44169.3
29074.5,44169.3
29106,44169.3
29365,44168.9
29380,44164.4
29406.9,44154.2
29431.5,44140.8
29453.6,44124.5
29472.9,44105.4
29489.5,44083.6
29502.9,44059.4
29513.2,44032.9
29514.4,44028.8
29519,44013
29519,43487
29514.4,43471.2
29504.7,43444.4
29491.7,43419.9
29475.6,43397.7
29456.7,43378.2
29435.1,43361.6
29411.1,43347.9
29384.8,43337.4
29378.8,43335.6
29363,43331
28837,43331
28821.2,43335.6
28794.5,43345.3
28770,43358.3
28747.9,43374.3
28728.4,43393.1
28711.7,43414.6
28698,43438.4
28687.6,43464.5
28685.6,43471
28681,43487
28590.2,43487
28590.6,43483.1
28590.9,43480.4
28597.8,43447.5
28608.3,43416.2
28622,43386.7
28638.9,43359.2
28658.7,43334
28681.1,43311.2
28706.1,43291.1
28733.3,43273.9
28762.5,43259.7
28793.6,43248.9
28826.4,43241.6
28830.4,43240.9
28835.7,43240.5
28844.7,43240
28857.1,43239.6
28872.6,43239.2
28890.8,43238.9
28911.5,43238.6
28934.3,43238.4
28959,43238.1
28985.2,43238
29012.7,43237.8
29041.1,43237.7
29070.1,43237.7
29099.5,43237.7
Z" /> 
<g >
</g>
<g style="fill:#000000; fill-opacity:1.0; 
stroke:#000000; stroke-width:0; stroke-opacity:1; 
stroke-linecap:round; stroke-linejoin:round;">
<circle cx="34200" cy="29900" r="314.961" /> 
</g>
<g style="fill:#000000; fill-opacity:1.0; 
stroke:#000000; stroke-width:39.3701; stroke-opacity:1; 
stroke-linecap:round; stroke-linejoin:round;">
</g>
<g style="fill:#000000; fill-opacity:1.0; 
stroke:#000000; stroke-width:0; stroke-opacity:1; 
stroke-linecap:round; stroke-linejoin:round;">
<circle cx="34200" cy="28900" r="314.961" /> 
</g>
<g style="fill:#000000; fill-opacity:1.0; 
stroke:#000000; stroke-width:39.3701; stroke-opacity:1; 
stroke-linecap:round; stroke-linejoin:round;">
</g>
<g style="fill:#000000; fill-opacity:1.0; 
stroke:#000000; stroke-width:0; stroke-opacity:1; 
stroke-linecap:round; stroke-linejoin:round;">
<circle cx="34200" cy="27900" r="314.961" /> 
</g>
<g style="fill:#000000; fill-opacity:1.0; 
stroke:#000000; stroke-width:39.3701; stroke-opacity:1; 
stroke-linecap:round; stroke-linejoin:round;">
</g>
<g style="fill:#000000; fill-opacity:1.0; 
stroke:#000000; stroke-width:0; stroke-opacity:1; 
stroke-linecap:round; stroke-linejoin:round;">
<circle cx="34200" cy="26900" r="314.961" /> 
</g>
<g style="fill:#000000; fill-opacity:1.0; 
stroke:#000000; stroke-width:39.3701; stroke-opacity:1; 
stroke-linecap:round; stroke-linejoin:round;">
</g>
<g style="fill:#000000; fill-opacity:1.0; 
stroke:#000000; stroke-width:0; stroke-opacity:1; 
stroke-linecap:round; stroke-linejoin:round;">
<circle cx="34200" cy="25900" r="314.961" /> 
</g>
<g style="fill:#000000; fill-opacity:1.0; 
stroke:#000000; stroke-width:39.3701; stroke-opacity:1; 
stroke-linecap:round; stroke-linejoin:round;">
</g>
<g style="fill:#000000; fill-opacity:1.0; 
stroke:#000000; stroke-width:0; stroke-opacity:1; 
stroke-linecap:round; stroke-linejoin:round;">
<circle cx="34200" cy="24900" r="314.961" /> 
</g>
<g style="fill:#000000; fill-opacity:1.0; 
stroke:#000000; stroke-width:39.3701; stroke-opacity:1; 
stroke-linecap:round; stroke-linejoin:round;">
</g>
<g style="fill:#000000; fill-opacity:1.0; 
stroke:#000000; stroke-width:0; stroke-opacity:1; 
stroke-linecap:round; stroke-linejoin:round;">
<circle cx="34200" cy="23900" r="314.961" /> 
</g>
<g style="fill:#000000; fill-opacity:1.0; 
stroke:#000000; stroke-width:39.3701; stroke-opacity:1; 
stroke-linecap:round; stroke-linejoin:round;">
</g>
<g style="fill:#000000; fill-opacity:1.0; 
stroke:#000000; stroke-width:0; stroke-opacity:1; 
stroke-linecap:round; stroke-linejoin:round;">
<circle cx="34200" cy="22900" r="314.961" /> 
</g>
<g style="fill:#000000; fill-opacity:1.0; 
stroke:#000000; stroke-width:39.3701; stroke-opacity:1; 
stroke-linecap:round; stroke-linejoin:round;">
</g>
<g style="fill:#000000; fill-opacity:1.0; 
stroke:#000000; stroke-width:0; stroke-opacity:1; 
stroke-linecap:round; stroke-linejoin:round;">
<circle cx="34200" cy="21900" r="314.961" /> 
</g>
<g style="fill:#000000; fill-opacity:1.0; 
stroke:#000000; stroke-width:39.3701; stroke-opacity:1; 
stroke-linecap:round; stroke-linejoin:round;">
</g>
<g style="fill:#000000; fill-opacity:1.0; 
stroke:#000000; stroke-width:0; stroke-opacity:1; 
stroke-linecap:round; stroke-linejoin:round;">
<circle cx="34200" cy="20900" r="314.961" /> 
</g>
<g style="fill:#000000; fill-opacity:1.0; 
stroke:#000000; stroke-width:39.3701; stroke-opacity:1; 
stroke-linecap:round; stroke-linejoin:round;">
</g>
<g style="fill:#000000; fill-opacity:1.0; 
stroke:#000000; stroke-width:0; stroke-opacity:1; 
stroke-linecap:round; stroke-linejoin:round;">
<circle cx="34200" cy="19900" r="314.961" /> 
</g>
<g style="fill:#000000; fill-opacity:1.0; 
stroke:#000000; stroke-width:39.3701; stroke-opacity:1; 
stroke-linecap:round; stroke-linejoin:round;">
</g>
<g style="fill:#000000; fill-opacity:1.0; 
stroke:#000000; stroke-width:0; stroke-opacity:1; 
stroke-linecap:round; stroke-linejoin:round;">
<circle cx="34200" cy="18900" r="314.961" /> 
</g>
<g style="fill:#000000; fill-opacity:1.0; 
stroke:#000000; stroke-width:39.3701; stroke-opacity:1; 
stroke-linecap:round; stroke-linejoin:round;">
</g>
<g style="fill:#000000; fill-opacity:1.0; 
stroke:#000000; stroke-width:0; stroke-opacity:1; 
stroke-linecap:round; stroke-linejoin:round;">
<circle cx="34200" cy="17900" r="314.961" /> 
</g>
<g style="fill:#000000; fill-opacity:1.0; 
stroke:#000000; stroke-width:39.3701; stroke-opacity:1; 
stroke-linecap:round; stroke-linejoin:round;">
</g>
<g style="fill:#000000; fill-opacity:1.0; 
stroke:#000000; stroke-width:0; stroke-opacity:1; 
stroke-linecap:round; stroke-linejoin:round;">
<circle cx="34200" cy="16900" r="314.961" /> 
</g>
<g style="fill:#000000; fill-opacity:1.0; 
stroke:#000000; stroke-width:39.3701; stroke-opacity:1; 
stroke-linecap:round; stroke-linejoin:round;">
</g>
<g style="fill:#000000; fill-opacity:1.0; 
stroke:#000000; stroke-width:0; stroke-opacity:1; 
stroke-linecap:round; stroke-linejoin:round;">
<circle cx="34200" cy="15900" r="314.961" /> 
</g>
<g style="fill:#000000; fill-opacity:1.0; 
stroke:#000000; stroke-width:39.3701; stroke-opacity:1; 
stroke-linecap:round; stroke-linejoin:round;">
</g>
<g style="fill:#000000; fill-opacity:1.0; 
stroke:#000000; stroke-width:0; stroke-opacity:1; 
stroke-linecap:round; stroke-linejoin:round;">
<path style="fill:#000000; fill-opacity:1.0; 
stroke:#000000; stroke-width:0; stroke-opacity:1; 
stroke-linecap:round; stroke-linejoin:round;fill-rule:evenodd;"
d="M 34515,14585
34515,15215
33885,15215
33885,14585
Z" /> 
<circle cx="42200" cy="18900" r="314.961" /> 
</g>
<g style="fill:#000000; fill-opacity:1.0; 
stroke:#000000; stroke-width:39.3701; stroke-opacity:1; 
stroke-linecap:round; stroke-linejoin:round;">
</g>
<g style="fill:#000000; fill-opacity:1.0; 
stroke:#000000; stroke-width:0; stroke-opacity:1; 
stroke-linecap:round; stroke-linejoin:round;">
<circle cx="42200" cy="19900" r="314.961" /> 
</g>
<g style="fill:#000000; fill-opacity:1.0; 
stroke:#000000; stroke-width:39.3701; stroke-opacity:1; 
stroke-linecap:round; stroke-linejoin:round;">
</g>
<g style="fill:#000000; fill-opacity:1.0; 
stroke:#000000; stroke-width:0; stroke-opacity:1; 
stroke-linecap:round; stroke-linejoin:round;">
<circle cx="42200" cy="20900" r="314.961" /> 
</g>
<g style="fill:#000000; fill-opacity:1.0; 
stroke:#000000; stroke-width:39.3701; stroke-opacity:1; 
stroke-linecap:round; stroke-linejoin:round;">
</g>
<g style="fill:#000000; fill-opacity:1.0; 
stroke:#000000; stroke-width:0; stroke-opacity:1; 
stroke-linecap:round; stroke-linejoin:round;">
<circle cx="42200" cy="21900" r="314.961" /> 
</g>
<g style="fill:#000000; fill-opacity:1.0; 
stroke:#000000; stroke-width:39.3701; stroke-opacity:1; 
stroke-linecap:round; stroke-linejoin:round;">
</g>
<g style="fill:#000000; fill-opacity:1.0; 
stroke:#000000; stroke-width:0; stroke-opacity:1; 
stroke-linecap:round; stroke-linejoin:round;">
<circle cx="42200" cy="22900" r="314.961" /> 
</g>
<g style="fill:#000000; fill-opacity:1.0; 
stroke:#000000; stroke-width:39.3701; stroke-opacity:1; 
stroke-linecap:round; stroke-linejoin:round;">
</g>
<g style="fill:#000000; fill-opacity:1.0; 
stroke:#000000; stroke-width:0; stroke-opacity:1; 
stroke-linecap:round; stroke-linejoin:round;">
<circle cx="42200" cy="23900" r="314.961" /> 
</g>
<g style="fill:#000000; fill-opacity:1.0; 
stroke:#000000; stroke-width:39.3701; stroke-opacity:1; 
stroke-linecap:round; stroke-linejoin:round;">
</g>
<g style="fill:#000000; fill-opacity:1.0; 
stroke:#000000; stroke-width:0; stroke-opacity:1; 
stroke-linecap:round; stroke-linejoin:round;">
<circle cx="42200" cy="24900" r="314.961" /> 
</g>
<g style="fill:#000000; fill-opacity:1.0; 
stroke:#000000; stroke-width:39.3701; stroke-opacity:1; 
stroke-linecap:round; stroke-linejoin:round;">
</g>
<g style="fill:#000000; fill-opacity:1.0; 
stroke:#000000; stroke-width:0; stroke-opacity:1; 
stroke-linecap:round; stroke-linejoin:round;">
<circle cx="42200" cy="25900" r="314.961" /> 
</g>
<g style="fill:#000000; fill-opacity:1.0; 
stroke:#000000; stroke-width:39.3701; stroke-opacity:1; 
stroke-linecap:round; stroke-linejoin:round;">
</g>
<g style="fill:#000000; fill-opacity:1.0; 
stroke:#000000; stroke-width:0; stroke-opacity:1; 
stroke-linecap:round; stroke-linejoin:round;">
<circle cx="42200" cy="26900" r="314.961" /> 
</g>
<g style="fill:#000000; fill-opacity:1.0; 
stroke:#000000; stroke-width:39.3701; stroke-opacity:1; 
stroke-linecap:round; stroke-linejoin:round;">
</g>
<g style="fill:#000000; fill-opacity:1.0; 
stroke:#000000; stroke-width:0; stroke-opacity:1; 
stroke-linecap:round; stroke-linejoin:round;">
<circle cx="42200" cy="27900" r="314.961" /> 
</g>
<g style="fill:#000000; fill-opacity:1.0; 
stroke:#000000; stroke-width:39.3701; stroke-opacity:1; 
stroke-linecap:round; stroke-linejoin:round;">
</g>
<g style="fill:#000000; fill-opacity:1.0; 
stroke:#000000; stroke-width:0; stroke-opacity:1; 
stroke-linecap:round; stroke-linejoin:round;">
<circle cx="42200" cy="28900" r="314.961" /> 
</g>
<g style="fill:#000000; fill-opacity:1.0; 
stroke:#000000; stroke-width:39.3701; stroke-opacity:1; 
stroke-linecap:round; stroke-linejoin:round;">
</g>
<g style="fill:#000000; fill-opacity:1.0; 
stroke:#000000; stroke-width:0; stroke-opacity:1; 
stroke-linecap:round; stroke-linejoin:round;">
<circle cx="42200" cy="29900" r="314.961" /> 
</g>
<g style="fill:#000000; fill-opacity:1.0; 
stroke:#000000; stroke-width:39.3701; stroke-opacity:1; 
stroke-linecap:round; stroke-linejoin:round;">
</g>
<g >
</g>
<g >
</g>
<g >
</g>
<g style="fill:#000000; fill-opacity:1.0; 
stroke:#000000; stroke-width:39.3701; stroke-opacity:1; 
stroke-linecap:round; stroke-linejoin:round;">
</g>
<g style="fill:#000000; fill-opacity:1.0; 
stroke:#000000; stroke-width:0; stroke-opacity:1; 
stroke-linecap:round; stroke-linejoin:round;">
<path style="fill:#000000; fill-opacity:1.0; 
stroke:#000000; stroke-width:0; stroke-opacity:1; 
stroke-linecap:round; stroke-linejoin:round;fill-rule:evenodd;"
d="M 31534.6,37565.4
31534.6,38234.6
30865.4,38234.6
30865.4,37565.4
Z" /> 
<circle cx="31200" cy="36900" r="334.646" /> 
<circle cx="31200" cy="35900" r="334.646" /> 
<circle cx="31200" cy="34900" r="334.646" /> 
</g>
<g >
</g>
<g style="fill:#000000; fill-opacity:1.0; 
stroke:#000000; stroke-width:0; stroke-opacity:1; 
stroke-linecap:round; stroke-linejoin:round;">
<path style="fill:#000000; fill-opacity:1.0; 
stroke:#000000; stroke-width:0; stroke-opacity:1; 
stroke-linecap:round; stroke-linejoin:round;fill-rule:evenodd;"
d="M 37306.3,41506.3
38093.7,41506.3
38093.7,42293.7
37306.3,42293.7
Z" /> 
<circle cx="37700" cy="43868.5" r="393.701" /> 
</g>
<g style="fill:#000000; fill-opacity:1.0; 
stroke:#000000; stroke-width:39.3701; stroke-opacity:1; 
stroke-linecap:round; stroke-linejoin:round;">
</g>
<g >
</g>
<g style="fill:#000000; fill-opacity:1.0; 
stroke:#000000; stroke-width:39.3701; stroke-opacity:1; 
stroke-linecap:round; stroke-linejoin:round;">
</g>
<g style="fill:#000000; fill-opacity:1.0; 
stroke:#000000; stroke-width:0; stroke-opacity:1; 
stroke-linecap:round; stroke-linejoin:round;">
<path style="fill:#000000; fill-opacity:1.0; 
stroke:#000000; stroke-width:0; stroke-opacity:1; 
stroke-linecap:round; stroke-linejoin:round;fill-rule:evenodd;"
d="M 29756.9,41556
29766.4,41557.4
29775.8,41559.8
29784.9,41563
29793.6,41567.1
29801.9,41572.1
29809.7,41577.9
29816.8,41584.3
29823.3,41591.5
29829.1,41599.3
29834,41607.5
29838.2,41616.3
29841.4,41625.4
29843.8,41634.7
29845.2,41644.3
29845.7,41653.9
29845.7,42146.1
29845.2,42155.7
29843.8,42165.3
29841.4,42174.6
29838.2,42183.7
29834,42192.5
29829.1,42200.7
29823.3,42208.5
29816.8,42215.7
29809.7,42222.1
29801.9,42227.9
29793.6,42232.9
29784.9,42237
29775.8,42240.2
29766.4,42242.6
29756.9,42244
29747.2,42244.5
29501.2,42244.5
29491.5,42244
29482,42242.6
29472.6,42240.2
29463.5,42237
29454.8,42232.9
29446.5,42227.9
29438.7,42222.1
29431.6,42215.7
29425.1,42208.5
29419.3,42200.7
29414.4,42192.5
29410.2,42183.7
29407,42174.6
29404.6,42165.3
29403.2,42155.7
29402.8,42146.1
29402.8,41653.9
29403.2,41644.3
29404.6,41634.7
29407,41625.4
29410.2,41616.3
29414.4,41607.5
29419.3,41599.3
29425.1,41591.5
29431.6,41584.3
29438.7,41577.9
29446.5,41572.1
29454.8,41567.1
29463.5,41563
29472.6,41559.8
29482,41557.4
29491.5,41556
29501.2,41555.5
29747.2,41555.5
Z" /> 
<path style="fill:#000000; fill-opacity:1.0; 
stroke:#000000; stroke-width:0; stroke-opacity:1; 
stroke-linecap:round; stroke-linejoin:round;fill-rule:evenodd;"
d="M 30908.5,41556
30918,41557.4
30927.4,41559.8
30936.5,41563
30945.2,41567.1
30953.5,41572.1
30961.3,41577.9
30968.4,41584.3
30974.9,41591.5
30980.7,41599.3
30985.6,41607.5
30989.8,41616.3
30993,41625.4
30995.4,41634.7
30996.8,41644.3
30997.2,41653.9
30997.2,42146.1
30996.8,42155.7
30995.4,42165.3
30993,42174.6
30989.8,42183.7
30985.6,42192.5
30980.7,42200.7
30974.9,42208.5
30968.4,42215.7
30961.3,42222.1
30953.5,42227.9
30945.2,42232.9
30936.5,42237
30927.4,42240.2
30918,42242.6
30908.5,42244
30898.8,42244.5
30652.8,42244.5
30643.1,42244
30633.6,42242.6
30624.2,42240.2
30615.1,42237
30606.4,42232.9
30598.1,42227.9
30590.3,42222.1
30583.2,42215.7
30576.7,42208.5
30570.9,42200.7
30566,42192.5
30561.8,42183.7
30558.6,42174.6
30556.2,42165.3
30554.8,42155.7
30554.3,42146.1
30554.3,41653.9
30554.8,41644.3
30556.2,41634.7
30558.6,41625.4
30561.8,41616.3
30566,41607.5
30570.9,41599.3
30576.7,41591.5
30583.2,41584.3
30590.3,41577.9
30598.1,41572.1
30606.4,41567.1
30615.1,41563
30624.2,41559.8
30633.6,41557.4
30643.1,41556
30652.8,41555.5
30898.8,41555.5
Z" /> 
</g>
<g >
</g>
<g style="fill:#000000; fill-opacity:1.0; 
stroke:#000000; stroke-width:0; stroke-opacity:1; 
stroke-linecap:round; stroke-linejoin:round;">
<path style="fill:#000000; fill-opacity:1.0; 
stroke:#000000; stroke-width:0; stroke-opacity:1; 
stroke-linecap:round; stroke-linejoin:round;fill-rule:evenodd;"
d="M 40296.3,41940.9
41083.7,41940.9
41083.7,42728.3
40296.3,42728.3
Z" /> 
<circle cx="40690" cy="44334.6" r="393.701" /> 
</g>
<g >
</g>
<g style="fill:#000000; fill-opacity:1.0; 
stroke:#000000; stroke-width:0; stroke-opacity:1; 
stroke-linecap:round; stroke-linejoin:round;">
<circle cx="31200" cy="26900" r="334.646" /> 
<circle cx="31200" cy="27900" r="334.646" /> 
<circle cx="31200" cy="28900" r="334.646" /> 
<path style="fill:#000000; fill-opacity:1.0; 
stroke:#000000; stroke-width:0; stroke-opacity:1; 
stroke-linecap:round; stroke-linejoin:round;fill-rule:evenodd;"
d="M 31534.6,29565.4
31534.6,30234.6
30865.4,30234.6
30865.4,29565.4
Z" /> 
</g>
<g >
</g>
<g style="fill:#000000; fill-opacity:1.0; 
stroke:#000000; stroke-width:0; stroke-opacity:1; 
stroke-linecap:round; stroke-linejoin:round;">
<circle cx="45200" cy="37900" r="334.646" /> 
<circle cx="45200" cy="36900" r="334.646" /> 
<circle cx="45200" cy="35900" r="334.646" /> 
<path style="fill:#000000; fill-opacity:1.0; 
stroke:#000000; stroke-width:0; stroke-opacity:1; 
stroke-linecap:round; stroke-linejoin:round;fill-rule:evenodd;"
d="M 44865.4,35234.6
44865.4,34565.4
45534.6,34565.4
45534.6,35234.6
Z" /> 
</g>
<g >
</g>
<g style="fill:#000000; fill-opacity:1.0; 
stroke:#000000; stroke-width:0; stroke-opacity:1; 
stroke-linecap:round; stroke-linejoin:round;">
<circle cx="45158.7" cy="21900" r="334.646" /> 
<circle cx="45158.7" cy="20900" r="334.646" /> 
<circle cx="45158.7" cy="19900" r="334.646" /> 
<path style="fill:#000000; fill-opacity:1.0; 
stroke:#000000; stroke-width:0; stroke-opacity:1; 
stroke-linecap:round; stroke-linejoin:round;fill-rule:evenodd;"
d="M 44824,19234.6
44824,18565.4
45493.3,18565.4
45493.3,19234.6
Z" /> 
</g>
<g >
</g>
<g style="fill:#000000; fill-opacity:1.0; 
stroke:#000000; stroke-width:0; stroke-opacity:1; 
stroke-linecap:round; stroke-linejoin:round;">
<path style="fill:#000000; fill-opacity:1.0; 
stroke:#000000; stroke-width:0; stroke-opacity:1; 
stroke-linecap:round; stroke-linejoin:round;fill-rule:evenodd;"
d="M 44865.4,27234.6
44865.4,26565.4
45534.6,26565.4
45534.6,27234.6
Z" /> 
<circle cx="45200" cy="27900" r="334.646" /> 
<circle cx="45200" cy="28900" r="334.646" /> 
<circle cx="45200" cy="29900" r="334.646" /> 
</g>
<g >
</g>
<g style="fill:#000000; fill-opacity:1.0; 
stroke:#000000; stroke-width:0; stroke-opacity:1; 
stroke-linecap:round; stroke-linejoin:round;">
<path style="fill:#000000; fill-opacity:1.0; 
stroke:#000000; stroke-width:0; stroke-opacity:1; 
stroke-linecap:round; stroke-linejoin:round;fill-rule:evenodd;"
d="M 31534.6,21565.4
31534.6,22234.6
30865.4,22234.6
30865.4,21565.4
Z" /> 
<circle cx="31200" cy="20900" r="334.646" /> 
<circle cx="31200" cy="19900" r="334.646" /> 
<circle cx="31200" cy="18900" r="334.646" /> 
</g>
<g >
</g>
<g style="fill:#000000; fill-opacity:1.0; 
stroke:#000000; stroke-width:0; stroke-opacity:1; 
stroke-linecap:round; stroke-linejoin:round;">
<circle cx="45200" cy="44234.6" r="1181.1" /> 
</g>
<g style="fill:#000000; fill-opacity:1.0; 
stroke:#000000; stroke-width:39.3701; stroke-opacity:1; 
stroke-linecap:round; stroke-linejoin:round;">
</g>
<g style="fill:#000000; fill-opacity:1.0; 
stroke:#000000; stroke-width:0; stroke-opacity:1; 
stroke-linecap:round; stroke-linejoin:round;">
<path style="fill:#000000; fill-opacity:1.0; 
stroke:#000000; stroke-width:0; stroke-opacity:1; 
stroke-linecap:round; stroke-linejoin:round;fill-rule:evenodd;"
d="M 45848.4,40221.7
45905.8,40230.2
45962,40244.3
46016.5,40263.9
46068.9,40288.6
46118.6,40318.4
46165.2,40352.9
46208.1,40391.9
46247.1,40434.8
46281.6,40481.4
46311.4,40531.1
46336.1,40583.5
46355.7,40638
46369.8,40694.2
46378.3,40751.6
46381.1,40809.4
46381.1,41990.6
46378.3,42048.4
46369.8,42105.8
46355.7,42162
46336.1,42216.5
46311.4,42268.9
46281.6,42318.6
46247.1,42365.2
46208.1,42408.1
46165.2,42447.1
46118.6,42481.6
46068.9,42511.4
46016.5,42536.1
45962,42555.7
45905.8,42569.8
45848.4,42578.3
45790.6,42581.1
44609.4,42581.1
44551.6,42578.3
44494.2,42569.8
44438,42555.7
44383.5,42536.1
44331.1,42511.4
44281.4,42481.6
44234.8,42447.1
44191.9,42408.1
44152.9,42365.2
44118.4,42318.6
44088.6,42268.9
44063.9,42216.5
44044.3,42162
44030.2,42105.8
44021.7,42048.4
44018.9,41990.6
44018.9,40809.4
44021.7,40751.6
44030.2,40694.2
44044.3,40638
44063.9,40583.5
44088.6,40531.1
44118.4,40481.4
44152.9,40434.8
44191.9,40391.9
44234.8,40352.9
44281.4,40318.4
44331.1,40288.6
44383.5,40263.9
44438,40244.3
44494.2,40230.2
44551.6,40221.7
44609.4,40218.9
45790.6,40218.9
Z" /> 
</g>
<g >
</g>
<g style="fill:#000000; fill-opacity:1.0; 
stroke:#000000; stroke-width:0; stroke-opacity:1; 
stroke-linecap:round; stroke-linejoin:round;">
<path style="fill:#000000; fill-opacity:1.0; 
stroke:#000000; stroke-width:0; stroke-opacity:1; 
stroke-linecap:round; stroke-linejoin:round;fill-rule:evenodd;"
d="M 33404.7,41565.4
33404.7,42234.6
32420.5,42234.6
32420.5,41565.4
Z" /> 
<path style="fill:#000000; fill-opacity:1.0; 
stroke:#000000; stroke-width:0; stroke-opacity:1; 
stroke-linecap:round; stroke-linejoin:round;fill-rule:evenodd;"
d="M 34979.5,41565.4
34979.5,42234.6
33995.3,42234.6
33995.3,41565.4
Z" /> 
</g>
<g >
</g>
<g style="fill:#000000; fill-opacity:1.0; 
stroke:#000000; stroke-width:0; stroke-opacity:1; 
stroke-linecap:round; stroke-linejoin:round;">
<circle cx="29700" cy="11900" r="1259.84" /> 
</g>
<g style="fill:#000000; fill-opacity:1.0; 
stroke:#000000; stroke-width:39.3701; stroke-opacity:1; 
stroke-linecap:round; stroke-linejoin:round;">
</g>
<g style="fill:#000000; fill-opacity:1.0; 
stroke:#000000; stroke-width:0; stroke-opacity:1; 
stroke-linecap:round; stroke-linejoin:round;">
<circle cx="30644.9" cy="11900" r="157.48" /> 
</g>
<g style="fill:#000000; fill-opacity:1.0; 
stroke:#000000; stroke-width:39.3701; stroke-opacity:1; 
stroke-linecap:round; stroke-linejoin:round;">
</g>
<g style="fill:#000000; fill-opacity:1.0; 
stroke:#000000; stroke-width:0; stroke-opacity:1; 
stroke-linecap:round; stroke-linejoin:round;">
<circle cx="30368.1" cy="12568.1" r="157.48" /> 
</g>
<g style="fill:#000000; fill-opacity:1.0; 
stroke:#000000; stroke-width:39.3701; stroke-opacity:1; 
stroke-linecap:round; stroke-linejoin:round;">
</g>
<g style="fill:#000000; fill-opacity:1.0; 
stroke:#000000; stroke-width:0; stroke-opacity:1; 
stroke-linecap:round; stroke-linejoin:round;">
<circle cx="29700" cy="12844.9" r="157.48" /> 
</g>
<g style="fill:#000000; fill-opacity:1.0; 
stroke:#000000; stroke-width:39.3701; stroke-opacity:1; 
stroke-linecap:round; stroke-linejoin:round;">
</g>
<g style="fill:#000000; fill-opacity:1.0; 
stroke:#000000; stroke-width:0; stroke-opacity:1; 
stroke-linecap:round; stroke-linejoin:round;">
<circle cx="29031.9" cy="12568.1" r="157.48" /> 
</g>
<g style="fill:#000000; fill-opacity:1.0; 
stroke:#000000; stroke-width:39.3701; stroke-opacity:1; 
stroke-linecap:round; stroke-linejoin:round;">
</g>
<g style="fill:#000000; fill-opacity:1.0; 
stroke:#000000; stroke-width:0; stroke-opacity:1; 
stroke-linecap:round; stroke-linejoin:round;">
<circle cx="28755.1" cy="11900" r="157.48" /> 
</g>
<g style="fill:#000000; fill-opacity:1.0; 
stroke:#000000; stroke-width:39.3701; stroke-opacity:1; 
stroke-linecap:round; stroke-linejoin:round;">
</g>
<g style="fill:#000000; fill-opacity:1.0; 
stroke:#000000; stroke-width:0; stroke-opacity:1; 
stroke-linecap:round; stroke-linejoin:round;">
<circle cx="29031.9" cy="11231.9" r="157.48" /> 
</g>
<g style="fill:#000000; fill-opacity:1.0; 
stroke:#000000; stroke-width:39.3701; stroke-opacity:1; 
stroke-linecap:round; stroke-linejoin:round;">
</g>
<g style="fill:#000000; fill-opacity:1.0; 
stroke:#000000; stroke-width:0; stroke-opacity:1; 
stroke-linecap:round; stroke-linejoin:round;">
<circle cx="29700" cy="10955.1" r="157.48" /> 
</g>
<g style="fill:#000000; fill-opacity:1.0; 
stroke:#000000; stroke-width:39.3701; stroke-opacity:1; 
stroke-linecap:round; stroke-linejoin:round;">
</g>
<g style="fill:#000000; fill-opacity:1.0; 
stroke:#000000; stroke-width:0; stroke-opacity:1; 
stroke-linecap:round; stroke-linejoin:round;">
<circle cx="30368.1" cy="11231.9" r="157.48" /> 
</g>
<g style="fill:#000000; fill-opacity:1.0; 
stroke:#000000; stroke-width:39.3701; stroke-opacity:1; 
stroke-linecap:round; stroke-linejoin:round;">
</g>
<g >
</g>
<g style="fill:#000000; fill-opacity:1.0; 
stroke:#000000; stroke-width:39.3701; stroke-opacity:1; 
stroke-linecap:round; stroke-linejoin:round;">
</g>
<g style="fill:#000000; fill-opacity:1.0; 
stroke:#000000; stroke-width:0; stroke-opacity:1; 
stroke-linecap:round; stroke-linejoin:round;">
<circle cx="47368.1" cy="11231.9" r="157.48" /> 
</g>
<g style="fill:#000000; fill-opacity:1.0; 
stroke:#000000; stroke-width:39.3701; stroke-opacity:1; 
stroke-linecap:round; stroke-linejoin:round;">
</g>
<g style="fill:#000000; fill-opacity:1.0; 
stroke:#000000; stroke-width:0; stroke-opacity:1; 
stroke-linecap:round; stroke-linejoin:round;">
<circle cx="46700" cy="10955.1" r="157.48" /> 
</g>
<g style="fill:#000000; fill-opacity:1.0; 
stroke:#000000; stroke-width:39.3701; stroke-opacity:1; 
stroke-linecap:round; stroke-linejoin:round;">
</g>
<g style="fill:#000000; fill-opacity:1.0; 
stroke:#000000; stroke-width:0; stroke-opacity:1; 
stroke-linecap:round; stroke-linejoin:round;">
<circle cx="46031.9" cy="11231.9" r="157.48" /> 
</g>
<g style="fill:#000000; fill-opacity:1.0; 
stroke:#000000; stroke-width:39.3701; stroke-opacity:1; 
stroke-linecap:round; stroke-linejoin:round;">
</g>
<g style="fill:#000000; fill-opacity:1.0; 
stroke:#000000; stroke-width:0; stroke-opacity:1; 
stroke-linecap:round; stroke-linejoin:round;">
<circle cx="45755.1" cy="11900" r="157.48" /> 
</g>
<g style="fill:#000000; fill-opacity:1.0; 
stroke:#000000; stroke-width:39.3701; stroke-opacity:1; 
stroke-linecap:round; stroke-linejoin:round;">
</g>
<g style="fill:#000000; fill-opacity:1.0; 
stroke:#000000; stroke-width:0; stroke-opacity:1; 
stroke-linecap:round; stroke-linejoin:round;">
<circle cx="46031.9" cy="12568.1" r="157.48" /> 
</g>
<g style="fill:#000000; fill-opacity:1.0; 
stroke:#000000; stroke-width:39.3701; stroke-opacity:1; 
stroke-linecap:round; stroke-linejoin:round;">
</g>
<g style="fill:#000000; fill-opacity:1.0; 
stroke:#000000; stroke-width:0; stroke-opacity:1; 
stroke-linecap:round; stroke-linejoin:round;">
<circle cx="46700" cy="12844.9" r="157.48" /> 
</g>
<g style="fill:#000000; fill-opacity:1.0; 
stroke:#000000; stroke-width:39.3701; stroke-opacity:1; 
stroke-linecap:round; stroke-linejoin:round;">
</g>
<g style="fill:#000000; fill-opacity:1.0; 
stroke:#000000; stroke-width:0; stroke-opacity:1; 
stroke-linecap:round; stroke-linejoin:round;">
<circle cx="47368.1" cy="12568.1" r="157.48" /> 
</g>
<g style="fill:#000000; fill-opacity:1.0; 
stroke:#000000; stroke-width:39.3701; stroke-opacity:1; 
stroke-linecap:round; stroke-linejoin:round;">
</g>
<g style="fill:#000000; fill-opacity:1.0; 
stroke:#000000; stroke-width:0; stroke-opacity:1; 
stroke-linecap:round; stroke-linejoin:round;">
<circle cx="47644.9" cy="11900" r="157.48" /> 
</g>
<g style="fill:#000000; fill-opacity:1.0; 
stroke:#000000; stroke-width:39.3701; stroke-opacity:1; 
stroke-linecap:round; stroke-linejoin:round;">
</g>
<g style="fill:#000000; fill-opacity:1.0; 
stroke:#000000; stroke-width:0; stroke-opacity:1; 
stroke-linecap:round; stroke-linejoin:round;">
<circle cx="46700" cy="11900" r="1259.84" /> 
</g>
<g style="fill:#000000; fill-opacity:1.0; 
stroke:#000000; stroke-width:39.3701; stroke-opacity:1; 
stroke-linecap:round; stroke-linejoin:round;">
</g>
<g >
</g>
<g style="fill:#000000; fill-opacity:1.0; 
stroke:#000000; stroke-width:39.3701; stroke-opacity:1; 
stroke-linecap:round; stroke-linejoin:round;">
</g>
<g style="fill:#000000; fill-opacity:1.0; 
stroke:#000000; stroke-width:0; stroke-opacity:1; 
stroke-linecap:round; stroke-linejoin:round;">
<circle cx="47368.1" cy="47231.9" r="157.48" /> 
</g>
<g style="fill:#000000; fill-opacity:1.0; 
stroke:#000000; stroke-width:39.3701; stroke-opacity:1; 
stroke-linecap:round; stroke-linejoin:round;">
</g>
<g style="fill:#000000; fill-opacity:1.0; 
stroke:#000000; stroke-width:0; stroke-opacity:1; 
stroke-linecap:round; stroke-linejoin:round;">
<circle cx="46700" cy="46955.1" r="157.48" /> 
</g>
<g style="fill:#000000; fill-opacity:1.0; 
stroke:#000000; stroke-width:39.3701; stroke-opacity:1; 
stroke-linecap:round; stroke-linejoin:round;">
</g>
<g style="fill:#000000; fill-opacity:1.0; 
stroke:#000000; stroke-width:0; stroke-opacity:1; 
stroke-linecap:round; stroke-linejoin:round;">
<circle cx="46031.9" cy="47231.9" r="157.48" /> 
</g>
<g style="fill:#000000; fill-opacity:1.0; 
stroke:#000000; stroke-width:39.3701; stroke-opacity:1; 
stroke-linecap:round; stroke-linejoin:round;">
</g>
<g style="fill:#000000; fill-opacity:1.0; 
stroke:#000000; stroke-width:0; stroke-opacity:1; 
stroke-linecap:round; stroke-linejoin:round;">
<circle cx="45755.1" cy="47900" r="157.48" /> 
</g>
<g style="fill:#000000; fill-opacity:1.0; 
stroke:#000000; stroke-width:39.3701; stroke-opacity:1; 
stroke-linecap:round; stroke-linejoin:round;">
</g>
<g style="fill:#000000; fill-opacity:1.0; 
stroke:#000000; stroke-width:0; stroke-opacity:1; 
stroke-linecap:round; stroke-linejoin:round;">
<circle cx="46031.9" cy="48568.1" r="157.48" /> 
</g>
<g style="fill:#000000; fill-opacity:1.0; 
stroke:#000000; stroke-width:39.3701; stroke-opacity:1; 
stroke-linecap:round; stroke-linejoin:round;">
</g>
<g style="fill:#000000; fill-opacity:1.0; 
stroke:#000000; stroke-width:0; stroke-opacity:1; 
stroke-linecap:round; stroke-linejoin:round;">
<circle cx="46700" cy="48844.9" r="157.48" /> 
</g>
<g style="fill:#000000; fill-opacity:1.0; 
stroke:#000000; stroke-width:39.3701; stroke-opacity:1; 
stroke-linecap:round; stroke-linejoin:round;">
</g>
<g style="fill:#000000; fill-opacity:1.0; 
stroke:#000000; stroke-width:0; stroke-opacity:1; 
stroke-linecap:round; stroke-linejoin:round;">
<circle cx="47368.1" cy="48568.1" r="157.48" /> 
</g>
<g style="fill:#000000; fill-opacity:1.0; 
stroke:#000000; stroke-width:39.3701; stroke-opacity:1; 
stroke-linecap:round; stroke-linejoin:round;">
</g>
<g style="fill:#000000; fill-opacity:1.0; 
stroke:#000000; stroke-width:0; stroke-opacity:1; 
stroke-linecap:round; stroke-linejoin:round;">
<circle cx="47644.9" cy="47900" r="157.48" /> 
</g>
<g style="fill:#000000; fill-opacity:1.0; 
stroke:#000000; stroke-width:39.3701; stroke-opacity:1; 
stroke-linecap:round; stroke-linejoin:round;">
</g>
<g style="fill:#000000; fill-opacity:1.0; 
stroke:#000000; stroke-width:0; stroke-opacity:1; 
stroke-linecap:round; stroke-linejoin:round;">
<circle cx="46700" cy="47900" r="1259.84" /> 
</g>
<g style="fill:#000000; fill-opacity:1.0; 
stroke:#000000; stroke-width:39.3701; stroke-opacity:1; 
stroke-linecap:round; stroke-linejoin:round;">
</g>
<g >
</g>
<g style="fill:#000000; fill-opacity:1.0; 
stroke:#000000; stroke-width:39.3701; stroke-opacity:1; 
stroke-linecap:round; stroke-linejoin:round;">
</g>
<g style="fill:#000000; fill-opacity:1.0; 
stroke:#000000; stroke-width:0; stroke-opacity:1; 
stroke-linecap:round; stroke-linejoin:round;">
<circle cx="29700" cy="47900" r="1259.84" /> 
</g>
<g style="fill:#000000; fill-opacity:1.0; 
stroke:#000000; stroke-width:39.3701; stroke-opacity:1; 
stroke-linecap:round; stroke-linejoin:round;">
</g>
<g style="fill:#000000; fill-opacity:1.0; 
stroke:#000000; stroke-width:0; stroke-opacity:1; 
stroke-linecap:round; stroke-linejoin:round;">
<circle cx="30644.9" cy="47900" r="157.48" /> 
</g>
<g style="fill:#000000; fill-opacity:1.0; 
stroke:#000000; stroke-width:39.3701; stroke-opacity:1; 
stroke-linecap:round; stroke-linejoin:round;">
</g>
<g style="fill:#000000; fill-opacity:1.0; 
stroke:#000000; stroke-width:0; stroke-opacity:1; 
stroke-linecap:round; stroke-linejoin:round;">
<circle cx="30368.1" cy="48568.1" r="157.48" /> 
</g>
<g style="fill:#000000; fill-opacity:1.0; 
stroke:#000000; stroke-width:39.3701; stroke-opacity:1; 
stroke-linecap:round; stroke-linejoin:round;">
</g>
<g style="fill:#000000; fill-opacity:1.0; 
stroke:#000000; stroke-width:0; stroke-opacity:1; 
stroke-linecap:round; stroke-linejoin:round;">
<circle cx="29700" cy="48844.9" r="157.48" /> 
</g>
<g style="fill:#000000; fill-opacity:1.0; 
stroke:#000000; stroke-width:39.3701; stroke-opacity:1; 
stroke-linecap:round; stroke-linejoin:round;">
</g>
<g style="fill:#000000; fill-opacity:1.0; 
stroke:#000000; stroke-width:0; stroke-opacity:1; 
stroke-linecap:round; stroke-linejoin:round;">
<circle cx="29031.9" cy="48568.1" r="157.48" /> 
</g>
<g style="fill:#000000; fill-opacity:1.0; 
stroke:#000000; stroke-width:39.3701; stroke-opacity:1; 
stroke-linecap:round; stroke-linejoin:round;">
</g>
<g style="fill:#000000; fill-opacity:1.0; 
stroke:#000000; stroke-width:0; stroke-opacity:1; 
stroke-linecap:round; stroke-linejoin:round;">
<circle cx="28755.1" cy="47900" r="157.48" /> 
</g>
<g style="fill:#000000; fill-opacity:1.0; 
stroke:#000000; stroke-width:39.3701; stroke-opacity:1; 
stroke-linecap:round; stroke-linejoin:round;">
</g>
<g style="fill:#000000; fill-opacity:1.0; 
stroke:#000000; stroke-width:0; stroke-opacity:1; 
stroke-linecap:round; stroke-linejoin:round;">
<circle cx="29031.9" cy="47231.9" r="157.48" /> 
</g>
<g style="fill:#000000; fill-opacity:1.0; 
stroke:#000000; stroke-width:39.3701; stroke-opacity:1; 
stroke-linecap:round; stroke-linejoin:round;">
</g>
<g style="fill:#000000; fill-opacity:1.0; 
stroke:#000000; stroke-width:0; stroke-opacity:1; 
stroke-linecap:round; stroke-linejoin:round;">
<circle cx="29700" cy="46955.1" r="157.48" /> 
</g>
<g style="fill:#000000; fill-opacity:1.0; 
stroke:#000000; stroke-width:39.3701; stroke-opacity:1; 
stroke-linecap:round; stroke-linejoin:round;">
</g>
<g style="fill:#000000; fill-opacity:1.0; 
stroke:#000000; stroke-width:0; stroke-opacity:1; 
stroke-linecap:round; stroke-linejoin:round;">
<circle cx="30368.1" cy="47231.9" r="157.48" /> 
</g>
<g style="fill:#000000; fill-opacity:1.0; 
stroke:#000000; stroke-width:39.3701; stroke-opacity:1; 
stroke-linecap:round; stroke-linejoin:round;">
</g>
<g >
</g>
<g style="fill:#000000; fill-opacity:1.0; 
stroke:#000000; stroke-width:39.3701; stroke-opacity:1; 
stroke-linecap:round; stroke-linejoin:round;">
</g>
<g style="fill:#000000; fill-opacity:1.0; 
stroke:#000000; stroke-width:0; stroke-opacity:1; 
stroke-linecap:round; stroke-linejoin:round;">
<path style="fill:#000000; fill-opacity:1.0; 
stroke:#000000; stroke-width:0; stroke-opacity:1; 
stroke-linecap:round; stroke-linejoin:round;fill-rule:evenodd;"
d="M 41693.7,37006.3
41693.7,37793.7
40906.3,37793.7
40906.3,37006.3
Z" /> 
<circle cx="38307.9" cy="37400" r="393.701" /> 
</g>
<g style="fill:#000000; fill-opacity:1.0; 
stroke:#000000; stroke-width:39.3701; stroke-opacity:1; 
stroke-linecap:round; stroke-linejoin:round;">
</g>
<g >
</g>
<g style="fill:#000000; fill-opacity:1.0; 
stroke:#000000; stroke-width:39.3701; stroke-opacity:1; 
stroke-linecap:round; stroke-linejoin:round;">
</g>
<g style="fill:#000000; fill-opacity:1.0; 
stroke:#000000; stroke-width:0; stroke-opacity:1; 
stroke-linecap:round; stroke-linejoin:round;">
<path style="fill:#000000; fill-opacity:1.0; 
stroke:#000000; stroke-width:0; stroke-opacity:1; 
stroke-linecap:round; stroke-linejoin:round;fill-rule:evenodd;"
d="M 30508.5,15356
30518,15357.4
30527.4,15359.8
30536.5,15363
30545.2,15367.1
30553.5,15372.1
30561.3,15377.9
30568.4,15384.3
30574.9,15391.5
30580.7,15399.3
30585.6,15407.5
30589.8,15416.3
30593,15425.4
30595.4,15434.7
30596.8,15444.3
30597.2,15453.9
30597.2,15946.1
30596.8,15955.7
30595.4,15965.3
30593,15974.6
30589.8,15983.7
30585.6,15992.5
30580.7,16000.7
30574.9,16008.5
30568.4,16015.7
30561.3,16022.1
30553.5,16027.9
30545.2,16032.9
30536.5,16037
30527.4,16040.2
30518,16042.6
30508.5,16044
30498.8,16044.5
30252.8,16044.5
30243.1,16044
30233.6,16042.6
30224.2,16040.2
30215.1,16037
30206.4,16032.9
30198.1,16027.9
30190.3,16022.1
30183.2,16015.7
30176.7,16008.5
30170.9,16000.7
30166,15992.5
30161.8,15983.7
30158.6,15974.6
30156.2,15965.3
30154.8,15955.7
30154.3,15946.1
30154.3,15453.9
30154.8,15444.3
30156.2,15434.7
30158.6,15425.4
30161.8,15416.3
30166,15407.5
30170.9,15399.3
30176.7,15391.5
30183.2,15384.3
30190.3,15377.9
30198.1,15372.1
30206.4,15367.1
30215.1,15363
30224.2,15359.8
30233.6,15357.4
30243.1,15356
30252.8,15355.5
30498.8,15355.5
Z" /> 
<path style="fill:#000000; fill-opacity:1.0; 
stroke:#000000; stroke-width:0; stroke-opacity:1; 
stroke-linecap:round; stroke-linejoin:round;fill-rule:evenodd;"
d="M 29356.9,15356
29366.4,15357.4
29375.8,15359.8
29384.9,15363
29393.6,15367.1
29401.9,15372.1
29409.7,15377.9
29416.8,15384.3
29423.3,15391.5
29429.1,15399.3
29434,15407.5
29438.2,15416.3
29441.4,15425.4
29443.8,15434.7
29445.2,15444.3
29445.7,15453.9
29445.7,15946.1
29445.2,15955.7
29443.8,15965.3
29441.4,15974.6
29438.2,15983.7
29434,15992.5
29429.1,16000.7
29423.3,16008.5
29416.8,16015.7
29409.7,16022.1
29401.9,16027.9
29393.6,16032.9
29384.9,16037
29375.8,16040.2
29366.4,16042.6
29356.9,16044
29347.2,16044.5
29101.2,16044.5
29091.5,16044
29082,16042.6
29072.6,16040.2
29063.5,16037
29054.8,16032.9
29046.5,16027.9
29038.7,16022.1
29031.6,16015.7
29025.1,16008.5
29019.3,16000.7
29014.4,15992.5
29010.2,15983.7
29007,15974.6
29004.6,15965.3
29003.2,15955.7
29002.8,15946.1
29002.8,15453.9
29003.2,15444.3
29004.6,15434.7
29007,15425.4
29010.2,15416.3
29014.4,15407.5
29019.3,15399.3
29025.1,15391.5
29031.6,15384.3
29038.7,15377.9
29046.5,15372.1
29054.8,15367.1
29063.5,15363
29072.6,15359.8
29082,15357.4
29091.5,15356
29101.2,15355.5
29347.2,15355.5
Z" /> 
</g>
<g >
</g>
<g style="fill:#000000; fill-opacity:1.0; 
stroke:#000000; stroke-width:0; stroke-opacity:1; 
stroke-linecap:round; stroke-linejoin:round;">
<path style="fill:#000000; fill-opacity:1.0; 
stroke:#000000; stroke-width:0; stroke-opacity:1; 
stroke-linecap:round; stroke-linejoin:round;fill-rule:evenodd;"
d="M 31556.9,15356
31566.4,15357.4
31575.8,15359.8
31584.9,15363
31593.6,15367.1
31601.9,15372.1
31609.7,15377.9
31616.8,15384.3
31623.3,15391.5
31629.1,15399.3
31634,15407.5
31638.2,15416.3
31641.4,15425.4
31643.8,15434.7
31645.2,15444.3
31645.7,15453.9
31645.7,15946.1
31645.2,15955.7
31643.8,15965.3
31641.4,15974.6
31638.2,15983.7
31634,15992.5
31629.1,16000.7
31623.3,16008.5
31616.8,16015.7
31609.7,16022.1
31601.9,16027.9
31593.6,16032.9
31584.9,16037
31575.8,16040.2
31566.4,16042.6
31556.9,16044
31547.2,16044.5
31301.2,16044.5
31291.5,16044
31282,16042.6
31272.6,16040.2
31263.5,16037
31254.8,16032.9
31246.5,16027.9
31238.7,16022.1
31231.6,16015.7
31225.1,16008.5
31219.3,16000.7
31214.4,15992.5
31210.2,15983.7
31207,15974.6
31204.6,15965.3
31203.2,15955.7
31202.8,15946.1
31202.8,15453.9
31203.2,15444.3
31204.6,15434.7
31207,15425.4
31210.2,15416.3
31214.4,15407.5
31219.3,15399.3
31225.1,15391.5
31231.6,15384.3
31238.7,15377.9
31246.5,15372.1
31254.8,15367.1
31263.5,15363
31272.6,15359.8
31282,15357.4
31291.5,15356
31301.2,15355.5
31547.2,15355.5
Z" /> 
<path style="fill:#000000; fill-opacity:1.0; 
stroke:#000000; stroke-width:0; stroke-opacity:1; 
stroke-linecap:round; stroke-linejoin:round;fill-rule:evenodd;"
d="M 32708.5,15356
32718,15357.4
32727.4,15359.8
32736.5,15363
32745.2,15367.1
32753.5,15372.1
32761.3,15377.9
32768.4,15384.3
32774.9,15391.5
32780.7,15399.3
32785.6,15407.5
32789.8,15416.3
32793,15425.4
32795.4,15434.7
32796.8,15444.3
32797.2,15453.9
32797.2,15946.1
32796.8,15955.7
32795.4,15965.3
32793,15974.6
32789.8,15983.7
32785.6,15992.5
32780.7,16000.7
32774.9,16008.5
32768.4,16015.7
32761.3,16022.1
32753.5,16027.9
32745.2,16032.9
32736.5,16037
32727.4,16040.2
32718,16042.6
32708.5,16044
32698.8,16044.5
32452.8,16044.5
32443.1,16044
32433.6,16042.6
32424.2,16040.2
32415.1,16037
32406.4,16032.9
32398.1,16027.9
32390.3,16022.1
32383.2,16015.7
32376.7,16008.5
32370.9,16000.7
32366,15992.5
32361.8,15983.7
32358.6,15974.6
32356.2,15965.3
32354.8,15955.7
32354.3,15946.1
32354.3,15453.9
32354.8,15444.3
32356.2,15434.7
32358.6,15425.4
32361.8,15416.3
32366,15407.5
32370.9,15399.3
32376.7,15391.5
32383.2,15384.3
32390.3,15377.9
32398.1,15372.1
32406.4,15367.1
32415.1,15363
32424.2,15359.8
32433.6,15357.4
32443.1,15356
32452.8,15355.5
32698.8,15355.5
Z" /> 
</g>
<g >
</g>
<g style="fill:#000000; fill-opacity:1.0; 
stroke:#000000; stroke-width:0; stroke-opacity:1; 
stroke-linecap:round; stroke-linejoin:round;">
<path style="fill:#000000; fill-opacity:1.0; 
stroke:#000000; stroke-width:0; stroke-opacity:1; 
stroke-linecap:round; stroke-linejoin:round;fill-rule:evenodd;"
d="M 29406.1,14356
29415.7,14357.4
29425,14359.8
29434.1,14363
29442.9,14367.1
29451.1,14372.1
29458.9,14377.9
29466.1,14384.3
29472.5,14391.5
29478.3,14399.3
29483.3,14407.5
29487.4,14416.3
29490.6,14425.4
29493,14434.7
29494.4,14444.3
29494.9,14453.9
29494.9,14946.1
29494.4,14955.7
29493,14965.3
29490.6,14974.6
29487.4,14983.7
29483.3,14992.5
29478.3,15000.7
29472.5,15008.5
29466.1,15015.7
29458.9,15022.1
29451.1,15027.9
29442.9,15032.9
29434.1,15037
29425,15040.2
29415.7,15042.6
29406.1,15044
29396.5,15044.5
29101.2,15044.5
29091.5,15044
29082,15042.6
29072.6,15040.2
29063.5,15037
29054.8,15032.9
29046.5,15027.9
29038.7,15022.1
29031.6,15015.7
29025.1,15008.5
29019.3,15000.7
29014.4,14992.5
29010.2,14983.7
29007,14974.6
29004.6,14965.3
29003.2,14955.7
29002.8,14946.1
29002.8,14453.9
29003.2,14444.3
29004.6,14434.7
29007,14425.4
29010.2,14416.3
29014.4,14407.5
29019.3,14399.3
29025.1,14391.5
29031.6,14384.3
29038.7,14377.9
29046.5,14372.1
29054.8,14367.1
29063.5,14363
29072.6,14359.8
29082,14357.4
29091.5,14356
29101.2,14355.5
29396.5,14355.5
Z" /> 
<path style="fill:#000000; fill-opacity:1.0; 
stroke:#000000; stroke-width:0; stroke-opacity:1; 
stroke-linecap:round; stroke-linejoin:round;fill-rule:evenodd;"
d="M 30508.5,14356
30518,14357.4
30527.4,14359.8
30536.5,14363
30545.2,14367.1
30553.5,14372.1
30561.3,14377.9
30568.4,14384.3
30574.9,14391.5
30580.7,14399.3
30585.6,14407.5
30589.8,14416.3
30593,14425.4
30595.4,14434.7
30596.8,14444.3
30597.2,14453.9
30597.2,14946.1
30596.8,14955.7
30595.4,14965.3
30593,14974.6
30589.8,14983.7
30585.6,14992.5
30580.7,15000.7
30574.9,15008.5
30568.4,15015.7
30561.3,15022.1
30553.5,15027.9
30545.2,15032.9
30536.5,15037
30527.4,15040.2
30518,15042.6
30508.5,15044
30498.8,15044.5
30203.5,15044.5
30193.9,15044
30184.3,15042.6
30175,15040.2
30165.9,15037
30157.1,15032.9
30148.9,15027.9
30141.1,15022.1
30133.9,15015.7
30127.5,15008.5
30121.7,15000.7
30116.7,14992.5
30112.6,14983.7
30109.4,14974.6
30107,14965.3
30105.6,14955.7
30105.1,14946.1
30105.1,14453.9
30105.6,14444.3
30107,14434.7
30109.4,14425.4
30112.6,14416.3
30116.7,14407.5
30121.7,14399.3
30127.5,14391.5
30133.9,14384.3
30141.1,14377.9
30148.9,14372.1
30157.1,14367.1
30165.9,14363
30175,14359.8
30184.3,14357.4
30193.9,14356
30203.5,14355.5
30498.8,14355.5
Z" /> 
</g>
<g >
</g>
<g style="fill:#000000; fill-opacity:1.0; 
stroke:#000000; stroke-width:0; stroke-opacity:1; 
stroke-linecap:round; stroke-linejoin:round;">
<path style="fill:#000000; fill-opacity:1.0; 
stroke:#000000; stroke-width:0; stroke-opacity:1; 
stroke-linecap:round; stroke-linejoin:round;fill-rule:evenodd;"
d="M 29806.1,40456
29815.7,40457.4
29825,40459.8
29834.1,40463
29842.9,40467.1
29851.1,40472.1
29858.9,40477.9
29866.1,40484.3
29872.5,40491.5
29878.3,40499.3
29883.3,40507.5
29887.4,40516.3
29890.6,40525.4
29893,40534.7
29894.4,40544.3
29894.9,40553.9
29894.9,41046.1
29894.4,41055.7
29893,41065.3
29890.6,41074.6
29887.4,41083.7
29883.3,41092.5
29878.3,41100.7
29872.5,41108.5
29866.1,41115.7
29858.9,41122.1
29851.1,41127.9
29842.9,41132.9
29834.1,41137
29825,41140.2
29815.7,41142.6
29806.1,41144
29796.5,41144.5
29501.2,41144.5
29491.5,41144
29482,41142.6
29472.6,41140.2
29463.5,41137
29454.8,41132.9
29446.5,41127.9
29438.7,41122.1
29431.6,41115.7
29425.1,41108.5
29419.3,41100.7
29414.4,41092.5
29410.2,41083.7
29407,41074.6
29404.6,41065.3
29403.2,41055.7
29402.8,41046.1
29402.8,40553.9
29403.2,40544.3
29404.6,40534.7
29407,40525.4
29410.2,40516.3
29414.4,40507.5
29419.3,40499.3
29425.1,40491.5
29431.6,40484.3
29438.7,40477.9
29446.5,40472.1
29454.8,40467.1
29463.5,40463
29472.6,40459.8
29482,40457.4
29491.5,40456
29501.2,40455.5
29796.5,40455.5
Z" /> 
<path style="fill:#000000; fill-opacity:1.0; 
stroke:#000000; stroke-width:0; stroke-opacity:1; 
stroke-linecap:round; stroke-linejoin:round;fill-rule:evenodd;"
d="M 30908.5,40456
30918,40457.4
30927.4,40459.8
30936.5,40463
30945.2,40467.1
30953.5,40472.1
30961.3,40477.9
30968.4,40484.3
30974.9,40491.5
30980.7,40499.3
30985.6,40507.5
30989.8,40516.3
30993,40525.4
30995.4,40534.7
30996.8,40544.3
30997.2,40553.9
30997.2,41046.1
30996.8,41055.7
30995.4,41065.3
30993,41074.6
30989.8,41083.7
30985.6,41092.5
30980.7,41100.7
30974.9,41108.5
30968.4,41115.7
30961.3,41122.1
30953.5,41127.9
30945.2,41132.9
30936.5,41137
30927.4,41140.2
30918,41142.6
30908.5,41144
30898.8,41144.5
30603.5,41144.5
30593.9,41144
30584.3,41142.6
30575,41140.2
30565.9,41137
30557.1,41132.9
30548.9,41127.9
30541.1,41122.1
30533.9,41115.7
30527.5,41108.5
30521.7,41100.7
30516.7,41092.5
30512.6,41083.7
30509.4,41074.6
30507,41065.3
30505.6,41055.7
30505.1,41046.1
30505.1,40553.9
30505.6,40544.3
30507,40534.7
30509.4,40525.4
30512.6,40516.3
30516.7,40507.5
30521.7,40499.3
30527.5,40491.5
30533.9,40484.3
30541.1,40477.9
30548.9,40472.1
30557.1,40467.1
30565.9,40463
30575,40459.8
30584.3,40457.4
30593.9,40456
30603.5,40455.5
30898.8,40455.5
Z" /> 
</g>
<g >
</g>
<g style="fill:#000000; fill-opacity:1.0; 
stroke:#000000; stroke-width:0; stroke-opacity:1; 
stroke-linecap:round; stroke-linejoin:round;">
<path style="fill:#000000; fill-opacity:1.0; 
stroke:#000000; stroke-width:0; stroke-opacity:1; 
stroke-linecap:round; stroke-linejoin:round;fill-rule:evenodd;"
d="M 31606.1,14356
31615.7,14357.4
31625,14359.8
31634.1,14363
31642.9,14367.1
31651.1,14372.1
31658.9,14377.9
31666.1,14384.3
31672.5,14391.5
31678.3,14399.3
31683.3,14407.5
31687.4,14416.3
31690.6,14425.4
31693,14434.7
31694.4,14444.3
31694.9,14453.9
31694.9,14946.1
31694.4,14955.7
31693,14965.3
31690.6,14974.6
31687.4,14983.7
31683.3,14992.5
31678.3,15000.7
31672.5,15008.5
31666.1,15015.7
31658.9,15022.1
31651.1,15027.9
31642.9,15032.9
31634.1,15037
31625,15040.2
31615.7,15042.6
31606.1,15044
31596.5,15044.5
31301.2,15044.5
31291.5,15044
31282,15042.6
31272.6,15040.2
31263.5,15037
31254.8,15032.9
31246.5,15027.9
31238.7,15022.1
31231.6,15015.7
31225.1,15008.5
31219.3,15000.7
31214.4,14992.5
31210.2,14983.7
31207,14974.6
31204.6,14965.3
31203.2,14955.7
31202.8,14946.1
31202.8,14453.9
31203.2,14444.3
31204.6,14434.7
31207,14425.4
31210.2,14416.3
31214.4,14407.5
31219.3,14399.3
31225.1,14391.5
31231.6,14384.3
31238.7,14377.9
31246.5,14372.1
31254.8,14367.1
31263.5,14363
31272.6,14359.8
31282,14357.4
31291.5,14356
31301.2,14355.5
31596.5,14355.5
Z" /> 
<path style="fill:#000000; fill-opacity:1.0; 
stroke:#000000; stroke-width:0; stroke-opacity:1; 
stroke-linecap:round; stroke-linejoin:round;fill-rule:evenodd;"
d="M 32708.5,14356
32718,14357.4
32727.4,14359.8
32736.5,14363
32745.2,14367.1
32753.5,14372.1
32761.3,14377.9
32768.4,14384.3
32774.9,14391.5
32780.7,14399.3
32785.6,14407.5
32789.8,14416.3
32793,14425.4
32795.4,14434.7
32796.8,14444.3
32797.2,14453.9
32797.2,14946.1
32796.8,14955.7
32795.4,14965.3
32793,14974.6
32789.8,14983.7
32785.6,14992.5
32780.7,15000.7
32774.9,15008.5
32768.4,15015.7
32761.3,15022.1
32753.5,15027.9
32745.2,15032.9
32736.5,15037
32727.4,15040.2
32718,15042.6
32708.5,15044
32698.8,15044.5
32403.5,15044.5
32393.9,15044
32384.3,15042.6
32375,15040.2
32365.9,15037
32357.1,15032.9
32348.9,15027.9
32341.1,15022.1
32333.9,15015.7
32327.5,15008.5
32321.7,15000.7
32316.7,14992.5
32312.6,14983.7
32309.4,14974.6
32307,14965.3
32305.6,14955.7
32305.1,14946.1
32305.1,14453.9
32305.6,14444.3
32307,14434.7
32309.4,14425.4
32312.6,14416.3
32316.7,14407.5
32321.7,14399.3
32327.5,14391.5
32333.9,14384.3
32341.1,14377.9
32348.9,14372.1
32357.1,14367.1
32365.9,14363
32375,14359.8
32384.3,14357.4
32393.9,14356
32403.5,14355.5
32698.8,14355.5
Z" /> 
</g>
<g >
</g>
<g style="fill:#000000; fill-opacity:1.0; 
stroke:#000000; stroke-width:0; stroke-opacity:1; 
stroke-linecap:round; stroke-linejoin:round;">
<circle cx="40690" cy="46400" r="393.701" /> 
</g>
<g style="fill:#000000; fill-opacity:1.0; 
stroke:#000000; stroke-width:39.3701; stroke-opacity:1; 
stroke-linecap:round; stroke-linejoin:round;">
</g>
<g >
</g>
<g style="fill:#000000; fill-opacity:1.0; 
stroke:#000000; stroke-width:39.3701; stroke-opacity:1; 
stroke-linecap:round; stroke-linejoin:round;">
</g>
<g style="fill:#000000; fill-opacity:1.0; 
stroke:#000000; stroke-width:0; stroke-opacity:1; 
stroke-linecap:round; stroke-linejoin:round;">
<circle cx="38700" cy="46390.2" r="393.701" /> 
</g>
<g style="fill:#000000; fill-opacity:1.0; 
stroke:#000000; stroke-width:39.3701; stroke-opacity:1; 
stroke-linecap:round; stroke-linejoin:round;">
</g>
<g >
</g>
<g style="fill:#000000; fill-opacity:1.0; 
stroke:#000000; stroke-width:39.3701; stroke-opacity:1; 
stroke-linecap:round; stroke-linejoin:round;">
</g>
<g style="fill:#000000; fill-opacity:1.0; 
stroke:#000000; stroke-width:0; stroke-opacity:1; 
stroke-linecap:round; stroke-linejoin:round;">
<path style="fill:#000000; fill-opacity:1.0; 
stroke:#000000; stroke-width:0; stroke-opacity:1; 
stroke-linecap:round; stroke-linejoin:round;fill-rule:evenodd;"
d="M 35534.6,33734.6
34865.4,33734.6
34865.4,33065.4
35534.6,33065.4
Z" /> 
<circle cx="36200" cy="33400" r="334.646" /> 
<circle cx="37200" cy="33400" r="334.646" /> 
<circle cx="38200" cy="33400" r="334.646" /> 
<circle cx="39200" cy="33400" r="334.646" /> 
</g>
<g >
</g>
<g >
</g>
<g >
</g>
</g> 
</svg>
