<?xml version="1.0" standalone="no"?>
 <!DOCTYPE svg PUBLIC "-//W3C//DTD SVG 1.1//EN" 
 "http://www.w3.org/Graphics/SVG/1.1/DTD/svg11.dtd"> 
<svg
  xmlns:svg="http://www.w3.org/2000/svg"
  xmlns="http://www.w3.org/2000/svg"
  xmlns:xlink="http://www.w3.org/1999/xlink"
  version="1.1"
  width="17.780000cm" height="17.780000cm" viewBox="0 0 70000 70000">
<title>SVG Picture created as M5_BuggyProject-B_Cu.svg date 2022/03/10 12:53:45 </title>
  <desc>Picture generated by PCBNEW </desc>
<g style="fill:#000000; fill-opacity:1;stroke:#000000; stroke-opacity:1;
stroke-linecap:round; stroke-linejoin:round;"
 transform="translate(0 0) scale(1 1)">
</g>
<g style="fill:#000000; fill-opacity:0.0; 
stroke:#000000; stroke-width:-0.000393701; stroke-opacity:1; 
stroke-linecap:round; stroke-linejoin:round;">
<g >
</g>
<g style="fill:#000000; fill-opacity:1.0; 
stroke:#000000; stroke-width:0; stroke-opacity:1; 
stroke-linecap:round; stroke-linejoin:round;">
<circle cx="34200" cy="29900" r="314.961" /> 
</g>
<g style="fill:#000000; fill-opacity:1.0; 
stroke:#000000; stroke-width:39.3701; stroke-opacity:1; 
stroke-linecap:round; stroke-linejoin:round;">
</g>
<g style="fill:#000000; fill-opacity:1.0; 
stroke:#000000; stroke-width:0; stroke-opacity:1; 
stroke-linecap:round; stroke-linejoin:round;">
<circle cx="34200" cy="28900" r="314.961" /> 
</g>
<g style="fill:#000000; fill-opacity:1.0; 
stroke:#000000; stroke-width:39.3701; stroke-opacity:1; 
stroke-linecap:round; stroke-linejoin:round;">
</g>
<g style="fill:#000000; fill-opacity:1.0; 
stroke:#000000; stroke-width:0; stroke-opacity:1; 
stroke-linecap:round; stroke-linejoin:round;">
<circle cx="34200" cy="27900" r="314.961" /> 
</g>
<g style="fill:#000000; fill-opacity:1.0; 
stroke:#000000; stroke-width:39.3701; stroke-opacity:1; 
stroke-linecap:round; stroke-linejoin:round;">
</g>
<g style="fill:#000000; fill-opacity:1.0; 
stroke:#000000; stroke-width:0; stroke-opacity:1; 
stroke-linecap:round; stroke-linejoin:round;">
<circle cx="34200" cy="26900" r="314.961" /> 
</g>
<g style="fill:#000000; fill-opacity:1.0; 
stroke:#000000; stroke-width:39.3701; stroke-opacity:1; 
stroke-linecap:round; stroke-linejoin:round;">
</g>
<g style="fill:#000000; fill-opacity:1.0; 
stroke:#000000; stroke-width:0; stroke-opacity:1; 
stroke-linecap:round; stroke-linejoin:round;">
<circle cx="34200" cy="25900" r="314.961" /> 
</g>
<g style="fill:#000000; fill-opacity:1.0; 
stroke:#000000; stroke-width:39.3701; stroke-opacity:1; 
stroke-linecap:round; stroke-linejoin:round;">
</g>
<g style="fill:#000000; fill-opacity:1.0; 
stroke:#000000; stroke-width:0; stroke-opacity:1; 
stroke-linecap:round; stroke-linejoin:round;">
<circle cx="34200" cy="24900" r="314.961" /> 
</g>
<g style="fill:#000000; fill-opacity:1.0; 
stroke:#000000; stroke-width:39.3701; stroke-opacity:1; 
stroke-linecap:round; stroke-linejoin:round;">
</g>
<g style="fill:#000000; fill-opacity:1.0; 
stroke:#000000; stroke-width:0; stroke-opacity:1; 
stroke-linecap:round; stroke-linejoin:round;">
<circle cx="34200" cy="23900" r="314.961" /> 
</g>
<g style="fill:#000000; fill-opacity:1.0; 
stroke:#000000; stroke-width:39.3701; stroke-opacity:1; 
stroke-linecap:round; stroke-linejoin:round;">
</g>
<g style="fill:#000000; fill-opacity:1.0; 
stroke:#000000; stroke-width:0; stroke-opacity:1; 
stroke-linecap:round; stroke-linejoin:round;">
<circle cx="34200" cy="22900" r="314.961" /> 
</g>
<g style="fill:#000000; fill-opacity:1.0; 
stroke:#000000; stroke-width:39.3701; stroke-opacity:1; 
stroke-linecap:round; stroke-linejoin:round;">
</g>
<g style="fill:#000000; fill-opacity:1.0; 
stroke:#000000; stroke-width:0; stroke-opacity:1; 
stroke-linecap:round; stroke-linejoin:round;">
<circle cx="34200" cy="21900" r="314.961" /> 
</g>
<g style="fill:#000000; fill-opacity:1.0; 
stroke:#000000; stroke-width:39.3701; stroke-opacity:1; 
stroke-linecap:round; stroke-linejoin:round;">
</g>
<g style="fill:#000000; fill-opacity:1.0; 
stroke:#000000; stroke-width:0; stroke-opacity:1; 
stroke-linecap:round; stroke-linejoin:round;">
<circle cx="34200" cy="20900" r="314.961" /> 
</g>
<g style="fill:#000000; fill-opacity:1.0; 
stroke:#000000; stroke-width:39.3701; stroke-opacity:1; 
stroke-linecap:round; stroke-linejoin:round;">
</g>
<g style="fill:#000000; fill-opacity:1.0; 
stroke:#000000; stroke-width:0; stroke-opacity:1; 
stroke-linecap:round; stroke-linejoin:round;">
<circle cx="34200" cy="19900" r="314.961" /> 
</g>
<g style="fill:#000000; fill-opacity:1.0; 
stroke:#000000; stroke-width:39.3701; stroke-opacity:1; 
stroke-linecap:round; stroke-linejoin:round;">
</g>
<g style="fill:#000000; fill-opacity:1.0; 
stroke:#000000; stroke-width:0; stroke-opacity:1; 
stroke-linecap:round; stroke-linejoin:round;">
<circle cx="34200" cy="18900" r="314.961" /> 
</g>
<g style="fill:#000000; fill-opacity:1.0; 
stroke:#000000; stroke-width:39.3701; stroke-opacity:1; 
stroke-linecap:round; stroke-linejoin:round;">
</g>
<g style="fill:#000000; fill-opacity:1.0; 
stroke:#000000; stroke-width:0; stroke-opacity:1; 
stroke-linecap:round; stroke-linejoin:round;">
<circle cx="34200" cy="17900" r="314.961" /> 
</g>
<g style="fill:#000000; fill-opacity:1.0; 
stroke:#000000; stroke-width:39.3701; stroke-opacity:1; 
stroke-linecap:round; stroke-linejoin:round;">
</g>
<g style="fill:#000000; fill-opacity:1.0; 
stroke:#000000; stroke-width:0; stroke-opacity:1; 
stroke-linecap:round; stroke-linejoin:round;">
<circle cx="34200" cy="16900" r="314.961" /> 
</g>
<g style="fill:#000000; fill-opacity:1.0; 
stroke:#000000; stroke-width:39.3701; stroke-opacity:1; 
stroke-linecap:round; stroke-linejoin:round;">
</g>
<g style="fill:#000000; fill-opacity:1.0; 
stroke:#000000; stroke-width:0; stroke-opacity:1; 
stroke-linecap:round; stroke-linejoin:round;">
<circle cx="34200" cy="15900" r="314.961" /> 
</g>
<g style="fill:#000000; fill-opacity:1.0; 
stroke:#000000; stroke-width:39.3701; stroke-opacity:1; 
stroke-linecap:round; stroke-linejoin:round;">
</g>
<g style="fill:#000000; fill-opacity:1.0; 
stroke:#000000; stroke-width:0; stroke-opacity:1; 
stroke-linecap:round; stroke-linejoin:round;">
<path style="fill:#000000; fill-opacity:1.0; 
stroke:#000000; stroke-width:0; stroke-opacity:1; 
stroke-linecap:round; stroke-linejoin:round;fill-rule:evenodd;"
d="M 34515,14585
34515,15215
33885,15215
33885,14585
Z" /> 
<circle cx="42200" cy="18900" r="314.961" /> 
</g>
<g style="fill:#000000; fill-opacity:1.0; 
stroke:#000000; stroke-width:39.3701; stroke-opacity:1; 
stroke-linecap:round; stroke-linejoin:round;">
</g>
<g style="fill:#000000; fill-opacity:1.0; 
stroke:#000000; stroke-width:0; stroke-opacity:1; 
stroke-linecap:round; stroke-linejoin:round;">
<circle cx="42200" cy="19900" r="314.961" /> 
</g>
<g style="fill:#000000; fill-opacity:1.0; 
stroke:#000000; stroke-width:39.3701; stroke-opacity:1; 
stroke-linecap:round; stroke-linejoin:round;">
</g>
<g style="fill:#000000; fill-opacity:1.0; 
stroke:#000000; stroke-width:0; stroke-opacity:1; 
stroke-linecap:round; stroke-linejoin:round;">
<circle cx="42200" cy="20900" r="314.961" /> 
</g>
<g style="fill:#000000; fill-opacity:1.0; 
stroke:#000000; stroke-width:39.3701; stroke-opacity:1; 
stroke-linecap:round; stroke-linejoin:round;">
</g>
<g style="fill:#000000; fill-opacity:1.0; 
stroke:#000000; stroke-width:0; stroke-opacity:1; 
stroke-linecap:round; stroke-linejoin:round;">
<circle cx="42200" cy="21900" r="314.961" /> 
</g>
<g style="fill:#000000; fill-opacity:1.0; 
stroke:#000000; stroke-width:39.3701; stroke-opacity:1; 
stroke-linecap:round; stroke-linejoin:round;">
</g>
<g style="fill:#000000; fill-opacity:1.0; 
stroke:#000000; stroke-width:0; stroke-opacity:1; 
stroke-linecap:round; stroke-linejoin:round;">
<circle cx="42200" cy="22900" r="314.961" /> 
</g>
<g style="fill:#000000; fill-opacity:1.0; 
stroke:#000000; stroke-width:39.3701; stroke-opacity:1; 
stroke-linecap:round; stroke-linejoin:round;">
</g>
<g style="fill:#000000; fill-opacity:1.0; 
stroke:#000000; stroke-width:0; stroke-opacity:1; 
stroke-linecap:round; stroke-linejoin:round;">
<circle cx="42200" cy="23900" r="314.961" /> 
</g>
<g style="fill:#000000; fill-opacity:1.0; 
stroke:#000000; stroke-width:39.3701; stroke-opacity:1; 
stroke-linecap:round; stroke-linejoin:round;">
</g>
<g style="fill:#000000; fill-opacity:1.0; 
stroke:#000000; stroke-width:0; stroke-opacity:1; 
stroke-linecap:round; stroke-linejoin:round;">
<circle cx="42200" cy="24900" r="314.961" /> 
</g>
<g style="fill:#000000; fill-opacity:1.0; 
stroke:#000000; stroke-width:39.3701; stroke-opacity:1; 
stroke-linecap:round; stroke-linejoin:round;">
</g>
<g style="fill:#000000; fill-opacity:1.0; 
stroke:#000000; stroke-width:0; stroke-opacity:1; 
stroke-linecap:round; stroke-linejoin:round;">
<circle cx="42200" cy="25900" r="314.961" /> 
</g>
<g style="fill:#000000; fill-opacity:1.0; 
stroke:#000000; stroke-width:39.3701; stroke-opacity:1; 
stroke-linecap:round; stroke-linejoin:round;">
</g>
<g style="fill:#000000; fill-opacity:1.0; 
stroke:#000000; stroke-width:0; stroke-opacity:1; 
stroke-linecap:round; stroke-linejoin:round;">
<circle cx="42200" cy="26900" r="314.961" /> 
</g>
<g style="fill:#000000; fill-opacity:1.0; 
stroke:#000000; stroke-width:39.3701; stroke-opacity:1; 
stroke-linecap:round; stroke-linejoin:round;">
</g>
<g style="fill:#000000; fill-opacity:1.0; 
stroke:#000000; stroke-width:0; stroke-opacity:1; 
stroke-linecap:round; stroke-linejoin:round;">
<circle cx="42200" cy="27900" r="314.961" /> 
</g>
<g style="fill:#000000; fill-opacity:1.0; 
stroke:#000000; stroke-width:39.3701; stroke-opacity:1; 
stroke-linecap:round; stroke-linejoin:round;">
</g>
<g style="fill:#000000; fill-opacity:1.0; 
stroke:#000000; stroke-width:0; stroke-opacity:1; 
stroke-linecap:round; stroke-linejoin:round;">
<circle cx="42200" cy="28900" r="314.961" /> 
</g>
<g style="fill:#000000; fill-opacity:1.0; 
stroke:#000000; stroke-width:39.3701; stroke-opacity:1; 
stroke-linecap:round; stroke-linejoin:round;">
</g>
<g style="fill:#000000; fill-opacity:1.0; 
stroke:#000000; stroke-width:0; stroke-opacity:1; 
stroke-linecap:round; stroke-linejoin:round;">
<circle cx="42200" cy="29900" r="314.961" /> 
</g>
<g style="fill:#000000; fill-opacity:1.0; 
stroke:#000000; stroke-width:39.3701; stroke-opacity:1; 
stroke-linecap:round; stroke-linejoin:round;">
</g>
<g >
</g>
<g >
</g>
<g >
</g>
<g style="fill:#000000; fill-opacity:1.0; 
stroke:#000000; stroke-width:39.3701; stroke-opacity:1; 
stroke-linecap:round; stroke-linejoin:round;">
</g>
<g style="fill:#000000; fill-opacity:1.0; 
stroke:#000000; stroke-width:0; stroke-opacity:1; 
stroke-linecap:round; stroke-linejoin:round;">
<path style="fill:#000000; fill-opacity:1.0; 
stroke:#000000; stroke-width:0; stroke-opacity:1; 
stroke-linecap:round; stroke-linejoin:round;fill-rule:evenodd;"
d="M 31534.6,37565.4
31534.6,38234.6
30865.4,38234.6
30865.4,37565.4
Z" /> 
<circle cx="31200" cy="36900" r="334.646" /> 
<circle cx="31200" cy="35900" r="334.646" /> 
<circle cx="31200" cy="34900" r="334.646" /> 
</g>
<g >
</g>
<g style="fill:#000000; fill-opacity:1.0; 
stroke:#000000; stroke-width:0; stroke-opacity:1; 
stroke-linecap:round; stroke-linejoin:round;">
<path style="fill:#000000; fill-opacity:1.0; 
stroke:#000000; stroke-width:0; stroke-opacity:1; 
stroke-linecap:round; stroke-linejoin:round;fill-rule:evenodd;"
d="M 37306.3,41506.3
38093.7,41506.3
38093.7,42293.7
37306.3,42293.7
Z" /> 
<circle cx="37700" cy="43868.5" r="393.701" /> 
</g>
<g style="fill:#000000; fill-opacity:1.0; 
stroke:#000000; stroke-width:39.3701; stroke-opacity:1; 
stroke-linecap:round; stroke-linejoin:round;">
</g>
<g >
</g>
<g >
</g>
<g style="fill:#000000; fill-opacity:1.0; 
stroke:#000000; stroke-width:39.3701; stroke-opacity:1; 
stroke-linecap:round; stroke-linejoin:round;">
</g>
<g style="fill:#000000; fill-opacity:1.0; 
stroke:#000000; stroke-width:0; stroke-opacity:1; 
stroke-linecap:round; stroke-linejoin:round;">
<path style="fill:#000000; fill-opacity:1.0; 
stroke:#000000; stroke-width:0; stroke-opacity:1; 
stroke-linecap:round; stroke-linejoin:round;fill-rule:evenodd;"
d="M 40296.3,41940.9
41083.7,41940.9
41083.7,42728.3
40296.3,42728.3
Z" /> 
<circle cx="40690" cy="44334.6" r="393.701" /> 
</g>
<g >
</g>
<g style="fill:#000000; fill-opacity:1.0; 
stroke:#000000; stroke-width:0; stroke-opacity:1; 
stroke-linecap:round; stroke-linejoin:round;">
<circle cx="31200" cy="26900" r="334.646" /> 
<circle cx="31200" cy="27900" r="334.646" /> 
<circle cx="31200" cy="28900" r="334.646" /> 
<path style="fill:#000000; fill-opacity:1.0; 
stroke:#000000; stroke-width:0; stroke-opacity:1; 
stroke-linecap:round; stroke-linejoin:round;fill-rule:evenodd;"
d="M 31534.6,29565.4
31534.6,30234.6
30865.4,30234.6
30865.4,29565.4
Z" /> 
</g>
<g >
</g>
<g style="fill:#000000; fill-opacity:1.0; 
stroke:#000000; stroke-width:0; stroke-opacity:1; 
stroke-linecap:round; stroke-linejoin:round;">
<circle cx="45200" cy="37900" r="334.646" /> 
<circle cx="45200" cy="36900" r="334.646" /> 
<circle cx="45200" cy="35900" r="334.646" /> 
<path style="fill:#000000; fill-opacity:1.0; 
stroke:#000000; stroke-width:0; stroke-opacity:1; 
stroke-linecap:round; stroke-linejoin:round;fill-rule:evenodd;"
d="M 44865.4,35234.6
44865.4,34565.4
45534.6,34565.4
45534.6,35234.6
Z" /> 
</g>
<g >
</g>
<g style="fill:#000000; fill-opacity:1.0; 
stroke:#000000; stroke-width:0; stroke-opacity:1; 
stroke-linecap:round; stroke-linejoin:round;">
<circle cx="45158.7" cy="21900" r="334.646" /> 
<circle cx="45158.7" cy="20900" r="334.646" /> 
<circle cx="45158.7" cy="19900" r="334.646" /> 
<path style="fill:#000000; fill-opacity:1.0; 
stroke:#000000; stroke-width:0; stroke-opacity:1; 
stroke-linecap:round; stroke-linejoin:round;fill-rule:evenodd;"
d="M 44824,19234.6
44824,18565.4
45493.3,18565.4
45493.3,19234.6
Z" /> 
</g>
<g >
</g>
<g style="fill:#000000; fill-opacity:1.0; 
stroke:#000000; stroke-width:0; stroke-opacity:1; 
stroke-linecap:round; stroke-linejoin:round;">
<path style="fill:#000000; fill-opacity:1.0; 
stroke:#000000; stroke-width:0; stroke-opacity:1; 
stroke-linecap:round; stroke-linejoin:round;fill-rule:evenodd;"
d="M 44865.4,27234.6
44865.4,26565.4
45534.6,26565.4
45534.6,27234.6
Z" /> 
<circle cx="45200" cy="27900" r="334.646" /> 
<circle cx="45200" cy="28900" r="334.646" /> 
<circle cx="45200" cy="29900" r="334.646" /> 
</g>
<g >
</g>
<g style="fill:#000000; fill-opacity:1.0; 
stroke:#000000; stroke-width:0; stroke-opacity:1; 
stroke-linecap:round; stroke-linejoin:round;">
<path style="fill:#000000; fill-opacity:1.0; 
stroke:#000000; stroke-width:0; stroke-opacity:1; 
stroke-linecap:round; stroke-linejoin:round;fill-rule:evenodd;"
d="M 31534.6,21565.4
31534.6,22234.6
30865.4,22234.6
30865.4,21565.4
Z" /> 
<circle cx="31200" cy="20900" r="334.646" /> 
<circle cx="31200" cy="19900" r="334.646" /> 
<circle cx="31200" cy="18900" r="334.646" /> 
</g>
<g >
</g>
<g style="fill:#000000; fill-opacity:1.0; 
stroke:#000000; stroke-width:0; stroke-opacity:1; 
stroke-linecap:round; stroke-linejoin:round;">
<circle cx="45200" cy="44234.6" r="1181.1" /> 
</g>
<g style="fill:#000000; fill-opacity:1.0; 
stroke:#000000; stroke-width:39.3701; stroke-opacity:1; 
stroke-linecap:round; stroke-linejoin:round;">
</g>
<g style="fill:#000000; fill-opacity:1.0; 
stroke:#000000; stroke-width:0; stroke-opacity:1; 
stroke-linecap:round; stroke-linejoin:round;">
<path style="fill:#000000; fill-opacity:1.0; 
stroke:#000000; stroke-width:0; stroke-opacity:1; 
stroke-linecap:round; stroke-linejoin:round;fill-rule:evenodd;"
d="M 45848.4,40221.7
45905.8,40230.2
45962,40244.3
46016.5,40263.9
46068.9,40288.6
46118.6,40318.4
46165.2,40352.9
46208.1,40391.9
46247.1,40434.8
46281.6,40481.4
46311.4,40531.1
46336.1,40583.5
46355.7,40638
46369.8,40694.2
46378.3,40751.6
46381.1,40809.4
46381.1,41990.6
46378.3,42048.4
46369.8,42105.8
46355.7,42162
46336.1,42216.5
46311.4,42268.9
46281.6,42318.6
46247.1,42365.2
46208.1,42408.1
46165.2,42447.1
46118.6,42481.6
46068.9,42511.4
46016.5,42536.1
45962,42555.7
45905.8,42569.8
45848.4,42578.3
45790.6,42581.1
44609.4,42581.1
44551.6,42578.3
44494.2,42569.8
44438,42555.7
44383.5,42536.1
44331.1,42511.4
44281.4,42481.6
44234.8,42447.1
44191.9,42408.1
44152.9,42365.2
44118.4,42318.6
44088.6,42268.9
44063.9,42216.5
44044.3,42162
44030.2,42105.8
44021.7,42048.4
44018.9,41990.6
44018.9,40809.4
44021.7,40751.6
44030.2,40694.2
44044.3,40638
44063.9,40583.5
44088.6,40531.1
44118.4,40481.4
44152.9,40434.8
44191.9,40391.9
44234.8,40352.9
44281.4,40318.4
44331.1,40288.6
44383.5,40263.9
44438,40244.3
44494.2,40230.2
44551.6,40221.7
44609.4,40218.9
45790.6,40218.9
Z" /> 
</g>
<g >
</g>
<g >
</g>
<g style="fill:#000000; fill-opacity:1.0; 
stroke:#000000; stroke-width:0; stroke-opacity:1; 
stroke-linecap:round; stroke-linejoin:round;">
<circle cx="29700" cy="11900" r="1259.84" /> 
</g>
<g style="fill:#000000; fill-opacity:1.0; 
stroke:#000000; stroke-width:39.3701; stroke-opacity:1; 
stroke-linecap:round; stroke-linejoin:round;">
</g>
<g style="fill:#000000; fill-opacity:1.0; 
stroke:#000000; stroke-width:0; stroke-opacity:1; 
stroke-linecap:round; stroke-linejoin:round;">
<circle cx="30644.9" cy="11900" r="157.48" /> 
</g>
<g style="fill:#000000; fill-opacity:1.0; 
stroke:#000000; stroke-width:39.3701; stroke-opacity:1; 
stroke-linecap:round; stroke-linejoin:round;">
</g>
<g style="fill:#000000; fill-opacity:1.0; 
stroke:#000000; stroke-width:0; stroke-opacity:1; 
stroke-linecap:round; stroke-linejoin:round;">
<circle cx="30368.1" cy="12568.1" r="157.48" /> 
</g>
<g style="fill:#000000; fill-opacity:1.0; 
stroke:#000000; stroke-width:39.3701; stroke-opacity:1; 
stroke-linecap:round; stroke-linejoin:round;">
</g>
<g style="fill:#000000; fill-opacity:1.0; 
stroke:#000000; stroke-width:0; stroke-opacity:1; 
stroke-linecap:round; stroke-linejoin:round;">
<circle cx="29700" cy="12844.9" r="157.48" /> 
</g>
<g style="fill:#000000; fill-opacity:1.0; 
stroke:#000000; stroke-width:39.3701; stroke-opacity:1; 
stroke-linecap:round; stroke-linejoin:round;">
</g>
<g style="fill:#000000; fill-opacity:1.0; 
stroke:#000000; stroke-width:0; stroke-opacity:1; 
stroke-linecap:round; stroke-linejoin:round;">
<circle cx="29031.9" cy="12568.1" r="157.48" /> 
</g>
<g style="fill:#000000; fill-opacity:1.0; 
stroke:#000000; stroke-width:39.3701; stroke-opacity:1; 
stroke-linecap:round; stroke-linejoin:round;">
</g>
<g style="fill:#000000; fill-opacity:1.0; 
stroke:#000000; stroke-width:0; stroke-opacity:1; 
stroke-linecap:round; stroke-linejoin:round;">
<circle cx="28755.1" cy="11900" r="157.48" /> 
</g>
<g style="fill:#000000; fill-opacity:1.0; 
stroke:#000000; stroke-width:39.3701; stroke-opacity:1; 
stroke-linecap:round; stroke-linejoin:round;">
</g>
<g style="fill:#000000; fill-opacity:1.0; 
stroke:#000000; stroke-width:0; stroke-opacity:1; 
stroke-linecap:round; stroke-linejoin:round;">
<circle cx="29031.9" cy="11231.9" r="157.48" /> 
</g>
<g style="fill:#000000; fill-opacity:1.0; 
stroke:#000000; stroke-width:39.3701; stroke-opacity:1; 
stroke-linecap:round; stroke-linejoin:round;">
</g>
<g style="fill:#000000; fill-opacity:1.0; 
stroke:#000000; stroke-width:0; stroke-opacity:1; 
stroke-linecap:round; stroke-linejoin:round;">
<circle cx="29700" cy="10955.1" r="157.48" /> 
</g>
<g style="fill:#000000; fill-opacity:1.0; 
stroke:#000000; stroke-width:39.3701; stroke-opacity:1; 
stroke-linecap:round; stroke-linejoin:round;">
</g>
<g style="fill:#000000; fill-opacity:1.0; 
stroke:#000000; stroke-width:0; stroke-opacity:1; 
stroke-linecap:round; stroke-linejoin:round;">
<circle cx="30368.1" cy="11231.9" r="157.48" /> 
</g>
<g style="fill:#000000; fill-opacity:1.0; 
stroke:#000000; stroke-width:39.3701; stroke-opacity:1; 
stroke-linecap:round; stroke-linejoin:round;">
</g>
<g >
</g>
<g style="fill:#000000; fill-opacity:1.0; 
stroke:#000000; stroke-width:39.3701; stroke-opacity:1; 
stroke-linecap:round; stroke-linejoin:round;">
</g>
<g style="fill:#000000; fill-opacity:1.0; 
stroke:#000000; stroke-width:0; stroke-opacity:1; 
stroke-linecap:round; stroke-linejoin:round;">
<circle cx="47368.1" cy="11231.9" r="157.48" /> 
</g>
<g style="fill:#000000; fill-opacity:1.0; 
stroke:#000000; stroke-width:39.3701; stroke-opacity:1; 
stroke-linecap:round; stroke-linejoin:round;">
</g>
<g style="fill:#000000; fill-opacity:1.0; 
stroke:#000000; stroke-width:0; stroke-opacity:1; 
stroke-linecap:round; stroke-linejoin:round;">
<circle cx="46700" cy="10955.1" r="157.48" /> 
</g>
<g style="fill:#000000; fill-opacity:1.0; 
stroke:#000000; stroke-width:39.3701; stroke-opacity:1; 
stroke-linecap:round; stroke-linejoin:round;">
</g>
<g style="fill:#000000; fill-opacity:1.0; 
stroke:#000000; stroke-width:0; stroke-opacity:1; 
stroke-linecap:round; stroke-linejoin:round;">
<circle cx="46031.9" cy="11231.9" r="157.48" /> 
</g>
<g style="fill:#000000; fill-opacity:1.0; 
stroke:#000000; stroke-width:39.3701; stroke-opacity:1; 
stroke-linecap:round; stroke-linejoin:round;">
</g>
<g style="fill:#000000; fill-opacity:1.0; 
stroke:#000000; stroke-width:0; stroke-opacity:1; 
stroke-linecap:round; stroke-linejoin:round;">
<circle cx="45755.1" cy="11900" r="157.48" /> 
</g>
<g style="fill:#000000; fill-opacity:1.0; 
stroke:#000000; stroke-width:39.3701; stroke-opacity:1; 
stroke-linecap:round; stroke-linejoin:round;">
</g>
<g style="fill:#000000; fill-opacity:1.0; 
stroke:#000000; stroke-width:0; stroke-opacity:1; 
stroke-linecap:round; stroke-linejoin:round;">
<circle cx="46031.9" cy="12568.1" r="157.48" /> 
</g>
<g style="fill:#000000; fill-opacity:1.0; 
stroke:#000000; stroke-width:39.3701; stroke-opacity:1; 
stroke-linecap:round; stroke-linejoin:round;">
</g>
<g style="fill:#000000; fill-opacity:1.0; 
stroke:#000000; stroke-width:0; stroke-opacity:1; 
stroke-linecap:round; stroke-linejoin:round;">
<circle cx="46700" cy="12844.9" r="157.48" /> 
</g>
<g style="fill:#000000; fill-opacity:1.0; 
stroke:#000000; stroke-width:39.3701; stroke-opacity:1; 
stroke-linecap:round; stroke-linejoin:round;">
</g>
<g style="fill:#000000; fill-opacity:1.0; 
stroke:#000000; stroke-width:0; stroke-opacity:1; 
stroke-linecap:round; stroke-linejoin:round;">
<circle cx="47368.1" cy="12568.1" r="157.48" /> 
</g>
<g style="fill:#000000; fill-opacity:1.0; 
stroke:#000000; stroke-width:39.3701; stroke-opacity:1; 
stroke-linecap:round; stroke-linejoin:round;">
</g>
<g style="fill:#000000; fill-opacity:1.0; 
stroke:#000000; stroke-width:0; stroke-opacity:1; 
stroke-linecap:round; stroke-linejoin:round;">
<circle cx="47644.9" cy="11900" r="157.48" /> 
</g>
<g style="fill:#000000; fill-opacity:1.0; 
stroke:#000000; stroke-width:39.3701; stroke-opacity:1; 
stroke-linecap:round; stroke-linejoin:round;">
</g>
<g style="fill:#000000; fill-opacity:1.0; 
stroke:#000000; stroke-width:0; stroke-opacity:1; 
stroke-linecap:round; stroke-linejoin:round;">
<circle cx="46700" cy="11900" r="1259.84" /> 
</g>
<g style="fill:#000000; fill-opacity:1.0; 
stroke:#000000; stroke-width:39.3701; stroke-opacity:1; 
stroke-linecap:round; stroke-linejoin:round;">
</g>
<g >
</g>
<g style="fill:#000000; fill-opacity:1.0; 
stroke:#000000; stroke-width:39.3701; stroke-opacity:1; 
stroke-linecap:round; stroke-linejoin:round;">
</g>
<g style="fill:#000000; fill-opacity:1.0; 
stroke:#000000; stroke-width:0; stroke-opacity:1; 
stroke-linecap:round; stroke-linejoin:round;">
<circle cx="47368.1" cy="47231.9" r="157.48" /> 
</g>
<g style="fill:#000000; fill-opacity:1.0; 
stroke:#000000; stroke-width:39.3701; stroke-opacity:1; 
stroke-linecap:round; stroke-linejoin:round;">
</g>
<g style="fill:#000000; fill-opacity:1.0; 
stroke:#000000; stroke-width:0; stroke-opacity:1; 
stroke-linecap:round; stroke-linejoin:round;">
<circle cx="46700" cy="46955.1" r="157.48" /> 
</g>
<g style="fill:#000000; fill-opacity:1.0; 
stroke:#000000; stroke-width:39.3701; stroke-opacity:1; 
stroke-linecap:round; stroke-linejoin:round;">
</g>
<g style="fill:#000000; fill-opacity:1.0; 
stroke:#000000; stroke-width:0; stroke-opacity:1; 
stroke-linecap:round; stroke-linejoin:round;">
<circle cx="46031.9" cy="47231.9" r="157.48" /> 
</g>
<g style="fill:#000000; fill-opacity:1.0; 
stroke:#000000; stroke-width:39.3701; stroke-opacity:1; 
stroke-linecap:round; stroke-linejoin:round;">
</g>
<g style="fill:#000000; fill-opacity:1.0; 
stroke:#000000; stroke-width:0; stroke-opacity:1; 
stroke-linecap:round; stroke-linejoin:round;">
<circle cx="45755.1" cy="47900" r="157.48" /> 
</g>
<g style="fill:#000000; fill-opacity:1.0; 
stroke:#000000; stroke-width:39.3701; stroke-opacity:1; 
stroke-linecap:round; stroke-linejoin:round;">
</g>
<g style="fill:#000000; fill-opacity:1.0; 
stroke:#000000; stroke-width:0; stroke-opacity:1; 
stroke-linecap:round; stroke-linejoin:round;">
<circle cx="46031.9" cy="48568.1" r="157.48" /> 
</g>
<g style="fill:#000000; fill-opacity:1.0; 
stroke:#000000; stroke-width:39.3701; stroke-opacity:1; 
stroke-linecap:round; stroke-linejoin:round;">
</g>
<g style="fill:#000000; fill-opacity:1.0; 
stroke:#000000; stroke-width:0; stroke-opacity:1; 
stroke-linecap:round; stroke-linejoin:round;">
<circle cx="46700" cy="48844.9" r="157.48" /> 
</g>
<g style="fill:#000000; fill-opacity:1.0; 
stroke:#000000; stroke-width:39.3701; stroke-opacity:1; 
stroke-linecap:round; stroke-linejoin:round;">
</g>
<g style="fill:#000000; fill-opacity:1.0; 
stroke:#000000; stroke-width:0; stroke-opacity:1; 
stroke-linecap:round; stroke-linejoin:round;">
<circle cx="47368.1" cy="48568.1" r="157.48" /> 
</g>
<g style="fill:#000000; fill-opacity:1.0; 
stroke:#000000; stroke-width:39.3701; stroke-opacity:1; 
stroke-linecap:round; stroke-linejoin:round;">
</g>
<g style="fill:#000000; fill-opacity:1.0; 
stroke:#000000; stroke-width:0; stroke-opacity:1; 
stroke-linecap:round; stroke-linejoin:round;">
<circle cx="47644.9" cy="47900" r="157.48" /> 
</g>
<g style="fill:#000000; fill-opacity:1.0; 
stroke:#000000; stroke-width:39.3701; stroke-opacity:1; 
stroke-linecap:round; stroke-linejoin:round;">
</g>
<g style="fill:#000000; fill-opacity:1.0; 
stroke:#000000; stroke-width:0; stroke-opacity:1; 
stroke-linecap:round; stroke-linejoin:round;">
<circle cx="46700" cy="47900" r="1259.84" /> 
</g>
<g style="fill:#000000; fill-opacity:1.0; 
stroke:#000000; stroke-width:39.3701; stroke-opacity:1; 
stroke-linecap:round; stroke-linejoin:round;">
</g>
<g >
</g>
<g style="fill:#000000; fill-opacity:1.0; 
stroke:#000000; stroke-width:39.3701; stroke-opacity:1; 
stroke-linecap:round; stroke-linejoin:round;">
</g>
<g style="fill:#000000; fill-opacity:1.0; 
stroke:#000000; stroke-width:0; stroke-opacity:1; 
stroke-linecap:round; stroke-linejoin:round;">
<circle cx="29700" cy="47900" r="1259.84" /> 
</g>
<g style="fill:#000000; fill-opacity:1.0; 
stroke:#000000; stroke-width:39.3701; stroke-opacity:1; 
stroke-linecap:round; stroke-linejoin:round;">
</g>
<g style="fill:#000000; fill-opacity:1.0; 
stroke:#000000; stroke-width:0; stroke-opacity:1; 
stroke-linecap:round; stroke-linejoin:round;">
<circle cx="30644.9" cy="47900" r="157.48" /> 
</g>
<g style="fill:#000000; fill-opacity:1.0; 
stroke:#000000; stroke-width:39.3701; stroke-opacity:1; 
stroke-linecap:round; stroke-linejoin:round;">
</g>
<g style="fill:#000000; fill-opacity:1.0; 
stroke:#000000; stroke-width:0; stroke-opacity:1; 
stroke-linecap:round; stroke-linejoin:round;">
<circle cx="30368.1" cy="48568.1" r="157.48" /> 
</g>
<g style="fill:#000000; fill-opacity:1.0; 
stroke:#000000; stroke-width:39.3701; stroke-opacity:1; 
stroke-linecap:round; stroke-linejoin:round;">
</g>
<g style="fill:#000000; fill-opacity:1.0; 
stroke:#000000; stroke-width:0; stroke-opacity:1; 
stroke-linecap:round; stroke-linejoin:round;">
<circle cx="29700" cy="48844.9" r="157.48" /> 
</g>
<g style="fill:#000000; fill-opacity:1.0; 
stroke:#000000; stroke-width:39.3701; stroke-opacity:1; 
stroke-linecap:round; stroke-linejoin:round;">
</g>
<g style="fill:#000000; fill-opacity:1.0; 
stroke:#000000; stroke-width:0; stroke-opacity:1; 
stroke-linecap:round; stroke-linejoin:round;">
<circle cx="29031.9" cy="48568.1" r="157.48" /> 
</g>
<g style="fill:#000000; fill-opacity:1.0; 
stroke:#000000; stroke-width:39.3701; stroke-opacity:1; 
stroke-linecap:round; stroke-linejoin:round;">
</g>
<g style="fill:#000000; fill-opacity:1.0; 
stroke:#000000; stroke-width:0; stroke-opacity:1; 
stroke-linecap:round; stroke-linejoin:round;">
<circle cx="28755.1" cy="47900" r="157.48" /> 
</g>
<g style="fill:#000000; fill-opacity:1.0; 
stroke:#000000; stroke-width:39.3701; stroke-opacity:1; 
stroke-linecap:round; stroke-linejoin:round;">
</g>
<g style="fill:#000000; fill-opacity:1.0; 
stroke:#000000; stroke-width:0; stroke-opacity:1; 
stroke-linecap:round; stroke-linejoin:round;">
<circle cx="29031.9" cy="47231.9" r="157.48" /> 
</g>
<g style="fill:#000000; fill-opacity:1.0; 
stroke:#000000; stroke-width:39.3701; stroke-opacity:1; 
stroke-linecap:round; stroke-linejoin:round;">
</g>
<g style="fill:#000000; fill-opacity:1.0; 
stroke:#000000; stroke-width:0; stroke-opacity:1; 
stroke-linecap:round; stroke-linejoin:round;">
<circle cx="29700" cy="46955.1" r="157.48" /> 
</g>
<g style="fill:#000000; fill-opacity:1.0; 
stroke:#000000; stroke-width:39.3701; stroke-opacity:1; 
stroke-linecap:round; stroke-linejoin:round;">
</g>
<g style="fill:#000000; fill-opacity:1.0; 
stroke:#000000; stroke-width:0; stroke-opacity:1; 
stroke-linecap:round; stroke-linejoin:round;">
<circle cx="30368.1" cy="47231.9" r="157.48" /> 
</g>
<g style="fill:#000000; fill-opacity:1.0; 
stroke:#000000; stroke-width:39.3701; stroke-opacity:1; 
stroke-linecap:round; stroke-linejoin:round;">
</g>
<g >
</g>
<g style="fill:#000000; fill-opacity:1.0; 
stroke:#000000; stroke-width:39.3701; stroke-opacity:1; 
stroke-linecap:round; stroke-linejoin:round;">
</g>
<g style="fill:#000000; fill-opacity:1.0; 
stroke:#000000; stroke-width:0; stroke-opacity:1; 
stroke-linecap:round; stroke-linejoin:round;">
<path style="fill:#000000; fill-opacity:1.0; 
stroke:#000000; stroke-width:0; stroke-opacity:1; 
stroke-linecap:round; stroke-linejoin:round;fill-rule:evenodd;"
d="M 41693.7,37006.3
41693.7,37793.7
40906.3,37793.7
40906.3,37006.3
Z" /> 
<circle cx="38307.9" cy="37400" r="393.701" /> 
</g>
<g style="fill:#000000; fill-opacity:1.0; 
stroke:#000000; stroke-width:39.3701; stroke-opacity:1; 
stroke-linecap:round; stroke-linejoin:round;">
</g>
<g >
</g>
<g >
</g>
<g >
</g>
<g >
</g>
<g >
</g>
<g >
</g>
<g style="fill:#000000; fill-opacity:1.0; 
stroke:#000000; stroke-width:39.3701; stroke-opacity:1; 
stroke-linecap:round; stroke-linejoin:round;">
</g>
<g style="fill:#000000; fill-opacity:1.0; 
stroke:#000000; stroke-width:0; stroke-opacity:1; 
stroke-linecap:round; stroke-linejoin:round;">
<circle cx="40690" cy="46400" r="393.701" /> 
</g>
<g style="fill:#000000; fill-opacity:1.0; 
stroke:#000000; stroke-width:39.3701; stroke-opacity:1; 
stroke-linecap:round; stroke-linejoin:round;">
</g>
<g >
</g>
<g style="fill:#000000; fill-opacity:1.0; 
stroke:#000000; stroke-width:39.3701; stroke-opacity:1; 
stroke-linecap:round; stroke-linejoin:round;">
</g>
<g style="fill:#000000; fill-opacity:1.0; 
stroke:#000000; stroke-width:0; stroke-opacity:1; 
stroke-linecap:round; stroke-linejoin:round;">
<circle cx="38700" cy="46390.2" r="393.701" /> 
</g>
<g style="fill:#000000; fill-opacity:1.0; 
stroke:#000000; stroke-width:39.3701; stroke-opacity:1; 
stroke-linecap:round; stroke-linejoin:round;">
</g>
<g >
</g>
<g style="fill:#000000; fill-opacity:1.0; 
stroke:#000000; stroke-width:39.3701; stroke-opacity:1; 
stroke-linecap:round; stroke-linejoin:round;">
</g>
<g style="fill:#000000; fill-opacity:1.0; 
stroke:#000000; stroke-width:0; stroke-opacity:1; 
stroke-linecap:round; stroke-linejoin:round;">
<path style="fill:#000000; fill-opacity:1.0; 
stroke:#000000; stroke-width:0; stroke-opacity:1; 
stroke-linecap:round; stroke-linejoin:round;fill-rule:evenodd;"
d="M 35534.6,33734.6
34865.4,33734.6
34865.4,33065.4
35534.6,33065.4
Z" /> 
<circle cx="36200" cy="33400" r="334.646" /> 
<circle cx="37200" cy="33400" r="334.646" /> 
<circle cx="38200" cy="33400" r="334.646" /> 
<circle cx="39200" cy="33400" r="334.646" /> 
</g>
<g >
</g>
<g style="fill:#000000; fill-opacity:1.0; 
stroke:#000000; stroke-width:0; stroke-opacity:1; 
stroke-linecap:round; stroke-linejoin:round;">
<circle cx="33200" cy="23900" r="157.48" /> 
</g>
<g style="fill:#000000; fill-opacity:1.0; 
stroke:#000000; stroke-width:39.3701; stroke-opacity:1; 
stroke-linecap:round; stroke-linejoin:round;">
</g>
<g style="fill:#000000; fill-opacity:1.0; 
stroke:#000000; stroke-width:0; stroke-opacity:1; 
stroke-linecap:round; stroke-linejoin:round;">
<circle cx="33200" cy="29900" r="157.48" /> 
</g>
<g style="fill:#000000; fill-opacity:1.0; 
stroke:#000000; stroke-width:39.3701; stroke-opacity:1; 
stroke-linecap:round; stroke-linejoin:round;">
</g>
<g style="fill:#000000; fill-opacity:1.0; 
stroke:#000000; stroke-width:0; stroke-opacity:1; 
stroke-linecap:round; stroke-linejoin:round;">
<circle cx="43200" cy="27900" r="157.48" /> 
</g>
<g style="fill:#000000; fill-opacity:1.0; 
stroke:#000000; stroke-width:39.3701; stroke-opacity:1; 
stroke-linecap:round; stroke-linejoin:round;">
</g>
<g style="fill:#000000; fill-opacity:1.0; 
stroke:#000000; stroke-width:0; stroke-opacity:1; 
stroke-linecap:round; stroke-linejoin:round;">
<circle cx="43200" cy="21900" r="157.48" /> 
</g>
<g style="fill:#000000; fill-opacity:1.0; 
stroke:#000000; stroke-width:39.3701; stroke-opacity:1; 
stroke-linecap:round; stroke-linejoin:round;">
</g>
<g style="fill:#000000; fill-opacity:1.0; 
stroke:#000000; stroke-width:0; stroke-opacity:1; 
stroke-linecap:round; stroke-linejoin:round;">
<circle cx="44200" cy="26900" r="157.48" /> 
</g>
<g style="fill:#000000; fill-opacity:1.0; 
stroke:#000000; stroke-width:39.3701; stroke-opacity:1; 
stroke-linecap:round; stroke-linejoin:round;">
</g>
<g style="fill:#000000; fill-opacity:1.0; 
stroke:#000000; stroke-width:0; stroke-opacity:1; 
stroke-linecap:round; stroke-linejoin:round;">
<circle cx="31700" cy="41900" r="157.48" /> 
</g>
<g style="fill:#000000; fill-opacity:1.0; 
stroke:#000000; stroke-width:39.3701; stroke-opacity:1; 
stroke-linecap:round; stroke-linejoin:round;">
</g>
<g style="fill:#000000; fill-opacity:1.0; 
stroke:#000000; stroke-width:0; stroke-opacity:1; 
stroke-linecap:round; stroke-linejoin:round;">
<circle cx="33200" cy="15400" r="157.48" /> 
</g>
<g style="fill:#000000; fill-opacity:1.0; 
stroke:#000000; stroke-width:39.3701; stroke-opacity:1; 
stroke-linecap:round; stroke-linejoin:round;">
</g>
<g style="fill:#000000; fill-opacity:1.0; 
stroke:#000000; stroke-width:0; stroke-opacity:1; 
stroke-linecap:round; stroke-linejoin:round;">
<circle cx="30900" cy="16600" r="157.48" /> 
</g>
<g style="fill:#000000; fill-opacity:1.0; 
stroke:#000000; stroke-width:39.3701; stroke-opacity:1; 
stroke-linecap:round; stroke-linejoin:round;">
</g>
<g style="fill:#000000; fill-opacity:1.0; 
stroke:#000000; stroke-width:0; stroke-opacity:1; 
stroke-linecap:round; stroke-linejoin:round;">
<circle cx="32700" cy="30900" r="157.48" /> 
</g>
<g style="fill:#000000; fill-opacity:1.0; 
stroke:#000000; stroke-width:39.3701; stroke-opacity:1; 
stroke-linecap:round; stroke-linejoin:round;">
</g>
<g >
</g>
<g style="fill:#000000; fill-opacity:1.0; 
stroke:#000000; stroke-width:39.3701; stroke-opacity:1; 
stroke-linecap:round; stroke-linejoin:round;">
</g>
<g style="fill:#000000; fill-opacity:1.0; 
stroke:#000000; stroke-width:200; stroke-opacity:1; 
stroke-linecap:round; stroke-linejoin:round;">
</g>
<g style="fill:#000000; fill-opacity:0.0; 
stroke:#000000; stroke-width:200; stroke-opacity:1; 
stroke-linecap:round; stroke-linejoin:round;">
<path d="M31693 28406
L31200 28900
" />
<path d="M38693 28406
L31693 28406
" />
<path d="M42200 24900
L38693 28406
" />
<path d="M33200 23900
L31200 21900
" />
<path d="M33200 29900
L31200 29900
" />
<path d="M33693 29406
L33200 29900
" />
<path d="M38693 29406
L33693 29406
" />
<path d="M42200 25900
L38693 29406
" />
<path d="M43200 27900
L45200 27900
" />
<path d="M45158 19941
L45158 19900
" />
<path d="M43200 21900
L45158 19941
" />
<path d="M42200 26900
L44200 26900
" />
</g>
<g style="fill:#000000; fill-opacity:0.0; 
stroke:#000000; stroke-width:300; stroke-opacity:1; 
stroke-linecap:round; stroke-linejoin:round;">
<path d="M37400 33318
L37400 33400
" />
</g>
<g style="fill:#000000; fill-opacity:0.0; 
stroke:#000000; stroke-width:200; stroke-opacity:1; 
stroke-linecap:round; stroke-linejoin:round;">
<path d="M34200 22900
L33200 21900
" />
<path d="M33200 21900
L33200 15400
" />
<path d="M34200 23900
L32200 21900
" />
<path d="M30900 16600
L32200 17900
" />
<path d="M32200 21900
L32200 17900
" />
<path d="M36191 33400
L36200 33400
" />
<path d="M33691 30900
L36191 33400
" />
<path d="M32700 30900
L33691 30900
" />
</g>
<g >
</g>
<g style="fill:#000000; fill-opacity:0.0; 
stroke:#000000; stroke-width:200; stroke-opacity:1; 
stroke-linecap:round; stroke-linejoin:round;">
<g >
</g>
<g style="fill:#000000; fill-opacity:1.0; 
stroke:#000000; stroke-width:100; stroke-opacity:1; 
stroke-linecap:round; stroke-linejoin:round;">
<path style="fill:#000000; fill-opacity:1.0; 
stroke:#000000; stroke-width:100; stroke-opacity:1; 
stroke-linecap:round; stroke-linejoin:round;fill-rule:evenodd;"
d="M 45737.5,10727.2
45527.2,10937.5
45362,11184.8
45248.2,11459.6
45190.2,11751.3
45190.2,12048.7
45248.2,12340.4
45362,12615.2
45527.2,12862.5
45737.5,13072.8
45984.8,13238
46259.6,13351.8
46551.3,13409.8
46848.7,13409.8
47140.4,13351.8
47415.2,13238
47662.5,13072.8
47872.8,12862.5
47945,12754.4
47945,47045.6
47872.8,46937.5
47662.5,46727.2
47415.2,46562
47140.4,46448.2
46848.7,46390.2
46551.3,46390.2
46259.6,46448.2
45984.8,46562
45737.5,46727.2
45527.2,46937.5
45362,47184.8
45248.2,47459.6
45190.2,47751.3
45190.2,48048.7
45248.2,48340.4
45362,48615.2
45527.2,48862.5
45737.5,49072.8
45845.6,49145
30554.4,49145
30662.5,49072.8
30872.8,48862.5
31038,48615.2
31151.8,48340.4
31209.8,48048.7
31209.8,47751.3
31151.8,47459.6
31038,47184.8
30872.8,46937.5
30772.4,46837.2
38323.7,46837.2
38361.4,46941.3
38475.4,46996.7
38598.1,47028.9
38724.6,47036.5
38850.3,47019.3
38970.1,46977.9
39038.6,46941.3
39076.3,46837.2
38700,46460.9
38323.7,46837.2
30772.4,46837.2
30662.5,46727.2
30415.2,46562
30140.4,46448.2
29972.6,46414.8
38053.7,46414.8
38070.9,46540.4
38112.3,46660.3
38148.9,46728.8
38253,46766.5
38629.3,46390.2
38770.7,46390.2
39147,46766.5
39251.1,46728.8
39306.6,46614.7
39338.7,46492.1
39346.3,46365.5
39342.4,46336.6
40046.3,46336.6
40046.3,46463.4
40071,46587.8
40119.6,46704.9
40190,46810.3
40279.7,46900
40385.1,46970.4
40502.2,47019
40626.6,47043.7
40753.4,47043.7
40877.8,47019
40994.9,46970.4
41100.3,46900
41190,46810.3
41260.4,46704.9
41309,46587.8
41333.7,46463.4
41333.7,46336.6
41309,46212.2
41260.4,46095.1
41190,45989.7
41100.3,45900
40994.9,45829.6
40877.8,45781
40753.4,45756.3
40626.6,45756.3
40502.2,45781
40385.1,45829.6
40279.7,45900
40190,45989.7
40119.6,46095.1
40071,46212.2
40046.3,46336.6
39342.4,46336.6
39329.1,46239.9
39287.7,46120
39251.1,46051.6
39147,46013.9
38770.7,46390.2
38629.3,46390.2
38253,46013.9
38148.9,46051.6
38093.4,46165.6
38061.3,46288.2
38053.7,46414.8
29972.6,46414.8
29848.7,46390.2
29551.3,46390.2
29259.6,46448.2
28984.8,46562
28737.5,46727.2
28527.2,46937.5
28455,47045.6
28455,45943.1
38323.7,45943.1
38700,46319.4
39076.3,45943.1
39038.6,45839.1
38924.6,45783.6
38801.9,45751.4
38675.4,45743.8
38549.7,45761
38429.9,45802.4
38361.4,45839.1
38323.7,45943.1
28455,45943.1
28455,43805.1
37056.3,43805.1
37056.3,43931.9
37081,44056.3
37129.6,44173.4
37200,44278.8
37289.7,44368.5
37395.1,44438.9
37512.2,44487.5
37636.6,44512.2
37763.4,44512.2
37887.8,44487.5
38004.9,44438.9
38110.3,44368.5
38200,44278.8
38205.1,44271.2
40046.3,44271.2
40046.3,44398
40071,44522.4
40119.6,44639.6
40190,44745
40279.7,44834.6
40385.1,44905.1
40502.2,44953.6
40626.6,44978.3
40753.4,44978.3
40877.8,44953.6
40994.9,44905.1
41100.3,44834.6
41190,44745
41260.4,44639.6
41309,44522.4
41333.7,44398
41333.7,44271.2
41309,44146.9
41260.4,44029.7
41190,43924.3
41100.3,43834.7
40994.9,43764.2
40877.8,43715.7
40753.4,43690.9
40626.6,43690.9
40502.2,43715.7
40385.1,43764.2
40279.7,43834.7
40190,43924.3
40119.6,44029.7
40071,44146.9
40046.3,44271.2
38205.1,44271.2
38270.4,44173.4
38319,44056.3
38343.7,43931.9
38343.7,43805.1
38319,43680.7
38270.4,43563.6
38200,43458.2
38110.3,43368.5
38004.9,43298.1
37887.8,43249.5
37763.4,43224.8
37636.6,43224.8
37512.2,43249.5
37395.1,43298.1
37289.7,43368.5
37200,43458.2
37129.6,43563.6
37081,43680.7
37056.3,43805.1
28455,43805.1
28455,42728.3
40045.1,42728.3
40049.9,42777.4
40064.2,42824.5
40087.4,42867.9
40118.7,42906
40156.7,42937.2
40200.2,42960.4
40247.3,42974.7
40296.3,42979.6
40577.5,42978.3
40640,42915.8
40640,42384.6
40740,42384.6
40740,42915.8
40802.5,42978.3
41083.7,42979.6
41132.7,42974.7
41179.8,42960.4
41223.3,42937.2
41261.3,42906
41292.6,42867.9
41315.8,42824.5
41330.1,42777.4
41334.9,42728.3
41333.7,42447.1
41271.2,42384.6
40740,42384.6
40640,42384.6
40108.8,42384.6
40046.3,42447.1
40045.1,42728.3
28455,42728.3
28455,42293.7
37055.1,42293.7
37059.9,42342.7
37074.2,42389.8
37097.4,42433.3
37128.7,42471.3
37166.7,42502.6
37210.2,42525.8
37257.3,42540.1
37306.3,42544.9
37587.5,42543.7
37650,42481.2
37650,41950
37750,41950
37750,42481.2
37812.5,42543.7
38093.7,42544.9
38142.7,42540.1
38189.8,42525.8
38233.3,42502.6
38271.3,42471.3
38302.6,42433.3
38325.8,42389.8
38340.1,42342.7
38344.9,42293.7
38343.7,42012.5
38281.2,41950
37750,41950
37650,41950
37118.8,41950
37056.3,42012.5
37055.1,42293.7
28455,42293.7
28455,41940.9
40045.1,41940.9
40046.3,42222.1
40108.8,42284.6
40640,42284.6
40640,41753.4
40740,41753.4
40740,42284.6
41271.2,42284.6
41333.7,42222.1
41334.9,41940.9
41330.1,41891.9
41315.8,41844.8
41292.6,41801.4
41261.3,41763.3
41223.3,41732.1
41179.8,41708.9
41132.7,41694.6
41083.7,41689.7
40802.5,41690.9
40740,41753.4
40640,41753.4
40577.5,41690.9
40296.3,41689.7
40247.3,41694.6
40200.2,41708.9
40156.7,41732.1
40118.7,41763.3
40087.4,41801.4
40064.2,41844.8
40049.9,41891.9
40045.1,41940.9
28455,41940.9
28455,41506.3
37055.1,41506.3
37056.3,41787.5
37118.8,41850
37650,41850
37650,41318.8
37750,41318.8
37750,41850
38281.2,41850
38343.7,41787.5
38344.9,41506.3
38340.1,41457.3
38325.8,41410.2
38302.6,41366.7
38271.3,41328.7
38233.3,41297.4
38189.8,41274.2
38142.7,41259.9
38093.7,41255.1
37812.5,41256.3
37750,41318.8
37650,41318.8
37587.5,41256.3
37306.3,41255.1
37257.3,41259.9
37210.2,41274.2
37166.7,41297.4
37128.7,41328.7
37097.4,41366.7
37074.2,41410.2
37059.9,41457.3
37055.1,41506.3
28455,41506.3
28455,40809.4
43767.7,40809.4
43767.7,41990.6
43783.9,42154.8
43831.8,42312.7
43909.6,42458.2
44014.2,42585.8
44141.8,42690.4
44287.3,42768.2
44445.2,42816.1
44609.4,42832.3
44914.4,42832.3
44782.6,42858.5
44522.1,42966.4
44287.7,43123
44088.4,43322.4
43931.8,43556.8
43823.9,43817.2
43768.9,44093.7
43768.9,44375.6
43823.9,44652.1
43931.8,44912.5
44088.4,45146.9
44287.7,45346.3
44522.1,45502.9
44782.6,45610.8
45059,45665.7
45341,45665.7
45617.4,45610.8
45877.9,45502.9
46112.3,45346.3
46311.6,45146.9
46468.2,44912.5
46576.1,44652.1
46631.1,44375.6
46631.1,44093.7
46576.1,43817.2
46468.2,43556.8
46311.6,43322.4
46112.3,43123
45877.9,42966.4
45617.4,42858.5
45485.6,42832.3
45790.6,42832.3
45954.8,42816.1
46112.7,42768.2
46258.2,42690.4
46385.8,42585.8
46490.4,42458.2
46568.2,42312.7
46616.1,42154.8
46632.3,41990.6
46632.3,40809.4
46616.1,40645.2
46568.2,40487.3
46490.4,40341.8
46385.8,40214.2
46258.2,40109.6
46112.7,40031.8
45954.8,39983.9
45790.6,39967.7
44609.4,39967.7
44445.2,39983.9
44287.3,40031.8
44141.8,40109.6
44014.2,40214.2
43909.6,40341.8
43831.8,40487.3
43783.9,40645.2
43767.7,40809.4
28455,40809.4
28455,37565.4
30614.1,37565.4
30614.1,38234.6
30619,38283.7
30633.3,38330.8
30656.5,38374.2
30687.7,38412.3
30725.8,38443.5
30769.2,38466.7
30816.3,38481
30865.4,38485.9
31534.6,38485.9
31583.7,38481
31630.8,38466.7
31674.2,38443.5
31712.3,38412.3
31743.5,38374.2
31766.7,38330.8
31781,38283.7
31785.9,38234.6
31785.9,37565.4
31781,37516.3
31766.7,37469.2
31743.5,37425.8
31712.3,37387.7
31674.2,37356.5
31637,37336.6
37664.2,37336.6
37664.2,37463.4
37688.9,37587.8
37737.4,37704.9
37807.9,37810.3
37897.5,37900
38003,37970.4
38120.1,38019
38244.5,38043.7
38371.3,38043.7
38495.6,38019
38612.8,37970.4
38718.2,37900
38807.9,37810.3
38878.3,37704.9
38926.8,37587.8
38951.6,37463.4
38951.6,37336.6
38926.8,37212.2
38878.3,37095.1
38819,37006.3
40655.1,37006.3
40655.1,37793.7
40659.9,37842.7
40674.2,37889.8
40697.4,37933.3
40728.7,37971.3
40766.7,38002.6
40810.2,38025.8
40857.3,38040.1
40906.3,38044.9
41693.7,38044.9
41742.7,38040.1
41789.8,38025.8
41833.3,38002.6
41871.3,37971.3
41902.6,37933.3
41925.8,37889.8
41940.1,37842.7
41940.1,37842.4
44615.4,37842.4
44615.4,37957.6
44637.8,38070.5
44681.9,38176.9
44745.9,38272.7
44827.3,38354.1
44923.1,38418.1
45029.5,38462.2
45142.4,38484.6
45257.6,38484.6
45370.5,38462.2
45476.9,38418.1
45572.7,38354.1
45654.1,38272.7
45718.1,38176.9
45762.2,38070.5
45784.6,37957.6
45784.6,37842.4
45762.2,37729.5
45718.1,37623.1
45654.1,37527.3
45572.7,37445.9
45501,37398
45547,37370.5
45632.1,37293.8
45700.6,37201.9
45749.9,37098.5
45767.5,37040.5
45719.7,36950
45250,36950
45250,36957.9
45150,36957.9
45150,36950
44680.3,36950
44632.5,37040.5
44650.1,37098.5
44699.4,37201.9
44767.9,37293.8
44853,37370.5
44899,37398
44827.3,37445.9
44745.9,37527.3
44681.9,37623.1
44637.8,37729.5
44615.4,37842.4
41940.1,37842.4
41944.9,37793.7
41944.9,37006.3
41940.1,36957.3
41925.8,36910.2
41902.6,36866.7
41871.3,36828.7
41833.3,36797.4
41789.8,36774.2
41742.7,36759.9
41693.7,36755.1
40906.3,36755.1
40857.3,36759.9
40810.2,36774.2
40766.7,36797.4
40728.7,36828.7
40697.4,36866.7
40674.2,36910.2
40659.9,36957.3
40655.1,37006.3
38819,37006.3
38807.9,36989.7
38718.2,36900
38612.8,36829.6
38495.6,36781
38371.3,36756.3
38244.5,36756.3
38120.1,36781
38003,36829.6
37897.5,36900
37807.9,36989.7
37737.4,37095.1
37688.9,37212.2
37664.2,37336.6
31637,37336.6
31630.8,37333.3
31602.2,37324.6
31654.1,37272.7
31718.1,37176.9
31762.2,37070.5
31784.6,36957.6
31784.6,36842.4
31762.2,36729.5
31718.1,36623.1
31654.1,36527.3
31572.7,36445.9
31501,36398
31547,36370.5
31632.1,36293.8
31700.6,36201.9
31749.9,36098.5
31767.5,36040.5
31719.7,35950
31250,35950
31250,35957.9
31150,35957.9
31150,35950
30680.3,35950
30632.5,36040.5
30650.1,36098.5
30699.4,36201.9
30767.9,36293.8
30853,36370.5
30899,36398
30827.3,36445.9
30745.9,36527.3
30681.9,36623.1
30637.8,36729.5
30615.4,36842.4
30615.4,36957.6
30637.8,37070.5
30681.9,37176.9
30745.9,37272.7
30797.8,37324.6
30769.2,37333.3
30725.8,37356.5
30687.7,37387.7
30656.5,37425.8
30633.3,37469.2
30619,37516.3
30614.1,37565.4
28455,37565.4
28455,34842.4
30615.4,34842.4
30615.4,34957.6
30637.8,35070.5
30681.9,35176.9
30745.9,35272.7
30827.3,35354.1
30899,35402
30853,35429.5
30767.9,35506.2
30699.4,35598.1
30650.1,35701.5
30632.5,35759.5
30680.3,35850
31150,35850
31150,35842.1
31250,35842.1
31250,35850
31719.7,35850
31767.5,35759.5
31749.9,35701.5
31700.6,35598.1
31632.1,35506.2
31547,35429.5
31501,35402
31572.7,35354.1
31654.1,35272.7
31718.1,35176.9
31762.2,35070.5
31784.6,34957.6
31784.6,34842.4
31762.2,34729.5
31718.1,34623.1
31679.5,34565.4
44614.1,34565.4
44614.1,35234.6
44619,35283.7
44633.3,35330.8
44656.5,35374.2
44687.7,35412.3
44725.8,35443.5
44769.2,35466.7
44797.8,35475.4
44745.9,35527.3
44681.9,35623.1
44637.8,35729.5
44615.4,35842.4
44615.4,35957.6
44637.8,36070.5
44681.9,36176.9
44745.9,36272.7
44827.3,36354.1
44899,36402
44853,36429.5
44767.9,36506.2
44699.4,36598.1
44650.1,36701.5
44632.5,36759.5
44680.3,36850
45150,36850
45150,36842.1
45250,36842.1
45250,36850
45719.7,36850
45767.5,36759.5
45749.9,36701.5
45700.6,36598.1
45632.1,36506.2
45547,36429.5
45501,36402
45572.7,36354.1
45654.1,36272.7
45718.1,36176.9
45762.2,36070.5
45784.6,35957.6
45784.6,35842.4
45762.2,35729.5
45718.1,35623.1
45654.1,35527.3
45602.2,35475.4
45630.8,35466.7
45674.2,35443.5
45712.3,35412.3
45743.5,35374.2
45766.7,35330.8
45781,35283.7
45785.9,35234.6
45785.9,34565.4
45781,34516.3
45766.7,34469.2
45743.5,34425.8
45712.3,34387.7
45674.2,34356.5
45630.8,34333.3
45583.7,34319
45534.6,34314.1
44865.4,34314.1
44816.3,34319
44769.2,34333.3
44725.8,34356.5
44687.7,34387.7
44656.5,34425.8
44633.3,34469.2
44619,34516.3
44614.1,34565.4
31679.5,34565.4
31654.1,34527.3
31572.7,34445.9
31476.9,34381.9
31370.5,34337.8
31257.6,34315.4
31142.4,34315.4
31029.5,34337.8
30923.1,34381.9
30827.3,34445.9
30745.9,34527.3
30681.9,34623.1
30637.8,34729.5
30615.4,34842.4
28455,34842.4
28455,30859.9
32292.5,30859.9
32292.5,30940.1
32308.2,31018.9
32338.9,31093
32383.5,31159.8
32440.2,31216.5
32507,31261.1
32581.1,31291.8
32659.9,31307.5
32740.1,31307.5
32818.9,31291.8
32893,31261.1
32909.6,31250
33546.1,31250
35110.2,32814.1
34865.4,32814.1
34816.3,32819
34769.2,32833.3
34725.8,32856.5
34687.7,32887.7
34656.5,32925.8
34633.3,32969.2
34619,33016.3
34614.1,33065.4
34614.1,33734.6
34619,33783.7
34633.3,33830.8
34656.5,33874.2
34687.7,33912.3
34725.8,33943.5
34769.2,33966.7
34816.3,33981
34865.4,33985.9
35534.6,33985.9
35583.7,33981
35630.8,33966.7
35674.2,33943.5
35712.3,33912.3
35743.5,33874.2
35766.7,33830.8
35775.4,33802.2
35827.3,33854.1
35923.1,33918.1
36029.5,33962.2
36142.4,33984.6
36257.6,33984.6
36370.5,33962.2
36476.9,33918.1
36572.7,33854.1
36654.1,33772.7
36700,33704
36745.9,33772.7
36827.3,33854.1
36923.1,33918.1
37029.5,33962.2
37142.4,33984.6
37257.6,33984.6
37370.5,33962.2
37476.9,33918.1
37572.7,33854.1
37654.1,33772.7
37700,33704
37745.9,33772.7
37827.3,33854.1
37923.1,33918.1
38029.5,33962.2
38142.4,33984.6
38257.6,33984.6
38370.5,33962.2
38476.9,33918.1
38572.7,33854.1
38654.1,33772.7
38700,33704
38745.9,33772.7
38827.3,33854.1
38923.1,33918.1
39029.5,33962.2
39142.4,33984.6
39257.6,33984.6
39370.5,33962.2
39476.9,33918.1
39572.7,33854.1
39654.1,33772.7
39718.1,33676.9
39762.2,33570.5
39784.6,33457.6
39784.6,33342.4
39762.2,33229.5
39718.1,33123.1
39654.1,33027.3
39572.7,32945.9
39476.9,32881.9
39370.5,32837.8
39257.6,32815.4
39142.4,32815.4
39029.5,32837.8
38923.1,32881.9
38827.3,32945.9
38745.9,33027.3
38700,33096
38654.1,33027.3
38572.7,32945.9
38476.9,32881.9
38370.5,32837.8
38257.6,32815.4
38142.4,32815.4
38029.5,32837.8
37923.1,32881.9
37827.3,32945.9
37745.9,33027.3
37715.5,33072.8
37684.2,33034.8
37623.3,32984.8
37598.1,32971.3
37572.7,32945.9
37476.9,32881.9
37370.5,32837.8
37257.6,32815.4
37142.4,32815.4
37029.5,32837.8
36923.1,32881.9
36827.3,32945.9
36745.9,33027.3
36700,33096
36654.1,33027.3
36572.7,32945.9
36476.9,32881.9
36370.5,32837.8
36257.6,32815.4
36142.4,32815.4
36108.2,32822.2
33950.7,30664.7
33939.7,30651.3
33886.4,30607.6
33825.6,30575.1
33759.6,30555.1
33708.2,30550
33708.2,30550
33691,30548.3
33673.8,30550
32909.6,30550
32893,30538.9
32818.9,30508.2
32740.1,30492.5
32659.9,30492.5
32581.1,30508.2
32507,30538.9
32440.2,30583.5
32383.5,30640.2
32338.9,30707
32308.2,30781.1
32292.5,30859.9
28455,30859.9
28455,26842.4
30615.4,26842.4
30615.4,26957.6
30637.8,27070.5
30681.9,27176.9
30745.9,27272.7
30827.3,27354.1
30899,27402
30853,27429.5
30767.9,27506.2
30699.4,27598.1
30650.1,27701.5
30632.5,27759.5
30680.3,27850
31150,27850
31150,27842.1
31250,27842.1
31250,27850
31719.7,27850
31767.5,27759.5
31749.9,27701.5
31700.6,27598.1
31632.1,27506.2
31547,27429.5
31501,27402
31572.7,27354.1
31654.1,27272.7
31718.1,27176.9
31762.2,27070.5
31784.6,26957.6
31784.6,26842.4
31762.2,26729.5
31718.1,26623.1
31654.1,26527.3
31572.7,26445.9
31476.9,26381.9
31370.5,26337.8
31257.6,26315.4
31142.4,26315.4
31029.5,26337.8
30923.1,26381.9
30827.3,26445.9
30745.9,26527.3
30681.9,26623.1
30637.8,26729.5
30615.4,26842.4
28455,26842.4
28455,18842.4
30615.4,18842.4
30615.4,18957.6
30637.8,19070.5
30681.9,19176.9
30745.9,19272.7
30827.3,19354.1
30899,19402
30853,19429.5
30767.9,19506.2
30699.4,19598.1
30650.1,19701.5
30632.5,19759.5
30680.3,19850
31150,19850
31150,19842.1
31250,19842.1
31250,19850
31719.7,19850
31767.5,19759.5
31749.9,19701.5
31700.6,19598.1
31632.1,19506.2
31547,19429.5
31501,19402
31572.7,19354.1
31654.1,19272.7
31718.1,19176.9
31762.2,19070.5
31784.6,18957.6
31784.6,18842.4
31762.2,18729.5
31718.1,18623.1
31654.1,18527.3
31572.7,18445.9
31476.9,18381.9
31370.5,18337.8
31257.6,18315.4
31142.4,18315.4
31029.5,18337.8
30923.1,18381.9
30827.3,18445.9
30745.9,18527.3
30681.9,18623.1
30637.8,18729.5
30615.4,18842.4
28455,18842.4
28455,16559.9
30492.5,16559.9
30492.5,16640.1
30508.2,16718.9
30538.9,16793
30583.5,16859.8
30640.2,16916.5
30707,16961.1
30781.1,16991.8
30800.7,16995.7
31850,18045
31850,21882.8
31848.3,21900
31850,21917.2
31850,21917.2
31855.1,21968.6
31875.1,22034.6
31907.6,22095.4
31951.3,22148.7
31964.7,22159.6
33311.8,23506.8
33299.3,23504.3
31785.9,21990.9
31785.9,21565.4
31781,21516.3
31766.7,21469.2
31743.5,21425.8
31712.3,21387.7
31674.2,21356.5
31630.8,21333.3
31602.2,21324.6
31654.1,21272.7
31718.1,21176.9
31762.2,21070.5
31784.6,20957.6
31784.6,20842.4
31762.2,20729.5
31718.1,20623.1
31654.1,20527.3
31572.7,20445.9
31501,20398
31547,20370.5
31632.1,20293.8
31700.6,20201.9
31749.9,20098.5
31767.5,20040.5
31719.7,19950
31250,19950
31250,19957.9
31150,19957.9
31150,19950
30680.3,19950
30632.5,20040.5
30650.1,20098.5
30699.4,20201.9
30767.9,20293.8
30853,20370.5
30899,20398
30827.3,20445.9
30745.9,20527.3
30681.9,20623.1
30637.8,20729.5
30615.4,20842.4
30615.4,20957.6
30637.8,21070.5
30681.9,21176.9
30745.9,21272.7
30797.8,21324.6
30769.2,21333.3
30725.8,21356.5
30687.7,21387.7
30656.5,21425.8
30633.3,21469.2
30619,21516.3
30614.1,21565.4
30614.1,22234.6
30619,22283.7
30633.3,22330.8
30656.5,22374.2
30687.7,22412.3
30725.8,22443.5
30769.2,22466.7
30816.3,22481
30865.4,22485.9
31290.9,22485.9
32804.3,23999.3
32808.2,24018.9
32838.9,24093
32883.5,24159.8
32940.2,24216.5
33007,24261.1
33081.1,24291.8
33159.9,24307.5
33240.1,24307.5
33318.9,24291.8
33393,24261.1
33459.8,24216.5
33516.5,24159.8
33561.1,24093
33591.8,24018.9
33607.5,23940.1
33607.5,23859.9
33593.2,23788.2
33637.4,23832.4
33635,23844.4
33635,23955.6
33656.8,24064.8
33699.3,24167.6
33761.2,24260.1
33839.9,24338.8
33931.4,24400
33839.9,24461.2
33761.2,24539.9
33699.3,24632.4
33656.8,24735.2
33635,24844.4
33635,24955.6
33656.8,25064.8
33699.3,25167.6
33761.2,25260.1
33839.9,25338.8
33931.4,25400
33839.9,25461.2
33761.2,25539.9
33699.3,25632.4
33656.8,25735.2
33635,25844.4
33635,25955.6
33656.8,26064.8
33699.3,26167.6
33761.2,26260.1
33839.9,26338.8
33931.4,26400
33839.9,26461.2
33761.2,26539.9
33699.3,26632.4
33656.8,26735.2
33635,26844.4
33635,26955.6
33656.8,27064.8
33699.3,27167.6
33761.2,27260.1
33839.9,27338.8
33931.4,27400
33839.9,27461.2
33761.2,27539.9
33699.3,27632.4
33656.8,27735.2
33635,27844.4
33635,27955.6
33655.1,28056.3
31762.7,28056.3
31767.5,28040.5
31719.7,27950
31250,27950
31250,27957.9
31150,27957.9
31150,27950
30680.3,27950
30632.5,28040.5
30650.1,28098.5
30699.4,28201.9
30767.9,28293.8
30853,28370.5
30899,28398
30827.3,28445.9
30745.9,28527.3
30681.9,28623.1
30637.8,28729.5
30615.4,28842.4
30615.4,28957.6
30637.8,29070.5
30681.9,29176.9
30745.9,29272.7
30797.8,29324.6
30769.2,29333.3
30725.8,29356.5
30687.7,29387.7
30656.5,29425.8
30633.3,29469.2
30619,29516.3
30614.1,29565.4
30614.1,30234.6
30619,30283.7
30633.3,30330.8
30656.5,30374.2
30687.7,30412.3
30725.8,30443.5
30769.2,30466.7
30816.3,30481
30865.4,30485.9
31534.6,30485.9
31583.7,30481
31630.8,30466.7
31674.2,30443.5
31712.3,30412.3
31743.5,30374.2
31766.7,30330.8
31781,30283.7
31784.3,30250
32990.4,30250
33007,30261.1
33081.1,30291.8
33159.9,30307.5
33240.1,30307.5
33318.9,30291.8
33393,30261.1
33459.8,30216.5
33516.5,30159.8
33561.1,30093
33591.8,30018.9
33595.7,29999.3
33635.8,29959.2
33656.8,30064.8
33699.3,30167.6
33761.2,30260.1
33839.9,30338.8
33932.4,30400.7
34035.2,30443.2
34144.4,30465
34255.6,30465
34364.8,30443.2
34467.6,30400.7
34560.1,30338.8
34638.8,30260.1
34700.7,30167.6
34743.2,30064.8
34765,29955.6
34765,29844.4
34747.4,29756.3
38676.5,29756.3
38693.7,29758
38710.9,29756.3
38710.9,29756.3
38762.3,29751.2
38828.3,29731.2
38889.1,29698.7
38942.4,29655
38953.3,29641.6
41635.8,26959.2
41656.8,27064.8
41699.3,27167.6
41761.2,27260.1
41839.9,27338.8
41931.4,27400
41839.9,27461.2
41761.2,27539.9
41699.3,27632.4
41656.8,27735.2
41635,27844.4
41635,27955.6
41656.8,28064.8
41699.3,28167.6
41761.2,28260.1
41839.9,28338.8
41931.4,28400
41839.9,28461.2
41761.2,28539.9
41699.3,28632.4
41656.8,28735.2
41635,28844.4
41635,28955.6
41656.8,29064.8
41699.3,29167.6
41761.2,29260.1
41839.9,29338.8
41931.4,29400
41839.9,29461.2
41761.2,29539.9
41699.3,29632.4
41656.8,29735.2
41635,29844.4
41635,29955.6
41656.8,30064.8
41699.3,30167.6
41761.2,30260.1
41839.9,30338.8
41932.4,30400.7
42035.2,30443.2
42144.4,30465
42255.6,30465
42364.8,30443.2
42467.6,30400.7
42560.1,30338.8
42638.8,30260.1
42700.7,30167.6
42743.2,30064.8
42765,29955.6
42765,29844.4
42764.6,29842.4
44615.4,29842.4
44615.4,29957.6
44637.8,30070.5
44681.9,30176.9
44745.9,30272.7
44827.3,30354.1
44923.1,30418.1
45029.5,30462.2
45142.4,30484.6
45257.6,30484.6
45370.5,30462.2
45476.9,30418.1
45572.7,30354.1
45654.1,30272.7
45718.1,30176.9
45762.2,30070.5
45784.6,29957.6
45784.6,29842.4
45762.2,29729.5
45718.1,29623.1
45654.1,29527.3
45572.7,29445.9
45501,29398
45547,29370.5
45632.1,29293.8
45700.6,29201.9
45749.9,29098.5
45767.5,29040.5
45719.7,28950
45250,28950
45250,28957.9
45150,28957.9
45150,28950
44680.3,28950
44632.5,29040.5
44650.1,29098.5
44699.4,29201.9
44767.9,29293.8
44853,29370.5
44899,29398
44827.3,29445.9
44745.9,29527.3
44681.9,29623.1
44637.8,29729.5
44615.4,29842.4
42764.6,29842.4
42743.2,29735.2
42700.7,29632.4
42638.8,29539.9
42560.1,29461.2
42468.6,29400
42560.1,29338.8
42638.8,29260.1
42700.7,29167.6
42743.2,29064.8
42765,28955.6
42765,28844.4
42743.2,28735.2
42700.7,28632.4
42638.8,28539.9
42560.1,28461.2
42468.6,28400
42560.1,28338.8
42638.8,28260.1
42700.7,28167.6
42743.2,28064.8
42765,27955.6
42765,27859.9
42792.5,27859.9
42792.5,27940.1
42808.2,28018.9
42838.9,28093
42883.5,28159.8
42940.2,28216.5
43007,28261.1
43081.1,28291.8
43159.9,28307.5
43240.1,28307.5
43318.9,28291.8
43393,28261.1
43409.6,28250
44730.7,28250
44745.9,28272.7
44827.3,28354.1
44899,28402
44853,28429.5
44767.9,28506.2
44699.4,28598.1
44650.1,28701.5
44632.5,28759.5
44680.3,28850
45150,28850
45150,28842.1
45250,28842.1
45250,28850
45719.7,28850
45767.5,28759.5
45749.9,28701.5
45700.6,28598.1
45632.1,28506.2
45547,28429.5
45501,28402
45572.7,28354.1
45654.1,28272.7
45718.1,28176.9
45762.2,28070.5
45784.6,27957.6
45784.6,27842.4
45762.2,27729.5
45718.1,27623.1
45654.1,27527.3
45602.2,27475.4
45630.8,27466.7
45674.2,27443.5
45712.3,27412.3
45743.5,27374.2
45766.7,27330.8
45781,27283.7
45785.9,27234.6
45785.9,26565.4
45781,26516.3
45766.7,26469.2
45743.5,26425.8
45712.3,26387.7
45674.2,26356.5
45630.8,26333.3
45583.7,26319
45534.6,26314.1
44865.4,26314.1
44816.3,26319
44769.2,26333.3
44725.8,26356.5
44687.7,26387.7
44656.5,26425.8
44633.3,26469.2
44619,26516.3
44614.1,26565.4
44614.1,27234.6
44619,27283.7
44633.3,27330.8
44656.5,27374.2
44687.7,27412.3
44725.8,27443.5
44769.2,27466.7
44797.8,27475.4
44745.9,27527.3
44730.7,27550
43409.6,27550
43393,27538.9
43318.9,27508.2
43240.1,27492.5
43159.9,27492.5
43081.1,27508.2
43007,27538.9
42940.2,27583.5
42883.5,27640.2
42838.9,27707
42808.2,27781.1
42792.5,27859.9
42765,27859.9
42765,27844.4
42743.2,27735.2
42700.7,27632.4
42638.8,27539.9
42560.1,27461.2
42468.6,27400
42560.1,27338.8
42638.8,27260.1
42645.6,27250
43990.4,27250
44007,27261.1
44081.1,27291.8
44159.9,27307.5
44240.1,27307.5
44318.9,27291.8
44393,27261.1
44459.8,27216.5
44516.5,27159.8
44561.1,27093
44591.8,27018.9
44607.5,26940.1
44607.5,26859.9
44591.8,26781.1
44561.1,26707
44516.5,26640.2
44459.8,26583.5
44393,26538.9
44318.9,26508.2
44240.1,26492.5
44159.9,26492.5
44081.1,26508.2
44007,26538.9
43990.4,26550
42645.6,26550
42638.8,26539.9
42560.1,26461.2
42468.6,26400
42560.1,26338.8
42638.8,26260.1
42700.7,26167.6
42743.2,26064.8
42765,25955.6
42765,25844.4
42743.2,25735.2
42700.7,25632.4
42638.8,25539.9
42560.1,25461.2
42468.6,25400
42560.1,25338.8
42638.8,25260.1
42700.7,25167.6
42743.2,25064.8
42765,24955.6
42765,24844.4
42743.2,24735.2
42700.7,24632.4
42638.8,24539.9
42560.1,24461.2
42468.6,24400
42560.1,24338.8
42638.8,24260.1
42700.7,24167.6
42743.2,24064.8
42765,23955.6
42765,23844.4
42743.2,23735.2
42700.7,23632.4
42638.8,23539.9
42560.1,23461.2
42468.6,23400
42560.1,23338.8
42638.8,23260.1
42700.7,23167.6
42743.2,23064.8
42765,22955.6
42765,22844.4
42743.2,22735.2
42700.7,22632.4
42638.8,22539.9
42560.1,22461.2
42468.6,22400
42560.1,22338.8
42638.8,22260.1
42700.7,22167.6
42743.2,22064.8
42765,21955.6
42765,21859.9
42792.5,21859.9
42792.5,21940.1
42808.2,22018.9
42838.9,22093
42883.5,22159.8
42940.2,22216.5
43007,22261.1
43081.1,22291.8
43159.9,22307.5
43240.1,22307.5
43318.9,22291.8
43393,22261.1
43459.8,22216.5
43516.5,22159.8
43561.1,22093
43591.8,22018.9
43595.7,21999.3
44632.1,20962.8
44591.2,21040.5
44608.7,21098.5
44658,21201.9
44726.5,21293.8
44811.7,21370.5
44857.7,21398
44786,21445.9
44704.5,21527.3
44640.6,21623.1
44596.5,21729.5
44574,21842.4
44574,21957.6
44596.5,22070.5
44640.6,22176.9
44704.5,22272.7
44786,22354.1
44881.7,22418.1
44988.1,22462.2
45101.1,22484.6
45216.2,22484.6
45329.2,22462.2
45435.6,22418.1
45531.4,22354.1
45612.8,22272.7
45676.8,22176.9
45720.8,22070.5
45743.3,21957.6
45743.3,21842.4
45720.8,21729.5
45676.8,21623.1
45612.8,21527.3
45531.4,21445.9
45459.6,21398
45505.7,21370.5
45590.8,21293.8
45659.3,21201.9
45708.6,21098.5
45726.2,21040.5
45678.4,20950
45208.7,20950
45208.7,20957.9
45108.7,20957.9
45108.7,20950
45100.8,20950
45100.8,20850
45108.7,20850
45108.7,20842.1
45208.7,20842.1
45208.7,20850
45678.4,20850
45726.2,20759.5
45708.6,20701.5
45659.3,20598.1
45590.8,20506.2
45505.7,20429.5
45459.6,20402
45531.4,20354.1
45612.8,20272.7
45676.8,20176.9
45720.8,20070.5
45743.3,19957.6
45743.3,19842.4
45720.8,19729.5
45676.8,19623.1
45612.8,19527.3
45560.9,19475.4
45589.4,19466.7
45632.9,19443.5
45670.9,19412.3
45702.2,19374.2
45725.4,19330.8
45739.7,19283.7
45744.5,19234.6
45744.5,18565.4
45739.7,18516.3
45725.4,18469.2
45702.2,18425.8
45670.9,18387.7
45632.9,18356.5
45589.4,18333.3
45542.3,18319
45493.3,18314.1
44824,18314.1
44775,18319
44727.9,18333.3
44684.5,18356.5
44646.4,18387.7
44615.1,18425.8
44591.9,18469.2
44577.6,18516.3
44572.8,18565.4
44572.8,19234.6
44577.6,19283.7
44591.9,19330.8
44615.1,19374.2
44646.4,19412.3
44684.5,19443.5
44727.9,19466.7
44756.4,19475.4
44704.5,19527.3
44640.6,19623.1
44596.5,19729.5
44574,19842.4
44574,19957.6
44586.2,20018.8
43100.7,21504.3
43081.1,21508.2
43007,21538.9
42940.2,21583.5
42883.5,21640.2
42838.9,21707
42808.2,21781.1
42792.5,21859.9
42765,21859.9
42765,21844.4
42743.2,21735.2
42700.7,21632.4
42638.8,21539.9
42560.1,21461.2
42468.6,21400
42560.1,21338.8
42638.8,21260.1
42700.7,21167.6
42743.2,21064.8
42765,20955.6
42765,20844.4
42743.2,20735.2
42700.7,20632.4
42638.8,20539.9
42560.1,20461.2
42468.6,20400
42560.1,20338.8
42638.8,20260.1
42700.7,20167.6
42743.2,20064.8
42765,19955.6
42765,19844.4
42743.2,19735.2
42700.7,19632.4
42638.8,19539.9
42560.1,19461.2
42468.6,19400
42560.1,19338.8
42638.8,19260.1
42700.7,19167.6
42743.2,19064.8
42765,18955.6
42765,18844.4
42743.2,18735.2
42700.7,18632.4
42638.8,18539.9
42560.1,18461.2
42467.6,18399.3
42364.8,18356.8
42255.6,18335
42144.4,18335
42035.2,18356.8
41932.4,18399.3
41839.9,18461.2
41761.2,18539.9
41699.3,18632.4
41656.8,18735.2
41635,18844.4
41635,18955.6
41656.8,19064.8
41699.3,19167.6
41761.2,19260.1
41839.9,19338.8
41931.4,19400
41839.9,19461.2
41761.2,19539.9
41699.3,19632.4
41656.8,19735.2
41635,19844.4
41635,19955.6
41656.8,20064.8
41699.3,20167.6
41761.2,20260.1
41839.9,20338.8
41931.4,20400
41839.9,20461.2
41761.2,20539.9
41699.3,20632.4
41656.8,20735.2
41635,20844.4
41635,20955.6
41656.8,21064.8
41699.3,21167.6
41761.2,21260.1
41839.9,21338.8
41931.4,21400
41839.9,21461.2
41761.2,21539.9
41699.3,21632.4
41656.8,21735.2
41635,21844.4
41635,21955.6
41656.8,22064.8
41699.3,22167.6
41761.2,22260.1
41839.9,22338.8
41931.4,22400
41839.9,22461.2
41761.2,22539.9
41699.3,22632.4
41656.8,22735.2
41635,22844.4
41635,22955.6
41656.8,23064.8
41699.3,23167.6
41761.2,23260.1
41839.9,23338.8
41931.4,23400
41839.9,23461.2
41761.2,23539.9
41699.3,23632.4
41656.8,23735.2
41635,23844.4
41635,23955.6
41656.8,24064.8
41699.3,24167.6
41761.2,24260.1
41839.9,24338.8
41931.4,24400
41839.9,24461.2
41761.2,24539.9
41699.3,24632.4
41656.8,24735.2
41635,24844.4
41635,24955.6
41637.4,24967.6
38548.7,28056.3
34744.9,28056.3
34765,27955.6
34765,27844.4
34743.2,27735.2
34700.7,27632.4
34638.8,27539.9
34560.1,27461.2
34468.6,27400
34560.1,27338.8
34638.8,27260.1
34700.7,27167.6
34743.2,27064.8
34765,26955.6
34765,26844.4
34743.2,26735.2
34700.7,26632.4
34638.8,26539.9
34560.1,26461.2
34468.6,26400
34560.1,26338.8
34638.8,26260.1
34700.7,26167.6
34743.2,26064.8
34765,25955.6
34765,25844.4
34743.2,25735.2
34700.7,25632.4
34638.8,25539.9
34560.1,25461.2
34468.6,25400
34560.1,25338.8
34638.8,25260.1
34700.7,25167.6
34743.2,25064.8
34765,24955.6
34765,24844.4
34743.2,24735.2
34700.7,24632.4
34638.8,24539.9
34560.1,24461.2
34468.6,24400
34560.1,24338.8
34638.8,24260.1
34700.7,24167.6
34743.2,24064.8
34765,23955.6
34765,23844.4
34743.2,23735.2
34700.7,23632.4
34638.8,23539.9
34560.1,23461.2
34468.6,23400
34560.1,23338.8
34638.8,23260.1
34700.7,23167.6
34743.2,23064.8
34765,22955.6
34765,22844.4
34743.2,22735.2
34700.7,22632.4
34638.8,22539.9
34560.1,22461.2
34468.6,22400
34560.1,22338.8
34638.8,22260.1
34700.7,22167.6
34743.2,22064.8
34765,21955.6
34765,21844.4
34743.2,21735.2
34700.7,21632.4
34638.8,21539.9
34560.1,21461.2
34468.6,21400
34560.1,21338.8
34638.8,21260.1
34700.7,21167.6
34743.2,21064.8
34765,20955.6
34765,20844.4
34743.2,20735.2
34700.7,20632.4
34638.8,20539.9
34560.1,20461.2
34468.6,20400
34560.1,20338.8
34638.8,20260.1
34700.7,20167.6
34743.2,20064.8
34765,19955.6
34765,19844.4
34743.2,19735.2
34700.7,19632.4
34638.8,19539.9
34560.1,19461.2
34468.6,19400
34560.1,19338.8
34638.8,19260.1
34700.7,19167.6
34743.2,19064.8
34765,18955.6
34765,18844.4
34743.2,18735.2
34700.7,18632.4
34638.8,18539.9
34560.1,18461.2
34468.6,18400
34560.1,18338.8
34638.8,18260.1
34700.7,18167.6
34743.2,18064.8
34765,17955.6
34765,17844.4
34743.2,17735.2
34700.7,17632.4
34638.8,17539.9
34560.1,17461.2
34468.6,17400
34560.1,17338.8
34638.8,17260.1
34700.7,17167.6
34743.2,17064.8
34765,16955.6
34765,16844.4
34743.2,16735.2
34700.7,16632.4
34638.8,16539.9
34560.1,16461.2
34468.6,16400
34560.1,16338.8
34638.8,16260.1
34700.7,16167.6
34743.2,16064.8
34765,15955.6
34765,15844.4
34743.2,15735.2
34700.7,15632.4
34638.8,15539.9
34560.6,15461.7
34564,15461.3
34611.1,15447
34654.5,15423.8
34692.6,15392.6
34723.8,15354.5
34747,15311.1
34761.3,15264
34766.2,15215
34766.2,14585
34761.3,14536
34747,14488.9
34723.8,14445.5
34692.6,14407.4
34654.5,14376.2
34611.1,14353
34564,14338.7
34515,14333.8
33885,14333.8
33836,14338.7
33788.9,14353
33745.5,14376.2
33707.4,14407.4
33676.2,14445.5
33653,14488.9
33638.7,14536
33633.8,14585
33633.8,15215
33638.7,15264
33653,15311.1
33676.2,15354.5
33707.4,15392.6
33745.5,15423.8
33788.9,15447
33836,15461.3
33839.4,15461.7
33761.2,15539.9
33699.3,15632.4
33656.8,15735.2
33635,15844.4
33635,15955.6
33656.8,16064.8
33699.3,16167.6
33761.2,16260.1
33839.9,16338.8
33931.4,16400
33839.9,16461.2
33761.2,16539.9
33699.3,16632.4
33656.8,16735.2
33635,16844.4
33635,16955.6
33656.8,17064.8
33699.3,17167.6
33761.2,17260.1
33839.9,17338.8
33931.4,17400
33839.9,17461.2
33761.2,17539.9
33699.3,17632.4
33656.8,17735.2
33635,17844.4
33635,17955.6
33656.8,18064.8
33699.3,18167.6
33761.2,18260.1
33839.9,18338.8
33931.4,18400
33839.9,18461.2
33761.2,18539.9
33699.3,18632.4
33656.8,18735.2
33635,18844.4
33635,18955.6
33656.8,19064.8
33699.3,19167.6
33761.2,19260.1
33839.9,19338.8
33931.4,19400
33839.9,19461.2
33761.2,19539.9
33699.3,19632.4
33656.8,19735.2
33635,19844.4
33635,19955.6
33656.8,20064.8
33699.3,20167.6
33761.2,20260.1
33839.9,20338.8
33931.4,20400
33839.9,20461.2
33761.2,20539.9
33699.3,20632.4
33656.8,20735.2
33635,20844.4
33635,20955.6
33656.8,21064.8
33699.3,21167.6
33761.2,21260.1
33839.9,21338.8
33931.4,21400
33839.9,21461.2
33761.2,21539.9
33699.3,21632.4
33656.8,21735.2
33635.8,21840.8
33550,21755
33550,15609.6
33561.1,15593
33591.8,15518.9
33607.5,15440.1
33607.5,15359.9
33591.8,15281.1
33561.1,15207
33516.5,15140.2
33459.8,15083.5
33393,15038.9
33318.9,15008.2
33240.1,14992.5
33159.9,14992.5
33081.1,15008.2
33007,15038.9
32940.2,15083.5
32883.5,15140.2
32838.9,15207
32808.2,15281.1
32792.5,15359.9
32792.5,15440.1
32808.2,15518.9
32838.9,15593
32850,15609.6
32850,21882.8
32848.3,21900
32850,21917.2
32850,21917.2
32855.1,21968.6
32875.1,22034.6
32907.6,22095.4
32951.3,22148.7
32964.7,22159.6
33637.4,22832.4
33635.8,22840.8
32550,21755
32550,17917.2
32551.7,17900
32550,17882.8
32550,17882.8
32544.9,17831.4
32544.9,17831.4
32524.9,17765.4
32523.5,17762.7
32492.4,17704.6
32448.7,17651.3
32435.3,17640.4
31295.7,16500.7
31291.8,16481.1
31261.1,16407
31216.5,16340.2
31159.8,16283.5
31093,16238.9
31018.9,16208.2
30940.1,16192.5
30859.9,16192.5
30781.1,16208.2
30707,16238.9
30640.2,16283.5
30583.5,16340.2
30538.9,16407
30508.2,16481.1
30492.5,16559.9
28455,16559.9
28455,12754.4
28527.2,12862.5
28737.5,13072.8
28984.8,13238
29259.6,13351.8
29551.3,13409.8
29848.7,13409.8
30140.4,13351.8
30415.2,13238
30662.5,13072.8
30872.8,12862.5
31038,12615.2
31151.8,12340.4
31209.8,12048.7
31209.8,11751.3
31151.8,11459.6
31038,11184.8
30872.8,10937.5
30662.5,10727.2
30554.4,10655
45845.6,10655
Z" /> 
</g>
</g>
</g> 
</svg>
