<?xml version="1.0" standalone="no"?>
 <!DOCTYPE svg PUBLIC "-//W3C//DTD SVG 1.1//EN" 
 "http://www.w3.org/Graphics/SVG/1.1/DTD/svg11.dtd"> 
<svg
  xmlns:svg="http://www.w3.org/2000/svg"
  xmlns="http://www.w3.org/2000/svg"
  xmlns:xlink="http://www.w3.org/1999/xlink"
  version="1.1"
  width="17.780000cm" height="17.780000cm" viewBox="0 0 70000 70000">
<title>SVG Picture created as M5_BuggyProject-F_Cu.svg date 2022/01/28 00:36:10 </title>
  <desc>Picture generated by PCBNEW </desc>
<g style="fill:#000000; fill-opacity:1;stroke:#000000; stroke-opacity:1;
stroke-linecap:round; stroke-linejoin:round;"
 transform="translate(0 0) scale(1 1)">
</g>
<g style="fill:#000000; fill-opacity:0.0; 
stroke:#000000; stroke-width:-0.000393701; stroke-opacity:1; 
stroke-linecap:round; stroke-linejoin:round;">
<g >
</g>
<g >
</g>
<g style="fill:#000000; fill-opacity:0.0; 
stroke:#000000; stroke-width:-0.000393701; stroke-opacity:1; 
stroke-linecap:round; stroke-linejoin:round;">
</g>
<g style="fill:#000000; fill-opacity:0.0; 
stroke:#000000; stroke-width:0; stroke-opacity:1; 
stroke-linecap:round; stroke-linejoin:round;">
</g>
<g style="fill:#000000; fill-opacity:1.0; 
stroke:#000000; stroke-width:0; stroke-opacity:1; 
stroke-linecap:round; stroke-linejoin:round;">
<path style="fill:#000000; fill-opacity:1.0; 
stroke:#000000; stroke-width:0; stroke-opacity:1; 
stroke-linecap:round; stroke-linejoin:round;fill-rule:evenodd;"
d="M 31534.6,37565.4
31534.6,38234.6
30865.4,38234.6
30865.4,37565.4
Z" /> 
<circle cx="31200" cy="36900" r="334.646" /> 
<circle cx="31200" cy="35900" r="334.646" /> 
<circle cx="31200" cy="34900" r="334.646" /> 
</g>
<g >
</g>
<g style="fill:#000000; fill-opacity:1.0; 
stroke:#000000; stroke-width:0; stroke-opacity:1; 
stroke-linecap:round; stroke-linejoin:round;">
<path style="fill:#000000; fill-opacity:1.0; 
stroke:#000000; stroke-width:0; stroke-opacity:1; 
stroke-linecap:round; stroke-linejoin:round;fill-rule:evenodd;"
d="M 37356.3,41806.3
38143.7,41806.3
38143.7,42593.7
37356.3,42593.7
Z" /> 
<circle cx="37750" cy="44168.5" r="393.701" /> 
</g>
<g style="fill:#000000; fill-opacity:1.0; 
stroke:#000000; stroke-width:39.3701; stroke-opacity:1; 
stroke-linecap:round; stroke-linejoin:round;">
</g>
<g >
</g>
<g style="fill:#000000; fill-opacity:1.0; 
stroke:#000000; stroke-width:39.3701; stroke-opacity:1; 
stroke-linecap:round; stroke-linejoin:round;">
</g>
<g style="fill:#000000; fill-opacity:1.0; 
stroke:#000000; stroke-width:0; stroke-opacity:1; 
stroke-linecap:round; stroke-linejoin:round;">
<path style="fill:#000000; fill-opacity:1.0; 
stroke:#000000; stroke-width:0; stroke-opacity:1; 
stroke-linecap:round; stroke-linejoin:round;fill-rule:evenodd;"
d="M 31705.7,41583.5
31715.3,41585
31724.6,41587.3
31733.7,41590.6
31742.5,41594.7
31750.7,41599.7
31758.5,41605.4
31765.7,41611.9
31772.1,41619.1
31777.9,41626.8
31782.9,41635.1
31787,41643.8
31790.2,41652.9
31792.6,41662.3
31794,41671.8
31794.5,41681.5
31794.5,41927.6
31794,41937.2
31792.6,41946.8
31790.2,41956.1
31787,41965.2
31782.9,41974
31777.9,41982.2
31772.1,41990
31765.7,41997.2
31758.5,42003.6
31750.7,42009.4
31742.5,42014.4
31733.7,42018.5
31724.6,42021.7
31715.3,42024.1
31705.7,42025.5
31696.1,42026
31203.9,42026
31194.3,42025.5
31184.7,42024.1
31175.4,42021.7
31166.3,42018.5
31157.5,42014.4
31149.3,42009.4
31141.5,42003.6
31134.3,41997.2
31127.9,41990
31122.1,41982.2
31117.1,41974
31113,41965.2
31109.8,41956.1
31107.4,41946.8
31106,41937.2
31105.5,41927.6
31105.5,41681.5
31106,41671.8
31107.4,41662.3
31109.8,41652.9
31113,41643.8
31117.1,41635.1
31122.1,41626.8
31127.9,41619.1
31134.3,41611.9
31141.5,41605.4
31149.3,41599.7
31157.5,41594.7
31166.3,41590.6
31175.4,41587.3
31184.7,41585
31194.3,41583.5
31203.9,41583.1
31696.1,41583.1
Z" /> 
<path style="fill:#000000; fill-opacity:1.0; 
stroke:#000000; stroke-width:0; stroke-opacity:1; 
stroke-linecap:round; stroke-linejoin:round;fill-rule:evenodd;"
d="M 31705.7,42735.1
31715.3,42736.5
31724.6,42738.9
31733.7,42742.1
31742.5,42746.3
31750.7,42751.2
31758.5,42757
31765.7,42763.5
31772.1,42770.6
31777.9,42778.4
31782.9,42786.7
31787,42795.4
31790.2,42804.5
31792.6,42813.9
31794,42823.4
31794.5,42833.1
31794.5,43079.1
31794,43088.8
31792.6,43098.3
31790.2,43107.7
31787,43116.8
31782.9,43125.5
31777.9,43133.8
31772.1,43141.6
31765.7,43148.7
31758.5,43155.2
31750.7,43161
31742.5,43165.9
31733.7,43170.1
31724.6,43173.3
31715.3,43175.7
31705.7,43177.1
31696.1,43177.6
31203.9,43177.6
31194.3,43177.1
31184.7,43175.7
31175.4,43173.3
31166.3,43170.1
31157.5,43165.9
31149.3,43161
31141.5,43155.2
31134.3,43148.7
31127.9,43141.6
31122.1,43133.8
31117.1,43125.5
31113,43116.8
31109.8,43107.7
31107.4,43098.3
31106,43088.8
31105.5,43079.1
31105.5,42833.1
31106,42823.4
31107.4,42813.9
31109.8,42804.5
31113,42795.4
31117.1,42786.7
31122.1,42778.4
31127.9,42770.6
31134.3,42763.5
31141.5,42757
31149.3,42751.2
31157.5,42746.3
31166.3,42742.1
31175.4,42738.9
31184.7,42736.5
31194.3,42735.1
31203.9,42734.6
31696.1,42734.6
Z" /> 
</g>
<g >
</g>
<g style="fill:#000000; fill-opacity:1.0; 
stroke:#000000; stroke-width:0; stroke-opacity:1; 
stroke-linecap:round; stroke-linejoin:round;">
<path style="fill:#000000; fill-opacity:1.0; 
stroke:#000000; stroke-width:0; stroke-opacity:1; 
stroke-linecap:round; stroke-linejoin:round;fill-rule:evenodd;"
d="M 40296.3,41956.3
41083.7,41956.3
41083.7,42743.7
40296.3,42743.7
Z" /> 
<circle cx="40690" cy="44350" r="393.701" /> 
</g>
<g >
</g>
<g style="fill:#000000; fill-opacity:1.0; 
stroke:#000000; stroke-width:0; stroke-opacity:1; 
stroke-linecap:round; stroke-linejoin:round;">
<circle cx="31200" cy="26900" r="334.646" /> 
<circle cx="31200" cy="27900" r="334.646" /> 
<circle cx="31200" cy="28900" r="334.646" /> 
<path style="fill:#000000; fill-opacity:1.0; 
stroke:#000000; stroke-width:0; stroke-opacity:1; 
stroke-linecap:round; stroke-linejoin:round;fill-rule:evenodd;"
d="M 31534.6,29565.4
31534.6,30234.6
30865.4,30234.6
30865.4,29565.4
Z" /> 
</g>
<g >
</g>
<g style="fill:#000000; fill-opacity:1.0; 
stroke:#000000; stroke-width:0; stroke-opacity:1; 
stroke-linecap:round; stroke-linejoin:round;">
<circle cx="34200" cy="37900" r="314.961" /> 
</g>
<g style="fill:#000000; fill-opacity:1.0; 
stroke:#000000; stroke-width:39.3701; stroke-opacity:1; 
stroke-linecap:round; stroke-linejoin:round;">
</g>
<g style="fill:#000000; fill-opacity:1.0; 
stroke:#000000; stroke-width:0; stroke-opacity:1; 
stroke-linecap:round; stroke-linejoin:round;">
<circle cx="34200" cy="36900" r="314.961" /> 
</g>
<g style="fill:#000000; fill-opacity:1.0; 
stroke:#000000; stroke-width:39.3701; stroke-opacity:1; 
stroke-linecap:round; stroke-linejoin:round;">
</g>
<g style="fill:#000000; fill-opacity:1.0; 
stroke:#000000; stroke-width:0; stroke-opacity:1; 
stroke-linecap:round; stroke-linejoin:round;">
<circle cx="34200" cy="35900" r="314.961" /> 
</g>
<g style="fill:#000000; fill-opacity:1.0; 
stroke:#000000; stroke-width:39.3701; stroke-opacity:1; 
stroke-linecap:round; stroke-linejoin:round;">
</g>
<g style="fill:#000000; fill-opacity:1.0; 
stroke:#000000; stroke-width:0; stroke-opacity:1; 
stroke-linecap:round; stroke-linejoin:round;">
<circle cx="34200" cy="34900" r="314.961" /> 
</g>
<g style="fill:#000000; fill-opacity:1.0; 
stroke:#000000; stroke-width:39.3701; stroke-opacity:1; 
stroke-linecap:round; stroke-linejoin:round;">
</g>
<g style="fill:#000000; fill-opacity:1.0; 
stroke:#000000; stroke-width:0; stroke-opacity:1; 
stroke-linecap:round; stroke-linejoin:round;">
<circle cx="34200" cy="33900" r="314.961" /> 
</g>
<g style="fill:#000000; fill-opacity:1.0; 
stroke:#000000; stroke-width:39.3701; stroke-opacity:1; 
stroke-linecap:round; stroke-linejoin:round;">
</g>
<g style="fill:#000000; fill-opacity:1.0; 
stroke:#000000; stroke-width:0; stroke-opacity:1; 
stroke-linecap:round; stroke-linejoin:round;">
<circle cx="34200" cy="32900" r="314.961" /> 
</g>
<g style="fill:#000000; fill-opacity:1.0; 
stroke:#000000; stroke-width:39.3701; stroke-opacity:1; 
stroke-linecap:round; stroke-linejoin:round;">
</g>
<g style="fill:#000000; fill-opacity:1.0; 
stroke:#000000; stroke-width:0; stroke-opacity:1; 
stroke-linecap:round; stroke-linejoin:round;">
<circle cx="34200" cy="31900" r="314.961" /> 
</g>
<g style="fill:#000000; fill-opacity:1.0; 
stroke:#000000; stroke-width:39.3701; stroke-opacity:1; 
stroke-linecap:round; stroke-linejoin:round;">
</g>
<g style="fill:#000000; fill-opacity:1.0; 
stroke:#000000; stroke-width:0; stroke-opacity:1; 
stroke-linecap:round; stroke-linejoin:round;">
<circle cx="34200" cy="30900" r="314.961" /> 
</g>
<g style="fill:#000000; fill-opacity:1.0; 
stroke:#000000; stroke-width:39.3701; stroke-opacity:1; 
stroke-linecap:round; stroke-linejoin:round;">
</g>
<g style="fill:#000000; fill-opacity:1.0; 
stroke:#000000; stroke-width:0; stroke-opacity:1; 
stroke-linecap:round; stroke-linejoin:round;">
<circle cx="34200" cy="29900" r="314.961" /> 
</g>
<g style="fill:#000000; fill-opacity:1.0; 
stroke:#000000; stroke-width:39.3701; stroke-opacity:1; 
stroke-linecap:round; stroke-linejoin:round;">
</g>
<g style="fill:#000000; fill-opacity:1.0; 
stroke:#000000; stroke-width:0; stroke-opacity:1; 
stroke-linecap:round; stroke-linejoin:round;">
<circle cx="34200" cy="28900" r="314.961" /> 
</g>
<g style="fill:#000000; fill-opacity:1.0; 
stroke:#000000; stroke-width:39.3701; stroke-opacity:1; 
stroke-linecap:round; stroke-linejoin:round;">
</g>
<g style="fill:#000000; fill-opacity:1.0; 
stroke:#000000; stroke-width:0; stroke-opacity:1; 
stroke-linecap:round; stroke-linejoin:round;">
<circle cx="34200" cy="27900" r="314.961" /> 
</g>
<g style="fill:#000000; fill-opacity:1.0; 
stroke:#000000; stroke-width:39.3701; stroke-opacity:1; 
stroke-linecap:round; stroke-linejoin:round;">
</g>
<g style="fill:#000000; fill-opacity:1.0; 
stroke:#000000; stroke-width:0; stroke-opacity:1; 
stroke-linecap:round; stroke-linejoin:round;">
<circle cx="34200" cy="26900" r="314.961" /> 
</g>
<g style="fill:#000000; fill-opacity:1.0; 
stroke:#000000; stroke-width:39.3701; stroke-opacity:1; 
stroke-linecap:round; stroke-linejoin:round;">
</g>
<g style="fill:#000000; fill-opacity:1.0; 
stroke:#000000; stroke-width:0; stroke-opacity:1; 
stroke-linecap:round; stroke-linejoin:round;">
<circle cx="34200" cy="25900" r="314.961" /> 
</g>
<g style="fill:#000000; fill-opacity:1.0; 
stroke:#000000; stroke-width:39.3701; stroke-opacity:1; 
stroke-linecap:round; stroke-linejoin:round;">
</g>
<g style="fill:#000000; fill-opacity:1.0; 
stroke:#000000; stroke-width:0; stroke-opacity:1; 
stroke-linecap:round; stroke-linejoin:round;">
<circle cx="34200" cy="24900" r="314.961" /> 
</g>
<g style="fill:#000000; fill-opacity:1.0; 
stroke:#000000; stroke-width:39.3701; stroke-opacity:1; 
stroke-linecap:round; stroke-linejoin:round;">
</g>
<g style="fill:#000000; fill-opacity:1.0; 
stroke:#000000; stroke-width:0; stroke-opacity:1; 
stroke-linecap:round; stroke-linejoin:round;">
<circle cx="34200" cy="23900" r="314.961" /> 
</g>
<g style="fill:#000000; fill-opacity:1.0; 
stroke:#000000; stroke-width:39.3701; stroke-opacity:1; 
stroke-linecap:round; stroke-linejoin:round;">
</g>
<g style="fill:#000000; fill-opacity:1.0; 
stroke:#000000; stroke-width:0; stroke-opacity:1; 
stroke-linecap:round; stroke-linejoin:round;">
<path style="fill:#000000; fill-opacity:1.0; 
stroke:#000000; stroke-width:0; stroke-opacity:1; 
stroke-linecap:round; stroke-linejoin:round;fill-rule:evenodd;"
d="M 34515,22585
34515,23215
33885,23215
33885,22585
Z" /> 
<circle cx="42200" cy="26900" r="314.961" /> 
</g>
<g style="fill:#000000; fill-opacity:1.0; 
stroke:#000000; stroke-width:39.3701; stroke-opacity:1; 
stroke-linecap:round; stroke-linejoin:round;">
</g>
<g style="fill:#000000; fill-opacity:1.0; 
stroke:#000000; stroke-width:0; stroke-opacity:1; 
stroke-linecap:round; stroke-linejoin:round;">
<circle cx="42200" cy="27900" r="314.961" /> 
</g>
<g style="fill:#000000; fill-opacity:1.0; 
stroke:#000000; stroke-width:39.3701; stroke-opacity:1; 
stroke-linecap:round; stroke-linejoin:round;">
</g>
<g style="fill:#000000; fill-opacity:1.0; 
stroke:#000000; stroke-width:0; stroke-opacity:1; 
stroke-linecap:round; stroke-linejoin:round;">
<circle cx="42200" cy="28900" r="314.961" /> 
</g>
<g style="fill:#000000; fill-opacity:1.0; 
stroke:#000000; stroke-width:39.3701; stroke-opacity:1; 
stroke-linecap:round; stroke-linejoin:round;">
</g>
<g style="fill:#000000; fill-opacity:1.0; 
stroke:#000000; stroke-width:0; stroke-opacity:1; 
stroke-linecap:round; stroke-linejoin:round;">
<circle cx="42200" cy="29900" r="314.961" /> 
</g>
<g style="fill:#000000; fill-opacity:1.0; 
stroke:#000000; stroke-width:39.3701; stroke-opacity:1; 
stroke-linecap:round; stroke-linejoin:round;">
</g>
<g style="fill:#000000; fill-opacity:1.0; 
stroke:#000000; stroke-width:0; stroke-opacity:1; 
stroke-linecap:round; stroke-linejoin:round;">
<circle cx="42200" cy="30900" r="314.961" /> 
</g>
<g style="fill:#000000; fill-opacity:1.0; 
stroke:#000000; stroke-width:39.3701; stroke-opacity:1; 
stroke-linecap:round; stroke-linejoin:round;">
</g>
<g style="fill:#000000; fill-opacity:1.0; 
stroke:#000000; stroke-width:0; stroke-opacity:1; 
stroke-linecap:round; stroke-linejoin:round;">
<circle cx="42200" cy="31900" r="314.961" /> 
</g>
<g style="fill:#000000; fill-opacity:1.0; 
stroke:#000000; stroke-width:39.3701; stroke-opacity:1; 
stroke-linecap:round; stroke-linejoin:round;">
</g>
<g style="fill:#000000; fill-opacity:1.0; 
stroke:#000000; stroke-width:0; stroke-opacity:1; 
stroke-linecap:round; stroke-linejoin:round;">
<circle cx="42200" cy="32900" r="314.961" /> 
</g>
<g style="fill:#000000; fill-opacity:1.0; 
stroke:#000000; stroke-width:39.3701; stroke-opacity:1; 
stroke-linecap:round; stroke-linejoin:round;">
</g>
<g style="fill:#000000; fill-opacity:1.0; 
stroke:#000000; stroke-width:0; stroke-opacity:1; 
stroke-linecap:round; stroke-linejoin:round;">
<circle cx="42200" cy="33900" r="314.961" /> 
</g>
<g style="fill:#000000; fill-opacity:1.0; 
stroke:#000000; stroke-width:39.3701; stroke-opacity:1; 
stroke-linecap:round; stroke-linejoin:round;">
</g>
<g style="fill:#000000; fill-opacity:1.0; 
stroke:#000000; stroke-width:0; stroke-opacity:1; 
stroke-linecap:round; stroke-linejoin:round;">
<circle cx="42200" cy="34900" r="314.961" /> 
</g>
<g style="fill:#000000; fill-opacity:1.0; 
stroke:#000000; stroke-width:39.3701; stroke-opacity:1; 
stroke-linecap:round; stroke-linejoin:round;">
</g>
<g style="fill:#000000; fill-opacity:1.0; 
stroke:#000000; stroke-width:0; stroke-opacity:1; 
stroke-linecap:round; stroke-linejoin:round;">
<circle cx="42200" cy="35900" r="314.961" /> 
</g>
<g style="fill:#000000; fill-opacity:1.0; 
stroke:#000000; stroke-width:39.3701; stroke-opacity:1; 
stroke-linecap:round; stroke-linejoin:round;">
</g>
<g style="fill:#000000; fill-opacity:1.0; 
stroke:#000000; stroke-width:0; stroke-opacity:1; 
stroke-linecap:round; stroke-linejoin:round;">
<circle cx="42200" cy="36900" r="314.961" /> 
</g>
<g style="fill:#000000; fill-opacity:1.0; 
stroke:#000000; stroke-width:39.3701; stroke-opacity:1; 
stroke-linecap:round; stroke-linejoin:round;">
</g>
<g style="fill:#000000; fill-opacity:1.0; 
stroke:#000000; stroke-width:0; stroke-opacity:1; 
stroke-linecap:round; stroke-linejoin:round;">
<circle cx="42200" cy="37900" r="314.961" /> 
</g>
<g style="fill:#000000; fill-opacity:1.0; 
stroke:#000000; stroke-width:39.3701; stroke-opacity:1; 
stroke-linecap:round; stroke-linejoin:round;">
</g>
<g >
</g>
<g style="fill:#000000; fill-opacity:1.0; 
stroke:#000000; stroke-width:39.3701; stroke-opacity:1; 
stroke-linecap:round; stroke-linejoin:round;">
</g>
<g style="fill:#000000; fill-opacity:1.0; 
stroke:#000000; stroke-width:0; stroke-opacity:1; 
stroke-linecap:round; stroke-linejoin:round;">
<circle cx="45200" cy="37900" r="334.646" /> 
<circle cx="45200" cy="36900" r="334.646" /> 
<circle cx="45200" cy="35900" r="334.646" /> 
<path style="fill:#000000; fill-opacity:1.0; 
stroke:#000000; stroke-width:0; stroke-opacity:1; 
stroke-linecap:round; stroke-linejoin:round;fill-rule:evenodd;"
d="M 44865.4,35234.6
44865.4,34565.4
45534.6,34565.4
45534.6,35234.6
Z" /> 
</g>
<g >
</g>
<g style="fill:#000000; fill-opacity:1.0; 
stroke:#000000; stroke-width:0; stroke-opacity:1; 
stroke-linecap:round; stroke-linejoin:round;">
<circle cx="45158.7" cy="21900" r="334.646" /> 
<circle cx="45158.7" cy="20900" r="334.646" /> 
<circle cx="45158.7" cy="19900" r="334.646" /> 
<path style="fill:#000000; fill-opacity:1.0; 
stroke:#000000; stroke-width:0; stroke-opacity:1; 
stroke-linecap:round; stroke-linejoin:round;fill-rule:evenodd;"
d="M 44824,19234.6
44824,18565.4
45493.3,18565.4
45493.3,19234.6
Z" /> 
</g>
<g >
</g>
<g style="fill:#000000; fill-opacity:1.0; 
stroke:#000000; stroke-width:0; stroke-opacity:1; 
stroke-linecap:round; stroke-linejoin:round;">
<path style="fill:#000000; fill-opacity:1.0; 
stroke:#000000; stroke-width:0; stroke-opacity:1; 
stroke-linecap:round; stroke-linejoin:round;fill-rule:evenodd;"
d="M 44865.4,27234.6
44865.4,26565.4
45534.6,26565.4
45534.6,27234.6
Z" /> 
<circle cx="45200" cy="27900" r="334.646" /> 
<circle cx="45200" cy="28900" r="334.646" /> 
<circle cx="45200" cy="29900" r="334.646" /> 
</g>
<g >
</g>
<g style="fill:#000000; fill-opacity:1.0; 
stroke:#000000; stroke-width:0; stroke-opacity:1; 
stroke-linecap:round; stroke-linejoin:round;">
<path style="fill:#000000; fill-opacity:1.0; 
stroke:#000000; stroke-width:0; stroke-opacity:1; 
stroke-linecap:round; stroke-linejoin:round;fill-rule:evenodd;"
d="M 31534.6,21565.4
31534.6,22234.6
30865.4,22234.6
30865.4,21565.4
Z" /> 
<circle cx="31200" cy="20900" r="334.646" /> 
<circle cx="31200" cy="19900" r="334.646" /> 
<circle cx="31200" cy="18900" r="334.646" /> 
</g>
<g >
</g>
<g style="fill:#000000; fill-opacity:1.0; 
stroke:#000000; stroke-width:0; stroke-opacity:1; 
stroke-linecap:round; stroke-linejoin:round;">
<circle cx="44200" cy="44334.6" r="1181.1" /> 
</g>
<g style="fill:#000000; fill-opacity:1.0; 
stroke:#000000; stroke-width:39.3701; stroke-opacity:1; 
stroke-linecap:round; stroke-linejoin:round;">
</g>
<g style="fill:#000000; fill-opacity:1.0; 
stroke:#000000; stroke-width:0; stroke-opacity:1; 
stroke-linecap:round; stroke-linejoin:round;">
<path style="fill:#000000; fill-opacity:1.0; 
stroke:#000000; stroke-width:0; stroke-opacity:1; 
stroke-linecap:round; stroke-linejoin:round;fill-rule:evenodd;"
d="M 44848.4,40321.7
44905.8,40330.2
44962,40344.3
45016.5,40363.9
45068.9,40388.6
45118.6,40418.4
45165.2,40452.9
45208.1,40491.9
45247.1,40534.8
45281.6,40581.4
45311.4,40631.1
45336.1,40683.5
45355.7,40738
45369.8,40794.2
45378.3,40851.6
45381.1,40909.4
45381.1,42090.6
45378.3,42148.4
45369.8,42205.8
45355.7,42262
45336.1,42316.5
45311.4,42368.9
45281.6,42418.6
45247.1,42465.2
45208.1,42508.1
45165.2,42547.1
45118.6,42581.6
45068.9,42611.4
45016.5,42636.1
44962,42655.7
44905.8,42669.8
44848.4,42678.3
44790.6,42681.1
43609.4,42681.1
43551.6,42678.3
43494.2,42669.8
43438,42655.7
43383.5,42636.1
43331.1,42611.4
43281.4,42581.6
43234.8,42547.1
43191.9,42508.1
43152.9,42465.2
43118.4,42418.6
43088.6,42368.9
43063.9,42316.5
43044.3,42262
43030.2,42205.8
43021.7,42148.4
43018.9,42090.6
43018.9,40909.4
43021.7,40851.6
43030.2,40794.2
43044.3,40738
43063.9,40683.5
43088.6,40631.1
43118.4,40581.4
43152.9,40534.8
43191.9,40491.9
43234.8,40452.9
43281.4,40418.4
43331.1,40388.6
43383.5,40363.9
43438,40344.3
43494.2,40330.2
43551.6,40321.7
43609.4,40318.9
44790.6,40318.9
Z" /> 
</g>
<g >
</g>
<g style="fill:#000000; fill-opacity:1.0; 
stroke:#000000; stroke-width:0; stroke-opacity:1; 
stroke-linecap:round; stroke-linejoin:round;">
<path style="fill:#000000; fill-opacity:1.0; 
stroke:#000000; stroke-width:0; stroke-opacity:1; 
stroke-linecap:round; stroke-linejoin:round;fill-rule:evenodd;"
d="M 33534.6,41604.7
32865.4,41604.7
32865.4,40620.5
33534.6,40620.5
Z" /> 
<path style="fill:#000000; fill-opacity:1.0; 
stroke:#000000; stroke-width:0; stroke-opacity:1; 
stroke-linecap:round; stroke-linejoin:round;fill-rule:evenodd;"
d="M 33534.6,43179.5
32865.4,43179.5
32865.4,42195.3
33534.6,42195.3
Z" /> 
</g>
<g >
</g>
<g style="fill:#000000; fill-opacity:1.0; 
stroke:#000000; stroke-width:0; stroke-opacity:1; 
stroke-linecap:round; stroke-linejoin:round;">
<circle cx="31700" cy="15400" r="1259.84" /> 
</g>
<g style="fill:#000000; fill-opacity:1.0; 
stroke:#000000; stroke-width:39.3701; stroke-opacity:1; 
stroke-linecap:round; stroke-linejoin:round;">
</g>
<g style="fill:#000000; fill-opacity:1.0; 
stroke:#000000; stroke-width:0; stroke-opacity:1; 
stroke-linecap:round; stroke-linejoin:round;">
<circle cx="32644.9" cy="15400" r="157.48" /> 
</g>
<g style="fill:#000000; fill-opacity:1.0; 
stroke:#000000; stroke-width:39.3701; stroke-opacity:1; 
stroke-linecap:round; stroke-linejoin:round;">
</g>
<g style="fill:#000000; fill-opacity:1.0; 
stroke:#000000; stroke-width:0; stroke-opacity:1; 
stroke-linecap:round; stroke-linejoin:round;">
<circle cx="32368.1" cy="16068.1" r="157.48" /> 
</g>
<g style="fill:#000000; fill-opacity:1.0; 
stroke:#000000; stroke-width:39.3701; stroke-opacity:1; 
stroke-linecap:round; stroke-linejoin:round;">
</g>
<g style="fill:#000000; fill-opacity:1.0; 
stroke:#000000; stroke-width:0; stroke-opacity:1; 
stroke-linecap:round; stroke-linejoin:round;">
<circle cx="31700" cy="16344.9" r="157.48" /> 
</g>
<g style="fill:#000000; fill-opacity:1.0; 
stroke:#000000; stroke-width:39.3701; stroke-opacity:1; 
stroke-linecap:round; stroke-linejoin:round;">
</g>
<g style="fill:#000000; fill-opacity:1.0; 
stroke:#000000; stroke-width:0; stroke-opacity:1; 
stroke-linecap:round; stroke-linejoin:round;">
<circle cx="31031.9" cy="16068.1" r="157.48" /> 
</g>
<g style="fill:#000000; fill-opacity:1.0; 
stroke:#000000; stroke-width:39.3701; stroke-opacity:1; 
stroke-linecap:round; stroke-linejoin:round;">
</g>
<g style="fill:#000000; fill-opacity:1.0; 
stroke:#000000; stroke-width:0; stroke-opacity:1; 
stroke-linecap:round; stroke-linejoin:round;">
<circle cx="30755.1" cy="15400" r="157.48" /> 
</g>
<g style="fill:#000000; fill-opacity:1.0; 
stroke:#000000; stroke-width:39.3701; stroke-opacity:1; 
stroke-linecap:round; stroke-linejoin:round;">
</g>
<g style="fill:#000000; fill-opacity:1.0; 
stroke:#000000; stroke-width:0; stroke-opacity:1; 
stroke-linecap:round; stroke-linejoin:round;">
<circle cx="31031.9" cy="14731.9" r="157.48" /> 
</g>
<g style="fill:#000000; fill-opacity:1.0; 
stroke:#000000; stroke-width:39.3701; stroke-opacity:1; 
stroke-linecap:round; stroke-linejoin:round;">
</g>
<g style="fill:#000000; fill-opacity:1.0; 
stroke:#000000; stroke-width:0; stroke-opacity:1; 
stroke-linecap:round; stroke-linejoin:round;">
<circle cx="31700" cy="14455.1" r="157.48" /> 
</g>
<g style="fill:#000000; fill-opacity:1.0; 
stroke:#000000; stroke-width:39.3701; stroke-opacity:1; 
stroke-linecap:round; stroke-linejoin:round;">
</g>
<g style="fill:#000000; fill-opacity:1.0; 
stroke:#000000; stroke-width:0; stroke-opacity:1; 
stroke-linecap:round; stroke-linejoin:round;">
<circle cx="32368.1" cy="14731.9" r="157.48" /> 
</g>
<g style="fill:#000000; fill-opacity:1.0; 
stroke:#000000; stroke-width:39.3701; stroke-opacity:1; 
stroke-linecap:round; stroke-linejoin:round;">
</g>
<g >
</g>
<g style="fill:#000000; fill-opacity:1.0; 
stroke:#000000; stroke-width:39.3701; stroke-opacity:1; 
stroke-linecap:round; stroke-linejoin:round;">
</g>
<g style="fill:#000000; fill-opacity:1.0; 
stroke:#000000; stroke-width:0; stroke-opacity:1; 
stroke-linecap:round; stroke-linejoin:round;">
<circle cx="45368.1" cy="14731.9" r="157.48" /> 
</g>
<g style="fill:#000000; fill-opacity:1.0; 
stroke:#000000; stroke-width:39.3701; stroke-opacity:1; 
stroke-linecap:round; stroke-linejoin:round;">
</g>
<g style="fill:#000000; fill-opacity:1.0; 
stroke:#000000; stroke-width:0; stroke-opacity:1; 
stroke-linecap:round; stroke-linejoin:round;">
<circle cx="44700" cy="14455.1" r="157.48" /> 
</g>
<g style="fill:#000000; fill-opacity:1.0; 
stroke:#000000; stroke-width:39.3701; stroke-opacity:1; 
stroke-linecap:round; stroke-linejoin:round;">
</g>
<g style="fill:#000000; fill-opacity:1.0; 
stroke:#000000; stroke-width:0; stroke-opacity:1; 
stroke-linecap:round; stroke-linejoin:round;">
<circle cx="44031.9" cy="14731.9" r="157.48" /> 
</g>
<g style="fill:#000000; fill-opacity:1.0; 
stroke:#000000; stroke-width:39.3701; stroke-opacity:1; 
stroke-linecap:round; stroke-linejoin:round;">
</g>
<g style="fill:#000000; fill-opacity:1.0; 
stroke:#000000; stroke-width:0; stroke-opacity:1; 
stroke-linecap:round; stroke-linejoin:round;">
<circle cx="43755.1" cy="15400" r="157.48" /> 
</g>
<g style="fill:#000000; fill-opacity:1.0; 
stroke:#000000; stroke-width:39.3701; stroke-opacity:1; 
stroke-linecap:round; stroke-linejoin:round;">
</g>
<g style="fill:#000000; fill-opacity:1.0; 
stroke:#000000; stroke-width:0; stroke-opacity:1; 
stroke-linecap:round; stroke-linejoin:round;">
<circle cx="44031.9" cy="16068.1" r="157.48" /> 
</g>
<g style="fill:#000000; fill-opacity:1.0; 
stroke:#000000; stroke-width:39.3701; stroke-opacity:1; 
stroke-linecap:round; stroke-linejoin:round;">
</g>
<g style="fill:#000000; fill-opacity:1.0; 
stroke:#000000; stroke-width:0; stroke-opacity:1; 
stroke-linecap:round; stroke-linejoin:round;">
<circle cx="44700" cy="16344.9" r="157.48" /> 
</g>
<g style="fill:#000000; fill-opacity:1.0; 
stroke:#000000; stroke-width:39.3701; stroke-opacity:1; 
stroke-linecap:round; stroke-linejoin:round;">
</g>
<g style="fill:#000000; fill-opacity:1.0; 
stroke:#000000; stroke-width:0; stroke-opacity:1; 
stroke-linecap:round; stroke-linejoin:round;">
<circle cx="45368.1" cy="16068.1" r="157.48" /> 
</g>
<g style="fill:#000000; fill-opacity:1.0; 
stroke:#000000; stroke-width:39.3701; stroke-opacity:1; 
stroke-linecap:round; stroke-linejoin:round;">
</g>
<g style="fill:#000000; fill-opacity:1.0; 
stroke:#000000; stroke-width:0; stroke-opacity:1; 
stroke-linecap:round; stroke-linejoin:round;">
<circle cx="45644.9" cy="15400" r="157.48" /> 
</g>
<g style="fill:#000000; fill-opacity:1.0; 
stroke:#000000; stroke-width:39.3701; stroke-opacity:1; 
stroke-linecap:round; stroke-linejoin:round;">
</g>
<g style="fill:#000000; fill-opacity:1.0; 
stroke:#000000; stroke-width:0; stroke-opacity:1; 
stroke-linecap:round; stroke-linejoin:round;">
<circle cx="44700" cy="15400" r="1259.84" /> 
</g>
<g style="fill:#000000; fill-opacity:1.0; 
stroke:#000000; stroke-width:39.3701; stroke-opacity:1; 
stroke-linecap:round; stroke-linejoin:round;">
</g>
<g >
</g>
<g style="fill:#000000; fill-opacity:1.0; 
stroke:#000000; stroke-width:39.3701; stroke-opacity:1; 
stroke-linecap:round; stroke-linejoin:round;">
</g>
<g style="fill:#000000; fill-opacity:1.0; 
stroke:#000000; stroke-width:0; stroke-opacity:1; 
stroke-linecap:round; stroke-linejoin:round;">
<circle cx="45368.1" cy="47231.9" r="157.48" /> 
</g>
<g style="fill:#000000; fill-opacity:1.0; 
stroke:#000000; stroke-width:39.3701; stroke-opacity:1; 
stroke-linecap:round; stroke-linejoin:round;">
</g>
<g style="fill:#000000; fill-opacity:1.0; 
stroke:#000000; stroke-width:0; stroke-opacity:1; 
stroke-linecap:round; stroke-linejoin:round;">
<circle cx="44700" cy="46955.1" r="157.48" /> 
</g>
<g style="fill:#000000; fill-opacity:1.0; 
stroke:#000000; stroke-width:39.3701; stroke-opacity:1; 
stroke-linecap:round; stroke-linejoin:round;">
</g>
<g style="fill:#000000; fill-opacity:1.0; 
stroke:#000000; stroke-width:0; stroke-opacity:1; 
stroke-linecap:round; stroke-linejoin:round;">
<circle cx="44031.9" cy="47231.9" r="157.48" /> 
</g>
<g style="fill:#000000; fill-opacity:1.0; 
stroke:#000000; stroke-width:39.3701; stroke-opacity:1; 
stroke-linecap:round; stroke-linejoin:round;">
</g>
<g style="fill:#000000; fill-opacity:1.0; 
stroke:#000000; stroke-width:0; stroke-opacity:1; 
stroke-linecap:round; stroke-linejoin:round;">
<circle cx="43755.1" cy="47900" r="157.48" /> 
</g>
<g style="fill:#000000; fill-opacity:1.0; 
stroke:#000000; stroke-width:39.3701; stroke-opacity:1; 
stroke-linecap:round; stroke-linejoin:round;">
</g>
<g style="fill:#000000; fill-opacity:1.0; 
stroke:#000000; stroke-width:0; stroke-opacity:1; 
stroke-linecap:round; stroke-linejoin:round;">
<circle cx="44031.9" cy="48568.1" r="157.48" /> 
</g>
<g style="fill:#000000; fill-opacity:1.0; 
stroke:#000000; stroke-width:39.3701; stroke-opacity:1; 
stroke-linecap:round; stroke-linejoin:round;">
</g>
<g style="fill:#000000; fill-opacity:1.0; 
stroke:#000000; stroke-width:0; stroke-opacity:1; 
stroke-linecap:round; stroke-linejoin:round;">
<circle cx="44700" cy="48844.9" r="157.48" /> 
</g>
<g style="fill:#000000; fill-opacity:1.0; 
stroke:#000000; stroke-width:39.3701; stroke-opacity:1; 
stroke-linecap:round; stroke-linejoin:round;">
</g>
<g style="fill:#000000; fill-opacity:1.0; 
stroke:#000000; stroke-width:0; stroke-opacity:1; 
stroke-linecap:round; stroke-linejoin:round;">
<circle cx="45368.1" cy="48568.1" r="157.48" /> 
</g>
<g style="fill:#000000; fill-opacity:1.0; 
stroke:#000000; stroke-width:39.3701; stroke-opacity:1; 
stroke-linecap:round; stroke-linejoin:round;">
</g>
<g style="fill:#000000; fill-opacity:1.0; 
stroke:#000000; stroke-width:0; stroke-opacity:1; 
stroke-linecap:round; stroke-linejoin:round;">
<circle cx="45644.9" cy="47900" r="157.48" /> 
</g>
<g style="fill:#000000; fill-opacity:1.0; 
stroke:#000000; stroke-width:39.3701; stroke-opacity:1; 
stroke-linecap:round; stroke-linejoin:round;">
</g>
<g style="fill:#000000; fill-opacity:1.0; 
stroke:#000000; stroke-width:0; stroke-opacity:1; 
stroke-linecap:round; stroke-linejoin:round;">
<circle cx="44700" cy="47900" r="1259.84" /> 
</g>
<g style="fill:#000000; fill-opacity:1.0; 
stroke:#000000; stroke-width:39.3701; stroke-opacity:1; 
stroke-linecap:round; stroke-linejoin:round;">
</g>
<g >
</g>
<g style="fill:#000000; fill-opacity:1.0; 
stroke:#000000; stroke-width:39.3701; stroke-opacity:1; 
stroke-linecap:round; stroke-linejoin:round;">
</g>
<g style="fill:#000000; fill-opacity:1.0; 
stroke:#000000; stroke-width:0; stroke-opacity:1; 
stroke-linecap:round; stroke-linejoin:round;">
<circle cx="31700" cy="47900" r="1259.84" /> 
</g>
<g style="fill:#000000; fill-opacity:1.0; 
stroke:#000000; stroke-width:39.3701; stroke-opacity:1; 
stroke-linecap:round; stroke-linejoin:round;">
</g>
<g style="fill:#000000; fill-opacity:1.0; 
stroke:#000000; stroke-width:0; stroke-opacity:1; 
stroke-linecap:round; stroke-linejoin:round;">
<circle cx="32644.9" cy="47900" r="157.48" /> 
</g>
<g style="fill:#000000; fill-opacity:1.0; 
stroke:#000000; stroke-width:39.3701; stroke-opacity:1; 
stroke-linecap:round; stroke-linejoin:round;">
</g>
<g style="fill:#000000; fill-opacity:1.0; 
stroke:#000000; stroke-width:0; stroke-opacity:1; 
stroke-linecap:round; stroke-linejoin:round;">
<circle cx="32368.1" cy="48568.1" r="157.48" /> 
</g>
<g style="fill:#000000; fill-opacity:1.0; 
stroke:#000000; stroke-width:39.3701; stroke-opacity:1; 
stroke-linecap:round; stroke-linejoin:round;">
</g>
<g style="fill:#000000; fill-opacity:1.0; 
stroke:#000000; stroke-width:0; stroke-opacity:1; 
stroke-linecap:round; stroke-linejoin:round;">
<circle cx="31700" cy="48844.9" r="157.48" /> 
</g>
<g style="fill:#000000; fill-opacity:1.0; 
stroke:#000000; stroke-width:39.3701; stroke-opacity:1; 
stroke-linecap:round; stroke-linejoin:round;">
</g>
<g style="fill:#000000; fill-opacity:1.0; 
stroke:#000000; stroke-width:0; stroke-opacity:1; 
stroke-linecap:round; stroke-linejoin:round;">
<circle cx="31031.9" cy="48568.1" r="157.48" /> 
</g>
<g style="fill:#000000; fill-opacity:1.0; 
stroke:#000000; stroke-width:39.3701; stroke-opacity:1; 
stroke-linecap:round; stroke-linejoin:round;">
</g>
<g style="fill:#000000; fill-opacity:1.0; 
stroke:#000000; stroke-width:0; stroke-opacity:1; 
stroke-linecap:round; stroke-linejoin:round;">
<circle cx="30755.1" cy="47900" r="157.48" /> 
</g>
<g style="fill:#000000; fill-opacity:1.0; 
stroke:#000000; stroke-width:39.3701; stroke-opacity:1; 
stroke-linecap:round; stroke-linejoin:round;">
</g>
<g style="fill:#000000; fill-opacity:1.0; 
stroke:#000000; stroke-width:0; stroke-opacity:1; 
stroke-linecap:round; stroke-linejoin:round;">
<circle cx="31031.9" cy="47231.9" r="157.48" /> 
</g>
<g style="fill:#000000; fill-opacity:1.0; 
stroke:#000000; stroke-width:39.3701; stroke-opacity:1; 
stroke-linecap:round; stroke-linejoin:round;">
</g>
<g style="fill:#000000; fill-opacity:1.0; 
stroke:#000000; stroke-width:0; stroke-opacity:1; 
stroke-linecap:round; stroke-linejoin:round;">
<circle cx="31700" cy="46955.1" r="157.48" /> 
</g>
<g style="fill:#000000; fill-opacity:1.0; 
stroke:#000000; stroke-width:39.3701; stroke-opacity:1; 
stroke-linecap:round; stroke-linejoin:round;">
</g>
<g style="fill:#000000; fill-opacity:1.0; 
stroke:#000000; stroke-width:0; stroke-opacity:1; 
stroke-linecap:round; stroke-linejoin:round;">
<circle cx="32368.1" cy="47231.9" r="157.48" /> 
</g>
<g style="fill:#000000; fill-opacity:1.0; 
stroke:#000000; stroke-width:39.3701; stroke-opacity:1; 
stroke-linecap:round; stroke-linejoin:round;">
</g>
<g >
</g>
<g style="fill:#000000; fill-opacity:1.0; 
stroke:#000000; stroke-width:39.3701; stroke-opacity:1; 
stroke-linecap:round; stroke-linejoin:round;">
</g>
<g style="fill:#000000; fill-opacity:1.0; 
stroke:#000000; stroke-width:0; stroke-opacity:1; 
stroke-linecap:round; stroke-linejoin:round;">
<path style="fill:#000000; fill-opacity:1.0; 
stroke:#000000; stroke-width:0; stroke-opacity:1; 
stroke-linecap:round; stroke-linejoin:round;fill-rule:evenodd;"
d="M 42593.7,17006.3
42593.7,17793.7
41806.3,17793.7
41806.3,17006.3
Z" /> 
<circle cx="39207.9" cy="17400" r="393.701" /> 
</g>
<g style="fill:#000000; fill-opacity:1.0; 
stroke:#000000; stroke-width:39.3701; stroke-opacity:1; 
stroke-linecap:round; stroke-linejoin:round;">
</g>
<g >
</g>
<g style="fill:#000000; fill-opacity:1.0; 
stroke:#000000; stroke-width:39.3701; stroke-opacity:1; 
stroke-linecap:round; stroke-linejoin:round;">
</g>
<g style="fill:#000000; fill-opacity:1.0; 
stroke:#000000; stroke-width:0; stroke-opacity:1; 
stroke-linecap:round; stroke-linejoin:round;">
<path style="fill:#000000; fill-opacity:1.0; 
stroke:#000000; stroke-width:0; stroke-opacity:1; 
stroke-linecap:round; stroke-linejoin:round;fill-rule:evenodd;"
d="M 35455.7,15103.2
35465.3,15104.6
35474.6,15107
35483.7,15110.2
35492.5,15114.4
35500.7,15119.3
35508.5,15125.1
35515.7,15131.6
35522.1,15138.7
35527.9,15146.5
35532.9,15154.8
35537,15163.5
35540.2,15172.6
35542.6,15182
35544,15191.5
35544.5,15201.2
35544.5,15447.2
35544,15456.9
35542.6,15466.4
35540.2,15475.8
35537,15484.9
35532.9,15493.6
35527.9,15501.9
35522.1,15509.7
35515.7,15516.8
35508.5,15523.3
35500.7,15529.1
35492.5,15534
35483.7,15538.2
35474.6,15541.4
35465.3,15543.8
35455.7,15545.2
35446.1,15545.7
34953.9,15545.7
34944.3,15545.2
34934.7,15543.8
34925.4,15541.4
34916.3,15538.2
34907.5,15534
34899.3,15529.1
34891.5,15523.3
34884.3,15516.8
34877.9,15509.7
34872.1,15501.9
34867.1,15493.6
34863,15484.9
34859.8,15475.8
34857.4,15466.4
34856,15456.9
34855.5,15447.2
34855.5,15201.2
34856,15191.5
34857.4,15182
34859.8,15172.6
34863,15163.5
34867.1,15154.8
34872.1,15146.5
34877.9,15138.7
34884.3,15131.6
34891.5,15125.1
34899.3,15119.3
34907.5,15114.4
34916.3,15110.2
34925.4,15107
34934.7,15104.6
34944.3,15103.2
34953.9,15102.8
35446.1,15102.8
Z" /> 
<path style="fill:#000000; fill-opacity:1.0; 
stroke:#000000; stroke-width:0; stroke-opacity:1; 
stroke-linecap:round; stroke-linejoin:round;fill-rule:evenodd;"
d="M 35455.7,16254.8
35465.3,16256.2
35474.6,16258.6
35483.7,16261.8
35492.5,16266
35500.7,16270.9
35508.5,16276.7
35515.7,16283.2
35522.1,16290.3
35527.9,16298.1
35532.9,16306.4
35537,16315.1
35540.2,16324.2
35542.6,16333.6
35544,16343.1
35544.5,16352.8
35544.5,16598.8
35544,16608.5
35542.6,16618
35540.2,16627.4
35537,16636.5
35532.9,16645.2
35527.9,16653.5
35522.1,16661.3
35515.7,16668.4
35508.5,16674.9
35500.7,16680.7
35492.5,16685.6
35483.7,16689.8
35474.6,16693
35465.3,16695.4
35455.7,16696.8
35446.1,16697.2
34953.9,16697.2
34944.3,16696.8
34934.7,16695.4
34925.4,16693
34916.3,16689.8
34907.5,16685.6
34899.3,16680.7
34891.5,16674.9
34884.3,16668.4
34877.9,16661.3
34872.1,16653.5
34867.1,16645.2
34863,16636.5
34859.8,16627.4
34857.4,16618
34856,16608.5
34855.5,16598.8
34855.5,16352.8
34856,16343.1
34857.4,16333.6
34859.8,16324.2
34863,16315.1
34867.1,16306.4
34872.1,16298.1
34877.9,16290.3
34884.3,16283.2
34891.5,16276.7
34899.3,16270.9
34907.5,16266
34916.3,16261.8
34925.4,16258.6
34934.7,16256.2
34944.3,16254.8
34953.9,16254.3
35446.1,16254.3
Z" /> 
</g>
<g >
</g>
<g style="fill:#000000; fill-opacity:1.0; 
stroke:#000000; stroke-width:0; stroke-opacity:1; 
stroke-linecap:round; stroke-linejoin:round;">
<path style="fill:#000000; fill-opacity:1.0; 
stroke:#000000; stroke-width:0; stroke-opacity:1; 
stroke-linecap:round; stroke-linejoin:round;fill-rule:evenodd;"
d="M 36955.7,16254.8
36965.3,16256.2
36974.6,16258.6
36983.7,16261.8
36992.5,16266
37000.7,16270.9
37008.5,16276.7
37015.7,16283.2
37022.1,16290.3
37027.9,16298.1
37032.9,16306.4
37037,16315.1
37040.2,16324.2
37042.6,16333.6
37044,16343.1
37044.5,16352.8
37044.5,16598.8
37044,16608.5
37042.6,16618
37040.2,16627.4
37037,16636.5
37032.9,16645.2
37027.9,16653.5
37022.1,16661.3
37015.7,16668.4
37008.5,16674.9
37000.7,16680.7
36992.5,16685.6
36983.7,16689.8
36974.6,16693
36965.3,16695.4
36955.7,16696.8
36946.1,16697.2
36453.9,16697.2
36444.3,16696.8
36434.7,16695.4
36425.4,16693
36416.3,16689.8
36407.5,16685.6
36399.3,16680.7
36391.5,16674.9
36384.3,16668.4
36377.9,16661.3
36372.1,16653.5
36367.1,16645.2
36363,16636.5
36359.8,16627.4
36357.4,16618
36356,16608.5
36355.5,16598.8
36355.5,16352.8
36356,16343.1
36357.4,16333.6
36359.8,16324.2
36363,16315.1
36367.1,16306.4
36372.1,16298.1
36377.9,16290.3
36384.3,16283.2
36391.5,16276.7
36399.3,16270.9
36407.5,16266
36416.3,16261.8
36425.4,16258.6
36434.7,16256.2
36444.3,16254.8
36453.9,16254.3
36946.1,16254.3
Z" /> 
<path style="fill:#000000; fill-opacity:1.0; 
stroke:#000000; stroke-width:0; stroke-opacity:1; 
stroke-linecap:round; stroke-linejoin:round;fill-rule:evenodd;"
d="M 36955.7,15103.2
36965.3,15104.6
36974.6,15107
36983.7,15110.2
36992.5,15114.4
37000.7,15119.3
37008.5,15125.1
37015.7,15131.6
37022.1,15138.7
37027.9,15146.5
37032.9,15154.8
37037,15163.5
37040.2,15172.6
37042.6,15182
37044,15191.5
37044.5,15201.2
37044.5,15447.2
37044,15456.9
37042.6,15466.4
37040.2,15475.8
37037,15484.9
37032.9,15493.6
37027.9,15501.9
37022.1,15509.7
37015.7,15516.8
37008.5,15523.3
37000.7,15529.1
36992.5,15534
36983.7,15538.2
36974.6,15541.4
36965.3,15543.8
36955.7,15545.2
36946.1,15545.7
36453.9,15545.7
36444.3,15545.2
36434.7,15543.8
36425.4,15541.4
36416.3,15538.2
36407.5,15534
36399.3,15529.1
36391.5,15523.3
36384.3,15516.8
36377.9,15509.7
36372.1,15501.9
36367.1,15493.6
36363,15484.9
36359.8,15475.8
36357.4,15466.4
36356,15456.9
36355.5,15447.2
36355.5,15201.2
36356,15191.5
36357.4,15182
36359.8,15172.6
36363,15163.5
36367.1,15154.8
36372.1,15146.5
36377.9,15138.7
36384.3,15131.6
36391.5,15125.1
36399.3,15119.3
36407.5,15114.4
36416.3,15110.2
36425.4,15107
36434.7,15104.6
36444.3,15103.2
36453.9,15102.8
36946.1,15102.8
Z" /> 
</g>
<g >
</g>
<g style="fill:#000000; fill-opacity:1.0; 
stroke:#000000; stroke-width:0; stroke-opacity:1; 
stroke-linecap:round; stroke-linejoin:round;">
<path style="fill:#000000; fill-opacity:1.0; 
stroke:#000000; stroke-width:0; stroke-opacity:1; 
stroke-linecap:round; stroke-linejoin:round;fill-rule:evenodd;"
d="M 35455.7,17103.2
35465.3,17104.6
35474.6,17107
35483.7,17110.2
35492.5,17114.4
35500.7,17119.3
35508.5,17125.1
35515.7,17131.6
35522.1,17138.7
35527.9,17146.5
35532.9,17154.8
35537,17163.5
35540.2,17172.6
35542.6,17182
35544,17191.5
35544.5,17201.2
35544.5,17496.5
35544,17506.1
35542.6,17515.7
35540.2,17525
35537,17534.1
35532.9,17542.9
35527.9,17551.1
35522.1,17558.9
35515.7,17566.1
35508.5,17572.5
35500.7,17578.3
35492.5,17583.3
35483.7,17587.4
35474.6,17590.6
35465.3,17593
35455.7,17594.4
35446.1,17594.9
34953.9,17594.9
34944.3,17594.4
34934.7,17593
34925.4,17590.6
34916.3,17587.4
34907.5,17583.3
34899.3,17578.3
34891.5,17572.5
34884.3,17566.1
34877.9,17558.9
34872.1,17551.1
34867.1,17542.9
34863,17534.1
34859.8,17525
34857.4,17515.7
34856,17506.1
34855.5,17496.5
34855.5,17201.2
34856,17191.5
34857.4,17182
34859.8,17172.6
34863,17163.5
34867.1,17154.8
34872.1,17146.5
34877.9,17138.7
34884.3,17131.6
34891.5,17125.1
34899.3,17119.3
34907.5,17114.4
34916.3,17110.2
34925.4,17107
34934.7,17104.6
34944.3,17103.2
34953.9,17102.8
35446.1,17102.8
Z" /> 
<path style="fill:#000000; fill-opacity:1.0; 
stroke:#000000; stroke-width:0; stroke-opacity:1; 
stroke-linecap:round; stroke-linejoin:round;fill-rule:evenodd;"
d="M 35455.7,18205.6
35465.3,18207
35474.6,18209.4
35483.7,18212.6
35492.5,18216.7
35500.7,18221.7
35508.5,18227.5
35515.7,18233.9
35522.1,18241.1
35527.9,18248.9
35532.9,18257.1
35537,18265.9
35540.2,18275
35542.6,18284.3
35544,18293.9
35544.5,18303.5
35544.5,18598.8
35544,18608.5
35542.6,18618
35540.2,18627.4
35537,18636.5
35532.9,18645.2
35527.9,18653.5
35522.1,18661.3
35515.7,18668.4
35508.5,18674.9
35500.7,18680.7
35492.5,18685.6
35483.7,18689.8
35474.6,18693
35465.3,18695.4
35455.7,18696.8
35446.1,18697.2
34953.9,18697.2
34944.3,18696.8
34934.7,18695.4
34925.4,18693
34916.3,18689.8
34907.5,18685.6
34899.3,18680.7
34891.5,18674.9
34884.3,18668.4
34877.9,18661.3
34872.1,18653.5
34867.1,18645.2
34863,18636.5
34859.8,18627.4
34857.4,18618
34856,18608.5
34855.5,18598.8
34855.5,18303.5
34856,18293.9
34857.4,18284.3
34859.8,18275
34863,18265.9
34867.1,18257.1
34872.1,18248.9
34877.9,18241.1
34884.3,18233.9
34891.5,18227.5
34899.3,18221.7
34907.5,18216.7
34916.3,18212.6
34925.4,18209.4
34934.7,18207
34944.3,18205.6
34953.9,18205.1
35446.1,18205.1
Z" /> 
</g>
<g >
</g>
<g style="fill:#000000; fill-opacity:1.0; 
stroke:#000000; stroke-width:0; stroke-opacity:1; 
stroke-linecap:round; stroke-linejoin:round;">
<path style="fill:#000000; fill-opacity:1.0; 
stroke:#000000; stroke-width:0; stroke-opacity:1; 
stroke-linecap:round; stroke-linejoin:round;fill-rule:evenodd;"
d="M 31705.7,40205.6
31715.3,40207
31724.6,40209.4
31733.7,40212.6
31742.5,40216.7
31750.7,40221.7
31758.5,40227.5
31765.7,40233.9
31772.1,40241.1
31777.9,40248.9
31782.9,40257.1
31787,40265.9
31790.2,40275
31792.6,40284.3
31794,40293.9
31794.5,40303.5
31794.5,40598.8
31794,40608.5
31792.6,40618
31790.2,40627.4
31787,40636.5
31782.9,40645.2
31777.9,40653.5
31772.1,40661.3
31765.7,40668.4
31758.5,40674.9
31750.7,40680.7
31742.5,40685.6
31733.7,40689.8
31724.6,40693
31715.3,40695.4
31705.7,40696.8
31696.1,40697.2
31203.9,40697.2
31194.3,40696.8
31184.7,40695.4
31175.4,40693
31166.3,40689.8
31157.5,40685.6
31149.3,40680.7
31141.5,40674.9
31134.3,40668.4
31127.9,40661.3
31122.1,40653.5
31117.1,40645.2
31113,40636.5
31109.8,40627.4
31107.4,40618
31106,40608.5
31105.5,40598.8
31105.5,40303.5
31106,40293.9
31107.4,40284.3
31109.8,40275
31113,40265.9
31117.1,40257.1
31122.1,40248.9
31127.9,40241.1
31134.3,40233.9
31141.5,40227.5
31149.3,40221.7
31157.5,40216.7
31166.3,40212.6
31175.4,40209.4
31184.7,40207
31194.3,40205.6
31203.9,40205.1
31696.1,40205.1
Z" /> 
<path style="fill:#000000; fill-opacity:1.0; 
stroke:#000000; stroke-width:0; stroke-opacity:1; 
stroke-linecap:round; stroke-linejoin:round;fill-rule:evenodd;"
d="M 31705.7,39103.2
31715.3,39104.6
31724.6,39107
31733.7,39110.2
31742.5,39114.4
31750.7,39119.3
31758.5,39125.1
31765.7,39131.6
31772.1,39138.7
31777.9,39146.5
31782.9,39154.8
31787,39163.5
31790.2,39172.6
31792.6,39182
31794,39191.5
31794.5,39201.2
31794.5,39496.5
31794,39506.1
31792.6,39515.7
31790.2,39525
31787,39534.1
31782.9,39542.9
31777.9,39551.1
31772.1,39558.9
31765.7,39566.1
31758.5,39572.5
31750.7,39578.3
31742.5,39583.3
31733.7,39587.4
31724.6,39590.6
31715.3,39593
31705.7,39594.4
31696.1,39594.9
31203.9,39594.9
31194.3,39594.4
31184.7,39593
31175.4,39590.6
31166.3,39587.4
31157.5,39583.3
31149.3,39578.3
31141.5,39572.5
31134.3,39566.1
31127.9,39558.9
31122.1,39551.1
31117.1,39542.9
31113,39534.1
31109.8,39525
31107.4,39515.7
31106,39506.1
31105.5,39496.5
31105.5,39201.2
31106,39191.5
31107.4,39182
31109.8,39172.6
31113,39163.5
31117.1,39154.8
31122.1,39146.5
31127.9,39138.7
31134.3,39131.6
31141.5,39125.1
31149.3,39119.3
31157.5,39114.4
31166.3,39110.2
31175.4,39107
31184.7,39104.6
31194.3,39103.2
31203.9,39102.8
31696.1,39102.8
Z" /> 
</g>
<g >
</g>
<g style="fill:#000000; fill-opacity:1.0; 
stroke:#000000; stroke-width:0; stroke-opacity:1; 
stroke-linecap:round; stroke-linejoin:round;">
<path style="fill:#000000; fill-opacity:1.0; 
stroke:#000000; stroke-width:0; stroke-opacity:1; 
stroke-linecap:round; stroke-linejoin:round;fill-rule:evenodd;"
d="M 36955.7,17103.2
36965.3,17104.6
36974.6,17107
36983.7,17110.2
36992.5,17114.4
37000.7,17119.3
37008.5,17125.1
37015.7,17131.6
37022.1,17138.7
37027.9,17146.5
37032.9,17154.8
37037,17163.5
37040.2,17172.6
37042.6,17182
37044,17191.5
37044.5,17201.2
37044.5,17496.5
37044,17506.1
37042.6,17515.7
37040.2,17525
37037,17534.1
37032.9,17542.9
37027.9,17551.1
37022.1,17558.9
37015.7,17566.1
37008.5,17572.5
37000.7,17578.3
36992.5,17583.3
36983.7,17587.4
36974.6,17590.6
36965.3,17593
36955.7,17594.4
36946.1,17594.9
36453.9,17594.9
36444.3,17594.4
36434.7,17593
36425.4,17590.6
36416.3,17587.4
36407.5,17583.3
36399.3,17578.3
36391.5,17572.5
36384.3,17566.1
36377.9,17558.9
36372.1,17551.1
36367.1,17542.9
36363,17534.1
36359.8,17525
36357.4,17515.7
36356,17506.1
36355.5,17496.5
36355.5,17201.2
36356,17191.5
36357.4,17182
36359.8,17172.6
36363,17163.5
36367.1,17154.8
36372.1,17146.5
36377.9,17138.7
36384.3,17131.6
36391.5,17125.1
36399.3,17119.3
36407.5,17114.4
36416.3,17110.2
36425.4,17107
36434.7,17104.6
36444.3,17103.2
36453.9,17102.8
36946.1,17102.8
Z" /> 
<path style="fill:#000000; fill-opacity:1.0; 
stroke:#000000; stroke-width:0; stroke-opacity:1; 
stroke-linecap:round; stroke-linejoin:round;fill-rule:evenodd;"
d="M 36955.7,18205.6
36965.3,18207
36974.6,18209.4
36983.7,18212.6
36992.5,18216.7
37000.7,18221.7
37008.5,18227.5
37015.7,18233.9
37022.1,18241.1
37027.9,18248.9
37032.9,18257.1
37037,18265.9
37040.2,18275
37042.6,18284.3
37044,18293.9
37044.5,18303.5
37044.5,18598.8
37044,18608.5
37042.6,18618
37040.2,18627.4
37037,18636.5
37032.9,18645.2
37027.9,18653.5
37022.1,18661.3
37015.7,18668.4
37008.5,18674.9
37000.7,18680.7
36992.5,18685.6
36983.7,18689.8
36974.6,18693
36965.3,18695.4
36955.7,18696.8
36946.1,18697.2
36453.9,18697.2
36444.3,18696.8
36434.7,18695.4
36425.4,18693
36416.3,18689.8
36407.5,18685.6
36399.3,18680.7
36391.5,18674.9
36384.3,18668.4
36377.9,18661.3
36372.1,18653.5
36367.1,18645.2
36363,18636.5
36359.8,18627.4
36357.4,18618
36356,18608.5
36355.5,18598.8
36355.5,18303.5
36356,18293.9
36357.4,18284.3
36359.8,18275
36363,18265.9
36367.1,18257.1
36372.1,18248.9
36377.9,18241.1
36384.3,18233.9
36391.5,18227.5
36399.3,18221.7
36407.5,18216.7
36416.3,18212.6
36425.4,18209.4
36434.7,18207
36444.3,18205.6
36453.9,18205.1
36946.1,18205.1
Z" /> 
</g>
<g >
</g>
<g style="fill:#000000; fill-opacity:1.0; 
stroke:#000000; stroke-width:0; stroke-opacity:1; 
stroke-linecap:round; stroke-linejoin:round;">
<circle cx="40700" cy="46400" r="393.701" /> 
</g>
<g style="fill:#000000; fill-opacity:1.0; 
stroke:#000000; stroke-width:39.3701; stroke-opacity:1; 
stroke-linecap:round; stroke-linejoin:round;">
</g>
<g >
</g>
<g style="fill:#000000; fill-opacity:1.0; 
stroke:#000000; stroke-width:39.3701; stroke-opacity:1; 
stroke-linecap:round; stroke-linejoin:round;">
</g>
<g style="fill:#000000; fill-opacity:1.0; 
stroke:#000000; stroke-width:0; stroke-opacity:1; 
stroke-linecap:round; stroke-linejoin:round;">
<circle cx="38700" cy="46390.2" r="393.701" /> 
</g>
<g style="fill:#000000; fill-opacity:1.0; 
stroke:#000000; stroke-width:39.3701; stroke-opacity:1; 
stroke-linecap:round; stroke-linejoin:round;">
</g>
<g >
</g>
<g style="fill:#000000; fill-opacity:1.0; 
stroke:#000000; stroke-width:39.3701; stroke-opacity:1; 
stroke-linecap:round; stroke-linejoin:round;">
</g>
<g style="fill:#000000; fill-opacity:1.0; 
stroke:#000000; stroke-width:0; stroke-opacity:1; 
stroke-linecap:round; stroke-linejoin:round;">
<circle cx="34700" cy="36400" r="157.48" /> 
</g>
<g style="fill:#000000; fill-opacity:1.0; 
stroke:#000000; stroke-width:39.3701; stroke-opacity:1; 
stroke-linecap:round; stroke-linejoin:round;">
</g>
<g style="fill:#000000; fill-opacity:1.0; 
stroke:#000000; stroke-width:0; stroke-opacity:1; 
stroke-linecap:round; stroke-linejoin:round;">
<circle cx="33200" cy="29900" r="157.48" /> 
</g>
<g style="fill:#000000; fill-opacity:1.0; 
stroke:#000000; stroke-width:39.3701; stroke-opacity:1; 
stroke-linecap:round; stroke-linejoin:round;">
</g>
<g style="fill:#000000; fill-opacity:1.0; 
stroke:#000000; stroke-width:0; stroke-opacity:1; 
stroke-linecap:round; stroke-linejoin:round;">
<circle cx="33200" cy="23900" r="157.48" /> 
</g>
<g style="fill:#000000; fill-opacity:1.0; 
stroke:#000000; stroke-width:39.3701; stroke-opacity:1; 
stroke-linecap:round; stroke-linejoin:round;">
</g>
<g style="fill:#000000; fill-opacity:1.0; 
stroke:#000000; stroke-width:0; stroke-opacity:1; 
stroke-linecap:round; stroke-linejoin:round;">
<circle cx="43200" cy="21900" r="157.48" /> 
</g>
<g style="fill:#000000; fill-opacity:1.0; 
stroke:#000000; stroke-width:39.3701; stroke-opacity:1; 
stroke-linecap:round; stroke-linejoin:round;">
</g>
<g style="fill:#000000; fill-opacity:1.0; 
stroke:#000000; stroke-width:0; stroke-opacity:1; 
stroke-linecap:round; stroke-linejoin:round;">
<circle cx="43200" cy="27900" r="157.48" /> 
</g>
<g style="fill:#000000; fill-opacity:1.0; 
stroke:#000000; stroke-width:39.3701; stroke-opacity:1; 
stroke-linecap:round; stroke-linejoin:round;">
</g>
<g style="fill:#000000; fill-opacity:1.0; 
stroke:#000000; stroke-width:0; stroke-opacity:1; 
stroke-linecap:round; stroke-linejoin:round;">
<circle cx="32200" cy="44300" r="157.48" /> 
</g>
<g style="fill:#000000; fill-opacity:1.0; 
stroke:#000000; stroke-width:39.3701; stroke-opacity:1; 
stroke-linecap:round; stroke-linejoin:round;">
</g>
<g >
</g>
<g style="fill:#000000; fill-opacity:1.0; 
stroke:#000000; stroke-width:39.3701; stroke-opacity:1; 
stroke-linecap:round; stroke-linejoin:round;">
</g>
<g style="fill:#000000; fill-opacity:1.0; 
stroke:#000000; stroke-width:200; stroke-opacity:1; 
stroke-linecap:round; stroke-linejoin:round;">
</g>
<g style="fill:#000000; fill-opacity:0.0; 
stroke:#000000; stroke-width:200; stroke-opacity:1; 
stroke-linecap:round; stroke-linejoin:round;">
<path d="M42200 32900
L41700 32900
" />
<path d="M41700 32900
L38200 36400
" />
<path d="M38200 36400
L34700 36400
" />
<path d="M31200 36900
L32200 35900
" />
<path d="M32200 35900
L32200 29900
" />
<path d="M32200 29900
L31200 28900
" />
<path d="M31200 28900
L32200 27900
" />
<path d="M32200 27900
L32200 21900
" />
<path d="M32200 21900
L31200 20900
" />
<path d="M42200 33900
L38700 37400
" />
<path d="M31700 37400
L31200 37900
" />
<path d="M33200 37400
L33200 29900
" />
<path d="M38700 37400
L33200 37400
" />
<path d="M33200 37400
L31700 37400
" />
<path d="M33200 29900
L33200 23900
" />
</g>
<g style="fill:#000000; fill-opacity:1.0; 
stroke:#000000; stroke-width:0; stroke-opacity:1; 
stroke-linecap:round; stroke-linejoin:round;">
<circle cx="33200" cy="23900" r="100" /> 
</g>
<g style="fill:#000000; fill-opacity:1.0; 
stroke:#000000; stroke-width:200; stroke-opacity:1; 
stroke-linecap:round; stroke-linejoin:round;">
</g>
<g style="fill:#000000; fill-opacity:0.0; 
stroke:#000000; stroke-width:200; stroke-opacity:1; 
stroke-linecap:round; stroke-linejoin:round;">
<path d="M42200 35900
L45200 35900
" />
<path d="M45200 35900
L43200 33900
" />
<path d="M43200 33900
L43200 27900
" />
<path d="M43200 27900
L43200 21900
" />
<path d="M45200 34900
L44200 33900
" />
<path d="M44200 33900
L44200 27900
" />
<path d="M44200 27900
L45200 26900
" />
<path d="M44200 19858
L45158 18900
" />
<path d="M44200 25900
L44200 19858
" />
<path d="M45200 26900
L44200 25900
" />
</g>
<g style="fill:#000000; fill-opacity:0.0; 
stroke:#000000; stroke-width:1400; stroke-opacity:1; 
stroke-linecap:round; stroke-linejoin:round;">
<path d="M40705 44334
L40690 44350
" />
<path d="M44200 44334
L40705 44334
" />
<path d="M40690 46390
L40700 46400
" />
<path d="M40690 44350
L40690 46390
" />
</g>
<g style="fill:#000000; fill-opacity:0.0; 
stroke:#000000; stroke-width:200; stroke-opacity:1; 
stroke-linecap:round; stroke-linejoin:round;">
<path d="M31450 41804
L31450 40451
" />
<path d="M32200 44300
L32800 44300
" />
<path d="M33200 43900
L33200 42687
" />
<path d="M32800 44300
L33200 43900
" />
<path d="M32200 44300
L31600 44300
" />
<path d="M31450 44150
L31450 42956
" />
<path d="M31600 44300
L31450 44150
" />
<path d="M42200 19900
L42200 17400
" />
<path d="M41200 20900
L42200 19900
" />
<path d="M41200 29900
L41200 20900
" />
<path d="M42200 30900
L41200 29900
" />
<path d="M35200 16475
L35200 17348
" />
<path d="M36700 16475
L36700 17348
" />
<path d="M36700 29400
L36700 18451
" />
<path d="M34200 31900
L36700 29400
" />
<path d="M35200 29900
L35200 18451
" />
<path d="M34200 30900
L35200 29900
" />
</g>
<g >
</g>
<g style="fill:#000000; fill-opacity:0.0; 
stroke:#000000; stroke-width:200; stroke-opacity:1; 
stroke-linecap:round; stroke-linejoin:round;">
<g >
</g>
<g style="fill:#000000; fill-opacity:1.0; 
stroke:#000000; stroke-width:100; stroke-opacity:1; 
stroke-linecap:round; stroke-linejoin:round;">
<path style="fill:#000000; fill-opacity:1.0; 
stroke:#000000; stroke-width:100; stroke-opacity:1; 
stroke-linecap:round; stroke-linejoin:round;fill-rule:evenodd;"
d="M 43707.4,14336.7
44700,15329.3
44705.6,15323.7
44776.3,15394.4
44770.7,15400
45763.3,16392.6
45945,16259
45945,20887.5
45945,20887.5
45945,21887.5
45945,21887.5
45945,45887.5
45945,45887.5
45945,47041
45763.3,46907.4
44770.7,47900
44776.3,47905.6
44705.6,47976.3
44700,47970.7
43707.4,48963.3
43841,49145
32559,49145
32692.6,48963.3
31700,47970.7
31694.4,47976.3
31623.7,47905.6
31629.3,47900
31770.7,47900
32763.3,48892.6
32956.1,48750.8
33098,48489.4
33186.1,48205.4
33217.1,47909.6
33215.4,47890.4
43182.9,47890.4
43210.2,48186.6
43294.7,48471.7
43433.2,48734.9
43443.9,48750.8
43636.7,48892.6
44629.3,47900
43636.7,46907.4
43443.9,47049.2
43302,47310.6
43213.9,47594.6
43182.9,47890.4
33215.4,47890.4
33189.8,47613.4
33105.3,47328.3
32966.8,47065.1
32956.1,47049.2
32763.3,46907.4
31770.7,47900
31629.3,47900
30636.7,46907.4
30455,47041
30455,46836.7
30707.4,46836.7
31700,47829.3
32692.6,46836.7
32550.8,46643.9
32289.4,46502
32005.4,46413.9
31709.6,46382.9
31413.4,46410.2
31128.3,46494.7
30865.1,46633.2
30849.2,46643.9
30707.4,46836.7
30455,46836.7
30455,46326.8
38056.3,46326.8
38056.3,46453.6
38081,46577.9
38129.6,46695.1
38200,46800.5
38289.7,46890.2
38395.1,46960.6
38512.2,47009.1
38636.6,47033.9
38763.4,47033.9
38887.8,47009.1
39004.9,46960.6
39110.3,46890.2
39200,46800.5
39270.4,46695.1
39319,46577.9
39343.7,46453.6
39343.7,46326.8
39319,46202.4
39270.4,46085.3
39200,45979.8
39110.3,45890.2
39004.9,45819.7
38887.8,45771.2
38763.4,45746.5
38636.6,45746.5
38512.2,45771.2
38395.1,45819.7
38289.7,45890.2
38200,45979.8
38129.6,46085.3
38081,46202.4
38056.3,46326.8
30455,46326.8
30455,42833.1
30854.3,42833.1
30854.3,43079.1
30861,43147.3
30880.9,43212.9
30913.2,43273.4
30956.7,43326.4
31009.7,43369.8
31070.1,43402.2
31100,43411.2
31100,44132.8
31098.3,44150
31100,44167.2
31100,44167.2
31104.4,44211.4
31105.1,44218.6
31108.9,44231.4
31125.1,44284.6
31157.6,44345.4
31201.3,44398.7
31214.7,44409.6
31340.4,44535.3
31351.3,44548.7
31404.6,44592.4
31465.4,44624.9
31491.4,44632.8
31531.4,44644.9
31544.5,44646.2
31582.8,44650
31582.8,44650
31600,44651.7
31617.2,44650
31990.4,44650
32007,44661.1
32081.1,44691.8
32159.9,44707.5
32240.1,44707.5
32318.9,44691.8
32393,44661.1
32409.6,44650
32782.8,44650
32800,44651.7
32817.2,44650
32817.2,44650
32868.6,44644.9
32934.6,44624.9
32952.2,44615.5
37373.7,44615.5
37411.4,44719.6
37525.4,44775.1
37648.1,44807.2
37774.6,44814.8
37900.3,44797.6
38020.1,44756.2
38088.6,44719.6
38126.3,44615.5
37750,44239.2
37373.7,44615.5
32952.2,44615.5
32995.4,44592.4
33048.7,44548.7
33059.6,44535.3
33401.8,44193.1
37103.7,44193.1
37120.9,44318.8
37162.3,44438.6
37198.9,44507.1
37303,44544.8
37679.3,44168.5
37820.7,44168.5
38197,44544.8
38301.1,44507.1
38356.6,44393.1
38367.9,44350
39735.4,44350
39740,44396.7
39740,46343.3
39735.4,46390
39753.7,46576.2
39808.1,46755.3
39896.3,46920.3
39985.2,47028.8
39985.3,47028.8
40015,47065
40051.2,47094.7
40061.2,47104.8
40169.7,47193.7
40334.7,47281.9
40513.8,47336.3
40700,47354.6
40886.2,47336.3
41065.3,47281.9
41230.3,47193.7
41375,47075
41493.7,46930.3
41543.8,46836.7
43707.4,46836.7
44700,47829.3
45692.6,46836.7
45550.8,46643.9
45289.4,46502
45005.4,46413.9
44709.6,46382.9
44413.4,46410.2
44128.3,46494.7
43865.1,46633.2
43849.2,46643.9
43707.4,46836.7
41543.8,46836.7
41581.9,46765.3
41636.3,46586.2
41654.6,46400
41640,46251.8
41640,45284.6
43126.1,45284.6
43287.7,45446.3
43522.1,45602.9
43782.6,45710.8
44059,45765.7
44341,45765.7
44617.4,45710.8
44877.9,45602.9
45112.3,45446.3
45311.6,45246.9
45468.2,45012.5
45576.1,44752.1
45631.1,44475.6
45631.1,44193.7
45576.1,43917.2
45468.2,43656.8
45311.6,43422.4
45112.3,43223
44877.9,43066.4
44617.4,42958.5
44480.5,42931.3
45381.1,42932.3
45430.1,42927.5
45477.2,42913.2
45520.7,42890
45558.7,42858.7
45590,42820.7
45613.2,42777.2
45627.5,42730.1
45632.3,42681.1
45631.1,41612.5
45568.6,41550
44250,41550
44250,41557.9
44150,41557.9
44150,41550
42831.4,41550
42768.9,41612.5
42767.7,42681.1
42772.5,42730.1
42786.8,42777.2
42810,42820.7
42841.3,42858.7
42879.3,42890
42922.8,42913.2
42969.9,42927.5
43018.9,42932.3
43919.5,42931.3
43782.6,42958.5
43522.1,43066.4
43287.7,43223
43126.1,43384.6
40752,43384.6
40705.4,43380
40658.7,43384.6
40658.7,43384.6
40519.1,43398.4
40340,43452.7
40175,43540.9
40030.4,43659.6
40023.4,43668.1
40015,43675
39985.2,43711.2
39985.2,43711.2
39896.3,43819.7
39858.5,43890.4
39808.1,43984.7
39753.7,44163.8
39740,44303.3
39740,44303.3
39735.4,44350
38367.9,44350
38388.7,44270.4
38396.3,44143.9
38379.1,44018.2
38337.7,43898.4
38301.1,43829.9
38197,43792.2
37820.7,44168.5
37679.3,44168.5
37303,43792.2
37198.9,43829.9
37143.4,43943.9
37111.3,44066.6
37103.7,44193.1
33401.8,44193.1
33435.3,44159.6
33448.7,44148.7
33492.4,44095.4
33524.9,44034.6
33544.9,43968.6
33550,43917.2
33550,43917.2
33551.7,43900
33550,43882.8
33550,43721.5
37373.7,43721.5
37750,44097.8
38126.3,43721.5
38088.6,43617.4
37974.6,43561.9
37851.9,43529.8
37725.4,43522.2
37599.7,43539.4
37479.9,43580.8
37411.4,43617.4
37373.7,43721.5
33550,43721.5
33550,43429.2
33583.7,43425.9
33630.8,43411.6
33674.2,43388.4
33712.3,43357.2
33743.5,43319.1
33766.7,43275.7
33781,43228.5
33785.9,43179.5
33785.9,42195.3
33781,42146.3
33766.7,42099.1
33743.5,42055.7
33712.3,42017.6
33674.2,41986.4
33630.8,41963.2
33583.7,41948.9
33534.6,41944.1
32865.4,41944.1
32816.3,41948.9
32769.2,41963.2
32725.8,41986.4
32687.7,42017.6
32656.5,42055.7
32633.3,42099.1
32619,42146.3
32614.1,42195.3
32614.1,43179.5
32619,43228.5
32633.3,43275.7
32656.5,43319.1
32687.7,43357.2
32725.8,43388.4
32769.2,43411.6
32816.3,43425.9
32850,43429.2
32850,43755
32655,43950
32409.6,43950
32393,43938.9
32318.9,43908.2
32240.1,43892.5
32159.9,43892.5
32081.1,43908.2
32007,43938.9
31990.4,43950
31800,43950
31800,43411.2
31829.9,43402.2
31890.3,43369.8
31943.3,43326.4
31986.8,43273.4
32019.1,43212.9
32039,43147.3
32045.7,43079.1
32045.7,42833.1
32039,42764.9
32019.1,42699.3
31986.8,42638.8
31943.3,42585.8
31890.3,42542.4
31829.9,42510.1
31764.3,42490.2
31696.1,42483.4
31203.9,42483.4
31135.7,42490.2
31070.1,42510.1
31009.7,42542.4
30956.7,42585.8
30913.2,42638.8
30880.9,42699.3
30861,42764.9
30854.3,42833.1
30455,42833.1
30455,40303.5
30854.3,40303.5
30854.3,40598.8
30861,40667
30880.9,40732.6
30913.2,40793.1
30956.7,40846
31009.7,40889.5
31070.1,40921.8
31100,40930.9
31100,41349.4
31070.1,41358.5
31009.7,41390.8
30956.7,41434.3
30913.2,41487.2
30880.9,41547.7
30861,41613.3
30854.3,41681.5
30854.3,41927.6
30861,41995.8
30880.9,42061.4
30913.2,42121.8
30956.7,42174.8
31009.7,42218.3
31070.1,42250.6
31135.7,42270.5
31203.9,42277.2
31696.1,42277.2
31764.3,42270.5
31829.9,42250.6
31890.3,42218.3
31943.3,42174.8
31986.8,42121.8
32019.1,42061.4
32039,41995.8
32045.7,41927.6
32045.7,41681.5
32039,41613.3
32036.4,41604.7
32614.1,41604.7
32619,41653.7
32633.3,41700.9
32656.5,41744.3
32687.7,41782.4
32725.8,41813.6
32769.2,41836.8
32816.3,41851.1
32865.4,41855.9
33087.5,41854.7
33150,41792.2
33150,41162.6
33250,41162.6
33250,41792.2
33312.5,41854.7
33534.6,41855.9
33583.7,41851.1
33630.8,41836.8
33674.2,41813.6
33683.1,41806.3
37105.1,41806.3
37105.1,42593.7
37109.9,42642.7
37124.2,42689.8
37147.4,42733.3
37178.7,42771.3
37216.7,42802.6
37260.2,42825.8
37307.3,42840.1
37356.3,42844.9
38143.7,42844.9
38192.7,42840.1
38239.8,42825.8
38283.3,42802.6
38321.3,42771.3
38352.6,42733.3
38375.8,42689.8
38390.1,42642.7
38394.9,42593.7
38394.9,41956.3
40045.1,41956.3
40045.1,42743.7
40049.9,42792.7
40064.2,42839.8
40087.4,42883.3
40118.7,42921.3
40156.7,42952.6
40200.2,42975.8
40247.3,42990.1
40296.3,42994.9
41083.7,42994.9
41132.7,42990.1
41179.8,42975.8
41223.3,42952.6
41261.3,42921.3
41292.6,42883.3
41315.8,42839.8
41330.1,42792.7
41334.9,42743.7
41334.9,41956.3
41330.1,41907.3
41315.8,41860.2
41292.6,41816.7
41261.3,41778.7
41223.3,41747.4
41179.8,41724.2
41132.7,41709.9
41083.7,41705.1
40296.3,41705.1
40247.3,41709.9
40200.2,41724.2
40156.7,41747.4
40118.7,41778.7
40087.4,41816.7
40064.2,41860.2
40049.9,41907.3
40045.1,41956.3
38394.9,41956.3
38394.9,41806.3
38390.1,41757.3
38375.8,41710.2
38352.6,41666.7
38321.3,41628.7
38283.3,41597.4
38239.8,41574.2
38192.7,41559.9
38143.7,41555.1
37356.3,41555.1
37307.3,41559.9
37260.2,41574.2
37216.7,41597.4
37178.7,41628.7
37147.4,41666.7
37124.2,41710.2
37109.9,41757.3
37105.1,41806.3
33683.1,41806.3
33712.3,41782.4
33743.5,41744.3
33766.7,41700.9
33781,41653.7
33785.9,41604.7
33784.6,41225.1
33722.1,41162.6
33250,41162.6
33150,41162.6
32677.9,41162.6
32615.4,41225.1
32614.1,41604.7
32036.4,41604.7
32019.1,41547.7
31986.8,41487.2
31943.3,41434.3
31890.3,41390.8
31829.9,41358.5
31800,41349.4
31800,40930.9
31829.9,40921.8
31890.3,40889.5
31943.3,40846
31986.8,40793.1
32019.1,40732.6
32039,40667
32043.6,40620.5
32614.1,40620.5
32615.4,41000.1
32677.9,41062.6
33150,41062.6
33150,40433
33250,40433
33250,41062.6
33722.1,41062.6
33784.6,41000.1
33785.9,40620.5
33781,40571.5
33766.7,40524.3
33743.5,40480.9
33712.3,40442.8
33674.2,40411.6
33630.8,40388.4
33583.7,40374.1
33534.6,40369.3
33312.5,40370.5
33250,40433
33150,40433
33087.5,40370.5
32865.4,40369.3
32816.3,40374.1
32769.2,40388.4
32725.8,40411.6
32687.7,40442.8
32656.5,40480.9
32633.3,40524.3
32619,40571.5
32614.1,40620.5
32043.6,40620.5
32045.7,40598.8
32045.7,40318.9
42767.7,40318.9
42768.9,41387.5
42831.4,41450
44150,41450
44150,40131.4
44250,40131.4
44250,41450
45568.6,41450
45631.1,41387.5
45632.3,40318.9
45627.5,40269.9
45613.2,40222.8
45590,40179.3
45558.7,40141.3
45520.7,40110
45477.2,40086.8
45430.1,40072.5
45381.1,40067.7
44312.5,40068.9
44250,40131.4
44150,40131.4
44087.5,40068.9
43018.9,40067.7
42969.9,40072.5
42922.8,40086.8
42879.3,40110
42841.3,40141.3
42810,40179.3
42786.8,40222.8
42772.5,40269.9
42767.7,40318.9
32045.7,40318.9
32045.7,40303.5
32039,40235.3
32019.1,40169.7
31986.8,40109.3
31943.3,40056.3
31890.3,40012.8
31829.9,39980.5
31764.3,39960.6
31696.1,39953.9
31203.9,39953.9
31135.7,39960.6
31070.1,39980.5
31009.7,40012.8
30956.7,40056.3
30913.2,40109.3
30880.9,40169.7
30861,40235.3
30854.3,40303.5
30455,40303.5
30455,39594.9
30854.3,39594.9
30859.1,39643.9
30873.4,39691
30896.6,39734.4
30927.9,39772.5
30965.9,39803.8
31009.4,39827
31056.5,39841.3
31105.5,39846.1
31337.5,39844.9
31400,39782.4
31400,39398.8
31500,39398.8
31500,39782.4
31562.5,39844.9
31794.5,39846.1
31843.5,39841.3
31890.6,39827
31934.1,39803.8
31972.1,39772.5
32003.4,39734.4
32026.6,39691
32040.9,39643.9
32045.7,39594.9
32044.5,39461.3
31982,39398.8
31500,39398.8
31400,39398.8
30918,39398.8
30855.5,39461.3
30854.3,39594.9
30455,39594.9
30455,39102.8
30854.3,39102.8
30855.5,39236.3
30918,39298.8
31400,39298.8
31400,38915.3
31500,38915.3
31500,39298.8
31982,39298.8
32044.5,39236.3
32045.7,39102.8
32040.9,39053.7
32026.6,39006.6
32003.4,38963.2
31972.1,38925.1
31934.1,38893.9
31890.6,38870.7
31843.5,38856.4
31794.5,38851.5
31562.5,38852.8
31500,38915.3
31400,38915.3
31337.5,38852.8
31105.5,38851.5
31056.5,38856.4
31009.4,38870.7
30965.9,38893.9
30927.9,38925.1
30896.6,38963.2
30873.4,39006.6
30859.1,39053.7
30854.3,39102.8
30455,39102.8
30455,34759.5
30632.5,34759.5
30680.3,34850
31150,34850
31150,34380
31250,34380
31250,34850
31719.7,34850
31767.5,34759.5
31749.9,34701.5
31700.6,34598.1
31632.1,34506.2
31547,34429.5
31448.5,34370.8
31340.5,34332.5
31250,34380
31150,34380
31059.5,34332.5
30951.5,34370.8
30853,34429.5
30767.9,34506.2
30699.4,34598.1
30650.1,34701.5
30632.5,34759.5
30455,34759.5
30455,26759.5
30632.5,26759.5
30680.3,26850
31150,26850
31150,26380
31250,26380
31250,26850
31719.7,26850
31767.5,26759.5
31749.9,26701.5
31700.6,26598.1
31632.1,26506.2
31547,26429.5
31448.5,26370.8
31340.5,26332.5
31250,26380
31150,26380
31059.5,26332.5
30951.5,26370.8
30853,26429.5
30767.9,26506.2
30699.4,26598.1
30650.1,26701.5
30632.5,26759.5
30455,26759.5
30455,21565.4
30614.1,21565.4
30614.1,22234.6
30619,22283.7
30633.3,22330.8
30656.5,22374.2
30687.7,22412.3
30725.8,22443.5
30769.2,22466.7
30816.3,22481
30865.4,22485.9
31534.6,22485.9
31583.7,22481
31630.8,22466.7
31674.2,22443.5
31712.3,22412.3
31743.5,22374.2
31766.7,22330.8
31781,22283.7
31785.9,22234.6
31785.9,21980.8
31850,22045
31850,27755
31781,27824
31762.2,27729.5
31718.1,27623.1
31654.1,27527.3
31572.7,27445.9
31501,27398
31547,27370.5
31632.1,27293.8
31700.6,27201.9
31749.9,27098.5
31767.5,27040.5
31719.7,26950
31250,26950
31250,26957.9
31150,26957.9
31150,26950
30680.3,26950
30632.5,27040.5
30650.1,27098.5
30699.4,27201.9
30767.9,27293.8
30853,27370.5
30899,27398
30827.3,27445.9
30745.9,27527.3
30681.9,27623.1
30637.8,27729.5
30615.4,27842.4
30615.4,27957.6
30637.8,28070.5
30681.9,28176.9
30745.9,28272.7
30827.3,28354.1
30896,28400
30827.3,28445.9
30745.9,28527.3
30681.9,28623.1
30637.8,28729.5
30615.4,28842.4
30615.4,28957.6
30637.8,29070.5
30681.9,29176.9
30745.9,29272.7
30797.8,29324.6
30769.2,29333.3
30725.8,29356.5
30687.7,29387.7
30656.5,29425.8
30633.3,29469.2
30619,29516.3
30614.1,29565.4
30614.1,30234.6
30619,30283.7
30633.3,30330.8
30656.5,30374.2
30687.7,30412.3
30725.8,30443.5
30769.2,30466.7
30816.3,30481
30865.4,30485.9
31534.6,30485.9
31583.7,30481
31630.8,30466.7
31674.2,30443.5
31712.3,30412.3
31743.5,30374.2
31766.7,30330.8
31781,30283.7
31785.9,30234.6
31785.9,29980.8
31850,30045
31850,35755
31781,35824
31762.2,35729.5
31718.1,35623.1
31654.1,35527.3
31572.7,35445.9
31501,35398
31547,35370.5
31632.1,35293.8
31700.6,35201.9
31749.9,35098.5
31767.5,35040.5
31719.7,34950
31250,34950
31250,34957.9
31150,34957.9
31150,34950
30680.3,34950
30632.5,35040.5
30650.1,35098.5
30699.4,35201.9
30767.9,35293.8
30853,35370.5
30899,35398
30827.3,35445.9
30745.9,35527.3
30681.9,35623.1
30637.8,35729.5
30615.4,35842.4
30615.4,35957.6
30637.8,36070.5
30681.9,36176.9
30745.9,36272.7
30827.3,36354.1
30896,36400
30827.3,36445.9
30745.9,36527.3
30681.9,36623.1
30637.8,36729.5
30615.4,36842.4
30615.4,36957.6
30637.8,37070.5
30681.9,37176.9
30745.9,37272.7
30797.8,37324.6
30769.2,37333.3
30725.8,37356.5
30687.7,37387.7
30656.5,37425.8
30633.3,37469.2
30619,37516.3
30614.1,37565.4
30614.1,38234.6
30619,38283.7
30633.3,38330.8
30656.5,38374.2
30687.7,38412.3
30725.8,38443.5
30769.2,38466.7
30816.3,38481
30865.4,38485.9
31534.6,38485.9
31583.7,38481
31630.8,38466.7
31674.2,38443.5
31712.3,38412.3
31743.5,38374.2
31766.7,38330.8
31781,38283.7
31785.9,38234.6
31785.9,37809.1
31845,37750
33182.8,37750
33200,37751.7
33217.2,37750
33653.8,37750
33635,37844.4
33635,37955.6
33656.8,38064.8
33699.3,38167.6
33761.2,38260.1
33839.9,38338.8
33932.4,38400.7
34035.2,38443.2
34144.4,38465
34255.6,38465
34364.8,38443.2
34467.6,38400.7
34560.1,38338.8
34638.8,38260.1
34700.7,38167.6
34743.2,38064.8
34765,37955.6
34765,37844.4
34746.2,37750
38682.8,37750
38700,37751.7
38717.2,37750
38717.2,37750
38768.6,37744.9
38834.6,37724.9
38895.4,37692.4
38948.7,37648.7
38959.6,37635.3
41635.8,34959.2
41656.8,35064.8
41699.3,35167.6
41761.2,35260.1
41839.9,35338.8
41931.4,35400
41839.9,35461.2
41761.2,35539.9
41699.3,35632.4
41656.8,35735.2
41635,35844.4
41635,35955.6
41656.8,36064.8
41699.3,36167.6
41761.2,36260.1
41839.9,36338.8
41931.4,36400
41839.9,36461.2
41761.2,36539.9
41699.3,36632.4
41656.8,36735.2
41635,36844.4
41635,36955.6
41656.8,37064.8
41699.3,37167.6
41761.2,37260.1
41839.9,37338.8
41931.4,37400
41839.9,37461.2
41761.2,37539.9
41699.3,37632.4
41656.8,37735.2
41635,37844.4
41635,37955.6
41656.8,38064.8
41699.3,38167.6
41761.2,38260.1
41839.9,38338.8
41932.4,38400.7
42035.2,38443.2
42144.4,38465
42255.6,38465
42364.8,38443.2
42467.6,38400.7
42560.1,38338.8
42638.8,38260.1
42700.7,38167.6
42743.2,38064.8
42748.1,38040.5
44632.5,38040.5
44650.1,38098.5
44699.4,38201.9
44767.9,38293.8
44853,38370.5
44951.5,38429.2
45059.5,38467.5
45150,38420
45150,37950
45250,37950
45250,38420
45340.5,38467.5
45448.5,38429.2
45547,38370.5
45632.1,38293.8
45700.6,38201.9
45749.9,38098.5
45767.5,38040.5
45719.7,37950
45250,37950
45150,37950
44680.3,37950
44632.5,38040.5
42748.1,38040.5
42765,37955.6
42765,37844.4
42743.2,37735.2
42700.7,37632.4
42638.8,37539.9
42560.1,37461.2
42468.6,37400
42560.1,37338.8
42638.8,37260.1
42700.7,37167.6
42743.2,37064.8
42765,36955.6
42765,36844.4
42743.2,36735.2
42700.7,36632.4
42638.8,36539.9
42560.1,36461.2
42468.6,36400
42560.1,36338.8
42638.8,36260.1
42645.6,36250
44730.7,36250
44745.9,36272.7
44827.3,36354.1
44896,36400
44827.3,36445.9
44745.9,36527.3
44681.9,36623.1
44637.8,36729.5
44615.4,36842.4
44615.4,36957.6
44637.8,37070.5
44681.9,37176.9
44745.9,37272.7
44827.3,37354.1
44899,37402
44853,37429.5
44767.9,37506.2
44699.4,37598.1
44650.1,37701.5
44632.5,37759.5
44680.3,37850
45150,37850
45150,37842.1
45250,37842.1
45250,37850
45719.7,37850
45767.5,37759.5
45749.9,37701.5
45700.6,37598.1
45632.1,37506.2
45547,37429.5
45501,37402
45572.7,37354.1
45654.1,37272.7
45718.1,37176.9
45762.2,37070.5
45784.6,36957.6
45784.6,36842.4
45762.2,36729.5
45718.1,36623.1
45654.1,36527.3
45572.7,36445.9
45504,36400
45572.7,36354.1
45654.1,36272.7
45718.1,36176.9
45762.2,36070.5
45784.6,35957.6
45784.6,35842.4
45762.2,35729.5
45718.1,35623.1
45654.1,35527.3
45602.2,35475.4
45630.8,35466.7
45674.2,35443.5
45712.3,35412.3
45743.5,35374.2
45766.7,35330.8
45781,35283.7
45785.9,35234.6
45785.9,34565.4
45781,34516.3
45766.7,34469.2
45743.5,34425.8
45712.3,34387.7
45674.2,34356.5
45630.8,34333.3
45583.7,34319
45534.6,34314.1
45109.1,34314.1
44550,33755
44550,30040.5
44632.5,30040.5
44650.1,30098.5
44699.4,30201.9
44767.9,30293.8
44853,30370.5
44951.5,30429.2
45059.5,30467.5
45150,30420
45150,29950
45250,29950
45250,30420
45340.5,30467.5
45448.5,30429.2
45547,30370.5
45632.1,30293.8
45700.6,30201.9
45749.9,30098.5
45767.5,30040.5
45719.7,29950
45250,29950
45150,29950
44680.3,29950
44632.5,30040.5
44550,30040.5
44550,28045
44619,27976
44637.8,28070.5
44681.9,28176.9
44745.9,28272.7
44827.3,28354.1
44896,28400
44827.3,28445.9
44745.9,28527.3
44681.9,28623.1
44637.8,28729.5
44615.4,28842.4
44615.4,28957.6
44637.8,29070.5
44681.9,29176.9
44745.9,29272.7
44827.3,29354.1
44899,29402
44853,29429.5
44767.9,29506.2
44699.4,29598.1
44650.1,29701.5
44632.5,29759.5
44680.3,29850
45150,29850
45150,29842.1
45250,29842.1
45250,29850
45719.7,29850
45767.5,29759.5
45749.9,29701.5
45700.6,29598.1
45632.1,29506.2
45547,29429.5
45501,29402
45572.7,29354.1
45654.1,29272.7
45718.1,29176.9
45762.2,29070.5
45784.6,28957.6
45784.6,28842.4
45762.2,28729.5
45718.1,28623.1
45654.1,28527.3
45572.7,28445.9
45504,28400
45572.7,28354.1
45654.1,28272.7
45718.1,28176.9
45762.2,28070.5
45784.6,27957.6
45784.6,27842.4
45762.2,27729.5
45718.1,27623.1
45654.1,27527.3
45602.2,27475.4
45630.8,27466.7
45674.2,27443.5
45712.3,27412.3
45743.5,27374.2
45766.7,27330.8
45781,27283.7
45785.9,27234.6
45785.9,26565.4
45781,26516.3
45766.7,26469.2
45743.5,26425.8
45712.3,26387.7
45674.2,26356.5
45630.8,26333.3
45583.7,26319
45534.6,26314.1
45109.1,26314.1
44550,25755
44550,22040.5
44591.2,22040.5
44608.7,22098.5
44658,22201.9
44726.5,22293.8
44811.7,22370.5
44910.1,22429.2
45018.2,22467.5
45108.7,22420
45108.7,21950
45208.7,21950
45208.7,22420
45299.2,22467.5
45407.2,22429.2
45505.7,22370.5
45590.8,22293.8
45659.3,22201.9
45708.6,22098.5
45726.2,22040.5
45678.4,21950
45208.7,21950
45108.7,21950
44638.9,21950
44591.2,22040.5
44550,22040.5
44550,20003.6
44577.7,19976
44596.5,20070.5
44640.6,20176.9
44704.5,20272.7
44786,20354.1
44854.6,20400
44786,20445.9
44704.5,20527.3
44640.6,20623.1
44596.5,20729.5
44574,20842.4
44574,20957.6
44596.5,21070.5
44640.6,21176.9
44704.5,21272.7
44786,21354.1
44857.7,21402
44811.7,21429.5
44726.5,21506.2
44658,21598.1
44608.7,21701.5
44591.2,21759.5
44638.9,21850
45108.7,21850
45108.7,21842.1
45208.7,21842.1
45208.7,21850
45678.4,21850
45726.2,21759.5
45708.6,21701.5
45659.3,21598.1
45590.8,21506.2
45505.7,21429.5
45459.6,21402
45531.4,21354.1
45612.8,21272.7
45676.8,21176.9
45720.8,21070.5
45743.3,20957.6
45743.3,20842.4
45720.8,20729.5
45676.8,20623.1
45612.8,20527.3
45531.4,20445.9
45462.7,20400
45531.4,20354.1
45612.8,20272.7
45676.8,20176.9
45720.8,20070.5
45743.3,19957.6
45743.3,19842.4
45720.8,19729.5
45676.8,19623.1
45612.8,19527.3
45560.9,19475.4
45589.4,19466.7
45632.9,19443.5
45670.9,19412.3
45702.2,19374.2
45725.4,19330.8
45739.7,19283.7
45744.5,19234.6
45744.5,18565.4
45739.7,18516.3
45725.4,18469.2
45702.2,18425.8
45670.9,18387.7
45632.9,18356.5
45589.4,18333.3
45542.3,18319
45493.3,18314.1
44824,18314.1
44775,18319
44727.9,18333.3
44684.5,18356.5
44646.4,18387.7
44615.1,18425.8
44591.9,18469.2
44577.6,18516.3
44572.8,18565.4
44572.8,18990.9
43964.7,19599
43951.3,19610
43940.4,19623.3
43940.4,19623.3
43907.6,19663.3
43875.1,19724.1
43855.1,19790
43848.3,19858.7
43850,19875.9
43850,25882.8
43848.3,25900
43850,25917.2
43850,25917.2
43855.1,25968.6
43875.1,26034.6
43907.6,26095.4
43951.3,26148.7
43964.7,26159.6
44614.1,26809.1
44614.1,26990.9
43964.7,27640.4
43951.3,27651.3
43940.4,27664.7
43940.4,27664.7
43907.6,27704.6
43875.1,27765.4
43855.1,27831.4
43848.3,27900
43850,27917.2
43850,33882.8
43848.3,33900
43850,33917.2
43850,33917.2
43853.8,33955.6
43855.1,33968.6
43863.8,33997.3
43875.1,34034.6
43907.6,34095.4
43951.3,34148.7
43964.7,34159.6
44614.1,34809.1
44614.1,34819.2
43550,33755
43550,28109.6
43561.1,28093
43591.8,28018.9
43607.5,27940.1
43607.5,27859.9
43591.8,27781.1
43561.1,27707
43550,27690.4
43550,22109.6
43561.1,22093
43591.8,22018.9
43607.5,21940.1
43607.5,21859.9
43591.8,21781.1
43561.1,21707
43516.5,21640.2
43459.8,21583.5
43393,21538.9
43318.9,21508.2
43240.1,21492.5
43159.9,21492.5
43081.1,21508.2
43007,21538.9
42940.2,21583.5
42883.5,21640.2
42838.9,21707
42808.2,21781.1
42792.5,21859.9
42792.5,21940.1
42808.2,22018.9
42838.9,22093
42850,22109.6
42850,27690.4
42838.9,27707
42808.2,27781.1
42792.5,27859.9
42792.5,27940.1
42808.2,28018.9
42838.9,28093
42850,28109.6
42850,33882.8
42848.3,33900
42850,33917.2
42850,33917.2
42853.8,33955.6
42855.1,33968.6
42863.8,33997.3
42875.1,34034.6
42907.6,34095.4
42951.3,34148.7
42964.7,34159.6
44355,35550
42645.6,35550
42638.8,35539.9
42560.1,35461.2
42468.6,35400
42560.1,35338.8
42638.8,35260.1
42700.7,35167.6
42743.2,35064.8
42765,34955.6
42765,34844.4
42743.2,34735.2
42700.7,34632.4
42638.8,34539.9
42560.1,34461.2
42468.6,34400
42560.1,34338.8
42638.8,34260.1
42700.7,34167.6
42743.2,34064.8
42765,33955.6
42765,33844.4
42743.2,33735.2
42700.7,33632.4
42638.8,33539.9
42560.1,33461.2
42468.6,33400
42560.1,33338.8
42638.8,33260.1
42700.7,33167.6
42743.2,33064.8
42765,32955.6
42765,32844.4
42743.2,32735.2
42700.7,32632.4
42638.8,32539.9
42560.1,32461.2
42468.6,32400
42560.1,32338.8
42638.8,32260.1
42700.7,32167.6
42743.2,32064.8
42765,31955.6
42765,31844.4
42743.2,31735.2
42700.7,31632.4
42638.8,31539.9
42560.1,31461.2
42468.6,31400
42560.1,31338.8
42638.8,31260.1
42700.7,31167.6
42743.2,31064.8
42765,30955.6
42765,30844.4
42743.2,30735.2
42700.7,30632.4
42638.8,30539.9
42560.1,30461.2
42468.6,30400
42560.1,30338.8
42638.8,30260.1
42700.7,30167.6
42743.2,30064.8
42765,29955.6
42765,29844.4
42743.2,29735.2
42700.7,29632.4
42638.8,29539.9
42560.1,29461.2
42468.6,29400
42560.1,29338.8
42638.8,29260.1
42700.7,29167.6
42743.2,29064.8
42765,28955.6
42765,28844.4
42743.2,28735.2
42700.7,28632.4
42638.8,28539.9
42560.1,28461.2
42468.6,28400
42560.1,28338.8
42638.8,28260.1
42700.7,28167.6
42743.2,28064.8
42765,27955.6
42765,27844.4
42743.2,27735.2
42700.7,27632.4
42638.8,27539.9
42560.1,27461.2
42468.6,27400
42560.1,27338.8
42638.8,27260.1
42700.7,27167.6
42743.2,27064.8
42765,26955.6
42765,26844.4
42743.2,26735.2
42700.7,26632.4
42638.8,26539.9
42560.1,26461.2
42467.6,26399.3
42364.8,26356.8
42255.6,26335
42144.4,26335
42035.2,26356.8
41932.4,26399.3
41839.9,26461.2
41761.2,26539.9
41699.3,26632.4
41656.8,26735.2
41635,26844.4
41635,26955.6
41656.8,27064.8
41699.3,27167.6
41761.2,27260.1
41839.9,27338.8
41931.4,27400
41839.9,27461.2
41761.2,27539.9
41699.3,27632.4
41656.8,27735.2
41635,27844.4
41635,27955.6
41656.8,28064.8
41699.3,28167.6
41761.2,28260.1
41839.9,28338.8
41931.4,28400
41839.9,28461.2
41761.2,28539.9
41699.3,28632.4
41656.8,28735.2
41635,28844.4
41635,28955.6
41656.8,29064.8
41699.3,29167.6
41761.2,29260.1
41839.9,29338.8
41931.4,29400
41839.9,29461.2
41761.2,29539.9
41699.3,29632.4
41656.8,29735.2
41635.8,29840.8
41550,29755
41550,21045
42435.3,20159.6
42448.7,20148.7
42492.4,20095.4
42524.9,20034.6
42537.5,19993.2
42544.9,19968.6
42546.2,19955.5
42550,19917.2
42550,19917.2
42551.7,19900
42550,19882.8
42550,18044.9
42593.7,18044.9
42642.7,18040.1
42689.8,18025.8
42733.3,18002.6
42771.3,17971.3
42802.6,17933.3
42825.8,17889.8
42840.1,17842.7
42844.9,17793.7
42844.9,17006.3
42840.1,16957.3
42825.8,16910.2
42802.6,16866.7
42771.3,16828.7
42733.3,16797.4
42689.8,16774.2
42642.7,16759.9
42593.7,16755.1
41806.3,16755.1
41757.3,16759.9
41710.2,16774.2
41666.7,16797.4
41628.7,16828.7
41597.4,16866.7
41574.2,16910.2
41559.9,16957.3
41555.1,17006.3
41555.1,17793.7
41559.9,17842.7
41574.2,17889.8
41597.4,17933.3
41628.7,17971.3
41666.7,18002.6
41710.2,18025.8
41757.3,18040.1
41806.3,18044.9
41850,18044.9
41850,19755
40964.7,20640.4
40951.3,20651.3
40940.4,20664.7
40940.4,20664.7
40907.6,20704.6
40875.1,20765.4
40855.1,20831.4
40848.3,20900
40850,20917.2
40850,29882.8
40848.3,29900
40850,29917.2
40850,29917.2
40855.1,29968.6
40875.1,30034.6
40907.6,30095.4
40951.3,30148.7
40964.7,30159.6
41637.4,30832.4
41635,30844.4
41635,30955.6
41656.8,31064.8
41699.3,31167.6
41761.2,31260.1
41839.9,31338.8
41931.4,31400
41839.9,31461.2
41761.2,31539.9
41699.3,31632.4
41656.8,31735.2
41635,31844.4
41635,31955.6
41656.8,32064.8
41699.3,32167.6
41761.2,32260.1
41839.9,32338.8
41931.4,32400
41839.9,32461.2
41761.2,32539.9
41754.4,32550
41717.2,32550
41700,32548.3
41631.4,32555.1
41611.4,32561.1
41565.4,32575.1
41504.6,32607.6
41451.3,32651.3
41440.4,32664.7
38055,36050
34909.6,36050
34893,36038.9
34818.9,36008.2
34757,35995.9
34765,35955.6
34765,35844.4
34743.2,35735.2
34700.7,35632.4
34638.8,35539.9
34560.1,35461.2
34468.6,35400
34560.1,35338.8
34638.8,35260.1
34700.7,35167.6
34743.2,35064.8
34765,34955.6
34765,34844.4
34743.2,34735.2
34700.7,34632.4
34638.8,34539.9
34560.1,34461.2
34468.6,34400
34560.1,34338.8
34638.8,34260.1
34700.7,34167.6
34743.2,34064.8
34765,33955.6
34765,33844.4
34743.2,33735.2
34700.7,33632.4
34638.8,33539.9
34560.1,33461.2
34468.6,33400
34560.1,33338.8
34638.8,33260.1
34700.7,33167.6
34743.2,33064.8
34765,32955.6
34765,32844.4
34743.2,32735.2
34700.7,32632.4
34638.8,32539.9
34560.1,32461.2
34468.6,32400
34560.1,32338.8
34638.8,32260.1
34700.7,32167.6
34743.2,32064.8
34765,31955.6
34765,31844.4
34762.6,31832.4
36935.3,29659.6
36948.7,29648.7
36992.4,29595.4
37024.9,29534.6
37033.5,29506.2
37044.9,29468.6
37049.9,29418.1
37050,29417.2
37050,29417.2
37051.7,29400
37050,29382.8
37050,18930.9
37079.9,18921.8
37140.3,18889.5
37193.3,18846
37236.8,18793.1
37269.1,18732.6
37289,18667
37295.7,18598.8
37295.7,18303.5
37289,18235.3
37269.1,18169.7
37236.8,18109.3
37193.3,18056.3
37140.3,18012.8
37079.9,17980.5
37014.3,17960.6
36946.1,17953.9
36453.9,17953.9
36385.7,17960.6
36320.1,17980.5
36259.7,18012.8
36206.7,18056.3
36163.2,18109.3
36130.9,18169.7
36111,18235.3
36104.3,18303.5
36104.3,18598.8
36111,18667
36130.9,18732.6
36163.2,18793.1
36206.7,18846
36259.7,18889.5
36320.1,18921.8
36350,18930.9
36350,29255
34764.2,30840.8
34762.6,30832.4
35435.3,30159.6
35448.7,30148.7
35492.4,30095.4
35524.9,30034.6
35532.8,30008.6
35544.9,29968.6
35546.8,29950
35550,29917.2
35550,29917.2
35551.7,29900
35550,29882.8
35550,18930.9
35579.9,18921.8
35640.3,18889.5
35693.3,18846
35736.8,18793.1
35769.1,18732.6
35789,18667
35795.7,18598.8
35795.7,18303.5
35789,18235.3
35769.1,18169.7
35736.8,18109.3
35693.3,18056.3
35640.3,18012.8
35579.9,17980.5
35514.3,17960.6
35446.1,17953.9
34953.9,17953.9
34885.7,17960.6
34820.1,17980.5
34759.7,18012.8
34706.7,18056.3
34663.2,18109.3
34630.9,18169.7
34611,18235.3
34604.3,18303.5
34604.3,18598.8
34611,18667
34630.9,18732.6
34663.2,18793.1
34706.7,18846
34759.7,18889.5
34820.1,18921.8
34850,18930.9
34850,29755
34764.2,29840.8
34743.2,29735.2
34700.7,29632.4
34638.8,29539.9
34560.1,29461.2
34468.6,29400
34560.1,29338.8
34638.8,29260.1
34700.7,29167.6
34743.2,29064.8
34765,28955.6
34765,28844.4
34743.2,28735.2
34700.7,28632.4
34638.8,28539.9
34560.1,28461.2
34468.6,28400
34560.1,28338.8
34638.8,28260.1
34700.7,28167.6
34743.2,28064.8
34765,27955.6
34765,27844.4
34743.2,27735.2
34700.7,27632.4
34638.8,27539.9
34560.1,27461.2
34468.6,27400
34560.1,27338.8
34638.8,27260.1
34700.7,27167.6
34743.2,27064.8
34765,26955.6
34765,26844.4
34743.2,26735.2
34700.7,26632.4
34638.8,26539.9
34560.1,26461.2
34468.1,26399.6
34491.9,26386.9
34520.1,26290.8
34200,25970.7
33879.9,26290.8
33908.1,26386.9
33933.5,26398.9
33932.4,26399.3
33839.9,26461.2
33761.2,26539.9
33699.3,26632.4
33656.8,26735.2
33635,26844.4
33635,26955.6
33656.8,27064.8
33699.3,27167.6
33761.2,27260.1
33839.9,27338.8
33931.4,27400
33839.9,27461.2
33761.2,27539.9
33699.3,27632.4
33656.8,27735.2
33635,27844.4
33635,27955.6
33656.8,28064.8
33699.3,28167.6
33761.2,28260.1
33839.9,28338.8
33931.4,28400
33839.9,28461.2
33761.2,28539.9
33699.3,28632.4
33656.8,28735.2
33635,28844.4
33635,28955.6
33656.8,29064.8
33699.3,29167.6
33761.2,29260.1
33839.9,29338.8
33931.4,29400
33839.9,29461.2
33761.2,29539.9
33699.3,29632.4
33656.8,29735.2
33635,29844.4
33635,29955.6
33656.8,30064.8
33699.3,30167.6
33761.2,30260.1
33839.9,30338.8
33931.4,30400
33839.9,30461.2
33761.2,30539.9
33699.3,30632.4
33656.8,30735.2
33635,30844.4
33635,30955.6
33656.8,31064.8
33699.3,31167.6
33761.2,31260.1
33839.9,31338.8
33931.4,31400
33839.9,31461.2
33761.2,31539.9
33699.3,31632.4
33656.8,31735.2
33635,31844.4
33635,31955.6
33656.8,32064.8
33699.3,32167.6
33761.2,32260.1
33839.9,32338.8
33931.4,32400
33839.9,32461.2
33761.2,32539.9
33699.3,32632.4
33656.8,32735.2
33635,32844.4
33635,32955.6
33656.8,33064.8
33699.3,33167.6
33761.2,33260.1
33839.9,33338.8
33931.4,33400
33839.9,33461.2
33761.2,33539.9
33699.3,33632.4
33656.8,33735.2
33635,33844.4
33635,33955.6
33656.8,34064.8
33699.3,34167.6
33761.2,34260.1
33839.9,34338.8
33931.4,34400
33839.9,34461.2
33761.2,34539.9
33699.3,34632.4
33656.8,34735.2
33635,34844.4
33635,34955.6
33656.8,35064.8
33699.3,35167.6
33761.2,35260.1
33839.9,35338.8
33931.4,35400
33839.9,35461.2
33761.2,35539.9
33699.3,35632.4
33656.8,35735.2
33635,35844.4
33635,35955.6
33656.8,36064.8
33699.3,36167.6
33761.2,36260.1
33839.9,36338.8
33931.4,36400
33839.9,36461.2
33761.2,36539.9
33699.3,36632.4
33656.8,36735.2
33635,36844.4
33635,36955.6
33653.8,37050
33550,37050
33550,30109.6
33561.1,30093
33591.8,30018.9
33607.5,29940.1
33607.5,29859.9
33591.8,29781.1
33561.1,29707
33550,29690.4
33550,25927.8
33633,25927.8
33649.3,26037.8
33686.8,26142.6
33713.1,26191.9
33809.2,26220.1
34129.3,25900
34270.7,25900
34590.8,26220.1
34686.9,26191.9
34734.5,26091.3
34761.5,25983.4
34767,25872.2
34750.7,25762.2
34713.2,25657.4
34686.9,25608.1
34590.8,25579.9
34270.7,25900
34129.3,25900
33809.2,25579.9
33713.1,25608.1
33665.5,25708.7
33638.5,25816.6
33633,25927.8
33550,25927.8
33550,24109.6
33561.1,24093
33591.8,24018.9
33607.5,23940.1
33607.5,23859.9
33591.8,23781.1
33561.1,23707
33516.5,23640.2
33459.8,23583.5
33393,23538.9
33318.9,23508.2
33240.1,23492.5
33159.9,23492.5
33081.1,23508.2
33007,23538.9
32940.2,23583.5
32883.5,23640.2
32838.9,23707
32808.2,23781.1
32792.5,23859.9
32792.5,23940.1
32808.2,24018.9
32838.9,24093
32850,24109.6
32850,29690.4
32838.9,29707
32808.2,29781.1
32792.5,29859.9
32792.5,29940.1
32808.2,30018.9
32838.9,30093
32850,30109.6
32850,37050
31766.3,37050
31784.6,36957.6
31784.6,36842.4
31779.3,36815.7
32435.3,36159.6
32448.7,36148.7
32492.4,36095.4
32524.9,36034.6
32532.9,36008.2
32544.9,35968.6
32546.2,35955.5
32550,35917.2
32550,35917.2
32551.7,35900
32550,35882.8
32550,29917.2
32551.7,29900
32550,29882.8
32550,29882.8
32544.9,29831.4
32544.9,29831.4
32524.9,29765.4
32514,29744.9
32492.4,29704.6
32448.7,29651.3
32435.3,29640.4
31779.3,28984.3
31784.6,28957.6
31784.6,28842.4
31779.3,28815.7
32435.3,28159.6
32448.7,28148.7
32492.4,28095.4
32524.9,28034.6
32532.8,28008.6
32544.9,27968.6
32546.2,27955.5
32550,27917.2
32550,27917.2
32551.7,27900
32550,27882.8
32550,22585
33633.8,22585
33633.8,23215
33638.7,23264
33653,23311.1
33676.2,23354.5
33707.4,23392.6
33745.5,23423.8
33788.9,23447
33836,23461.3
33839.4,23461.7
33761.2,23539.9
33699.3,23632.4
33656.8,23735.2
33635,23844.4
33635,23955.6
33656.8,24064.8
33699.3,24167.6
33761.2,24260.1
33839.9,24338.8
33931.4,24400
33839.9,24461.2
33761.2,24539.9
33699.3,24632.4
33656.8,24735.2
33635,24844.4
33635,24955.6
33656.8,25064.8
33699.3,25167.6
33761.2,25260.1
33839.9,25338.8
33931.9,25400.4
33908.1,25413.1
33879.9,25509.2
34200,25829.3
34520.1,25509.2
34491.9,25413.1
34466.5,25401.1
34467.6,25400.7
34560.1,25338.8
34638.8,25260.1
34700.7,25167.6
34743.2,25064.8
34765,24955.6
34765,24844.4
34743.2,24735.2
34700.7,24632.4
34638.8,24539.9
34560.1,24461.2
34468.6,24400
34560.1,24338.8
34638.8,24260.1
34700.7,24167.6
34743.2,24064.8
34765,23955.6
34765,23844.4
34743.2,23735.2
34700.7,23632.4
34638.8,23539.9
34560.6,23461.7
34564,23461.3
34611.1,23447
34654.5,23423.8
34692.6,23392.6
34723.8,23354.5
34747,23311.1
34761.3,23264
34766.2,23215
34766.2,22585
34761.3,22536
34747,22488.9
34723.8,22445.5
34692.6,22407.4
34654.5,22376.2
34611.1,22353
34564,22338.7
34515,22333.8
33885,22333.8
33836,22338.7
33788.9,22353
33745.5,22376.2
33707.4,22407.4
33676.2,22445.5
33653,22488.9
33638.7,22536
33633.8,22585
32550,22585
32550,21917.2
32551.7,21900
32550,21882.8
32550,21882.8
32544.9,21831.4
32544.9,21831.4
32524.9,21765.4
32521.8,21759.5
32492.4,21704.6
32448.7,21651.3
32435.3,21640.4
31779.3,20984.3
31784.6,20957.6
31784.6,20842.4
31762.2,20729.5
31718.1,20623.1
31654.1,20527.3
31572.7,20445.9
31504,20400
31572.7,20354.1
31654.1,20272.7
31718.1,20176.9
31762.2,20070.5
31784.6,19957.6
31784.6,19842.4
31762.2,19729.5
31718.1,19623.1
31654.1,19527.3
31572.7,19445.9
31501,19398
31547,19370.5
31632.1,19293.8
31700.6,19201.9
31749.9,19098.5
31767.5,19040.5
31719.7,18950
31250,18950
31250,18957.9
31150,18957.9
31150,18950
30680.3,18950
30632.5,19040.5
30650.1,19098.5
30699.4,19201.9
30767.9,19293.8
30853,19370.5
30899,19398
30827.3,19445.9
30745.9,19527.3
30681.9,19623.1
30637.8,19729.5
30615.4,19842.4
30615.4,19957.6
30637.8,20070.5
30681.9,20176.9
30745.9,20272.7
30827.3,20354.1
30896,20400
30827.3,20445.9
30745.9,20527.3
30681.9,20623.1
30637.8,20729.5
30615.4,20842.4
30615.4,20957.6
30637.8,21070.5
30681.9,21176.9
30745.9,21272.7
30797.8,21324.6
30769.2,21333.3
30725.8,21356.5
30687.7,21387.7
30656.5,21425.8
30633.3,21469.2
30619,21516.3
30614.1,21565.4
30455,21565.4
30455,18759.5
30632.5,18759.5
30680.3,18850
31150,18850
31150,18380
31250,18380
31250,18850
31719.7,18850
31767.5,18759.5
31749.9,18701.5
31700.6,18598.1
31632.1,18506.2
31547,18429.5
31448.5,18370.8
31340.5,18332.5
31250,18380
31150,18380
31059.5,18332.5
30951.5,18370.8
30853,18429.5
30767.9,18506.2
30699.4,18598.1
30650.1,18701.5
30632.5,18759.5
30455,18759.5
30455,17847
38831.6,17847
38869.3,17951.1
38983.3,18006.6
39105.9,18038.7
39232.5,18046.3
39358.1,18029.1
39478,17987.7
39546.5,17951.1
39584.2,17847
39207.9,17470.7
38831.6,17847
30455,17847
30455,16463.3
30707.4,16463.3
30849.2,16656.1
31110.6,16798
31394.6,16886.1
31690.4,16917.1
31986.6,16889.8
32271.7,16805.3
32534.9,16666.8
32550.8,16656.1
32692.6,16463.3
31700,15470.7
30707.4,16463.3
30455,16463.3
30455,16259
30636.7,16392.6
31629.3,15400
31770.7,15400
32763.3,16392.6
32817.5,16352.8
34604.3,16352.8
34604.3,16598.8
34611,16667
34630.9,16732.6
34663.2,16793.1
34706.7,16846
34759.7,16889.5
34779.3,16900
34759.7,16910.5
34706.7,16954
34663.2,17006.9
34630.9,17067.4
34611,17133
34604.3,17201.2
34604.3,17496.5
34611,17564.7
34630.9,17630.3
34663.2,17690.7
34706.7,17743.7
34759.7,17787.2
34820.1,17819.5
34885.7,17839.4
34953.9,17846.1
35446.1,17846.1
35514.3,17839.4
35579.9,17819.5
35640.3,17787.2
35693.3,17743.7
35736.8,17690.7
35769.1,17630.3
35789,17564.7
35795.7,17496.5
35795.7,17201.2
35789,17133
35769.1,17067.4
35736.8,17006.9
35693.3,16954
35640.3,16910.5
35620.7,16900
35640.3,16889.5
35693.3,16846
35736.8,16793.1
35769.1,16732.6
35789,16667
35795.7,16598.8
35795.7,16352.8
36104.3,16352.8
36104.3,16598.8
36111,16667
36130.9,16732.6
36163.2,16793.1
36206.7,16846
36259.7,16889.5
36279.3,16900
36259.7,16910.5
36206.7,16954
36163.2,17006.9
36130.9,17067.4
36111,17133
36104.3,17201.2
36104.3,17496.5
36111,17564.7
36130.9,17630.3
36163.2,17690.7
36206.7,17743.7
36259.7,17787.2
36320.1,17819.5
36385.7,17839.4
36453.9,17846.1
36946.1,17846.1
37014.3,17839.4
37079.9,17819.5
37140.3,17787.2
37193.3,17743.7
37236.8,17690.7
37269.1,17630.3
37289,17564.7
37295.7,17496.5
37295.7,17424.6
38561.5,17424.6
38578.8,17550.3
38620.2,17670.1
38656.8,17738.6
38760.9,17776.3
39137.2,17400
39278.6,17400
39654.9,17776.3
39759,17738.6
39814.5,17624.6
39846.6,17501.9
39854.2,17375.4
39837,17249.7
39795.6,17129.9
39759,17061.4
39654.9,17023.7
39278.6,17400
39137.2,17400
38760.9,17023.7
38656.8,17061.4
38601.3,17175.4
38569.1,17298.1
38561.5,17424.6
37295.7,17424.6
37295.7,17201.2
37289,17133
37269.1,17067.4
37236.8,17006.9
37193.3,16954
37192.1,16953
38831.6,16953
39207.9,17329.3
39584.2,16953
39546.5,16848.9
39432.5,16793.4
39309.8,16761.3
39183.2,16753.7
39057.6,16770.9
38937.8,16812.3
38869.3,16848.9
38831.6,16953
37192.1,16953
37140.3,16910.5
37120.7,16900
37140.3,16889.5
37193.3,16846
37236.8,16793.1
37269.1,16732.6
37289,16667
37295.7,16598.8
37295.7,16463.3
43707.4,16463.3
43849.2,16656.1
44110.6,16798
44394.6,16886.1
44690.4,16917.1
44986.6,16889.8
45271.7,16805.3
45534.9,16666.8
45550.8,16656.1
45692.6,16463.3
44700,15470.7
43707.4,16463.3
37295.7,16463.3
37295.7,16352.8
37289,16284.5
37269.1,16219
37236.8,16158.5
37193.3,16105.5
37140.3,16062
37079.9,16029.7
37014.3,16009.8
36946.1,16003.1
36453.9,16003.1
36385.7,16009.8
36320.1,16029.7
36259.7,16062
36206.7,16105.5
36163.2,16158.5
36130.9,16219
36111,16284.5
36104.3,16352.8
35795.7,16352.8
35789,16284.5
35769.1,16219
35736.8,16158.5
35693.3,16105.5
35640.3,16062
35579.9,16029.7
35514.3,16009.8
35446.1,16003.1
34953.9,16003.1
34885.7,16009.8
34820.1,16029.7
34759.7,16062
34706.7,16105.5
34663.2,16158.5
34630.9,16219
34611,16284.5
34604.3,16352.8
32817.5,16352.8
32956.1,16250.8
33098,15989.4
33186.1,15705.4
33202.8,15545.7
34604.3,15545.7
34609.1,15594.7
34623.4,15641.8
34646.6,15685.2
34677.9,15723.3
34715.9,15754.5
34759.4,15777.8
34806.5,15792.1
34855.5,15796.9
35087.5,15795.7
35150,15733.2
35150,15374.2
35250,15374.2
35250,15733.2
35312.5,15795.7
35544.5,15796.9
35593.5,15792.1
35640.6,15777.8
35684.1,15754.5
35722.1,15723.3
35753.4,15685.2
35776.6,15641.8
35790.9,15594.7
35795.7,15545.7
36104.3,15545.7
36109.1,15594.7
36123.4,15641.8
36146.6,15685.2
36177.9,15723.3
36215.9,15754.5
36259.4,15777.8
36306.5,15792.1
36355.5,15796.9
36587.5,15795.7
36650,15733.2
36650,15374.2
36750,15374.2
36750,15733.2
36812.5,15795.7
37044.5,15796.9
37093.5,15792.1
37140.6,15777.8
37184.1,15754.5
37222.1,15723.3
37253.4,15685.2
37276.6,15641.8
37290.9,15594.7
37295.7,15545.7
37294.5,15436.7
37248.2,15390.4
43182.9,15390.4
43210.2,15686.6
43294.7,15971.7
43433.2,16234.9
43443.9,16250.8
43636.7,16392.6
44629.3,15400
43636.7,14407.4
43443.9,14549.2
43302,14810.6
43213.9,15094.6
43182.9,15390.4
37248.2,15390.4
37232,15374.2
36750,15374.2
36650,15374.2
36168,15374.2
36105.5,15436.7
36104.3,15545.7
35795.7,15545.7
35794.5,15436.7
35732,15374.2
35250,15374.2
35150,15374.2
34668,15374.2
34605.5,15436.7
34604.3,15545.7
33202.8,15545.7
33217.1,15409.6
33189.8,15113.4
33186.7,15102.8
34604.3,15102.8
34605.5,15211.7
34668,15274.2
35150,15274.2
35150,14915.3
35250,14915.3
35250,15274.2
35732,15274.2
35794.5,15211.7
35795.7,15102.8
36104.3,15102.8
36105.5,15211.7
36168,15274.2
36650,15274.2
36650,14915.3
36750,14915.3
36750,15274.2
37232,15274.2
37294.5,15211.7
37295.7,15102.8
37290.9,15053.7
37276.6,15006.6
37253.4,14963.2
37222.1,14925.1
37184.1,14893.9
37140.6,14870.7
37093.5,14856.4
37044.5,14851.5
36812.5,14852.8
36750,14915.3
36650,14915.3
36587.5,14852.8
36355.5,14851.5
36306.5,14856.4
36259.4,14870.7
36215.9,14893.9
36177.9,14925.1
36146.6,14963.2
36123.4,15006.6
36109.1,15053.7
36104.3,15102.8
35795.7,15102.8
35790.9,15053.7
35776.6,15006.6
35753.4,14963.2
35722.1,14925.1
35684.1,14893.9
35640.6,14870.7
35593.5,14856.4
35544.5,14851.5
35312.5,14852.8
35250,14915.3
35150,14915.3
35087.5,14852.8
34855.5,14851.5
34806.5,14856.4
34759.4,14870.7
34715.9,14893.9
34677.9,14925.1
34646.6,14963.2
34623.4,15006.6
34609.1,15053.7
34604.3,15102.8
33186.7,15102.8
33105.3,14828.3
32966.8,14565.1
32956.1,14549.2
32763.3,14407.4
31770.7,15400
31629.3,15400
31623.7,15394.4
31694.4,15323.7
31700,15329.3
32692.6,14336.7
32559,14155
43841,14155
Z" /> 
</g>
</g>
</g> 
</svg>
