%TF.GenerationSoftware,KiCad,Pcbnew,(5.1.12)-1*%
%TF.CreationDate,2022-01-27T23:25:20+05:30*%
%TF.ProjectId,M5_BuggyProject,4d355f42-7567-4677-9950-726f6a656374,v1.0*%
%TF.SameCoordinates,Original*%
%TF.FileFunction,Legend,Bot*%
%TF.FilePolarity,Positive*%
%FSLAX46Y46*%
G04 Gerber Fmt 4.6, Leading zero omitted, Abs format (unit mm)*
G04 Created by KiCad (PCBNEW (5.1.12)-1) date 2022-01-27 23:25:20*
%MOMM*%
%LPD*%
G01*
G04 APERTURE LIST*
%ADD10C,0.150000*%
%ADD11C,0.152400*%
G04 APERTURE END LIST*
D10*
X91675857Y-66662904D02*
X92522523Y-66662904D01*
X91675857Y-66118619D02*
X92341095Y-66118619D01*
X92462047Y-66179095D01*
X92522523Y-66300047D01*
X92522523Y-66481476D01*
X92462047Y-66602428D01*
X92401571Y-66662904D01*
X92522523Y-67267666D02*
X91675857Y-67267666D01*
X91796809Y-67267666D02*
X91736333Y-67328142D01*
X91675857Y-67449095D01*
X91675857Y-67630523D01*
X91736333Y-67751476D01*
X91857285Y-67811952D01*
X92522523Y-67811952D01*
X91857285Y-67811952D02*
X91736333Y-67872428D01*
X91675857Y-67993380D01*
X91675857Y-68174809D01*
X91736333Y-68295761D01*
X91857285Y-68356238D01*
X92522523Y-68356238D01*
X92522523Y-69505285D02*
X91857285Y-69505285D01*
X91736333Y-69444809D01*
X91675857Y-69323857D01*
X91675857Y-69081952D01*
X91736333Y-68961000D01*
X92462047Y-69505285D02*
X92522523Y-69384333D01*
X92522523Y-69081952D01*
X92462047Y-68961000D01*
X92341095Y-68900523D01*
X92220142Y-68900523D01*
X92099190Y-68961000D01*
X92038714Y-69081952D01*
X92038714Y-69384333D01*
X91978238Y-69505285D01*
X92462047Y-70049571D02*
X92522523Y-70170523D01*
X92522523Y-70412428D01*
X92462047Y-70533380D01*
X92341095Y-70593857D01*
X92280619Y-70593857D01*
X92159666Y-70533380D01*
X92099190Y-70412428D01*
X92099190Y-70231000D01*
X92038714Y-70110047D01*
X91917761Y-70049571D01*
X91857285Y-70049571D01*
X91736333Y-70110047D01*
X91675857Y-70231000D01*
X91675857Y-70412428D01*
X91736333Y-70533380D01*
X92462047Y-71077666D02*
X92522523Y-71198619D01*
X92522523Y-71440523D01*
X92462047Y-71561476D01*
X92341095Y-71621952D01*
X92280619Y-71621952D01*
X92159666Y-71561476D01*
X92099190Y-71440523D01*
X92099190Y-71259095D01*
X92038714Y-71138142D01*
X91917761Y-71077666D01*
X91857285Y-71077666D01*
X91736333Y-71138142D01*
X91675857Y-71259095D01*
X91675857Y-71440523D01*
X91736333Y-71561476D01*
X92522523Y-72710523D02*
X91857285Y-72710523D01*
X91736333Y-72650047D01*
X91675857Y-72529095D01*
X91675857Y-72287190D01*
X91736333Y-72166238D01*
X92462047Y-72710523D02*
X92522523Y-72589571D01*
X92522523Y-72287190D01*
X92462047Y-72166238D01*
X92341095Y-72105761D01*
X92220142Y-72105761D01*
X92099190Y-72166238D01*
X92038714Y-72287190D01*
X92038714Y-72589571D01*
X91978238Y-72710523D01*
X92522523Y-73315285D02*
X91675857Y-73315285D01*
X91796809Y-73315285D02*
X91736333Y-73375761D01*
X91675857Y-73496714D01*
X91675857Y-73678142D01*
X91736333Y-73799095D01*
X91857285Y-73859571D01*
X92522523Y-73859571D01*
X91857285Y-73859571D02*
X91736333Y-73920047D01*
X91675857Y-74041000D01*
X91675857Y-74222428D01*
X91736333Y-74343380D01*
X91857285Y-74403857D01*
X92522523Y-74403857D01*
X92522523Y-75008619D02*
X91252523Y-75008619D01*
X92522523Y-75552904D02*
X91857285Y-75552904D01*
X91736333Y-75492428D01*
X91675857Y-75371476D01*
X91675857Y-75190047D01*
X91736333Y-75069095D01*
X91796809Y-75008619D01*
X92462047Y-76641476D02*
X92522523Y-76520523D01*
X92522523Y-76278619D01*
X92462047Y-76157666D01*
X92341095Y-76097190D01*
X91857285Y-76097190D01*
X91736333Y-76157666D01*
X91675857Y-76278619D01*
X91675857Y-76520523D01*
X91736333Y-76641476D01*
X91857285Y-76701952D01*
X91978238Y-76701952D01*
X92099190Y-76097190D01*
X92522523Y-77246238D02*
X91675857Y-77246238D01*
X91917761Y-77246238D02*
X91796809Y-77306714D01*
X91736333Y-77367190D01*
X91675857Y-77488142D01*
X91675857Y-77609095D01*
X92462047Y-77971952D02*
X92522523Y-78092904D01*
X92522523Y-78334809D01*
X92462047Y-78455761D01*
X92341095Y-78516238D01*
X92280619Y-78516238D01*
X92159666Y-78455761D01*
X92099190Y-78334809D01*
X92099190Y-78153380D01*
X92038714Y-78032428D01*
X91917761Y-77971952D01*
X91857285Y-77971952D01*
X91736333Y-78032428D01*
X91675857Y-78153380D01*
X91675857Y-78334809D01*
X91736333Y-78455761D01*
X91675857Y-78879095D02*
X91675857Y-79362904D01*
X91252523Y-79060523D02*
X92341095Y-79060523D01*
X92462047Y-79121000D01*
X92522523Y-79241952D01*
X92522523Y-79362904D01*
X92522523Y-79786238D02*
X91675857Y-79786238D01*
X91796809Y-79786238D02*
X91736333Y-79846714D01*
X91675857Y-79967666D01*
X91675857Y-80149095D01*
X91736333Y-80270047D01*
X91857285Y-80330523D01*
X92522523Y-80330523D01*
X91857285Y-80330523D02*
X91736333Y-80391000D01*
X91675857Y-80511952D01*
X91675857Y-80693380D01*
X91736333Y-80814333D01*
X91857285Y-80874809D01*
X92522523Y-80874809D01*
X91252523Y-82084333D02*
X91252523Y-81479571D01*
X91857285Y-81419095D01*
X91796809Y-81479571D01*
X91736333Y-81600523D01*
X91736333Y-81902904D01*
X91796809Y-82023857D01*
X91857285Y-82084333D01*
X91978238Y-82144809D01*
X92280619Y-82144809D01*
X92401571Y-82084333D01*
X92462047Y-82023857D01*
X92522523Y-81902904D01*
X92522523Y-81600523D01*
X92462047Y-81479571D01*
X92401571Y-81419095D01*
X92401571Y-82689095D02*
X92462047Y-82749571D01*
X92522523Y-82689095D01*
X92462047Y-82628619D01*
X92401571Y-82689095D01*
X92522523Y-82689095D01*
X92522523Y-83475285D02*
X92462047Y-83354333D01*
X92401571Y-83293857D01*
X92280619Y-83233380D01*
X91917761Y-83233380D01*
X91796809Y-83293857D01*
X91736333Y-83354333D01*
X91675857Y-83475285D01*
X91675857Y-83656714D01*
X91736333Y-83777666D01*
X91796809Y-83838142D01*
X91917761Y-83898619D01*
X92280619Y-83898619D01*
X92401571Y-83838142D01*
X92462047Y-83777666D01*
X92522523Y-83656714D01*
X92522523Y-83475285D01*
X92522523Y-84442904D02*
X91675857Y-84442904D01*
X91917761Y-84442904D02*
X91796809Y-84503380D01*
X91736333Y-84563857D01*
X91675857Y-84684809D01*
X91675857Y-84805761D01*
X91675857Y-85773380D02*
X92703952Y-85773380D01*
X92824904Y-85712904D01*
X92885380Y-85652428D01*
X92945857Y-85531476D01*
X92945857Y-85350047D01*
X92885380Y-85229095D01*
X92462047Y-85773380D02*
X92522523Y-85652428D01*
X92522523Y-85410523D01*
X92462047Y-85289571D01*
X92401571Y-85229095D01*
X92280619Y-85168619D01*
X91917761Y-85168619D01*
X91796809Y-85229095D01*
X91736333Y-85289571D01*
X91675857Y-85410523D01*
X91675857Y-85652428D01*
X91736333Y-85773380D01*
D11*
X101691621Y-43062797D02*
X100548621Y-43062797D01*
X100548621Y-43334940D01*
X100603050Y-43498225D01*
X100711907Y-43607082D01*
X100820764Y-43661511D01*
X101038478Y-43715940D01*
X101201764Y-43715940D01*
X101419478Y-43661511D01*
X101528335Y-43607082D01*
X101637192Y-43498225D01*
X101691621Y-43334940D01*
X101691621Y-43062797D01*
X101637192Y-44641225D02*
X101691621Y-44532368D01*
X101691621Y-44314654D01*
X101637192Y-44205797D01*
X101528335Y-44151368D01*
X101092907Y-44151368D01*
X100984050Y-44205797D01*
X100929621Y-44314654D01*
X100929621Y-44532368D01*
X100984050Y-44641225D01*
X101092907Y-44695654D01*
X101201764Y-44695654D01*
X101310621Y-44151368D01*
X101637192Y-45131082D02*
X101691621Y-45239940D01*
X101691621Y-45457654D01*
X101637192Y-45566511D01*
X101528335Y-45620940D01*
X101473907Y-45620940D01*
X101365050Y-45566511D01*
X101310621Y-45457654D01*
X101310621Y-45294368D01*
X101256192Y-45185511D01*
X101147335Y-45131082D01*
X101092907Y-45131082D01*
X100984050Y-45185511D01*
X100929621Y-45294368D01*
X100929621Y-45457654D01*
X100984050Y-45566511D01*
X101691621Y-46110797D02*
X100929621Y-46110797D01*
X100548621Y-46110797D02*
X100603050Y-46056368D01*
X100657478Y-46110797D01*
X100603050Y-46165225D01*
X100548621Y-46110797D01*
X100657478Y-46110797D01*
X100929621Y-47144940D02*
X101854907Y-47144940D01*
X101963764Y-47090511D01*
X102018192Y-47036082D01*
X102072621Y-46927225D01*
X102072621Y-46763940D01*
X102018192Y-46655082D01*
X101637192Y-47144940D02*
X101691621Y-47036082D01*
X101691621Y-46818368D01*
X101637192Y-46709511D01*
X101582764Y-46655082D01*
X101473907Y-46600654D01*
X101147335Y-46600654D01*
X101038478Y-46655082D01*
X100984050Y-46709511D01*
X100929621Y-46818368D01*
X100929621Y-47036082D01*
X100984050Y-47144940D01*
X100929621Y-47689225D02*
X101691621Y-47689225D01*
X101038478Y-47689225D02*
X100984050Y-47743654D01*
X100929621Y-47852511D01*
X100929621Y-48015797D01*
X100984050Y-48124654D01*
X101092907Y-48179082D01*
X101691621Y-48179082D01*
X101637192Y-49158797D02*
X101691621Y-49049940D01*
X101691621Y-48832225D01*
X101637192Y-48723368D01*
X101528335Y-48668940D01*
X101092907Y-48668940D01*
X100984050Y-48723368D01*
X100929621Y-48832225D01*
X100929621Y-49049940D01*
X100984050Y-49158797D01*
X101092907Y-49213225D01*
X101201764Y-49213225D01*
X101310621Y-48668940D01*
X101691621Y-49703082D02*
X100929621Y-49703082D01*
X101147335Y-49703082D02*
X101038478Y-49757511D01*
X100984050Y-49811940D01*
X100929621Y-49920797D01*
X100929621Y-50029654D01*
X101637192Y-50356225D02*
X101691621Y-50465082D01*
X101691621Y-50682797D01*
X101637192Y-50791654D01*
X101528335Y-50846082D01*
X101473907Y-50846082D01*
X101365050Y-50791654D01*
X101310621Y-50682797D01*
X101310621Y-50519511D01*
X101256192Y-50410654D01*
X101147335Y-50356225D01*
X101092907Y-50356225D01*
X100984050Y-50410654D01*
X100929621Y-50519511D01*
X100929621Y-50682797D01*
X100984050Y-50791654D01*
X101582764Y-51335940D02*
X101637192Y-51390368D01*
X101691621Y-51335940D01*
X101637192Y-51281511D01*
X101582764Y-51335940D01*
X101691621Y-51335940D01*
X100984050Y-51335940D02*
X101038478Y-51390368D01*
X101092907Y-51335940D01*
X101038478Y-51281511D01*
X100984050Y-51335940D01*
X101092907Y-51335940D01*
X101365050Y-52696654D02*
X101365050Y-53240940D01*
X101691621Y-52587797D02*
X100548621Y-52968797D01*
X101691621Y-53349797D01*
X101691621Y-53730797D02*
X100548621Y-53730797D01*
X101256192Y-53839654D02*
X101691621Y-54166225D01*
X100929621Y-54166225D02*
X101365050Y-53730797D01*
X101637192Y-54601654D02*
X101691621Y-54710511D01*
X101691621Y-54928225D01*
X101637192Y-55037082D01*
X101528335Y-55091511D01*
X101473907Y-55091511D01*
X101365050Y-55037082D01*
X101310621Y-54928225D01*
X101310621Y-54764940D01*
X101256192Y-54656082D01*
X101147335Y-54601654D01*
X101092907Y-54601654D01*
X100984050Y-54656082D01*
X100929621Y-54764940D01*
X100929621Y-54928225D01*
X100984050Y-55037082D01*
X101691621Y-55581368D02*
X100548621Y-55581368D01*
X101691621Y-56071225D02*
X101092907Y-56071225D01*
X100984050Y-56016797D01*
X100929621Y-55907940D01*
X100929621Y-55744654D01*
X100984050Y-55635797D01*
X101038478Y-55581368D01*
X101691621Y-57105368D02*
X101092907Y-57105368D01*
X100984050Y-57050940D01*
X100929621Y-56942082D01*
X100929621Y-56724368D01*
X100984050Y-56615511D01*
X101637192Y-57105368D02*
X101691621Y-56996511D01*
X101691621Y-56724368D01*
X101637192Y-56615511D01*
X101528335Y-56561082D01*
X101419478Y-56561082D01*
X101310621Y-56615511D01*
X101256192Y-56724368D01*
X101256192Y-56996511D01*
X101201764Y-57105368D01*
X100929621Y-57486368D02*
X100929621Y-57921797D01*
X100548621Y-57649654D02*
X101528335Y-57649654D01*
X101637192Y-57704082D01*
X101691621Y-57812940D01*
X101691621Y-57921797D01*
X101637192Y-59119225D02*
X101691621Y-59282511D01*
X101691621Y-59554654D01*
X101637192Y-59663511D01*
X101582764Y-59717940D01*
X101473907Y-59772368D01*
X101365050Y-59772368D01*
X101256192Y-59717940D01*
X101201764Y-59663511D01*
X101147335Y-59554654D01*
X101092907Y-59336940D01*
X101038478Y-59228082D01*
X100984050Y-59173654D01*
X100875192Y-59119225D01*
X100766335Y-59119225D01*
X100657478Y-59173654D01*
X100603050Y-59228082D01*
X100548621Y-59336940D01*
X100548621Y-59609082D01*
X100603050Y-59772368D01*
X101691621Y-60752082D02*
X101092907Y-60752082D01*
X100984050Y-60697654D01*
X100929621Y-60588797D01*
X100929621Y-60371082D01*
X100984050Y-60262225D01*
X101637192Y-60752082D02*
X101691621Y-60643225D01*
X101691621Y-60371082D01*
X101637192Y-60262225D01*
X101528335Y-60207797D01*
X101419478Y-60207797D01*
X101310621Y-60262225D01*
X101256192Y-60371082D01*
X101256192Y-60643225D01*
X101201764Y-60752082D01*
X101691621Y-61296368D02*
X100548621Y-61296368D01*
X101691621Y-61786225D02*
X101092907Y-61786225D01*
X100984050Y-61731797D01*
X100929621Y-61622940D01*
X100929621Y-61459654D01*
X100984050Y-61350797D01*
X101038478Y-61296368D01*
X101691621Y-62820368D02*
X101092907Y-62820368D01*
X100984050Y-62765940D01*
X100929621Y-62657082D01*
X100929621Y-62439368D01*
X100984050Y-62330511D01*
X101637192Y-62820368D02*
X101691621Y-62711511D01*
X101691621Y-62439368D01*
X101637192Y-62330511D01*
X101528335Y-62276082D01*
X101419478Y-62276082D01*
X101310621Y-62330511D01*
X101256192Y-62439368D01*
X101256192Y-62711511D01*
X101201764Y-62820368D01*
X100929621Y-63255797D02*
X101691621Y-63527940D01*
X100929621Y-63800082D02*
X101691621Y-63527940D01*
X101963764Y-63419082D01*
X102018192Y-63364654D01*
X102072621Y-63255797D01*
X100657478Y-65051940D02*
X100603050Y-65106368D01*
X100548621Y-65215225D01*
X100548621Y-65487368D01*
X100603050Y-65596225D01*
X100657478Y-65650654D01*
X100766335Y-65705082D01*
X100875192Y-65705082D01*
X101038478Y-65650654D01*
X101691621Y-64997511D01*
X101691621Y-65705082D01*
X100548621Y-66412654D02*
X100548621Y-66521511D01*
X100603050Y-66630368D01*
X100657478Y-66684797D01*
X100766335Y-66739225D01*
X100984050Y-66793654D01*
X101256192Y-66793654D01*
X101473907Y-66739225D01*
X101582764Y-66684797D01*
X101637192Y-66630368D01*
X101691621Y-66521511D01*
X101691621Y-66412654D01*
X101637192Y-66303797D01*
X101582764Y-66249368D01*
X101473907Y-66194940D01*
X101256192Y-66140511D01*
X100984050Y-66140511D01*
X100766335Y-66194940D01*
X100657478Y-66249368D01*
X100603050Y-66303797D01*
X100548621Y-66412654D01*
X100657478Y-67229082D02*
X100603050Y-67283511D01*
X100548621Y-67392368D01*
X100548621Y-67664511D01*
X100603050Y-67773368D01*
X100657478Y-67827797D01*
X100766335Y-67882225D01*
X100875192Y-67882225D01*
X101038478Y-67827797D01*
X101691621Y-67174654D01*
X101691621Y-67882225D01*
X100548621Y-68263225D02*
X100548621Y-68970797D01*
X100984050Y-68589797D01*
X100984050Y-68753082D01*
X101038478Y-68861940D01*
X101092907Y-68916368D01*
X101201764Y-68970797D01*
X101473907Y-68970797D01*
X101582764Y-68916368D01*
X101637192Y-68861940D01*
X101691621Y-68753082D01*
X101691621Y-68426511D01*
X101637192Y-68317654D01*
X101582764Y-68263225D01*
X101637192Y-69515082D02*
X101691621Y-69515082D01*
X101800478Y-69460654D01*
X101854907Y-69406225D01*
X101637192Y-70821368D02*
X101691621Y-70984654D01*
X101691621Y-71256797D01*
X101637192Y-71365654D01*
X101582764Y-71420082D01*
X101473907Y-71474511D01*
X101365050Y-71474511D01*
X101256192Y-71420082D01*
X101201764Y-71365654D01*
X101147335Y-71256797D01*
X101092907Y-71039082D01*
X101038478Y-70930225D01*
X100984050Y-70875797D01*
X100875192Y-70821368D01*
X100766335Y-70821368D01*
X100657478Y-70875797D01*
X100603050Y-70930225D01*
X100548621Y-71039082D01*
X100548621Y-71311225D01*
X100603050Y-71474511D01*
X101637192Y-72399797D02*
X101691621Y-72290940D01*
X101691621Y-72073225D01*
X101637192Y-71964368D01*
X101528335Y-71909940D01*
X101092907Y-71909940D01*
X100984050Y-71964368D01*
X100929621Y-72073225D01*
X100929621Y-72290940D01*
X100984050Y-72399797D01*
X101092907Y-72454225D01*
X101201764Y-72454225D01*
X101310621Y-71909940D01*
X101691621Y-72944082D02*
X100548621Y-72944082D01*
X100984050Y-72944082D02*
X100929621Y-73052940D01*
X100929621Y-73270654D01*
X100984050Y-73379511D01*
X101038478Y-73433940D01*
X101147335Y-73488368D01*
X101473907Y-73488368D01*
X101582764Y-73433940D01*
X101637192Y-73379511D01*
X101691621Y-73270654D01*
X101691621Y-73052940D01*
X101637192Y-72944082D01*
X101691621Y-74468082D02*
X101092907Y-74468082D01*
X100984050Y-74413654D01*
X100929621Y-74304797D01*
X100929621Y-74087082D01*
X100984050Y-73978225D01*
X101637192Y-74468082D02*
X101691621Y-74359225D01*
X101691621Y-74087082D01*
X101637192Y-73978225D01*
X101528335Y-73923797D01*
X101419478Y-73923797D01*
X101310621Y-73978225D01*
X101256192Y-74087082D01*
X101256192Y-74359225D01*
X101201764Y-74468082D01*
X101637192Y-74957940D02*
X101691621Y-75066797D01*
X101691621Y-75284511D01*
X101637192Y-75393368D01*
X101528335Y-75447797D01*
X101473907Y-75447797D01*
X101365050Y-75393368D01*
X101310621Y-75284511D01*
X101310621Y-75121225D01*
X101256192Y-75012368D01*
X101147335Y-74957940D01*
X101092907Y-74957940D01*
X100984050Y-75012368D01*
X100929621Y-75121225D01*
X100929621Y-75284511D01*
X100984050Y-75393368D01*
X100929621Y-75774368D02*
X100929621Y-76209797D01*
X100548621Y-75937654D02*
X101528335Y-75937654D01*
X101637192Y-75992082D01*
X101691621Y-76100940D01*
X101691621Y-76209797D01*
X101691621Y-76590797D02*
X100929621Y-76590797D01*
X100548621Y-76590797D02*
X100603050Y-76536368D01*
X100657478Y-76590797D01*
X100603050Y-76645225D01*
X100548621Y-76590797D01*
X100657478Y-76590797D01*
X101691621Y-77624940D02*
X101092907Y-77624940D01*
X100984050Y-77570511D01*
X100929621Y-77461654D01*
X100929621Y-77243940D01*
X100984050Y-77135082D01*
X101637192Y-77624940D02*
X101691621Y-77516082D01*
X101691621Y-77243940D01*
X101637192Y-77135082D01*
X101528335Y-77080654D01*
X101419478Y-77080654D01*
X101310621Y-77135082D01*
X101256192Y-77243940D01*
X101256192Y-77516082D01*
X101201764Y-77624940D01*
X100929621Y-78169225D02*
X101691621Y-78169225D01*
X101038478Y-78169225D02*
X100984050Y-78223654D01*
X100929621Y-78332511D01*
X100929621Y-78495797D01*
X100984050Y-78604654D01*
X101092907Y-78659082D01*
X101691621Y-78659082D01*
X101365050Y-80019797D02*
X101365050Y-80564082D01*
X101691621Y-79910940D02*
X100548621Y-80291940D01*
X101691621Y-80672940D01*
X101691621Y-81053940D02*
X100929621Y-81053940D01*
X101147335Y-81053940D02*
X101038478Y-81108368D01*
X100984050Y-81162797D01*
X100929621Y-81271654D01*
X100929621Y-81380511D01*
X101691621Y-81761511D02*
X100929621Y-81761511D01*
X101038478Y-81761511D02*
X100984050Y-81815940D01*
X100929621Y-81924797D01*
X100929621Y-82088082D01*
X100984050Y-82196940D01*
X101092907Y-82251368D01*
X101691621Y-82251368D01*
X101092907Y-82251368D02*
X100984050Y-82305797D01*
X100929621Y-82414654D01*
X100929621Y-82577940D01*
X100984050Y-82686797D01*
X101092907Y-82741225D01*
X101691621Y-82741225D01*
X101637192Y-83231082D02*
X101691621Y-83339940D01*
X101691621Y-83557654D01*
X101637192Y-83666511D01*
X101528335Y-83720940D01*
X101473907Y-83720940D01*
X101365050Y-83666511D01*
X101310621Y-83557654D01*
X101310621Y-83394368D01*
X101256192Y-83285511D01*
X101147335Y-83231082D01*
X101092907Y-83231082D01*
X100984050Y-83285511D01*
X100929621Y-83394368D01*
X100929621Y-83557654D01*
X100984050Y-83666511D01*
X100929621Y-84047511D02*
X100929621Y-84482940D01*
X100548621Y-84210797D02*
X101528335Y-84210797D01*
X101637192Y-84265225D01*
X101691621Y-84374082D01*
X101691621Y-84482940D01*
X101691621Y-84863940D02*
X100929621Y-84863940D01*
X101147335Y-84863940D02*
X101038478Y-84918368D01*
X100984050Y-84972797D01*
X100929621Y-85081654D01*
X100929621Y-85190511D01*
X101691621Y-85734797D02*
X101637192Y-85625940D01*
X101582764Y-85571511D01*
X101473907Y-85517082D01*
X101147335Y-85517082D01*
X101038478Y-85571511D01*
X100984050Y-85625940D01*
X100929621Y-85734797D01*
X100929621Y-85898082D01*
X100984050Y-86006940D01*
X101038478Y-86061368D01*
X101147335Y-86115797D01*
X101473907Y-86115797D01*
X101582764Y-86061368D01*
X101637192Y-86006940D01*
X101691621Y-85898082D01*
X101691621Y-85734797D01*
X100929621Y-86605654D02*
X101691621Y-86605654D01*
X101038478Y-86605654D02*
X100984050Y-86660082D01*
X100929621Y-86768940D01*
X100929621Y-86932225D01*
X100984050Y-87041082D01*
X101092907Y-87095511D01*
X101691621Y-87095511D01*
X100929621Y-88129654D02*
X101854907Y-88129654D01*
X101963764Y-88075225D01*
X102018192Y-88020797D01*
X102072621Y-87911940D01*
X102072621Y-87748654D01*
X102018192Y-87639797D01*
X101637192Y-88129654D02*
X101691621Y-88020797D01*
X101691621Y-87803082D01*
X101637192Y-87694225D01*
X101582764Y-87639797D01*
X101473907Y-87585368D01*
X101147335Y-87585368D01*
X101038478Y-87639797D01*
X100984050Y-87694225D01*
X100929621Y-87803082D01*
X100929621Y-88020797D01*
X100984050Y-88129654D01*
X100657478Y-89490368D02*
X100603050Y-89544797D01*
X100548621Y-89653654D01*
X100548621Y-89925797D01*
X100603050Y-90034654D01*
X100657478Y-90089082D01*
X100766335Y-90143511D01*
X100875192Y-90143511D01*
X101038478Y-90089082D01*
X101691621Y-89435940D01*
X101691621Y-90143511D01*
X100548621Y-90851082D02*
X100548621Y-90959940D01*
X100603050Y-91068797D01*
X100657478Y-91123225D01*
X100766335Y-91177654D01*
X100984050Y-91232082D01*
X101256192Y-91232082D01*
X101473907Y-91177654D01*
X101582764Y-91123225D01*
X101637192Y-91068797D01*
X101691621Y-90959940D01*
X101691621Y-90851082D01*
X101637192Y-90742225D01*
X101582764Y-90687797D01*
X101473907Y-90633368D01*
X101256192Y-90578940D01*
X100984050Y-90578940D01*
X100766335Y-90633368D01*
X100657478Y-90687797D01*
X100603050Y-90742225D01*
X100548621Y-90851082D01*
X100657478Y-91667511D02*
X100603050Y-91721940D01*
X100548621Y-91830797D01*
X100548621Y-92102940D01*
X100603050Y-92211797D01*
X100657478Y-92266225D01*
X100766335Y-92320654D01*
X100875192Y-92320654D01*
X101038478Y-92266225D01*
X101691621Y-91613082D01*
X101691621Y-92320654D01*
X100929621Y-93300368D02*
X101691621Y-93300368D01*
X100494192Y-93028225D02*
X101310621Y-92756082D01*
X101310621Y-93463654D01*
X103558521Y-77788225D02*
X103558521Y-77243940D01*
X102415521Y-77243940D01*
X103558521Y-78169225D02*
X102796521Y-78169225D01*
X102415521Y-78169225D02*
X102469950Y-78114797D01*
X102524378Y-78169225D01*
X102469950Y-78223654D01*
X102415521Y-78169225D01*
X102524378Y-78169225D01*
X103504092Y-79203368D02*
X103558521Y-79094511D01*
X103558521Y-78876797D01*
X103504092Y-78767940D01*
X103449664Y-78713511D01*
X103340807Y-78659082D01*
X103014235Y-78659082D01*
X102905378Y-78713511D01*
X102850950Y-78767940D01*
X102796521Y-78876797D01*
X102796521Y-79094511D01*
X102850950Y-79203368D01*
X103504092Y-80128654D02*
X103558521Y-80019797D01*
X103558521Y-79802082D01*
X103504092Y-79693225D01*
X103395235Y-79638797D01*
X102959807Y-79638797D01*
X102850950Y-79693225D01*
X102796521Y-79802082D01*
X102796521Y-80019797D01*
X102850950Y-80128654D01*
X102959807Y-80183082D01*
X103068664Y-80183082D01*
X103177521Y-79638797D01*
X102796521Y-80672940D02*
X103558521Y-80672940D01*
X102905378Y-80672940D02*
X102850950Y-80727368D01*
X102796521Y-80836225D01*
X102796521Y-80999511D01*
X102850950Y-81108368D01*
X102959807Y-81162797D01*
X103558521Y-81162797D01*
X103504092Y-81652654D02*
X103558521Y-81761511D01*
X103558521Y-81979225D01*
X103504092Y-82088082D01*
X103395235Y-82142511D01*
X103340807Y-82142511D01*
X103231950Y-82088082D01*
X103177521Y-81979225D01*
X103177521Y-81815940D01*
X103123092Y-81707082D01*
X103014235Y-81652654D01*
X102959807Y-81652654D01*
X102850950Y-81707082D01*
X102796521Y-81815940D01*
X102796521Y-81979225D01*
X102850950Y-82088082D01*
X103504092Y-83067797D02*
X103558521Y-82958940D01*
X103558521Y-82741225D01*
X103504092Y-82632368D01*
X103395235Y-82577940D01*
X102959807Y-82577940D01*
X102850950Y-82632368D01*
X102796521Y-82741225D01*
X102796521Y-82958940D01*
X102850950Y-83067797D01*
X102959807Y-83122225D01*
X103068664Y-83122225D01*
X103177521Y-82577940D01*
X103449664Y-83612082D02*
X103504092Y-83666511D01*
X103558521Y-83612082D01*
X103504092Y-83557654D01*
X103449664Y-83612082D01*
X103558521Y-83612082D01*
X102850950Y-83612082D02*
X102905378Y-83666511D01*
X102959807Y-83612082D01*
X102905378Y-83557654D01*
X102850950Y-83612082D01*
X102959807Y-83612082D01*
X103449664Y-85680368D02*
X103504092Y-85625940D01*
X103558521Y-85462654D01*
X103558521Y-85353797D01*
X103504092Y-85190511D01*
X103395235Y-85081654D01*
X103286378Y-85027225D01*
X103068664Y-84972797D01*
X102905378Y-84972797D01*
X102687664Y-85027225D01*
X102578807Y-85081654D01*
X102469950Y-85190511D01*
X102415521Y-85353797D01*
X102415521Y-85462654D01*
X102469950Y-85625940D01*
X102524378Y-85680368D01*
X103449664Y-86823368D02*
X103504092Y-86768940D01*
X103558521Y-86605654D01*
X103558521Y-86496797D01*
X103504092Y-86333511D01*
X103395235Y-86224654D01*
X103286378Y-86170225D01*
X103068664Y-86115797D01*
X102905378Y-86115797D01*
X102687664Y-86170225D01*
X102578807Y-86224654D01*
X102469950Y-86333511D01*
X102415521Y-86496797D01*
X102415521Y-86605654D01*
X102469950Y-86768940D01*
X102524378Y-86823368D01*
X102959807Y-88565082D02*
X103014235Y-88728368D01*
X103068664Y-88782797D01*
X103177521Y-88837225D01*
X103340807Y-88837225D01*
X103449664Y-88782797D01*
X103504092Y-88728368D01*
X103558521Y-88619511D01*
X103558521Y-88184082D01*
X102415521Y-88184082D01*
X102415521Y-88565082D01*
X102469950Y-88673940D01*
X102524378Y-88728368D01*
X102633235Y-88782797D01*
X102742092Y-88782797D01*
X102850950Y-88728368D01*
X102905378Y-88673940D01*
X102959807Y-88565082D01*
X102959807Y-88184082D01*
X103014235Y-89544797D02*
X103558521Y-89544797D01*
X102415521Y-89163797D02*
X103014235Y-89544797D01*
X102415521Y-89925797D01*
X102796521Y-91667511D02*
X103558521Y-91667511D01*
X102361092Y-91395368D02*
X103177521Y-91123225D01*
X103177521Y-91830797D01*
X103449664Y-92266225D02*
X103504092Y-92320654D01*
X103558521Y-92266225D01*
X103504092Y-92211797D01*
X103449664Y-92266225D01*
X103558521Y-92266225D01*
X102415521Y-93028225D02*
X102415521Y-93137082D01*
X102469950Y-93245940D01*
X102524378Y-93300368D01*
X102633235Y-93354797D01*
X102850950Y-93409225D01*
X103123092Y-93409225D01*
X103340807Y-93354797D01*
X103449664Y-93300368D01*
X103504092Y-93245940D01*
X103558521Y-93137082D01*
X103558521Y-93028225D01*
X103504092Y-92919368D01*
X103449664Y-92864940D01*
X103340807Y-92810511D01*
X103123092Y-92756082D01*
X102850950Y-92756082D01*
X102633235Y-92810511D01*
X102524378Y-92864940D01*
X102469950Y-92919368D01*
X102415521Y-93028225D01*
M02*
