<?xml version="1.0" standalone="no"?>
 <!DOCTYPE svg PUBLIC "-//W3C//DTD SVG 1.1//EN" 
 "http://www.w3.org/Graphics/SVG/1.1/DTD/svg11.dtd"> 
<svg
  xmlns:svg="http://www.w3.org/2000/svg"
  xmlns="http://www.w3.org/2000/svg"
  xmlns:xlink="http://www.w3.org/1999/xlink"
  version="1.1"
  width="17.780000cm" height="17.780000cm" viewBox="0 0 70000 70000">
<title>SVG Picture created as M5_BuggyProject-B_SilkS.svg date 2022/03/10 12:53:45 </title>
  <desc>Picture generated by PCBNEW </desc>
<g style="fill:#000000; fill-opacity:1;stroke:#000000; stroke-opacity:1;
stroke-linecap:round; stroke-linejoin:round;"
 transform="translate(0 0) scale(1 1)">
</g>
<g style="fill:#000000; fill-opacity:0.0; 
stroke:#000000; stroke-width:-0.000393701; stroke-opacity:1; 
stroke-linecap:round; stroke-linejoin:round;">
</g>
<g style="fill:#000000; fill-opacity:0.0; 
stroke:#000000; stroke-width:59.0551; stroke-opacity:1; 
stroke-linecap:round; stroke-linejoin:round;">
<g transform="rotate(-90 41700 14900)">
<text x="41700" y="15096.9"
transform="scale(-1 1) translate(-83400.000000 0)"
textLength="3972.72" font-size="524.934" lengthAdjust="spacingAndGlyphs"
text-anchor="middle" opacity="0">JLCJLCJLCJLC</text>
</g>
<path d="M41484 13081
L41765 13081
L41821 13062
L41859 13025
L41878 12968
L41878 12931
" />
<path d="M41878 13456
L41878 13268
L41484 13268
" />
<path d="M41840 13812
L41859 13793
L41878 13737
L41878 13700
L41859 13643
L41821 13606
L41784 13587
L41709 13568
L41653 13568
L41578 13587
L41540 13606
L41503 13643
L41484 13700
L41484 13737
L41503 13793
L41521 13812
" />
<path d="M41484 14093
L41765 14093
L41821 14075
L41859 14037
L41878 13981
L41878 13943
" />
<path d="M41878 14468
L41878 14281
L41484 14281
" />
<path d="M41840 14825
L41859 14806
L41878 14750
L41878 14712
L41859 14656
L41821 14618
L41784 14600
L41709 14581
L41653 14581
L41578 14600
L41540 14618
L41503 14656
L41484 14712
L41484 14750
L41503 14806
L41521 14825
" />
<path d="M41484 15106
L41765 15106
L41821 15087
L41859 15049
L41878 14993
L41878 14956
" />
<path d="M41878 15481
L41878 15293
L41484 15293
" />
<path d="M41840 15837
L41859 15818
L41878 15762
L41878 15724
L41859 15668
L41821 15631
L41784 15612
L41709 15593
L41653 15593
L41578 15612
L41540 15631
L41503 15668
L41484 15724
L41484 15762
L41503 15818
L41521 15837
" />
<path d="M41484 16118
L41765 16118
L41821 16099
L41859 16062
L41878 16006
L41878 15968
" />
<path d="M41878 16493
L41878 16306
L41484 16306
" />
<path d="M41840 16849
L41859 16831
L41878 16774
L41878 16737
L41859 16681
L41821 16643
L41784 16624
L41709 16606
L41653 16606
L41578 16624
L41540 16643
L41503 16681
L41484 16737
L41484 16774
L41503 16831
L41521 16849
" />
<g transform="rotate(-90 37200 22400)">
<text x="37200" y="22650"
transform="scale(-1 1) translate(-74400.000000 0)"
textLength="7899.42" font-size="666.667" lengthAdjust="spacingAndGlyphs"
text-anchor="middle" opacity="0">umassamherstm5.org</text>
</g>
<path d="M37092 18745
L37426 18745
" />
<path d="M37092 18530
L37354 18530
L37402 18554
L37426 18602
L37426 18673
L37402 18721
L37378 18745
" />
<path d="M37426 18983
L37092 18983
" />
<path d="M37140 18983
L37116 19007
L37092 19054
L37092 19126
L37116 19173
L37164 19197
L37426 19197
" />
<path d="M37164 19197
L37116 19221
L37092 19269
L37092 19340
L37116 19388
L37164 19411
L37426 19411
" />
<path d="M37426 19864
L37164 19864
L37116 19840
L37092 19792
L37092 19697
L37116 19650
" />
<path d="M37402 19864
L37426 19816
L37426 19697
L37402 19650
L37354 19626
L37307 19626
L37259 19650
L37235 19697
L37235 19816
L37211 19864
" />
<path d="M37402 20078
L37426 20126
L37426 20221
L37402 20269
L37354 20292
L37330 20292
L37283 20269
L37259 20221
L37259 20150
L37235 20102
L37188 20078
L37164 20078
L37116 20102
L37092 20150
L37092 20221
L37116 20269
" />
<path d="M37402 20483
L37426 20530
L37426 20626
L37402 20673
L37354 20697
L37330 20697
L37283 20673
L37259 20626
L37259 20554
L37235 20507
L37188 20483
L37164 20483
L37116 20507
L37092 20554
L37092 20626
L37116 20673
" />
<path d="M37426 21126
L37164 21126
L37116 21102
L37092 21054
L37092 20959
L37116 20911
" />
<path d="M37402 21126
L37426 21078
L37426 20959
L37402 20911
L37354 20888
L37307 20888
L37259 20911
L37235 20959
L37235 21078
L37211 21126
" />
<path d="M37426 21364
L37092 21364
" />
<path d="M37140 21364
L37116 21388
L37092 21435
L37092 21507
L37116 21554
L37164 21578
L37426 21578
" />
<path d="M37164 21578
L37116 21602
L37092 21650
L37092 21721
L37116 21769
L37164 21792
L37426 21792
" />
<path d="M37426 22030
L36926 22030
" />
<path d="M37426 22245
L37164 22245
L37116 22221
L37092 22173
L37092 22102
L37116 22054
L37140 22030
" />
<path d="M37402 22673
L37426 22626
L37426 22530
L37402 22483
L37354 22459
L37164 22459
L37116 22483
L37092 22530
L37092 22626
L37116 22673
L37164 22697
L37211 22697
L37259 22459
" />
<path d="M37426 22911
L37092 22911
" />
<path d="M37188 22911
L37140 22935
L37116 22959
L37092 23007
L37092 23054
" />
<path d="M37402 23197
L37426 23245
L37426 23340
L37402 23388
L37354 23411
L37330 23411
L37283 23388
L37259 23340
L37259 23269
L37235 23221
L37188 23197
L37164 23197
L37116 23221
L37092 23269
L37092 23340
L37116 23388
" />
<path d="M37092 23554
L37092 23745
" />
<path d="M36926 23626
L37354 23626
L37402 23650
L37426 23697
L37426 23745
" />
<path d="M37426 23911
L37092 23911
" />
<path d="M37140 23911
L37116 23935
L37092 23983
L37092 24054
L37116 24102
L37164 24126
L37426 24126
" />
<path d="M37164 24126
L37116 24150
L37092 24197
L37092 24269
L37116 24316
L37164 24340
L37426 24340
" />
<path d="M36926 24816
L36926 24578
L37164 24554
L37140 24578
L37116 24626
L37116 24745
L37140 24792
L37164 24816
L37211 24840
L37330 24840
L37378 24816
L37402 24792
L37426 24745
L37426 24626
L37402 24578
L37378 24554
" />
<path d="M37378 25054
L37402 25078
L37426 25054
L37402 25030
L37378 25054
L37426 25054
" />
<path d="M37426 25364
L37402 25316
L37378 25292
L37330 25269
L37188 25269
L37140 25292
L37116 25316
L37092 25364
L37092 25435
L37116 25483
L37140 25507
L37188 25530
L37330 25530
L37378 25507
L37402 25483
L37426 25435
L37426 25364
" />
<path d="M37426 25745
L37092 25745
" />
<path d="M37188 25745
L37140 25769
L37116 25792
L37092 25840
L37092 25888
" />
<path d="M37092 26269
L37497 26269
L37545 26245
L37569 26221
L37592 26173
L37592 26102
L37569 26054
" />
<path d="M37402 26269
L37426 26221
L37426 26126
L37402 26078
L37378 26054
L37330 26030
L37188 26030
L37140 26054
L37116 26078
L37092 26126
L37092 26221
L37116 26269
" />
</g>
<g style="fill:#000000; fill-opacity:0.0; 
stroke:#000000; stroke-width:60; stroke-opacity:1; 
stroke-linecap:round; stroke-linejoin:round;">
<g transform="rotate(-90 38832.5 32400)">
<text x="38832.5" y="32625"
transform="scale(-1 1) translate(-77665.000000 0)"
textLength="19937.5" font-size="600" lengthAdjust="spacingAndGlyphs"
text-anchor="end" opacity="0">Designers: Akshat Sahay 2023, Sebastian Armstrong 2024</text>
</g>
<path d="M39036 12453
L38586 12453
L38586 12561
L38607 12625
L38650 12668
L38693 12689
L38778 12711
L38843 12711
L38928 12689
L38971 12668
L39014 12625
L39036 12561
L39036 12453
" />
<path d="M39014 13075
L39036 13032
L39036 12946
L39014 12903
L38971 12882
L38800 12882
L38757 12903
L38736 12946
L38736 13032
L38757 13075
L38800 13096
L38843 13096
L38886 12882
" />
<path d="M39014 13268
L39036 13311
L39036 13396
L39014 13439
L38971 13461
L38950 13461
L38907 13439
L38886 13396
L38886 13332
L38864 13289
L38821 13268
L38800 13268
L38757 13289
L38736 13332
L38736 13396
L38757 13439
" />
<path d="M39036 13653
L38736 13653
" />
<path d="M38586 13653
L38607 13632
L38628 13653
L38607 13675
L38586 13653
L38628 13653
" />
<path d="M38736 14061
L39100 14061
L39143 14039
L39164 14018
L39186 13975
L39186 13911
L39164 13868
" />
<path d="M39014 14061
L39036 14018
L39036 13932
L39014 13889
L38993 13868
L38950 13846
L38821 13846
L38778 13868
L38757 13889
L38736 13932
L38736 14018
L38757 14061
" />
<path d="M38736 14275
L39036 14275
" />
<path d="M38778 14275
L38757 14296
L38736 14339
L38736 14403
L38757 14446
L38800 14468
L39036 14468
" />
<path d="M39014 14853
L39036 14811
L39036 14725
L39014 14682
L38971 14661
L38800 14661
L38757 14682
L38736 14725
L38736 14811
L38757 14853
L38800 14875
L38843 14875
L38886 14661
" />
<path d="M39036 15068
L38736 15068
" />
<path d="M38821 15068
L38778 15089
L38757 15111
L38736 15153
L38736 15196
" />
<path d="M39014 15325
L39036 15368
L39036 15453
L39014 15496
L38971 15518
L38950 15518
L38907 15496
L38886 15453
L38886 15389
L38864 15346
L38821 15325
L38800 15325
L38757 15346
L38736 15389
L38736 15453
L38757 15496
" />
<path d="M38993 15711
L39014 15732
L39036 15711
L39014 15689
L38993 15711
L39036 15711
" />
<path d="M38757 15711
L38778 15732
L38800 15711
L38778 15689
L38757 15711
L38800 15711
" />
<path d="M38907 16246
L38907 16461
" />
<path d="M39036 16203
L38586 16353
L39036 16503
" />
<path d="M39036 16653
L38586 16653
" />
<path d="M38864 16696
L39036 16825
" />
<path d="M38736 16825
L38907 16653
" />
<path d="M39014 16996
L39036 17039
L39036 17125
L39014 17168
L38971 17189
L38950 17189
L38907 17168
L38886 17125
L38886 17061
L38864 17018
L38821 16996
L38800 16996
L38757 17018
L38736 17061
L38736 17125
L38757 17168
" />
<path d="M39036 17382
L38586 17382
" />
<path d="M39036 17575
L38800 17575
L38757 17553
L38736 17511
L38736 17446
L38757 17403
L38778 17382
" />
<path d="M39036 17982
L38800 17982
L38757 17961
L38736 17918
L38736 17832
L38757 17789
" />
<path d="M39014 17982
L39036 17939
L39036 17832
L39014 17789
L38971 17768
L38928 17768
L38886 17789
L38864 17832
L38864 17939
L38843 17982
" />
<path d="M38736 18132
L38736 18303
" />
<path d="M38586 18196
L38971 18196
L39014 18218
L39036 18261
L39036 18303
" />
<path d="M39014 18775
L39036 18839
L39036 18946
L39014 18989
L38993 19011
L38950 19032
L38907 19032
L38864 19011
L38843 18989
L38821 18946
L38800 18861
L38778 18818
L38757 18796
L38714 18775
L38671 18775
L38628 18796
L38607 18818
L38586 18861
L38586 18968
L38607 19032
" />
<path d="M39036 19418
L38800 19418
L38757 19396
L38736 19353
L38736 19268
L38757 19225
" />
<path d="M39014 19418
L39036 19375
L39036 19268
L39014 19225
L38971 19203
L38928 19203
L38886 19225
L38864 19268
L38864 19375
L38843 19418
" />
<path d="M39036 19632
L38586 19632
" />
<path d="M39036 19825
L38800 19825
L38757 19803
L38736 19761
L38736 19696
L38757 19653
L38778 19632
" />
<path d="M39036 20232
L38800 20232
L38757 20211
L38736 20168
L38736 20082
L38757 20039
" />
<path d="M39014 20232
L39036 20189
L39036 20082
L39014 20039
L38971 20018
L38928 20018
L38886 20039
L38864 20082
L38864 20189
L38843 20232
" />
<path d="M38736 20403
L39036 20511
" />
<path d="M38736 20618
L39036 20511
L39143 20468
L39164 20446
L39186 20403
" />
<path d="M38628 21111
L38607 21132
L38586 21175
L38586 21282
L38607 21325
L38628 21346
L38671 21368
L38714 21368
L38778 21346
L39036 21089
L39036 21368
" />
<path d="M38586 21646
L38586 21689
L38607 21732
L38628 21753
L38671 21775
L38757 21796
L38864 21796
L38950 21775
L38993 21753
L39014 21732
L39036 21689
L39036 21646
L39014 21603
L38993 21582
L38950 21561
L38864 21539
L38757 21539
L38671 21561
L38628 21582
L38607 21603
L38586 21646
" />
<path d="M38628 21968
L38607 21989
L38586 22032
L38586 22139
L38607 22182
L38628 22203
L38671 22225
L38714 22225
L38778 22203
L39036 21946
L39036 22225
" />
<path d="M38586 22375
L38586 22653
L38757 22503
L38757 22568
L38778 22611
L38800 22632
L38843 22653
L38950 22653
L38993 22632
L39014 22611
L39036 22568
L39036 22439
L39014 22396
L38993 22375
" />
<path d="M39014 22868
L39036 22868
L39078 22846
L39100 22825
" />
<path d="M39014 23382
L39036 23446
L39036 23553
L39014 23596
L38993 23618
L38950 23639
L38907 23639
L38864 23618
L38843 23596
L38821 23553
L38800 23468
L38778 23425
L38757 23403
L38714 23382
L38671 23382
L38628 23403
L38607 23425
L38586 23468
L38586 23575
L38607 23639
" />
<path d="M39014 24003
L39036 23961
L39036 23875
L39014 23832
L38971 23811
L38800 23811
L38757 23832
L38736 23875
L38736 23961
L38757 24003
L38800 24025
L38843 24025
L38886 23811
" />
<path d="M39036 24218
L38586 24218
" />
<path d="M38757 24218
L38736 24261
L38736 24346
L38757 24389
L38778 24411
L38821 24432
L38950 24432
L38993 24411
L39014 24389
L39036 24346
L39036 24261
L39014 24218
" />
<path d="M39036 24818
L38800 24818
L38757 24796
L38736 24753
L38736 24668
L38757 24625
" />
<path d="M39014 24818
L39036 24775
L39036 24668
L39014 24625
L38971 24603
L38928 24603
L38886 24625
L38864 24668
L38864 24775
L38843 24818
" />
<path d="M39014 25011
L39036 25053
L39036 25139
L39014 25182
L38971 25203
L38950 25203
L38907 25182
L38886 25139
L38886 25075
L38864 25032
L38821 25011
L38800 25011
L38757 25032
L38736 25075
L38736 25139
L38757 25182
" />
<path d="M38736 25332
L38736 25503
" />
<path d="M38586 25396
L38971 25396
L39014 25418
L39036 25461
L39036 25503
" />
<path d="M39036 25653
L38736 25653
" />
<path d="M38586 25653
L38607 25632
L38628 25653
L38607 25675
L38586 25653
L38628 25653
" />
<path d="M39036 26061
L38800 26061
L38757 26039
L38736 25996
L38736 25911
L38757 25868
" />
<path d="M39014 26061
L39036 26018
L39036 25911
L39014 25868
L38971 25846
L38928 25846
L38886 25868
L38864 25911
L38864 26018
L38843 26061
" />
<path d="M38736 26275
L39036 26275
" />
<path d="M38778 26275
L38757 26296
L38736 26339
L38736 26403
L38757 26446
L38800 26468
L39036 26468
" />
<path d="M38907 27003
L38907 27218
" />
<path d="M39036 26961
L38586 27111
L39036 27261
" />
<path d="M39036 27411
L38736 27411
" />
<path d="M38821 27411
L38778 27432
L38757 27453
L38736 27496
L38736 27539
" />
<path d="M39036 27689
L38736 27689
" />
<path d="M38778 27689
L38757 27711
L38736 27753
L38736 27818
L38757 27861
L38800 27882
L39036 27882
" />
<path d="M38800 27882
L38757 27903
L38736 27946
L38736 28011
L38757 28053
L38800 28075
L39036 28075
" />
<path d="M39014 28268
L39036 28311
L39036 28396
L39014 28439
L38971 28461
L38950 28461
L38907 28439
L38886 28396
L38886 28332
L38864 28289
L38821 28268
L38800 28268
L38757 28289
L38736 28332
L38736 28396
L38757 28439
" />
<path d="M38736 28589
L38736 28761
" />
<path d="M38586 28653
L38971 28653
L39014 28675
L39036 28718
L39036 28761
" />
<path d="M39036 28911
L38736 28911
" />
<path d="M38821 28911
L38778 28932
L38757 28953
L38736 28996
L38736 29039
" />
<path d="M39036 29253
L39014 29211
L38993 29189
L38950 29168
L38821 29168
L38778 29189
L38757 29211
L38736 29253
L38736 29318
L38757 29361
L38778 29382
L38821 29403
L38950 29403
L38993 29382
L39014 29361
L39036 29318
L39036 29253
" />
<path d="M38736 29596
L39036 29596
" />
<path d="M38778 29596
L38757 29618
L38736 29661
L38736 29725
L38757 29768
L38800 29789
L39036 29789
" />
<path d="M38736 30196
L39100 30196
L39143 30175
L39164 30153
L39186 30111
L39186 30046
L39164 30003
" />
<path d="M39014 30196
L39036 30153
L39036 30068
L39014 30025
L38993 30003
L38950 29982
L38821 29982
L38778 30003
L38757 30025
L38736 30068
L38736 30153
L38757 30196
" />
<path d="M38628 30732
L38607 30753
L38586 30796
L38586 30903
L38607 30946
L38628 30968
L38671 30989
L38714 30989
L38778 30968
L39036 30711
L39036 30989
" />
<path d="M38586 31268
L38586 31311
L38607 31353
L38628 31375
L38671 31396
L38757 31418
L38864 31418
L38950 31396
L38993 31375
L39014 31353
L39036 31311
L39036 31268
L39014 31225
L38993 31203
L38950 31182
L38864 31161
L38757 31161
L38671 31182
L38628 31203
L38607 31225
L38586 31268
" />
<path d="M38628 31589
L38607 31611
L38586 31653
L38586 31761
L38607 31803
L38628 31825
L38671 31846
L38714 31846
L38778 31825
L39036 31568
L39036 31846
" />
<path d="M38736 32232
L39036 32232
" />
<path d="M38564 32125
L38886 32018
L38886 32296
" />
<g transform="rotate(-90 39567.5 32400)">
<text x="39567.5" y="32625"
transform="scale(-1 1) translate(-79135.000000 0)"
textLength="6479.14" font-size="600" lengthAdjust="spacingAndGlyphs"
text-anchor="end" opacity="0">License: CC BY 4.0</text>
</g>
<path d="M39771 26125
L39771 25911
L39321 25911
" />
<path d="M39771 26275
L39471 26275
" />
<path d="M39321 26275
L39342 26253
L39363 26275
L39342 26296
L39321 26275
L39363 26275
" />
<path d="M39749 26682
L39771 26639
L39771 26553
L39749 26511
L39728 26489
L39685 26468
L39556 26468
L39513 26489
L39492 26511
L39471 26553
L39471 26639
L39492 26682
" />
<path d="M39749 27046
L39771 27003
L39771 26918
L39749 26875
L39706 26853
L39535 26853
L39492 26875
L39471 26918
L39471 27003
L39492 27046
L39535 27068
L39578 27068
L39621 26853
" />
<path d="M39471 27261
L39771 27261
" />
<path d="M39513 27261
L39492 27282
L39471 27325
L39471 27389
L39492 27432
L39535 27453
L39771 27453
" />
<path d="M39749 27646
L39771 27689
L39771 27775
L39749 27818
L39706 27839
L39685 27839
L39642 27818
L39621 27775
L39621 27711
L39599 27668
L39556 27646
L39535 27646
L39492 27668
L39471 27711
L39471 27775
L39492 27818
" />
<path d="M39749 28203
L39771 28161
L39771 28075
L39749 28032
L39706 28011
L39535 28011
L39492 28032
L39471 28075
L39471 28161
L39492 28203
L39535 28225
L39578 28225
L39621 28011
" />
<path d="M39728 28418
L39749 28439
L39771 28418
L39749 28396
L39728 28418
L39771 28418
" />
<path d="M39492 28418
L39513 28439
L39535 28418
L39513 28396
L39492 28418
L39535 28418
" />
<path d="M39728 29232
L39749 29211
L39771 29146
L39771 29103
L39749 29039
L39706 28996
L39663 28975
L39578 28953
L39513 28953
L39428 28975
L39385 28996
L39342 29039
L39321 29103
L39321 29146
L39342 29211
L39363 29232
" />
<path d="M39728 29682
L39749 29661
L39771 29596
L39771 29553
L39749 29489
L39706 29446
L39663 29425
L39578 29403
L39513 29403
L39428 29425
L39385 29446
L39342 29489
L39321 29553
L39321 29596
L39342 29661
L39363 29682
" />
<path d="M39535 30368
L39556 30432
L39578 30453
L39621 30475
L39685 30475
L39728 30453
L39749 30432
L39771 30389
L39771 30218
L39321 30218
L39321 30368
L39342 30411
L39363 30432
L39406 30453
L39449 30453
L39492 30432
L39513 30411
L39535 30368
L39535 30218
" />
<path d="M39556 30753
L39771 30753
" />
<path d="M39321 30603
L39556 30753
L39321 30903
" />
<path d="M39471 31589
L39771 31589
" />
<path d="M39299 31482
L39621 31375
L39621 31653
" />
<path d="M39728 31825
L39749 31846
L39771 31825
L39749 31803
L39728 31825
L39771 31825
" />
<path d="M39321 32125
L39321 32168
L39342 32211
L39363 32232
L39406 32253
L39492 32275
L39599 32275
L39685 32253
L39728 32232
L39749 32211
L39771 32168
L39771 32125
L39749 32082
L39728 32061
L39685 32039
L39599 32018
L39492 32018
L39406 32039
L39363 32061
L39342 32082
L39321 32125
" />
<g >
</g>
</g> 
</svg>
