<?xml version="1.0" standalone="no"?>
 <!DOCTYPE svg PUBLIC "-//W3C//DTD SVG 1.1//EN" 
 "http://www.w3.org/Graphics/SVG/1.1/DTD/svg11.dtd"> 
<svg
  xmlns:svg="http://www.w3.org/2000/svg"
  xmlns="http://www.w3.org/2000/svg"
  xmlns:xlink="http://www.w3.org/1999/xlink"
  version="1.1"
  width="17.780000cm" height="17.780000cm" viewBox="0 0 70000 70000">
<title>SVG Picture created as M5_BuggyProject-F_SilkS.svg date 2022/01/28 00:36:10 </title>
  <desc>Picture generated by PCBNEW </desc>
<g style="fill:#000000; fill-opacity:1;stroke:#000000; stroke-opacity:1;
stroke-linecap:round; stroke-linejoin:round;"
 transform="translate(0 0) scale(1 1)">
</g>
<g style="fill:#000000; fill-opacity:0.0; 
stroke:#000000; stroke-width:-0.000393701; stroke-opacity:1; 
stroke-linecap:round; stroke-linejoin:round;">
</g>
<g style="fill:#000000; fill-opacity:0.0; 
stroke:#000000; stroke-width:59.0551; stroke-opacity:1; 
stroke-linecap:round; stroke-linejoin:round;">
<text x="38200" y="27596.9"
textLength="4049.49" font-size="524.934" lengthAdjust="spacingAndGlyphs"
text-anchor="middle" opacity="0">JLCJLCJLCJLC</text>
<path d="M36381 27184
L36381 27465
L36362 27521
L36325 27559
L36268 27578
L36231 27578
" />
<path d="M36756 27578
L36568 27578
L36568 27184
" />
<path d="M37112 27540
L37093 27559
L37037 27578
L37000 27578
L36943 27559
L36906 27521
L36887 27484
L36868 27409
L36868 27353
L36887 27278
L36906 27240
L36943 27203
L37000 27184
L37037 27184
L37093 27203
L37112 27221
" />
<path d="M37393 27184
L37393 27465
L37375 27521
L37337 27559
L37281 27578
L37243 27578
" />
<path d="M37768 27578
L37581 27578
L37581 27184
" />
<path d="M38125 27540
L38106 27559
L38050 27578
L38012 27578
L37956 27559
L37918 27521
L37900 27484
L37881 27409
L37881 27353
L37900 27278
L37918 27240
L37956 27203
L38012 27184
L38050 27184
L38106 27203
L38125 27221
" />
<path d="M38406 27184
L38406 27465
L38387 27521
L38349 27559
L38293 27578
L38256 27578
" />
<path d="M38781 27578
L38593 27578
L38593 27184
" />
<path d="M39137 27540
L39118 27559
L39062 27578
L39024 27578
L38968 27559
L38931 27521
L38912 27484
L38893 27409
L38893 27353
L38912 27278
L38931 27240
L38968 27203
L39024 27184
L39062 27184
L39118 27203
L39137 27221
" />
<path d="M39418 27184
L39418 27465
L39399 27521
L39362 27559
L39306 27578
L39268 27578
" />
<path d="M39793 27578
L39606 27578
L39606 27184
" />
<path d="M40149 27540
L40131 27559
L40074 27578
L40037 27578
L39981 27559
L39943 27521
L39924 27484
L39906 27409
L39906 27353
L39924 27278
L39943 27240
L39981 27203
L40037 27184
L40074 27184
L40131 27203
L40149 27221
" />
<text x="40700" y="47596.9"
textLength="1201.63" font-size="524.934" lengthAdjust="spacingAndGlyphs"
text-anchor="middle" opacity="0">VCC</text>
<path d="M40175 47184
L40306 47578
L40437 47184
" />
<path d="M40793 47540
L40774 47559
L40718 47578
L40681 47578
L40625 47559
L40587 47521
L40568 47484
L40550 47409
L40550 47353
L40568 47278
L40587 47240
L40625 47203
L40681 47184
L40718 47184
L40774 47203
L40793 47221
" />
<path d="M41187 47540
L41168 47559
L41112 47578
L41074 47578
L41018 47559
L40981 47521
L40962 47484
L40943 47409
L40943 47353
L40962 47278
L40981 47240
L41018 47203
L41074 47184
L41112 47184
L41168 47203
L41187 47221
" />
<text x="38700" y="47596.9"
textLength="1164.14" font-size="524.934" lengthAdjust="spacingAndGlyphs"
text-anchor="middle" opacity="0">10V</text>
<path d="M38456 47578
L38231 47578
" />
<path d="M38343 47578
L38343 47184
L38306 47240
L38268 47278
L38231 47296
" />
<path d="M38700 47184
L38737 47184
L38774 47203
L38793 47221
L38812 47259
L38831 47334
L38831 47428
L38812 47503
L38793 47540
L38774 47559
L38737 47578
L38700 47578
L38662 47559
L38643 47540
L38625 47503
L38606 47428
L38606 47334
L38625 47259
L38643 47221
L38662 47203
L38700 47184
" />
<path d="M38943 47184
L39074 47578
L39206 47184
" />
<g transform="rotate(-90 35970 17900)">
<text x="35970" y="18096.9"
textLength="1989.03" font-size="524.934" lengthAdjust="spacingAndGlyphs"
text-anchor="middle" opacity="0">CON_R</text>
</g>
<path d="M36110 18537
L36129 18556
L36148 18612
L36148 18649
L36129 18706
L36091 18743
L36054 18762
L35979 18781
L35923 18781
L35848 18762
L35810 18743
L35773 18706
L35754 18649
L35754 18612
L35773 18556
L35791 18537
" />
<path d="M35754 18293
L35754 18218
L35773 18181
L35810 18143
L35885 18124
L36016 18124
L36091 18143
L36129 18181
L36148 18218
L36148 18293
L36129 18331
L36091 18368
L36016 18387
L35885 18387
L35810 18368
L35773 18331
L35754 18293
" />
<path d="M36148 17956
L35754 17956
L36148 17731
L35754 17731
" />
<path d="M36185 17637
L36185 17337
" />
<path d="M36148 17018
L35960 17150
" />
<path d="M36148 17243
L35754 17243
L35754 17093
L35773 17056
L35791 17037
L35829 17018
L35885 17018
L35923 17037
L35941 17056
L35960 17093
L35960 17243
" />
<g transform="rotate(-90 34400 17900)">
<text x="34400" y="18096.9"
textLength="1914.04" font-size="524.934" lengthAdjust="spacingAndGlyphs"
text-anchor="middle" opacity="0">CON_L</text>
</g>
<path d="M34540 18499
L34559 18518
L34578 18574
L34578 18612
L34559 18668
L34521 18706
L34484 18724
L34409 18743
L34353 18743
L34278 18724
L34240 18706
L34203 18668
L34184 18612
L34184 18574
L34203 18518
L34221 18499
" />
<path d="M34184 18256
L34184 18181
L34203 18143
L34240 18106
L34315 18087
L34446 18087
L34521 18106
L34559 18143
L34578 18181
L34578 18256
L34559 18293
L34521 18331
L34446 18349
L34315 18349
L34240 18331
L34203 18293
L34184 18256
" />
<path d="M34578 17918
L34184 17918
L34578 17693
L34184 17693
" />
<path d="M34615 17600
L34615 17300
" />
<path d="M34578 17018
L34578 17206
L34184 17206
" />
<text x="41700" y="42146.9"
textLength="564.211" font-size="524.934" lengthAdjust="spacingAndGlyphs"
text-anchor="middle" opacity="0">-</text>
<path d="M41550 41978
L41849 41978
" />
<text x="41700" y="44896.9"
textLength="564.211" font-size="524.934" lengthAdjust="spacingAndGlyphs"
text-anchor="middle" opacity="0">+</text>
<path d="M41550 44728
L41849 44728
" />
<path d="M41700 44878
L41700 44578
" />
<text x="45200" y="42846.9"
textLength="564.211" font-size="524.934" lengthAdjust="spacingAndGlyphs"
text-anchor="middle" opacity="0">-</text>
<path d="M45050 42678
L45349 42678
" />
<text x="45200" y="45346.9"
textLength="564.211" font-size="524.934" lengthAdjust="spacingAndGlyphs"
text-anchor="middle" opacity="0">+</text>
<path d="M45050 45178
L45349 45178
" />
<path d="M45200 45328
L45200 45028
" />
</g>
<g style="fill:#000000; fill-opacity:0.0; 
stroke:#000000; stroke-width:47.2441; stroke-opacity:1; 
stroke-linecap:round; stroke-linejoin:round;">
<path d="M30700 45000
L30700 46000
" />
</g>
<g style="fill:#000000; fill-opacity:0.0; 
stroke:#000000; stroke-width:30; stroke-opacity:1; 
stroke-linecap:round; stroke-linejoin:round;">
<text x="32950" y="45900"
textLength="4291.06" font-size="400" lengthAdjust="spacingAndGlyphs"
text-anchor="middle" opacity="0">@UMassAmherstM5</text>
<path d="M31100 45742
L31085 45728
L31057 45714
L31028 45714
L31000 45728
L30985 45742
L30971 45771
L30971 45800
L30985 45828
L31000 45842
L31028 45857
L31057 45857
L31085 45842
L31100 45828
" />
<path d="M31100 45714
L31100 45828
L31114 45842
L31128 45842
L31157 45828
L31171 45800
L31171 45728
L31142 45685
L31100 45657
L31042 45642
L30985 45657
L30942 45685
L30914 45728
L30900 45785
L30914 45842
L30942 45885
L30985 45914
L31042 45928
L31100 45914
L31142 45885
" />
<path d="M31300 45585
L31300 45828
L31314 45857
L31328 45871
L31357 45885
L31414 45885
L31442 45871
L31457 45857
L31471 45828
L31471 45585
" />
<path d="M31614 45885
L31614 45585
L31714 45800
L31814 45585
L31814 45885
" />
<path d="M32085 45885
L32085 45728
L32071 45700
L32042 45685
L31985 45685
L31957 45700
" />
<path d="M32085 45871
L32057 45885
L31985 45885
L31957 45871
L31942 45842
L31942 45814
L31957 45785
L31985 45771
L32057 45771
L32085 45757
" />
<path d="M32214 45871
L32242 45885
L32300 45885
L32328 45871
L32342 45842
L32342 45828
L32328 45800
L32300 45785
L32257 45785
L32228 45771
L32214 45742
L32214 45728
L32228 45700
L32257 45685
L32300 45685
L32328 45700
" />
<path d="M32457 45871
L32485 45885
L32542 45885
L32571 45871
L32585 45842
L32585 45828
L32571 45800
L32542 45785
L32500 45785
L32471 45771
L32457 45742
L32457 45728
L32471 45700
L32500 45685
L32542 45685
L32571 45700
" />
<path d="M32700 45800
L32842 45800
" />
<path d="M32671 45885
L32771 45585
L32871 45885
" />
<path d="M32971 45885
L32971 45685
" />
<path d="M32971 45714
L32985 45700
L33014 45685
L33057 45685
L33085 45700
L33100 45728
L33100 45885
" />
<path d="M33100 45728
L33114 45700
L33142 45685
L33185 45685
L33214 45700
L33228 45728
L33228 45885
" />
<path d="M33371 45885
L33371 45585
" />
<path d="M33500 45885
L33500 45728
L33485 45700
L33457 45685
L33414 45685
L33385 45700
L33371 45714
" />
<path d="M33757 45871
L33728 45885
L33671 45885
L33642 45871
L33628 45842
L33628 45728
L33642 45700
L33671 45685
L33728 45685
L33757 45700
L33771 45728
L33771 45757
L33628 45785
" />
<path d="M33900 45885
L33900 45685
" />
<path d="M33900 45742
L33914 45714
L33928 45700
L33957 45685
L33985 45685
" />
<path d="M34071 45871
L34100 45885
L34157 45885
L34185 45871
L34200 45842
L34200 45828
L34185 45800
L34157 45785
L34114 45785
L34085 45771
L34071 45742
L34071 45728
L34085 45700
L34114 45685
L34157 45685
L34185 45700
" />
<path d="M34285 45685
L34400 45685
" />
<path d="M34328 45585
L34328 45842
L34342 45871
L34371 45885
L34400 45885
" />
<path d="M34500 45885
L34500 45585
L34600 45800
L34700 45585
L34700 45885
" />
<path d="M34985 45585
L34842 45585
L34828 45728
L34842 45714
L34871 45700
L34942 45700
L34971 45714
L34985 45728
L35000 45757
L35000 45828
L34985 45857
L34971 45871
L34942 45885
L34871 45885
L34842 45871
L34828 45857
" />
<text x="32950" y="45400"
textLength="4167.57" font-size="400" lengthAdjust="spacingAndGlyphs"
text-anchor="middle" opacity="0">#UMassAmherstM5</text>
<path d="M30942 45185
L31157 45185
" />
<path d="M31028 45057
L30942 45442
" />
<path d="M31128 45314
L30914 45314
" />
<path d="M31042 45442
L31128 45057
" />
<path d="M31257 45085
L31257 45328
L31271 45357
L31285 45371
L31314 45385
L31371 45385
L31400 45371
L31414 45357
L31428 45328
L31428 45085
" />
<path d="M31571 45385
L31571 45085
L31671 45300
L31771 45085
L31771 45385
" />
<path d="M32042 45385
L32042 45228
L32028 45200
L32000 45185
L31942 45185
L31914 45200
" />
<path d="M32042 45371
L32014 45385
L31942 45385
L31914 45371
L31900 45342
L31900 45314
L31914 45285
L31942 45271
L32014 45271
L32042 45257
" />
<path d="M32171 45371
L32200 45385
L32257 45385
L32285 45371
L32300 45342
L32300 45328
L32285 45300
L32257 45285
L32214 45285
L32185 45271
L32171 45242
L32171 45228
L32185 45200
L32214 45185
L32257 45185
L32285 45200
" />
<path d="M32414 45371
L32442 45385
L32500 45385
L32528 45371
L32542 45342
L32542 45328
L32528 45300
L32500 45285
L32457 45285
L32428 45271
L32414 45242
L32414 45228
L32428 45200
L32457 45185
L32500 45185
L32528 45200
" />
<path d="M32657 45300
L32800 45300
" />
<path d="M32628 45385
L32728 45085
L32828 45385
" />
<path d="M32928 45385
L32928 45185
" />
<path d="M32928 45214
L32942 45200
L32971 45185
L33014 45185
L33042 45200
L33057 45228
L33057 45385
" />
<path d="M33057 45228
L33071 45200
L33100 45185
L33142 45185
L33171 45200
L33185 45228
L33185 45385
" />
<path d="M33328 45385
L33328 45085
" />
<path d="M33457 45385
L33457 45228
L33442 45200
L33414 45185
L33371 45185
L33342 45200
L33328 45214
" />
<path d="M33714 45371
L33685 45385
L33628 45385
L33600 45371
L33585 45342
L33585 45228
L33600 45200
L33628 45185
L33685 45185
L33714 45200
L33728 45228
L33728 45257
L33585 45285
" />
<path d="M33857 45385
L33857 45185
" />
<path d="M33857 45242
L33871 45214
L33885 45200
L33914 45185
L33942 45185
" />
<path d="M34028 45371
L34057 45385
L34114 45385
L34142 45371
L34157 45342
L34157 45328
L34142 45300
L34114 45285
L34071 45285
L34042 45271
L34028 45242
L34028 45228
L34042 45200
L34071 45185
L34114 45185
L34142 45200
" />
<path d="M34242 45185
L34357 45185
" />
<path d="M34285 45085
L34285 45342
L34300 45371
L34328 45385
L34357 45385
" />
<path d="M34457 45385
L34457 45085
L34557 45300
L34657 45085
L34657 45385
" />
<path d="M34942 45085
L34800 45085
L34785 45228
L34800 45214
L34828 45200
L34900 45200
L34928 45214
L34942 45228
L34957 45257
L34957 45328
L34942 45357
L34928 45371
L34900 45385
L34828 45385
L34800 45371
L34785 45357
" />
</g>
<g style="fill:#000000; fill-opacity:0.0; 
stroke:#000000; stroke-width:47.2441; stroke-opacity:1; 
stroke-linecap:round; stroke-linejoin:round;">
<path d="M37550 48000
L37550 47900
" />
<path d="M37550 48000
L37550 49000
" />
</g>
<g style="fill:#000000; fill-opacity:0.0; 
stroke:#000000; stroke-width:25; stroke-opacity:1; 
stroke-linecap:round; stroke-linejoin:round;">
<text x="38200" y="14560"
textLength="6789.48" font-size="426.667" lengthAdjust="spacingAndGlyphs"
text-anchor="middle" opacity="0">Saturday is for the makers!</text>
<path d="M34885 14529
L34931 14544
L35007 14544
L35038 14529
L35053 14514
L35068 14483
L35068 14453
L35053 14422
L35038 14407
L35007 14392
L34946 14377
L34916 14361
L34900 14346
L34885 14316
L34885 14285
L34900 14255
L34916 14240
L34946 14224
L35022 14224
L35068 14240
" />
<path d="M35342 14544
L35342 14377
L35327 14346
L35297 14331
L35236 14331
L35205 14346
" />
<path d="M35342 14529
L35312 14544
L35236 14544
L35205 14529
L35190 14499
L35190 14468
L35205 14438
L35236 14422
L35312 14422
L35342 14407
" />
<path d="M35449 14331
L35571 14331
" />
<path d="M35495 14224
L35495 14499
L35510 14529
L35540 14544
L35571 14544
" />
<path d="M35815 14331
L35815 14544
" />
<path d="M35678 14331
L35678 14499
L35693 14529
L35723 14544
L35769 14544
L35800 14529
L35815 14514
" />
<path d="M35967 14544
L35967 14331
" />
<path d="M35967 14392
L35982 14361
L35998 14346
L36028 14331
L36059 14331
" />
<path d="M36302 14544
L36302 14224
" />
<path d="M36302 14529
L36272 14544
L36211 14544
L36180 14529
L36165 14514
L36150 14483
L36150 14392
L36165 14361
L36180 14346
L36211 14331
L36272 14331
L36302 14346
" />
<path d="M36592 14544
L36592 14377
L36577 14346
L36546 14331
L36485 14331
L36455 14346
" />
<path d="M36592 14529
L36561 14544
L36485 14544
L36455 14529
L36440 14499
L36440 14468
L36455 14438
L36485 14422
L36561 14422
L36592 14407
" />
<path d="M36714 14331
L36790 14544
" />
<path d="M36866 14331
L36790 14544
L36760 14620
L36744 14636
L36714 14651
" />
<path d="M37232 14544
L37232 14331
" />
<path d="M37232 14224
L37217 14240
L37232 14255
L37247 14240
L37232 14224
L37232 14255
" />
<path d="M37369 14529
L37400 14544
L37460 14544
L37491 14529
L37506 14499
L37506 14483
L37491 14453
L37460 14438
L37415 14438
L37384 14422
L37369 14392
L37369 14377
L37384 14346
L37415 14331
L37460 14331
L37491 14346
" />
<path d="M37841 14331
L37963 14331
" />
<path d="M37887 14544
L37887 14270
L37902 14240
L37933 14224
L37963 14224
" />
<path d="M38116 14544
L38085 14529
L38070 14514
L38055 14483
L38055 14392
L38070 14361
L38085 14346
L38116 14331
L38161 14331
L38192 14346
L38207 14361
L38222 14392
L38222 14483
L38207 14514
L38192 14529
L38161 14544
L38116 14544
" />
<path d="M38360 14544
L38360 14331
" />
<path d="M38360 14392
L38375 14361
L38390 14346
L38420 14331
L38451 14331
" />
<path d="M38756 14331
L38878 14331
" />
<path d="M38801 14224
L38801 14499
L38817 14529
L38847 14544
L38878 14544
" />
<path d="M38984 14544
L38984 14224
" />
<path d="M39121 14544
L39121 14377
L39106 14346
L39076 14331
L39030 14331
L39000 14346
L38984 14361
" />
<path d="M39396 14529
L39365 14544
L39304 14544
L39274 14529
L39259 14499
L39259 14377
L39274 14346
L39304 14331
L39365 14331
L39396 14346
L39411 14377
L39411 14407
L39259 14438
" />
<path d="M39792 14544
L39792 14331
" />
<path d="M39792 14361
L39807 14346
L39838 14331
L39883 14331
L39914 14346
L39929 14377
L39929 14544
" />
<path d="M39929 14377
L39944 14346
L39975 14331
L40020 14331
L40051 14346
L40066 14377
L40066 14544
" />
<path d="M40356 14544
L40356 14377
L40340 14346
L40310 14331
L40249 14331
L40219 14346
" />
<path d="M40356 14529
L40325 14544
L40249 14544
L40219 14529
L40203 14499
L40203 14468
L40219 14438
L40249 14422
L40325 14422
L40356 14407
" />
<path d="M40508 14544
L40508 14224
" />
<path d="M40539 14422
L40630 14544
" />
<path d="M40630 14331
L40508 14453
" />
<path d="M40889 14529
L40859 14544
L40798 14544
L40767 14529
L40752 14499
L40752 14377
L40767 14346
L40798 14331
L40859 14331
L40889 14346
L40904 14377
L40904 14407
L40752 14438
" />
<path d="M41041 14544
L41041 14331
" />
<path d="M41041 14392
L41057 14361
L41072 14346
L41102 14331
L41133 14331
" />
<path d="M41224 14529
L41255 14544
L41316 14544
L41346 14529
L41361 14499
L41361 14483
L41346 14453
L41316 14438
L41270 14438
L41240 14422
L41224 14392
L41224 14377
L41240 14346
L41270 14331
L41316 14331
L41346 14346
" />
<path d="M41499 14514
L41514 14529
L41499 14544
L41483 14529
L41499 14514
L41499 14544
" />
<path d="M41499 14422
L41483 14240
L41499 14224
L41514 14240
L41499 14422
L41499 14224
" />
</g>
<g style="fill:#000000; fill-opacity:0.0; 
stroke:#000000; stroke-width:40; stroke-opacity:1; 
stroke-linecap:round; stroke-linejoin:round;">
<text x="43200" y="48380"
textLength="5442.02" font-size="533.333" lengthAdjust="spacingAndGlyphs"
text-anchor="end" opacity="0">All-Terrain Buggy</text>
<path d="M37840 48246
L38031 48246
" />
<path d="M37802 48360
L37935 47960
L38069 48360
" />
<path d="M38259 48360
L38221 48341
L38202 48303
L38202 47960
" />
<path d="M38469 48360
L38431 48341
L38412 48303
L38412 47960
" />
<path d="M38621 48208
L38926 48208
" />
<path d="M39059 47960
L39288 47960
" />
<path d="M39174 48360
L39174 47960
" />
<path d="M39574 48341
L39535 48360
L39459 48360
L39421 48341
L39402 48303
L39402 48151
L39421 48113
L39459 48094
L39535 48094
L39574 48113
L39593 48151
L39593 48189
L39402 48227
" />
<path d="M39764 48360
L39764 48094
" />
<path d="M39764 48170
L39783 48132
L39802 48113
L39840 48094
L39878 48094
" />
<path d="M40012 48360
L40012 48094
" />
<path d="M40012 48170
L40031 48132
L40050 48113
L40088 48094
L40126 48094
" />
<path d="M40431 48360
L40431 48151
L40412 48113
L40374 48094
L40297 48094
L40259 48113
" />
<path d="M40431 48341
L40393 48360
L40297 48360
L40259 48341
L40240 48303
L40240 48265
L40259 48227
L40297 48208
L40393 48208
L40431 48189
" />
<path d="M40621 48360
L40621 48094
" />
<path d="M40621 47960
L40602 47980
L40621 47999
L40640 47980
L40621 47960
L40621 47999
" />
<path d="M40812 48094
L40812 48360
" />
<path d="M40812 48132
L40831 48113
L40869 48094
L40926 48094
L40964 48113
L40983 48151
L40983 48360
" />
<path d="M41612 48151
L41669 48170
L41688 48189
L41707 48227
L41707 48284
L41688 48322
L41669 48341
L41631 48360
L41478 48360
L41478 47960
L41612 47960
L41650 47980
L41669 47999
L41688 48037
L41688 48075
L41669 48113
L41650 48132
L41612 48151
L41478 48151
" />
<path d="M42050 48094
L42050 48360
" />
<path d="M41878 48094
L41878 48303
L41897 48341
L41935 48360
L41993 48360
L42031 48341
L42050 48322
" />
<path d="M42412 48094
L42412 48418
L42393 48456
L42374 48475
L42335 48494
L42278 48494
L42240 48475
" />
<path d="M42412 48341
L42374 48360
L42297 48360
L42259 48341
L42240 48322
L42221 48284
L42221 48170
L42240 48132
L42259 48113
L42297 48094
L42374 48094
L42412 48113
" />
<path d="M42774 48094
L42774 48418
L42754 48456
L42735 48475
L42697 48494
L42640 48494
L42602 48475
" />
<path d="M42774 48341
L42735 48360
L42659 48360
L42621 48341
L42602 48322
L42583 48284
L42583 48170
L42602 48132
L42621 48113
L42659 48094
L42735 48094
L42774 48113
" />
<path d="M42926 48094
L43021 48360
" />
<path d="M43116 48094
L43021 48360
L42983 48456
L42964 48475
L42926 48494
" />
<text x="43200" y="49020"
textLength="1309.14" font-size="533.333" lengthAdjust="spacingAndGlyphs"
text-anchor="end" opacity="0">v1.0</text>
<path d="M41974 48734
L42069 49000
L42164 48734
" />
<path d="M42526 49000
L42297 49000
" />
<path d="M42412 49000
L42412 48600
L42374 48658
L42335 48696
L42297 48715
" />
<path d="M42697 48962
L42716 48981
L42697 49000
L42678 48981
L42697 48962
L42697 49000
" />
<path d="M42964 48600
L43002 48600
L43040 48620
L43059 48639
L43078 48677
L43097 48753
L43097 48848
L43078 48924
L43059 48962
L43040 48981
L43002 49000
L42964 49000
L42926 48981
L42907 48962
L42888 48924
L42869 48848
L42869 48753
L42888 48677
L42907 48639
L42926 48620
L42964 48600
" />
</g>
<g style="fill:#000000; fill-opacity:0.0; 
stroke:#000000; stroke-width:59.0551; stroke-opacity:1; 
stroke-linecap:round; stroke-linejoin:round;">
<text x="32700" y="35096.9"
textLength="1251.85" font-size="524.934" lengthAdjust="spacingAndGlyphs"
text-anchor="middle" opacity="0">GND</text>
<path d="M32400 34703
L32362 34684
L32306 34684
L32250 34703
L32212 34740
L32193 34778
L32175 34853
L32175 34909
L32193 34984
L32212 35021
L32250 35059
L32306 35078
L32343 35078
L32400 35059
L32418 35040
L32418 34909
L32343 34909
" />
<path d="M32587 35078
L32587 34684
L32812 35078
L32812 34684
" />
<path d="M32999 35078
L32999 34684
L33093 34684
L33149 34703
L33187 34740
L33206 34778
L33224 34853
L33224 34909
L33206 34984
L33187 35021
L33149 35059
L33093 35078
L32999 35078
" />
<text x="32700" y="36096.9"
textLength="864.173" font-size="524.934" lengthAdjust="spacingAndGlyphs"
text-anchor="middle" opacity="0">VM</text>
<path d="M32343 35684
L32475 36078
L32606 35684
" />
<path d="M32737 36078
L32737 35684
L32868 35965
L32999 35684
L32999 36078
" />
<text x="32700" y="37096.9"
textLength="1445.35" font-size="524.934" lengthAdjust="spacingAndGlyphs"
text-anchor="middle" opacity="0">BIN2</text>
<path d="M32240 36871
L32296 36890
L32315 36909
L32334 36946
L32334 37003
L32315 37040
L32296 37059
L32259 37078
L32109 37078
L32109 36684
L32240 36684
L32278 36703
L32296 36721
L32315 36759
L32315 36796
L32296 36834
L32278 36853
L32240 36871
L32109 36871
" />
<path d="M32503 37078
L32503 36684
" />
<path d="M32690 37078
L32690 36684
L32915 37078
L32915 36684
" />
<path d="M33084 36721
L33103 36703
L33140 36684
L33234 36684
L33271 36703
L33290 36721
L33309 36759
L33309 36796
L33290 36853
L33065 37078
L33309 37078
" />
<text x="32700" y="38096.9"
textLength="1445.35" font-size="524.934" lengthAdjust="spacingAndGlyphs"
text-anchor="middle" opacity="0">BIN1</text>
<path d="M32240 37871
L32296 37890
L32315 37909
L32334 37946
L32334 38003
L32315 38040
L32296 38059
L32259 38078
L32109 38078
L32109 37684
L32240 37684
L32278 37703
L32296 37721
L32315 37759
L32315 37796
L32296 37834
L32278 37853
L32240 37871
L32109 37871
" />
<path d="M32503 38078
L32503 37684
" />
<path d="M32690 38078
L32690 37684
L32915 38078
L32915 37684
" />
<path d="M33309 38078
L33084 38078
" />
<path d="M33196 38078
L33196 37684
L33159 37740
L33121 37778
L33084 37796
" />
<text x="32700" y="27096.9"
textLength="1276.62" font-size="524.934" lengthAdjust="spacingAndGlyphs"
text-anchor="middle" opacity="0">GND</text>
<path d="M32400 26703
L32362 26684
L32306 26684
L32250 26703
L32212 26740
L32193 26778
L32175 26853
L32175 26909
L32193 26984
L32212 27021
L32250 27059
L32306 27078
L32343 27078
L32400 27059
L32418 27040
L32418 26909
L32343 26909
" />
<path d="M32587 27078
L32587 26684
L32812 27078
L32812 26684
" />
<path d="M32999 27078
L32999 26684
L33093 26684
L33149 26703
L33187 26740
L33206 26778
L33224 26853
L33224 26909
L33206 26984
L33187 27021
L33149 27059
L33093 27078
L32999 27078
" />
<text x="32700" y="28096.9"
textLength="864.173" font-size="524.934" lengthAdjust="spacingAndGlyphs"
text-anchor="middle" opacity="0">VM</text>
<path d="M32343 27684
L32475 28078
L32606 27684
" />
<path d="M32737 28078
L32737 27684
L32868 27965
L32999 27684
L32999 28078
" />
<text x="32700" y="29096.9"
textLength="1445.35" font-size="524.934" lengthAdjust="spacingAndGlyphs"
text-anchor="middle" opacity="0">BIN2</text>
<path d="M32240 28871
L32296 28890
L32315 28909
L32334 28946
L32334 29003
L32315 29040
L32296 29059
L32259 29078
L32109 29078
L32109 28684
L32240 28684
L32278 28703
L32296 28721
L32315 28759
L32315 28796
L32296 28834
L32278 28853
L32240 28871
L32109 28871
" />
<path d="M32503 29078
L32503 28684
" />
<path d="M32690 29078
L32690 28684
L32915 29078
L32915 28684
" />
<path d="M33084 28721
L33103 28703
L33140 28684
L33234 28684
L33271 28703
L33290 28721
L33309 28759
L33309 28796
L33290 28853
L33065 29078
L33309 29078
" />
<text x="32700" y="30096.9"
textLength="1445.35" font-size="524.934" lengthAdjust="spacingAndGlyphs"
text-anchor="middle" opacity="0">BIN1</text>
<path d="M32240 29871
L32296 29890
L32315 29909
L32334 29946
L32334 30003
L32315 30040
L32296 30059
L32259 30078
L32109 30078
L32109 29684
L32240 29684
L32278 29703
L32296 29721
L32315 29759
L32315 29796
L32296 29834
L32278 29853
L32240 29871
L32109 29871
" />
<path d="M32503 30078
L32503 29684
" />
<path d="M32690 30078
L32690 29684
L32915 30078
L32915 29684
" />
<path d="M33309 30078
L33084 30078
" />
<path d="M33196 30078
L33196 29684
L33159 29740
L33121 29778
L33084 29796
" />
<text x="32700" y="19096.9"
textLength="1276.62" font-size="524.934" lengthAdjust="spacingAndGlyphs"
text-anchor="middle" opacity="0">GND</text>
<path d="M32400 18703
L32362 18684
L32306 18684
L32250 18703
L32212 18740
L32193 18778
L32175 18853
L32175 18909
L32193 18984
L32212 19021
L32250 19059
L32306 19078
L32343 19078
L32400 19059
L32418 19040
L32418 18909
L32343 18909
" />
<path d="M32587 19078
L32587 18684
L32812 19078
L32812 18684
" />
<path d="M32999 19078
L32999 18684
L33093 18684
L33149 18703
L33187 18740
L33206 18778
L33224 18853
L33224 18909
L33206 18984
L33187 19021
L33149 19059
L33093 19078
L32999 19078
" />
<text x="32700" y="20096.9"
textLength="864.173" font-size="524.934" lengthAdjust="spacingAndGlyphs"
text-anchor="middle" opacity="0">VM</text>
<path d="M32343 19684
L32475 20078
L32606 19684
" />
<path d="M32737 20078
L32737 19684
L32868 19965
L32999 19684
L32999 20078
" />
<text x="32700" y="21096.9"
textLength="1445.35" font-size="524.934" lengthAdjust="spacingAndGlyphs"
text-anchor="middle" opacity="0">BIN2</text>
<path d="M32240 20871
L32296 20890
L32315 20909
L32334 20946
L32334 21003
L32315 21040
L32296 21059
L32259 21078
L32109 21078
L32109 20684
L32240 20684
L32278 20703
L32296 20721
L32315 20759
L32315 20796
L32296 20834
L32278 20853
L32240 20871
L32109 20871
" />
<path d="M32503 21078
L32503 20684
" />
<path d="M32690 21078
L32690 20684
L32915 21078
L32915 20684
" />
<path d="M33084 20721
L33103 20703
L33140 20684
L33234 20684
L33271 20703
L33290 20721
L33309 20759
L33309 20796
L33290 20853
L33065 21078
L33309 21078
" />
<text x="32700" y="22096.9"
textLength="1445.35" font-size="524.934" lengthAdjust="spacingAndGlyphs"
text-anchor="middle" opacity="0">BIN1</text>
<path d="M32240 21871
L32296 21890
L32315 21909
L32334 21946
L32334 22003
L32315 22040
L32296 22059
L32259 22078
L32109 22078
L32109 21684
L32240 21684
L32278 21703
L32296 21721
L32315 21759
L32315 21796
L32296 21834
L32278 21853
L32240 21871
L32109 21871
" />
<path d="M32503 22078
L32503 21684
" />
<path d="M32690 22078
L32690 21684
L32915 22078
L32915 21684
" />
<path d="M33309 22078
L33084 22078
" />
<path d="M33196 22078
L33196 21684
L33159 21740
L33121 21778
L33084 21796
" />
<text x="43700" y="35096.9"
textLength="1389.11" font-size="524.934" lengthAdjust="spacingAndGlyphs"
text-anchor="middle" opacity="0">AIN1</text>
<path d="M43118 34965
L43306 34965
" />
<path d="M43081 35078
L43212 34684
L43343 35078
" />
<path d="M43475 35078
L43475 34684
" />
<path d="M43662 35078
L43662 34684
L43887 35078
L43887 34684
" />
<path d="M44281 35078
L44056 35078
" />
<path d="M44168 35078
L44168 34684
L44131 34740
L44093 34778
L44056 34796
" />
<text x="43700" y="38096.9"
textLength="1276.62" font-size="524.934" lengthAdjust="spacingAndGlyphs"
text-anchor="middle" opacity="0">GND</text>
<path d="M43400 37703
L43362 37684
L43306 37684
L43250 37703
L43212 37740
L43193 37778
L43175 37853
L43175 37909
L43193 37984
L43212 38021
L43250 38059
L43306 38078
L43343 38078
L43400 38059
L43418 38040
L43418 37909
L43343 37909
" />
<path d="M43587 38078
L43587 37684
L43812 38078
L43812 37684
" />
<path d="M43999 38078
L43999 37684
L44093 37684
L44149 37703
L44187 37740
L44206 37778
L44224 37853
L44224 37909
L44206 37984
L44187 38021
L44149 38059
L44093 38078
L43999 38078
" />
<text x="43700" y="37096.9"
textLength="864.173" font-size="524.934" lengthAdjust="spacingAndGlyphs"
text-anchor="middle" opacity="0">VM</text>
<path d="M43343 36684
L43475 37078
L43606 36684
" />
<path d="M43737 37078
L43737 36684
L43868 36965
L43999 36684
L43999 37078
" />
<text x="43700" y="36096.9"
textLength="1389.11" font-size="524.934" lengthAdjust="spacingAndGlyphs"
text-anchor="middle" opacity="0">AIN2</text>
<path d="M43118 35965
L43306 35965
" />
<path d="M43081 36078
L43212 35684
L43343 36078
" />
<path d="M43475 36078
L43475 35684
" />
<path d="M43662 36078
L43662 35684
L43887 36078
L43887 35684
" />
<path d="M44056 35721
L44074 35703
L44112 35684
L44206 35684
L44243 35703
L44262 35721
L44281 35759
L44281 35796
L44262 35853
L44037 36078
L44281 36078
" />
<text x="43700" y="30096.9"
textLength="1276.62" font-size="524.934" lengthAdjust="spacingAndGlyphs"
text-anchor="middle" opacity="0">GND</text>
<path d="M43400 29703
L43362 29684
L43306 29684
L43250 29703
L43212 29740
L43193 29778
L43175 29853
L43175 29909
L43193 29984
L43212 30021
L43250 30059
L43306 30078
L43343 30078
L43400 30059
L43418 30040
L43418 29909
L43343 29909
" />
<path d="M43587 30078
L43587 29684
L43812 30078
L43812 29684
" />
<path d="M43999 30078
L43999 29684
L44093 29684
L44149 29703
L44187 29740
L44206 29778
L44224 29853
L44224 29909
L44206 29984
L44187 30021
L44149 30059
L44093 30078
L43999 30078
" />
<text x="43700" y="29096.9"
textLength="864.173" font-size="524.934" lengthAdjust="spacingAndGlyphs"
text-anchor="middle" opacity="0">VM</text>
<path d="M43343 28684
L43475 29078
L43606 28684
" />
<path d="M43737 29078
L43737 28684
L43868 28965
L43999 28684
L43999 29078
" />
<text x="43700" y="28096.9"
textLength="1389.11" font-size="524.934" lengthAdjust="spacingAndGlyphs"
text-anchor="middle" opacity="0">AIN2</text>
<path d="M43118 27965
L43306 27965
" />
<path d="M43081 28078
L43212 27684
L43343 28078
" />
<path d="M43475 28078
L43475 27684
" />
<path d="M43662 28078
L43662 27684
L43887 28078
L43887 27684
" />
<path d="M44056 27721
L44074 27703
L44112 27684
L44206 27684
L44243 27703
L44262 27721
L44281 27759
L44281 27796
L44262 27853
L44037 28078
L44281 28078
" />
<text x="43700" y="27096.9"
textLength="1389.11" font-size="524.934" lengthAdjust="spacingAndGlyphs"
text-anchor="middle" opacity="0">AIN1</text>
<path d="M43118 26965
L43306 26965
" />
<path d="M43081 27078
L43212 26684
L43343 27078
" />
<path d="M43475 27078
L43475 26684
" />
<path d="M43662 27078
L43662 26684
L43887 27078
L43887 26684
" />
<path d="M44281 27078
L44056 27078
" />
<path d="M44168 27078
L44168 26684
L44131 26740
L44093 26778
L44056 26796
" />
<text x="43700" y="22096.9"
textLength="1276.62" font-size="524.934" lengthAdjust="spacingAndGlyphs"
text-anchor="middle" opacity="0">GND</text>
<path d="M43400 21703
L43362 21684
L43306 21684
L43250 21703
L43212 21740
L43193 21778
L43175 21853
L43175 21909
L43193 21984
L43212 22021
L43250 22059
L43306 22078
L43343 22078
L43400 22059
L43418 22040
L43418 21909
L43343 21909
" />
<path d="M43587 22078
L43587 21684
L43812 22078
L43812 21684
" />
<path d="M43999 22078
L43999 21684
L44093 21684
L44149 21703
L44187 21740
L44206 21778
L44224 21853
L44224 21909
L44206 21984
L44187 22021
L44149 22059
L44093 22078
L43999 22078
" />
<text x="43700" y="21096.9"
textLength="864.173" font-size="524.934" lengthAdjust="spacingAndGlyphs"
text-anchor="middle" opacity="0">VM</text>
<path d="M43343 20684
L43475 21078
L43606 20684
" />
<path d="M43737 21078
L43737 20684
L43868 20965
L43999 20684
L43999 21078
" />
<text x="43700" y="20096.9"
textLength="1389.11" font-size="524.934" lengthAdjust="spacingAndGlyphs"
text-anchor="middle" opacity="0">AIN2</text>
<path d="M43118 19965
L43306 19965
" />
<path d="M43081 20078
L43212 19684
L43343 20078
" />
<path d="M43475 20078
L43475 19684
" />
<path d="M43662 20078
L43662 19684
L43887 20078
L43887 19684
" />
<path d="M44056 19721
L44074 19703
L44112 19684
L44206 19684
L44243 19703
L44262 19721
L44281 19759
L44281 19796
L44262 19853
L44037 20078
L44281 20078
" />
<text x="43700" y="19096.9"
textLength="1389.11" font-size="524.934" lengthAdjust="spacingAndGlyphs"
text-anchor="middle" opacity="0">AIN1</text>
<path d="M43118 18965
L43306 18965
" />
<path d="M43081 19078
L43212 18684
L43343 19078
" />
<path d="M43475 19078
L43475 18684
" />
<path d="M43662 19078
L43662 18684
L43887 19078
L43887 18684
" />
<path d="M44281 19078
L44056 19078
" />
<path d="M44168 19078
L44168 18684
L44131 18740
L44093 18778
L44056 18796
" />
</g>
<g style="fill:#000000; fill-opacity:1.0; 
stroke:#000000; stroke-width:3.93701; stroke-opacity:1; 
stroke-linecap:round; stroke-linejoin:round;">
<path style="fill:#000000; fill-opacity:1.0; 
stroke:#000000; stroke-width:3.93701; stroke-opacity:1; 
stroke-linecap:round; stroke-linejoin:round;fill-rule:evenodd;"
d="M 35389.9,46071.1
35543.6,46098.1
35693.7,46140.8
35839.1,46199.1
35870.8,46214.2
36010.5,46291.8
36139.6,46381.4
36257.5,46482.1
36363.8,46592.9
36457.9,46712.7
36539.5,46840.5
36607.9,46975.5
36662.8,47116.4
36703.5,47262.5
36729.7,47412.6
36740.9,47565.7
36736.5,47721
36716,47877.3
36707,47923.1
36666.7,48072.6
36611.7,48216.2
36542.9,48352.9
36461.2,48481.7
36367.6,48601.8
36263,48712.2
36148.5,48811.9
36024.9,48899.9
35893.2,48975.4
35754.4,49037.3
35609.4,49084.7
35520.4,49105.7
35417.1,49122.7
35308.2,49133.6
35200.3,49137.9
35099.9,49135.2
35087.5,49134.3
34925.9,49113.5
34770.3,49077.2
34621.1,49025.6
34478.7,48958.9
34343.3,48877.1
34215.3,48780.4
34184.2,48753.7
34085.2,48657.3
33993,48549.2
33909.8,48433
33838,48311.8
33779.9,48189
33770.2,48164.7
33718.5,48009.1
33683.4,47852.7
33664.7,47696.2
33662.6,47540
33676.9,47384.7
33707.7,47230.8
33754.9,47078.8
33816.7,46933.2
33840.5,46889.6
34142.2,46889.6
34144.7,46908.4
34153.3,46925.5
34170.2,46947.4
34174.4,46952.4
34194.2,46979.3
34210,47006.3
34217,47023.1
34219.1,47036.2
34222.5,47064.3
34226.9,47105.6
34232.3,47158.6
34238.4,47221.4
34245.2,47292.6
34252.4,47370.3
34260,47453
34267.8,47538.9
34275.6,47626.4
34283.3,47713.8
34290.8,47799.4
34297.8,47881.7
34304.3,47958.8
34310,48029.2
34314.9,48091.1
34318.8,48143
34321.5,48183.1
34322.5,48199.8
34324.5,48241.5
34325.1,48270.3
34323.8,48289.8
34320.1,48303.5
34313.5,48315.3
34305.4,48326.3
34280.3,48366.2
34269.6,48402
34270.7,48429.2
34274.3,48444.5
34280.7,48452.6
34294.4,48455.8
34319.8,48456.4
34323.6,48456.4
34353.4,48455.3
34391.7,48452.2
34434.6,48447.7
34478.5,48442.2
34519.4,48436.3
34553.6,48430.4
34577.2,48425
34584.8,48422.3
34596,48407.9
34600,48384.7
34596.3,48359.1
34591.8,48348.3
34580.4,48335.7
34559.7,48319.2
34541.6,48307.1
34517.4,48289.9
34499.1,48272.6
34492.4,48262.5
34486.2,48238.9
34479.6,48201.1
34473,48151.4
34466.5,48092.3
34460.4,48026.1
34455,47955.2
34450.5,47882.2
34449.4,47860.6
34445,47770.5
34441.4,47695.7
34438.6,47634.8
34436.5,47586.4
34435.1,47549.2
34434.3,47521.8
34434.1,47502.8
34434.4,47490.9
34435.3,47484.7
34436.6,47482.9
34437.9,47483.5
34442.2,47492.6
34451.5,47515.5
34465.2,47550.4
34482.4,47595.6
34502.6,47649.3
34525,47709.6
34547.5,47770.6
34571.7,47836.1
34594.7,47897
34615.7,47951.5
34634,47997.7
34648.9,48033.7
34659.5,48057.7
34664.8,48067.4
34683.1,48077.1
34710.8,48080.7
34741.9,48078.6
34770.6,48071.4
34790.7,48059.4
34792.5,48057.4
34798.8,48043.1
34807.1,48014.5
34816.9,47973.9
34827.8,47923.4
34839.3,47865.2
34851,47801.6
34862.5,47734.9
34873.3,47667.1
34882.9,47600.5
34883.3,47598.1
34891.8,47537.2
34898.7,47491.5
34904.4,47459.6
34909.6,47439.9
34914.6,47431.1
34920,47431.9
34926.1,47440.7
34932.7,47454.3
34937,47466.1
34941,47483.3
34944.8,47507
34948.7,47538.7
34952.6,47579.8
34956.8,47631.4
34961.4,47695.1
34966.4,47772.1
34972.1,47863.8
34974.9,47910.4
34979.8,47993.1
34983.8,48060.7
34986.9,48114.8
34989,48157
34990,48188.9
34990,48212.1
34988.8,48228
34986.4,48238.3
34982.8,48244.7
34978,48248.5
34971.9,48251.5
34965.4,48254.7
34934.8,48273.8
34917.2,48292.9
34909.5,48316.4
34908.3,48336.1
34910.3,48363.4
34915.2,48385.9
34917.5,48391.2
34920.5,48396
34925.2,48399.8
34933.2,48402.7
34946.4,48404.7
34966.7,48406
34995.7,48406.7
35035.5,48406.8
35087.7,48406.5
35154.2,48405.8
35177.9,48405.6
35429.2,48402.8
35483.3,48432.8
35512.8,48447.7
35544.7,48460.4
35582.8,48472
35630.9,48483.9
35670.8,48492.6
35711.9,48496.7
35763.7,48493.4
35828.1,48482.6
35831,48482
35898,48463.6
35965.3,48436.9
36029.3,48404
36086.3,48366.8
36132.6,48327.4
36154.3,48302.8
36172.6,48271.7
36191.7,48226.8
36210.5,48170.5
36228.2,48105.7
36241.5,48046.5
36248.7,48008.7
36253.6,47974.4
36256.5,47939.2
36257.7,47898.6
36257.5,47848.2
36257,47817.3
36254.2,47677.2
36212.5,47598.1
36165.1,47521.9
36110.8,47460.4
36049.9,47414.1
36028.1,47402
36004.4,47390.8
35983.1,47383.4
35959.4,47378.8
35928.4,47376.1
35886.4,47374.5
35779,47378
35672.9,47394.2
35634.2,47403.6
35614.2,47409
35620.2,47319.6
35625.2,47254.9
35630.7,47205.6
35636.7,47170.6
35643.6,47148.7
35651,47138.9
35662,47137.1
35687.5,47135.4
35725.2,47133.9
35772.9,47132.7
35828.5,47131.9
35889.6,47131.5
35902.1,47131.5
35971.9,47131.4
36026.9,47131.1
36069.1,47130.5
36100.3,47129.5
36122.5,47127.9
36137.6,47125.6
36147.5,47122.6
36154.1,47118.6
36157.4,47115.7
36166.2,47100.4
36176.6,47072.3
36187.9,47034.8
36198.9,46991.6
36208.9,46946.3
36217,46902.4
36222.1,46863.5
36222.2,46862.5
36223.5,46824.4
36217.6,46799.8
36202.3,46786.6
36175.4,46782.4
36148.1,46783.8
36117.6,46788.5
36091.3,46795.8
36079.5,46801.2
36072.3,46804.8
36061.8,46807.6
36046.3,46809.6
36023.9,46810.9
35992.8,46811.5
35951.4,46811.5
35897.8,46810.9
35830.2,46809.8
35789.4,46809
35519.1,46803.8
35513.9,46824.7
35511.6,46839.4
35508.4,46867.7
35504.5,46906.7
35500.3,46953.3
35496.1,47004.7
35495.9,47007.3
35491,47066.3
35485.5,47127.9
35479.8,47186.9
35474.5,47238.2
35471,47268.9
35458.7,47370.9
35448.7,47457.3
35440.8,47529.2
35435.1,47587.6
35431.3,47633.5
35429.5,47667.8
35429.4,47691.6
35431.2,47705.8
35433.2,47710.4
35448.1,47718.1
35473.2,47722.4
35502,47722.9
35528.4,47719.4
35541.8,47714.7
35553,47703.5
35568.5,47681.7
35585.2,47653.5
35588.2,47647.9
35623.1,47593.1
35662.1,47554.5
35705.1,47531.8
35752.5,47525.1
35776.4,47527.5
35801.3,47533.3
35821.7,47542.7
35838.2,47557.1
35851.1,47578.2
35861.1,47607.5
35868.5,47646.5
35873.8,47696.9
35877.4,47760
35879.9,47837.6
35880.7,47877.2
35881.9,47947.8
35882.4,48004.9
35881.9,48051.6
35880.6,48091.1
35878.1,48126.6
35874.4,48161.2
35869.4,48198
35868.5,48204.3
35861.7,48246.1
35854.7,48282.6
35848.1,48310.2
35842.9,48325.5
35842.1,48326.7
35825.9,48336.8
35797.8,48345.4
35762.5,48351.8
35724.8,48355
35698.6,48354.8
35654.2,48352.2
35656.9,48217.8
35659.6,48083.5
35632.7,48052.8
35598.1,48021.5
35559.5,47999.8
35521.7,47990.2
35514.9,47989.9
35487.8,47995
35456.3,48008
35426,48025.6
35402.7,48044.8
35394.1,48056.4
35388.9,48075.7
35385.2,48107.8
35383.5,48148.9
35383.5,48158.7
35382.5,48201.2
35379.3,48228.8
35372.8,48243.6
35362.1,48247.4
35346.3,48242.1
35342.3,48240.1
35334.1,48235.7
35327.1,48231.3
35321,48225.7
35315.8,48217.6
35311.3,48205.9
35307.6,48189.5
35304.4,48167.2
35301.7,48137.8
35299.4,48100.1
35297.4,48053.1
35295.5,47995.4
35293.7,47926
35291.8,47843.8
35289.8,47747.4
35287.6,47635.8
35287.1,47608.9
35285.2,47510.4
35283.3,47415.7
35281.6,47326.3
35280,47243.6
35278.6,47169.2
35277.4,47104.5
35276.5,47051
35275.8,47010.4
35275.4,46983.9
35275.3,46975.4
35276.1,46944.8
35280.4,46924.3
35290,46907.3
35299.7,46895.5
35321.6,46875.8
35345.7,46861.7
35351.7,46859.5
35374.3,46847.9
35389.9,46831.1
35396.8,46805.4
35396.8,46772.9
35390.7,46740.8
35379.3,46716
35375.6,46711.7
35370,46706.6
35363.4,46702.8
35353.6,46700.3
35338.5,46699.1
35316.1,46699.1
35284.3,46700.2
35240.8,46702.5
35183.8,46705.9
35155.3,46707.6
35084,46712.3
35025.9,46717
34981.9,46721.5
34952.7,46725.9
34939.3,46729.9
34939.2,46730
34928.3,46745.5
34922.2,46762.8
34919.4,46776.4
34913.6,46804.1
34905.3,46843.8
34894.9,46893.3
34883,46950.5
34869.9,47013.2
34863,47046.3
34849.4,47110.9
34836.8,47171
34825.5,47224.5
34816,47269.3
34808.7,47303.1
34804.2,47323.8
34803.1,47328.7
34797.6,47350.3
34778,47317.9
34750.6,47266.7
34722.2,47202.5
34694.2,47129.1
34667.9,47050.1
34644.9,46969.3
34628.8,46908.2
34616.3,46861.3
34606.5,46826.6
34598.8,46801.9
34592.5,46785.5
34587,46775.2
34581.5,46769
34575.4,46764.9
34574.9,46764.7
34561.1,46762.4
34533.8,46762
34495.9,46763.2
34450.5,46765.7
34400.3,46769.4
34348.3,46773.9
34297.4,46779
34250.4,46784.5
34210.3,46790
34179.9,46795.3
34162.2,46800.2
34159.3,46801.9
34151.6,46817.2
34145.7,46843.2
34143.4,46862.5
34142.2,46889.6
33840.5,46889.6
33891.8,46795.9
33980.1,46667.4
34080.6,46548.6
34192,46440.4
34313.2,46344
34442.9,46260.3
34580.1,46190.2
34723.6,46134.9
34766.5,46121.6
34921.1,46085
35077.4,46064.4
35234.1,46059.8
Z" /> 
</g>
<g style="fill:#000000; fill-opacity:1.0; 
stroke:#000000; stroke-width:47.2441; stroke-opacity:1; 
stroke-linecap:round; stroke-linejoin:round;">
</g>
<g style="fill:#000000; fill-opacity:0.0; 
stroke:#000000; stroke-width:47.2441; stroke-opacity:1; 
stroke-linecap:round; stroke-linejoin:round;">
<path d="M31723 37400
L30676 37400
" />
<path d="M31723 37400
L31723 34376
" />
<path d="M31723 34376
L30676 34376
" />
<path d="M30676 37400
L30676 34376
" />
<path d="M30676 38423
L30676 37900
" />
<path d="M31200 38423
L30676 38423
" />
<path d="M39078 41223
L38685 41223
" />
<path d="M38881 41026
L38881 41420
" />
<path d="M37985 45184
L37514 45184
" />
<path d="M38089 45168
L37410 45168
" />
<path d="M38168 45153
L37331 45153
" />
<path d="M38234 45137
L37265 45137
" />
<path d="M38292 45121
L37207 45121
" />
<path d="M38344 45105
L37155 45105
" />
<path d="M38391 45090
L37108 45090
" />
<path d="M38435 45074
L37064 45074
" />
<path d="M38476 45058
L37023 45058
" />
<path d="M38515 45042
L36984 45042
" />
<path d="M38551 45027
L36948 45027
" />
<path d="M38586 45011
L36913 45011
" />
<path d="M38619 44995
L36880 44995
" />
<path d="M38651 44979
L36848 44979
" />
<path d="M38681 44964
L36818 44964
" />
<path d="M38710 44948
L36789 44948
" />
<path d="M38738 44932
L36761 44932
" />
<path d="M38765 44916
L36734 44916
" />
<path d="M38791 44901
L36708 44901
" />
<path d="M38816 44885
L36683 44885
" />
<path d="M38840 44869
L36659 44869
" />
<path d="M38864 44853
L36635 44853
" />
<path d="M38887 44838
L36612 44838
" />
<path d="M38909 44822
L36590 44822
" />
<path d="M38931 44806
L36568 44806
" />
<path d="M38952 44790
L36547 44790
" />
<path d="M38972 44775
L36527 44775
" />
<path d="M38992 44759
L36507 44759
" />
<path d="M39012 44743
L36487 44743
" />
<path d="M39031 44727
L36468 44727
" />
<path d="M39049 44712
L36450 44712
" />
<path d="M39067 44696
L36432 44696
" />
<path d="M39085 44680
L36414 44680
" />
<path d="M39102 44664
L36397 44664
" />
<path d="M37261 44649
L36380 44649
" />
<path d="M39119 44649
L38238 44649
" />
<path d="M37261 44633
L36364 44633
" />
<path d="M39135 44633
L38238 44633
" />
<path d="M37261 44617
L36348 44617
" />
<path d="M39151 44617
L38238 44617
" />
<path d="M37261 44601
L36332 44601
" />
<path d="M39167 44601
L38238 44601
" />
<path d="M37261 44586
L36316 44586
" />
<path d="M39183 44586
L38238 44586
" />
<path d="M37261 44570
L36301 44570
" />
<path d="M39198 44570
L38238 44570
" />
<path d="M37261 44554
L36287 44554
" />
<path d="M39212 44554
L38238 44554
" />
<path d="M37261 44538
L36272 44538
" />
<path d="M39227 44538
L38238 44538
" />
<path d="M37261 44523
L36258 44523
" />
<path d="M39241 44523
L38238 44523
" />
<path d="M37261 44507
L36244 44507
" />
<path d="M39255 44507
L38238 44507
" />
<path d="M37261 44491
L36231 44491
" />
<path d="M39268 44491
L38238 44491
" />
<path d="M37261 44475
L36217 44475
" />
<path d="M39282 44475
L38238 44475
" />
<path d="M37261 44460
L36204 44460
" />
<path d="M39295 44460
L38238 44460
" />
<path d="M37261 44444
L36192 44444
" />
<path d="M39307 44444
L38238 44444
" />
<path d="M37261 44428
L36179 44428
" />
<path d="M39320 44428
L38238 44428
" />
<path d="M37261 44412
L36167 44412
" />
<path d="M39332 44412
L38238 44412
" />
<path d="M37261 44397
L36155 44397
" />
<path d="M39344 44397
L38238 44397
" />
<path d="M37261 44381
L36143 44381
" />
<path d="M39356 44381
L38238 44381
" />
<path d="M37261 44365
L36131 44365
" />
<path d="M39368 44365
L38238 44365
" />
<path d="M37261 44350
L36120 44350
" />
<path d="M39379 44350
L38238 44350
" />
<path d="M37261 44334
L36109 44334
" />
<path d="M39390 44334
L38238 44334
" />
<path d="M37261 44318
L36098 44318
" />
<path d="M39401 44318
L38238 44318
" />
<path d="M37261 44302
L36088 44302
" />
<path d="M39411 44302
L38238 44302
" />
<path d="M37261 44287
L36077 44287
" />
<path d="M39422 44287
L38238 44287
" />
<path d="M37261 44271
L36067 44271
" />
<path d="M39432 44271
L38238 44271
" />
<path d="M37261 44255
L36057 44255
" />
<path d="M39442 44255
L38238 44255
" />
<path d="M37261 44239
L36048 44239
" />
<path d="M39451 44239
L38238 44239
" />
<path d="M37261 44224
L36038 44224
" />
<path d="M39461 44224
L38238 44224
" />
<path d="M37261 44208
L36029 44208
" />
<path d="M39470 44208
L38238 44208
" />
<path d="M37261 44192
L36019 44192
" />
<path d="M39480 44192
L38238 44192
" />
<path d="M37261 44176
L36011 44176
" />
<path d="M39488 44176
L38238 44176
" />
<path d="M37261 44161
L36001 44161
" />
<path d="M39498 44161
L38238 44161
" />
<path d="M37261 44145
L35993 44145
" />
<path d="M39506 44145
L38238 44145
" />
<path d="M37261 44129
L35985 44129
" />
<path d="M39514 44129
L38238 44129
" />
<path d="M37261 44113
L35976 44113
" />
<path d="M39523 44113
L38238 44113
" />
<path d="M37261 44098
L35968 44098
" />
<path d="M39531 44098
L38238 44098
" />
<path d="M37261 44082
L35960 44082
" />
<path d="M39539 44082
L38238 44082
" />
<path d="M37261 44066
L35953 44066
" />
<path d="M39546 44066
L38238 44066
" />
<path d="M37261 44050
L35945 44050
" />
<path d="M39554 44050
L38238 44050
" />
<path d="M37261 44035
L35937 44035
" />
<path d="M39562 44035
L38238 44035
" />
<path d="M37261 44019
L35930 44019
" />
<path d="M39569 44019
L38238 44019
" />
<path d="M37261 44003
L35923 44003
" />
<path d="M39576 44003
L38238 44003
" />
<path d="M37261 43987
L35916 43987
" />
<path d="M39583 43987
L38238 43987
" />
<path d="M37261 43972
L35909 43972
" />
<path d="M39590 43972
L38238 43972
" />
<path d="M37261 43956
L35903 43956
" />
<path d="M39596 43956
L38238 43956
" />
<path d="M37261 43940
L35896 43940
" />
<path d="M39603 43940
L38238 43940
" />
<path d="M37261 43924
L35890 43924
" />
<path d="M39609 43924
L38238 43924
" />
<path d="M37261 43909
L35884 43909
" />
<path d="M39615 43909
L38238 43909
" />
<path d="M37261 43893
L35878 43893
" />
<path d="M39621 43893
L38238 43893
" />
<path d="M37261 43877
L35872 43877
" />
<path d="M39627 43877
L38238 43877
" />
<path d="M37261 43861
L35866 43861
" />
<path d="M39633 43861
L38238 43861
" />
<path d="M37261 43846
L35861 43846
" />
<path d="M39638 43846
L38238 43846
" />
<path d="M37261 43830
L35855 43830
" />
<path d="M39644 43830
L38238 43830
" />
<path d="M37261 43814
L35850 43814
" />
<path d="M39649 43814
L38238 43814
" />
<path d="M37261 43798
L35845 43798
" />
<path d="M39654 43798
L38238 43798
" />
<path d="M37261 43783
L35840 43783
" />
<path d="M39659 43783
L38238 43783
" />
<path d="M37261 43767
L35835 43767
" />
<path d="M39664 43767
L38238 43767
" />
<path d="M37261 43751
L35831 43751
" />
<path d="M39668 43751
L38238 43751
" />
<path d="M37261 43735
L35826 43735
" />
<path d="M39673 43735
L38238 43735
" />
<path d="M37261 43720
L35822 43720
" />
<path d="M39677 43720
L38238 43720
" />
<path d="M37261 43704
L35818 43704
" />
<path d="M39681 43704
L38238 43704
" />
<path d="M37261 43688
L35813 43688
" />
<path d="M39686 43688
L38238 43688
" />
<path d="M39690 43672
L35809 43672
" />
<path d="M39694 43657
L35805 43657
" />
<path d="M39697 43641
L35802 43641
" />
<path d="M39701 43625
L35798 43625
" />
<path d="M39704 43609
L35795 43609
" />
<path d="M39708 43594
L35791 43594
" />
<path d="M39711 43578
L35788 43578
" />
<path d="M39714 43562
L35785 43562
" />
<path d="M39717 43546
L35782 43546
" />
<path d="M39720 43531
L35779 43531
" />
<path d="M39722 43515
L35777 43515
" />
<path d="M39725 43499
L35774 43499
" />
<path d="M39727 43483
L35772 43483
" />
<path d="M39730 43468
L35769 43468
" />
<path d="M39732 43451
L35767 43451
" />
<path d="M39734 43436
L35765 43436
" />
<path d="M39736 43420
L35763 43420
" />
<path d="M39738 43404
L35761 43404
" />
<path d="M39739 43388
L35760 43388
" />
<path d="M39741 43373
L35758 43373
" />
<path d="M39742 43357
L35757 43357
" />
<path d="M39744 43341
L35755 43341
" />
<path d="M39745 43325
L35754 43325
" />
<path d="M39746 43310
L35753 43310
" />
<path d="M39747 43294
L35752 43294
" />
<path d="M39748 43278
L35751 43278
" />
<path d="M39748 43262
L35751 43262
" />
<path d="M39749 43247
L35750 43247
" />
<path d="M39749 43231
L35750 43231
" />
<path d="M39750 43215
L35750 43215
" />
<path d="M39750 43200
L35750 43200
" />
<path d="M39750 43184
L35750 43184
" />
<circle cx="37750" cy="43184.3" r="2015.75" /> 
<path d="M31091 42094
L31091 42666
" />
<path d="M31808 42094
L31808 42666
" />
<path d="M41977 44078
L41382 44078
" />
<path d="M41977 42621
L41382 42621
" />
<path d="M41382 41334
L41382 45365
" />
<path d="M41977 45365
L40150 45365
" />
<path d="M41977 41334
L40150 41334
" />
<path d="M40150 41334
L40150 45365
" />
<path d="M41977 41334
L41977 45365
" />
<path d="M31200 30423
L30676 30423
" />
<path d="M30676 30423
L30676 29900
" />
<path d="M30676 29400
L30676 26376
" />
<path d="M31723 26376
L30676 26376
" />
<path d="M31723 29400
L31723 26376
" />
<path d="M31723 29400
L30676 29400
" />
<path d="M33656 21400
L33656 39400
" />
<path d="M42743 21400
L42743 39400
" />
<path d="M41700 40443
L34700 40443
" />
<path d="M41700 20356
L34700 20356
" />
<path d="M33530 23293
L33530 22506
" />
<path d="M33656.7 39400 A1043.31 1043.31 0.0 0 0 34700 40443.3" />
<path d="M41700 40443.3 A1043.31 1043.31 0.0 0 0 42743.3 39400" />
<path d="M34700 20356.7 A1043.31 1043.31 0.0 0 0 33656.7 21400" />
<path d="M42743.3 21400 A1043.31 1043.31 0.0 0 0 41700 20356.7" />
<path d="M45200 34376
L45723 34376
" />
<path d="M45723 34376
L45723 34900
" />
<path d="M45723 35400
L45723 38423
" />
<path d="M44676 38423
L45723 38423
" />
<path d="M44676 35400
L44676 38423
" />
<path d="M44676 35400
L45723 35400
" />
<path d="M45158 18376
L45682 18376
" />
<path d="M45682 18376
L45682 18900
" />
<path d="M45682 19400
L45682 22423
" />
<path d="M44635 22423
L45682 22423
" />
<path d="M44635 19400
L44635 22423
" />
<path d="M44635 19400
L45682 19400
" />
<path d="M44676 27400
L45723 27400
" />
<path d="M44676 27400
L44676 30423
" />
<path d="M44676 30423
L45723 30423
" />
<path d="M45723 27400
L45723 30423
" />
<path d="M45723 26376
L45723 26900
" />
<path d="M45200 26376
L45723 26376
" />
<path d="M31723 21400
L30676 21400
" />
<path d="M31723 21400
L31723 18376
" />
<path d="M31723 18376
L30676 18376
" />
<path d="M30676 21400
L30676 18376
" />
<path d="M30676 22423
L30676 21900
" />
<path d="M31200 22423
L30676 22423
" />
<path d="M43589 39826
L42566 40948
" />
<path d="M45833 40948
L44829 39826
" />
<path d="M42566 46007
L45833 46007
" />
<path d="M42566 40948
L42566 46007
" />
<path d="M44829 39826
L43589 39826
" />
<path d="M45833 46007
L45833 40948
" />
</g>
<g style="fill:#000000; fill-opacity:0.0; 
stroke:#000000; stroke-width:39.3701; stroke-opacity:1; 
stroke-linecap:round; stroke-linejoin:round;">
<path d="M33752 42467
L33571 42467
" />
<path d="M33571 42467
L33571 42437
" />
<path d="M33571 42437
L33752 42437
" />
<path d="M33752 42437
L33752 42467
" />
<path d="M32649 42467
L32832 42467
" />
<path d="M32832 42467
L32832 42437
" />
<path d="M32832 42437
L32649 42437
" />
<path d="M32649 42437
L32649 42467
" />
<path d="M33751 41014
L33751 41171
" />
<path d="M33751 41014
L33593 41014
" />
<path d="M33751 42785
L33751 42628
" />
<path d="M33751 42785
L33593 42785
" />
<path d="M32648 42785
L32806 42785
" />
<path d="M32648 42785
L32648 42628
" />
<path d="M32648 41014
L32648 41171
" />
<path d="M32648 41014
L32806 41014
" />
</g>
<g style="fill:#000000; fill-opacity:0.0; 
stroke:#000000; stroke-width:47.2441; stroke-opacity:1; 
stroke-linecap:round; stroke-linejoin:round;">
<circle cx="40703.9" cy="17400" r="2401.57" /> 
<path d="M34841 16186
L34841 15613
" />
<path d="M35558 16186
L35558 15613
" />
<path d="M37058 16186
L37058 15613
" />
<path d="M36341 16186
L36341 15613
" />
<path d="M34753 17000
L34753 18529
" />
<path d="M35646 17000
L34753 17000
" />
<path d="M35646 18529
L35646 17000
" />
<path d="M31896 40529
L31896 39000
" />
<path d="M31896 39000
L31003 39000
" />
<path d="M31003 39000
L31003 40529
" />
<path d="M36253 17000
L36253 18529
" />
<path d="M37146 17000
L36253 17000
" />
<path d="M37146 18529
L37146 17000
" />
<circle cx="40700" cy="46400" r="590.551" /> 
<circle cx="38700" cy="46390.2" r="590.551" /> 
</g>
<g style="fill:#000000; fill-opacity:0.0; 
stroke:#000000; stroke-width:59.0551; stroke-opacity:1; 
stroke-linecap:round; stroke-linejoin:round;">
<text x="31200" y="34096.9"
textLength="789.183" font-size="524.934" lengthAdjust="spacingAndGlyphs"
text-anchor="middle" opacity="0">A7</text>
<path d="M30918 33965
L31106 33965
" />
<path d="M30881 34078
L31012 33684
L31143 34078
" />
<path d="M31237 33684
L31499 33684
L31331 34078
" />
</g>
<g style="fill:#000000; fill-opacity:0.0; 
stroke:#000000; stroke-width:50; stroke-opacity:1; 
stroke-linecap:round; stroke-linejoin:round;">
<text x="39200" y="42950"
textLength="662.486" font-size="400" lengthAdjust="spacingAndGlyphs"
text-anchor="middle" opacity="0">C1</text>
<path d="M39150 42907
L39135 42921
L39092 42935
L39064 42935
L39021 42921
L38992 42892
L38978 42864
L38964 42807
L38964 42764
L38978 42707
L38992 42678
L39021 42650
L39064 42635
L39092 42635
L39135 42650
L39150 42664
" />
<path d="M39435 42935
L39264 42935
" />
<path d="M39350 42935
L39350 42635
L39321 42678
L39292 42707
L39264 42721
" />
</g>
<g style="fill:#000000; fill-opacity:0.0; 
stroke:#000000; stroke-width:59.0551; stroke-opacity:1; 
stroke-linecap:round; stroke-linejoin:round;">
<g transform="rotate(-90 32200 42380.3)">
<text x="32200" y="42577.2"
textLength="833.654" font-size="524.934" lengthAdjust="spacingAndGlyphs"
text-anchor="middle" opacity="0">R1</text>
</g>
<path d="M32378 42445
L32190 42577
" />
<path d="M32378 42670
L31984 42670
L31984 42520
L32003 42483
L32021 42464
L32059 42445
L32115 42445
L32153 42464
L32171 42483
L32190 42520
L32190 42670
" />
<path d="M32378 42070
L32378 42295
" />
<path d="M32378 42183
L31984 42183
L32040 42220
L32078 42258
L32096 42295
" />
<text x="40740" y="43546.9"
textLength="845.426" font-size="524.934" lengthAdjust="spacingAndGlyphs"
text-anchor="middle" opacity="0">D1</text>
<path d="M40449 43528
L40449 43134
L40543 43134
L40599 43153
L40636 43190
L40655 43228
L40674 43303
L40674 43359
L40655 43434
L40636 43471
L40599 43509
L40543 43528
L40449 43528
" />
<path d="M41049 43528
L40824 43528
" />
<path d="M40936 43528
L40936 43134
L40899 43190
L40861 43228
L40824 43246
" />
<text x="31200" y="26096.9"
textLength="789.183" font-size="524.934" lengthAdjust="spacingAndGlyphs"
text-anchor="middle" opacity="0">A6</text>
<path d="M30918 25965
L31106 25965
" />
<path d="M30881 26078
L31012 25684
L31143 26078
" />
<path d="M31443 25684
L31368 25684
L31331 25703
L31312 25721
L31274 25778
L31256 25853
L31256 26003
L31274 26040
L31293 26059
L31331 26078
L31406 26078
L31443 26059
L31462 26040
L31481 26003
L31481 25909
L31462 25871
L31443 25853
L31406 25834
L31331 25834
L31293 25853
L31274 25871
L31256 25909
" />
<text x="38200" y="30096.9"
textLength="789.183" font-size="524.934" lengthAdjust="spacingAndGlyphs"
text-anchor="middle" opacity="0">A1</text>
<path d="M37918 29965
L38106 29965
" />
<path d="M37881 30078
L38012 29684
L38143 30078
" />
<path d="M38481 30078
L38256 30078
" />
<path d="M38368 30078
L38368 29684
L38331 29740
L38293 29778
L38256 29796
" />
<text x="45200" y="34006.3"
textLength="789.183" font-size="524.934" lengthAdjust="spacingAndGlyphs"
text-anchor="middle" opacity="0">A4</text>
<path d="M44918 33875
L45106 33875
" />
<path d="M44881 33987
L45012 33593
L45143 33987
" />
<path d="M45443 33725
L45443 33987
" />
<path d="M45349 33575
L45256 33856
L45499 33856
" />
<text x="45158.7" y="18006.3"
textLength="789.183" font-size="524.934" lengthAdjust="spacingAndGlyphs"
text-anchor="middle" opacity="0">A2</text>
<path d="M44877 17875
L45064 17875
" />
<path d="M44839 17987
L44971 17593
L45102 17987
" />
<path d="M45214 17631
L45233 17612
L45271 17593
L45364 17593
L45402 17612
L45421 17631
L45439 17668
L45439 17706
L45421 17762
L45196 17987
L45439 17987
" />
<text x="45200" y="26006.3"
textLength="789.183" font-size="524.934" lengthAdjust="spacingAndGlyphs"
text-anchor="middle" opacity="0">A3</text>
<path d="M44918 25875
L45106 25875
" />
<path d="M44881 25987
L45012 25593
L45143 25987
" />
<path d="M45237 25593
L45481 25593
L45349 25743
L45406 25743
L45443 25762
L45462 25781
L45481 25818
L45481 25912
L45462 25950
L45443 25968
L45406 25987
L45293 25987
L45256 25968
L45237 25950
" />
<text x="31200" y="18096.9"
textLength="789.183" font-size="524.934" lengthAdjust="spacingAndGlyphs"
text-anchor="middle" opacity="0">A5</text>
<path d="M30918 17965
L31106 17965
" />
<path d="M30881 18078
L31012 17684
L31143 18078
" />
<path d="M31462 17684
L31274 17684
L31256 17871
L31274 17853
L31312 17834
L31406 17834
L31443 17853
L31462 17871
L31481 17909
L31481 18003
L31462 18040
L31443 18059
L31406 18078
L31312 18078
L31274 18059
L31256 18040
" />
<text x="43000" y="45896.9"
textLength="751.687" font-size="524.934" lengthAdjust="spacingAndGlyphs"
text-anchor="middle" opacity="0">J1</text>
<path d="M42868 45484
L42868 45765
L42850 45821
L42812 45859
L42756 45878
L42718 45878
" />
<path d="M43262 45878
L43037 45878
" />
<path d="M43149 45878
L43149 45484
L43112 45540
L43074 45578
L43037 45596
" />
<g transform="rotate(-90 34200 41900)">
<text x="34200" y="42096.9"
textLength="826.678" font-size="524.934" lengthAdjust="spacingAndGlyphs"
text-anchor="middle" opacity="0">Z1</text>
</g>
<path d="M33984 42218
L33984 41956
L34378 42218
L34378 41956
" />
<path d="M34378 41600
L34378 41825
" />
<path d="M34378 41712
L33984 41712
L34040 41750
L34078 41787
L34096 41825
" />
<text x="40703.9" y="17596.9"
textLength="1220.38" font-size="524.934" lengthAdjust="spacingAndGlyphs"
text-anchor="middle" opacity="0">BZ1</text>
<path d="M40357 17371
L40413 17390
L40432 17409
L40450 17446
L40450 17503
L40432 17540
L40413 17559
L40375 17578
L40225 17578
L40225 17184
L40357 17184
L40394 17203
L40413 17221
L40432 17259
L40432 17296
L40413 17334
L40394 17353
L40357 17371
L40225 17371
" />
<path d="M40582 17184
L40844 17184
L40582 17578
L40844 17578
" />
<path d="M41200 17578
L40975 17578
" />
<path d="M41088 17578
L41088 17184
L41050 17240
L41013 17278
L40975 17296
" />
<text x="42203.9" y="18596.9"
textLength="564.211" font-size="524.934" lengthAdjust="spacingAndGlyphs"
text-anchor="middle" opacity="0">+</text>
<path d="M42053 18428
L42353 18428
" />
<path d="M42203 18578
L42203 18278
" />
<g transform="rotate(-90 34400 15900)">
<text x="34400" y="16096.9"
textLength="845.426" font-size="524.934" lengthAdjust="spacingAndGlyphs"
text-anchor="middle" opacity="0">R2</text>
</g>
<path d="M34578 15965
L34390 16096
" />
<path d="M34578 16190
L34184 16190
L34184 16040
L34203 16003
L34221 15984
L34259 15965
L34315 15965
L34353 15984
L34371 16003
L34390 16040
L34390 16190
" />
<path d="M34221 15815
L34203 15796
L34184 15759
L34184 15665
L34203 15628
L34221 15609
L34259 15590
L34296 15590
L34353 15609
L34578 15834
L34578 15590
" />
<g transform="rotate(-90 36000 15900)">
<text x="36000" y="16096.9"
textLength="845.426" font-size="524.934" lengthAdjust="spacingAndGlyphs"
text-anchor="middle" opacity="0">R3</text>
</g>
<path d="M36178 15965
L35990 16096
" />
<path d="M36178 16190
L35784 16190
L35784 16040
L35803 16003
L35821 15984
L35859 15965
L35915 15965
L35953 15984
L35971 16003
L35990 16040
L35990 16190
" />
<path d="M35784 15834
L35784 15590
L35934 15721
L35934 15665
L35953 15628
L35971 15609
L36009 15590
L36103 15590
L36140 15609
L36159 15628
L36178 15665
L36178 15778
L36159 15815
L36140 15834
" />
<g transform="rotate(-90 32166.5 39900)">
<text x="32166.5" y="40096.9"
textLength="845.426" font-size="524.934" lengthAdjust="spacingAndGlyphs"
text-anchor="middle" opacity="0">D3</text>
</g>
<path d="M32344 40190
L31950 40190
L31950 40096
L31969 40040
L32007 40003
L32044 39984
L32119 39965
L32175 39965
L32250 39984
L32288 40003
L32325 40040
L32344 40096
L32344 40190
" />
<path d="M31950 39834
L31950 39590
L32100 39721
L32100 39665
L32119 39628
L32138 39609
L32175 39590
L32269 39590
L32307 39609
L32325 39628
L32344 39665
L32344 39778
L32325 39815
L32307 39834
" />
<g >
</g>
</g> 
</svg>
