<?xml version="1.0" standalone="no"?>
 <!DOCTYPE svg PUBLIC "-//W3C//DTD SVG 1.1//EN" 
 "http://www.w3.org/Graphics/SVG/1.1/DTD/svg11.dtd"> 
<svg
  xmlns:svg="http://www.w3.org/2000/svg"
  xmlns="http://www.w3.org/2000/svg"
  xmlns:xlink="http://www.w3.org/1999/xlink"
  version="1.1"
  width="17.780000cm" height="17.780000cm" viewBox="0 0 70000 70000">
<title>SVG Picture created as M5_BuggyProject-F_Paste.svg date 2022/03/10 12:53:45 </title>
  <desc>Picture generated by PCBNEW </desc>
<g style="fill:#000000; fill-opacity:1;stroke:#000000; stroke-opacity:1;
stroke-linecap:round; stroke-linejoin:round;"
 transform="translate(0 0) scale(1 1)">
</g>
<g style="fill:#000000; fill-opacity:0.0; 
stroke:#000000; stroke-width:-0.000393701; stroke-opacity:1; 
stroke-linecap:round; stroke-linejoin:round;">
<g >
</g>
<g >
</g>
<g >
</g>
<g >
</g>
<g >
</g>
<g >
</g>
<g style="fill:#000000; fill-opacity:0.0; 
stroke:#000000; stroke-width:-0.000393701; stroke-opacity:1; 
stroke-linecap:round; stroke-linejoin:round;">
</g>
<g style="fill:#000000; fill-opacity:0.0; 
stroke:#000000; stroke-width:0; stroke-opacity:1; 
stroke-linecap:round; stroke-linejoin:round;">
</g>
<g style="fill:#000000; fill-opacity:1.0; 
stroke:#000000; stroke-width:0; stroke-opacity:1; 
stroke-linecap:round; stroke-linejoin:round;">
<path style="fill:#000000; fill-opacity:1.0; 
stroke:#000000; stroke-width:0; stroke-opacity:1; 
stroke-linecap:round; stroke-linejoin:round;fill-rule:evenodd;"
d="M 29756.9,41556
29766.4,41557.4
29775.8,41559.8
29784.9,41563
29793.6,41567.1
29801.9,41572.1
29809.7,41577.9
29816.8,41584.3
29823.3,41591.5
29829.1,41599.3
29834,41607.5
29838.2,41616.3
29841.4,41625.4
29843.8,41634.7
29845.2,41644.3
29845.7,41653.9
29845.7,42146.1
29845.2,42155.7
29843.8,42165.3
29841.4,42174.6
29838.2,42183.7
29834,42192.5
29829.1,42200.7
29823.3,42208.5
29816.8,42215.7
29809.7,42222.1
29801.9,42227.9
29793.6,42232.9
29784.9,42237
29775.8,42240.2
29766.4,42242.6
29756.9,42244
29747.2,42244.5
29501.2,42244.5
29491.5,42244
29482,42242.6
29472.6,42240.2
29463.5,42237
29454.8,42232.9
29446.5,42227.9
29438.7,42222.1
29431.6,42215.7
29425.1,42208.5
29419.3,42200.7
29414.4,42192.5
29410.2,42183.7
29407,42174.6
29404.6,42165.3
29403.2,42155.7
29402.8,42146.1
29402.8,41653.9
29403.2,41644.3
29404.6,41634.7
29407,41625.4
29410.2,41616.3
29414.4,41607.5
29419.3,41599.3
29425.1,41591.5
29431.6,41584.3
29438.7,41577.9
29446.5,41572.1
29454.8,41567.1
29463.5,41563
29472.6,41559.8
29482,41557.4
29491.5,41556
29501.2,41555.5
29747.2,41555.5
Z" /> 
<path style="fill:#000000; fill-opacity:1.0; 
stroke:#000000; stroke-width:0; stroke-opacity:1; 
stroke-linecap:round; stroke-linejoin:round;fill-rule:evenodd;"
d="M 30908.5,41556
30918,41557.4
30927.4,41559.8
30936.5,41563
30945.2,41567.1
30953.5,41572.1
30961.3,41577.9
30968.4,41584.3
30974.9,41591.5
30980.7,41599.3
30985.6,41607.5
30989.8,41616.3
30993,41625.4
30995.4,41634.7
30996.8,41644.3
30997.2,41653.9
30997.2,42146.1
30996.8,42155.7
30995.4,42165.3
30993,42174.6
30989.8,42183.7
30985.6,42192.5
30980.7,42200.7
30974.9,42208.5
30968.4,42215.7
30961.3,42222.1
30953.5,42227.9
30945.2,42232.9
30936.5,42237
30927.4,42240.2
30918,42242.6
30908.5,42244
30898.8,42244.5
30652.8,42244.5
30643.1,42244
30633.6,42242.6
30624.2,42240.2
30615.1,42237
30606.4,42232.9
30598.1,42227.9
30590.3,42222.1
30583.2,42215.7
30576.7,42208.5
30570.9,42200.7
30566,42192.5
30561.8,42183.7
30558.6,42174.6
30556.2,42165.3
30554.8,42155.7
30554.3,42146.1
30554.3,41653.9
30554.8,41644.3
30556.2,41634.7
30558.6,41625.4
30561.8,41616.3
30566,41607.5
30570.9,41599.3
30576.7,41591.5
30583.2,41584.3
30590.3,41577.9
30598.1,41572.1
30606.4,41567.1
30615.1,41563
30624.2,41559.8
30633.6,41557.4
30643.1,41556
30652.8,41555.5
30898.8,41555.5
Z" /> 
</g>
<g >
</g>
<g >
</g>
<g >
</g>
<g >
</g>
<g >
</g>
<g >
</g>
<g >
</g>
<g >
</g>
<g style="fill:#000000; fill-opacity:1.0; 
stroke:#000000; stroke-width:0; stroke-opacity:1; 
stroke-linecap:round; stroke-linejoin:round;">
<path style="fill:#000000; fill-opacity:1.0; 
stroke:#000000; stroke-width:0; stroke-opacity:1; 
stroke-linecap:round; stroke-linejoin:round;fill-rule:evenodd;"
d="M 33404.7,41565.4
33404.7,42234.6
32420.5,42234.6
32420.5,41565.4
Z" /> 
<path style="fill:#000000; fill-opacity:1.0; 
stroke:#000000; stroke-width:0; stroke-opacity:1; 
stroke-linecap:round; stroke-linejoin:round;fill-rule:evenodd;"
d="M 34979.5,41565.4
34979.5,42234.6
33995.3,42234.6
33995.3,41565.4
Z" /> 
</g>
<g >
</g>
<g >
</g>
<g >
</g>
<g >
</g>
<g >
</g>
<g >
</g>
<g style="fill:#000000; fill-opacity:1.0; 
stroke:#000000; stroke-width:0; stroke-opacity:1; 
stroke-linecap:round; stroke-linejoin:round;">
<path style="fill:#000000; fill-opacity:1.0; 
stroke:#000000; stroke-width:0; stroke-opacity:1; 
stroke-linecap:round; stroke-linejoin:round;fill-rule:evenodd;"
d="M 30508.5,15356
30518,15357.4
30527.4,15359.8
30536.5,15363
30545.2,15367.1
30553.5,15372.1
30561.3,15377.9
30568.4,15384.3
30574.9,15391.5
30580.7,15399.3
30585.6,15407.5
30589.8,15416.3
30593,15425.4
30595.4,15434.7
30596.8,15444.3
30597.2,15453.9
30597.2,15946.1
30596.8,15955.7
30595.4,15965.3
30593,15974.6
30589.8,15983.7
30585.6,15992.5
30580.7,16000.7
30574.9,16008.5
30568.4,16015.7
30561.3,16022.1
30553.5,16027.9
30545.2,16032.9
30536.5,16037
30527.4,16040.2
30518,16042.6
30508.5,16044
30498.8,16044.5
30252.8,16044.5
30243.1,16044
30233.6,16042.6
30224.2,16040.2
30215.1,16037
30206.4,16032.9
30198.1,16027.9
30190.3,16022.1
30183.2,16015.7
30176.7,16008.5
30170.9,16000.7
30166,15992.5
30161.8,15983.7
30158.6,15974.6
30156.2,15965.3
30154.8,15955.7
30154.3,15946.1
30154.3,15453.9
30154.8,15444.3
30156.2,15434.7
30158.6,15425.4
30161.8,15416.3
30166,15407.5
30170.9,15399.3
30176.7,15391.5
30183.2,15384.3
30190.3,15377.9
30198.1,15372.1
30206.4,15367.1
30215.1,15363
30224.2,15359.8
30233.6,15357.4
30243.1,15356
30252.8,15355.5
30498.8,15355.5
Z" /> 
<path style="fill:#000000; fill-opacity:1.0; 
stroke:#000000; stroke-width:0; stroke-opacity:1; 
stroke-linecap:round; stroke-linejoin:round;fill-rule:evenodd;"
d="M 29356.9,15356
29366.4,15357.4
29375.8,15359.8
29384.9,15363
29393.6,15367.1
29401.9,15372.1
29409.7,15377.9
29416.8,15384.3
29423.3,15391.5
29429.1,15399.3
29434,15407.5
29438.2,15416.3
29441.4,15425.4
29443.8,15434.7
29445.2,15444.3
29445.7,15453.9
29445.7,15946.1
29445.2,15955.7
29443.8,15965.3
29441.4,15974.6
29438.2,15983.7
29434,15992.5
29429.1,16000.7
29423.3,16008.5
29416.8,16015.7
29409.7,16022.1
29401.9,16027.9
29393.6,16032.9
29384.9,16037
29375.8,16040.2
29366.4,16042.6
29356.9,16044
29347.2,16044.5
29101.2,16044.5
29091.5,16044
29082,16042.6
29072.6,16040.2
29063.5,16037
29054.8,16032.9
29046.5,16027.9
29038.7,16022.1
29031.6,16015.7
29025.1,16008.5
29019.3,16000.7
29014.4,15992.5
29010.2,15983.7
29007,15974.6
29004.6,15965.3
29003.2,15955.7
29002.8,15946.1
29002.8,15453.9
29003.2,15444.3
29004.6,15434.7
29007,15425.4
29010.2,15416.3
29014.4,15407.5
29019.3,15399.3
29025.1,15391.5
29031.6,15384.3
29038.7,15377.9
29046.5,15372.1
29054.8,15367.1
29063.5,15363
29072.6,15359.8
29082,15357.4
29091.5,15356
29101.2,15355.5
29347.2,15355.5
Z" /> 
</g>
<g >
</g>
<g style="fill:#000000; fill-opacity:1.0; 
stroke:#000000; stroke-width:0; stroke-opacity:1; 
stroke-linecap:round; stroke-linejoin:round;">
<path style="fill:#000000; fill-opacity:1.0; 
stroke:#000000; stroke-width:0; stroke-opacity:1; 
stroke-linecap:round; stroke-linejoin:round;fill-rule:evenodd;"
d="M 31556.9,15356
31566.4,15357.4
31575.8,15359.8
31584.9,15363
31593.6,15367.1
31601.9,15372.1
31609.7,15377.9
31616.8,15384.3
31623.3,15391.5
31629.1,15399.3
31634,15407.5
31638.2,15416.3
31641.4,15425.4
31643.8,15434.7
31645.2,15444.3
31645.7,15453.9
31645.7,15946.1
31645.2,15955.7
31643.8,15965.3
31641.4,15974.6
31638.2,15983.7
31634,15992.5
31629.1,16000.7
31623.3,16008.5
31616.8,16015.7
31609.7,16022.1
31601.9,16027.9
31593.6,16032.9
31584.9,16037
31575.8,16040.2
31566.4,16042.6
31556.9,16044
31547.2,16044.5
31301.2,16044.5
31291.5,16044
31282,16042.6
31272.6,16040.2
31263.5,16037
31254.8,16032.9
31246.5,16027.9
31238.7,16022.1
31231.6,16015.7
31225.1,16008.5
31219.3,16000.7
31214.4,15992.5
31210.2,15983.7
31207,15974.6
31204.6,15965.3
31203.2,15955.7
31202.8,15946.1
31202.8,15453.9
31203.2,15444.3
31204.6,15434.7
31207,15425.4
31210.2,15416.3
31214.4,15407.5
31219.3,15399.3
31225.1,15391.5
31231.6,15384.3
31238.7,15377.9
31246.5,15372.1
31254.8,15367.1
31263.5,15363
31272.6,15359.8
31282,15357.4
31291.5,15356
31301.2,15355.5
31547.2,15355.5
Z" /> 
<path style="fill:#000000; fill-opacity:1.0; 
stroke:#000000; stroke-width:0; stroke-opacity:1; 
stroke-linecap:round; stroke-linejoin:round;fill-rule:evenodd;"
d="M 32708.5,15356
32718,15357.4
32727.4,15359.8
32736.5,15363
32745.2,15367.1
32753.5,15372.1
32761.3,15377.9
32768.4,15384.3
32774.9,15391.5
32780.7,15399.3
32785.6,15407.5
32789.8,15416.3
32793,15425.4
32795.4,15434.7
32796.8,15444.3
32797.2,15453.9
32797.2,15946.1
32796.8,15955.7
32795.4,15965.3
32793,15974.6
32789.8,15983.7
32785.6,15992.5
32780.7,16000.7
32774.9,16008.5
32768.4,16015.7
32761.3,16022.1
32753.5,16027.9
32745.2,16032.9
32736.5,16037
32727.4,16040.2
32718,16042.6
32708.5,16044
32698.8,16044.5
32452.8,16044.5
32443.1,16044
32433.6,16042.6
32424.2,16040.2
32415.1,16037
32406.4,16032.9
32398.1,16027.9
32390.3,16022.1
32383.2,16015.7
32376.7,16008.5
32370.9,16000.7
32366,15992.5
32361.8,15983.7
32358.6,15974.6
32356.2,15965.3
32354.8,15955.7
32354.3,15946.1
32354.3,15453.9
32354.8,15444.3
32356.2,15434.7
32358.6,15425.4
32361.8,15416.3
32366,15407.5
32370.9,15399.3
32376.7,15391.5
32383.2,15384.3
32390.3,15377.9
32398.1,15372.1
32406.4,15367.1
32415.1,15363
32424.2,15359.8
32433.6,15357.4
32443.1,15356
32452.8,15355.5
32698.8,15355.5
Z" /> 
</g>
<g >
</g>
<g style="fill:#000000; fill-opacity:1.0; 
stroke:#000000; stroke-width:0; stroke-opacity:1; 
stroke-linecap:round; stroke-linejoin:round;">
<path style="fill:#000000; fill-opacity:1.0; 
stroke:#000000; stroke-width:0; stroke-opacity:1; 
stroke-linecap:round; stroke-linejoin:round;fill-rule:evenodd;"
d="M 29406.1,14356
29415.7,14357.4
29425,14359.8
29434.1,14363
29442.9,14367.1
29451.1,14372.1
29458.9,14377.9
29466.1,14384.3
29472.5,14391.5
29478.3,14399.3
29483.3,14407.5
29487.4,14416.3
29490.6,14425.4
29493,14434.7
29494.4,14444.3
29494.9,14453.9
29494.9,14946.1
29494.4,14955.7
29493,14965.3
29490.6,14974.6
29487.4,14983.7
29483.3,14992.5
29478.3,15000.7
29472.5,15008.5
29466.1,15015.7
29458.9,15022.1
29451.1,15027.9
29442.9,15032.9
29434.1,15037
29425,15040.2
29415.7,15042.6
29406.1,15044
29396.5,15044.5
29101.2,15044.5
29091.5,15044
29082,15042.6
29072.6,15040.2
29063.5,15037
29054.8,15032.9
29046.5,15027.9
29038.7,15022.1
29031.6,15015.7
29025.1,15008.5
29019.3,15000.7
29014.4,14992.5
29010.2,14983.7
29007,14974.6
29004.6,14965.3
29003.2,14955.7
29002.8,14946.1
29002.8,14453.9
29003.2,14444.3
29004.6,14434.7
29007,14425.4
29010.2,14416.3
29014.4,14407.5
29019.3,14399.3
29025.1,14391.5
29031.6,14384.3
29038.7,14377.9
29046.5,14372.1
29054.8,14367.1
29063.5,14363
29072.6,14359.8
29082,14357.4
29091.5,14356
29101.2,14355.5
29396.5,14355.5
Z" /> 
<path style="fill:#000000; fill-opacity:1.0; 
stroke:#000000; stroke-width:0; stroke-opacity:1; 
stroke-linecap:round; stroke-linejoin:round;fill-rule:evenodd;"
d="M 30508.5,14356
30518,14357.4
30527.4,14359.8
30536.5,14363
30545.2,14367.1
30553.5,14372.1
30561.3,14377.9
30568.4,14384.3
30574.9,14391.5
30580.7,14399.3
30585.6,14407.5
30589.8,14416.3
30593,14425.4
30595.4,14434.7
30596.8,14444.3
30597.2,14453.9
30597.2,14946.1
30596.8,14955.7
30595.4,14965.3
30593,14974.6
30589.8,14983.7
30585.6,14992.5
30580.7,15000.7
30574.9,15008.5
30568.4,15015.7
30561.3,15022.1
30553.5,15027.9
30545.2,15032.9
30536.5,15037
30527.4,15040.2
30518,15042.6
30508.5,15044
30498.8,15044.5
30203.5,15044.5
30193.9,15044
30184.3,15042.6
30175,15040.2
30165.9,15037
30157.1,15032.9
30148.9,15027.9
30141.1,15022.1
30133.9,15015.7
30127.5,15008.5
30121.7,15000.7
30116.7,14992.5
30112.6,14983.7
30109.4,14974.6
30107,14965.3
30105.6,14955.7
30105.1,14946.1
30105.1,14453.9
30105.6,14444.3
30107,14434.7
30109.4,14425.4
30112.6,14416.3
30116.7,14407.5
30121.7,14399.3
30127.5,14391.5
30133.9,14384.3
30141.1,14377.9
30148.9,14372.1
30157.1,14367.1
30165.9,14363
30175,14359.8
30184.3,14357.4
30193.9,14356
30203.5,14355.5
30498.8,14355.5
Z" /> 
</g>
<g >
</g>
<g style="fill:#000000; fill-opacity:1.0; 
stroke:#000000; stroke-width:0; stroke-opacity:1; 
stroke-linecap:round; stroke-linejoin:round;">
<path style="fill:#000000; fill-opacity:1.0; 
stroke:#000000; stroke-width:0; stroke-opacity:1; 
stroke-linecap:round; stroke-linejoin:round;fill-rule:evenodd;"
d="M 29806.1,40456
29815.7,40457.4
29825,40459.8
29834.1,40463
29842.9,40467.1
29851.1,40472.1
29858.9,40477.9
29866.1,40484.3
29872.5,40491.5
29878.3,40499.3
29883.3,40507.5
29887.4,40516.3
29890.6,40525.4
29893,40534.7
29894.4,40544.3
29894.9,40553.9
29894.9,41046.1
29894.4,41055.7
29893,41065.3
29890.6,41074.6
29887.4,41083.7
29883.3,41092.5
29878.3,41100.7
29872.5,41108.5
29866.1,41115.7
29858.9,41122.1
29851.1,41127.9
29842.9,41132.9
29834.1,41137
29825,41140.2
29815.7,41142.6
29806.1,41144
29796.5,41144.5
29501.2,41144.5
29491.5,41144
29482,41142.6
29472.6,41140.2
29463.5,41137
29454.8,41132.9
29446.5,41127.9
29438.7,41122.1
29431.6,41115.7
29425.1,41108.5
29419.3,41100.7
29414.4,41092.5
29410.2,41083.7
29407,41074.6
29404.6,41065.3
29403.2,41055.7
29402.8,41046.1
29402.8,40553.9
29403.2,40544.3
29404.6,40534.7
29407,40525.4
29410.2,40516.3
29414.4,40507.5
29419.3,40499.3
29425.1,40491.5
29431.6,40484.3
29438.7,40477.9
29446.5,40472.1
29454.8,40467.1
29463.5,40463
29472.6,40459.8
29482,40457.4
29491.5,40456
29501.2,40455.5
29796.5,40455.5
Z" /> 
<path style="fill:#000000; fill-opacity:1.0; 
stroke:#000000; stroke-width:0; stroke-opacity:1; 
stroke-linecap:round; stroke-linejoin:round;fill-rule:evenodd;"
d="M 30908.5,40456
30918,40457.4
30927.4,40459.8
30936.5,40463
30945.2,40467.1
30953.5,40472.1
30961.3,40477.9
30968.4,40484.3
30974.9,40491.5
30980.7,40499.3
30985.6,40507.5
30989.8,40516.3
30993,40525.4
30995.4,40534.7
30996.8,40544.3
30997.2,40553.9
30997.2,41046.1
30996.8,41055.7
30995.4,41065.3
30993,41074.6
30989.8,41083.7
30985.6,41092.5
30980.7,41100.7
30974.9,41108.5
30968.4,41115.7
30961.3,41122.1
30953.5,41127.9
30945.2,41132.9
30936.5,41137
30927.4,41140.2
30918,41142.6
30908.5,41144
30898.8,41144.5
30603.5,41144.5
30593.9,41144
30584.3,41142.6
30575,41140.2
30565.9,41137
30557.1,41132.9
30548.9,41127.9
30541.1,41122.1
30533.9,41115.7
30527.5,41108.5
30521.7,41100.7
30516.7,41092.5
30512.6,41083.7
30509.4,41074.6
30507,41065.3
30505.6,41055.7
30505.1,41046.1
30505.1,40553.9
30505.6,40544.3
30507,40534.7
30509.4,40525.4
30512.6,40516.3
30516.7,40507.5
30521.7,40499.3
30527.5,40491.5
30533.9,40484.3
30541.1,40477.9
30548.9,40472.1
30557.1,40467.1
30565.9,40463
30575,40459.8
30584.3,40457.4
30593.9,40456
30603.5,40455.5
30898.8,40455.5
Z" /> 
</g>
<g >
</g>
<g style="fill:#000000; fill-opacity:1.0; 
stroke:#000000; stroke-width:0; stroke-opacity:1; 
stroke-linecap:round; stroke-linejoin:round;">
<path style="fill:#000000; fill-opacity:1.0; 
stroke:#000000; stroke-width:0; stroke-opacity:1; 
stroke-linecap:round; stroke-linejoin:round;fill-rule:evenodd;"
d="M 31606.1,14356
31615.7,14357.4
31625,14359.8
31634.1,14363
31642.9,14367.1
31651.1,14372.1
31658.9,14377.9
31666.1,14384.3
31672.5,14391.5
31678.3,14399.3
31683.3,14407.5
31687.4,14416.3
31690.6,14425.4
31693,14434.7
31694.4,14444.3
31694.9,14453.9
31694.9,14946.1
31694.4,14955.7
31693,14965.3
31690.6,14974.6
31687.4,14983.7
31683.3,14992.5
31678.3,15000.7
31672.5,15008.5
31666.1,15015.7
31658.9,15022.1
31651.1,15027.9
31642.9,15032.9
31634.1,15037
31625,15040.2
31615.7,15042.6
31606.1,15044
31596.5,15044.5
31301.2,15044.5
31291.5,15044
31282,15042.6
31272.6,15040.2
31263.5,15037
31254.8,15032.9
31246.5,15027.9
31238.7,15022.1
31231.6,15015.7
31225.1,15008.5
31219.3,15000.7
31214.4,14992.5
31210.2,14983.7
31207,14974.6
31204.6,14965.3
31203.2,14955.7
31202.8,14946.1
31202.8,14453.9
31203.2,14444.3
31204.6,14434.7
31207,14425.4
31210.2,14416.3
31214.4,14407.5
31219.3,14399.3
31225.1,14391.5
31231.6,14384.3
31238.7,14377.9
31246.5,14372.1
31254.8,14367.1
31263.5,14363
31272.6,14359.8
31282,14357.4
31291.5,14356
31301.2,14355.5
31596.5,14355.5
Z" /> 
<path style="fill:#000000; fill-opacity:1.0; 
stroke:#000000; stroke-width:0; stroke-opacity:1; 
stroke-linecap:round; stroke-linejoin:round;fill-rule:evenodd;"
d="M 32708.5,14356
32718,14357.4
32727.4,14359.8
32736.5,14363
32745.2,14367.1
32753.5,14372.1
32761.3,14377.9
32768.4,14384.3
32774.9,14391.5
32780.7,14399.3
32785.6,14407.5
32789.8,14416.3
32793,14425.4
32795.4,14434.7
32796.8,14444.3
32797.2,14453.9
32797.2,14946.1
32796.8,14955.7
32795.4,14965.3
32793,14974.6
32789.8,14983.7
32785.6,14992.5
32780.7,15000.7
32774.9,15008.5
32768.4,15015.7
32761.3,15022.1
32753.5,15027.9
32745.2,15032.9
32736.5,15037
32727.4,15040.2
32718,15042.6
32708.5,15044
32698.8,15044.5
32403.5,15044.5
32393.9,15044
32384.3,15042.6
32375,15040.2
32365.9,15037
32357.1,15032.9
32348.9,15027.9
32341.1,15022.1
32333.9,15015.7
32327.5,15008.5
32321.7,15000.7
32316.7,14992.5
32312.6,14983.7
32309.4,14974.6
32307,14965.3
32305.6,14955.7
32305.1,14946.1
32305.1,14453.9
32305.6,14444.3
32307,14434.7
32309.4,14425.4
32312.6,14416.3
32316.7,14407.5
32321.7,14399.3
32327.5,14391.5
32333.9,14384.3
32341.1,14377.9
32348.9,14372.1
32357.1,14367.1
32365.9,14363
32375,14359.8
32384.3,14357.4
32393.9,14356
32403.5,14355.5
32698.8,14355.5
Z" /> 
</g>
<g >
</g>
<g >
</g>
<g >
</g>
<g >
</g>
<g >
</g>
<g >
</g>
</g> 
</svg>
