%TF.GenerationSoftware,KiCad,Pcbnew,(5.1.12)-1*%
%TF.CreationDate,2022-01-27T23:25:20+05:30*%
%TF.ProjectId,M5_BuggyProject,4d355f42-7567-4677-9950-726f6a656374,v1.0*%
%TF.SameCoordinates,Original*%
%TF.FileFunction,Copper,L1,Top*%
%TF.FilePolarity,Positive*%
%FSLAX46Y46*%
G04 Gerber Fmt 4.6, Leading zero omitted, Abs format (unit mm)*
G04 Created by KiCad (PCBNEW (5.1.12)-1) date 2022-01-27 23:25:20*
%MOMM*%
%LPD*%
G01*
G04 APERTURE LIST*
%TA.AperFunction,ComponentPad*%
%ADD10R,1.700000X1.700000*%
%TD*%
%TA.AperFunction,ComponentPad*%
%ADD11O,1.700000X1.700000*%
%TD*%
%TA.AperFunction,ComponentPad*%
%ADD12R,2.000000X2.000000*%
%TD*%
%TA.AperFunction,ComponentPad*%
%ADD13C,2.000000*%
%TD*%
%TA.AperFunction,ComponentPad*%
%ADD14O,2.000000X2.000000*%
%TD*%
%TA.AperFunction,ComponentPad*%
%ADD15C,1.600000*%
%TD*%
%TA.AperFunction,ComponentPad*%
%ADD16R,1.600000X1.600000*%
%TD*%
%TA.AperFunction,ComponentPad*%
%ADD17C,6.000000*%
%TD*%
%TA.AperFunction,SMDPad,CuDef*%
%ADD18R,1.700000X2.500000*%
%TD*%
%TA.AperFunction,ComponentPad*%
%ADD19C,6.400000*%
%TD*%
%TA.AperFunction,ComponentPad*%
%ADD20C,0.800000*%
%TD*%
%TA.AperFunction,ViaPad*%
%ADD21C,0.800000*%
%TD*%
%TA.AperFunction,Conductor*%
%ADD22C,0.508000*%
%TD*%
%TA.AperFunction,Conductor*%
%ADD23C,3.556000*%
%TD*%
%TA.AperFunction,Conductor*%
%ADD24C,0.254000*%
%TD*%
%TA.AperFunction,Conductor*%
%ADD25C,0.100000*%
%TD*%
G04 APERTURE END LIST*
D10*
%TO.P,A7,1*%
%TO.N,BIN1*%
X79248000Y-96266000D03*
D11*
%TO.P,A7,2*%
%TO.N,BIN2*%
X79248000Y-93726000D03*
%TO.P,A7,3*%
%TO.N,+10V*%
X79248000Y-91186000D03*
%TO.P,A7,4*%
%TO.N,GND*%
X79248000Y-88646000D03*
%TD*%
D12*
%TO.P,C1,1*%
%TO.N,+10V*%
X95885000Y-107188000D03*
D13*
%TO.P,C1,2*%
%TO.N,GND*%
X95885000Y-112188000D03*
%TD*%
%TO.P,R1,1*%
%TO.N,Net-(D3-Pad2)*%
%TA.AperFunction,SMDPad,CuDef*%
G36*
G01*
X79257997Y-105621000D02*
X80508003Y-105621000D01*
G75*
G02*
X80758000Y-105870997I0J-249997D01*
G01*
X80758000Y-106496003D01*
G75*
G02*
X80508003Y-106746000I-249997J0D01*
G01*
X79257997Y-106746000D01*
G75*
G02*
X79008000Y-106496003I0J249997D01*
G01*
X79008000Y-105870997D01*
G75*
G02*
X79257997Y-105621000I249997J0D01*
G01*
G37*
%TD.AperFunction*%
%TO.P,R1,2*%
%TO.N,+10V*%
%TA.AperFunction,SMDPad,CuDef*%
G36*
G01*
X79257997Y-108546000D02*
X80508003Y-108546000D01*
G75*
G02*
X80758000Y-108795997I0J-249997D01*
G01*
X80758000Y-109421003D01*
G75*
G02*
X80508003Y-109671000I-249997J0D01*
G01*
X79257997Y-109671000D01*
G75*
G02*
X79008000Y-109421003I0J249997D01*
G01*
X79008000Y-108795997D01*
G75*
G02*
X79257997Y-108546000I249997J0D01*
G01*
G37*
%TD.AperFunction*%
%TD*%
D12*
%TO.P,D1,1*%
%TO.N,+10V*%
X103352600Y-107569000D03*
D14*
%TO.P,D1,2*%
%TO.N,VCC*%
X103352600Y-112649000D03*
%TD*%
D11*
%TO.P,A6,4*%
%TO.N,GND*%
X79248000Y-68326000D03*
%TO.P,A6,3*%
%TO.N,+10V*%
X79248000Y-70866000D03*
%TO.P,A6,2*%
%TO.N,BIN2*%
X79248000Y-73406000D03*
D10*
%TO.P,A6,1*%
%TO.N,BIN1*%
X79248000Y-75946000D03*
%TD*%
D15*
%TO.P,A1,16*%
%TO.N,Net-(A1-Pad16)*%
X86868000Y-96266000D03*
%TO.P,A1,15*%
%TO.N,Net-(A1-Pad15)*%
X86868000Y-93726000D03*
%TO.P,A1,14*%
%TO.N,Net-(A1-Pad14)*%
X86868000Y-91186000D03*
%TO.P,A1,13*%
%TO.N,Net-(A1-Pad13)*%
X86868000Y-88646000D03*
%TO.P,A1,12*%
%TO.N,Net-(A1-Pad12)*%
X86868000Y-86106000D03*
%TO.P,A1,11*%
%TO.N,Net-(A1-Pad11)*%
X86868000Y-83566000D03*
%TO.P,A1,10*%
%TO.N,CONFIG_R*%
X86868000Y-81026000D03*
%TO.P,A1,9*%
%TO.N,CONFIG_L*%
X86868000Y-78486000D03*
%TO.P,A1,8*%
%TO.N,CHANNEL_3*%
X86868000Y-75946000D03*
%TO.P,A1,7*%
%TO.N,CHANNEL_2*%
X86868000Y-73406000D03*
%TO.P,A1,6*%
%TO.N,CHANNEL_1*%
X86868000Y-70866000D03*
%TO.P,A1,5*%
%TO.N,Net-(A1-Pad5)*%
X86868000Y-68326000D03*
%TO.P,A1,4*%
%TO.N,GND*%
X86868000Y-65786000D03*
%TO.P,A1,3*%
%TO.N,Net-(A1-Pad3)*%
X86868000Y-63246000D03*
%TO.P,A1,2*%
%TO.N,Net-(A1-Pad2)*%
X86868000Y-60706000D03*
D16*
%TO.P,A1,1*%
%TO.N,Net-(A1-Pad1)*%
X86868000Y-58166000D03*
D15*
%TO.P,A1,28*%
%TO.N,Net-(A1-Pad28)*%
X107188000Y-68326000D03*
%TO.P,A1,27*%
%TO.N,Net-(A1-Pad27)*%
X107188000Y-70866000D03*
%TO.P,A1,26*%
%TO.N,Net-(A1-Pad26)*%
X107188000Y-73406000D03*
%TO.P,A1,25*%
%TO.N,Net-(A1-Pad25)*%
X107188000Y-75946000D03*
%TO.P,A1,24*%
%TO.N,BEEP*%
X107188000Y-78486000D03*
%TO.P,A1,23*%
%TO.N,Net-(A1-Pad23)*%
X107188000Y-81026000D03*
%TO.P,A1,22*%
%TO.N,BIN2*%
X107188000Y-83566000D03*
%TO.P,A1,21*%
%TO.N,BIN1*%
X107188000Y-86106000D03*
%TO.P,A1,20*%
%TO.N,AIN1*%
X107188000Y-88646000D03*
%TO.P,A1,19*%
%TO.N,AIN2*%
X107188000Y-91186000D03*
%TO.P,A1,18*%
%TO.N,Net-(A1-Pad18)*%
X107188000Y-93726000D03*
%TO.P,A1,17*%
%TO.N,Net-(A1-Pad17)*%
X107188000Y-96266000D03*
%TD*%
D11*
%TO.P,A4,4*%
%TO.N,GND*%
X114808000Y-96266000D03*
%TO.P,A4,3*%
%TO.N,+10V*%
X114808000Y-93726000D03*
%TO.P,A4,2*%
%TO.N,AIN2*%
X114808000Y-91186000D03*
D10*
%TO.P,A4,1*%
%TO.N,AIN1*%
X114808000Y-88646000D03*
%TD*%
D11*
%TO.P,A2,4*%
%TO.N,GND*%
X114703001Y-55626000D03*
%TO.P,A2,3*%
%TO.N,+10V*%
X114703001Y-53086000D03*
%TO.P,A2,2*%
%TO.N,AIN2*%
X114703001Y-50546000D03*
D10*
%TO.P,A2,1*%
%TO.N,AIN1*%
X114703001Y-48006000D03*
%TD*%
%TO.P,A3,1*%
%TO.N,AIN1*%
X114808000Y-68326000D03*
D11*
%TO.P,A3,2*%
%TO.N,AIN2*%
X114808000Y-70866000D03*
%TO.P,A3,3*%
%TO.N,+10V*%
X114808000Y-73406000D03*
%TO.P,A3,4*%
%TO.N,GND*%
X114808000Y-75946000D03*
%TD*%
D10*
%TO.P,A5,1*%
%TO.N,BIN1*%
X79248000Y-55626000D03*
D11*
%TO.P,A5,2*%
%TO.N,BIN2*%
X79248000Y-53086000D03*
%TO.P,A5,3*%
%TO.N,+10V*%
X79248000Y-50546000D03*
%TO.P,A5,4*%
%TO.N,GND*%
X79248000Y-48006000D03*
%TD*%
D17*
%TO.P,J1,2*%
%TO.N,VCC*%
X112268000Y-112610000D03*
%TO.P,J1,1*%
%TO.N,GND*%
%TA.AperFunction,ComponentPad*%
G36*
G01*
X110768000Y-102410000D02*
X113768000Y-102410000D01*
G75*
G02*
X115268000Y-103910000I0J-1500000D01*
G01*
X115268000Y-106910000D01*
G75*
G02*
X113768000Y-108410000I-1500000J0D01*
G01*
X110768000Y-108410000D01*
G75*
G02*
X109268000Y-106910000I0J1500000D01*
G01*
X109268000Y-103910000D01*
G75*
G02*
X110768000Y-102410000I1500000J0D01*
G01*
G37*
%TD.AperFunction*%
%TD*%
D18*
%TO.P,Z1,A*%
%TO.N,GND*%
X84328000Y-104426000D03*
%TO.P,Z1,K*%
%TO.N,+10V*%
X84328000Y-108426000D03*
%TD*%
D19*
%TO.P,H1,1*%
%TO.N,GND*%
X80518000Y-39116000D03*
D20*
X82918000Y-39116000D03*
X82215056Y-40813056D03*
X80518000Y-41516000D03*
X78820944Y-40813056D03*
X78118000Y-39116000D03*
X78820944Y-37418944D03*
X80518000Y-36716000D03*
X82215056Y-37418944D03*
%TD*%
%TO.P,H2,1*%
%TO.N,GND*%
X115235056Y-37418944D03*
X113538000Y-36716000D03*
X111840944Y-37418944D03*
X111138000Y-39116000D03*
X111840944Y-40813056D03*
X113538000Y-41516000D03*
X115235056Y-40813056D03*
X115938000Y-39116000D03*
D19*
X113538000Y-39116000D03*
%TD*%
D20*
%TO.P,H3,1*%
%TO.N,GND*%
X115235056Y-119968944D03*
X113538000Y-119266000D03*
X111840944Y-119968944D03*
X111138000Y-121666000D03*
X111840944Y-123363056D03*
X113538000Y-124066000D03*
X115235056Y-123363056D03*
X115938000Y-121666000D03*
D19*
X113538000Y-121666000D03*
%TD*%
%TO.P,H4,1*%
%TO.N,GND*%
X80518000Y-121666000D03*
D20*
X82918000Y-121666000D03*
X82215056Y-123363056D03*
X80518000Y-124066000D03*
X78820944Y-123363056D03*
X78118000Y-121666000D03*
X78820944Y-119968944D03*
X80518000Y-119266000D03*
X82215056Y-119968944D03*
%TD*%
D12*
%TO.P,BZ1,1*%
%TO.N,BEEP*%
X107188000Y-44196000D03*
D13*
%TO.P,BZ1,2*%
%TO.N,GND*%
X99588000Y-44196000D03*
%TD*%
%TO.P,R2,2*%
%TO.N,GND*%
%TA.AperFunction,SMDPad,CuDef*%
G36*
G01*
X90033003Y-39486000D02*
X88782997Y-39486000D01*
G75*
G02*
X88533000Y-39236003I0J249997D01*
G01*
X88533000Y-38610997D01*
G75*
G02*
X88782997Y-38361000I249997J0D01*
G01*
X90033003Y-38361000D01*
G75*
G02*
X90283000Y-38610997I0J-249997D01*
G01*
X90283000Y-39236003D01*
G75*
G02*
X90033003Y-39486000I-249997J0D01*
G01*
G37*
%TD.AperFunction*%
%TO.P,R2,1*%
%TO.N,Net-(D2-Pad1)*%
%TA.AperFunction,SMDPad,CuDef*%
G36*
G01*
X90033003Y-42411000D02*
X88782997Y-42411000D01*
G75*
G02*
X88533000Y-42161003I0J249997D01*
G01*
X88533000Y-41535997D01*
G75*
G02*
X88782997Y-41286000I249997J0D01*
G01*
X90033003Y-41286000D01*
G75*
G02*
X90283000Y-41535997I0J-249997D01*
G01*
X90283000Y-42161003D01*
G75*
G02*
X90033003Y-42411000I-249997J0D01*
G01*
G37*
%TD.AperFunction*%
%TD*%
%TO.P,R3,1*%
%TO.N,Net-(D4-Pad1)*%
%TA.AperFunction,SMDPad,CuDef*%
G36*
G01*
X93843003Y-42411000D02*
X92592997Y-42411000D01*
G75*
G02*
X92343000Y-42161003I0J249997D01*
G01*
X92343000Y-41535997D01*
G75*
G02*
X92592997Y-41286000I249997J0D01*
G01*
X93843003Y-41286000D01*
G75*
G02*
X94093000Y-41535997I0J-249997D01*
G01*
X94093000Y-42161003D01*
G75*
G02*
X93843003Y-42411000I-249997J0D01*
G01*
G37*
%TD.AperFunction*%
%TO.P,R3,2*%
%TO.N,GND*%
%TA.AperFunction,SMDPad,CuDef*%
G36*
G01*
X93843003Y-39486000D02*
X92592997Y-39486000D01*
G75*
G02*
X92343000Y-39236003I0J249997D01*
G01*
X92343000Y-38610997D01*
G75*
G02*
X92592997Y-38361000I249997J0D01*
G01*
X93843003Y-38361000D01*
G75*
G02*
X94093000Y-38610997I0J-249997D01*
G01*
X94093000Y-39236003D01*
G75*
G02*
X93843003Y-39486000I-249997J0D01*
G01*
G37*
%TD.AperFunction*%
%TD*%
%TO.P,D2,1*%
%TO.N,Net-(D2-Pad1)*%
%TA.AperFunction,SMDPad,CuDef*%
G36*
G01*
X88783000Y-43441000D02*
X90033000Y-43441000D01*
G75*
G02*
X90283000Y-43691000I0J-250000D01*
G01*
X90283000Y-44441000D01*
G75*
G02*
X90033000Y-44691000I-250000J0D01*
G01*
X88783000Y-44691000D01*
G75*
G02*
X88533000Y-44441000I0J250000D01*
G01*
X88533000Y-43691000D01*
G75*
G02*
X88783000Y-43441000I250000J0D01*
G01*
G37*
%TD.AperFunction*%
%TO.P,D2,2*%
%TO.N,CONFIG_L*%
%TA.AperFunction,SMDPad,CuDef*%
G36*
G01*
X88783000Y-46241000D02*
X90033000Y-46241000D01*
G75*
G02*
X90283000Y-46491000I0J-250000D01*
G01*
X90283000Y-47241000D01*
G75*
G02*
X90033000Y-47491000I-250000J0D01*
G01*
X88783000Y-47491000D01*
G75*
G02*
X88533000Y-47241000I0J250000D01*
G01*
X88533000Y-46491000D01*
G75*
G02*
X88783000Y-46241000I250000J0D01*
G01*
G37*
%TD.AperFunction*%
%TD*%
%TO.P,D3,2*%
%TO.N,Net-(D3-Pad2)*%
%TA.AperFunction,SMDPad,CuDef*%
G36*
G01*
X79258000Y-102121000D02*
X80508000Y-102121000D01*
G75*
G02*
X80758000Y-102371000I0J-250000D01*
G01*
X80758000Y-103121000D01*
G75*
G02*
X80508000Y-103371000I-250000J0D01*
G01*
X79258000Y-103371000D01*
G75*
G02*
X79008000Y-103121000I0J250000D01*
G01*
X79008000Y-102371000D01*
G75*
G02*
X79258000Y-102121000I250000J0D01*
G01*
G37*
%TD.AperFunction*%
%TO.P,D3,1*%
%TO.N,GND*%
%TA.AperFunction,SMDPad,CuDef*%
G36*
G01*
X79258000Y-99321000D02*
X80508000Y-99321000D01*
G75*
G02*
X80758000Y-99571000I0J-250000D01*
G01*
X80758000Y-100321000D01*
G75*
G02*
X80508000Y-100571000I-250000J0D01*
G01*
X79258000Y-100571000D01*
G75*
G02*
X79008000Y-100321000I0J250000D01*
G01*
X79008000Y-99571000D01*
G75*
G02*
X79258000Y-99321000I250000J0D01*
G01*
G37*
%TD.AperFunction*%
%TD*%
%TO.P,D4,1*%
%TO.N,Net-(D4-Pad1)*%
%TA.AperFunction,SMDPad,CuDef*%
G36*
G01*
X92593000Y-43441000D02*
X93843000Y-43441000D01*
G75*
G02*
X94093000Y-43691000I0J-250000D01*
G01*
X94093000Y-44441000D01*
G75*
G02*
X93843000Y-44691000I-250000J0D01*
G01*
X92593000Y-44691000D01*
G75*
G02*
X92343000Y-44441000I0J250000D01*
G01*
X92343000Y-43691000D01*
G75*
G02*
X92593000Y-43441000I250000J0D01*
G01*
G37*
%TD.AperFunction*%
%TO.P,D4,2*%
%TO.N,CONFIG_R*%
%TA.AperFunction,SMDPad,CuDef*%
G36*
G01*
X92593000Y-46241000D02*
X93843000Y-46241000D01*
G75*
G02*
X94093000Y-46491000I0J-250000D01*
G01*
X94093000Y-47241000D01*
G75*
G02*
X93843000Y-47491000I-250000J0D01*
G01*
X92593000Y-47491000D01*
G75*
G02*
X92343000Y-47241000I0J250000D01*
G01*
X92343000Y-46491000D01*
G75*
G02*
X92593000Y-46241000I250000J0D01*
G01*
G37*
%TD.AperFunction*%
%TD*%
%TO.P,J2,1*%
%TO.N,VCC*%
X103378000Y-117856000D03*
%TD*%
%TO.P,J3,1*%
%TO.N,+10V*%
X98298000Y-117831001D03*
%TD*%
D21*
%TO.N,BIN2*%
X88138000Y-92456000D03*
%TO.N,BIN1*%
X84328000Y-75946000D03*
X84328000Y-60706000D03*
%TO.N,AIN2*%
X109728000Y-55626000D03*
X109728000Y-70866000D03*
%TO.N,+10V*%
X81788000Y-112522000D03*
%TD*%
D22*
%TO.N,BIN2*%
X107188000Y-83566000D02*
X105918000Y-83566000D01*
X105918000Y-83566000D02*
X97028000Y-92456000D01*
X97028000Y-92456000D02*
X88138000Y-92456000D01*
X79248000Y-93726000D02*
X81788000Y-91186000D01*
X81788000Y-91186000D02*
X81788000Y-75946000D01*
X81788000Y-75946000D02*
X79248000Y-73406000D01*
X79248000Y-73406000D02*
X81788000Y-70866000D01*
X81788000Y-70866000D02*
X81788000Y-55626000D01*
X81788000Y-55626000D02*
X79248000Y-53086000D01*
%TO.N,BIN1*%
X107188000Y-86106000D02*
X98298000Y-94996000D01*
X80518000Y-94996000D02*
X79248000Y-96266000D01*
X84328000Y-94996000D02*
X84328000Y-75946000D01*
X98298000Y-94996000D02*
X84328000Y-94996000D01*
X84328000Y-94996000D02*
X80518000Y-94996000D01*
X84328000Y-75946000D02*
X84328000Y-60706000D01*
X84328000Y-60706000D02*
X84328000Y-60706000D01*
%TO.N,AIN2*%
X107188000Y-91186000D02*
X114808000Y-91186000D01*
X114808000Y-91186000D02*
X109728000Y-86106000D01*
X109728000Y-86106000D02*
X109728000Y-70866000D01*
X109728000Y-70866000D02*
X109728000Y-55626000D01*
%TO.N,AIN1*%
X114808000Y-88646000D02*
X112268000Y-86106000D01*
X112268000Y-86106000D02*
X112268000Y-70866000D01*
X112268000Y-70866000D02*
X114808000Y-68326000D01*
X112268000Y-50441001D02*
X114703001Y-48006000D01*
X112268000Y-65786000D02*
X112268000Y-50441001D01*
X114808000Y-68326000D02*
X112268000Y-65786000D01*
D23*
%TO.N,VCC*%
X103391600Y-112610000D02*
X103352600Y-112649000D01*
X112268000Y-112610000D02*
X103391600Y-112610000D01*
X103352600Y-117830600D02*
X103378000Y-117856000D01*
X103352600Y-112649000D02*
X103352600Y-117830600D01*
D22*
%TO.N,Net-(D3-Pad2)*%
X79883000Y-106183500D02*
X79883000Y-102746000D01*
%TO.N,+10V*%
X81788000Y-112522000D02*
X83312000Y-112522000D01*
X84328000Y-111506000D02*
X84328000Y-108426000D01*
X83312000Y-112522000D02*
X84328000Y-111506000D01*
X81788000Y-112522000D02*
X80264000Y-112522000D01*
X79883000Y-112141000D02*
X79883000Y-109108500D01*
X80264000Y-112522000D02*
X79883000Y-112141000D01*
%TO.N,BEEP*%
X107188000Y-50546000D02*
X107188000Y-44196000D01*
X104648000Y-53086000D02*
X107188000Y-50546000D01*
X104648000Y-75946000D02*
X104648000Y-53086000D01*
X107188000Y-78486000D02*
X104648000Y-75946000D01*
%TO.N,Net-(D2-Pad1)*%
X89408000Y-41848500D02*
X89408000Y-44066000D01*
%TO.N,Net-(D4-Pad1)*%
X93218000Y-41848500D02*
X93218000Y-44066000D01*
%TO.N,CONFIG_R*%
X93218000Y-74676000D02*
X93218000Y-46866000D01*
X86868000Y-81026000D02*
X93218000Y-74676000D01*
%TO.N,CONFIG_L*%
X89408000Y-75946000D02*
X89408000Y-46866000D01*
X86868000Y-78486000D02*
X89408000Y-75946000D01*
%TD*%
D24*
%TO.N,GND*%
X111016724Y-36415119D02*
X113538000Y-38936395D01*
X113552143Y-38922253D01*
X113731748Y-39101858D01*
X113717605Y-39116000D01*
X116238881Y-41637276D01*
X116700300Y-41297866D01*
X116700301Y-53054182D01*
X116700300Y-53054192D01*
X116700301Y-55594182D01*
X116700300Y-55594192D01*
X116700301Y-116554182D01*
X116700300Y-116554192D01*
X116700301Y-119484134D01*
X116238881Y-119144724D01*
X113717605Y-121666000D01*
X113731748Y-121680143D01*
X113552143Y-121859748D01*
X113538000Y-121845605D01*
X111016724Y-124366881D01*
X111356133Y-124828300D01*
X82699867Y-124828300D01*
X83039276Y-124366881D01*
X80518000Y-121845605D01*
X80503858Y-121859748D01*
X80324253Y-121680143D01*
X80338395Y-121666000D01*
X80697605Y-121666000D01*
X83218881Y-124187276D01*
X83708548Y-123827088D01*
X84068849Y-123163118D01*
X84292694Y-122441615D01*
X84371480Y-121690305D01*
X84367002Y-121641695D01*
X109684520Y-121641695D01*
X109753822Y-122393938D01*
X109968548Y-123118208D01*
X110320445Y-123786670D01*
X110347452Y-123827088D01*
X110837119Y-124187276D01*
X113358395Y-121666000D01*
X110837119Y-119144724D01*
X110347452Y-119504912D01*
X109987151Y-120168882D01*
X109763306Y-120890385D01*
X109684520Y-121641695D01*
X84367002Y-121641695D01*
X84302178Y-120938062D01*
X84087452Y-120213792D01*
X83735555Y-119545330D01*
X83708548Y-119504912D01*
X83218881Y-119144724D01*
X80697605Y-121666000D01*
X80338395Y-121666000D01*
X77817119Y-119144724D01*
X77355700Y-119484133D01*
X77355700Y-118965119D01*
X77996724Y-118965119D01*
X80518000Y-121486395D01*
X83039276Y-118965119D01*
X82679088Y-118475452D01*
X82015118Y-118115151D01*
X81293615Y-117891306D01*
X80542305Y-117812520D01*
X79790062Y-117881822D01*
X79065792Y-118096548D01*
X78397330Y-118448445D01*
X78356912Y-118475452D01*
X77996724Y-118965119D01*
X77355700Y-118965119D01*
X77355700Y-117669968D01*
X96663000Y-117669968D01*
X96663000Y-117992034D01*
X96725832Y-118307913D01*
X96849082Y-118605464D01*
X97028013Y-118873253D01*
X97255748Y-119100988D01*
X97523537Y-119279919D01*
X97821088Y-119403169D01*
X98136967Y-119466001D01*
X98459033Y-119466001D01*
X98774912Y-119403169D01*
X99072463Y-119279919D01*
X99340252Y-119100988D01*
X99567987Y-118873253D01*
X99746918Y-118605464D01*
X99870168Y-118307913D01*
X99933000Y-117992034D01*
X99933000Y-117669968D01*
X99870168Y-117354089D01*
X99746918Y-117056538D01*
X99567987Y-116788749D01*
X99340252Y-116561014D01*
X99072463Y-116382083D01*
X98774912Y-116258833D01*
X98459033Y-116196001D01*
X98136967Y-116196001D01*
X97821088Y-116258833D01*
X97523537Y-116382083D01*
X97255748Y-116561014D01*
X97028013Y-116788749D01*
X96849082Y-117056538D01*
X96725832Y-117354089D01*
X96663000Y-117669968D01*
X77355700Y-117669968D01*
X77355700Y-108795997D01*
X78369928Y-108795997D01*
X78369928Y-109421003D01*
X78386992Y-109594257D01*
X78437528Y-109760852D01*
X78519595Y-109914388D01*
X78630037Y-110048963D01*
X78764612Y-110159405D01*
X78918148Y-110241472D01*
X78994001Y-110264482D01*
X78994000Y-112097340D01*
X78989700Y-112141000D01*
X78994000Y-112184660D01*
X78994000Y-112184666D01*
X79005057Y-112296926D01*
X79006864Y-112315274D01*
X79016708Y-112347724D01*
X79057697Y-112482850D01*
X79140247Y-112637290D01*
X79251341Y-112772659D01*
X79285265Y-112800500D01*
X79604497Y-113119731D01*
X79632341Y-113153659D01*
X79767709Y-113264753D01*
X79922149Y-113347303D01*
X79988058Y-113367296D01*
X80089724Y-113398136D01*
X80122924Y-113401406D01*
X80220333Y-113411000D01*
X80220339Y-113411000D01*
X80263999Y-113415300D01*
X80307659Y-113411000D01*
X81255532Y-113411000D01*
X81297744Y-113439205D01*
X81486102Y-113517226D01*
X81686061Y-113557000D01*
X81889939Y-113557000D01*
X82089898Y-113517226D01*
X82278256Y-113439205D01*
X82320468Y-113411000D01*
X83268340Y-113411000D01*
X83312000Y-113415300D01*
X83355660Y-113411000D01*
X83355667Y-113411000D01*
X83486274Y-113398136D01*
X83653851Y-113347303D01*
X83698545Y-113323413D01*
X94929192Y-113323413D01*
X95024956Y-113587814D01*
X95314571Y-113728704D01*
X95626108Y-113810384D01*
X95947595Y-113829718D01*
X96266675Y-113785961D01*
X96571088Y-113680795D01*
X96745044Y-113587814D01*
X96840808Y-113323413D01*
X95885000Y-112367605D01*
X94929192Y-113323413D01*
X83698545Y-113323413D01*
X83808291Y-113264753D01*
X83943659Y-113153659D01*
X83971499Y-113119736D01*
X84840640Y-112250595D01*
X94243282Y-112250595D01*
X94287039Y-112569675D01*
X94392205Y-112874088D01*
X94485186Y-113048044D01*
X94749587Y-113143808D01*
X95705395Y-112188000D01*
X96064605Y-112188000D01*
X97020413Y-113143808D01*
X97284814Y-113048044D01*
X97425704Y-112758429D01*
X97454394Y-112649000D01*
X100927926Y-112649000D01*
X100939600Y-112767530D01*
X100939601Y-117712061D01*
X100927926Y-117830600D01*
X100974515Y-118303631D01*
X101112493Y-118758483D01*
X101336556Y-119177677D01*
X101562531Y-119453028D01*
X101562537Y-119453034D01*
X101638097Y-119545104D01*
X101730167Y-119620664D01*
X101755572Y-119646069D01*
X102030923Y-119872044D01*
X102450117Y-120096107D01*
X102904969Y-120234085D01*
X103377999Y-120280674D01*
X103851031Y-120234085D01*
X104305883Y-120096107D01*
X104725077Y-119872044D01*
X105092504Y-119570504D01*
X105394044Y-119203077D01*
X105521234Y-118965119D01*
X111016724Y-118965119D01*
X113538000Y-121486395D01*
X116059276Y-118965119D01*
X115699088Y-118475452D01*
X115035118Y-118115151D01*
X114313615Y-117891306D01*
X113562305Y-117812520D01*
X112810062Y-117881822D01*
X112085792Y-118096548D01*
X111417330Y-118448445D01*
X111376912Y-118475452D01*
X111016724Y-118965119D01*
X105521234Y-118965119D01*
X105618107Y-118783883D01*
X105756085Y-118329031D01*
X105802674Y-117855999D01*
X105765600Y-117479577D01*
X105765600Y-115023000D01*
X109540334Y-115023000D01*
X109950823Y-115433489D01*
X110546182Y-115831295D01*
X111207710Y-116105309D01*
X111909984Y-116245000D01*
X112626016Y-116245000D01*
X113328290Y-116105309D01*
X113989818Y-115831295D01*
X114585177Y-115433489D01*
X115091489Y-114927177D01*
X115489295Y-114331818D01*
X115763309Y-113670290D01*
X115903000Y-112968016D01*
X115903000Y-112251984D01*
X115763309Y-111549710D01*
X115489295Y-110888182D01*
X115091489Y-110292823D01*
X114585177Y-109786511D01*
X113989818Y-109388705D01*
X113328290Y-109114691D01*
X112980357Y-109045483D01*
X115268000Y-109048072D01*
X115392482Y-109035812D01*
X115512180Y-108999502D01*
X115622494Y-108940537D01*
X115719185Y-108861185D01*
X115798537Y-108764494D01*
X115857502Y-108654180D01*
X115893812Y-108534482D01*
X115906072Y-108410000D01*
X115903000Y-105695750D01*
X115744250Y-105537000D01*
X112395000Y-105537000D01*
X112395000Y-105557000D01*
X112141000Y-105557000D01*
X112141000Y-105537000D01*
X108791750Y-105537000D01*
X108633000Y-105695750D01*
X108629928Y-108410000D01*
X108642188Y-108534482D01*
X108678498Y-108654180D01*
X108737463Y-108764494D01*
X108816815Y-108861185D01*
X108913506Y-108940537D01*
X109023820Y-108999502D01*
X109143518Y-109035812D01*
X109268000Y-109048072D01*
X111555643Y-109045483D01*
X111207710Y-109114691D01*
X110546182Y-109388705D01*
X109950823Y-109786511D01*
X109540334Y-110197000D01*
X103510128Y-110197000D01*
X103391599Y-110185326D01*
X103273070Y-110197000D01*
X103273060Y-110197000D01*
X102918569Y-110231914D01*
X102463717Y-110369892D01*
X102044523Y-110593956D01*
X101677096Y-110895496D01*
X101659517Y-110916917D01*
X101638096Y-110934496D01*
X101562533Y-111026570D01*
X101562531Y-111026572D01*
X101336556Y-111301923D01*
X101240568Y-111481505D01*
X101112492Y-111721118D01*
X100974514Y-112175970D01*
X100939600Y-112530461D01*
X100939600Y-112530471D01*
X100927926Y-112649000D01*
X97454394Y-112649000D01*
X97507384Y-112446892D01*
X97526718Y-112125405D01*
X97482961Y-111806325D01*
X97377795Y-111501912D01*
X97284814Y-111327956D01*
X97020413Y-111232192D01*
X96064605Y-112188000D01*
X95705395Y-112188000D01*
X94749587Y-111232192D01*
X94485186Y-111327956D01*
X94344296Y-111617571D01*
X94262616Y-111929108D01*
X94243282Y-112250595D01*
X84840640Y-112250595D01*
X84925743Y-112165493D01*
X84959659Y-112137659D01*
X85070753Y-112002291D01*
X85153303Y-111847851D01*
X85204136Y-111680274D01*
X85217000Y-111549667D01*
X85217000Y-111549660D01*
X85221300Y-111506000D01*
X85217000Y-111462340D01*
X85217000Y-111052587D01*
X94929192Y-111052587D01*
X95885000Y-112008395D01*
X96840808Y-111052587D01*
X96745044Y-110788186D01*
X96455429Y-110647296D01*
X96143892Y-110565616D01*
X95822405Y-110546282D01*
X95503325Y-110590039D01*
X95198912Y-110695205D01*
X95024956Y-110788186D01*
X94929192Y-111052587D01*
X85217000Y-111052587D01*
X85217000Y-110310231D01*
X85302482Y-110301812D01*
X85422180Y-110265502D01*
X85532494Y-110206537D01*
X85629185Y-110127185D01*
X85708537Y-110030494D01*
X85767502Y-109920180D01*
X85803812Y-109800482D01*
X85816072Y-109676000D01*
X85816072Y-107176000D01*
X85803812Y-107051518D01*
X85767502Y-106931820D01*
X85708537Y-106821506D01*
X85629185Y-106724815D01*
X85532494Y-106645463D01*
X85422180Y-106586498D01*
X85302482Y-106550188D01*
X85178000Y-106537928D01*
X83478000Y-106537928D01*
X83353518Y-106550188D01*
X83233820Y-106586498D01*
X83123506Y-106645463D01*
X83026815Y-106724815D01*
X82947463Y-106821506D01*
X82888498Y-106931820D01*
X82852188Y-107051518D01*
X82839928Y-107176000D01*
X82839928Y-109676000D01*
X82852188Y-109800482D01*
X82888498Y-109920180D01*
X82947463Y-110030494D01*
X83026815Y-110127185D01*
X83123506Y-110206537D01*
X83233820Y-110265502D01*
X83353518Y-110301812D01*
X83439000Y-110310231D01*
X83439000Y-111137764D01*
X82943765Y-111633000D01*
X82320468Y-111633000D01*
X82278256Y-111604795D01*
X82089898Y-111526774D01*
X81889939Y-111487000D01*
X81686061Y-111487000D01*
X81486102Y-111526774D01*
X81297744Y-111604795D01*
X81255532Y-111633000D01*
X80772000Y-111633000D01*
X80772000Y-110264481D01*
X80847852Y-110241472D01*
X81001388Y-110159405D01*
X81135963Y-110048963D01*
X81246405Y-109914388D01*
X81328472Y-109760852D01*
X81379008Y-109594257D01*
X81396072Y-109421003D01*
X81396072Y-108795997D01*
X81379008Y-108622743D01*
X81328472Y-108456148D01*
X81246405Y-108302612D01*
X81135963Y-108168037D01*
X81001388Y-108057595D01*
X80847852Y-107975528D01*
X80681257Y-107924992D01*
X80508003Y-107907928D01*
X79257997Y-107907928D01*
X79084743Y-107924992D01*
X78918148Y-107975528D01*
X78764612Y-108057595D01*
X78630037Y-108168037D01*
X78519595Y-108302612D01*
X78437528Y-108456148D01*
X78386992Y-108622743D01*
X78369928Y-108795997D01*
X77355700Y-108795997D01*
X77355700Y-102371000D01*
X78369928Y-102371000D01*
X78369928Y-103121000D01*
X78386992Y-103294254D01*
X78437528Y-103460850D01*
X78519595Y-103614386D01*
X78630038Y-103748962D01*
X78764614Y-103859405D01*
X78918150Y-103941472D01*
X78994001Y-103964481D01*
X78994000Y-105027518D01*
X78918148Y-105050528D01*
X78764612Y-105132595D01*
X78630037Y-105243037D01*
X78519595Y-105377612D01*
X78437528Y-105531148D01*
X78386992Y-105697743D01*
X78369928Y-105870997D01*
X78369928Y-106496003D01*
X78386992Y-106669257D01*
X78437528Y-106835852D01*
X78519595Y-106989388D01*
X78630037Y-107123963D01*
X78764612Y-107234405D01*
X78918148Y-107316472D01*
X79084743Y-107367008D01*
X79257997Y-107384072D01*
X80508003Y-107384072D01*
X80681257Y-107367008D01*
X80847852Y-107316472D01*
X81001388Y-107234405D01*
X81135963Y-107123963D01*
X81246405Y-106989388D01*
X81328472Y-106835852D01*
X81379008Y-106669257D01*
X81396072Y-106496003D01*
X81396072Y-105870997D01*
X81379008Y-105697743D01*
X81372413Y-105676000D01*
X82839928Y-105676000D01*
X82852188Y-105800482D01*
X82888498Y-105920180D01*
X82947463Y-106030494D01*
X83026815Y-106127185D01*
X83123506Y-106206537D01*
X83233820Y-106265502D01*
X83353518Y-106301812D01*
X83478000Y-106314072D01*
X84042250Y-106311000D01*
X84201000Y-106152250D01*
X84201000Y-104553000D01*
X84455000Y-104553000D01*
X84455000Y-106152250D01*
X84613750Y-106311000D01*
X85178000Y-106314072D01*
X85302482Y-106301812D01*
X85422180Y-106265502D01*
X85532494Y-106206537D01*
X85555081Y-106188000D01*
X94246928Y-106188000D01*
X94246928Y-108188000D01*
X94259188Y-108312482D01*
X94295498Y-108432180D01*
X94354463Y-108542494D01*
X94433815Y-108639185D01*
X94530506Y-108718537D01*
X94640820Y-108777502D01*
X94760518Y-108813812D01*
X94885000Y-108826072D01*
X96885000Y-108826072D01*
X97009482Y-108813812D01*
X97129180Y-108777502D01*
X97239494Y-108718537D01*
X97336185Y-108639185D01*
X97415537Y-108542494D01*
X97474502Y-108432180D01*
X97510812Y-108312482D01*
X97523072Y-108188000D01*
X97523072Y-106569000D01*
X101714528Y-106569000D01*
X101714528Y-108569000D01*
X101726788Y-108693482D01*
X101763098Y-108813180D01*
X101822063Y-108923494D01*
X101901415Y-109020185D01*
X101998106Y-109099537D01*
X102108420Y-109158502D01*
X102228118Y-109194812D01*
X102352600Y-109207072D01*
X104352600Y-109207072D01*
X104477082Y-109194812D01*
X104596780Y-109158502D01*
X104707094Y-109099537D01*
X104803785Y-109020185D01*
X104883137Y-108923494D01*
X104942102Y-108813180D01*
X104978412Y-108693482D01*
X104990672Y-108569000D01*
X104990672Y-106569000D01*
X104978412Y-106444518D01*
X104942102Y-106324820D01*
X104883137Y-106214506D01*
X104803785Y-106117815D01*
X104707094Y-106038463D01*
X104596780Y-105979498D01*
X104477082Y-105943188D01*
X104352600Y-105930928D01*
X102352600Y-105930928D01*
X102228118Y-105943188D01*
X102108420Y-105979498D01*
X101998106Y-106038463D01*
X101901415Y-106117815D01*
X101822063Y-106214506D01*
X101763098Y-106324820D01*
X101726788Y-106444518D01*
X101714528Y-106569000D01*
X97523072Y-106569000D01*
X97523072Y-106188000D01*
X97510812Y-106063518D01*
X97474502Y-105943820D01*
X97415537Y-105833506D01*
X97336185Y-105736815D01*
X97239494Y-105657463D01*
X97129180Y-105598498D01*
X97009482Y-105562188D01*
X96885000Y-105549928D01*
X94885000Y-105549928D01*
X94760518Y-105562188D01*
X94640820Y-105598498D01*
X94530506Y-105657463D01*
X94433815Y-105736815D01*
X94354463Y-105833506D01*
X94295498Y-105943820D01*
X94259188Y-106063518D01*
X94246928Y-106188000D01*
X85555081Y-106188000D01*
X85629185Y-106127185D01*
X85708537Y-106030494D01*
X85767502Y-105920180D01*
X85803812Y-105800482D01*
X85816072Y-105676000D01*
X85813000Y-104711750D01*
X85654250Y-104553000D01*
X84455000Y-104553000D01*
X84201000Y-104553000D01*
X83001750Y-104553000D01*
X82843000Y-104711750D01*
X82839928Y-105676000D01*
X81372413Y-105676000D01*
X81328472Y-105531148D01*
X81246405Y-105377612D01*
X81135963Y-105243037D01*
X81001388Y-105132595D01*
X80847852Y-105050528D01*
X80772000Y-105027519D01*
X80772000Y-103964481D01*
X80847850Y-103941472D01*
X81001386Y-103859405D01*
X81135962Y-103748962D01*
X81246405Y-103614386D01*
X81328472Y-103460850D01*
X81379008Y-103294254D01*
X81390654Y-103176000D01*
X82839928Y-103176000D01*
X82843000Y-104140250D01*
X83001750Y-104299000D01*
X84201000Y-104299000D01*
X84201000Y-102699750D01*
X84455000Y-102699750D01*
X84455000Y-104299000D01*
X85654250Y-104299000D01*
X85813000Y-104140250D01*
X85816072Y-103176000D01*
X85803812Y-103051518D01*
X85767502Y-102931820D01*
X85708537Y-102821506D01*
X85629185Y-102724815D01*
X85532494Y-102645463D01*
X85422180Y-102586498D01*
X85302482Y-102550188D01*
X85178000Y-102537928D01*
X84613750Y-102541000D01*
X84455000Y-102699750D01*
X84201000Y-102699750D01*
X84042250Y-102541000D01*
X83478000Y-102537928D01*
X83353518Y-102550188D01*
X83233820Y-102586498D01*
X83123506Y-102645463D01*
X83026815Y-102724815D01*
X82947463Y-102821506D01*
X82888498Y-102931820D01*
X82852188Y-103051518D01*
X82839928Y-103176000D01*
X81390654Y-103176000D01*
X81396072Y-103121000D01*
X81396072Y-102410000D01*
X108629928Y-102410000D01*
X108633000Y-105124250D01*
X108791750Y-105283000D01*
X112141000Y-105283000D01*
X112141000Y-101933750D01*
X112395000Y-101933750D01*
X112395000Y-105283000D01*
X115744250Y-105283000D01*
X115903000Y-105124250D01*
X115906072Y-102410000D01*
X115893812Y-102285518D01*
X115857502Y-102165820D01*
X115798537Y-102055506D01*
X115719185Y-101958815D01*
X115622494Y-101879463D01*
X115512180Y-101820498D01*
X115392482Y-101784188D01*
X115268000Y-101771928D01*
X112553750Y-101775000D01*
X112395000Y-101933750D01*
X112141000Y-101933750D01*
X111982250Y-101775000D01*
X109268000Y-101771928D01*
X109143518Y-101784188D01*
X109023820Y-101820498D01*
X108913506Y-101879463D01*
X108816815Y-101958815D01*
X108737463Y-102055506D01*
X108678498Y-102165820D01*
X108642188Y-102285518D01*
X108629928Y-102410000D01*
X81396072Y-102410000D01*
X81396072Y-102371000D01*
X81379008Y-102197746D01*
X81328472Y-102031150D01*
X81246405Y-101877614D01*
X81135962Y-101743038D01*
X81001386Y-101632595D01*
X80847850Y-101550528D01*
X80681254Y-101499992D01*
X80508000Y-101482928D01*
X79258000Y-101482928D01*
X79084746Y-101499992D01*
X78918150Y-101550528D01*
X78764614Y-101632595D01*
X78630038Y-101743038D01*
X78519595Y-101877614D01*
X78437528Y-102031150D01*
X78386992Y-102197746D01*
X78369928Y-102371000D01*
X77355700Y-102371000D01*
X77355700Y-100571000D01*
X78369928Y-100571000D01*
X78382188Y-100695482D01*
X78418498Y-100815180D01*
X78477463Y-100925494D01*
X78556815Y-101022185D01*
X78653506Y-101101537D01*
X78763820Y-101160502D01*
X78883518Y-101196812D01*
X79008000Y-101209072D01*
X79597250Y-101206000D01*
X79756000Y-101047250D01*
X79756000Y-100073000D01*
X80010000Y-100073000D01*
X80010000Y-101047250D01*
X80168750Y-101206000D01*
X80758000Y-101209072D01*
X80882482Y-101196812D01*
X81002180Y-101160502D01*
X81112494Y-101101537D01*
X81209185Y-101022185D01*
X81288537Y-100925494D01*
X81347502Y-100815180D01*
X81383812Y-100695482D01*
X81396072Y-100571000D01*
X81393000Y-100231750D01*
X81234250Y-100073000D01*
X80010000Y-100073000D01*
X79756000Y-100073000D01*
X78531750Y-100073000D01*
X78373000Y-100231750D01*
X78369928Y-100571000D01*
X77355700Y-100571000D01*
X77355700Y-99321000D01*
X78369928Y-99321000D01*
X78373000Y-99660250D01*
X78531750Y-99819000D01*
X79756000Y-99819000D01*
X79756000Y-98844750D01*
X80010000Y-98844750D01*
X80010000Y-99819000D01*
X81234250Y-99819000D01*
X81393000Y-99660250D01*
X81396072Y-99321000D01*
X81383812Y-99196518D01*
X81347502Y-99076820D01*
X81288537Y-98966506D01*
X81209185Y-98869815D01*
X81112494Y-98790463D01*
X81002180Y-98731498D01*
X80882482Y-98695188D01*
X80758000Y-98682928D01*
X80168750Y-98686000D01*
X80010000Y-98844750D01*
X79756000Y-98844750D01*
X79597250Y-98686000D01*
X79008000Y-98682928D01*
X78883518Y-98695188D01*
X78763820Y-98731498D01*
X78653506Y-98790463D01*
X78556815Y-98869815D01*
X78477463Y-98966506D01*
X78418498Y-99076820D01*
X78382188Y-99196518D01*
X78369928Y-99321000D01*
X77355700Y-99321000D01*
X77355700Y-88289110D01*
X77806524Y-88289110D01*
X77927845Y-88519000D01*
X79121000Y-88519000D01*
X79121000Y-87325186D01*
X79375000Y-87325186D01*
X79375000Y-88519000D01*
X80568155Y-88519000D01*
X80689476Y-88289110D01*
X80644825Y-88141901D01*
X80519641Y-87879080D01*
X80345588Y-87645731D01*
X80129355Y-87450822D01*
X79879252Y-87301843D01*
X79604891Y-87204519D01*
X79375000Y-87325186D01*
X79121000Y-87325186D01*
X78891109Y-87204519D01*
X78616748Y-87301843D01*
X78366645Y-87450822D01*
X78150412Y-87645731D01*
X77976359Y-87879080D01*
X77851175Y-88141901D01*
X77806524Y-88289110D01*
X77355700Y-88289110D01*
X77355700Y-67969110D01*
X77806524Y-67969110D01*
X77927845Y-68199000D01*
X79121000Y-68199000D01*
X79121000Y-67005186D01*
X79375000Y-67005186D01*
X79375000Y-68199000D01*
X80568155Y-68199000D01*
X80689476Y-67969110D01*
X80644825Y-67821901D01*
X80519641Y-67559080D01*
X80345588Y-67325731D01*
X80129355Y-67130822D01*
X79879252Y-66981843D01*
X79604891Y-66884519D01*
X79375000Y-67005186D01*
X79121000Y-67005186D01*
X78891109Y-66884519D01*
X78616748Y-66981843D01*
X78366645Y-67130822D01*
X78150412Y-67325731D01*
X77976359Y-67559080D01*
X77851175Y-67821901D01*
X77806524Y-67969110D01*
X77355700Y-67969110D01*
X77355700Y-54776000D01*
X77759928Y-54776000D01*
X77759928Y-56476000D01*
X77772188Y-56600482D01*
X77808498Y-56720180D01*
X77867463Y-56830494D01*
X77946815Y-56927185D01*
X78043506Y-57006537D01*
X78153820Y-57065502D01*
X78273518Y-57101812D01*
X78398000Y-57114072D01*
X80098000Y-57114072D01*
X80222482Y-57101812D01*
X80342180Y-57065502D01*
X80452494Y-57006537D01*
X80549185Y-56927185D01*
X80628537Y-56830494D01*
X80687502Y-56720180D01*
X80723812Y-56600482D01*
X80736072Y-56476000D01*
X80736072Y-55831308D01*
X80899001Y-55994237D01*
X80899000Y-70497764D01*
X80723713Y-70673051D01*
X80675932Y-70432842D01*
X80563990Y-70162589D01*
X80401475Y-69919368D01*
X80194632Y-69712525D01*
X80012466Y-69590805D01*
X80129355Y-69521178D01*
X80345588Y-69326269D01*
X80519641Y-69092920D01*
X80644825Y-68830099D01*
X80689476Y-68682890D01*
X80568155Y-68453000D01*
X79375000Y-68453000D01*
X79375000Y-68473000D01*
X79121000Y-68473000D01*
X79121000Y-68453000D01*
X77927845Y-68453000D01*
X77806524Y-68682890D01*
X77851175Y-68830099D01*
X77976359Y-69092920D01*
X78150412Y-69326269D01*
X78366645Y-69521178D01*
X78483534Y-69590805D01*
X78301368Y-69712525D01*
X78094525Y-69919368D01*
X77932010Y-70162589D01*
X77820068Y-70432842D01*
X77763000Y-70719740D01*
X77763000Y-71012260D01*
X77820068Y-71299158D01*
X77932010Y-71569411D01*
X78094525Y-71812632D01*
X78301368Y-72019475D01*
X78475760Y-72136000D01*
X78301368Y-72252525D01*
X78094525Y-72459368D01*
X77932010Y-72702589D01*
X77820068Y-72972842D01*
X77763000Y-73259740D01*
X77763000Y-73552260D01*
X77820068Y-73839158D01*
X77932010Y-74109411D01*
X78094525Y-74352632D01*
X78226380Y-74484487D01*
X78153820Y-74506498D01*
X78043506Y-74565463D01*
X77946815Y-74644815D01*
X77867463Y-74741506D01*
X77808498Y-74851820D01*
X77772188Y-74971518D01*
X77759928Y-75096000D01*
X77759928Y-76796000D01*
X77772188Y-76920482D01*
X77808498Y-77040180D01*
X77867463Y-77150494D01*
X77946815Y-77247185D01*
X78043506Y-77326537D01*
X78153820Y-77385502D01*
X78273518Y-77421812D01*
X78398000Y-77434072D01*
X80098000Y-77434072D01*
X80222482Y-77421812D01*
X80342180Y-77385502D01*
X80452494Y-77326537D01*
X80549185Y-77247185D01*
X80628537Y-77150494D01*
X80687502Y-77040180D01*
X80723812Y-76920482D01*
X80736072Y-76796000D01*
X80736072Y-76151308D01*
X80899001Y-76314237D01*
X80899000Y-90817764D01*
X80723713Y-90993051D01*
X80675932Y-90752842D01*
X80563990Y-90482589D01*
X80401475Y-90239368D01*
X80194632Y-90032525D01*
X80012466Y-89910805D01*
X80129355Y-89841178D01*
X80345588Y-89646269D01*
X80519641Y-89412920D01*
X80644825Y-89150099D01*
X80689476Y-89002890D01*
X80568155Y-88773000D01*
X79375000Y-88773000D01*
X79375000Y-88793000D01*
X79121000Y-88793000D01*
X79121000Y-88773000D01*
X77927845Y-88773000D01*
X77806524Y-89002890D01*
X77851175Y-89150099D01*
X77976359Y-89412920D01*
X78150412Y-89646269D01*
X78366645Y-89841178D01*
X78483534Y-89910805D01*
X78301368Y-90032525D01*
X78094525Y-90239368D01*
X77932010Y-90482589D01*
X77820068Y-90752842D01*
X77763000Y-91039740D01*
X77763000Y-91332260D01*
X77820068Y-91619158D01*
X77932010Y-91889411D01*
X78094525Y-92132632D01*
X78301368Y-92339475D01*
X78475760Y-92456000D01*
X78301368Y-92572525D01*
X78094525Y-92779368D01*
X77932010Y-93022589D01*
X77820068Y-93292842D01*
X77763000Y-93579740D01*
X77763000Y-93872260D01*
X77820068Y-94159158D01*
X77932010Y-94429411D01*
X78094525Y-94672632D01*
X78226380Y-94804487D01*
X78153820Y-94826498D01*
X78043506Y-94885463D01*
X77946815Y-94964815D01*
X77867463Y-95061506D01*
X77808498Y-95171820D01*
X77772188Y-95291518D01*
X77759928Y-95416000D01*
X77759928Y-97116000D01*
X77772188Y-97240482D01*
X77808498Y-97360180D01*
X77867463Y-97470494D01*
X77946815Y-97567185D01*
X78043506Y-97646537D01*
X78153820Y-97705502D01*
X78273518Y-97741812D01*
X78398000Y-97754072D01*
X80098000Y-97754072D01*
X80222482Y-97741812D01*
X80342180Y-97705502D01*
X80452494Y-97646537D01*
X80549185Y-97567185D01*
X80628537Y-97470494D01*
X80687502Y-97360180D01*
X80723812Y-97240482D01*
X80736072Y-97116000D01*
X80736072Y-96035164D01*
X80886236Y-95885000D01*
X84284333Y-95885000D01*
X84328000Y-95889301D01*
X84371667Y-95885000D01*
X85480673Y-95885000D01*
X85433000Y-96124665D01*
X85433000Y-96407335D01*
X85488147Y-96684574D01*
X85596320Y-96945727D01*
X85753363Y-97180759D01*
X85953241Y-97380637D01*
X86188273Y-97537680D01*
X86449426Y-97645853D01*
X86726665Y-97701000D01*
X87009335Y-97701000D01*
X87286574Y-97645853D01*
X87547727Y-97537680D01*
X87782759Y-97380637D01*
X87982637Y-97180759D01*
X88139680Y-96945727D01*
X88247853Y-96684574D01*
X88303000Y-96407335D01*
X88303000Y-96124665D01*
X88255327Y-95885000D01*
X98254340Y-95885000D01*
X98298000Y-95889300D01*
X98341660Y-95885000D01*
X98341667Y-95885000D01*
X98472274Y-95872136D01*
X98639851Y-95821303D01*
X98794291Y-95738753D01*
X98929659Y-95627659D01*
X98957499Y-95593736D01*
X105754809Y-88796427D01*
X105808147Y-89064574D01*
X105916320Y-89325727D01*
X106073363Y-89560759D01*
X106273241Y-89760637D01*
X106505759Y-89916000D01*
X106273241Y-90071363D01*
X106073363Y-90271241D01*
X105916320Y-90506273D01*
X105808147Y-90767426D01*
X105753000Y-91044665D01*
X105753000Y-91327335D01*
X105808147Y-91604574D01*
X105916320Y-91865727D01*
X106073363Y-92100759D01*
X106273241Y-92300637D01*
X106505759Y-92456000D01*
X106273241Y-92611363D01*
X106073363Y-92811241D01*
X105916320Y-93046273D01*
X105808147Y-93307426D01*
X105753000Y-93584665D01*
X105753000Y-93867335D01*
X105808147Y-94144574D01*
X105916320Y-94405727D01*
X106073363Y-94640759D01*
X106273241Y-94840637D01*
X106505759Y-94996000D01*
X106273241Y-95151363D01*
X106073363Y-95351241D01*
X105916320Y-95586273D01*
X105808147Y-95847426D01*
X105753000Y-96124665D01*
X105753000Y-96407335D01*
X105808147Y-96684574D01*
X105916320Y-96945727D01*
X106073363Y-97180759D01*
X106273241Y-97380637D01*
X106508273Y-97537680D01*
X106769426Y-97645853D01*
X107046665Y-97701000D01*
X107329335Y-97701000D01*
X107606574Y-97645853D01*
X107867727Y-97537680D01*
X108102759Y-97380637D01*
X108302637Y-97180759D01*
X108459680Y-96945727D01*
X108567853Y-96684574D01*
X108580122Y-96622890D01*
X113366524Y-96622890D01*
X113411175Y-96770099D01*
X113536359Y-97032920D01*
X113710412Y-97266269D01*
X113926645Y-97461178D01*
X114176748Y-97610157D01*
X114451109Y-97707481D01*
X114681000Y-97586814D01*
X114681000Y-96393000D01*
X114935000Y-96393000D01*
X114935000Y-97586814D01*
X115164891Y-97707481D01*
X115439252Y-97610157D01*
X115689355Y-97461178D01*
X115905588Y-97266269D01*
X116079641Y-97032920D01*
X116204825Y-96770099D01*
X116249476Y-96622890D01*
X116128155Y-96393000D01*
X114935000Y-96393000D01*
X114681000Y-96393000D01*
X113487845Y-96393000D01*
X113366524Y-96622890D01*
X108580122Y-96622890D01*
X108623000Y-96407335D01*
X108623000Y-96124665D01*
X108567853Y-95847426D01*
X108459680Y-95586273D01*
X108302637Y-95351241D01*
X108102759Y-95151363D01*
X107870241Y-94996000D01*
X108102759Y-94840637D01*
X108302637Y-94640759D01*
X108459680Y-94405727D01*
X108567853Y-94144574D01*
X108623000Y-93867335D01*
X108623000Y-93584665D01*
X108567853Y-93307426D01*
X108459680Y-93046273D01*
X108302637Y-92811241D01*
X108102759Y-92611363D01*
X107870241Y-92456000D01*
X108102759Y-92300637D01*
X108302637Y-92100759D01*
X108319849Y-92075000D01*
X113616017Y-92075000D01*
X113654525Y-92132632D01*
X113861368Y-92339475D01*
X114035760Y-92456000D01*
X113861368Y-92572525D01*
X113654525Y-92779368D01*
X113492010Y-93022589D01*
X113380068Y-93292842D01*
X113323000Y-93579740D01*
X113323000Y-93872260D01*
X113380068Y-94159158D01*
X113492010Y-94429411D01*
X113654525Y-94672632D01*
X113861368Y-94879475D01*
X114043534Y-95001195D01*
X113926645Y-95070822D01*
X113710412Y-95265731D01*
X113536359Y-95499080D01*
X113411175Y-95761901D01*
X113366524Y-95909110D01*
X113487845Y-96139000D01*
X114681000Y-96139000D01*
X114681000Y-96119000D01*
X114935000Y-96119000D01*
X114935000Y-96139000D01*
X116128155Y-96139000D01*
X116249476Y-95909110D01*
X116204825Y-95761901D01*
X116079641Y-95499080D01*
X115905588Y-95265731D01*
X115689355Y-95070822D01*
X115572466Y-95001195D01*
X115754632Y-94879475D01*
X115961475Y-94672632D01*
X116123990Y-94429411D01*
X116235932Y-94159158D01*
X116293000Y-93872260D01*
X116293000Y-93579740D01*
X116235932Y-93292842D01*
X116123990Y-93022589D01*
X115961475Y-92779368D01*
X115754632Y-92572525D01*
X115580240Y-92456000D01*
X115754632Y-92339475D01*
X115961475Y-92132632D01*
X116123990Y-91889411D01*
X116235932Y-91619158D01*
X116293000Y-91332260D01*
X116293000Y-91039740D01*
X116235932Y-90752842D01*
X116123990Y-90482589D01*
X115961475Y-90239368D01*
X115829620Y-90107513D01*
X115902180Y-90085502D01*
X116012494Y-90026537D01*
X116109185Y-89947185D01*
X116188537Y-89850494D01*
X116247502Y-89740180D01*
X116283812Y-89620482D01*
X116296072Y-89496000D01*
X116296072Y-87796000D01*
X116283812Y-87671518D01*
X116247502Y-87551820D01*
X116188537Y-87441506D01*
X116109185Y-87344815D01*
X116012494Y-87265463D01*
X115902180Y-87206498D01*
X115782482Y-87170188D01*
X115658000Y-87157928D01*
X114577164Y-87157928D01*
X113157000Y-85737765D01*
X113157000Y-76302890D01*
X113366524Y-76302890D01*
X113411175Y-76450099D01*
X113536359Y-76712920D01*
X113710412Y-76946269D01*
X113926645Y-77141178D01*
X114176748Y-77290157D01*
X114451109Y-77387481D01*
X114681000Y-77266814D01*
X114681000Y-76073000D01*
X114935000Y-76073000D01*
X114935000Y-77266814D01*
X115164891Y-77387481D01*
X115439252Y-77290157D01*
X115689355Y-77141178D01*
X115905588Y-76946269D01*
X116079641Y-76712920D01*
X116204825Y-76450099D01*
X116249476Y-76302890D01*
X116128155Y-76073000D01*
X114935000Y-76073000D01*
X114681000Y-76073000D01*
X113487845Y-76073000D01*
X113366524Y-76302890D01*
X113157000Y-76302890D01*
X113157000Y-71234235D01*
X113332287Y-71058948D01*
X113380068Y-71299158D01*
X113492010Y-71569411D01*
X113654525Y-71812632D01*
X113861368Y-72019475D01*
X114035760Y-72136000D01*
X113861368Y-72252525D01*
X113654525Y-72459368D01*
X113492010Y-72702589D01*
X113380068Y-72972842D01*
X113323000Y-73259740D01*
X113323000Y-73552260D01*
X113380068Y-73839158D01*
X113492010Y-74109411D01*
X113654525Y-74352632D01*
X113861368Y-74559475D01*
X114043534Y-74681195D01*
X113926645Y-74750822D01*
X113710412Y-74945731D01*
X113536359Y-75179080D01*
X113411175Y-75441901D01*
X113366524Y-75589110D01*
X113487845Y-75819000D01*
X114681000Y-75819000D01*
X114681000Y-75799000D01*
X114935000Y-75799000D01*
X114935000Y-75819000D01*
X116128155Y-75819000D01*
X116249476Y-75589110D01*
X116204825Y-75441901D01*
X116079641Y-75179080D01*
X115905588Y-74945731D01*
X115689355Y-74750822D01*
X115572466Y-74681195D01*
X115754632Y-74559475D01*
X115961475Y-74352632D01*
X116123990Y-74109411D01*
X116235932Y-73839158D01*
X116293000Y-73552260D01*
X116293000Y-73259740D01*
X116235932Y-72972842D01*
X116123990Y-72702589D01*
X115961475Y-72459368D01*
X115754632Y-72252525D01*
X115580240Y-72136000D01*
X115754632Y-72019475D01*
X115961475Y-71812632D01*
X116123990Y-71569411D01*
X116235932Y-71299158D01*
X116293000Y-71012260D01*
X116293000Y-70719740D01*
X116235932Y-70432842D01*
X116123990Y-70162589D01*
X115961475Y-69919368D01*
X115829620Y-69787513D01*
X115902180Y-69765502D01*
X116012494Y-69706537D01*
X116109185Y-69627185D01*
X116188537Y-69530494D01*
X116247502Y-69420180D01*
X116283812Y-69300482D01*
X116296072Y-69176000D01*
X116296072Y-67476000D01*
X116283812Y-67351518D01*
X116247502Y-67231820D01*
X116188537Y-67121506D01*
X116109185Y-67024815D01*
X116012494Y-66945463D01*
X115902180Y-66886498D01*
X115782482Y-66850188D01*
X115658000Y-66837928D01*
X114577164Y-66837928D01*
X113157000Y-65417765D01*
X113157000Y-55982890D01*
X113261525Y-55982890D01*
X113306176Y-56130099D01*
X113431360Y-56392920D01*
X113605413Y-56626269D01*
X113821646Y-56821178D01*
X114071749Y-56970157D01*
X114346110Y-57067481D01*
X114576001Y-56946814D01*
X114576001Y-55753000D01*
X114830001Y-55753000D01*
X114830001Y-56946814D01*
X115059892Y-57067481D01*
X115334253Y-56970157D01*
X115584356Y-56821178D01*
X115800589Y-56626269D01*
X115974642Y-56392920D01*
X116099826Y-56130099D01*
X116144477Y-55982890D01*
X116023156Y-55753000D01*
X114830001Y-55753000D01*
X114576001Y-55753000D01*
X113382846Y-55753000D01*
X113261525Y-55982890D01*
X113157000Y-55982890D01*
X113157000Y-50809236D01*
X113227288Y-50738948D01*
X113275069Y-50979158D01*
X113387011Y-51249411D01*
X113549526Y-51492632D01*
X113756369Y-51699475D01*
X113930761Y-51816000D01*
X113756369Y-51932525D01*
X113549526Y-52139368D01*
X113387011Y-52382589D01*
X113275069Y-52652842D01*
X113218001Y-52939740D01*
X113218001Y-53232260D01*
X113275069Y-53519158D01*
X113387011Y-53789411D01*
X113549526Y-54032632D01*
X113756369Y-54239475D01*
X113938535Y-54361195D01*
X113821646Y-54430822D01*
X113605413Y-54625731D01*
X113431360Y-54859080D01*
X113306176Y-55121901D01*
X113261525Y-55269110D01*
X113382846Y-55499000D01*
X114576001Y-55499000D01*
X114576001Y-55479000D01*
X114830001Y-55479000D01*
X114830001Y-55499000D01*
X116023156Y-55499000D01*
X116144477Y-55269110D01*
X116099826Y-55121901D01*
X115974642Y-54859080D01*
X115800589Y-54625731D01*
X115584356Y-54430822D01*
X115467467Y-54361195D01*
X115649633Y-54239475D01*
X115856476Y-54032632D01*
X116018991Y-53789411D01*
X116130933Y-53519158D01*
X116188001Y-53232260D01*
X116188001Y-52939740D01*
X116130933Y-52652842D01*
X116018991Y-52382589D01*
X115856476Y-52139368D01*
X115649633Y-51932525D01*
X115475241Y-51816000D01*
X115649633Y-51699475D01*
X115856476Y-51492632D01*
X116018991Y-51249411D01*
X116130933Y-50979158D01*
X116188001Y-50692260D01*
X116188001Y-50399740D01*
X116130933Y-50112842D01*
X116018991Y-49842589D01*
X115856476Y-49599368D01*
X115724621Y-49467513D01*
X115797181Y-49445502D01*
X115907495Y-49386537D01*
X116004186Y-49307185D01*
X116083538Y-49210494D01*
X116142503Y-49100180D01*
X116178813Y-48980482D01*
X116191073Y-48856000D01*
X116191073Y-47156000D01*
X116178813Y-47031518D01*
X116142503Y-46911820D01*
X116083538Y-46801506D01*
X116004186Y-46704815D01*
X115907495Y-46625463D01*
X115797181Y-46566498D01*
X115677483Y-46530188D01*
X115553001Y-46517928D01*
X113853001Y-46517928D01*
X113728519Y-46530188D01*
X113608821Y-46566498D01*
X113498507Y-46625463D01*
X113401816Y-46704815D01*
X113322464Y-46801506D01*
X113263499Y-46911820D01*
X113227189Y-47031518D01*
X113214929Y-47156000D01*
X113214929Y-48236836D01*
X111670259Y-49781507D01*
X111636342Y-49809342D01*
X111608507Y-49843259D01*
X111608505Y-49843261D01*
X111525248Y-49944710D01*
X111442698Y-50099149D01*
X111391864Y-50266727D01*
X111374700Y-50441001D01*
X111379001Y-50484671D01*
X111379000Y-65742340D01*
X111374700Y-65786000D01*
X111379000Y-65829660D01*
X111379000Y-65829666D01*
X111391864Y-65960273D01*
X111442697Y-66127850D01*
X111525247Y-66282290D01*
X111636341Y-66417659D01*
X111670264Y-66445499D01*
X113319928Y-68095164D01*
X113319928Y-68556836D01*
X111670259Y-70206506D01*
X111636342Y-70234341D01*
X111608507Y-70268258D01*
X111608505Y-70268260D01*
X111525248Y-70369709D01*
X111442698Y-70524148D01*
X111391864Y-70691726D01*
X111374700Y-70866000D01*
X111379001Y-70909666D01*
X111379000Y-86062340D01*
X111374700Y-86106000D01*
X111379000Y-86149660D01*
X111379000Y-86149666D01*
X111388620Y-86247335D01*
X111391864Y-86280274D01*
X111413998Y-86353241D01*
X111442697Y-86447850D01*
X111525247Y-86602290D01*
X111636341Y-86737659D01*
X111670264Y-86765499D01*
X113319928Y-88415164D01*
X113319928Y-88440692D01*
X110617000Y-85737765D01*
X110617000Y-71398468D01*
X110645205Y-71356256D01*
X110723226Y-71167898D01*
X110763000Y-70967939D01*
X110763000Y-70764061D01*
X110723226Y-70564102D01*
X110645205Y-70375744D01*
X110617000Y-70333532D01*
X110617000Y-56158468D01*
X110645205Y-56116256D01*
X110723226Y-55927898D01*
X110763000Y-55727939D01*
X110763000Y-55524061D01*
X110723226Y-55324102D01*
X110645205Y-55135744D01*
X110531937Y-54966226D01*
X110387774Y-54822063D01*
X110218256Y-54708795D01*
X110029898Y-54630774D01*
X109829939Y-54591000D01*
X109626061Y-54591000D01*
X109426102Y-54630774D01*
X109237744Y-54708795D01*
X109068226Y-54822063D01*
X108924063Y-54966226D01*
X108810795Y-55135744D01*
X108732774Y-55324102D01*
X108693000Y-55524061D01*
X108693000Y-55727939D01*
X108732774Y-55927898D01*
X108810795Y-56116256D01*
X108839001Y-56158469D01*
X108839000Y-70333532D01*
X108810795Y-70375744D01*
X108732774Y-70564102D01*
X108693000Y-70764061D01*
X108693000Y-70967939D01*
X108732774Y-71167898D01*
X108810795Y-71356256D01*
X108839001Y-71398469D01*
X108839000Y-86062340D01*
X108834700Y-86106000D01*
X108839000Y-86149660D01*
X108839000Y-86149666D01*
X108848620Y-86247335D01*
X108851864Y-86280274D01*
X108873998Y-86353241D01*
X108902697Y-86447850D01*
X108985247Y-86602290D01*
X109096341Y-86737659D01*
X109130264Y-86765499D01*
X112661764Y-90297000D01*
X108319849Y-90297000D01*
X108302637Y-90271241D01*
X108102759Y-90071363D01*
X107870241Y-89916000D01*
X108102759Y-89760637D01*
X108302637Y-89560759D01*
X108459680Y-89325727D01*
X108567853Y-89064574D01*
X108623000Y-88787335D01*
X108623000Y-88504665D01*
X108567853Y-88227426D01*
X108459680Y-87966273D01*
X108302637Y-87731241D01*
X108102759Y-87531363D01*
X107870241Y-87376000D01*
X108102759Y-87220637D01*
X108302637Y-87020759D01*
X108459680Y-86785727D01*
X108567853Y-86524574D01*
X108623000Y-86247335D01*
X108623000Y-85964665D01*
X108567853Y-85687426D01*
X108459680Y-85426273D01*
X108302637Y-85191241D01*
X108102759Y-84991363D01*
X107870241Y-84836000D01*
X108102759Y-84680637D01*
X108302637Y-84480759D01*
X108459680Y-84245727D01*
X108567853Y-83984574D01*
X108623000Y-83707335D01*
X108623000Y-83424665D01*
X108567853Y-83147426D01*
X108459680Y-82886273D01*
X108302637Y-82651241D01*
X108102759Y-82451363D01*
X107870241Y-82296000D01*
X108102759Y-82140637D01*
X108302637Y-81940759D01*
X108459680Y-81705727D01*
X108567853Y-81444574D01*
X108623000Y-81167335D01*
X108623000Y-80884665D01*
X108567853Y-80607426D01*
X108459680Y-80346273D01*
X108302637Y-80111241D01*
X108102759Y-79911363D01*
X107870241Y-79756000D01*
X108102759Y-79600637D01*
X108302637Y-79400759D01*
X108459680Y-79165727D01*
X108567853Y-78904574D01*
X108623000Y-78627335D01*
X108623000Y-78344665D01*
X108567853Y-78067426D01*
X108459680Y-77806273D01*
X108302637Y-77571241D01*
X108102759Y-77371363D01*
X107870241Y-77216000D01*
X108102759Y-77060637D01*
X108302637Y-76860759D01*
X108459680Y-76625727D01*
X108567853Y-76364574D01*
X108623000Y-76087335D01*
X108623000Y-75804665D01*
X108567853Y-75527426D01*
X108459680Y-75266273D01*
X108302637Y-75031241D01*
X108102759Y-74831363D01*
X107870241Y-74676000D01*
X108102759Y-74520637D01*
X108302637Y-74320759D01*
X108459680Y-74085727D01*
X108567853Y-73824574D01*
X108623000Y-73547335D01*
X108623000Y-73264665D01*
X108567853Y-72987426D01*
X108459680Y-72726273D01*
X108302637Y-72491241D01*
X108102759Y-72291363D01*
X107870241Y-72136000D01*
X108102759Y-71980637D01*
X108302637Y-71780759D01*
X108459680Y-71545727D01*
X108567853Y-71284574D01*
X108623000Y-71007335D01*
X108623000Y-70724665D01*
X108567853Y-70447426D01*
X108459680Y-70186273D01*
X108302637Y-69951241D01*
X108102759Y-69751363D01*
X107870241Y-69596000D01*
X108102759Y-69440637D01*
X108302637Y-69240759D01*
X108459680Y-69005727D01*
X108567853Y-68744574D01*
X108623000Y-68467335D01*
X108623000Y-68184665D01*
X108567853Y-67907426D01*
X108459680Y-67646273D01*
X108302637Y-67411241D01*
X108102759Y-67211363D01*
X107867727Y-67054320D01*
X107606574Y-66946147D01*
X107329335Y-66891000D01*
X107046665Y-66891000D01*
X106769426Y-66946147D01*
X106508273Y-67054320D01*
X106273241Y-67211363D01*
X106073363Y-67411241D01*
X105916320Y-67646273D01*
X105808147Y-67907426D01*
X105753000Y-68184665D01*
X105753000Y-68467335D01*
X105808147Y-68744574D01*
X105916320Y-69005727D01*
X106073363Y-69240759D01*
X106273241Y-69440637D01*
X106505759Y-69596000D01*
X106273241Y-69751363D01*
X106073363Y-69951241D01*
X105916320Y-70186273D01*
X105808147Y-70447426D01*
X105753000Y-70724665D01*
X105753000Y-71007335D01*
X105808147Y-71284574D01*
X105916320Y-71545727D01*
X106073363Y-71780759D01*
X106273241Y-71980637D01*
X106505759Y-72136000D01*
X106273241Y-72291363D01*
X106073363Y-72491241D01*
X105916320Y-72726273D01*
X105808147Y-72987426D01*
X105753000Y-73264665D01*
X105753000Y-73547335D01*
X105808147Y-73824574D01*
X105916320Y-74085727D01*
X106073363Y-74320759D01*
X106273241Y-74520637D01*
X106505759Y-74676000D01*
X106273241Y-74831363D01*
X106073363Y-75031241D01*
X105916320Y-75266273D01*
X105808147Y-75527426D01*
X105754808Y-75795573D01*
X105537000Y-75577765D01*
X105537000Y-53454235D01*
X107785743Y-51205493D01*
X107819659Y-51177659D01*
X107930753Y-51042291D01*
X108013303Y-50887851D01*
X108045153Y-50782853D01*
X108064136Y-50720276D01*
X108067406Y-50687076D01*
X108077000Y-50589667D01*
X108077000Y-50589661D01*
X108081300Y-50546001D01*
X108077000Y-50502341D01*
X108077000Y-45834072D01*
X108188000Y-45834072D01*
X108312482Y-45821812D01*
X108432180Y-45785502D01*
X108542494Y-45726537D01*
X108639185Y-45647185D01*
X108718537Y-45550494D01*
X108777502Y-45440180D01*
X108813812Y-45320482D01*
X108826072Y-45196000D01*
X108826072Y-43196000D01*
X108813812Y-43071518D01*
X108777502Y-42951820D01*
X108718537Y-42841506D01*
X108639185Y-42744815D01*
X108542494Y-42665463D01*
X108432180Y-42606498D01*
X108312482Y-42570188D01*
X108188000Y-42557928D01*
X106188000Y-42557928D01*
X106063518Y-42570188D01*
X105943820Y-42606498D01*
X105833506Y-42665463D01*
X105736815Y-42744815D01*
X105657463Y-42841506D01*
X105598498Y-42951820D01*
X105562188Y-43071518D01*
X105549928Y-43196000D01*
X105549928Y-45196000D01*
X105562188Y-45320482D01*
X105598498Y-45440180D01*
X105657463Y-45550494D01*
X105736815Y-45647185D01*
X105833506Y-45726537D01*
X105943820Y-45785502D01*
X106063518Y-45821812D01*
X106188000Y-45834072D01*
X106299001Y-45834072D01*
X106299000Y-50177764D01*
X104050260Y-52426505D01*
X104016342Y-52454341D01*
X103988507Y-52488258D01*
X103988505Y-52488260D01*
X103905248Y-52589709D01*
X103822698Y-52744148D01*
X103771864Y-52911726D01*
X103754700Y-53086000D01*
X103759001Y-53129670D01*
X103759000Y-75902340D01*
X103754700Y-75946000D01*
X103759000Y-75989660D01*
X103759000Y-75989666D01*
X103771864Y-76120273D01*
X103822697Y-76287850D01*
X103905247Y-76442290D01*
X104016341Y-76577659D01*
X104050264Y-76605499D01*
X105759044Y-78314280D01*
X105753000Y-78344665D01*
X105753000Y-78627335D01*
X105808147Y-78904574D01*
X105916320Y-79165727D01*
X106073363Y-79400759D01*
X106273241Y-79600637D01*
X106505759Y-79756000D01*
X106273241Y-79911363D01*
X106073363Y-80111241D01*
X105916320Y-80346273D01*
X105808147Y-80607426D01*
X105753000Y-80884665D01*
X105753000Y-81167335D01*
X105808147Y-81444574D01*
X105916320Y-81705727D01*
X106073363Y-81940759D01*
X106273241Y-82140637D01*
X106505759Y-82296000D01*
X106273241Y-82451363D01*
X106073363Y-82651241D01*
X106056151Y-82677000D01*
X105961668Y-82677000D01*
X105918000Y-82672699D01*
X105743725Y-82689864D01*
X105692892Y-82705284D01*
X105576149Y-82740697D01*
X105421709Y-82823247D01*
X105286341Y-82934341D01*
X105258506Y-82968258D01*
X96659765Y-91567000D01*
X88670468Y-91567000D01*
X88628256Y-91538795D01*
X88439898Y-91460774D01*
X88282678Y-91429501D01*
X88303000Y-91327335D01*
X88303000Y-91044665D01*
X88247853Y-90767426D01*
X88139680Y-90506273D01*
X87982637Y-90271241D01*
X87782759Y-90071363D01*
X87550241Y-89916000D01*
X87782759Y-89760637D01*
X87982637Y-89560759D01*
X88139680Y-89325727D01*
X88247853Y-89064574D01*
X88303000Y-88787335D01*
X88303000Y-88504665D01*
X88247853Y-88227426D01*
X88139680Y-87966273D01*
X87982637Y-87731241D01*
X87782759Y-87531363D01*
X87550241Y-87376000D01*
X87782759Y-87220637D01*
X87982637Y-87020759D01*
X88139680Y-86785727D01*
X88247853Y-86524574D01*
X88303000Y-86247335D01*
X88303000Y-85964665D01*
X88247853Y-85687426D01*
X88139680Y-85426273D01*
X87982637Y-85191241D01*
X87782759Y-84991363D01*
X87550241Y-84836000D01*
X87782759Y-84680637D01*
X87982637Y-84480759D01*
X88139680Y-84245727D01*
X88247853Y-83984574D01*
X88303000Y-83707335D01*
X88303000Y-83424665D01*
X88247853Y-83147426D01*
X88139680Y-82886273D01*
X87982637Y-82651241D01*
X87782759Y-82451363D01*
X87550241Y-82296000D01*
X87782759Y-82140637D01*
X87982637Y-81940759D01*
X88139680Y-81705727D01*
X88247853Y-81444574D01*
X88303000Y-81167335D01*
X88303000Y-80884665D01*
X88296956Y-80854279D01*
X93815743Y-75335493D01*
X93849659Y-75307659D01*
X93960753Y-75172291D01*
X94043303Y-75017851D01*
X94065180Y-74945731D01*
X94094136Y-74850276D01*
X94106771Y-74721990D01*
X94107000Y-74719667D01*
X94107000Y-74719661D01*
X94111300Y-74676001D01*
X94107000Y-74632341D01*
X94107000Y-48084481D01*
X94182850Y-48061472D01*
X94336386Y-47979405D01*
X94470962Y-47868962D01*
X94581405Y-47734386D01*
X94663472Y-47580850D01*
X94714008Y-47414254D01*
X94731072Y-47241000D01*
X94731072Y-46491000D01*
X94714008Y-46317746D01*
X94663472Y-46151150D01*
X94581405Y-45997614D01*
X94470962Y-45863038D01*
X94336386Y-45752595D01*
X94182850Y-45670528D01*
X94016254Y-45619992D01*
X93843000Y-45602928D01*
X92593000Y-45602928D01*
X92419746Y-45619992D01*
X92253150Y-45670528D01*
X92099614Y-45752595D01*
X91965038Y-45863038D01*
X91854595Y-45997614D01*
X91772528Y-46151150D01*
X91721992Y-46317746D01*
X91704928Y-46491000D01*
X91704928Y-47241000D01*
X91721992Y-47414254D01*
X91772528Y-47580850D01*
X91854595Y-47734386D01*
X91965038Y-47868962D01*
X92099614Y-47979405D01*
X92253150Y-48061472D01*
X92329001Y-48084481D01*
X92329000Y-74307764D01*
X88301191Y-78335573D01*
X88296956Y-78314279D01*
X90005743Y-76605493D01*
X90039659Y-76577659D01*
X90150753Y-76442291D01*
X90233303Y-76287851D01*
X90253296Y-76221942D01*
X90284136Y-76120276D01*
X90288792Y-76073000D01*
X90297000Y-75989667D01*
X90297000Y-75989661D01*
X90301300Y-75946001D01*
X90297000Y-75902341D01*
X90297000Y-48084481D01*
X90372850Y-48061472D01*
X90526386Y-47979405D01*
X90660962Y-47868962D01*
X90771405Y-47734386D01*
X90853472Y-47580850D01*
X90904008Y-47414254D01*
X90921072Y-47241000D01*
X90921072Y-46491000D01*
X90904008Y-46317746D01*
X90853472Y-46151150D01*
X90771405Y-45997614D01*
X90660962Y-45863038D01*
X90526386Y-45752595D01*
X90372850Y-45670528D01*
X90206254Y-45619992D01*
X90033000Y-45602928D01*
X88783000Y-45602928D01*
X88609746Y-45619992D01*
X88443150Y-45670528D01*
X88289614Y-45752595D01*
X88155038Y-45863038D01*
X88044595Y-45997614D01*
X87962528Y-46151150D01*
X87911992Y-46317746D01*
X87894928Y-46491000D01*
X87894928Y-47241000D01*
X87911992Y-47414254D01*
X87962528Y-47580850D01*
X88044595Y-47734386D01*
X88155038Y-47868962D01*
X88289614Y-47979405D01*
X88443150Y-48061472D01*
X88519001Y-48084481D01*
X88519000Y-75577764D01*
X88301191Y-75795573D01*
X88247853Y-75527426D01*
X88139680Y-75266273D01*
X87982637Y-75031241D01*
X87782759Y-74831363D01*
X87550241Y-74676000D01*
X87782759Y-74520637D01*
X87982637Y-74320759D01*
X88139680Y-74085727D01*
X88247853Y-73824574D01*
X88303000Y-73547335D01*
X88303000Y-73264665D01*
X88247853Y-72987426D01*
X88139680Y-72726273D01*
X87982637Y-72491241D01*
X87782759Y-72291363D01*
X87550241Y-72136000D01*
X87782759Y-71980637D01*
X87982637Y-71780759D01*
X88139680Y-71545727D01*
X88247853Y-71284574D01*
X88303000Y-71007335D01*
X88303000Y-70724665D01*
X88247853Y-70447426D01*
X88139680Y-70186273D01*
X87982637Y-69951241D01*
X87782759Y-69751363D01*
X87550241Y-69596000D01*
X87782759Y-69440637D01*
X87982637Y-69240759D01*
X88139680Y-69005727D01*
X88247853Y-68744574D01*
X88303000Y-68467335D01*
X88303000Y-68184665D01*
X88247853Y-67907426D01*
X88139680Y-67646273D01*
X87982637Y-67411241D01*
X87782759Y-67211363D01*
X87548872Y-67055085D01*
X87609514Y-67022671D01*
X87681097Y-66778702D01*
X86868000Y-65965605D01*
X86054903Y-66778702D01*
X86126486Y-67022671D01*
X86190992Y-67053194D01*
X86188273Y-67054320D01*
X85953241Y-67211363D01*
X85753363Y-67411241D01*
X85596320Y-67646273D01*
X85488147Y-67907426D01*
X85433000Y-68184665D01*
X85433000Y-68467335D01*
X85488147Y-68744574D01*
X85596320Y-69005727D01*
X85753363Y-69240759D01*
X85953241Y-69440637D01*
X86185759Y-69596000D01*
X85953241Y-69751363D01*
X85753363Y-69951241D01*
X85596320Y-70186273D01*
X85488147Y-70447426D01*
X85433000Y-70724665D01*
X85433000Y-71007335D01*
X85488147Y-71284574D01*
X85596320Y-71545727D01*
X85753363Y-71780759D01*
X85953241Y-71980637D01*
X86185759Y-72136000D01*
X85953241Y-72291363D01*
X85753363Y-72491241D01*
X85596320Y-72726273D01*
X85488147Y-72987426D01*
X85433000Y-73264665D01*
X85433000Y-73547335D01*
X85488147Y-73824574D01*
X85596320Y-74085727D01*
X85753363Y-74320759D01*
X85953241Y-74520637D01*
X86185759Y-74676000D01*
X85953241Y-74831363D01*
X85753363Y-75031241D01*
X85596320Y-75266273D01*
X85488147Y-75527426D01*
X85433000Y-75804665D01*
X85433000Y-76087335D01*
X85488147Y-76364574D01*
X85596320Y-76625727D01*
X85753363Y-76860759D01*
X85953241Y-77060637D01*
X86185759Y-77216000D01*
X85953241Y-77371363D01*
X85753363Y-77571241D01*
X85596320Y-77806273D01*
X85488147Y-78067426D01*
X85433000Y-78344665D01*
X85433000Y-78627335D01*
X85488147Y-78904574D01*
X85596320Y-79165727D01*
X85753363Y-79400759D01*
X85953241Y-79600637D01*
X86185759Y-79756000D01*
X85953241Y-79911363D01*
X85753363Y-80111241D01*
X85596320Y-80346273D01*
X85488147Y-80607426D01*
X85433000Y-80884665D01*
X85433000Y-81167335D01*
X85488147Y-81444574D01*
X85596320Y-81705727D01*
X85753363Y-81940759D01*
X85953241Y-82140637D01*
X86185759Y-82296000D01*
X85953241Y-82451363D01*
X85753363Y-82651241D01*
X85596320Y-82886273D01*
X85488147Y-83147426D01*
X85433000Y-83424665D01*
X85433000Y-83707335D01*
X85488147Y-83984574D01*
X85596320Y-84245727D01*
X85753363Y-84480759D01*
X85953241Y-84680637D01*
X86185759Y-84836000D01*
X85953241Y-84991363D01*
X85753363Y-85191241D01*
X85596320Y-85426273D01*
X85488147Y-85687426D01*
X85433000Y-85964665D01*
X85433000Y-86247335D01*
X85488147Y-86524574D01*
X85596320Y-86785727D01*
X85753363Y-87020759D01*
X85953241Y-87220637D01*
X86185759Y-87376000D01*
X85953241Y-87531363D01*
X85753363Y-87731241D01*
X85596320Y-87966273D01*
X85488147Y-88227426D01*
X85433000Y-88504665D01*
X85433000Y-88787335D01*
X85488147Y-89064574D01*
X85596320Y-89325727D01*
X85753363Y-89560759D01*
X85953241Y-89760637D01*
X86185759Y-89916000D01*
X85953241Y-90071363D01*
X85753363Y-90271241D01*
X85596320Y-90506273D01*
X85488147Y-90767426D01*
X85433000Y-91044665D01*
X85433000Y-91327335D01*
X85488147Y-91604574D01*
X85596320Y-91865727D01*
X85753363Y-92100759D01*
X85953241Y-92300637D01*
X86185759Y-92456000D01*
X85953241Y-92611363D01*
X85753363Y-92811241D01*
X85596320Y-93046273D01*
X85488147Y-93307426D01*
X85433000Y-93584665D01*
X85433000Y-93867335D01*
X85480673Y-94107000D01*
X85217000Y-94107000D01*
X85217000Y-76478468D01*
X85245205Y-76436256D01*
X85323226Y-76247898D01*
X85363000Y-76047939D01*
X85363000Y-75844061D01*
X85323226Y-75644102D01*
X85245205Y-75455744D01*
X85217000Y-75413532D01*
X85217000Y-65856512D01*
X85427783Y-65856512D01*
X85469213Y-66136130D01*
X85564397Y-66402292D01*
X85631329Y-66527514D01*
X85875298Y-66599097D01*
X86688395Y-65786000D01*
X87047605Y-65786000D01*
X87860702Y-66599097D01*
X88104671Y-66527514D01*
X88225571Y-66272004D01*
X88294300Y-65997816D01*
X88308217Y-65715488D01*
X88266787Y-65435870D01*
X88171603Y-65169708D01*
X88104671Y-65044486D01*
X87860702Y-64972903D01*
X87047605Y-65786000D01*
X86688395Y-65786000D01*
X85875298Y-64972903D01*
X85631329Y-65044486D01*
X85510429Y-65299996D01*
X85441700Y-65574184D01*
X85427783Y-65856512D01*
X85217000Y-65856512D01*
X85217000Y-61238468D01*
X85245205Y-61196256D01*
X85323226Y-61007898D01*
X85363000Y-60807939D01*
X85363000Y-60604061D01*
X85323226Y-60404102D01*
X85245205Y-60215744D01*
X85131937Y-60046226D01*
X84987774Y-59902063D01*
X84818256Y-59788795D01*
X84629898Y-59710774D01*
X84429939Y-59671000D01*
X84226061Y-59671000D01*
X84026102Y-59710774D01*
X83837744Y-59788795D01*
X83668226Y-59902063D01*
X83524063Y-60046226D01*
X83410795Y-60215744D01*
X83332774Y-60404102D01*
X83293000Y-60604061D01*
X83293000Y-60807939D01*
X83332774Y-61007898D01*
X83410795Y-61196256D01*
X83439001Y-61238469D01*
X83439000Y-75413532D01*
X83410795Y-75455744D01*
X83332774Y-75644102D01*
X83293000Y-75844061D01*
X83293000Y-76047939D01*
X83332774Y-76247898D01*
X83410795Y-76436256D01*
X83439001Y-76478469D01*
X83439000Y-94107000D01*
X80686307Y-94107000D01*
X80733000Y-93872260D01*
X80733000Y-93579740D01*
X80719477Y-93511758D01*
X82385743Y-91845493D01*
X82419659Y-91817659D01*
X82530753Y-91682291D01*
X82613303Y-91527851D01*
X82633650Y-91460774D01*
X82664136Y-91360276D01*
X82667406Y-91327076D01*
X82677000Y-91229667D01*
X82677000Y-91229661D01*
X82681300Y-91186001D01*
X82677000Y-91142341D01*
X82677000Y-75989659D01*
X82681300Y-75945999D01*
X82677000Y-75902339D01*
X82677000Y-75902333D01*
X82664136Y-75771726D01*
X82664136Y-75771724D01*
X82613302Y-75604147D01*
X82585501Y-75552136D01*
X82530753Y-75449709D01*
X82419659Y-75314341D01*
X82385741Y-75286505D01*
X80719477Y-73620242D01*
X80733000Y-73552260D01*
X80733000Y-73259740D01*
X80719477Y-73191758D01*
X82385743Y-71525493D01*
X82419659Y-71497659D01*
X82530753Y-71362291D01*
X82613303Y-71207851D01*
X82633296Y-71141942D01*
X82664136Y-71040276D01*
X82667406Y-71007076D01*
X82677000Y-70909667D01*
X82677000Y-70909661D01*
X82681300Y-70866001D01*
X82677000Y-70822341D01*
X82677000Y-57366000D01*
X85429928Y-57366000D01*
X85429928Y-58966000D01*
X85442188Y-59090482D01*
X85478498Y-59210180D01*
X85537463Y-59320494D01*
X85616815Y-59417185D01*
X85713506Y-59496537D01*
X85823820Y-59555502D01*
X85943518Y-59591812D01*
X85951961Y-59592643D01*
X85753363Y-59791241D01*
X85596320Y-60026273D01*
X85488147Y-60287426D01*
X85433000Y-60564665D01*
X85433000Y-60847335D01*
X85488147Y-61124574D01*
X85596320Y-61385727D01*
X85753363Y-61620759D01*
X85953241Y-61820637D01*
X86185759Y-61976000D01*
X85953241Y-62131363D01*
X85753363Y-62331241D01*
X85596320Y-62566273D01*
X85488147Y-62827426D01*
X85433000Y-63104665D01*
X85433000Y-63387335D01*
X85488147Y-63664574D01*
X85596320Y-63925727D01*
X85753363Y-64160759D01*
X85953241Y-64360637D01*
X86187128Y-64516915D01*
X86126486Y-64549329D01*
X86054903Y-64793298D01*
X86868000Y-65606395D01*
X87681097Y-64793298D01*
X87609514Y-64549329D01*
X87545008Y-64518806D01*
X87547727Y-64517680D01*
X87782759Y-64360637D01*
X87982637Y-64160759D01*
X88139680Y-63925727D01*
X88247853Y-63664574D01*
X88303000Y-63387335D01*
X88303000Y-63104665D01*
X88247853Y-62827426D01*
X88139680Y-62566273D01*
X87982637Y-62331241D01*
X87782759Y-62131363D01*
X87550241Y-61976000D01*
X87782759Y-61820637D01*
X87982637Y-61620759D01*
X88139680Y-61385727D01*
X88247853Y-61124574D01*
X88303000Y-60847335D01*
X88303000Y-60564665D01*
X88247853Y-60287426D01*
X88139680Y-60026273D01*
X87982637Y-59791241D01*
X87784039Y-59592643D01*
X87792482Y-59591812D01*
X87912180Y-59555502D01*
X88022494Y-59496537D01*
X88119185Y-59417185D01*
X88198537Y-59320494D01*
X88257502Y-59210180D01*
X88293812Y-59090482D01*
X88306072Y-58966000D01*
X88306072Y-57366000D01*
X88293812Y-57241518D01*
X88257502Y-57121820D01*
X88198537Y-57011506D01*
X88119185Y-56914815D01*
X88022494Y-56835463D01*
X87912180Y-56776498D01*
X87792482Y-56740188D01*
X87668000Y-56727928D01*
X86068000Y-56727928D01*
X85943518Y-56740188D01*
X85823820Y-56776498D01*
X85713506Y-56835463D01*
X85616815Y-56914815D01*
X85537463Y-57011506D01*
X85478498Y-57121820D01*
X85442188Y-57241518D01*
X85429928Y-57366000D01*
X82677000Y-57366000D01*
X82677000Y-55669659D01*
X82681300Y-55625999D01*
X82677000Y-55582339D01*
X82677000Y-55582333D01*
X82664136Y-55451726D01*
X82664136Y-55451724D01*
X82613302Y-55284147D01*
X82605264Y-55269110D01*
X82530753Y-55129709D01*
X82419659Y-54994341D01*
X82385742Y-54966506D01*
X80719477Y-53300242D01*
X80733000Y-53232260D01*
X80733000Y-52939740D01*
X80675932Y-52652842D01*
X80563990Y-52382589D01*
X80401475Y-52139368D01*
X80194632Y-51932525D01*
X80020240Y-51816000D01*
X80194632Y-51699475D01*
X80401475Y-51492632D01*
X80563990Y-51249411D01*
X80675932Y-50979158D01*
X80733000Y-50692260D01*
X80733000Y-50399740D01*
X80675932Y-50112842D01*
X80563990Y-49842589D01*
X80401475Y-49599368D01*
X80194632Y-49392525D01*
X80012466Y-49270805D01*
X80129355Y-49201178D01*
X80345588Y-49006269D01*
X80519641Y-48772920D01*
X80644825Y-48510099D01*
X80689476Y-48362890D01*
X80568155Y-48133000D01*
X79375000Y-48133000D01*
X79375000Y-48153000D01*
X79121000Y-48153000D01*
X79121000Y-48133000D01*
X77927845Y-48133000D01*
X77806524Y-48362890D01*
X77851175Y-48510099D01*
X77976359Y-48772920D01*
X78150412Y-49006269D01*
X78366645Y-49201178D01*
X78483534Y-49270805D01*
X78301368Y-49392525D01*
X78094525Y-49599368D01*
X77932010Y-49842589D01*
X77820068Y-50112842D01*
X77763000Y-50399740D01*
X77763000Y-50692260D01*
X77820068Y-50979158D01*
X77932010Y-51249411D01*
X78094525Y-51492632D01*
X78301368Y-51699475D01*
X78475760Y-51816000D01*
X78301368Y-51932525D01*
X78094525Y-52139368D01*
X77932010Y-52382589D01*
X77820068Y-52652842D01*
X77763000Y-52939740D01*
X77763000Y-53232260D01*
X77820068Y-53519158D01*
X77932010Y-53789411D01*
X78094525Y-54032632D01*
X78226380Y-54164487D01*
X78153820Y-54186498D01*
X78043506Y-54245463D01*
X77946815Y-54324815D01*
X77867463Y-54421506D01*
X77808498Y-54531820D01*
X77772188Y-54651518D01*
X77759928Y-54776000D01*
X77355700Y-54776000D01*
X77355700Y-47649110D01*
X77806524Y-47649110D01*
X77927845Y-47879000D01*
X79121000Y-47879000D01*
X79121000Y-46685186D01*
X79375000Y-46685186D01*
X79375000Y-47879000D01*
X80568155Y-47879000D01*
X80689476Y-47649110D01*
X80644825Y-47501901D01*
X80519641Y-47239080D01*
X80345588Y-47005731D01*
X80129355Y-46810822D01*
X79879252Y-46661843D01*
X79604891Y-46564519D01*
X79375000Y-46685186D01*
X79121000Y-46685186D01*
X78891109Y-46564519D01*
X78616748Y-46661843D01*
X78366645Y-46810822D01*
X78150412Y-47005731D01*
X77976359Y-47239080D01*
X77851175Y-47501901D01*
X77806524Y-47649110D01*
X77355700Y-47649110D01*
X77355700Y-45331413D01*
X98632192Y-45331413D01*
X98727956Y-45595814D01*
X99017571Y-45736704D01*
X99329108Y-45818384D01*
X99650595Y-45837718D01*
X99969675Y-45793961D01*
X100274088Y-45688795D01*
X100448044Y-45595814D01*
X100543808Y-45331413D01*
X99588000Y-44375605D01*
X98632192Y-45331413D01*
X77355700Y-45331413D01*
X77355700Y-41816881D01*
X77996724Y-41816881D01*
X78356912Y-42306548D01*
X79020882Y-42666849D01*
X79742385Y-42890694D01*
X80493695Y-42969480D01*
X81245938Y-42900178D01*
X81970208Y-42685452D01*
X82638670Y-42333555D01*
X82679088Y-42306548D01*
X83039276Y-41816881D01*
X80518000Y-39295605D01*
X77996724Y-41816881D01*
X77355700Y-41816881D01*
X77355700Y-41297867D01*
X77817119Y-41637276D01*
X80338395Y-39116000D01*
X80697605Y-39116000D01*
X83218881Y-41637276D01*
X83356567Y-41535997D01*
X87894928Y-41535997D01*
X87894928Y-42161003D01*
X87911992Y-42334257D01*
X87962528Y-42500852D01*
X88044595Y-42654388D01*
X88155037Y-42788963D01*
X88289612Y-42899405D01*
X88339369Y-42926001D01*
X88289614Y-42952595D01*
X88155038Y-43063038D01*
X88044595Y-43197614D01*
X87962528Y-43351150D01*
X87911992Y-43517746D01*
X87894928Y-43691000D01*
X87894928Y-44441000D01*
X87911992Y-44614254D01*
X87962528Y-44780850D01*
X88044595Y-44934386D01*
X88155038Y-45068962D01*
X88289614Y-45179405D01*
X88443150Y-45261472D01*
X88609746Y-45312008D01*
X88783000Y-45329072D01*
X90033000Y-45329072D01*
X90206254Y-45312008D01*
X90372850Y-45261472D01*
X90526386Y-45179405D01*
X90660962Y-45068962D01*
X90771405Y-44934386D01*
X90853472Y-44780850D01*
X90904008Y-44614254D01*
X90921072Y-44441000D01*
X90921072Y-43691000D01*
X90904008Y-43517746D01*
X90853472Y-43351150D01*
X90771405Y-43197614D01*
X90660962Y-43063038D01*
X90526386Y-42952595D01*
X90476631Y-42926001D01*
X90526388Y-42899405D01*
X90660963Y-42788963D01*
X90771405Y-42654388D01*
X90853472Y-42500852D01*
X90904008Y-42334257D01*
X90921072Y-42161003D01*
X90921072Y-41535997D01*
X91704928Y-41535997D01*
X91704928Y-42161003D01*
X91721992Y-42334257D01*
X91772528Y-42500852D01*
X91854595Y-42654388D01*
X91965037Y-42788963D01*
X92099612Y-42899405D01*
X92149369Y-42926001D01*
X92099614Y-42952595D01*
X91965038Y-43063038D01*
X91854595Y-43197614D01*
X91772528Y-43351150D01*
X91721992Y-43517746D01*
X91704928Y-43691000D01*
X91704928Y-44441000D01*
X91721992Y-44614254D01*
X91772528Y-44780850D01*
X91854595Y-44934386D01*
X91965038Y-45068962D01*
X92099614Y-45179405D01*
X92253150Y-45261472D01*
X92419746Y-45312008D01*
X92593000Y-45329072D01*
X93843000Y-45329072D01*
X94016254Y-45312008D01*
X94182850Y-45261472D01*
X94336386Y-45179405D01*
X94470962Y-45068962D01*
X94581405Y-44934386D01*
X94663472Y-44780850D01*
X94714008Y-44614254D01*
X94731072Y-44441000D01*
X94731072Y-44258595D01*
X97946282Y-44258595D01*
X97990039Y-44577675D01*
X98095205Y-44882088D01*
X98188186Y-45056044D01*
X98452587Y-45151808D01*
X99408395Y-44196000D01*
X99767605Y-44196000D01*
X100723413Y-45151808D01*
X100987814Y-45056044D01*
X101128704Y-44766429D01*
X101210384Y-44454892D01*
X101229718Y-44133405D01*
X101185961Y-43814325D01*
X101080795Y-43509912D01*
X100987814Y-43335956D01*
X100723413Y-43240192D01*
X99767605Y-44196000D01*
X99408395Y-44196000D01*
X98452587Y-43240192D01*
X98188186Y-43335956D01*
X98047296Y-43625571D01*
X97965616Y-43937108D01*
X97946282Y-44258595D01*
X94731072Y-44258595D01*
X94731072Y-43691000D01*
X94714008Y-43517746D01*
X94663472Y-43351150D01*
X94581405Y-43197614D01*
X94470962Y-43063038D01*
X94467976Y-43060587D01*
X98632192Y-43060587D01*
X99588000Y-44016395D01*
X100543808Y-43060587D01*
X100448044Y-42796186D01*
X100158429Y-42655296D01*
X99846892Y-42573616D01*
X99525405Y-42554282D01*
X99206325Y-42598039D01*
X98901912Y-42703205D01*
X98727956Y-42796186D01*
X98632192Y-43060587D01*
X94467976Y-43060587D01*
X94336386Y-42952595D01*
X94286631Y-42926001D01*
X94336388Y-42899405D01*
X94470963Y-42788963D01*
X94581405Y-42654388D01*
X94663472Y-42500852D01*
X94714008Y-42334257D01*
X94731072Y-42161003D01*
X94731072Y-41816881D01*
X111016724Y-41816881D01*
X111376912Y-42306548D01*
X112040882Y-42666849D01*
X112762385Y-42890694D01*
X113513695Y-42969480D01*
X114265938Y-42900178D01*
X114990208Y-42685452D01*
X115658670Y-42333555D01*
X115699088Y-42306548D01*
X116059276Y-41816881D01*
X113538000Y-39295605D01*
X111016724Y-41816881D01*
X94731072Y-41816881D01*
X94731072Y-41535997D01*
X94714008Y-41362743D01*
X94663472Y-41196148D01*
X94581405Y-41042612D01*
X94470963Y-40908037D01*
X94336388Y-40797595D01*
X94182852Y-40715528D01*
X94016257Y-40664992D01*
X93843003Y-40647928D01*
X92592997Y-40647928D01*
X92419743Y-40664992D01*
X92253148Y-40715528D01*
X92099612Y-40797595D01*
X91965037Y-40908037D01*
X91854595Y-41042612D01*
X91772528Y-41196148D01*
X91721992Y-41362743D01*
X91704928Y-41535997D01*
X90921072Y-41535997D01*
X90904008Y-41362743D01*
X90853472Y-41196148D01*
X90771405Y-41042612D01*
X90660963Y-40908037D01*
X90526388Y-40797595D01*
X90372852Y-40715528D01*
X90206257Y-40664992D01*
X90033003Y-40647928D01*
X88782997Y-40647928D01*
X88609743Y-40664992D01*
X88443148Y-40715528D01*
X88289612Y-40797595D01*
X88155037Y-40908037D01*
X88044595Y-41042612D01*
X87962528Y-41196148D01*
X87911992Y-41362743D01*
X87894928Y-41535997D01*
X83356567Y-41535997D01*
X83708548Y-41277088D01*
X84068849Y-40613118D01*
X84292694Y-39891615D01*
X84335228Y-39486000D01*
X87894928Y-39486000D01*
X87907188Y-39610482D01*
X87943498Y-39730180D01*
X88002463Y-39840494D01*
X88081815Y-39937185D01*
X88178506Y-40016537D01*
X88288820Y-40075502D01*
X88408518Y-40111812D01*
X88533000Y-40124072D01*
X89122250Y-40121000D01*
X89281000Y-39962250D01*
X89281000Y-39050500D01*
X89535000Y-39050500D01*
X89535000Y-39962250D01*
X89693750Y-40121000D01*
X90283000Y-40124072D01*
X90407482Y-40111812D01*
X90527180Y-40075502D01*
X90637494Y-40016537D01*
X90734185Y-39937185D01*
X90813537Y-39840494D01*
X90872502Y-39730180D01*
X90908812Y-39610482D01*
X90921072Y-39486000D01*
X91704928Y-39486000D01*
X91717188Y-39610482D01*
X91753498Y-39730180D01*
X91812463Y-39840494D01*
X91891815Y-39937185D01*
X91988506Y-40016537D01*
X92098820Y-40075502D01*
X92218518Y-40111812D01*
X92343000Y-40124072D01*
X92932250Y-40121000D01*
X93091000Y-39962250D01*
X93091000Y-39050500D01*
X93345000Y-39050500D01*
X93345000Y-39962250D01*
X93503750Y-40121000D01*
X94093000Y-40124072D01*
X94217482Y-40111812D01*
X94337180Y-40075502D01*
X94447494Y-40016537D01*
X94544185Y-39937185D01*
X94623537Y-39840494D01*
X94682502Y-39730180D01*
X94718812Y-39610482D01*
X94731072Y-39486000D01*
X94728000Y-39209250D01*
X94610445Y-39091695D01*
X109684520Y-39091695D01*
X109753822Y-39843938D01*
X109968548Y-40568208D01*
X110320445Y-41236670D01*
X110347452Y-41277088D01*
X110837119Y-41637276D01*
X113358395Y-39116000D01*
X110837119Y-36594724D01*
X110347452Y-36954912D01*
X109987151Y-37618882D01*
X109763306Y-38340385D01*
X109684520Y-39091695D01*
X94610445Y-39091695D01*
X94569250Y-39050500D01*
X93345000Y-39050500D01*
X93091000Y-39050500D01*
X91866750Y-39050500D01*
X91708000Y-39209250D01*
X91704928Y-39486000D01*
X90921072Y-39486000D01*
X90918000Y-39209250D01*
X90759250Y-39050500D01*
X89535000Y-39050500D01*
X89281000Y-39050500D01*
X88056750Y-39050500D01*
X87898000Y-39209250D01*
X87894928Y-39486000D01*
X84335228Y-39486000D01*
X84371480Y-39140305D01*
X84302178Y-38388062D01*
X84294155Y-38361000D01*
X87894928Y-38361000D01*
X87898000Y-38637750D01*
X88056750Y-38796500D01*
X89281000Y-38796500D01*
X89281000Y-37884750D01*
X89535000Y-37884750D01*
X89535000Y-38796500D01*
X90759250Y-38796500D01*
X90918000Y-38637750D01*
X90921072Y-38361000D01*
X91704928Y-38361000D01*
X91708000Y-38637750D01*
X91866750Y-38796500D01*
X93091000Y-38796500D01*
X93091000Y-37884750D01*
X93345000Y-37884750D01*
X93345000Y-38796500D01*
X94569250Y-38796500D01*
X94728000Y-38637750D01*
X94731072Y-38361000D01*
X94718812Y-38236518D01*
X94682502Y-38116820D01*
X94623537Y-38006506D01*
X94544185Y-37909815D01*
X94447494Y-37830463D01*
X94337180Y-37771498D01*
X94217482Y-37735188D01*
X94093000Y-37722928D01*
X93503750Y-37726000D01*
X93345000Y-37884750D01*
X93091000Y-37884750D01*
X92932250Y-37726000D01*
X92343000Y-37722928D01*
X92218518Y-37735188D01*
X92098820Y-37771498D01*
X91988506Y-37830463D01*
X91891815Y-37909815D01*
X91812463Y-38006506D01*
X91753498Y-38116820D01*
X91717188Y-38236518D01*
X91704928Y-38361000D01*
X90921072Y-38361000D01*
X90908812Y-38236518D01*
X90872502Y-38116820D01*
X90813537Y-38006506D01*
X90734185Y-37909815D01*
X90637494Y-37830463D01*
X90527180Y-37771498D01*
X90407482Y-37735188D01*
X90283000Y-37722928D01*
X89693750Y-37726000D01*
X89535000Y-37884750D01*
X89281000Y-37884750D01*
X89122250Y-37726000D01*
X88533000Y-37722928D01*
X88408518Y-37735188D01*
X88288820Y-37771498D01*
X88178506Y-37830463D01*
X88081815Y-37909815D01*
X88002463Y-38006506D01*
X87943498Y-38116820D01*
X87907188Y-38236518D01*
X87894928Y-38361000D01*
X84294155Y-38361000D01*
X84087452Y-37663792D01*
X83735555Y-36995330D01*
X83708548Y-36954912D01*
X83218881Y-36594724D01*
X80697605Y-39116000D01*
X80338395Y-39116000D01*
X80324253Y-39101858D01*
X80503858Y-38922253D01*
X80518000Y-38936395D01*
X83039276Y-36415119D01*
X82699867Y-35953700D01*
X111356133Y-35953700D01*
X111016724Y-36415119D01*
%TA.AperFunction,Conductor*%
D25*
G36*
X111016724Y-36415119D02*
G01*
X113538000Y-38936395D01*
X113552143Y-38922253D01*
X113731748Y-39101858D01*
X113717605Y-39116000D01*
X116238881Y-41637276D01*
X116700300Y-41297866D01*
X116700301Y-53054182D01*
X116700300Y-53054192D01*
X116700301Y-55594182D01*
X116700300Y-55594192D01*
X116700301Y-116554182D01*
X116700300Y-116554192D01*
X116700301Y-119484134D01*
X116238881Y-119144724D01*
X113717605Y-121666000D01*
X113731748Y-121680143D01*
X113552143Y-121859748D01*
X113538000Y-121845605D01*
X111016724Y-124366881D01*
X111356133Y-124828300D01*
X82699867Y-124828300D01*
X83039276Y-124366881D01*
X80518000Y-121845605D01*
X80503858Y-121859748D01*
X80324253Y-121680143D01*
X80338395Y-121666000D01*
X80697605Y-121666000D01*
X83218881Y-124187276D01*
X83708548Y-123827088D01*
X84068849Y-123163118D01*
X84292694Y-122441615D01*
X84371480Y-121690305D01*
X84367002Y-121641695D01*
X109684520Y-121641695D01*
X109753822Y-122393938D01*
X109968548Y-123118208D01*
X110320445Y-123786670D01*
X110347452Y-123827088D01*
X110837119Y-124187276D01*
X113358395Y-121666000D01*
X110837119Y-119144724D01*
X110347452Y-119504912D01*
X109987151Y-120168882D01*
X109763306Y-120890385D01*
X109684520Y-121641695D01*
X84367002Y-121641695D01*
X84302178Y-120938062D01*
X84087452Y-120213792D01*
X83735555Y-119545330D01*
X83708548Y-119504912D01*
X83218881Y-119144724D01*
X80697605Y-121666000D01*
X80338395Y-121666000D01*
X77817119Y-119144724D01*
X77355700Y-119484133D01*
X77355700Y-118965119D01*
X77996724Y-118965119D01*
X80518000Y-121486395D01*
X83039276Y-118965119D01*
X82679088Y-118475452D01*
X82015118Y-118115151D01*
X81293615Y-117891306D01*
X80542305Y-117812520D01*
X79790062Y-117881822D01*
X79065792Y-118096548D01*
X78397330Y-118448445D01*
X78356912Y-118475452D01*
X77996724Y-118965119D01*
X77355700Y-118965119D01*
X77355700Y-117669968D01*
X96663000Y-117669968D01*
X96663000Y-117992034D01*
X96725832Y-118307913D01*
X96849082Y-118605464D01*
X97028013Y-118873253D01*
X97255748Y-119100988D01*
X97523537Y-119279919D01*
X97821088Y-119403169D01*
X98136967Y-119466001D01*
X98459033Y-119466001D01*
X98774912Y-119403169D01*
X99072463Y-119279919D01*
X99340252Y-119100988D01*
X99567987Y-118873253D01*
X99746918Y-118605464D01*
X99870168Y-118307913D01*
X99933000Y-117992034D01*
X99933000Y-117669968D01*
X99870168Y-117354089D01*
X99746918Y-117056538D01*
X99567987Y-116788749D01*
X99340252Y-116561014D01*
X99072463Y-116382083D01*
X98774912Y-116258833D01*
X98459033Y-116196001D01*
X98136967Y-116196001D01*
X97821088Y-116258833D01*
X97523537Y-116382083D01*
X97255748Y-116561014D01*
X97028013Y-116788749D01*
X96849082Y-117056538D01*
X96725832Y-117354089D01*
X96663000Y-117669968D01*
X77355700Y-117669968D01*
X77355700Y-108795997D01*
X78369928Y-108795997D01*
X78369928Y-109421003D01*
X78386992Y-109594257D01*
X78437528Y-109760852D01*
X78519595Y-109914388D01*
X78630037Y-110048963D01*
X78764612Y-110159405D01*
X78918148Y-110241472D01*
X78994001Y-110264482D01*
X78994000Y-112097340D01*
X78989700Y-112141000D01*
X78994000Y-112184660D01*
X78994000Y-112184666D01*
X79005057Y-112296926D01*
X79006864Y-112315274D01*
X79016708Y-112347724D01*
X79057697Y-112482850D01*
X79140247Y-112637290D01*
X79251341Y-112772659D01*
X79285265Y-112800500D01*
X79604497Y-113119731D01*
X79632341Y-113153659D01*
X79767709Y-113264753D01*
X79922149Y-113347303D01*
X79988058Y-113367296D01*
X80089724Y-113398136D01*
X80122924Y-113401406D01*
X80220333Y-113411000D01*
X80220339Y-113411000D01*
X80263999Y-113415300D01*
X80307659Y-113411000D01*
X81255532Y-113411000D01*
X81297744Y-113439205D01*
X81486102Y-113517226D01*
X81686061Y-113557000D01*
X81889939Y-113557000D01*
X82089898Y-113517226D01*
X82278256Y-113439205D01*
X82320468Y-113411000D01*
X83268340Y-113411000D01*
X83312000Y-113415300D01*
X83355660Y-113411000D01*
X83355667Y-113411000D01*
X83486274Y-113398136D01*
X83653851Y-113347303D01*
X83698545Y-113323413D01*
X94929192Y-113323413D01*
X95024956Y-113587814D01*
X95314571Y-113728704D01*
X95626108Y-113810384D01*
X95947595Y-113829718D01*
X96266675Y-113785961D01*
X96571088Y-113680795D01*
X96745044Y-113587814D01*
X96840808Y-113323413D01*
X95885000Y-112367605D01*
X94929192Y-113323413D01*
X83698545Y-113323413D01*
X83808291Y-113264753D01*
X83943659Y-113153659D01*
X83971499Y-113119736D01*
X84840640Y-112250595D01*
X94243282Y-112250595D01*
X94287039Y-112569675D01*
X94392205Y-112874088D01*
X94485186Y-113048044D01*
X94749587Y-113143808D01*
X95705395Y-112188000D01*
X96064605Y-112188000D01*
X97020413Y-113143808D01*
X97284814Y-113048044D01*
X97425704Y-112758429D01*
X97454394Y-112649000D01*
X100927926Y-112649000D01*
X100939600Y-112767530D01*
X100939601Y-117712061D01*
X100927926Y-117830600D01*
X100974515Y-118303631D01*
X101112493Y-118758483D01*
X101336556Y-119177677D01*
X101562531Y-119453028D01*
X101562537Y-119453034D01*
X101638097Y-119545104D01*
X101730167Y-119620664D01*
X101755572Y-119646069D01*
X102030923Y-119872044D01*
X102450117Y-120096107D01*
X102904969Y-120234085D01*
X103377999Y-120280674D01*
X103851031Y-120234085D01*
X104305883Y-120096107D01*
X104725077Y-119872044D01*
X105092504Y-119570504D01*
X105394044Y-119203077D01*
X105521234Y-118965119D01*
X111016724Y-118965119D01*
X113538000Y-121486395D01*
X116059276Y-118965119D01*
X115699088Y-118475452D01*
X115035118Y-118115151D01*
X114313615Y-117891306D01*
X113562305Y-117812520D01*
X112810062Y-117881822D01*
X112085792Y-118096548D01*
X111417330Y-118448445D01*
X111376912Y-118475452D01*
X111016724Y-118965119D01*
X105521234Y-118965119D01*
X105618107Y-118783883D01*
X105756085Y-118329031D01*
X105802674Y-117855999D01*
X105765600Y-117479577D01*
X105765600Y-115023000D01*
X109540334Y-115023000D01*
X109950823Y-115433489D01*
X110546182Y-115831295D01*
X111207710Y-116105309D01*
X111909984Y-116245000D01*
X112626016Y-116245000D01*
X113328290Y-116105309D01*
X113989818Y-115831295D01*
X114585177Y-115433489D01*
X115091489Y-114927177D01*
X115489295Y-114331818D01*
X115763309Y-113670290D01*
X115903000Y-112968016D01*
X115903000Y-112251984D01*
X115763309Y-111549710D01*
X115489295Y-110888182D01*
X115091489Y-110292823D01*
X114585177Y-109786511D01*
X113989818Y-109388705D01*
X113328290Y-109114691D01*
X112980357Y-109045483D01*
X115268000Y-109048072D01*
X115392482Y-109035812D01*
X115512180Y-108999502D01*
X115622494Y-108940537D01*
X115719185Y-108861185D01*
X115798537Y-108764494D01*
X115857502Y-108654180D01*
X115893812Y-108534482D01*
X115906072Y-108410000D01*
X115903000Y-105695750D01*
X115744250Y-105537000D01*
X112395000Y-105537000D01*
X112395000Y-105557000D01*
X112141000Y-105557000D01*
X112141000Y-105537000D01*
X108791750Y-105537000D01*
X108633000Y-105695750D01*
X108629928Y-108410000D01*
X108642188Y-108534482D01*
X108678498Y-108654180D01*
X108737463Y-108764494D01*
X108816815Y-108861185D01*
X108913506Y-108940537D01*
X109023820Y-108999502D01*
X109143518Y-109035812D01*
X109268000Y-109048072D01*
X111555643Y-109045483D01*
X111207710Y-109114691D01*
X110546182Y-109388705D01*
X109950823Y-109786511D01*
X109540334Y-110197000D01*
X103510128Y-110197000D01*
X103391599Y-110185326D01*
X103273070Y-110197000D01*
X103273060Y-110197000D01*
X102918569Y-110231914D01*
X102463717Y-110369892D01*
X102044523Y-110593956D01*
X101677096Y-110895496D01*
X101659517Y-110916917D01*
X101638096Y-110934496D01*
X101562533Y-111026570D01*
X101562531Y-111026572D01*
X101336556Y-111301923D01*
X101240568Y-111481505D01*
X101112492Y-111721118D01*
X100974514Y-112175970D01*
X100939600Y-112530461D01*
X100939600Y-112530471D01*
X100927926Y-112649000D01*
X97454394Y-112649000D01*
X97507384Y-112446892D01*
X97526718Y-112125405D01*
X97482961Y-111806325D01*
X97377795Y-111501912D01*
X97284814Y-111327956D01*
X97020413Y-111232192D01*
X96064605Y-112188000D01*
X95705395Y-112188000D01*
X94749587Y-111232192D01*
X94485186Y-111327956D01*
X94344296Y-111617571D01*
X94262616Y-111929108D01*
X94243282Y-112250595D01*
X84840640Y-112250595D01*
X84925743Y-112165493D01*
X84959659Y-112137659D01*
X85070753Y-112002291D01*
X85153303Y-111847851D01*
X85204136Y-111680274D01*
X85217000Y-111549667D01*
X85217000Y-111549660D01*
X85221300Y-111506000D01*
X85217000Y-111462340D01*
X85217000Y-111052587D01*
X94929192Y-111052587D01*
X95885000Y-112008395D01*
X96840808Y-111052587D01*
X96745044Y-110788186D01*
X96455429Y-110647296D01*
X96143892Y-110565616D01*
X95822405Y-110546282D01*
X95503325Y-110590039D01*
X95198912Y-110695205D01*
X95024956Y-110788186D01*
X94929192Y-111052587D01*
X85217000Y-111052587D01*
X85217000Y-110310231D01*
X85302482Y-110301812D01*
X85422180Y-110265502D01*
X85532494Y-110206537D01*
X85629185Y-110127185D01*
X85708537Y-110030494D01*
X85767502Y-109920180D01*
X85803812Y-109800482D01*
X85816072Y-109676000D01*
X85816072Y-107176000D01*
X85803812Y-107051518D01*
X85767502Y-106931820D01*
X85708537Y-106821506D01*
X85629185Y-106724815D01*
X85532494Y-106645463D01*
X85422180Y-106586498D01*
X85302482Y-106550188D01*
X85178000Y-106537928D01*
X83478000Y-106537928D01*
X83353518Y-106550188D01*
X83233820Y-106586498D01*
X83123506Y-106645463D01*
X83026815Y-106724815D01*
X82947463Y-106821506D01*
X82888498Y-106931820D01*
X82852188Y-107051518D01*
X82839928Y-107176000D01*
X82839928Y-109676000D01*
X82852188Y-109800482D01*
X82888498Y-109920180D01*
X82947463Y-110030494D01*
X83026815Y-110127185D01*
X83123506Y-110206537D01*
X83233820Y-110265502D01*
X83353518Y-110301812D01*
X83439000Y-110310231D01*
X83439000Y-111137764D01*
X82943765Y-111633000D01*
X82320468Y-111633000D01*
X82278256Y-111604795D01*
X82089898Y-111526774D01*
X81889939Y-111487000D01*
X81686061Y-111487000D01*
X81486102Y-111526774D01*
X81297744Y-111604795D01*
X81255532Y-111633000D01*
X80772000Y-111633000D01*
X80772000Y-110264481D01*
X80847852Y-110241472D01*
X81001388Y-110159405D01*
X81135963Y-110048963D01*
X81246405Y-109914388D01*
X81328472Y-109760852D01*
X81379008Y-109594257D01*
X81396072Y-109421003D01*
X81396072Y-108795997D01*
X81379008Y-108622743D01*
X81328472Y-108456148D01*
X81246405Y-108302612D01*
X81135963Y-108168037D01*
X81001388Y-108057595D01*
X80847852Y-107975528D01*
X80681257Y-107924992D01*
X80508003Y-107907928D01*
X79257997Y-107907928D01*
X79084743Y-107924992D01*
X78918148Y-107975528D01*
X78764612Y-108057595D01*
X78630037Y-108168037D01*
X78519595Y-108302612D01*
X78437528Y-108456148D01*
X78386992Y-108622743D01*
X78369928Y-108795997D01*
X77355700Y-108795997D01*
X77355700Y-102371000D01*
X78369928Y-102371000D01*
X78369928Y-103121000D01*
X78386992Y-103294254D01*
X78437528Y-103460850D01*
X78519595Y-103614386D01*
X78630038Y-103748962D01*
X78764614Y-103859405D01*
X78918150Y-103941472D01*
X78994001Y-103964481D01*
X78994000Y-105027518D01*
X78918148Y-105050528D01*
X78764612Y-105132595D01*
X78630037Y-105243037D01*
X78519595Y-105377612D01*
X78437528Y-105531148D01*
X78386992Y-105697743D01*
X78369928Y-105870997D01*
X78369928Y-106496003D01*
X78386992Y-106669257D01*
X78437528Y-106835852D01*
X78519595Y-106989388D01*
X78630037Y-107123963D01*
X78764612Y-107234405D01*
X78918148Y-107316472D01*
X79084743Y-107367008D01*
X79257997Y-107384072D01*
X80508003Y-107384072D01*
X80681257Y-107367008D01*
X80847852Y-107316472D01*
X81001388Y-107234405D01*
X81135963Y-107123963D01*
X81246405Y-106989388D01*
X81328472Y-106835852D01*
X81379008Y-106669257D01*
X81396072Y-106496003D01*
X81396072Y-105870997D01*
X81379008Y-105697743D01*
X81372413Y-105676000D01*
X82839928Y-105676000D01*
X82852188Y-105800482D01*
X82888498Y-105920180D01*
X82947463Y-106030494D01*
X83026815Y-106127185D01*
X83123506Y-106206537D01*
X83233820Y-106265502D01*
X83353518Y-106301812D01*
X83478000Y-106314072D01*
X84042250Y-106311000D01*
X84201000Y-106152250D01*
X84201000Y-104553000D01*
X84455000Y-104553000D01*
X84455000Y-106152250D01*
X84613750Y-106311000D01*
X85178000Y-106314072D01*
X85302482Y-106301812D01*
X85422180Y-106265502D01*
X85532494Y-106206537D01*
X85555081Y-106188000D01*
X94246928Y-106188000D01*
X94246928Y-108188000D01*
X94259188Y-108312482D01*
X94295498Y-108432180D01*
X94354463Y-108542494D01*
X94433815Y-108639185D01*
X94530506Y-108718537D01*
X94640820Y-108777502D01*
X94760518Y-108813812D01*
X94885000Y-108826072D01*
X96885000Y-108826072D01*
X97009482Y-108813812D01*
X97129180Y-108777502D01*
X97239494Y-108718537D01*
X97336185Y-108639185D01*
X97415537Y-108542494D01*
X97474502Y-108432180D01*
X97510812Y-108312482D01*
X97523072Y-108188000D01*
X97523072Y-106569000D01*
X101714528Y-106569000D01*
X101714528Y-108569000D01*
X101726788Y-108693482D01*
X101763098Y-108813180D01*
X101822063Y-108923494D01*
X101901415Y-109020185D01*
X101998106Y-109099537D01*
X102108420Y-109158502D01*
X102228118Y-109194812D01*
X102352600Y-109207072D01*
X104352600Y-109207072D01*
X104477082Y-109194812D01*
X104596780Y-109158502D01*
X104707094Y-109099537D01*
X104803785Y-109020185D01*
X104883137Y-108923494D01*
X104942102Y-108813180D01*
X104978412Y-108693482D01*
X104990672Y-108569000D01*
X104990672Y-106569000D01*
X104978412Y-106444518D01*
X104942102Y-106324820D01*
X104883137Y-106214506D01*
X104803785Y-106117815D01*
X104707094Y-106038463D01*
X104596780Y-105979498D01*
X104477082Y-105943188D01*
X104352600Y-105930928D01*
X102352600Y-105930928D01*
X102228118Y-105943188D01*
X102108420Y-105979498D01*
X101998106Y-106038463D01*
X101901415Y-106117815D01*
X101822063Y-106214506D01*
X101763098Y-106324820D01*
X101726788Y-106444518D01*
X101714528Y-106569000D01*
X97523072Y-106569000D01*
X97523072Y-106188000D01*
X97510812Y-106063518D01*
X97474502Y-105943820D01*
X97415537Y-105833506D01*
X97336185Y-105736815D01*
X97239494Y-105657463D01*
X97129180Y-105598498D01*
X97009482Y-105562188D01*
X96885000Y-105549928D01*
X94885000Y-105549928D01*
X94760518Y-105562188D01*
X94640820Y-105598498D01*
X94530506Y-105657463D01*
X94433815Y-105736815D01*
X94354463Y-105833506D01*
X94295498Y-105943820D01*
X94259188Y-106063518D01*
X94246928Y-106188000D01*
X85555081Y-106188000D01*
X85629185Y-106127185D01*
X85708537Y-106030494D01*
X85767502Y-105920180D01*
X85803812Y-105800482D01*
X85816072Y-105676000D01*
X85813000Y-104711750D01*
X85654250Y-104553000D01*
X84455000Y-104553000D01*
X84201000Y-104553000D01*
X83001750Y-104553000D01*
X82843000Y-104711750D01*
X82839928Y-105676000D01*
X81372413Y-105676000D01*
X81328472Y-105531148D01*
X81246405Y-105377612D01*
X81135963Y-105243037D01*
X81001388Y-105132595D01*
X80847852Y-105050528D01*
X80772000Y-105027519D01*
X80772000Y-103964481D01*
X80847850Y-103941472D01*
X81001386Y-103859405D01*
X81135962Y-103748962D01*
X81246405Y-103614386D01*
X81328472Y-103460850D01*
X81379008Y-103294254D01*
X81390654Y-103176000D01*
X82839928Y-103176000D01*
X82843000Y-104140250D01*
X83001750Y-104299000D01*
X84201000Y-104299000D01*
X84201000Y-102699750D01*
X84455000Y-102699750D01*
X84455000Y-104299000D01*
X85654250Y-104299000D01*
X85813000Y-104140250D01*
X85816072Y-103176000D01*
X85803812Y-103051518D01*
X85767502Y-102931820D01*
X85708537Y-102821506D01*
X85629185Y-102724815D01*
X85532494Y-102645463D01*
X85422180Y-102586498D01*
X85302482Y-102550188D01*
X85178000Y-102537928D01*
X84613750Y-102541000D01*
X84455000Y-102699750D01*
X84201000Y-102699750D01*
X84042250Y-102541000D01*
X83478000Y-102537928D01*
X83353518Y-102550188D01*
X83233820Y-102586498D01*
X83123506Y-102645463D01*
X83026815Y-102724815D01*
X82947463Y-102821506D01*
X82888498Y-102931820D01*
X82852188Y-103051518D01*
X82839928Y-103176000D01*
X81390654Y-103176000D01*
X81396072Y-103121000D01*
X81396072Y-102410000D01*
X108629928Y-102410000D01*
X108633000Y-105124250D01*
X108791750Y-105283000D01*
X112141000Y-105283000D01*
X112141000Y-101933750D01*
X112395000Y-101933750D01*
X112395000Y-105283000D01*
X115744250Y-105283000D01*
X115903000Y-105124250D01*
X115906072Y-102410000D01*
X115893812Y-102285518D01*
X115857502Y-102165820D01*
X115798537Y-102055506D01*
X115719185Y-101958815D01*
X115622494Y-101879463D01*
X115512180Y-101820498D01*
X115392482Y-101784188D01*
X115268000Y-101771928D01*
X112553750Y-101775000D01*
X112395000Y-101933750D01*
X112141000Y-101933750D01*
X111982250Y-101775000D01*
X109268000Y-101771928D01*
X109143518Y-101784188D01*
X109023820Y-101820498D01*
X108913506Y-101879463D01*
X108816815Y-101958815D01*
X108737463Y-102055506D01*
X108678498Y-102165820D01*
X108642188Y-102285518D01*
X108629928Y-102410000D01*
X81396072Y-102410000D01*
X81396072Y-102371000D01*
X81379008Y-102197746D01*
X81328472Y-102031150D01*
X81246405Y-101877614D01*
X81135962Y-101743038D01*
X81001386Y-101632595D01*
X80847850Y-101550528D01*
X80681254Y-101499992D01*
X80508000Y-101482928D01*
X79258000Y-101482928D01*
X79084746Y-101499992D01*
X78918150Y-101550528D01*
X78764614Y-101632595D01*
X78630038Y-101743038D01*
X78519595Y-101877614D01*
X78437528Y-102031150D01*
X78386992Y-102197746D01*
X78369928Y-102371000D01*
X77355700Y-102371000D01*
X77355700Y-100571000D01*
X78369928Y-100571000D01*
X78382188Y-100695482D01*
X78418498Y-100815180D01*
X78477463Y-100925494D01*
X78556815Y-101022185D01*
X78653506Y-101101537D01*
X78763820Y-101160502D01*
X78883518Y-101196812D01*
X79008000Y-101209072D01*
X79597250Y-101206000D01*
X79756000Y-101047250D01*
X79756000Y-100073000D01*
X80010000Y-100073000D01*
X80010000Y-101047250D01*
X80168750Y-101206000D01*
X80758000Y-101209072D01*
X80882482Y-101196812D01*
X81002180Y-101160502D01*
X81112494Y-101101537D01*
X81209185Y-101022185D01*
X81288537Y-100925494D01*
X81347502Y-100815180D01*
X81383812Y-100695482D01*
X81396072Y-100571000D01*
X81393000Y-100231750D01*
X81234250Y-100073000D01*
X80010000Y-100073000D01*
X79756000Y-100073000D01*
X78531750Y-100073000D01*
X78373000Y-100231750D01*
X78369928Y-100571000D01*
X77355700Y-100571000D01*
X77355700Y-99321000D01*
X78369928Y-99321000D01*
X78373000Y-99660250D01*
X78531750Y-99819000D01*
X79756000Y-99819000D01*
X79756000Y-98844750D01*
X80010000Y-98844750D01*
X80010000Y-99819000D01*
X81234250Y-99819000D01*
X81393000Y-99660250D01*
X81396072Y-99321000D01*
X81383812Y-99196518D01*
X81347502Y-99076820D01*
X81288537Y-98966506D01*
X81209185Y-98869815D01*
X81112494Y-98790463D01*
X81002180Y-98731498D01*
X80882482Y-98695188D01*
X80758000Y-98682928D01*
X80168750Y-98686000D01*
X80010000Y-98844750D01*
X79756000Y-98844750D01*
X79597250Y-98686000D01*
X79008000Y-98682928D01*
X78883518Y-98695188D01*
X78763820Y-98731498D01*
X78653506Y-98790463D01*
X78556815Y-98869815D01*
X78477463Y-98966506D01*
X78418498Y-99076820D01*
X78382188Y-99196518D01*
X78369928Y-99321000D01*
X77355700Y-99321000D01*
X77355700Y-88289110D01*
X77806524Y-88289110D01*
X77927845Y-88519000D01*
X79121000Y-88519000D01*
X79121000Y-87325186D01*
X79375000Y-87325186D01*
X79375000Y-88519000D01*
X80568155Y-88519000D01*
X80689476Y-88289110D01*
X80644825Y-88141901D01*
X80519641Y-87879080D01*
X80345588Y-87645731D01*
X80129355Y-87450822D01*
X79879252Y-87301843D01*
X79604891Y-87204519D01*
X79375000Y-87325186D01*
X79121000Y-87325186D01*
X78891109Y-87204519D01*
X78616748Y-87301843D01*
X78366645Y-87450822D01*
X78150412Y-87645731D01*
X77976359Y-87879080D01*
X77851175Y-88141901D01*
X77806524Y-88289110D01*
X77355700Y-88289110D01*
X77355700Y-67969110D01*
X77806524Y-67969110D01*
X77927845Y-68199000D01*
X79121000Y-68199000D01*
X79121000Y-67005186D01*
X79375000Y-67005186D01*
X79375000Y-68199000D01*
X80568155Y-68199000D01*
X80689476Y-67969110D01*
X80644825Y-67821901D01*
X80519641Y-67559080D01*
X80345588Y-67325731D01*
X80129355Y-67130822D01*
X79879252Y-66981843D01*
X79604891Y-66884519D01*
X79375000Y-67005186D01*
X79121000Y-67005186D01*
X78891109Y-66884519D01*
X78616748Y-66981843D01*
X78366645Y-67130822D01*
X78150412Y-67325731D01*
X77976359Y-67559080D01*
X77851175Y-67821901D01*
X77806524Y-67969110D01*
X77355700Y-67969110D01*
X77355700Y-54776000D01*
X77759928Y-54776000D01*
X77759928Y-56476000D01*
X77772188Y-56600482D01*
X77808498Y-56720180D01*
X77867463Y-56830494D01*
X77946815Y-56927185D01*
X78043506Y-57006537D01*
X78153820Y-57065502D01*
X78273518Y-57101812D01*
X78398000Y-57114072D01*
X80098000Y-57114072D01*
X80222482Y-57101812D01*
X80342180Y-57065502D01*
X80452494Y-57006537D01*
X80549185Y-56927185D01*
X80628537Y-56830494D01*
X80687502Y-56720180D01*
X80723812Y-56600482D01*
X80736072Y-56476000D01*
X80736072Y-55831308D01*
X80899001Y-55994237D01*
X80899000Y-70497764D01*
X80723713Y-70673051D01*
X80675932Y-70432842D01*
X80563990Y-70162589D01*
X80401475Y-69919368D01*
X80194632Y-69712525D01*
X80012466Y-69590805D01*
X80129355Y-69521178D01*
X80345588Y-69326269D01*
X80519641Y-69092920D01*
X80644825Y-68830099D01*
X80689476Y-68682890D01*
X80568155Y-68453000D01*
X79375000Y-68453000D01*
X79375000Y-68473000D01*
X79121000Y-68473000D01*
X79121000Y-68453000D01*
X77927845Y-68453000D01*
X77806524Y-68682890D01*
X77851175Y-68830099D01*
X77976359Y-69092920D01*
X78150412Y-69326269D01*
X78366645Y-69521178D01*
X78483534Y-69590805D01*
X78301368Y-69712525D01*
X78094525Y-69919368D01*
X77932010Y-70162589D01*
X77820068Y-70432842D01*
X77763000Y-70719740D01*
X77763000Y-71012260D01*
X77820068Y-71299158D01*
X77932010Y-71569411D01*
X78094525Y-71812632D01*
X78301368Y-72019475D01*
X78475760Y-72136000D01*
X78301368Y-72252525D01*
X78094525Y-72459368D01*
X77932010Y-72702589D01*
X77820068Y-72972842D01*
X77763000Y-73259740D01*
X77763000Y-73552260D01*
X77820068Y-73839158D01*
X77932010Y-74109411D01*
X78094525Y-74352632D01*
X78226380Y-74484487D01*
X78153820Y-74506498D01*
X78043506Y-74565463D01*
X77946815Y-74644815D01*
X77867463Y-74741506D01*
X77808498Y-74851820D01*
X77772188Y-74971518D01*
X77759928Y-75096000D01*
X77759928Y-76796000D01*
X77772188Y-76920482D01*
X77808498Y-77040180D01*
X77867463Y-77150494D01*
X77946815Y-77247185D01*
X78043506Y-77326537D01*
X78153820Y-77385502D01*
X78273518Y-77421812D01*
X78398000Y-77434072D01*
X80098000Y-77434072D01*
X80222482Y-77421812D01*
X80342180Y-77385502D01*
X80452494Y-77326537D01*
X80549185Y-77247185D01*
X80628537Y-77150494D01*
X80687502Y-77040180D01*
X80723812Y-76920482D01*
X80736072Y-76796000D01*
X80736072Y-76151308D01*
X80899001Y-76314237D01*
X80899000Y-90817764D01*
X80723713Y-90993051D01*
X80675932Y-90752842D01*
X80563990Y-90482589D01*
X80401475Y-90239368D01*
X80194632Y-90032525D01*
X80012466Y-89910805D01*
X80129355Y-89841178D01*
X80345588Y-89646269D01*
X80519641Y-89412920D01*
X80644825Y-89150099D01*
X80689476Y-89002890D01*
X80568155Y-88773000D01*
X79375000Y-88773000D01*
X79375000Y-88793000D01*
X79121000Y-88793000D01*
X79121000Y-88773000D01*
X77927845Y-88773000D01*
X77806524Y-89002890D01*
X77851175Y-89150099D01*
X77976359Y-89412920D01*
X78150412Y-89646269D01*
X78366645Y-89841178D01*
X78483534Y-89910805D01*
X78301368Y-90032525D01*
X78094525Y-90239368D01*
X77932010Y-90482589D01*
X77820068Y-90752842D01*
X77763000Y-91039740D01*
X77763000Y-91332260D01*
X77820068Y-91619158D01*
X77932010Y-91889411D01*
X78094525Y-92132632D01*
X78301368Y-92339475D01*
X78475760Y-92456000D01*
X78301368Y-92572525D01*
X78094525Y-92779368D01*
X77932010Y-93022589D01*
X77820068Y-93292842D01*
X77763000Y-93579740D01*
X77763000Y-93872260D01*
X77820068Y-94159158D01*
X77932010Y-94429411D01*
X78094525Y-94672632D01*
X78226380Y-94804487D01*
X78153820Y-94826498D01*
X78043506Y-94885463D01*
X77946815Y-94964815D01*
X77867463Y-95061506D01*
X77808498Y-95171820D01*
X77772188Y-95291518D01*
X77759928Y-95416000D01*
X77759928Y-97116000D01*
X77772188Y-97240482D01*
X77808498Y-97360180D01*
X77867463Y-97470494D01*
X77946815Y-97567185D01*
X78043506Y-97646537D01*
X78153820Y-97705502D01*
X78273518Y-97741812D01*
X78398000Y-97754072D01*
X80098000Y-97754072D01*
X80222482Y-97741812D01*
X80342180Y-97705502D01*
X80452494Y-97646537D01*
X80549185Y-97567185D01*
X80628537Y-97470494D01*
X80687502Y-97360180D01*
X80723812Y-97240482D01*
X80736072Y-97116000D01*
X80736072Y-96035164D01*
X80886236Y-95885000D01*
X84284333Y-95885000D01*
X84328000Y-95889301D01*
X84371667Y-95885000D01*
X85480673Y-95885000D01*
X85433000Y-96124665D01*
X85433000Y-96407335D01*
X85488147Y-96684574D01*
X85596320Y-96945727D01*
X85753363Y-97180759D01*
X85953241Y-97380637D01*
X86188273Y-97537680D01*
X86449426Y-97645853D01*
X86726665Y-97701000D01*
X87009335Y-97701000D01*
X87286574Y-97645853D01*
X87547727Y-97537680D01*
X87782759Y-97380637D01*
X87982637Y-97180759D01*
X88139680Y-96945727D01*
X88247853Y-96684574D01*
X88303000Y-96407335D01*
X88303000Y-96124665D01*
X88255327Y-95885000D01*
X98254340Y-95885000D01*
X98298000Y-95889300D01*
X98341660Y-95885000D01*
X98341667Y-95885000D01*
X98472274Y-95872136D01*
X98639851Y-95821303D01*
X98794291Y-95738753D01*
X98929659Y-95627659D01*
X98957499Y-95593736D01*
X105754809Y-88796427D01*
X105808147Y-89064574D01*
X105916320Y-89325727D01*
X106073363Y-89560759D01*
X106273241Y-89760637D01*
X106505759Y-89916000D01*
X106273241Y-90071363D01*
X106073363Y-90271241D01*
X105916320Y-90506273D01*
X105808147Y-90767426D01*
X105753000Y-91044665D01*
X105753000Y-91327335D01*
X105808147Y-91604574D01*
X105916320Y-91865727D01*
X106073363Y-92100759D01*
X106273241Y-92300637D01*
X106505759Y-92456000D01*
X106273241Y-92611363D01*
X106073363Y-92811241D01*
X105916320Y-93046273D01*
X105808147Y-93307426D01*
X105753000Y-93584665D01*
X105753000Y-93867335D01*
X105808147Y-94144574D01*
X105916320Y-94405727D01*
X106073363Y-94640759D01*
X106273241Y-94840637D01*
X106505759Y-94996000D01*
X106273241Y-95151363D01*
X106073363Y-95351241D01*
X105916320Y-95586273D01*
X105808147Y-95847426D01*
X105753000Y-96124665D01*
X105753000Y-96407335D01*
X105808147Y-96684574D01*
X105916320Y-96945727D01*
X106073363Y-97180759D01*
X106273241Y-97380637D01*
X106508273Y-97537680D01*
X106769426Y-97645853D01*
X107046665Y-97701000D01*
X107329335Y-97701000D01*
X107606574Y-97645853D01*
X107867727Y-97537680D01*
X108102759Y-97380637D01*
X108302637Y-97180759D01*
X108459680Y-96945727D01*
X108567853Y-96684574D01*
X108580122Y-96622890D01*
X113366524Y-96622890D01*
X113411175Y-96770099D01*
X113536359Y-97032920D01*
X113710412Y-97266269D01*
X113926645Y-97461178D01*
X114176748Y-97610157D01*
X114451109Y-97707481D01*
X114681000Y-97586814D01*
X114681000Y-96393000D01*
X114935000Y-96393000D01*
X114935000Y-97586814D01*
X115164891Y-97707481D01*
X115439252Y-97610157D01*
X115689355Y-97461178D01*
X115905588Y-97266269D01*
X116079641Y-97032920D01*
X116204825Y-96770099D01*
X116249476Y-96622890D01*
X116128155Y-96393000D01*
X114935000Y-96393000D01*
X114681000Y-96393000D01*
X113487845Y-96393000D01*
X113366524Y-96622890D01*
X108580122Y-96622890D01*
X108623000Y-96407335D01*
X108623000Y-96124665D01*
X108567853Y-95847426D01*
X108459680Y-95586273D01*
X108302637Y-95351241D01*
X108102759Y-95151363D01*
X107870241Y-94996000D01*
X108102759Y-94840637D01*
X108302637Y-94640759D01*
X108459680Y-94405727D01*
X108567853Y-94144574D01*
X108623000Y-93867335D01*
X108623000Y-93584665D01*
X108567853Y-93307426D01*
X108459680Y-93046273D01*
X108302637Y-92811241D01*
X108102759Y-92611363D01*
X107870241Y-92456000D01*
X108102759Y-92300637D01*
X108302637Y-92100759D01*
X108319849Y-92075000D01*
X113616017Y-92075000D01*
X113654525Y-92132632D01*
X113861368Y-92339475D01*
X114035760Y-92456000D01*
X113861368Y-92572525D01*
X113654525Y-92779368D01*
X113492010Y-93022589D01*
X113380068Y-93292842D01*
X113323000Y-93579740D01*
X113323000Y-93872260D01*
X113380068Y-94159158D01*
X113492010Y-94429411D01*
X113654525Y-94672632D01*
X113861368Y-94879475D01*
X114043534Y-95001195D01*
X113926645Y-95070822D01*
X113710412Y-95265731D01*
X113536359Y-95499080D01*
X113411175Y-95761901D01*
X113366524Y-95909110D01*
X113487845Y-96139000D01*
X114681000Y-96139000D01*
X114681000Y-96119000D01*
X114935000Y-96119000D01*
X114935000Y-96139000D01*
X116128155Y-96139000D01*
X116249476Y-95909110D01*
X116204825Y-95761901D01*
X116079641Y-95499080D01*
X115905588Y-95265731D01*
X115689355Y-95070822D01*
X115572466Y-95001195D01*
X115754632Y-94879475D01*
X115961475Y-94672632D01*
X116123990Y-94429411D01*
X116235932Y-94159158D01*
X116293000Y-93872260D01*
X116293000Y-93579740D01*
X116235932Y-93292842D01*
X116123990Y-93022589D01*
X115961475Y-92779368D01*
X115754632Y-92572525D01*
X115580240Y-92456000D01*
X115754632Y-92339475D01*
X115961475Y-92132632D01*
X116123990Y-91889411D01*
X116235932Y-91619158D01*
X116293000Y-91332260D01*
X116293000Y-91039740D01*
X116235932Y-90752842D01*
X116123990Y-90482589D01*
X115961475Y-90239368D01*
X115829620Y-90107513D01*
X115902180Y-90085502D01*
X116012494Y-90026537D01*
X116109185Y-89947185D01*
X116188537Y-89850494D01*
X116247502Y-89740180D01*
X116283812Y-89620482D01*
X116296072Y-89496000D01*
X116296072Y-87796000D01*
X116283812Y-87671518D01*
X116247502Y-87551820D01*
X116188537Y-87441506D01*
X116109185Y-87344815D01*
X116012494Y-87265463D01*
X115902180Y-87206498D01*
X115782482Y-87170188D01*
X115658000Y-87157928D01*
X114577164Y-87157928D01*
X113157000Y-85737765D01*
X113157000Y-76302890D01*
X113366524Y-76302890D01*
X113411175Y-76450099D01*
X113536359Y-76712920D01*
X113710412Y-76946269D01*
X113926645Y-77141178D01*
X114176748Y-77290157D01*
X114451109Y-77387481D01*
X114681000Y-77266814D01*
X114681000Y-76073000D01*
X114935000Y-76073000D01*
X114935000Y-77266814D01*
X115164891Y-77387481D01*
X115439252Y-77290157D01*
X115689355Y-77141178D01*
X115905588Y-76946269D01*
X116079641Y-76712920D01*
X116204825Y-76450099D01*
X116249476Y-76302890D01*
X116128155Y-76073000D01*
X114935000Y-76073000D01*
X114681000Y-76073000D01*
X113487845Y-76073000D01*
X113366524Y-76302890D01*
X113157000Y-76302890D01*
X113157000Y-71234235D01*
X113332287Y-71058948D01*
X113380068Y-71299158D01*
X113492010Y-71569411D01*
X113654525Y-71812632D01*
X113861368Y-72019475D01*
X114035760Y-72136000D01*
X113861368Y-72252525D01*
X113654525Y-72459368D01*
X113492010Y-72702589D01*
X113380068Y-72972842D01*
X113323000Y-73259740D01*
X113323000Y-73552260D01*
X113380068Y-73839158D01*
X113492010Y-74109411D01*
X113654525Y-74352632D01*
X113861368Y-74559475D01*
X114043534Y-74681195D01*
X113926645Y-74750822D01*
X113710412Y-74945731D01*
X113536359Y-75179080D01*
X113411175Y-75441901D01*
X113366524Y-75589110D01*
X113487845Y-75819000D01*
X114681000Y-75819000D01*
X114681000Y-75799000D01*
X114935000Y-75799000D01*
X114935000Y-75819000D01*
X116128155Y-75819000D01*
X116249476Y-75589110D01*
X116204825Y-75441901D01*
X116079641Y-75179080D01*
X115905588Y-74945731D01*
X115689355Y-74750822D01*
X115572466Y-74681195D01*
X115754632Y-74559475D01*
X115961475Y-74352632D01*
X116123990Y-74109411D01*
X116235932Y-73839158D01*
X116293000Y-73552260D01*
X116293000Y-73259740D01*
X116235932Y-72972842D01*
X116123990Y-72702589D01*
X115961475Y-72459368D01*
X115754632Y-72252525D01*
X115580240Y-72136000D01*
X115754632Y-72019475D01*
X115961475Y-71812632D01*
X116123990Y-71569411D01*
X116235932Y-71299158D01*
X116293000Y-71012260D01*
X116293000Y-70719740D01*
X116235932Y-70432842D01*
X116123990Y-70162589D01*
X115961475Y-69919368D01*
X115829620Y-69787513D01*
X115902180Y-69765502D01*
X116012494Y-69706537D01*
X116109185Y-69627185D01*
X116188537Y-69530494D01*
X116247502Y-69420180D01*
X116283812Y-69300482D01*
X116296072Y-69176000D01*
X116296072Y-67476000D01*
X116283812Y-67351518D01*
X116247502Y-67231820D01*
X116188537Y-67121506D01*
X116109185Y-67024815D01*
X116012494Y-66945463D01*
X115902180Y-66886498D01*
X115782482Y-66850188D01*
X115658000Y-66837928D01*
X114577164Y-66837928D01*
X113157000Y-65417765D01*
X113157000Y-55982890D01*
X113261525Y-55982890D01*
X113306176Y-56130099D01*
X113431360Y-56392920D01*
X113605413Y-56626269D01*
X113821646Y-56821178D01*
X114071749Y-56970157D01*
X114346110Y-57067481D01*
X114576001Y-56946814D01*
X114576001Y-55753000D01*
X114830001Y-55753000D01*
X114830001Y-56946814D01*
X115059892Y-57067481D01*
X115334253Y-56970157D01*
X115584356Y-56821178D01*
X115800589Y-56626269D01*
X115974642Y-56392920D01*
X116099826Y-56130099D01*
X116144477Y-55982890D01*
X116023156Y-55753000D01*
X114830001Y-55753000D01*
X114576001Y-55753000D01*
X113382846Y-55753000D01*
X113261525Y-55982890D01*
X113157000Y-55982890D01*
X113157000Y-50809236D01*
X113227288Y-50738948D01*
X113275069Y-50979158D01*
X113387011Y-51249411D01*
X113549526Y-51492632D01*
X113756369Y-51699475D01*
X113930761Y-51816000D01*
X113756369Y-51932525D01*
X113549526Y-52139368D01*
X113387011Y-52382589D01*
X113275069Y-52652842D01*
X113218001Y-52939740D01*
X113218001Y-53232260D01*
X113275069Y-53519158D01*
X113387011Y-53789411D01*
X113549526Y-54032632D01*
X113756369Y-54239475D01*
X113938535Y-54361195D01*
X113821646Y-54430822D01*
X113605413Y-54625731D01*
X113431360Y-54859080D01*
X113306176Y-55121901D01*
X113261525Y-55269110D01*
X113382846Y-55499000D01*
X114576001Y-55499000D01*
X114576001Y-55479000D01*
X114830001Y-55479000D01*
X114830001Y-55499000D01*
X116023156Y-55499000D01*
X116144477Y-55269110D01*
X116099826Y-55121901D01*
X115974642Y-54859080D01*
X115800589Y-54625731D01*
X115584356Y-54430822D01*
X115467467Y-54361195D01*
X115649633Y-54239475D01*
X115856476Y-54032632D01*
X116018991Y-53789411D01*
X116130933Y-53519158D01*
X116188001Y-53232260D01*
X116188001Y-52939740D01*
X116130933Y-52652842D01*
X116018991Y-52382589D01*
X115856476Y-52139368D01*
X115649633Y-51932525D01*
X115475241Y-51816000D01*
X115649633Y-51699475D01*
X115856476Y-51492632D01*
X116018991Y-51249411D01*
X116130933Y-50979158D01*
X116188001Y-50692260D01*
X116188001Y-50399740D01*
X116130933Y-50112842D01*
X116018991Y-49842589D01*
X115856476Y-49599368D01*
X115724621Y-49467513D01*
X115797181Y-49445502D01*
X115907495Y-49386537D01*
X116004186Y-49307185D01*
X116083538Y-49210494D01*
X116142503Y-49100180D01*
X116178813Y-48980482D01*
X116191073Y-48856000D01*
X116191073Y-47156000D01*
X116178813Y-47031518D01*
X116142503Y-46911820D01*
X116083538Y-46801506D01*
X116004186Y-46704815D01*
X115907495Y-46625463D01*
X115797181Y-46566498D01*
X115677483Y-46530188D01*
X115553001Y-46517928D01*
X113853001Y-46517928D01*
X113728519Y-46530188D01*
X113608821Y-46566498D01*
X113498507Y-46625463D01*
X113401816Y-46704815D01*
X113322464Y-46801506D01*
X113263499Y-46911820D01*
X113227189Y-47031518D01*
X113214929Y-47156000D01*
X113214929Y-48236836D01*
X111670259Y-49781507D01*
X111636342Y-49809342D01*
X111608507Y-49843259D01*
X111608505Y-49843261D01*
X111525248Y-49944710D01*
X111442698Y-50099149D01*
X111391864Y-50266727D01*
X111374700Y-50441001D01*
X111379001Y-50484671D01*
X111379000Y-65742340D01*
X111374700Y-65786000D01*
X111379000Y-65829660D01*
X111379000Y-65829666D01*
X111391864Y-65960273D01*
X111442697Y-66127850D01*
X111525247Y-66282290D01*
X111636341Y-66417659D01*
X111670264Y-66445499D01*
X113319928Y-68095164D01*
X113319928Y-68556836D01*
X111670259Y-70206506D01*
X111636342Y-70234341D01*
X111608507Y-70268258D01*
X111608505Y-70268260D01*
X111525248Y-70369709D01*
X111442698Y-70524148D01*
X111391864Y-70691726D01*
X111374700Y-70866000D01*
X111379001Y-70909666D01*
X111379000Y-86062340D01*
X111374700Y-86106000D01*
X111379000Y-86149660D01*
X111379000Y-86149666D01*
X111388620Y-86247335D01*
X111391864Y-86280274D01*
X111413998Y-86353241D01*
X111442697Y-86447850D01*
X111525247Y-86602290D01*
X111636341Y-86737659D01*
X111670264Y-86765499D01*
X113319928Y-88415164D01*
X113319928Y-88440692D01*
X110617000Y-85737765D01*
X110617000Y-71398468D01*
X110645205Y-71356256D01*
X110723226Y-71167898D01*
X110763000Y-70967939D01*
X110763000Y-70764061D01*
X110723226Y-70564102D01*
X110645205Y-70375744D01*
X110617000Y-70333532D01*
X110617000Y-56158468D01*
X110645205Y-56116256D01*
X110723226Y-55927898D01*
X110763000Y-55727939D01*
X110763000Y-55524061D01*
X110723226Y-55324102D01*
X110645205Y-55135744D01*
X110531937Y-54966226D01*
X110387774Y-54822063D01*
X110218256Y-54708795D01*
X110029898Y-54630774D01*
X109829939Y-54591000D01*
X109626061Y-54591000D01*
X109426102Y-54630774D01*
X109237744Y-54708795D01*
X109068226Y-54822063D01*
X108924063Y-54966226D01*
X108810795Y-55135744D01*
X108732774Y-55324102D01*
X108693000Y-55524061D01*
X108693000Y-55727939D01*
X108732774Y-55927898D01*
X108810795Y-56116256D01*
X108839001Y-56158469D01*
X108839000Y-70333532D01*
X108810795Y-70375744D01*
X108732774Y-70564102D01*
X108693000Y-70764061D01*
X108693000Y-70967939D01*
X108732774Y-71167898D01*
X108810795Y-71356256D01*
X108839001Y-71398469D01*
X108839000Y-86062340D01*
X108834700Y-86106000D01*
X108839000Y-86149660D01*
X108839000Y-86149666D01*
X108848620Y-86247335D01*
X108851864Y-86280274D01*
X108873998Y-86353241D01*
X108902697Y-86447850D01*
X108985247Y-86602290D01*
X109096341Y-86737659D01*
X109130264Y-86765499D01*
X112661764Y-90297000D01*
X108319849Y-90297000D01*
X108302637Y-90271241D01*
X108102759Y-90071363D01*
X107870241Y-89916000D01*
X108102759Y-89760637D01*
X108302637Y-89560759D01*
X108459680Y-89325727D01*
X108567853Y-89064574D01*
X108623000Y-88787335D01*
X108623000Y-88504665D01*
X108567853Y-88227426D01*
X108459680Y-87966273D01*
X108302637Y-87731241D01*
X108102759Y-87531363D01*
X107870241Y-87376000D01*
X108102759Y-87220637D01*
X108302637Y-87020759D01*
X108459680Y-86785727D01*
X108567853Y-86524574D01*
X108623000Y-86247335D01*
X108623000Y-85964665D01*
X108567853Y-85687426D01*
X108459680Y-85426273D01*
X108302637Y-85191241D01*
X108102759Y-84991363D01*
X107870241Y-84836000D01*
X108102759Y-84680637D01*
X108302637Y-84480759D01*
X108459680Y-84245727D01*
X108567853Y-83984574D01*
X108623000Y-83707335D01*
X108623000Y-83424665D01*
X108567853Y-83147426D01*
X108459680Y-82886273D01*
X108302637Y-82651241D01*
X108102759Y-82451363D01*
X107870241Y-82296000D01*
X108102759Y-82140637D01*
X108302637Y-81940759D01*
X108459680Y-81705727D01*
X108567853Y-81444574D01*
X108623000Y-81167335D01*
X108623000Y-80884665D01*
X108567853Y-80607426D01*
X108459680Y-80346273D01*
X108302637Y-80111241D01*
X108102759Y-79911363D01*
X107870241Y-79756000D01*
X108102759Y-79600637D01*
X108302637Y-79400759D01*
X108459680Y-79165727D01*
X108567853Y-78904574D01*
X108623000Y-78627335D01*
X108623000Y-78344665D01*
X108567853Y-78067426D01*
X108459680Y-77806273D01*
X108302637Y-77571241D01*
X108102759Y-77371363D01*
X107870241Y-77216000D01*
X108102759Y-77060637D01*
X108302637Y-76860759D01*
X108459680Y-76625727D01*
X108567853Y-76364574D01*
X108623000Y-76087335D01*
X108623000Y-75804665D01*
X108567853Y-75527426D01*
X108459680Y-75266273D01*
X108302637Y-75031241D01*
X108102759Y-74831363D01*
X107870241Y-74676000D01*
X108102759Y-74520637D01*
X108302637Y-74320759D01*
X108459680Y-74085727D01*
X108567853Y-73824574D01*
X108623000Y-73547335D01*
X108623000Y-73264665D01*
X108567853Y-72987426D01*
X108459680Y-72726273D01*
X108302637Y-72491241D01*
X108102759Y-72291363D01*
X107870241Y-72136000D01*
X108102759Y-71980637D01*
X108302637Y-71780759D01*
X108459680Y-71545727D01*
X108567853Y-71284574D01*
X108623000Y-71007335D01*
X108623000Y-70724665D01*
X108567853Y-70447426D01*
X108459680Y-70186273D01*
X108302637Y-69951241D01*
X108102759Y-69751363D01*
X107870241Y-69596000D01*
X108102759Y-69440637D01*
X108302637Y-69240759D01*
X108459680Y-69005727D01*
X108567853Y-68744574D01*
X108623000Y-68467335D01*
X108623000Y-68184665D01*
X108567853Y-67907426D01*
X108459680Y-67646273D01*
X108302637Y-67411241D01*
X108102759Y-67211363D01*
X107867727Y-67054320D01*
X107606574Y-66946147D01*
X107329335Y-66891000D01*
X107046665Y-66891000D01*
X106769426Y-66946147D01*
X106508273Y-67054320D01*
X106273241Y-67211363D01*
X106073363Y-67411241D01*
X105916320Y-67646273D01*
X105808147Y-67907426D01*
X105753000Y-68184665D01*
X105753000Y-68467335D01*
X105808147Y-68744574D01*
X105916320Y-69005727D01*
X106073363Y-69240759D01*
X106273241Y-69440637D01*
X106505759Y-69596000D01*
X106273241Y-69751363D01*
X106073363Y-69951241D01*
X105916320Y-70186273D01*
X105808147Y-70447426D01*
X105753000Y-70724665D01*
X105753000Y-71007335D01*
X105808147Y-71284574D01*
X105916320Y-71545727D01*
X106073363Y-71780759D01*
X106273241Y-71980637D01*
X106505759Y-72136000D01*
X106273241Y-72291363D01*
X106073363Y-72491241D01*
X105916320Y-72726273D01*
X105808147Y-72987426D01*
X105753000Y-73264665D01*
X105753000Y-73547335D01*
X105808147Y-73824574D01*
X105916320Y-74085727D01*
X106073363Y-74320759D01*
X106273241Y-74520637D01*
X106505759Y-74676000D01*
X106273241Y-74831363D01*
X106073363Y-75031241D01*
X105916320Y-75266273D01*
X105808147Y-75527426D01*
X105754808Y-75795573D01*
X105537000Y-75577765D01*
X105537000Y-53454235D01*
X107785743Y-51205493D01*
X107819659Y-51177659D01*
X107930753Y-51042291D01*
X108013303Y-50887851D01*
X108045153Y-50782853D01*
X108064136Y-50720276D01*
X108067406Y-50687076D01*
X108077000Y-50589667D01*
X108077000Y-50589661D01*
X108081300Y-50546001D01*
X108077000Y-50502341D01*
X108077000Y-45834072D01*
X108188000Y-45834072D01*
X108312482Y-45821812D01*
X108432180Y-45785502D01*
X108542494Y-45726537D01*
X108639185Y-45647185D01*
X108718537Y-45550494D01*
X108777502Y-45440180D01*
X108813812Y-45320482D01*
X108826072Y-45196000D01*
X108826072Y-43196000D01*
X108813812Y-43071518D01*
X108777502Y-42951820D01*
X108718537Y-42841506D01*
X108639185Y-42744815D01*
X108542494Y-42665463D01*
X108432180Y-42606498D01*
X108312482Y-42570188D01*
X108188000Y-42557928D01*
X106188000Y-42557928D01*
X106063518Y-42570188D01*
X105943820Y-42606498D01*
X105833506Y-42665463D01*
X105736815Y-42744815D01*
X105657463Y-42841506D01*
X105598498Y-42951820D01*
X105562188Y-43071518D01*
X105549928Y-43196000D01*
X105549928Y-45196000D01*
X105562188Y-45320482D01*
X105598498Y-45440180D01*
X105657463Y-45550494D01*
X105736815Y-45647185D01*
X105833506Y-45726537D01*
X105943820Y-45785502D01*
X106063518Y-45821812D01*
X106188000Y-45834072D01*
X106299001Y-45834072D01*
X106299000Y-50177764D01*
X104050260Y-52426505D01*
X104016342Y-52454341D01*
X103988507Y-52488258D01*
X103988505Y-52488260D01*
X103905248Y-52589709D01*
X103822698Y-52744148D01*
X103771864Y-52911726D01*
X103754700Y-53086000D01*
X103759001Y-53129670D01*
X103759000Y-75902340D01*
X103754700Y-75946000D01*
X103759000Y-75989660D01*
X103759000Y-75989666D01*
X103771864Y-76120273D01*
X103822697Y-76287850D01*
X103905247Y-76442290D01*
X104016341Y-76577659D01*
X104050264Y-76605499D01*
X105759044Y-78314280D01*
X105753000Y-78344665D01*
X105753000Y-78627335D01*
X105808147Y-78904574D01*
X105916320Y-79165727D01*
X106073363Y-79400759D01*
X106273241Y-79600637D01*
X106505759Y-79756000D01*
X106273241Y-79911363D01*
X106073363Y-80111241D01*
X105916320Y-80346273D01*
X105808147Y-80607426D01*
X105753000Y-80884665D01*
X105753000Y-81167335D01*
X105808147Y-81444574D01*
X105916320Y-81705727D01*
X106073363Y-81940759D01*
X106273241Y-82140637D01*
X106505759Y-82296000D01*
X106273241Y-82451363D01*
X106073363Y-82651241D01*
X106056151Y-82677000D01*
X105961668Y-82677000D01*
X105918000Y-82672699D01*
X105743725Y-82689864D01*
X105692892Y-82705284D01*
X105576149Y-82740697D01*
X105421709Y-82823247D01*
X105286341Y-82934341D01*
X105258506Y-82968258D01*
X96659765Y-91567000D01*
X88670468Y-91567000D01*
X88628256Y-91538795D01*
X88439898Y-91460774D01*
X88282678Y-91429501D01*
X88303000Y-91327335D01*
X88303000Y-91044665D01*
X88247853Y-90767426D01*
X88139680Y-90506273D01*
X87982637Y-90271241D01*
X87782759Y-90071363D01*
X87550241Y-89916000D01*
X87782759Y-89760637D01*
X87982637Y-89560759D01*
X88139680Y-89325727D01*
X88247853Y-89064574D01*
X88303000Y-88787335D01*
X88303000Y-88504665D01*
X88247853Y-88227426D01*
X88139680Y-87966273D01*
X87982637Y-87731241D01*
X87782759Y-87531363D01*
X87550241Y-87376000D01*
X87782759Y-87220637D01*
X87982637Y-87020759D01*
X88139680Y-86785727D01*
X88247853Y-86524574D01*
X88303000Y-86247335D01*
X88303000Y-85964665D01*
X88247853Y-85687426D01*
X88139680Y-85426273D01*
X87982637Y-85191241D01*
X87782759Y-84991363D01*
X87550241Y-84836000D01*
X87782759Y-84680637D01*
X87982637Y-84480759D01*
X88139680Y-84245727D01*
X88247853Y-83984574D01*
X88303000Y-83707335D01*
X88303000Y-83424665D01*
X88247853Y-83147426D01*
X88139680Y-82886273D01*
X87982637Y-82651241D01*
X87782759Y-82451363D01*
X87550241Y-82296000D01*
X87782759Y-82140637D01*
X87982637Y-81940759D01*
X88139680Y-81705727D01*
X88247853Y-81444574D01*
X88303000Y-81167335D01*
X88303000Y-80884665D01*
X88296956Y-80854279D01*
X93815743Y-75335493D01*
X93849659Y-75307659D01*
X93960753Y-75172291D01*
X94043303Y-75017851D01*
X94065180Y-74945731D01*
X94094136Y-74850276D01*
X94106771Y-74721990D01*
X94107000Y-74719667D01*
X94107000Y-74719661D01*
X94111300Y-74676001D01*
X94107000Y-74632341D01*
X94107000Y-48084481D01*
X94182850Y-48061472D01*
X94336386Y-47979405D01*
X94470962Y-47868962D01*
X94581405Y-47734386D01*
X94663472Y-47580850D01*
X94714008Y-47414254D01*
X94731072Y-47241000D01*
X94731072Y-46491000D01*
X94714008Y-46317746D01*
X94663472Y-46151150D01*
X94581405Y-45997614D01*
X94470962Y-45863038D01*
X94336386Y-45752595D01*
X94182850Y-45670528D01*
X94016254Y-45619992D01*
X93843000Y-45602928D01*
X92593000Y-45602928D01*
X92419746Y-45619992D01*
X92253150Y-45670528D01*
X92099614Y-45752595D01*
X91965038Y-45863038D01*
X91854595Y-45997614D01*
X91772528Y-46151150D01*
X91721992Y-46317746D01*
X91704928Y-46491000D01*
X91704928Y-47241000D01*
X91721992Y-47414254D01*
X91772528Y-47580850D01*
X91854595Y-47734386D01*
X91965038Y-47868962D01*
X92099614Y-47979405D01*
X92253150Y-48061472D01*
X92329001Y-48084481D01*
X92329000Y-74307764D01*
X88301191Y-78335573D01*
X88296956Y-78314279D01*
X90005743Y-76605493D01*
X90039659Y-76577659D01*
X90150753Y-76442291D01*
X90233303Y-76287851D01*
X90253296Y-76221942D01*
X90284136Y-76120276D01*
X90288792Y-76073000D01*
X90297000Y-75989667D01*
X90297000Y-75989661D01*
X90301300Y-75946001D01*
X90297000Y-75902341D01*
X90297000Y-48084481D01*
X90372850Y-48061472D01*
X90526386Y-47979405D01*
X90660962Y-47868962D01*
X90771405Y-47734386D01*
X90853472Y-47580850D01*
X90904008Y-47414254D01*
X90921072Y-47241000D01*
X90921072Y-46491000D01*
X90904008Y-46317746D01*
X90853472Y-46151150D01*
X90771405Y-45997614D01*
X90660962Y-45863038D01*
X90526386Y-45752595D01*
X90372850Y-45670528D01*
X90206254Y-45619992D01*
X90033000Y-45602928D01*
X88783000Y-45602928D01*
X88609746Y-45619992D01*
X88443150Y-45670528D01*
X88289614Y-45752595D01*
X88155038Y-45863038D01*
X88044595Y-45997614D01*
X87962528Y-46151150D01*
X87911992Y-46317746D01*
X87894928Y-46491000D01*
X87894928Y-47241000D01*
X87911992Y-47414254D01*
X87962528Y-47580850D01*
X88044595Y-47734386D01*
X88155038Y-47868962D01*
X88289614Y-47979405D01*
X88443150Y-48061472D01*
X88519001Y-48084481D01*
X88519000Y-75577764D01*
X88301191Y-75795573D01*
X88247853Y-75527426D01*
X88139680Y-75266273D01*
X87982637Y-75031241D01*
X87782759Y-74831363D01*
X87550241Y-74676000D01*
X87782759Y-74520637D01*
X87982637Y-74320759D01*
X88139680Y-74085727D01*
X88247853Y-73824574D01*
X88303000Y-73547335D01*
X88303000Y-73264665D01*
X88247853Y-72987426D01*
X88139680Y-72726273D01*
X87982637Y-72491241D01*
X87782759Y-72291363D01*
X87550241Y-72136000D01*
X87782759Y-71980637D01*
X87982637Y-71780759D01*
X88139680Y-71545727D01*
X88247853Y-71284574D01*
X88303000Y-71007335D01*
X88303000Y-70724665D01*
X88247853Y-70447426D01*
X88139680Y-70186273D01*
X87982637Y-69951241D01*
X87782759Y-69751363D01*
X87550241Y-69596000D01*
X87782759Y-69440637D01*
X87982637Y-69240759D01*
X88139680Y-69005727D01*
X88247853Y-68744574D01*
X88303000Y-68467335D01*
X88303000Y-68184665D01*
X88247853Y-67907426D01*
X88139680Y-67646273D01*
X87982637Y-67411241D01*
X87782759Y-67211363D01*
X87548872Y-67055085D01*
X87609514Y-67022671D01*
X87681097Y-66778702D01*
X86868000Y-65965605D01*
X86054903Y-66778702D01*
X86126486Y-67022671D01*
X86190992Y-67053194D01*
X86188273Y-67054320D01*
X85953241Y-67211363D01*
X85753363Y-67411241D01*
X85596320Y-67646273D01*
X85488147Y-67907426D01*
X85433000Y-68184665D01*
X85433000Y-68467335D01*
X85488147Y-68744574D01*
X85596320Y-69005727D01*
X85753363Y-69240759D01*
X85953241Y-69440637D01*
X86185759Y-69596000D01*
X85953241Y-69751363D01*
X85753363Y-69951241D01*
X85596320Y-70186273D01*
X85488147Y-70447426D01*
X85433000Y-70724665D01*
X85433000Y-71007335D01*
X85488147Y-71284574D01*
X85596320Y-71545727D01*
X85753363Y-71780759D01*
X85953241Y-71980637D01*
X86185759Y-72136000D01*
X85953241Y-72291363D01*
X85753363Y-72491241D01*
X85596320Y-72726273D01*
X85488147Y-72987426D01*
X85433000Y-73264665D01*
X85433000Y-73547335D01*
X85488147Y-73824574D01*
X85596320Y-74085727D01*
X85753363Y-74320759D01*
X85953241Y-74520637D01*
X86185759Y-74676000D01*
X85953241Y-74831363D01*
X85753363Y-75031241D01*
X85596320Y-75266273D01*
X85488147Y-75527426D01*
X85433000Y-75804665D01*
X85433000Y-76087335D01*
X85488147Y-76364574D01*
X85596320Y-76625727D01*
X85753363Y-76860759D01*
X85953241Y-77060637D01*
X86185759Y-77216000D01*
X85953241Y-77371363D01*
X85753363Y-77571241D01*
X85596320Y-77806273D01*
X85488147Y-78067426D01*
X85433000Y-78344665D01*
X85433000Y-78627335D01*
X85488147Y-78904574D01*
X85596320Y-79165727D01*
X85753363Y-79400759D01*
X85953241Y-79600637D01*
X86185759Y-79756000D01*
X85953241Y-79911363D01*
X85753363Y-80111241D01*
X85596320Y-80346273D01*
X85488147Y-80607426D01*
X85433000Y-80884665D01*
X85433000Y-81167335D01*
X85488147Y-81444574D01*
X85596320Y-81705727D01*
X85753363Y-81940759D01*
X85953241Y-82140637D01*
X86185759Y-82296000D01*
X85953241Y-82451363D01*
X85753363Y-82651241D01*
X85596320Y-82886273D01*
X85488147Y-83147426D01*
X85433000Y-83424665D01*
X85433000Y-83707335D01*
X85488147Y-83984574D01*
X85596320Y-84245727D01*
X85753363Y-84480759D01*
X85953241Y-84680637D01*
X86185759Y-84836000D01*
X85953241Y-84991363D01*
X85753363Y-85191241D01*
X85596320Y-85426273D01*
X85488147Y-85687426D01*
X85433000Y-85964665D01*
X85433000Y-86247335D01*
X85488147Y-86524574D01*
X85596320Y-86785727D01*
X85753363Y-87020759D01*
X85953241Y-87220637D01*
X86185759Y-87376000D01*
X85953241Y-87531363D01*
X85753363Y-87731241D01*
X85596320Y-87966273D01*
X85488147Y-88227426D01*
X85433000Y-88504665D01*
X85433000Y-88787335D01*
X85488147Y-89064574D01*
X85596320Y-89325727D01*
X85753363Y-89560759D01*
X85953241Y-89760637D01*
X86185759Y-89916000D01*
X85953241Y-90071363D01*
X85753363Y-90271241D01*
X85596320Y-90506273D01*
X85488147Y-90767426D01*
X85433000Y-91044665D01*
X85433000Y-91327335D01*
X85488147Y-91604574D01*
X85596320Y-91865727D01*
X85753363Y-92100759D01*
X85953241Y-92300637D01*
X86185759Y-92456000D01*
X85953241Y-92611363D01*
X85753363Y-92811241D01*
X85596320Y-93046273D01*
X85488147Y-93307426D01*
X85433000Y-93584665D01*
X85433000Y-93867335D01*
X85480673Y-94107000D01*
X85217000Y-94107000D01*
X85217000Y-76478468D01*
X85245205Y-76436256D01*
X85323226Y-76247898D01*
X85363000Y-76047939D01*
X85363000Y-75844061D01*
X85323226Y-75644102D01*
X85245205Y-75455744D01*
X85217000Y-75413532D01*
X85217000Y-65856512D01*
X85427783Y-65856512D01*
X85469213Y-66136130D01*
X85564397Y-66402292D01*
X85631329Y-66527514D01*
X85875298Y-66599097D01*
X86688395Y-65786000D01*
X87047605Y-65786000D01*
X87860702Y-66599097D01*
X88104671Y-66527514D01*
X88225571Y-66272004D01*
X88294300Y-65997816D01*
X88308217Y-65715488D01*
X88266787Y-65435870D01*
X88171603Y-65169708D01*
X88104671Y-65044486D01*
X87860702Y-64972903D01*
X87047605Y-65786000D01*
X86688395Y-65786000D01*
X85875298Y-64972903D01*
X85631329Y-65044486D01*
X85510429Y-65299996D01*
X85441700Y-65574184D01*
X85427783Y-65856512D01*
X85217000Y-65856512D01*
X85217000Y-61238468D01*
X85245205Y-61196256D01*
X85323226Y-61007898D01*
X85363000Y-60807939D01*
X85363000Y-60604061D01*
X85323226Y-60404102D01*
X85245205Y-60215744D01*
X85131937Y-60046226D01*
X84987774Y-59902063D01*
X84818256Y-59788795D01*
X84629898Y-59710774D01*
X84429939Y-59671000D01*
X84226061Y-59671000D01*
X84026102Y-59710774D01*
X83837744Y-59788795D01*
X83668226Y-59902063D01*
X83524063Y-60046226D01*
X83410795Y-60215744D01*
X83332774Y-60404102D01*
X83293000Y-60604061D01*
X83293000Y-60807939D01*
X83332774Y-61007898D01*
X83410795Y-61196256D01*
X83439001Y-61238469D01*
X83439000Y-75413532D01*
X83410795Y-75455744D01*
X83332774Y-75644102D01*
X83293000Y-75844061D01*
X83293000Y-76047939D01*
X83332774Y-76247898D01*
X83410795Y-76436256D01*
X83439001Y-76478469D01*
X83439000Y-94107000D01*
X80686307Y-94107000D01*
X80733000Y-93872260D01*
X80733000Y-93579740D01*
X80719477Y-93511758D01*
X82385743Y-91845493D01*
X82419659Y-91817659D01*
X82530753Y-91682291D01*
X82613303Y-91527851D01*
X82633650Y-91460774D01*
X82664136Y-91360276D01*
X82667406Y-91327076D01*
X82677000Y-91229667D01*
X82677000Y-91229661D01*
X82681300Y-91186001D01*
X82677000Y-91142341D01*
X82677000Y-75989659D01*
X82681300Y-75945999D01*
X82677000Y-75902339D01*
X82677000Y-75902333D01*
X82664136Y-75771726D01*
X82664136Y-75771724D01*
X82613302Y-75604147D01*
X82585501Y-75552136D01*
X82530753Y-75449709D01*
X82419659Y-75314341D01*
X82385741Y-75286505D01*
X80719477Y-73620242D01*
X80733000Y-73552260D01*
X80733000Y-73259740D01*
X80719477Y-73191758D01*
X82385743Y-71525493D01*
X82419659Y-71497659D01*
X82530753Y-71362291D01*
X82613303Y-71207851D01*
X82633296Y-71141942D01*
X82664136Y-71040276D01*
X82667406Y-71007076D01*
X82677000Y-70909667D01*
X82677000Y-70909661D01*
X82681300Y-70866001D01*
X82677000Y-70822341D01*
X82677000Y-57366000D01*
X85429928Y-57366000D01*
X85429928Y-58966000D01*
X85442188Y-59090482D01*
X85478498Y-59210180D01*
X85537463Y-59320494D01*
X85616815Y-59417185D01*
X85713506Y-59496537D01*
X85823820Y-59555502D01*
X85943518Y-59591812D01*
X85951961Y-59592643D01*
X85753363Y-59791241D01*
X85596320Y-60026273D01*
X85488147Y-60287426D01*
X85433000Y-60564665D01*
X85433000Y-60847335D01*
X85488147Y-61124574D01*
X85596320Y-61385727D01*
X85753363Y-61620759D01*
X85953241Y-61820637D01*
X86185759Y-61976000D01*
X85953241Y-62131363D01*
X85753363Y-62331241D01*
X85596320Y-62566273D01*
X85488147Y-62827426D01*
X85433000Y-63104665D01*
X85433000Y-63387335D01*
X85488147Y-63664574D01*
X85596320Y-63925727D01*
X85753363Y-64160759D01*
X85953241Y-64360637D01*
X86187128Y-64516915D01*
X86126486Y-64549329D01*
X86054903Y-64793298D01*
X86868000Y-65606395D01*
X87681097Y-64793298D01*
X87609514Y-64549329D01*
X87545008Y-64518806D01*
X87547727Y-64517680D01*
X87782759Y-64360637D01*
X87982637Y-64160759D01*
X88139680Y-63925727D01*
X88247853Y-63664574D01*
X88303000Y-63387335D01*
X88303000Y-63104665D01*
X88247853Y-62827426D01*
X88139680Y-62566273D01*
X87982637Y-62331241D01*
X87782759Y-62131363D01*
X87550241Y-61976000D01*
X87782759Y-61820637D01*
X87982637Y-61620759D01*
X88139680Y-61385727D01*
X88247853Y-61124574D01*
X88303000Y-60847335D01*
X88303000Y-60564665D01*
X88247853Y-60287426D01*
X88139680Y-60026273D01*
X87982637Y-59791241D01*
X87784039Y-59592643D01*
X87792482Y-59591812D01*
X87912180Y-59555502D01*
X88022494Y-59496537D01*
X88119185Y-59417185D01*
X88198537Y-59320494D01*
X88257502Y-59210180D01*
X88293812Y-59090482D01*
X88306072Y-58966000D01*
X88306072Y-57366000D01*
X88293812Y-57241518D01*
X88257502Y-57121820D01*
X88198537Y-57011506D01*
X88119185Y-56914815D01*
X88022494Y-56835463D01*
X87912180Y-56776498D01*
X87792482Y-56740188D01*
X87668000Y-56727928D01*
X86068000Y-56727928D01*
X85943518Y-56740188D01*
X85823820Y-56776498D01*
X85713506Y-56835463D01*
X85616815Y-56914815D01*
X85537463Y-57011506D01*
X85478498Y-57121820D01*
X85442188Y-57241518D01*
X85429928Y-57366000D01*
X82677000Y-57366000D01*
X82677000Y-55669659D01*
X82681300Y-55625999D01*
X82677000Y-55582339D01*
X82677000Y-55582333D01*
X82664136Y-55451726D01*
X82664136Y-55451724D01*
X82613302Y-55284147D01*
X82605264Y-55269110D01*
X82530753Y-55129709D01*
X82419659Y-54994341D01*
X82385742Y-54966506D01*
X80719477Y-53300242D01*
X80733000Y-53232260D01*
X80733000Y-52939740D01*
X80675932Y-52652842D01*
X80563990Y-52382589D01*
X80401475Y-52139368D01*
X80194632Y-51932525D01*
X80020240Y-51816000D01*
X80194632Y-51699475D01*
X80401475Y-51492632D01*
X80563990Y-51249411D01*
X80675932Y-50979158D01*
X80733000Y-50692260D01*
X80733000Y-50399740D01*
X80675932Y-50112842D01*
X80563990Y-49842589D01*
X80401475Y-49599368D01*
X80194632Y-49392525D01*
X80012466Y-49270805D01*
X80129355Y-49201178D01*
X80345588Y-49006269D01*
X80519641Y-48772920D01*
X80644825Y-48510099D01*
X80689476Y-48362890D01*
X80568155Y-48133000D01*
X79375000Y-48133000D01*
X79375000Y-48153000D01*
X79121000Y-48153000D01*
X79121000Y-48133000D01*
X77927845Y-48133000D01*
X77806524Y-48362890D01*
X77851175Y-48510099D01*
X77976359Y-48772920D01*
X78150412Y-49006269D01*
X78366645Y-49201178D01*
X78483534Y-49270805D01*
X78301368Y-49392525D01*
X78094525Y-49599368D01*
X77932010Y-49842589D01*
X77820068Y-50112842D01*
X77763000Y-50399740D01*
X77763000Y-50692260D01*
X77820068Y-50979158D01*
X77932010Y-51249411D01*
X78094525Y-51492632D01*
X78301368Y-51699475D01*
X78475760Y-51816000D01*
X78301368Y-51932525D01*
X78094525Y-52139368D01*
X77932010Y-52382589D01*
X77820068Y-52652842D01*
X77763000Y-52939740D01*
X77763000Y-53232260D01*
X77820068Y-53519158D01*
X77932010Y-53789411D01*
X78094525Y-54032632D01*
X78226380Y-54164487D01*
X78153820Y-54186498D01*
X78043506Y-54245463D01*
X77946815Y-54324815D01*
X77867463Y-54421506D01*
X77808498Y-54531820D01*
X77772188Y-54651518D01*
X77759928Y-54776000D01*
X77355700Y-54776000D01*
X77355700Y-47649110D01*
X77806524Y-47649110D01*
X77927845Y-47879000D01*
X79121000Y-47879000D01*
X79121000Y-46685186D01*
X79375000Y-46685186D01*
X79375000Y-47879000D01*
X80568155Y-47879000D01*
X80689476Y-47649110D01*
X80644825Y-47501901D01*
X80519641Y-47239080D01*
X80345588Y-47005731D01*
X80129355Y-46810822D01*
X79879252Y-46661843D01*
X79604891Y-46564519D01*
X79375000Y-46685186D01*
X79121000Y-46685186D01*
X78891109Y-46564519D01*
X78616748Y-46661843D01*
X78366645Y-46810822D01*
X78150412Y-47005731D01*
X77976359Y-47239080D01*
X77851175Y-47501901D01*
X77806524Y-47649110D01*
X77355700Y-47649110D01*
X77355700Y-45331413D01*
X98632192Y-45331413D01*
X98727956Y-45595814D01*
X99017571Y-45736704D01*
X99329108Y-45818384D01*
X99650595Y-45837718D01*
X99969675Y-45793961D01*
X100274088Y-45688795D01*
X100448044Y-45595814D01*
X100543808Y-45331413D01*
X99588000Y-44375605D01*
X98632192Y-45331413D01*
X77355700Y-45331413D01*
X77355700Y-41816881D01*
X77996724Y-41816881D01*
X78356912Y-42306548D01*
X79020882Y-42666849D01*
X79742385Y-42890694D01*
X80493695Y-42969480D01*
X81245938Y-42900178D01*
X81970208Y-42685452D01*
X82638670Y-42333555D01*
X82679088Y-42306548D01*
X83039276Y-41816881D01*
X80518000Y-39295605D01*
X77996724Y-41816881D01*
X77355700Y-41816881D01*
X77355700Y-41297867D01*
X77817119Y-41637276D01*
X80338395Y-39116000D01*
X80697605Y-39116000D01*
X83218881Y-41637276D01*
X83356567Y-41535997D01*
X87894928Y-41535997D01*
X87894928Y-42161003D01*
X87911992Y-42334257D01*
X87962528Y-42500852D01*
X88044595Y-42654388D01*
X88155037Y-42788963D01*
X88289612Y-42899405D01*
X88339369Y-42926001D01*
X88289614Y-42952595D01*
X88155038Y-43063038D01*
X88044595Y-43197614D01*
X87962528Y-43351150D01*
X87911992Y-43517746D01*
X87894928Y-43691000D01*
X87894928Y-44441000D01*
X87911992Y-44614254D01*
X87962528Y-44780850D01*
X88044595Y-44934386D01*
X88155038Y-45068962D01*
X88289614Y-45179405D01*
X88443150Y-45261472D01*
X88609746Y-45312008D01*
X88783000Y-45329072D01*
X90033000Y-45329072D01*
X90206254Y-45312008D01*
X90372850Y-45261472D01*
X90526386Y-45179405D01*
X90660962Y-45068962D01*
X90771405Y-44934386D01*
X90853472Y-44780850D01*
X90904008Y-44614254D01*
X90921072Y-44441000D01*
X90921072Y-43691000D01*
X90904008Y-43517746D01*
X90853472Y-43351150D01*
X90771405Y-43197614D01*
X90660962Y-43063038D01*
X90526386Y-42952595D01*
X90476631Y-42926001D01*
X90526388Y-42899405D01*
X90660963Y-42788963D01*
X90771405Y-42654388D01*
X90853472Y-42500852D01*
X90904008Y-42334257D01*
X90921072Y-42161003D01*
X90921072Y-41535997D01*
X91704928Y-41535997D01*
X91704928Y-42161003D01*
X91721992Y-42334257D01*
X91772528Y-42500852D01*
X91854595Y-42654388D01*
X91965037Y-42788963D01*
X92099612Y-42899405D01*
X92149369Y-42926001D01*
X92099614Y-42952595D01*
X91965038Y-43063038D01*
X91854595Y-43197614D01*
X91772528Y-43351150D01*
X91721992Y-43517746D01*
X91704928Y-43691000D01*
X91704928Y-44441000D01*
X91721992Y-44614254D01*
X91772528Y-44780850D01*
X91854595Y-44934386D01*
X91965038Y-45068962D01*
X92099614Y-45179405D01*
X92253150Y-45261472D01*
X92419746Y-45312008D01*
X92593000Y-45329072D01*
X93843000Y-45329072D01*
X94016254Y-45312008D01*
X94182850Y-45261472D01*
X94336386Y-45179405D01*
X94470962Y-45068962D01*
X94581405Y-44934386D01*
X94663472Y-44780850D01*
X94714008Y-44614254D01*
X94731072Y-44441000D01*
X94731072Y-44258595D01*
X97946282Y-44258595D01*
X97990039Y-44577675D01*
X98095205Y-44882088D01*
X98188186Y-45056044D01*
X98452587Y-45151808D01*
X99408395Y-44196000D01*
X99767605Y-44196000D01*
X100723413Y-45151808D01*
X100987814Y-45056044D01*
X101128704Y-44766429D01*
X101210384Y-44454892D01*
X101229718Y-44133405D01*
X101185961Y-43814325D01*
X101080795Y-43509912D01*
X100987814Y-43335956D01*
X100723413Y-43240192D01*
X99767605Y-44196000D01*
X99408395Y-44196000D01*
X98452587Y-43240192D01*
X98188186Y-43335956D01*
X98047296Y-43625571D01*
X97965616Y-43937108D01*
X97946282Y-44258595D01*
X94731072Y-44258595D01*
X94731072Y-43691000D01*
X94714008Y-43517746D01*
X94663472Y-43351150D01*
X94581405Y-43197614D01*
X94470962Y-43063038D01*
X94467976Y-43060587D01*
X98632192Y-43060587D01*
X99588000Y-44016395D01*
X100543808Y-43060587D01*
X100448044Y-42796186D01*
X100158429Y-42655296D01*
X99846892Y-42573616D01*
X99525405Y-42554282D01*
X99206325Y-42598039D01*
X98901912Y-42703205D01*
X98727956Y-42796186D01*
X98632192Y-43060587D01*
X94467976Y-43060587D01*
X94336386Y-42952595D01*
X94286631Y-42926001D01*
X94336388Y-42899405D01*
X94470963Y-42788963D01*
X94581405Y-42654388D01*
X94663472Y-42500852D01*
X94714008Y-42334257D01*
X94731072Y-42161003D01*
X94731072Y-41816881D01*
X111016724Y-41816881D01*
X111376912Y-42306548D01*
X112040882Y-42666849D01*
X112762385Y-42890694D01*
X113513695Y-42969480D01*
X114265938Y-42900178D01*
X114990208Y-42685452D01*
X115658670Y-42333555D01*
X115699088Y-42306548D01*
X116059276Y-41816881D01*
X113538000Y-39295605D01*
X111016724Y-41816881D01*
X94731072Y-41816881D01*
X94731072Y-41535997D01*
X94714008Y-41362743D01*
X94663472Y-41196148D01*
X94581405Y-41042612D01*
X94470963Y-40908037D01*
X94336388Y-40797595D01*
X94182852Y-40715528D01*
X94016257Y-40664992D01*
X93843003Y-40647928D01*
X92592997Y-40647928D01*
X92419743Y-40664992D01*
X92253148Y-40715528D01*
X92099612Y-40797595D01*
X91965037Y-40908037D01*
X91854595Y-41042612D01*
X91772528Y-41196148D01*
X91721992Y-41362743D01*
X91704928Y-41535997D01*
X90921072Y-41535997D01*
X90904008Y-41362743D01*
X90853472Y-41196148D01*
X90771405Y-41042612D01*
X90660963Y-40908037D01*
X90526388Y-40797595D01*
X90372852Y-40715528D01*
X90206257Y-40664992D01*
X90033003Y-40647928D01*
X88782997Y-40647928D01*
X88609743Y-40664992D01*
X88443148Y-40715528D01*
X88289612Y-40797595D01*
X88155037Y-40908037D01*
X88044595Y-41042612D01*
X87962528Y-41196148D01*
X87911992Y-41362743D01*
X87894928Y-41535997D01*
X83356567Y-41535997D01*
X83708548Y-41277088D01*
X84068849Y-40613118D01*
X84292694Y-39891615D01*
X84335228Y-39486000D01*
X87894928Y-39486000D01*
X87907188Y-39610482D01*
X87943498Y-39730180D01*
X88002463Y-39840494D01*
X88081815Y-39937185D01*
X88178506Y-40016537D01*
X88288820Y-40075502D01*
X88408518Y-40111812D01*
X88533000Y-40124072D01*
X89122250Y-40121000D01*
X89281000Y-39962250D01*
X89281000Y-39050500D01*
X89535000Y-39050500D01*
X89535000Y-39962250D01*
X89693750Y-40121000D01*
X90283000Y-40124072D01*
X90407482Y-40111812D01*
X90527180Y-40075502D01*
X90637494Y-40016537D01*
X90734185Y-39937185D01*
X90813537Y-39840494D01*
X90872502Y-39730180D01*
X90908812Y-39610482D01*
X90921072Y-39486000D01*
X91704928Y-39486000D01*
X91717188Y-39610482D01*
X91753498Y-39730180D01*
X91812463Y-39840494D01*
X91891815Y-39937185D01*
X91988506Y-40016537D01*
X92098820Y-40075502D01*
X92218518Y-40111812D01*
X92343000Y-40124072D01*
X92932250Y-40121000D01*
X93091000Y-39962250D01*
X93091000Y-39050500D01*
X93345000Y-39050500D01*
X93345000Y-39962250D01*
X93503750Y-40121000D01*
X94093000Y-40124072D01*
X94217482Y-40111812D01*
X94337180Y-40075502D01*
X94447494Y-40016537D01*
X94544185Y-39937185D01*
X94623537Y-39840494D01*
X94682502Y-39730180D01*
X94718812Y-39610482D01*
X94731072Y-39486000D01*
X94728000Y-39209250D01*
X94610445Y-39091695D01*
X109684520Y-39091695D01*
X109753822Y-39843938D01*
X109968548Y-40568208D01*
X110320445Y-41236670D01*
X110347452Y-41277088D01*
X110837119Y-41637276D01*
X113358395Y-39116000D01*
X110837119Y-36594724D01*
X110347452Y-36954912D01*
X109987151Y-37618882D01*
X109763306Y-38340385D01*
X109684520Y-39091695D01*
X94610445Y-39091695D01*
X94569250Y-39050500D01*
X93345000Y-39050500D01*
X93091000Y-39050500D01*
X91866750Y-39050500D01*
X91708000Y-39209250D01*
X91704928Y-39486000D01*
X90921072Y-39486000D01*
X90918000Y-39209250D01*
X90759250Y-39050500D01*
X89535000Y-39050500D01*
X89281000Y-39050500D01*
X88056750Y-39050500D01*
X87898000Y-39209250D01*
X87894928Y-39486000D01*
X84335228Y-39486000D01*
X84371480Y-39140305D01*
X84302178Y-38388062D01*
X84294155Y-38361000D01*
X87894928Y-38361000D01*
X87898000Y-38637750D01*
X88056750Y-38796500D01*
X89281000Y-38796500D01*
X89281000Y-37884750D01*
X89535000Y-37884750D01*
X89535000Y-38796500D01*
X90759250Y-38796500D01*
X90918000Y-38637750D01*
X90921072Y-38361000D01*
X91704928Y-38361000D01*
X91708000Y-38637750D01*
X91866750Y-38796500D01*
X93091000Y-38796500D01*
X93091000Y-37884750D01*
X93345000Y-37884750D01*
X93345000Y-38796500D01*
X94569250Y-38796500D01*
X94728000Y-38637750D01*
X94731072Y-38361000D01*
X94718812Y-38236518D01*
X94682502Y-38116820D01*
X94623537Y-38006506D01*
X94544185Y-37909815D01*
X94447494Y-37830463D01*
X94337180Y-37771498D01*
X94217482Y-37735188D01*
X94093000Y-37722928D01*
X93503750Y-37726000D01*
X93345000Y-37884750D01*
X93091000Y-37884750D01*
X92932250Y-37726000D01*
X92343000Y-37722928D01*
X92218518Y-37735188D01*
X92098820Y-37771498D01*
X91988506Y-37830463D01*
X91891815Y-37909815D01*
X91812463Y-38006506D01*
X91753498Y-38116820D01*
X91717188Y-38236518D01*
X91704928Y-38361000D01*
X90921072Y-38361000D01*
X90908812Y-38236518D01*
X90872502Y-38116820D01*
X90813537Y-38006506D01*
X90734185Y-37909815D01*
X90637494Y-37830463D01*
X90527180Y-37771498D01*
X90407482Y-37735188D01*
X90283000Y-37722928D01*
X89693750Y-37726000D01*
X89535000Y-37884750D01*
X89281000Y-37884750D01*
X89122250Y-37726000D01*
X88533000Y-37722928D01*
X88408518Y-37735188D01*
X88288820Y-37771498D01*
X88178506Y-37830463D01*
X88081815Y-37909815D01*
X88002463Y-38006506D01*
X87943498Y-38116820D01*
X87907188Y-38236518D01*
X87894928Y-38361000D01*
X84294155Y-38361000D01*
X84087452Y-37663792D01*
X83735555Y-36995330D01*
X83708548Y-36954912D01*
X83218881Y-36594724D01*
X80697605Y-39116000D01*
X80338395Y-39116000D01*
X80324253Y-39101858D01*
X80503858Y-38922253D01*
X80518000Y-38936395D01*
X83039276Y-36415119D01*
X82699867Y-35953700D01*
X111356133Y-35953700D01*
X111016724Y-36415119D01*
G37*
%TD.AperFunction*%
%TD*%
M02*
