<?xml version="1.0" standalone="no"?>
 <!DOCTYPE svg PUBLIC "-//W3C//DTD SVG 1.1//EN" 
 "http://www.w3.org/Graphics/SVG/1.1/DTD/svg11.dtd"> 
<svg
  xmlns:svg="http://www.w3.org/2000/svg"
  xmlns="http://www.w3.org/2000/svg"
  xmlns:xlink="http://www.w3.org/1999/xlink"
  version="1.1"
  width="17.780000cm" height="17.780000cm" viewBox="0 0 70000 70000">
<title>SVG Picture created as M5_BuggyProject-F_Cu.svg date 2022/03/10 12:53:45 </title>
  <desc>Picture generated by PCBNEW </desc>
<g style="fill:#000000; fill-opacity:1;stroke:#000000; stroke-opacity:1;
stroke-linecap:round; stroke-linejoin:round;"
 transform="translate(0 0) scale(1 1)">
</g>
<g style="fill:#000000; fill-opacity:0.0; 
stroke:#000000; stroke-width:-0.000393701; stroke-opacity:1; 
stroke-linecap:round; stroke-linejoin:round;">
<g >
</g>
<g style="fill:#000000; fill-opacity:1.0; 
stroke:#000000; stroke-width:0; stroke-opacity:1; 
stroke-linecap:round; stroke-linejoin:round;">
<circle cx="34200" cy="29900" r="314.961" /> 
</g>
<g style="fill:#000000; fill-opacity:1.0; 
stroke:#000000; stroke-width:39.3701; stroke-opacity:1; 
stroke-linecap:round; stroke-linejoin:round;">
</g>
<g style="fill:#000000; fill-opacity:1.0; 
stroke:#000000; stroke-width:0; stroke-opacity:1; 
stroke-linecap:round; stroke-linejoin:round;">
<circle cx="34200" cy="28900" r="314.961" /> 
</g>
<g style="fill:#000000; fill-opacity:1.0; 
stroke:#000000; stroke-width:39.3701; stroke-opacity:1; 
stroke-linecap:round; stroke-linejoin:round;">
</g>
<g style="fill:#000000; fill-opacity:1.0; 
stroke:#000000; stroke-width:0; stroke-opacity:1; 
stroke-linecap:round; stroke-linejoin:round;">
<circle cx="34200" cy="27900" r="314.961" /> 
</g>
<g style="fill:#000000; fill-opacity:1.0; 
stroke:#000000; stroke-width:39.3701; stroke-opacity:1; 
stroke-linecap:round; stroke-linejoin:round;">
</g>
<g style="fill:#000000; fill-opacity:1.0; 
stroke:#000000; stroke-width:0; stroke-opacity:1; 
stroke-linecap:round; stroke-linejoin:round;">
<circle cx="34200" cy="26900" r="314.961" /> 
</g>
<g style="fill:#000000; fill-opacity:1.0; 
stroke:#000000; stroke-width:39.3701; stroke-opacity:1; 
stroke-linecap:round; stroke-linejoin:round;">
</g>
<g style="fill:#000000; fill-opacity:1.0; 
stroke:#000000; stroke-width:0; stroke-opacity:1; 
stroke-linecap:round; stroke-linejoin:round;">
<circle cx="34200" cy="25900" r="314.961" /> 
</g>
<g style="fill:#000000; fill-opacity:1.0; 
stroke:#000000; stroke-width:39.3701; stroke-opacity:1; 
stroke-linecap:round; stroke-linejoin:round;">
</g>
<g style="fill:#000000; fill-opacity:1.0; 
stroke:#000000; stroke-width:0; stroke-opacity:1; 
stroke-linecap:round; stroke-linejoin:round;">
<circle cx="34200" cy="24900" r="314.961" /> 
</g>
<g style="fill:#000000; fill-opacity:1.0; 
stroke:#000000; stroke-width:39.3701; stroke-opacity:1; 
stroke-linecap:round; stroke-linejoin:round;">
</g>
<g style="fill:#000000; fill-opacity:1.0; 
stroke:#000000; stroke-width:0; stroke-opacity:1; 
stroke-linecap:round; stroke-linejoin:round;">
<circle cx="34200" cy="23900" r="314.961" /> 
</g>
<g style="fill:#000000; fill-opacity:1.0; 
stroke:#000000; stroke-width:39.3701; stroke-opacity:1; 
stroke-linecap:round; stroke-linejoin:round;">
</g>
<g style="fill:#000000; fill-opacity:1.0; 
stroke:#000000; stroke-width:0; stroke-opacity:1; 
stroke-linecap:round; stroke-linejoin:round;">
<circle cx="34200" cy="22900" r="314.961" /> 
</g>
<g style="fill:#000000; fill-opacity:1.0; 
stroke:#000000; stroke-width:39.3701; stroke-opacity:1; 
stroke-linecap:round; stroke-linejoin:round;">
</g>
<g style="fill:#000000; fill-opacity:1.0; 
stroke:#000000; stroke-width:0; stroke-opacity:1; 
stroke-linecap:round; stroke-linejoin:round;">
<circle cx="34200" cy="21900" r="314.961" /> 
</g>
<g style="fill:#000000; fill-opacity:1.0; 
stroke:#000000; stroke-width:39.3701; stroke-opacity:1; 
stroke-linecap:round; stroke-linejoin:round;">
</g>
<g style="fill:#000000; fill-opacity:1.0; 
stroke:#000000; stroke-width:0; stroke-opacity:1; 
stroke-linecap:round; stroke-linejoin:round;">
<circle cx="34200" cy="20900" r="314.961" /> 
</g>
<g style="fill:#000000; fill-opacity:1.0; 
stroke:#000000; stroke-width:39.3701; stroke-opacity:1; 
stroke-linecap:round; stroke-linejoin:round;">
</g>
<g style="fill:#000000; fill-opacity:1.0; 
stroke:#000000; stroke-width:0; stroke-opacity:1; 
stroke-linecap:round; stroke-linejoin:round;">
<circle cx="34200" cy="19900" r="314.961" /> 
</g>
<g style="fill:#000000; fill-opacity:1.0; 
stroke:#000000; stroke-width:39.3701; stroke-opacity:1; 
stroke-linecap:round; stroke-linejoin:round;">
</g>
<g style="fill:#000000; fill-opacity:1.0; 
stroke:#000000; stroke-width:0; stroke-opacity:1; 
stroke-linecap:round; stroke-linejoin:round;">
<circle cx="34200" cy="18900" r="314.961" /> 
</g>
<g style="fill:#000000; fill-opacity:1.0; 
stroke:#000000; stroke-width:39.3701; stroke-opacity:1; 
stroke-linecap:round; stroke-linejoin:round;">
</g>
<g style="fill:#000000; fill-opacity:1.0; 
stroke:#000000; stroke-width:0; stroke-opacity:1; 
stroke-linecap:round; stroke-linejoin:round;">
<circle cx="34200" cy="17900" r="314.961" /> 
</g>
<g style="fill:#000000; fill-opacity:1.0; 
stroke:#000000; stroke-width:39.3701; stroke-opacity:1; 
stroke-linecap:round; stroke-linejoin:round;">
</g>
<g style="fill:#000000; fill-opacity:1.0; 
stroke:#000000; stroke-width:0; stroke-opacity:1; 
stroke-linecap:round; stroke-linejoin:round;">
<circle cx="34200" cy="16900" r="314.961" /> 
</g>
<g style="fill:#000000; fill-opacity:1.0; 
stroke:#000000; stroke-width:39.3701; stroke-opacity:1; 
stroke-linecap:round; stroke-linejoin:round;">
</g>
<g style="fill:#000000; fill-opacity:1.0; 
stroke:#000000; stroke-width:0; stroke-opacity:1; 
stroke-linecap:round; stroke-linejoin:round;">
<circle cx="34200" cy="15900" r="314.961" /> 
</g>
<g style="fill:#000000; fill-opacity:1.0; 
stroke:#000000; stroke-width:39.3701; stroke-opacity:1; 
stroke-linecap:round; stroke-linejoin:round;">
</g>
<g style="fill:#000000; fill-opacity:1.0; 
stroke:#000000; stroke-width:0; stroke-opacity:1; 
stroke-linecap:round; stroke-linejoin:round;">
<path style="fill:#000000; fill-opacity:1.0; 
stroke:#000000; stroke-width:0; stroke-opacity:1; 
stroke-linecap:round; stroke-linejoin:round;fill-rule:evenodd;"
d="M 34515,14585
34515,15215
33885,15215
33885,14585
Z" /> 
<circle cx="42200" cy="18900" r="314.961" /> 
</g>
<g style="fill:#000000; fill-opacity:1.0; 
stroke:#000000; stroke-width:39.3701; stroke-opacity:1; 
stroke-linecap:round; stroke-linejoin:round;">
</g>
<g style="fill:#000000; fill-opacity:1.0; 
stroke:#000000; stroke-width:0; stroke-opacity:1; 
stroke-linecap:round; stroke-linejoin:round;">
<circle cx="42200" cy="19900" r="314.961" /> 
</g>
<g style="fill:#000000; fill-opacity:1.0; 
stroke:#000000; stroke-width:39.3701; stroke-opacity:1; 
stroke-linecap:round; stroke-linejoin:round;">
</g>
<g style="fill:#000000; fill-opacity:1.0; 
stroke:#000000; stroke-width:0; stroke-opacity:1; 
stroke-linecap:round; stroke-linejoin:round;">
<circle cx="42200" cy="20900" r="314.961" /> 
</g>
<g style="fill:#000000; fill-opacity:1.0; 
stroke:#000000; stroke-width:39.3701; stroke-opacity:1; 
stroke-linecap:round; stroke-linejoin:round;">
</g>
<g style="fill:#000000; fill-opacity:1.0; 
stroke:#000000; stroke-width:0; stroke-opacity:1; 
stroke-linecap:round; stroke-linejoin:round;">
<circle cx="42200" cy="21900" r="314.961" /> 
</g>
<g style="fill:#000000; fill-opacity:1.0; 
stroke:#000000; stroke-width:39.3701; stroke-opacity:1; 
stroke-linecap:round; stroke-linejoin:round;">
</g>
<g style="fill:#000000; fill-opacity:1.0; 
stroke:#000000; stroke-width:0; stroke-opacity:1; 
stroke-linecap:round; stroke-linejoin:round;">
<circle cx="42200" cy="22900" r="314.961" /> 
</g>
<g style="fill:#000000; fill-opacity:1.0; 
stroke:#000000; stroke-width:39.3701; stroke-opacity:1; 
stroke-linecap:round; stroke-linejoin:round;">
</g>
<g style="fill:#000000; fill-opacity:1.0; 
stroke:#000000; stroke-width:0; stroke-opacity:1; 
stroke-linecap:round; stroke-linejoin:round;">
<circle cx="42200" cy="23900" r="314.961" /> 
</g>
<g style="fill:#000000; fill-opacity:1.0; 
stroke:#000000; stroke-width:39.3701; stroke-opacity:1; 
stroke-linecap:round; stroke-linejoin:round;">
</g>
<g style="fill:#000000; fill-opacity:1.0; 
stroke:#000000; stroke-width:0; stroke-opacity:1; 
stroke-linecap:round; stroke-linejoin:round;">
<circle cx="42200" cy="24900" r="314.961" /> 
</g>
<g style="fill:#000000; fill-opacity:1.0; 
stroke:#000000; stroke-width:39.3701; stroke-opacity:1; 
stroke-linecap:round; stroke-linejoin:round;">
</g>
<g style="fill:#000000; fill-opacity:1.0; 
stroke:#000000; stroke-width:0; stroke-opacity:1; 
stroke-linecap:round; stroke-linejoin:round;">
<circle cx="42200" cy="25900" r="314.961" /> 
</g>
<g style="fill:#000000; fill-opacity:1.0; 
stroke:#000000; stroke-width:39.3701; stroke-opacity:1; 
stroke-linecap:round; stroke-linejoin:round;">
</g>
<g style="fill:#000000; fill-opacity:1.0; 
stroke:#000000; stroke-width:0; stroke-opacity:1; 
stroke-linecap:round; stroke-linejoin:round;">
<circle cx="42200" cy="26900" r="314.961" /> 
</g>
<g style="fill:#000000; fill-opacity:1.0; 
stroke:#000000; stroke-width:39.3701; stroke-opacity:1; 
stroke-linecap:round; stroke-linejoin:round;">
</g>
<g style="fill:#000000; fill-opacity:1.0; 
stroke:#000000; stroke-width:0; stroke-opacity:1; 
stroke-linecap:round; stroke-linejoin:round;">
<circle cx="42200" cy="27900" r="314.961" /> 
</g>
<g style="fill:#000000; fill-opacity:1.0; 
stroke:#000000; stroke-width:39.3701; stroke-opacity:1; 
stroke-linecap:round; stroke-linejoin:round;">
</g>
<g style="fill:#000000; fill-opacity:1.0; 
stroke:#000000; stroke-width:0; stroke-opacity:1; 
stroke-linecap:round; stroke-linejoin:round;">
<circle cx="42200" cy="28900" r="314.961" /> 
</g>
<g style="fill:#000000; fill-opacity:1.0; 
stroke:#000000; stroke-width:39.3701; stroke-opacity:1; 
stroke-linecap:round; stroke-linejoin:round;">
</g>
<g style="fill:#000000; fill-opacity:1.0; 
stroke:#000000; stroke-width:0; stroke-opacity:1; 
stroke-linecap:round; stroke-linejoin:round;">
<circle cx="42200" cy="29900" r="314.961" /> 
</g>
<g style="fill:#000000; fill-opacity:1.0; 
stroke:#000000; stroke-width:39.3701; stroke-opacity:1; 
stroke-linecap:round; stroke-linejoin:round;">
</g>
<g >
</g>
<g >
</g>
<g >
</g>
<g style="fill:#000000; fill-opacity:1.0; 
stroke:#000000; stroke-width:39.3701; stroke-opacity:1; 
stroke-linecap:round; stroke-linejoin:round;">
</g>
<g style="fill:#000000; fill-opacity:1.0; 
stroke:#000000; stroke-width:0; stroke-opacity:1; 
stroke-linecap:round; stroke-linejoin:round;">
<path style="fill:#000000; fill-opacity:1.0; 
stroke:#000000; stroke-width:0; stroke-opacity:1; 
stroke-linecap:round; stroke-linejoin:round;fill-rule:evenodd;"
d="M 31534.6,37565.4
31534.6,38234.6
30865.4,38234.6
30865.4,37565.4
Z" /> 
<circle cx="31200" cy="36900" r="334.646" /> 
<circle cx="31200" cy="35900" r="334.646" /> 
<circle cx="31200" cy="34900" r="334.646" /> 
</g>
<g >
</g>
<g style="fill:#000000; fill-opacity:1.0; 
stroke:#000000; stroke-width:0; stroke-opacity:1; 
stroke-linecap:round; stroke-linejoin:round;">
<path style="fill:#000000; fill-opacity:1.0; 
stroke:#000000; stroke-width:0; stroke-opacity:1; 
stroke-linecap:round; stroke-linejoin:round;fill-rule:evenodd;"
d="M 37306.3,41506.3
38093.7,41506.3
38093.7,42293.7
37306.3,42293.7
Z" /> 
<circle cx="37700" cy="43868.5" r="393.701" /> 
</g>
<g style="fill:#000000; fill-opacity:1.0; 
stroke:#000000; stroke-width:39.3701; stroke-opacity:1; 
stroke-linecap:round; stroke-linejoin:round;">
</g>
<g >
</g>
<g style="fill:#000000; fill-opacity:1.0; 
stroke:#000000; stroke-width:39.3701; stroke-opacity:1; 
stroke-linecap:round; stroke-linejoin:round;">
</g>
<g style="fill:#000000; fill-opacity:1.0; 
stroke:#000000; stroke-width:0; stroke-opacity:1; 
stroke-linecap:round; stroke-linejoin:round;">
<path style="fill:#000000; fill-opacity:1.0; 
stroke:#000000; stroke-width:0; stroke-opacity:1; 
stroke-linecap:round; stroke-linejoin:round;fill-rule:evenodd;"
d="M 29756.9,41556
29766.4,41557.4
29775.8,41559.8
29784.9,41563
29793.6,41567.1
29801.9,41572.1
29809.7,41577.9
29816.8,41584.3
29823.3,41591.5
29829.1,41599.3
29834,41607.5
29838.2,41616.3
29841.4,41625.4
29843.8,41634.7
29845.2,41644.3
29845.7,41653.9
29845.7,42146.1
29845.2,42155.7
29843.8,42165.3
29841.4,42174.6
29838.2,42183.7
29834,42192.5
29829.1,42200.7
29823.3,42208.5
29816.8,42215.7
29809.7,42222.1
29801.9,42227.9
29793.6,42232.9
29784.9,42237
29775.8,42240.2
29766.4,42242.6
29756.9,42244
29747.2,42244.5
29501.2,42244.5
29491.5,42244
29482,42242.6
29472.6,42240.2
29463.5,42237
29454.8,42232.9
29446.5,42227.9
29438.7,42222.1
29431.6,42215.7
29425.1,42208.5
29419.3,42200.7
29414.4,42192.5
29410.2,42183.7
29407,42174.6
29404.6,42165.3
29403.2,42155.7
29402.8,42146.1
29402.8,41653.9
29403.2,41644.3
29404.6,41634.7
29407,41625.4
29410.2,41616.3
29414.4,41607.5
29419.3,41599.3
29425.1,41591.5
29431.6,41584.3
29438.7,41577.9
29446.5,41572.1
29454.8,41567.1
29463.5,41563
29472.6,41559.8
29482,41557.4
29491.5,41556
29501.2,41555.5
29747.2,41555.5
Z" /> 
<path style="fill:#000000; fill-opacity:1.0; 
stroke:#000000; stroke-width:0; stroke-opacity:1; 
stroke-linecap:round; stroke-linejoin:round;fill-rule:evenodd;"
d="M 30908.5,41556
30918,41557.4
30927.4,41559.8
30936.5,41563
30945.2,41567.1
30953.5,41572.1
30961.3,41577.9
30968.4,41584.3
30974.9,41591.5
30980.7,41599.3
30985.6,41607.5
30989.8,41616.3
30993,41625.4
30995.4,41634.7
30996.8,41644.3
30997.2,41653.9
30997.2,42146.1
30996.8,42155.7
30995.4,42165.3
30993,42174.6
30989.8,42183.7
30985.6,42192.5
30980.7,42200.7
30974.9,42208.5
30968.4,42215.7
30961.3,42222.1
30953.5,42227.9
30945.2,42232.9
30936.5,42237
30927.4,42240.2
30918,42242.6
30908.5,42244
30898.8,42244.5
30652.8,42244.5
30643.1,42244
30633.6,42242.6
30624.2,42240.2
30615.1,42237
30606.4,42232.9
30598.1,42227.9
30590.3,42222.1
30583.2,42215.7
30576.7,42208.5
30570.9,42200.7
30566,42192.5
30561.8,42183.7
30558.6,42174.6
30556.2,42165.3
30554.8,42155.7
30554.3,42146.1
30554.3,41653.9
30554.8,41644.3
30556.2,41634.7
30558.6,41625.4
30561.8,41616.3
30566,41607.5
30570.9,41599.3
30576.7,41591.5
30583.2,41584.3
30590.3,41577.9
30598.1,41572.1
30606.4,41567.1
30615.1,41563
30624.2,41559.8
30633.6,41557.4
30643.1,41556
30652.8,41555.5
30898.8,41555.5
Z" /> 
</g>
<g >
</g>
<g style="fill:#000000; fill-opacity:1.0; 
stroke:#000000; stroke-width:0; stroke-opacity:1; 
stroke-linecap:round; stroke-linejoin:round;">
<path style="fill:#000000; fill-opacity:1.0; 
stroke:#000000; stroke-width:0; stroke-opacity:1; 
stroke-linecap:round; stroke-linejoin:round;fill-rule:evenodd;"
d="M 40296.3,41940.9
41083.7,41940.9
41083.7,42728.3
40296.3,42728.3
Z" /> 
<circle cx="40690" cy="44334.6" r="393.701" /> 
</g>
<g >
</g>
<g style="fill:#000000; fill-opacity:1.0; 
stroke:#000000; stroke-width:0; stroke-opacity:1; 
stroke-linecap:round; stroke-linejoin:round;">
<circle cx="31200" cy="26900" r="334.646" /> 
<circle cx="31200" cy="27900" r="334.646" /> 
<circle cx="31200" cy="28900" r="334.646" /> 
<path style="fill:#000000; fill-opacity:1.0; 
stroke:#000000; stroke-width:0; stroke-opacity:1; 
stroke-linecap:round; stroke-linejoin:round;fill-rule:evenodd;"
d="M 31534.6,29565.4
31534.6,30234.6
30865.4,30234.6
30865.4,29565.4
Z" /> 
</g>
<g >
</g>
<g style="fill:#000000; fill-opacity:1.0; 
stroke:#000000; stroke-width:0; stroke-opacity:1; 
stroke-linecap:round; stroke-linejoin:round;">
<circle cx="45200" cy="37900" r="334.646" /> 
<circle cx="45200" cy="36900" r="334.646" /> 
<circle cx="45200" cy="35900" r="334.646" /> 
<path style="fill:#000000; fill-opacity:1.0; 
stroke:#000000; stroke-width:0; stroke-opacity:1; 
stroke-linecap:round; stroke-linejoin:round;fill-rule:evenodd;"
d="M 44865.4,35234.6
44865.4,34565.4
45534.6,34565.4
45534.6,35234.6
Z" /> 
</g>
<g >
</g>
<g style="fill:#000000; fill-opacity:1.0; 
stroke:#000000; stroke-width:0; stroke-opacity:1; 
stroke-linecap:round; stroke-linejoin:round;">
<circle cx="45158.7" cy="21900" r="334.646" /> 
<circle cx="45158.7" cy="20900" r="334.646" /> 
<circle cx="45158.7" cy="19900" r="334.646" /> 
<path style="fill:#000000; fill-opacity:1.0; 
stroke:#000000; stroke-width:0; stroke-opacity:1; 
stroke-linecap:round; stroke-linejoin:round;fill-rule:evenodd;"
d="M 44824,19234.6
44824,18565.4
45493.3,18565.4
45493.3,19234.6
Z" /> 
</g>
<g >
</g>
<g style="fill:#000000; fill-opacity:1.0; 
stroke:#000000; stroke-width:0; stroke-opacity:1; 
stroke-linecap:round; stroke-linejoin:round;">
<path style="fill:#000000; fill-opacity:1.0; 
stroke:#000000; stroke-width:0; stroke-opacity:1; 
stroke-linecap:round; stroke-linejoin:round;fill-rule:evenodd;"
d="M 44865.4,27234.6
44865.4,26565.4
45534.6,26565.4
45534.6,27234.6
Z" /> 
<circle cx="45200" cy="27900" r="334.646" /> 
<circle cx="45200" cy="28900" r="334.646" /> 
<circle cx="45200" cy="29900" r="334.646" /> 
</g>
<g >
</g>
<g style="fill:#000000; fill-opacity:1.0; 
stroke:#000000; stroke-width:0; stroke-opacity:1; 
stroke-linecap:round; stroke-linejoin:round;">
<path style="fill:#000000; fill-opacity:1.0; 
stroke:#000000; stroke-width:0; stroke-opacity:1; 
stroke-linecap:round; stroke-linejoin:round;fill-rule:evenodd;"
d="M 31534.6,21565.4
31534.6,22234.6
30865.4,22234.6
30865.4,21565.4
Z" /> 
<circle cx="31200" cy="20900" r="334.646" /> 
<circle cx="31200" cy="19900" r="334.646" /> 
<circle cx="31200" cy="18900" r="334.646" /> 
</g>
<g >
</g>
<g style="fill:#000000; fill-opacity:1.0; 
stroke:#000000; stroke-width:0; stroke-opacity:1; 
stroke-linecap:round; stroke-linejoin:round;">
<circle cx="45200" cy="44234.6" r="1181.1" /> 
</g>
<g style="fill:#000000; fill-opacity:1.0; 
stroke:#000000; stroke-width:39.3701; stroke-opacity:1; 
stroke-linecap:round; stroke-linejoin:round;">
</g>
<g style="fill:#000000; fill-opacity:1.0; 
stroke:#000000; stroke-width:0; stroke-opacity:1; 
stroke-linecap:round; stroke-linejoin:round;">
<path style="fill:#000000; fill-opacity:1.0; 
stroke:#000000; stroke-width:0; stroke-opacity:1; 
stroke-linecap:round; stroke-linejoin:round;fill-rule:evenodd;"
d="M 45848.4,40221.7
45905.8,40230.2
45962,40244.3
46016.5,40263.9
46068.9,40288.6
46118.6,40318.4
46165.2,40352.9
46208.1,40391.9
46247.1,40434.8
46281.6,40481.4
46311.4,40531.1
46336.1,40583.5
46355.7,40638
46369.8,40694.2
46378.3,40751.6
46381.1,40809.4
46381.1,41990.6
46378.3,42048.4
46369.8,42105.8
46355.7,42162
46336.1,42216.5
46311.4,42268.9
46281.6,42318.6
46247.1,42365.2
46208.1,42408.1
46165.2,42447.1
46118.6,42481.6
46068.9,42511.4
46016.5,42536.1
45962,42555.7
45905.8,42569.8
45848.4,42578.3
45790.6,42581.1
44609.4,42581.1
44551.6,42578.3
44494.2,42569.8
44438,42555.7
44383.5,42536.1
44331.1,42511.4
44281.4,42481.6
44234.8,42447.1
44191.9,42408.1
44152.9,42365.2
44118.4,42318.6
44088.6,42268.9
44063.9,42216.5
44044.3,42162
44030.2,42105.8
44021.7,42048.4
44018.9,41990.6
44018.9,40809.4
44021.7,40751.6
44030.2,40694.2
44044.3,40638
44063.9,40583.5
44088.6,40531.1
44118.4,40481.4
44152.9,40434.8
44191.9,40391.9
44234.8,40352.9
44281.4,40318.4
44331.1,40288.6
44383.5,40263.9
44438,40244.3
44494.2,40230.2
44551.6,40221.7
44609.4,40218.9
45790.6,40218.9
Z" /> 
</g>
<g >
</g>
<g style="fill:#000000; fill-opacity:1.0; 
stroke:#000000; stroke-width:0; stroke-opacity:1; 
stroke-linecap:round; stroke-linejoin:round;">
<path style="fill:#000000; fill-opacity:1.0; 
stroke:#000000; stroke-width:0; stroke-opacity:1; 
stroke-linecap:round; stroke-linejoin:round;fill-rule:evenodd;"
d="M 33404.7,41565.4
33404.7,42234.6
32420.5,42234.6
32420.5,41565.4
Z" /> 
<path style="fill:#000000; fill-opacity:1.0; 
stroke:#000000; stroke-width:0; stroke-opacity:1; 
stroke-linecap:round; stroke-linejoin:round;fill-rule:evenodd;"
d="M 34979.5,41565.4
34979.5,42234.6
33995.3,42234.6
33995.3,41565.4
Z" /> 
</g>
<g >
</g>
<g style="fill:#000000; fill-opacity:1.0; 
stroke:#000000; stroke-width:0; stroke-opacity:1; 
stroke-linecap:round; stroke-linejoin:round;">
<circle cx="29700" cy="11900" r="1259.84" /> 
</g>
<g style="fill:#000000; fill-opacity:1.0; 
stroke:#000000; stroke-width:39.3701; stroke-opacity:1; 
stroke-linecap:round; stroke-linejoin:round;">
</g>
<g style="fill:#000000; fill-opacity:1.0; 
stroke:#000000; stroke-width:0; stroke-opacity:1; 
stroke-linecap:round; stroke-linejoin:round;">
<circle cx="30644.9" cy="11900" r="157.48" /> 
</g>
<g style="fill:#000000; fill-opacity:1.0; 
stroke:#000000; stroke-width:39.3701; stroke-opacity:1; 
stroke-linecap:round; stroke-linejoin:round;">
</g>
<g style="fill:#000000; fill-opacity:1.0; 
stroke:#000000; stroke-width:0; stroke-opacity:1; 
stroke-linecap:round; stroke-linejoin:round;">
<circle cx="30368.1" cy="12568.1" r="157.48" /> 
</g>
<g style="fill:#000000; fill-opacity:1.0; 
stroke:#000000; stroke-width:39.3701; stroke-opacity:1; 
stroke-linecap:round; stroke-linejoin:round;">
</g>
<g style="fill:#000000; fill-opacity:1.0; 
stroke:#000000; stroke-width:0; stroke-opacity:1; 
stroke-linecap:round; stroke-linejoin:round;">
<circle cx="29700" cy="12844.9" r="157.48" /> 
</g>
<g style="fill:#000000; fill-opacity:1.0; 
stroke:#000000; stroke-width:39.3701; stroke-opacity:1; 
stroke-linecap:round; stroke-linejoin:round;">
</g>
<g style="fill:#000000; fill-opacity:1.0; 
stroke:#000000; stroke-width:0; stroke-opacity:1; 
stroke-linecap:round; stroke-linejoin:round;">
<circle cx="29031.9" cy="12568.1" r="157.48" /> 
</g>
<g style="fill:#000000; fill-opacity:1.0; 
stroke:#000000; stroke-width:39.3701; stroke-opacity:1; 
stroke-linecap:round; stroke-linejoin:round;">
</g>
<g style="fill:#000000; fill-opacity:1.0; 
stroke:#000000; stroke-width:0; stroke-opacity:1; 
stroke-linecap:round; stroke-linejoin:round;">
<circle cx="28755.1" cy="11900" r="157.48" /> 
</g>
<g style="fill:#000000; fill-opacity:1.0; 
stroke:#000000; stroke-width:39.3701; stroke-opacity:1; 
stroke-linecap:round; stroke-linejoin:round;">
</g>
<g style="fill:#000000; fill-opacity:1.0; 
stroke:#000000; stroke-width:0; stroke-opacity:1; 
stroke-linecap:round; stroke-linejoin:round;">
<circle cx="29031.9" cy="11231.9" r="157.48" /> 
</g>
<g style="fill:#000000; fill-opacity:1.0; 
stroke:#000000; stroke-width:39.3701; stroke-opacity:1; 
stroke-linecap:round; stroke-linejoin:round;">
</g>
<g style="fill:#000000; fill-opacity:1.0; 
stroke:#000000; stroke-width:0; stroke-opacity:1; 
stroke-linecap:round; stroke-linejoin:round;">
<circle cx="29700" cy="10955.1" r="157.48" /> 
</g>
<g style="fill:#000000; fill-opacity:1.0; 
stroke:#000000; stroke-width:39.3701; stroke-opacity:1; 
stroke-linecap:round; stroke-linejoin:round;">
</g>
<g style="fill:#000000; fill-opacity:1.0; 
stroke:#000000; stroke-width:0; stroke-opacity:1; 
stroke-linecap:round; stroke-linejoin:round;">
<circle cx="30368.1" cy="11231.9" r="157.48" /> 
</g>
<g style="fill:#000000; fill-opacity:1.0; 
stroke:#000000; stroke-width:39.3701; stroke-opacity:1; 
stroke-linecap:round; stroke-linejoin:round;">
</g>
<g >
</g>
<g style="fill:#000000; fill-opacity:1.0; 
stroke:#000000; stroke-width:39.3701; stroke-opacity:1; 
stroke-linecap:round; stroke-linejoin:round;">
</g>
<g style="fill:#000000; fill-opacity:1.0; 
stroke:#000000; stroke-width:0; stroke-opacity:1; 
stroke-linecap:round; stroke-linejoin:round;">
<circle cx="47368.1" cy="11231.9" r="157.48" /> 
</g>
<g style="fill:#000000; fill-opacity:1.0; 
stroke:#000000; stroke-width:39.3701; stroke-opacity:1; 
stroke-linecap:round; stroke-linejoin:round;">
</g>
<g style="fill:#000000; fill-opacity:1.0; 
stroke:#000000; stroke-width:0; stroke-opacity:1; 
stroke-linecap:round; stroke-linejoin:round;">
<circle cx="46700" cy="10955.1" r="157.48" /> 
</g>
<g style="fill:#000000; fill-opacity:1.0; 
stroke:#000000; stroke-width:39.3701; stroke-opacity:1; 
stroke-linecap:round; stroke-linejoin:round;">
</g>
<g style="fill:#000000; fill-opacity:1.0; 
stroke:#000000; stroke-width:0; stroke-opacity:1; 
stroke-linecap:round; stroke-linejoin:round;">
<circle cx="46031.9" cy="11231.9" r="157.48" /> 
</g>
<g style="fill:#000000; fill-opacity:1.0; 
stroke:#000000; stroke-width:39.3701; stroke-opacity:1; 
stroke-linecap:round; stroke-linejoin:round;">
</g>
<g style="fill:#000000; fill-opacity:1.0; 
stroke:#000000; stroke-width:0; stroke-opacity:1; 
stroke-linecap:round; stroke-linejoin:round;">
<circle cx="45755.1" cy="11900" r="157.48" /> 
</g>
<g style="fill:#000000; fill-opacity:1.0; 
stroke:#000000; stroke-width:39.3701; stroke-opacity:1; 
stroke-linecap:round; stroke-linejoin:round;">
</g>
<g style="fill:#000000; fill-opacity:1.0; 
stroke:#000000; stroke-width:0; stroke-opacity:1; 
stroke-linecap:round; stroke-linejoin:round;">
<circle cx="46031.9" cy="12568.1" r="157.48" /> 
</g>
<g style="fill:#000000; fill-opacity:1.0; 
stroke:#000000; stroke-width:39.3701; stroke-opacity:1; 
stroke-linecap:round; stroke-linejoin:round;">
</g>
<g style="fill:#000000; fill-opacity:1.0; 
stroke:#000000; stroke-width:0; stroke-opacity:1; 
stroke-linecap:round; stroke-linejoin:round;">
<circle cx="46700" cy="12844.9" r="157.48" /> 
</g>
<g style="fill:#000000; fill-opacity:1.0; 
stroke:#000000; stroke-width:39.3701; stroke-opacity:1; 
stroke-linecap:round; stroke-linejoin:round;">
</g>
<g style="fill:#000000; fill-opacity:1.0; 
stroke:#000000; stroke-width:0; stroke-opacity:1; 
stroke-linecap:round; stroke-linejoin:round;">
<circle cx="47368.1" cy="12568.1" r="157.48" /> 
</g>
<g style="fill:#000000; fill-opacity:1.0; 
stroke:#000000; stroke-width:39.3701; stroke-opacity:1; 
stroke-linecap:round; stroke-linejoin:round;">
</g>
<g style="fill:#000000; fill-opacity:1.0; 
stroke:#000000; stroke-width:0; stroke-opacity:1; 
stroke-linecap:round; stroke-linejoin:round;">
<circle cx="47644.9" cy="11900" r="157.48" /> 
</g>
<g style="fill:#000000; fill-opacity:1.0; 
stroke:#000000; stroke-width:39.3701; stroke-opacity:1; 
stroke-linecap:round; stroke-linejoin:round;">
</g>
<g style="fill:#000000; fill-opacity:1.0; 
stroke:#000000; stroke-width:0; stroke-opacity:1; 
stroke-linecap:round; stroke-linejoin:round;">
<circle cx="46700" cy="11900" r="1259.84" /> 
</g>
<g style="fill:#000000; fill-opacity:1.0; 
stroke:#000000; stroke-width:39.3701; stroke-opacity:1; 
stroke-linecap:round; stroke-linejoin:round;">
</g>
<g >
</g>
<g style="fill:#000000; fill-opacity:1.0; 
stroke:#000000; stroke-width:39.3701; stroke-opacity:1; 
stroke-linecap:round; stroke-linejoin:round;">
</g>
<g style="fill:#000000; fill-opacity:1.0; 
stroke:#000000; stroke-width:0; stroke-opacity:1; 
stroke-linecap:round; stroke-linejoin:round;">
<circle cx="47368.1" cy="47231.9" r="157.48" /> 
</g>
<g style="fill:#000000; fill-opacity:1.0; 
stroke:#000000; stroke-width:39.3701; stroke-opacity:1; 
stroke-linecap:round; stroke-linejoin:round;">
</g>
<g style="fill:#000000; fill-opacity:1.0; 
stroke:#000000; stroke-width:0; stroke-opacity:1; 
stroke-linecap:round; stroke-linejoin:round;">
<circle cx="46700" cy="46955.1" r="157.48" /> 
</g>
<g style="fill:#000000; fill-opacity:1.0; 
stroke:#000000; stroke-width:39.3701; stroke-opacity:1; 
stroke-linecap:round; stroke-linejoin:round;">
</g>
<g style="fill:#000000; fill-opacity:1.0; 
stroke:#000000; stroke-width:0; stroke-opacity:1; 
stroke-linecap:round; stroke-linejoin:round;">
<circle cx="46031.9" cy="47231.9" r="157.48" /> 
</g>
<g style="fill:#000000; fill-opacity:1.0; 
stroke:#000000; stroke-width:39.3701; stroke-opacity:1; 
stroke-linecap:round; stroke-linejoin:round;">
</g>
<g style="fill:#000000; fill-opacity:1.0; 
stroke:#000000; stroke-width:0; stroke-opacity:1; 
stroke-linecap:round; stroke-linejoin:round;">
<circle cx="45755.1" cy="47900" r="157.48" /> 
</g>
<g style="fill:#000000; fill-opacity:1.0; 
stroke:#000000; stroke-width:39.3701; stroke-opacity:1; 
stroke-linecap:round; stroke-linejoin:round;">
</g>
<g style="fill:#000000; fill-opacity:1.0; 
stroke:#000000; stroke-width:0; stroke-opacity:1; 
stroke-linecap:round; stroke-linejoin:round;">
<circle cx="46031.9" cy="48568.1" r="157.48" /> 
</g>
<g style="fill:#000000; fill-opacity:1.0; 
stroke:#000000; stroke-width:39.3701; stroke-opacity:1; 
stroke-linecap:round; stroke-linejoin:round;">
</g>
<g style="fill:#000000; fill-opacity:1.0; 
stroke:#000000; stroke-width:0; stroke-opacity:1; 
stroke-linecap:round; stroke-linejoin:round;">
<circle cx="46700" cy="48844.9" r="157.48" /> 
</g>
<g style="fill:#000000; fill-opacity:1.0; 
stroke:#000000; stroke-width:39.3701; stroke-opacity:1; 
stroke-linecap:round; stroke-linejoin:round;">
</g>
<g style="fill:#000000; fill-opacity:1.0; 
stroke:#000000; stroke-width:0; stroke-opacity:1; 
stroke-linecap:round; stroke-linejoin:round;">
<circle cx="47368.1" cy="48568.1" r="157.48" /> 
</g>
<g style="fill:#000000; fill-opacity:1.0; 
stroke:#000000; stroke-width:39.3701; stroke-opacity:1; 
stroke-linecap:round; stroke-linejoin:round;">
</g>
<g style="fill:#000000; fill-opacity:1.0; 
stroke:#000000; stroke-width:0; stroke-opacity:1; 
stroke-linecap:round; stroke-linejoin:round;">
<circle cx="47644.9" cy="47900" r="157.48" /> 
</g>
<g style="fill:#000000; fill-opacity:1.0; 
stroke:#000000; stroke-width:39.3701; stroke-opacity:1; 
stroke-linecap:round; stroke-linejoin:round;">
</g>
<g style="fill:#000000; fill-opacity:1.0; 
stroke:#000000; stroke-width:0; stroke-opacity:1; 
stroke-linecap:round; stroke-linejoin:round;">
<circle cx="46700" cy="47900" r="1259.84" /> 
</g>
<g style="fill:#000000; fill-opacity:1.0; 
stroke:#000000; stroke-width:39.3701; stroke-opacity:1; 
stroke-linecap:round; stroke-linejoin:round;">
</g>
<g >
</g>
<g style="fill:#000000; fill-opacity:1.0; 
stroke:#000000; stroke-width:39.3701; stroke-opacity:1; 
stroke-linecap:round; stroke-linejoin:round;">
</g>
<g style="fill:#000000; fill-opacity:1.0; 
stroke:#000000; stroke-width:0; stroke-opacity:1; 
stroke-linecap:round; stroke-linejoin:round;">
<circle cx="29700" cy="47900" r="1259.84" /> 
</g>
<g style="fill:#000000; fill-opacity:1.0; 
stroke:#000000; stroke-width:39.3701; stroke-opacity:1; 
stroke-linecap:round; stroke-linejoin:round;">
</g>
<g style="fill:#000000; fill-opacity:1.0; 
stroke:#000000; stroke-width:0; stroke-opacity:1; 
stroke-linecap:round; stroke-linejoin:round;">
<circle cx="30644.9" cy="47900" r="157.48" /> 
</g>
<g style="fill:#000000; fill-opacity:1.0; 
stroke:#000000; stroke-width:39.3701; stroke-opacity:1; 
stroke-linecap:round; stroke-linejoin:round;">
</g>
<g style="fill:#000000; fill-opacity:1.0; 
stroke:#000000; stroke-width:0; stroke-opacity:1; 
stroke-linecap:round; stroke-linejoin:round;">
<circle cx="30368.1" cy="48568.1" r="157.48" /> 
</g>
<g style="fill:#000000; fill-opacity:1.0; 
stroke:#000000; stroke-width:39.3701; stroke-opacity:1; 
stroke-linecap:round; stroke-linejoin:round;">
</g>
<g style="fill:#000000; fill-opacity:1.0; 
stroke:#000000; stroke-width:0; stroke-opacity:1; 
stroke-linecap:round; stroke-linejoin:round;">
<circle cx="29700" cy="48844.9" r="157.48" /> 
</g>
<g style="fill:#000000; fill-opacity:1.0; 
stroke:#000000; stroke-width:39.3701; stroke-opacity:1; 
stroke-linecap:round; stroke-linejoin:round;">
</g>
<g style="fill:#000000; fill-opacity:1.0; 
stroke:#000000; stroke-width:0; stroke-opacity:1; 
stroke-linecap:round; stroke-linejoin:round;">
<circle cx="29031.9" cy="48568.1" r="157.48" /> 
</g>
<g style="fill:#000000; fill-opacity:1.0; 
stroke:#000000; stroke-width:39.3701; stroke-opacity:1; 
stroke-linecap:round; stroke-linejoin:round;">
</g>
<g style="fill:#000000; fill-opacity:1.0; 
stroke:#000000; stroke-width:0; stroke-opacity:1; 
stroke-linecap:round; stroke-linejoin:round;">
<circle cx="28755.1" cy="47900" r="157.48" /> 
</g>
<g style="fill:#000000; fill-opacity:1.0; 
stroke:#000000; stroke-width:39.3701; stroke-opacity:1; 
stroke-linecap:round; stroke-linejoin:round;">
</g>
<g style="fill:#000000; fill-opacity:1.0; 
stroke:#000000; stroke-width:0; stroke-opacity:1; 
stroke-linecap:round; stroke-linejoin:round;">
<circle cx="29031.9" cy="47231.9" r="157.48" /> 
</g>
<g style="fill:#000000; fill-opacity:1.0; 
stroke:#000000; stroke-width:39.3701; stroke-opacity:1; 
stroke-linecap:round; stroke-linejoin:round;">
</g>
<g style="fill:#000000; fill-opacity:1.0; 
stroke:#000000; stroke-width:0; stroke-opacity:1; 
stroke-linecap:round; stroke-linejoin:round;">
<circle cx="29700" cy="46955.1" r="157.48" /> 
</g>
<g style="fill:#000000; fill-opacity:1.0; 
stroke:#000000; stroke-width:39.3701; stroke-opacity:1; 
stroke-linecap:round; stroke-linejoin:round;">
</g>
<g style="fill:#000000; fill-opacity:1.0; 
stroke:#000000; stroke-width:0; stroke-opacity:1; 
stroke-linecap:round; stroke-linejoin:round;">
<circle cx="30368.1" cy="47231.9" r="157.48" /> 
</g>
<g style="fill:#000000; fill-opacity:1.0; 
stroke:#000000; stroke-width:39.3701; stroke-opacity:1; 
stroke-linecap:round; stroke-linejoin:round;">
</g>
<g >
</g>
<g style="fill:#000000; fill-opacity:1.0; 
stroke:#000000; stroke-width:39.3701; stroke-opacity:1; 
stroke-linecap:round; stroke-linejoin:round;">
</g>
<g style="fill:#000000; fill-opacity:1.0; 
stroke:#000000; stroke-width:0; stroke-opacity:1; 
stroke-linecap:round; stroke-linejoin:round;">
<path style="fill:#000000; fill-opacity:1.0; 
stroke:#000000; stroke-width:0; stroke-opacity:1; 
stroke-linecap:round; stroke-linejoin:round;fill-rule:evenodd;"
d="M 41693.7,37006.3
41693.7,37793.7
40906.3,37793.7
40906.3,37006.3
Z" /> 
<circle cx="38307.9" cy="37400" r="393.701" /> 
</g>
<g style="fill:#000000; fill-opacity:1.0; 
stroke:#000000; stroke-width:39.3701; stroke-opacity:1; 
stroke-linecap:round; stroke-linejoin:round;">
</g>
<g >
</g>
<g style="fill:#000000; fill-opacity:1.0; 
stroke:#000000; stroke-width:39.3701; stroke-opacity:1; 
stroke-linecap:round; stroke-linejoin:round;">
</g>
<g style="fill:#000000; fill-opacity:1.0; 
stroke:#000000; stroke-width:0; stroke-opacity:1; 
stroke-linecap:round; stroke-linejoin:round;">
<path style="fill:#000000; fill-opacity:1.0; 
stroke:#000000; stroke-width:0; stroke-opacity:1; 
stroke-linecap:round; stroke-linejoin:round;fill-rule:evenodd;"
d="M 30508.5,15356
30518,15357.4
30527.4,15359.8
30536.5,15363
30545.2,15367.1
30553.5,15372.1
30561.3,15377.9
30568.4,15384.3
30574.9,15391.5
30580.7,15399.3
30585.6,15407.5
30589.8,15416.3
30593,15425.4
30595.4,15434.7
30596.8,15444.3
30597.2,15453.9
30597.2,15946.1
30596.8,15955.7
30595.4,15965.3
30593,15974.6
30589.8,15983.7
30585.6,15992.5
30580.7,16000.7
30574.9,16008.5
30568.4,16015.7
30561.3,16022.1
30553.5,16027.9
30545.2,16032.9
30536.5,16037
30527.4,16040.2
30518,16042.6
30508.5,16044
30498.8,16044.5
30252.8,16044.5
30243.1,16044
30233.6,16042.6
30224.2,16040.2
30215.1,16037
30206.4,16032.9
30198.1,16027.9
30190.3,16022.1
30183.2,16015.7
30176.7,16008.5
30170.9,16000.7
30166,15992.5
30161.8,15983.7
30158.6,15974.6
30156.2,15965.3
30154.8,15955.7
30154.3,15946.1
30154.3,15453.9
30154.8,15444.3
30156.2,15434.7
30158.6,15425.4
30161.8,15416.3
30166,15407.5
30170.9,15399.3
30176.7,15391.5
30183.2,15384.3
30190.3,15377.9
30198.1,15372.1
30206.4,15367.1
30215.1,15363
30224.2,15359.8
30233.6,15357.4
30243.1,15356
30252.8,15355.5
30498.8,15355.5
Z" /> 
<path style="fill:#000000; fill-opacity:1.0; 
stroke:#000000; stroke-width:0; stroke-opacity:1; 
stroke-linecap:round; stroke-linejoin:round;fill-rule:evenodd;"
d="M 29356.9,15356
29366.4,15357.4
29375.8,15359.8
29384.9,15363
29393.6,15367.1
29401.9,15372.1
29409.7,15377.9
29416.8,15384.3
29423.3,15391.5
29429.1,15399.3
29434,15407.5
29438.2,15416.3
29441.4,15425.4
29443.8,15434.7
29445.2,15444.3
29445.7,15453.9
29445.7,15946.1
29445.2,15955.7
29443.8,15965.3
29441.4,15974.6
29438.2,15983.7
29434,15992.5
29429.1,16000.7
29423.3,16008.5
29416.8,16015.7
29409.7,16022.1
29401.9,16027.9
29393.6,16032.9
29384.9,16037
29375.8,16040.2
29366.4,16042.6
29356.9,16044
29347.2,16044.5
29101.2,16044.5
29091.5,16044
29082,16042.6
29072.6,16040.2
29063.5,16037
29054.8,16032.9
29046.5,16027.9
29038.7,16022.1
29031.6,16015.7
29025.1,16008.5
29019.3,16000.7
29014.4,15992.5
29010.2,15983.7
29007,15974.6
29004.6,15965.3
29003.2,15955.7
29002.8,15946.1
29002.8,15453.9
29003.2,15444.3
29004.6,15434.7
29007,15425.4
29010.2,15416.3
29014.4,15407.5
29019.3,15399.3
29025.1,15391.5
29031.6,15384.3
29038.7,15377.9
29046.5,15372.1
29054.8,15367.1
29063.5,15363
29072.6,15359.8
29082,15357.4
29091.5,15356
29101.2,15355.5
29347.2,15355.5
Z" /> 
</g>
<g >
</g>
<g style="fill:#000000; fill-opacity:1.0; 
stroke:#000000; stroke-width:0; stroke-opacity:1; 
stroke-linecap:round; stroke-linejoin:round;">
<path style="fill:#000000; fill-opacity:1.0; 
stroke:#000000; stroke-width:0; stroke-opacity:1; 
stroke-linecap:round; stroke-linejoin:round;fill-rule:evenodd;"
d="M 31556.9,15356
31566.4,15357.4
31575.8,15359.8
31584.9,15363
31593.6,15367.1
31601.9,15372.1
31609.7,15377.9
31616.8,15384.3
31623.3,15391.5
31629.1,15399.3
31634,15407.5
31638.2,15416.3
31641.4,15425.4
31643.8,15434.7
31645.2,15444.3
31645.7,15453.9
31645.7,15946.1
31645.2,15955.7
31643.8,15965.3
31641.4,15974.6
31638.2,15983.7
31634,15992.5
31629.1,16000.7
31623.3,16008.5
31616.8,16015.7
31609.7,16022.1
31601.9,16027.9
31593.6,16032.9
31584.9,16037
31575.8,16040.2
31566.4,16042.6
31556.9,16044
31547.2,16044.5
31301.2,16044.5
31291.5,16044
31282,16042.6
31272.6,16040.2
31263.5,16037
31254.8,16032.9
31246.5,16027.9
31238.7,16022.1
31231.6,16015.7
31225.1,16008.5
31219.3,16000.7
31214.4,15992.5
31210.2,15983.7
31207,15974.6
31204.6,15965.3
31203.2,15955.7
31202.8,15946.1
31202.8,15453.9
31203.2,15444.3
31204.6,15434.7
31207,15425.4
31210.2,15416.3
31214.4,15407.5
31219.3,15399.3
31225.1,15391.5
31231.6,15384.3
31238.7,15377.9
31246.5,15372.1
31254.8,15367.1
31263.5,15363
31272.6,15359.8
31282,15357.4
31291.5,15356
31301.2,15355.5
31547.2,15355.5
Z" /> 
<path style="fill:#000000; fill-opacity:1.0; 
stroke:#000000; stroke-width:0; stroke-opacity:1; 
stroke-linecap:round; stroke-linejoin:round;fill-rule:evenodd;"
d="M 32708.5,15356
32718,15357.4
32727.4,15359.8
32736.5,15363
32745.2,15367.1
32753.5,15372.1
32761.3,15377.9
32768.4,15384.3
32774.9,15391.5
32780.7,15399.3
32785.6,15407.5
32789.8,15416.3
32793,15425.4
32795.4,15434.7
32796.8,15444.3
32797.2,15453.9
32797.2,15946.1
32796.8,15955.7
32795.4,15965.3
32793,15974.6
32789.8,15983.7
32785.6,15992.5
32780.7,16000.7
32774.9,16008.5
32768.4,16015.7
32761.3,16022.1
32753.5,16027.9
32745.2,16032.9
32736.5,16037
32727.4,16040.2
32718,16042.6
32708.5,16044
32698.8,16044.5
32452.8,16044.5
32443.1,16044
32433.6,16042.6
32424.2,16040.2
32415.1,16037
32406.4,16032.9
32398.1,16027.9
32390.3,16022.1
32383.2,16015.7
32376.7,16008.5
32370.9,16000.7
32366,15992.5
32361.8,15983.7
32358.6,15974.6
32356.2,15965.3
32354.8,15955.7
32354.3,15946.1
32354.3,15453.9
32354.8,15444.3
32356.2,15434.7
32358.6,15425.4
32361.8,15416.3
32366,15407.5
32370.9,15399.3
32376.7,15391.5
32383.2,15384.3
32390.3,15377.9
32398.1,15372.1
32406.4,15367.1
32415.1,15363
32424.2,15359.8
32433.6,15357.4
32443.1,15356
32452.8,15355.5
32698.8,15355.5
Z" /> 
</g>
<g >
</g>
<g style="fill:#000000; fill-opacity:1.0; 
stroke:#000000; stroke-width:0; stroke-opacity:1; 
stroke-linecap:round; stroke-linejoin:round;">
<path style="fill:#000000; fill-opacity:1.0; 
stroke:#000000; stroke-width:0; stroke-opacity:1; 
stroke-linecap:round; stroke-linejoin:round;fill-rule:evenodd;"
d="M 29406.1,14356
29415.7,14357.4
29425,14359.8
29434.1,14363
29442.9,14367.1
29451.1,14372.1
29458.9,14377.9
29466.1,14384.3
29472.5,14391.5
29478.3,14399.3
29483.3,14407.5
29487.4,14416.3
29490.6,14425.4
29493,14434.7
29494.4,14444.3
29494.9,14453.9
29494.9,14946.1
29494.4,14955.7
29493,14965.3
29490.6,14974.6
29487.4,14983.7
29483.3,14992.5
29478.3,15000.7
29472.5,15008.5
29466.1,15015.7
29458.9,15022.1
29451.1,15027.9
29442.9,15032.9
29434.1,15037
29425,15040.2
29415.7,15042.6
29406.1,15044
29396.5,15044.5
29101.2,15044.5
29091.5,15044
29082,15042.6
29072.6,15040.2
29063.5,15037
29054.8,15032.9
29046.5,15027.9
29038.7,15022.1
29031.6,15015.7
29025.1,15008.5
29019.3,15000.7
29014.4,14992.5
29010.2,14983.7
29007,14974.6
29004.6,14965.3
29003.2,14955.7
29002.8,14946.1
29002.8,14453.9
29003.2,14444.3
29004.6,14434.7
29007,14425.4
29010.2,14416.3
29014.4,14407.5
29019.3,14399.3
29025.1,14391.5
29031.6,14384.3
29038.7,14377.9
29046.5,14372.1
29054.8,14367.1
29063.5,14363
29072.6,14359.8
29082,14357.4
29091.5,14356
29101.2,14355.5
29396.5,14355.5
Z" /> 
<path style="fill:#000000; fill-opacity:1.0; 
stroke:#000000; stroke-width:0; stroke-opacity:1; 
stroke-linecap:round; stroke-linejoin:round;fill-rule:evenodd;"
d="M 30508.5,14356
30518,14357.4
30527.4,14359.8
30536.5,14363
30545.2,14367.1
30553.5,14372.1
30561.3,14377.9
30568.4,14384.3
30574.9,14391.5
30580.7,14399.3
30585.6,14407.5
30589.8,14416.3
30593,14425.4
30595.4,14434.7
30596.8,14444.3
30597.2,14453.9
30597.2,14946.1
30596.8,14955.7
30595.4,14965.3
30593,14974.6
30589.8,14983.7
30585.6,14992.5
30580.7,15000.7
30574.9,15008.5
30568.4,15015.7
30561.3,15022.1
30553.5,15027.9
30545.2,15032.9
30536.5,15037
30527.4,15040.2
30518,15042.6
30508.5,15044
30498.8,15044.5
30203.5,15044.5
30193.9,15044
30184.3,15042.6
30175,15040.2
30165.9,15037
30157.1,15032.9
30148.9,15027.9
30141.1,15022.1
30133.9,15015.7
30127.5,15008.5
30121.7,15000.7
30116.7,14992.5
30112.6,14983.7
30109.4,14974.6
30107,14965.3
30105.6,14955.7
30105.1,14946.1
30105.1,14453.9
30105.6,14444.3
30107,14434.7
30109.4,14425.4
30112.6,14416.3
30116.7,14407.5
30121.7,14399.3
30127.5,14391.5
30133.9,14384.3
30141.1,14377.9
30148.9,14372.1
30157.1,14367.1
30165.9,14363
30175,14359.8
30184.3,14357.4
30193.9,14356
30203.5,14355.5
30498.8,14355.5
Z" /> 
</g>
<g >
</g>
<g style="fill:#000000; fill-opacity:1.0; 
stroke:#000000; stroke-width:0; stroke-opacity:1; 
stroke-linecap:round; stroke-linejoin:round;">
<path style="fill:#000000; fill-opacity:1.0; 
stroke:#000000; stroke-width:0; stroke-opacity:1; 
stroke-linecap:round; stroke-linejoin:round;fill-rule:evenodd;"
d="M 29806.1,40456
29815.7,40457.4
29825,40459.8
29834.1,40463
29842.9,40467.1
29851.1,40472.1
29858.9,40477.9
29866.1,40484.3
29872.5,40491.5
29878.3,40499.3
29883.3,40507.5
29887.4,40516.3
29890.6,40525.4
29893,40534.7
29894.4,40544.3
29894.9,40553.9
29894.9,41046.1
29894.4,41055.7
29893,41065.3
29890.6,41074.6
29887.4,41083.7
29883.3,41092.5
29878.3,41100.7
29872.5,41108.5
29866.1,41115.7
29858.9,41122.1
29851.1,41127.9
29842.9,41132.9
29834.1,41137
29825,41140.2
29815.7,41142.6
29806.1,41144
29796.5,41144.5
29501.2,41144.5
29491.5,41144
29482,41142.6
29472.6,41140.2
29463.5,41137
29454.8,41132.9
29446.5,41127.9
29438.7,41122.1
29431.6,41115.7
29425.1,41108.5
29419.3,41100.7
29414.4,41092.5
29410.2,41083.7
29407,41074.6
29404.6,41065.3
29403.2,41055.7
29402.8,41046.1
29402.8,40553.9
29403.2,40544.3
29404.6,40534.7
29407,40525.4
29410.2,40516.3
29414.4,40507.5
29419.3,40499.3
29425.1,40491.5
29431.6,40484.3
29438.7,40477.9
29446.5,40472.1
29454.8,40467.1
29463.5,40463
29472.6,40459.8
29482,40457.4
29491.5,40456
29501.2,40455.5
29796.5,40455.5
Z" /> 
<path style="fill:#000000; fill-opacity:1.0; 
stroke:#000000; stroke-width:0; stroke-opacity:1; 
stroke-linecap:round; stroke-linejoin:round;fill-rule:evenodd;"
d="M 30908.5,40456
30918,40457.4
30927.4,40459.8
30936.5,40463
30945.2,40467.1
30953.5,40472.1
30961.3,40477.9
30968.4,40484.3
30974.9,40491.5
30980.7,40499.3
30985.6,40507.5
30989.8,40516.3
30993,40525.4
30995.4,40534.7
30996.8,40544.3
30997.2,40553.9
30997.2,41046.1
30996.8,41055.7
30995.4,41065.3
30993,41074.6
30989.8,41083.7
30985.6,41092.5
30980.7,41100.7
30974.9,41108.5
30968.4,41115.7
30961.3,41122.1
30953.5,41127.9
30945.2,41132.9
30936.5,41137
30927.4,41140.2
30918,41142.6
30908.5,41144
30898.8,41144.5
30603.5,41144.5
30593.9,41144
30584.3,41142.6
30575,41140.2
30565.9,41137
30557.1,41132.9
30548.9,41127.9
30541.1,41122.1
30533.9,41115.7
30527.5,41108.5
30521.7,41100.7
30516.7,41092.5
30512.6,41083.7
30509.4,41074.6
30507,41065.3
30505.6,41055.7
30505.1,41046.1
30505.1,40553.9
30505.6,40544.3
30507,40534.7
30509.4,40525.4
30512.6,40516.3
30516.7,40507.5
30521.7,40499.3
30527.5,40491.5
30533.9,40484.3
30541.1,40477.9
30548.9,40472.1
30557.1,40467.1
30565.9,40463
30575,40459.8
30584.3,40457.4
30593.9,40456
30603.5,40455.5
30898.8,40455.5
Z" /> 
</g>
<g >
</g>
<g style="fill:#000000; fill-opacity:1.0; 
stroke:#000000; stroke-width:0; stroke-opacity:1; 
stroke-linecap:round; stroke-linejoin:round;">
<path style="fill:#000000; fill-opacity:1.0; 
stroke:#000000; stroke-width:0; stroke-opacity:1; 
stroke-linecap:round; stroke-linejoin:round;fill-rule:evenodd;"
d="M 31606.1,14356
31615.7,14357.4
31625,14359.8
31634.1,14363
31642.9,14367.1
31651.1,14372.1
31658.9,14377.9
31666.1,14384.3
31672.5,14391.5
31678.3,14399.3
31683.3,14407.5
31687.4,14416.3
31690.6,14425.4
31693,14434.7
31694.4,14444.3
31694.9,14453.9
31694.9,14946.1
31694.4,14955.7
31693,14965.3
31690.6,14974.6
31687.4,14983.7
31683.3,14992.5
31678.3,15000.7
31672.5,15008.5
31666.1,15015.7
31658.9,15022.1
31651.1,15027.9
31642.9,15032.9
31634.1,15037
31625,15040.2
31615.7,15042.6
31606.1,15044
31596.5,15044.5
31301.2,15044.5
31291.5,15044
31282,15042.6
31272.6,15040.2
31263.5,15037
31254.8,15032.9
31246.5,15027.9
31238.7,15022.1
31231.6,15015.7
31225.1,15008.5
31219.3,15000.7
31214.4,14992.5
31210.2,14983.7
31207,14974.6
31204.6,14965.3
31203.2,14955.7
31202.8,14946.1
31202.8,14453.9
31203.2,14444.3
31204.6,14434.7
31207,14425.4
31210.2,14416.3
31214.4,14407.5
31219.3,14399.3
31225.1,14391.5
31231.6,14384.3
31238.7,14377.9
31246.5,14372.1
31254.8,14367.1
31263.5,14363
31272.6,14359.8
31282,14357.4
31291.5,14356
31301.2,14355.5
31596.5,14355.5
Z" /> 
<path style="fill:#000000; fill-opacity:1.0; 
stroke:#000000; stroke-width:0; stroke-opacity:1; 
stroke-linecap:round; stroke-linejoin:round;fill-rule:evenodd;"
d="M 32708.5,14356
32718,14357.4
32727.4,14359.8
32736.5,14363
32745.2,14367.1
32753.5,14372.1
32761.3,14377.9
32768.4,14384.3
32774.9,14391.5
32780.7,14399.3
32785.6,14407.5
32789.8,14416.3
32793,14425.4
32795.4,14434.7
32796.8,14444.3
32797.2,14453.9
32797.2,14946.1
32796.8,14955.7
32795.4,14965.3
32793,14974.6
32789.8,14983.7
32785.6,14992.5
32780.7,15000.7
32774.9,15008.5
32768.4,15015.7
32761.3,15022.1
32753.5,15027.9
32745.2,15032.9
32736.5,15037
32727.4,15040.2
32718,15042.6
32708.5,15044
32698.8,15044.5
32403.5,15044.5
32393.9,15044
32384.3,15042.6
32375,15040.2
32365.9,15037
32357.1,15032.9
32348.9,15027.9
32341.1,15022.1
32333.9,15015.7
32327.5,15008.5
32321.7,15000.7
32316.7,14992.5
32312.6,14983.7
32309.4,14974.6
32307,14965.3
32305.6,14955.7
32305.1,14946.1
32305.1,14453.9
32305.6,14444.3
32307,14434.7
32309.4,14425.4
32312.6,14416.3
32316.7,14407.5
32321.7,14399.3
32327.5,14391.5
32333.9,14384.3
32341.1,14377.9
32348.9,14372.1
32357.1,14367.1
32365.9,14363
32375,14359.8
32384.3,14357.4
32393.9,14356
32403.5,14355.5
32698.8,14355.5
Z" /> 
</g>
<g >
</g>
<g style="fill:#000000; fill-opacity:1.0; 
stroke:#000000; stroke-width:0; stroke-opacity:1; 
stroke-linecap:round; stroke-linejoin:round;">
<circle cx="40690" cy="46400" r="393.701" /> 
</g>
<g style="fill:#000000; fill-opacity:1.0; 
stroke:#000000; stroke-width:39.3701; stroke-opacity:1; 
stroke-linecap:round; stroke-linejoin:round;">
</g>
<g >
</g>
<g style="fill:#000000; fill-opacity:1.0; 
stroke:#000000; stroke-width:39.3701; stroke-opacity:1; 
stroke-linecap:round; stroke-linejoin:round;">
</g>
<g style="fill:#000000; fill-opacity:1.0; 
stroke:#000000; stroke-width:0; stroke-opacity:1; 
stroke-linecap:round; stroke-linejoin:round;">
<circle cx="38700" cy="46390.2" r="393.701" /> 
</g>
<g style="fill:#000000; fill-opacity:1.0; 
stroke:#000000; stroke-width:39.3701; stroke-opacity:1; 
stroke-linecap:round; stroke-linejoin:round;">
</g>
<g >
</g>
<g style="fill:#000000; fill-opacity:1.0; 
stroke:#000000; stroke-width:39.3701; stroke-opacity:1; 
stroke-linecap:round; stroke-linejoin:round;">
</g>
<g style="fill:#000000; fill-opacity:1.0; 
stroke:#000000; stroke-width:0; stroke-opacity:1; 
stroke-linecap:round; stroke-linejoin:round;">
<path style="fill:#000000; fill-opacity:1.0; 
stroke:#000000; stroke-width:0; stroke-opacity:1; 
stroke-linecap:round; stroke-linejoin:round;fill-rule:evenodd;"
d="M 35534.6,33734.6
34865.4,33734.6
34865.4,33065.4
35534.6,33065.4
Z" /> 
<circle cx="36200" cy="33400" r="334.646" /> 
<circle cx="37200" cy="33400" r="334.646" /> 
<circle cx="38200" cy="33400" r="334.646" /> 
<circle cx="39200" cy="33400" r="334.646" /> 
</g>
<g >
</g>
<g style="fill:#000000; fill-opacity:1.0; 
stroke:#000000; stroke-width:0; stroke-opacity:1; 
stroke-linecap:round; stroke-linejoin:round;">
<circle cx="33200" cy="23900" r="157.48" /> 
</g>
<g style="fill:#000000; fill-opacity:1.0; 
stroke:#000000; stroke-width:39.3701; stroke-opacity:1; 
stroke-linecap:round; stroke-linejoin:round;">
</g>
<g style="fill:#000000; fill-opacity:1.0; 
stroke:#000000; stroke-width:0; stroke-opacity:1; 
stroke-linecap:round; stroke-linejoin:round;">
<circle cx="33200" cy="29900" r="157.48" /> 
</g>
<g style="fill:#000000; fill-opacity:1.0; 
stroke:#000000; stroke-width:39.3701; stroke-opacity:1; 
stroke-linecap:round; stroke-linejoin:round;">
</g>
<g style="fill:#000000; fill-opacity:1.0; 
stroke:#000000; stroke-width:0; stroke-opacity:1; 
stroke-linecap:round; stroke-linejoin:round;">
<circle cx="43200" cy="27900" r="157.48" /> 
</g>
<g style="fill:#000000; fill-opacity:1.0; 
stroke:#000000; stroke-width:39.3701; stroke-opacity:1; 
stroke-linecap:round; stroke-linejoin:round;">
</g>
<g style="fill:#000000; fill-opacity:1.0; 
stroke:#000000; stroke-width:0; stroke-opacity:1; 
stroke-linecap:round; stroke-linejoin:round;">
<circle cx="43200" cy="21900" r="157.48" /> 
</g>
<g style="fill:#000000; fill-opacity:1.0; 
stroke:#000000; stroke-width:39.3701; stroke-opacity:1; 
stroke-linecap:round; stroke-linejoin:round;">
</g>
<g style="fill:#000000; fill-opacity:1.0; 
stroke:#000000; stroke-width:0; stroke-opacity:1; 
stroke-linecap:round; stroke-linejoin:round;">
<circle cx="44200" cy="26900" r="157.48" /> 
</g>
<g style="fill:#000000; fill-opacity:1.0; 
stroke:#000000; stroke-width:39.3701; stroke-opacity:1; 
stroke-linecap:round; stroke-linejoin:round;">
</g>
<g style="fill:#000000; fill-opacity:1.0; 
stroke:#000000; stroke-width:0; stroke-opacity:1; 
stroke-linecap:round; stroke-linejoin:round;">
<circle cx="31700" cy="41900" r="157.48" /> 
</g>
<g style="fill:#000000; fill-opacity:1.0; 
stroke:#000000; stroke-width:39.3701; stroke-opacity:1; 
stroke-linecap:round; stroke-linejoin:round;">
</g>
<g style="fill:#000000; fill-opacity:1.0; 
stroke:#000000; stroke-width:0; stroke-opacity:1; 
stroke-linecap:round; stroke-linejoin:round;">
<circle cx="33200" cy="15400" r="157.48" /> 
</g>
<g style="fill:#000000; fill-opacity:1.0; 
stroke:#000000; stroke-width:39.3701; stroke-opacity:1; 
stroke-linecap:round; stroke-linejoin:round;">
</g>
<g style="fill:#000000; fill-opacity:1.0; 
stroke:#000000; stroke-width:0; stroke-opacity:1; 
stroke-linecap:round; stroke-linejoin:round;">
<circle cx="30900" cy="16600" r="157.48" /> 
</g>
<g style="fill:#000000; fill-opacity:1.0; 
stroke:#000000; stroke-width:39.3701; stroke-opacity:1; 
stroke-linecap:round; stroke-linejoin:round;">
</g>
<g style="fill:#000000; fill-opacity:1.0; 
stroke:#000000; stroke-width:0; stroke-opacity:1; 
stroke-linecap:round; stroke-linejoin:round;">
<circle cx="32700" cy="30900" r="157.48" /> 
</g>
<g style="fill:#000000; fill-opacity:1.0; 
stroke:#000000; stroke-width:39.3701; stroke-opacity:1; 
stroke-linecap:round; stroke-linejoin:round;">
</g>
<g >
</g>
<g style="fill:#000000; fill-opacity:1.0; 
stroke:#000000; stroke-width:39.3701; stroke-opacity:1; 
stroke-linecap:round; stroke-linejoin:round;">
</g>
<g style="fill:#000000; fill-opacity:1.0; 
stroke:#000000; stroke-width:200; stroke-opacity:1; 
stroke-linecap:round; stroke-linejoin:round;">
</g>
<g style="fill:#000000; fill-opacity:0.0; 
stroke:#000000; stroke-width:200; stroke-opacity:1; 
stroke-linecap:round; stroke-linejoin:round;">
<path d="M32551 15675
L32575 15700
" />
<path d="M31200 36900
L32200 35900
" />
<path d="M32200 21900
L31200 20900
" />
<path d="M32200 28900
L31200 28900
" />
<path d="M32200 35900
L32200 28900
" />
<path d="M32200 28900
L32200 21900
" />
<path d="M31200 37900
L33200 35900
" />
<path d="M33200 35900
L33200 29900
" />
</g>
<g style="fill:#000000; fill-opacity:1.0; 
stroke:#000000; stroke-width:0; stroke-opacity:1; 
stroke-linecap:round; stroke-linejoin:round;">
<circle cx="33200" cy="29900" r="100" /> 
</g>
<g style="fill:#000000; fill-opacity:1.0; 
stroke:#000000; stroke-width:200; stroke-opacity:1; 
stroke-linecap:round; stroke-linejoin:round;">
</g>
<g style="fill:#000000; fill-opacity:0.0; 
stroke:#000000; stroke-width:200; stroke-opacity:1; 
stroke-linecap:round; stroke-linejoin:round;">
<path d="M33200 29900
L33200 23900
" />
<path d="M45200 35900
L43200 33900
" />
<path d="M43200 27900
L43200 21900
" />
<path d="M43200 33900
L43200 33169
" />
<path d="M43200 31900
L43200 27900
" />
<path d="M43200 33900
L43200 31900
" />
<path d="M42200 27900
L43200 27900
" />
<path d="M44200 33900
L45200 34900
" />
<path d="M45158 18900
L44200 19858
" />
</g>
<g style="fill:#000000; fill-opacity:1.0; 
stroke:#000000; stroke-width:0; stroke-opacity:1; 
stroke-linecap:round; stroke-linejoin:round;">
<circle cx="44200" cy="26900" r="100" /> 
</g>
<g style="fill:#000000; fill-opacity:1.0; 
stroke:#000000; stroke-width:200; stroke-opacity:1; 
stroke-linecap:round; stroke-linejoin:round;">
</g>
<g style="fill:#000000; fill-opacity:0.0; 
stroke:#000000; stroke-width:200; stroke-opacity:1; 
stroke-linecap:round; stroke-linejoin:round;">
<path d="M44200 19858
L44200 26900
" />
<path d="M44200 26900
L44200 33900
" />
<path d="M44200 26900
L45200 26900
" />
</g>
<g style="fill:#000000; fill-opacity:0.0; 
stroke:#000000; stroke-width:1400; stroke-opacity:1; 
stroke-linecap:round; stroke-linejoin:round;">
<path d="M40690 44334
L40690 46400
" />
<path d="M40790 44234
L40690 44334
" />
<path d="M45200 44234
L40790 44234
" />
</g>
<g style="fill:#000000; fill-opacity:0.0; 
stroke:#000000; stroke-width:300; stroke-opacity:1; 
stroke-linecap:round; stroke-linejoin:round;">
<path d="M29624 40824
L29648 40800
" />
<path d="M29624 41900
L29624 40824
" />
</g>
<g style="fill:#000000; fill-opacity:0.0; 
stroke:#000000; stroke-width:1400; stroke-opacity:1; 
stroke-linecap:round; stroke-linejoin:round;">
<path d="M40255 41900
L40690 42334
" />
<path d="M37700 41900
L40255 41900
" />
<path d="M37700 41900
L34487 41900
" />
</g>
<g style="fill:#000000; fill-opacity:0.0; 
stroke:#000000; stroke-width:300; stroke-opacity:1; 
stroke-linecap:round; stroke-linejoin:round;">
<path d="M31700 41900
L30775 41900
" />
</g>
<g style="fill:#000000; fill-opacity:0.0; 
stroke:#000000; stroke-width:200; stroke-opacity:1; 
stroke-linecap:round; stroke-linejoin:round;">
<path d="M38200 24900
L34200 20900
" />
<path d="M38200 33400
L38200 24900
" />
<path d="M39200 24900
L34200 19900
" />
<path d="M39200 33400
L39200 24900
" />
<path d="M37200 24900
L34200 21900
" />
<path d="M37200 33400
L37200 24900
" />
<path d="M41300 23800
L42200 22900
" />
<path d="M41300 37400
L41300 23800
" />
<path d="M29224 14724
L29248 14700
" />
<path d="M29248 15675
L29224 15700
" />
<path d="M29248 14700
L29248 15675
" />
<path d="M31448 15675
L31424 15700
" />
<path d="M31448 14700
L31448 15675
" />
<path d="M33200 15348
L32551 14700
" />
<path d="M33200 15400
L33200 15348
" />
<path d="M30851 15200
L30351 14700
" />
<path d="M30900 15248
L30851 15200
" />
</g>
<g style="fill:#000000; fill-opacity:1.0; 
stroke:#000000; stroke-width:0; stroke-opacity:1; 
stroke-linecap:round; stroke-linejoin:round;">
<circle cx="30900" cy="16600" r="100" /> 
</g>
<g style="fill:#000000; fill-opacity:1.0; 
stroke:#000000; stroke-width:200; stroke-opacity:1; 
stroke-linecap:round; stroke-linejoin:round;">
</g>
<g style="fill:#000000; fill-opacity:0.0; 
stroke:#000000; stroke-width:200; stroke-opacity:1; 
stroke-linecap:round; stroke-linejoin:round;">
<path d="M30900 16600
L30900 15248
" />
<path d="M34200 15900
L32700 17400
" />
<path d="M32700 17400
L32700 21900
" />
<path d="M32700 21900
L32700 24900
" />
<path d="M32700 24900
L32700 30900
" />
</g>
<g style="fill:#000000; fill-opacity:1.0; 
stroke:#000000; stroke-width:0; stroke-opacity:1; 
stroke-linecap:round; stroke-linejoin:round;">
<circle cx="32700" cy="30900" r="100" /> 
</g>
<g >
</g>
<g style="fill:#000000; fill-opacity:1.0; 
stroke:#000000; stroke-width:0; stroke-opacity:1; 
stroke-linecap:round; stroke-linejoin:round;">
<g >
</g>
<g style="fill:#000000; fill-opacity:1.0; 
stroke:#000000; stroke-width:100; stroke-opacity:1; 
stroke-linecap:round; stroke-linejoin:round;">
<path style="fill:#000000; fill-opacity:1.0; 
stroke:#000000; stroke-width:100; stroke-opacity:1; 
stroke-linecap:round; stroke-linejoin:round;fill-rule:evenodd;"
d="M 45707.4,10836.7
46700,11829.3
46705.6,11823.7
46776.3,11894.4
46770.7,11900
47763.3,12892.6
47945,12759
47945,47041
47763.3,46907.4
46770.7,47900
46776.3,47905.6
46705.6,47976.3
46700,47970.7
45707.4,48963.3
45841,49145
30559,49145
30692.6,48963.3
29700,47970.7
29694.4,47976.3
29623.7,47905.6
29629.3,47900
29770.7,47900
30763.3,48892.6
30956.1,48750.8
31098,48489.4
31186.1,48205.4
31217.1,47909.6
31215.4,47890.4
45182.9,47890.4
45210.2,48186.6
45294.7,48471.7
45433.2,48734.9
45443.9,48750.8
45636.7,48892.6
46629.3,47900
45636.7,46907.4
45443.9,47049.2
45302,47310.6
45213.9,47594.6
45182.9,47890.4
31215.4,47890.4
31189.8,47613.4
31105.3,47328.3
30966.8,47065.1
30956.1,47049.2
30763.3,46907.4
29770.7,47900
29629.3,47900
28636.7,46907.4
28455,47041
28455,46836.7
28707.4,46836.7
29700,47829.3
30692.6,46836.7
30550.8,46643.9
30289.4,46502
30005.4,46413.9
29709.6,46382.9
29413.4,46410.2
29128.3,46494.7
28865.1,46633.2
28849.2,46643.9
28707.4,46836.7
28455,46836.7
28455,46326.8
38056.3,46326.8
38056.3,46453.6
38081,46577.9
38129.6,46695.1
38200,46800.5
38289.7,46890.2
38395.1,46960.6
38512.2,47009.1
38636.6,47033.9
38763.4,47033.9
38887.8,47009.1
39004.9,46960.6
39110.3,46890.2
39200,46800.5
39270.4,46695.1
39319,46577.9
39343.7,46453.6
39343.7,46326.8
39319,46202.4
39270.4,46085.3
39200,45979.8
39110.3,45890.2
39004.9,45819.7
38887.8,45771.2
38763.4,45746.5
38636.6,45746.5
38512.2,45771.2
38395.1,45819.7
38289.7,45890.2
38200,45979.8
38129.6,46085.3
38081,46202.4
38056.3,46326.8
28455,46326.8
28455,44315.5
37323.7,44315.5
37361.4,44419.6
37475.4,44475.1
37598.1,44507.2
37724.6,44514.8
37850.3,44497.6
37970.1,44456.2
38038.6,44419.6
38069.4,44334.6
39735.4,44334.6
39740,44381.3
39740,46446.7
39753.7,46586.2
39808.1,46765.3
39896.3,46930.3
40015,47075
40159.7,47193.7
40324.7,47281.9
40503.8,47336.3
40690,47354.6
40876.2,47336.3
41055.3,47281.9
41220.3,47193.7
41365,47075
41483.7,46930.3
41533.8,46836.7
45707.4,46836.7
46700,47829.3
47692.6,46836.7
47550.8,46643.9
47289.4,46502
47005.4,46413.9
46709.6,46382.9
46413.4,46410.2
46128.3,46494.7
45865.1,46633.2
45849.2,46643.9
45707.4,46836.7
41533.8,46836.7
41571.9,46765.3
41626.3,46586.2
41640,46446.7
41640,45184.6
44126.1,45184.6
44287.7,45346.3
44522.1,45502.9
44782.6,45610.8
45059,45665.7
45341,45665.7
45617.4,45610.8
45877.9,45502.9
46112.3,45346.3
46311.6,45146.9
46468.2,44912.5
46576.1,44652.1
46631.1,44375.6
46631.1,44093.7
46576.1,43817.2
46468.2,43556.8
46311.6,43322.4
46112.3,43123
45877.9,42966.4
45617.4,42858.5
45480.5,42831.3
46381.1,42832.3
46430.1,42827.5
46477.2,42813.2
46520.7,42790
46558.7,42758.7
46590,42720.7
46613.2,42677.2
46627.5,42630.1
46632.3,42581.1
46631.1,41512.5
46568.6,41450
45250,41450
45250,41457.9
45150,41457.9
45150,41450
43831.4,41450
43768.9,41512.5
43767.7,42581.1
43772.5,42630.1
43786.8,42677.2
43810,42720.7
43841.3,42758.7
43879.3,42790
43922.8,42813.2
43969.9,42827.5
44018.9,42832.3
44919.5,42831.3
44782.6,42858.5
44522.1,42966.4
44287.7,43123
44126.1,43284.6
40836.7,43284.6
40790,43280
40743.3,43284.6
40743.3,43284.6
40603.8,43298.4
40424.7,43352.7
40259.7,43440.9
40115,43559.6
40085.2,43595.9
40051.2,43629.9
40015,43659.6
39985.2,43695.9
39985.2,43695.9
39896.3,43804.3
39862,43868.5
39808.1,43969.3
39753.7,44148.4
39740,44288
39740,44288
39735.4,44334.6
38069.4,44334.6
38076.3,44315.5
37700,43939.2
37323.7,44315.5
28455,44315.5
28455,43893.1
37053.7,43893.1
37070.9,44018.8
37112.3,44138.6
37148.9,44207.1
37253,44244.8
37629.3,43868.5
37770.7,43868.5
38147,44244.8
38251.1,44207.1
38306.6,44093.1
38338.7,43970.4
38346.3,43843.9
38329.1,43718.2
38287.7,43598.4
38251.1,43529.9
38147,43492.2
37770.7,43868.5
37629.3,43868.5
37253,43492.2
37148.9,43529.9
37093.4,43643.9
37061.3,43766.6
37053.7,43893.1
28455,43893.1
28455,43421.5
37323.7,43421.5
37700,43797.8
38076.3,43421.5
38038.6,43317.4
37924.6,43261.9
37801.9,43229.8
37675.4,43222.2
37549.7,43239.4
37429.9,43280.8
37361.4,43317.4
37323.7,43421.5
28455,43421.5
28455,40553.9
29151.5,40553.9
29151.5,41046.1
29158.3,41114.3
29178.2,41179.9
29210.5,41240.3
29224.2,41257.1
29224.2,41442.9
29210.5,41459.7
29178.2,41520.1
29158.3,41585.7
29151.5,41653.9
29151.5,42146.1
29158.3,42214.3
29178.2,42279.9
29210.5,42340.3
29254,42393.3
29306.9,42436.8
29367.4,42469.1
29433,42489
29501.2,42495.7
29747.2,42495.7
29815.5,42489
29881,42469.1
29941.5,42436.8
29994.5,42393.3
30038,42340.3
30070.3,42279.9
30090.2,42214.3
30096.9,42146.1
30096.9,41653.9
30090.2,41585.7
30070.3,41520.1
30038,41459.7
30024.2,41442.9
30024.2,41309.3
30043.7,41293.3
30087.2,41240.3
30119.5,41179.9
30130.2,41144.5
30253.9,41144.5
30258.7,41193.5
30273,41240.6
30296.2,41284.1
30327.5,41322.1
30365.6,41353.4
30409,41376.6
30433.3,41383.9
30405.5,41406.7
30362,41459.7
30329.7,41520.1
30309.8,41585.7
30303.1,41653.9
30303.1,42146.1
30309.8,42214.3
30329.7,42279.9
30362,42340.3
30405.5,42393.3
30458.5,42436.8
30519,42469.1
30584.5,42489
30652.8,42495.7
30898.8,42495.7
30967,42489
31032.6,42469.1
31093.1,42436.8
31146,42393.3
31189.5,42340.3
31211.1,42300
31622.3,42300
31659.9,42307.5
31740.1,42307.5
31818.9,42291.8
31893,42261.1
31932.6,42234.6
32169.3,42234.6
32174.1,42283.7
32188.4,42330.8
32211.6,42374.2
32242.8,42412.3
32280.9,42443.5
32324.3,42466.7
32371.5,42481
32420.5,42485.9
32800.1,42484.6
32862.6,42422.1
32862.6,41950
32233,41950
32170.5,42012.5
32169.3,42234.6
31932.6,42234.6
31959.8,42216.5
32016.5,42159.8
32061.1,42093
32091.8,42018.9
32107.5,41940.1
32107.5,41859.9
32091.8,41781.1
32061.1,41707
32016.5,41640.2
31959.8,41583.5
31932.6,41565.4
32169.3,41565.4
32170.5,41787.5
32233,41850
32862.6,41850
32862.6,41377.9
32962.6,41377.9
32962.6,41850
32970.5,41850
32970.5,41950
32962.6,41950
32962.6,42422.1
33025.1,42484.6
33404.7,42485.9
33453.7,42481
33500.9,42466.7
33544.3,42443.5
33582.4,42412.3
33613.6,42374.2
33636.8,42330.8
33638.1,42326.4
33693.7,42430.3
33812.4,42575
33957.1,42693.7
34122.1,42781.9
34301.2,42836.3
34440.7,42850
39861.9,42850
40051.2,43039.4
40159.7,43128.4
40324.7,43216.6
40503.8,43270.9
40690,43289.2
40876.2,43270.9
41055.3,43216.6
41220.3,43128.4
41365,43009.6
41483.7,42865
41571.9,42700
41626.3,42520.9
41644.6,42334.6
41626.3,42148.4
41571.9,41969.3
41483.7,41804.3
41394.8,41695.9
40960.1,41261.2
40930.4,41225
40785.7,41106.3
40620.7,41018.1
40441.6,40963.7
40302,40950
40302,40950
40255.4,40945.4
40208.7,40950
34440.7,40950
34301.2,40963.7
34122.1,41018.1
33957.1,41106.3
33812.4,41225
33693.7,41369.7
33638.1,41473.6
33636.8,41469.2
33613.6,41425.8
33582.4,41387.7
33544.3,41356.5
33500.9,41333.3
33453.7,41319
33404.7,41314.1
33025.1,41315.4
32962.6,41377.9
32862.6,41377.9
32800.1,41315.4
32420.5,41314.1
32371.5,41319
32324.3,41333.3
32280.9,41356.5
32242.8,41387.7
32211.6,41425.8
32188.4,41469.2
32174.1,41516.3
32169.3,41565.4
31932.6,41565.4
31893,41538.9
31818.9,41508.2
31740.1,41492.5
31659.9,41492.5
31622.3,41500
31211.1,41500
31189.5,41459.7
31146,41406.7
31103,41371.4
31136.8,41353.4
31174.9,41322.1
31206.1,41284.1
31229.3,41240.6
31243.6,41193.5
31248.5,41144.5
31247.2,40912.5
31184.7,40850
30801.2,40850
30801.2,40857.9
30701.2,40857.9
30701.2,40850
30317.6,40850
30255.1,40912.5
30253.9,41144.5
30130.2,41144.5
30139.4,41114.3
30146.1,41046.1
30146.1,40553.9
30139.4,40485.7
30130.2,40455.5
30253.9,40455.5
30255.1,40687.5
30317.6,40750
30701.2,40750
30701.2,40268
30801.2,40268
30801.2,40750
31184.7,40750
31247.2,40687.5
31248.5,40455.5
31243.6,40406.5
31229.3,40359.4
31206.1,40315.9
31174.9,40277.9
31136.8,40246.6
31093.4,40223.4
31078.5,40218.9
43767.7,40218.9
43768.9,41287.5
43831.4,41350
45150,41350
45150,40031.4
45250,40031.4
45250,41350
46568.6,41350
46631.1,41287.5
46632.3,40218.9
46627.5,40169.9
46613.2,40122.8
46590,40079.3
46558.7,40041.3
46520.7,40010
46477.2,39986.8
46430.1,39972.5
46381.1,39967.7
45312.5,39968.9
45250,40031.4
45150,40031.4
45087.5,39968.9
44018.9,39967.7
43969.9,39972.5
43922.8,39986.8
43879.3,40010
43841.3,40041.3
43810,40079.3
43786.8,40122.8
43772.5,40169.9
43767.7,40218.9
31078.5,40218.9
31046.3,40209.1
30997.2,40204.3
30863.7,40205.5
30801.2,40268
30701.2,40268
30638.7,40205.5
30505.1,40204.3
30456.1,40209.1
30409,40223.4
30365.6,40246.6
30327.5,40277.9
30296.2,40315.9
30273,40359.4
30258.7,40406.5
30253.9,40455.5
30130.2,40455.5
30119.5,40420.1
30087.2,40359.7
30043.7,40306.7
29990.7,40263.2
29930.3,40230.9
29864.7,40211
29796.5,40204.3
29501.2,40204.3
29433,40211
29367.4,40230.9
29306.9,40263.2
29254,40306.7
29210.5,40359.7
29178.2,40420.1
29158.3,40485.7
29151.5,40553.9
28455,40553.9
28455,34759.5
30632.5,34759.5
30680.3,34850
31150,34850
31150,34380
31250,34380
31250,34850
31719.7,34850
31767.5,34759.5
31749.9,34701.5
31700.6,34598.1
31632.1,34506.2
31547,34429.5
31448.5,34370.8
31340.5,34332.5
31250,34380
31150,34380
31059.5,34332.5
30951.5,34370.8
30853,34429.5
30767.9,34506.2
30699.4,34598.1
30650.1,34701.5
30632.5,34759.5
28455,34759.5
28455,26759.5
30632.5,26759.5
30680.3,26850
31150,26850
31150,26380
31250,26380
31250,26850
31719.7,26850
31767.5,26759.5
31749.9,26701.5
31700.6,26598.1
31632.1,26506.2
31547,26429.5
31448.5,26370.8
31340.5,26332.5
31250,26380
31150,26380
31059.5,26332.5
30951.5,26370.8
30853,26429.5
30767.9,26506.2
30699.4,26598.1
30650.1,26701.5
30632.5,26759.5
28455,26759.5
28455,21565.4
30614.1,21565.4
30614.1,22234.6
30619,22283.7
30633.3,22330.8
30656.5,22374.2
30687.7,22412.3
30725.8,22443.5
30769.2,22466.7
30816.3,22481
30865.4,22485.9
31534.6,22485.9
31583.7,22481
31630.8,22466.7
31674.2,22443.5
31712.3,22412.3
31743.5,22374.2
31766.7,22330.8
31781,22283.7
31785.9,22234.6
31785.9,21980.8
31850,22045
31850,28550
31669.3,28550
31654.1,28527.3
31572.7,28445.9
31504,28400
31572.7,28354.1
31654.1,28272.7
31718.1,28176.9
31762.2,28070.5
31784.6,27957.6
31784.6,27842.4
31762.2,27729.5
31718.1,27623.1
31654.1,27527.3
31572.7,27445.9
31501,27398
31547,27370.5
31632.1,27293.8
31700.6,27201.9
31749.9,27098.5
31767.5,27040.5
31719.7,26950
31250,26950
31250,26957.9
31150,26957.9
31150,26950
30680.3,26950
30632.5,27040.5
30650.1,27098.5
30699.4,27201.9
30767.9,27293.8
30853,27370.5
30899,27398
30827.3,27445.9
30745.9,27527.3
30681.9,27623.1
30637.8,27729.5
30615.4,27842.4
30615.4,27957.6
30637.8,28070.5
30681.9,28176.9
30745.9,28272.7
30827.3,28354.1
30896,28400
30827.3,28445.9
30745.9,28527.3
30681.9,28623.1
30637.8,28729.5
30615.4,28842.4
30615.4,28957.6
30637.8,29070.5
30681.9,29176.9
30745.9,29272.7
30797.8,29324.6
30769.2,29333.3
30725.8,29356.5
30687.7,29387.7
30656.5,29425.8
30633.3,29469.2
30619,29516.3
30614.1,29565.4
30614.1,30234.6
30619,30283.7
30633.3,30330.8
30656.5,30374.2
30687.7,30412.3
30725.8,30443.5
30769.2,30466.7
30816.3,30481
30865.4,30485.9
31534.6,30485.9
31583.7,30481
31630.8,30466.7
31674.2,30443.5
31712.3,30412.3
31743.5,30374.2
31766.7,30330.8
31781,30283.7
31785.9,30234.6
31785.9,29565.4
31781,29516.3
31766.7,29469.2
31743.5,29425.8
31712.3,29387.7
31674.2,29356.5
31630.8,29333.3
31602.2,29324.6
31654.1,29272.7
31669.3,29250
31850,29250
31850,35755
31781,35824
31762.2,35729.5
31718.1,35623.1
31654.1,35527.3
31572.7,35445.9
31501,35398
31547,35370.5
31632.1,35293.8
31700.6,35201.9
31749.9,35098.5
31767.5,35040.5
31719.7,34950
31250,34950
31250,34957.9
31150,34957.9
31150,34950
30680.3,34950
30632.5,35040.5
30650.1,35098.5
30699.4,35201.9
30767.9,35293.8
30853,35370.5
30899,35398
30827.3,35445.9
30745.9,35527.3
30681.9,35623.1
30637.8,35729.5
30615.4,35842.4
30615.4,35957.6
30637.8,36070.5
30681.9,36176.9
30745.9,36272.7
30827.3,36354.1
30896,36400
30827.3,36445.9
30745.9,36527.3
30681.9,36623.1
30637.8,36729.5
30615.4,36842.4
30615.4,36957.6
30637.8,37070.5
30681.9,37176.9
30745.9,37272.7
30797.8,37324.6
30769.2,37333.3
30725.8,37356.5
30687.7,37387.7
30656.5,37425.8
30633.3,37469.2
30619,37516.3
30614.1,37565.4
30614.1,38234.6
30619,38283.7
30633.3,38330.8
30656.5,38374.2
30687.7,38412.3
30725.8,38443.5
30769.2,38466.7
30816.3,38481
30865.4,38485.9
31534.6,38485.9
31583.7,38481
31630.8,38466.7
31674.2,38443.5
31712.3,38412.3
31743.5,38374.2
31766.7,38330.8
31781,38283.7
31785.9,38234.6
31785.9,37847
37931.6,37847
37969.3,37951.1
38083.3,38006.6
38205.9,38038.7
38332.5,38046.3
38458.1,38029.1
38578,37987.7
38646.5,37951.1
38684.2,37847
38307.9,37470.7
37931.6,37847
31785.9,37847
31785.9,37809.1
32170.3,37424.6
37661.5,37424.6
37678.8,37550.3
37720.2,37670.1
37756.8,37738.6
37860.9,37776.3
38237.2,37400
38378.6,37400
38754.9,37776.3
38859,37738.6
38914.5,37624.6
38946.6,37501.9
38954.2,37375.4
38937,37249.7
38895.6,37129.9
38859,37061.4
38754.9,37023.7
38378.6,37400
38237.2,37400
37860.9,37023.7
37756.8,37061.4
37701.3,37175.4
37669.1,37298.1
37661.5,37424.6
32170.3,37424.6
32642,36953
37931.6,36953
38307.9,37329.3
38630.9,37006.3
40655.1,37006.3
40655.1,37793.7
40659.9,37842.7
40674.2,37889.8
40697.4,37933.3
40728.7,37971.3
40766.7,38002.6
40810.2,38025.8
40857.3,38040.1
40906.3,38044.9
41693.7,38044.9
41738.4,38040.5
44632.5,38040.5
44650.1,38098.5
44699.4,38201.9
44767.9,38293.8
44853,38370.5
44951.5,38429.2
45059.5,38467.5
45150,38420
45150,37950
45250,37950
45250,38420
45340.5,38467.5
45448.5,38429.2
45547,38370.5
45632.1,38293.8
45700.6,38201.9
45749.9,38098.5
45767.5,38040.5
45719.7,37950
45250,37950
45150,37950
44680.3,37950
44632.5,38040.5
41738.4,38040.5
41742.7,38040.1
41789.8,38025.8
41833.3,38002.6
41871.3,37971.3
41902.6,37933.3
41925.8,37889.8
41940.1,37842.7
41944.9,37793.7
41944.9,37006.3
41940.1,36957.3
41925.8,36910.2
41902.6,36866.7
41871.3,36828.7
41833.3,36797.4
41789.8,36774.2
41742.7,36759.9
41693.7,36755.1
41650,36755.1
41650,30030.9
41656.8,30064.8
41699.3,30167.6
41761.2,30260.1
41839.9,30338.8
41932.4,30400.7
42035.2,30443.2
42144.4,30465
42255.6,30465
42364.8,30443.2
42467.6,30400.7
42560.1,30338.8
42638.8,30260.1
42700.7,30167.6
42743.2,30064.8
42765,29955.6
42765,29844.4
42743.2,29735.2
42700.7,29632.4
42638.8,29539.9
42560.1,29461.2
42468.6,29400
42560.1,29338.8
42638.8,29260.1
42700.7,29167.6
42743.2,29064.8
42765,28955.6
42765,28844.4
42743.2,28735.2
42700.7,28632.4
42638.8,28539.9
42560.1,28461.2
42468.6,28400
42560.1,28338.8
42638.8,28260.1
42645.6,28250
42850,28250
42850,31917.2
42850,31917.2
42850,33882.8
42848.3,33900
42850,33917.2
42850,33917.2
42854.4,33961.4
42854.4,33962.2
42855.1,33968.6
42875.1,34034.6
42907.6,34095.4
42951.3,34148.7
42964.7,34159.6
44620.7,35815.7
44615.4,35842.4
44615.4,35957.6
44637.8,36070.5
44681.9,36176.9
44745.9,36272.7
44827.3,36354.1
44896,36400
44827.3,36445.9
44745.9,36527.3
44681.9,36623.1
44637.8,36729.5
44615.4,36842.4
44615.4,36957.6
44637.8,37070.5
44681.9,37176.9
44745.9,37272.7
44827.3,37354.1
44899,37402
44853,37429.5
44767.9,37506.2
44699.4,37598.1
44650.1,37701.5
44632.5,37759.5
44680.3,37850
45150,37850
45150,37842.1
45250,37842.1
45250,37850
45719.7,37850
45767.5,37759.5
45749.9,37701.5
45700.6,37598.1
45632.1,37506.2
45547,37429.5
45501,37402
45572.7,37354.1
45654.1,37272.7
45718.1,37176.9
45762.2,37070.5
45784.6,36957.6
45784.6,36842.4
45762.2,36729.5
45718.1,36623.1
45654.1,36527.3
45572.7,36445.9
45504,36400
45572.7,36354.1
45654.1,36272.7
45718.1,36176.9
45762.2,36070.5
45784.6,35957.6
45784.6,35842.4
45762.2,35729.5
45718.1,35623.1
45654.1,35527.3
45602.2,35475.4
45630.8,35466.7
45674.2,35443.5
45712.3,35412.3
45743.5,35374.2
45766.7,35330.8
45781,35283.7
45785.9,35234.6
45785.9,34565.4
45781,34516.3
45766.7,34469.2
45743.5,34425.8
45712.3,34387.7
45674.2,34356.5
45630.8,34333.3
45583.7,34319
45534.6,34314.1
45109.1,34314.1
44550,33755
44550,30040.5
44632.5,30040.5
44650.1,30098.5
44699.4,30201.9
44767.9,30293.8
44853,30370.5
44951.5,30429.2
45059.5,30467.5
45150,30420
45150,29950
45250,29950
45250,30420
45340.5,30467.5
45448.5,30429.2
45547,30370.5
45632.1,30293.8
45700.6,30201.9
45749.9,30098.5
45767.5,30040.5
45719.7,29950
45250,29950
45150,29950
44680.3,29950
44632.5,30040.5
44550,30040.5
44550,27250
44615.7,27250
44619,27283.7
44633.3,27330.8
44656.5,27374.2
44687.7,27412.3
44725.8,27443.5
44769.2,27466.7
44797.8,27475.4
44745.9,27527.3
44681.9,27623.1
44637.8,27729.5
44615.4,27842.4
44615.4,27957.6
44637.8,28070.5
44681.9,28176.9
44745.9,28272.7
44827.3,28354.1
44896,28400
44827.3,28445.9
44745.9,28527.3
44681.9,28623.1
44637.8,28729.5
44615.4,28842.4
44615.4,28957.6
44637.8,29070.5
44681.9,29176.9
44745.9,29272.7
44827.3,29354.1
44899,29402
44853,29429.5
44767.9,29506.2
44699.4,29598.1
44650.1,29701.5
44632.5,29759.5
44680.3,29850
45150,29850
45150,29842.1
45250,29842.1
45250,29850
45719.7,29850
45767.5,29759.5
45749.9,29701.5
45700.6,29598.1
45632.1,29506.2
45547,29429.5
45501,29402
45572.7,29354.1
45654.1,29272.7
45718.1,29176.9
45762.2,29070.5
45784.6,28957.6
45784.6,28842.4
45762.2,28729.5
45718.1,28623.1
45654.1,28527.3
45572.7,28445.9
45504,28400
45572.7,28354.1
45654.1,28272.7
45718.1,28176.9
45762.2,28070.5
45784.6,27957.6
45784.6,27842.4
45762.2,27729.5
45718.1,27623.1
45654.1,27527.3
45602.2,27475.4
45630.8,27466.7
45674.2,27443.5
45712.3,27412.3
45743.5,27374.2
45766.7,27330.8
45781,27283.7
45785.9,27234.6
45785.9,26565.4
45781,26516.3
45766.7,26469.2
45743.5,26425.8
45712.3,26387.7
45674.2,26356.5
45630.8,26333.3
45583.7,26319
45534.6,26314.1
44865.4,26314.1
44816.3,26319
44769.2,26333.3
44725.8,26356.5
44687.7,26387.7
44656.5,26425.8
44633.3,26469.2
44619,26516.3
44615.7,26550
44550,26550
44550,22040.5
44591.2,22040.5
44608.7,22098.5
44658,22201.9
44726.5,22293.8
44811.7,22370.5
44910.1,22429.2
45018.2,22467.5
45108.7,22420
45108.7,21950
45208.7,21950
45208.7,22420
45299.2,22467.5
45407.2,22429.2
45505.7,22370.5
45590.8,22293.8
45659.3,22201.9
45708.6,22098.5
45726.2,22040.5
45678.4,21950
45208.7,21950
45108.7,21950
44638.9,21950
44591.2,22040.5
44550,22040.5
44550,20003.6
44577.7,19976
44596.5,20070.5
44640.6,20176.9
44704.5,20272.7
44786,20354.1
44854.6,20400
44786,20445.9
44704.5,20527.3
44640.6,20623.1
44596.5,20729.5
44574,20842.4
44574,20957.6
44596.5,21070.5
44640.6,21176.9
44704.5,21272.7
44786,21354.1
44857.7,21402
44811.7,21429.5
44726.5,21506.2
44658,21598.1
44608.7,21701.5
44591.2,21759.5
44638.9,21850
45108.7,21850
45108.7,21842.1
45208.7,21842.1
45208.7,21850
45678.4,21850
45726.2,21759.5
45708.6,21701.5
45659.3,21598.1
45590.8,21506.2
45505.7,21429.5
45459.6,21402
45531.4,21354.1
45612.8,21272.7
45676.8,21176.9
45720.8,21070.5
45743.3,20957.6
45743.3,20842.4
45720.8,20729.5
45676.8,20623.1
45612.8,20527.3
45531.4,20445.9
45462.7,20400
45531.4,20354.1
45612.8,20272.7
45676.8,20176.9
45720.8,20070.5
45743.3,19957.6
45743.3,19842.4
45720.8,19729.5
45676.8,19623.1
45612.8,19527.3
45560.9,19475.4
45589.4,19466.7
45632.9,19443.5
45670.9,19412.3
45702.2,19374.2
45725.4,19330.8
45739.7,19283.7
45744.5,19234.6
45744.5,18565.4
45739.7,18516.3
45725.4,18469.2
45702.2,18425.8
45670.9,18387.7
45632.9,18356.5
45589.4,18333.3
45542.3,18319
45493.3,18314.1
44824,18314.1
44775,18319
44727.9,18333.3
44684.5,18356.5
44646.4,18387.7
44615.1,18425.8
44591.9,18469.2
44577.6,18516.3
44572.8,18565.4
44572.8,18990.9
43964.7,19599
43951.3,19610
43907.6,19663.3
43875.1,19724.1
43855.1,19790.1
43850,19841.5
43850,19841.5
43848.3,19858.7
43850,19875.9
43850,26690.4
43838.9,26707
43808.2,26781.1
43792.5,26859.9
43792.5,26940.1
43808.2,27018.9
43838.9,27093
43850,27109.6
43850,33882.8
43848.3,33900
43855.1,33968.6
43875.1,34034.6
43907.6,34095.4
43907.6,34095.4
43951.3,34148.7
43964.7,34159.6
44614.1,34809.1
44614.1,34819.2
43550,33755
43550,28109.6
43561.1,28093
43591.8,28018.9
43607.5,27940.1
43607.5,27859.9
43591.8,27781.1
43561.1,27707
43550,27690.4
43550,22109.6
43561.1,22093
43591.8,22018.9
43607.5,21940.1
43607.5,21859.9
43591.8,21781.1
43561.1,21707
43516.5,21640.2
43459.8,21583.5
43393,21538.9
43318.9,21508.2
43240.1,21492.5
43159.9,21492.5
43081.1,21508.2
43007,21538.9
42940.2,21583.5
42883.5,21640.2
42838.9,21707
42808.2,21781.1
42792.5,21859.9
42792.5,21940.1
42808.2,22018.9
42838.9,22093
42850,22109.6
42850,27550
42645.6,27550
42638.8,27539.9
42560.1,27461.2
42468.6,27400
42560.1,27338.8
42638.8,27260.1
42700.7,27167.6
42743.2,27064.8
42765,26955.6
42765,26844.4
42743.2,26735.2
42700.7,26632.4
42638.8,26539.9
42560.1,26461.2
42468.6,26400
42560.1,26338.8
42638.8,26260.1
42700.7,26167.6
42743.2,26064.8
42765,25955.6
42765,25844.4
42743.2,25735.2
42700.7,25632.4
42638.8,25539.9
42560.1,25461.2
42468.6,25400
42560.1,25338.8
42638.8,25260.1
42700.7,25167.6
42743.2,25064.8
42765,24955.6
42765,24844.4
42743.2,24735.2
42700.7,24632.4
42638.8,24539.9
42560.1,24461.2
42468.6,24400
42560.1,24338.8
42638.8,24260.1
42700.7,24167.6
42743.2,24064.8
42765,23955.6
42765,23844.4
42743.2,23735.2
42700.7,23632.4
42638.8,23539.9
42560.1,23461.2
42468.6,23400
42560.1,23338.8
42638.8,23260.1
42700.7,23167.6
42743.2,23064.8
42765,22955.6
42765,22844.4
42743.2,22735.2
42700.7,22632.4
42638.8,22539.9
42560.1,22461.2
42468.6,22400
42560.1,22338.8
42638.8,22260.1
42700.7,22167.6
42743.2,22064.8
42765,21955.6
42765,21844.4
42743.2,21735.2
42700.7,21632.4
42638.8,21539.9
42560.1,21461.2
42468.6,21400
42560.1,21338.8
42638.8,21260.1
42700.7,21167.6
42743.2,21064.8
42765,20955.6
42765,20844.4
42743.2,20735.2
42700.7,20632.4
42638.8,20539.9
42560.1,20461.2
42468.6,20400
42560.1,20338.8
42638.8,20260.1
42700.7,20167.6
42743.2,20064.8
42765,19955.6
42765,19844.4
42743.2,19735.2
42700.7,19632.4
42638.8,19539.9
42560.1,19461.2
42468.6,19400
42560.1,19338.8
42638.8,19260.1
42700.7,19167.6
42743.2,19064.8
42765,18955.6
42765,18844.4
42743.2,18735.2
42700.7,18632.4
42638.8,18539.9
42560.1,18461.2
42467.6,18399.3
42364.8,18356.8
42255.6,18335
42144.4,18335
42035.2,18356.8
41932.4,18399.3
41839.9,18461.2
41761.2,18539.9
41699.3,18632.4
41656.8,18735.2
41635,18844.4
41635,18955.6
41656.8,19064.8
41699.3,19167.6
41761.2,19260.1
41839.9,19338.8
41931.4,19400
41839.9,19461.2
41761.2,19539.9
41699.3,19632.4
41656.8,19735.2
41635,19844.4
41635,19955.6
41656.8,20064.8
41699.3,20167.6
41761.2,20260.1
41839.9,20338.8
41931.4,20400
41839.9,20461.2
41761.2,20539.9
41699.3,20632.4
41656.8,20735.2
41635,20844.4
41635,20955.6
41656.8,21064.8
41699.3,21167.6
41761.2,21260.1
41839.9,21338.8
41931.4,21400
41839.9,21461.2
41761.2,21539.9
41699.3,21632.4
41656.8,21735.2
41635,21844.4
41635,21955.6
41656.8,22064.8
41699.3,22167.6
41761.2,22260.1
41839.9,22338.8
41931.4,22400
41839.9,22461.2
41761.2,22539.9
41699.3,22632.4
41656.8,22735.2
41635,22844.4
41635,22955.6
41637.4,22967.6
41064.7,23540.4
41051.3,23551.3
41040.4,23564.7
41040.4,23564.7
41007.6,23604.6
40975.1,23665.4
40955.1,23731.4
40948.3,23800
40950,23817.2
40950,36755.1
40906.3,36755.1
40857.3,36759.9
40810.2,36774.2
40766.7,36797.4
40728.7,36828.7
40697.4,36866.7
40674.2,36910.2
40659.9,36957.3
40655.1,37006.3
38630.9,37006.3
38684.2,36953
38646.5,36848.9
38532.5,36793.4
38409.8,36761.3
38283.2,36753.7
38157.6,36770.9
38037.8,36812.3
37969.3,36848.9
37931.6,36953
32642,36953
33435.3,36159.6
33448.7,36148.7
33492.4,36095.4
33524.9,36034.6
33536.2,35997.3
33544.9,35968.6
33546,35957.6
33550,35917.2
33550,35917.2
33551.7,35900
33550,35882.8
33550,33734.6
34614.1,33734.6
34619,33783.7
34633.3,33830.8
34656.5,33874.2
34687.7,33912.3
34725.8,33943.5
34769.2,33966.7
34816.3,33981
34865.4,33985.9
35087.5,33984.6
35150,33922.1
35150,33450
34677.9,33450
34615.4,33512.5
34614.1,33734.6
33550,33734.6
33550,33065.4
34614.1,33065.4
34615.4,33287.5
34677.9,33350
35150,33350
35150,32877.9
35087.5,32815.4
34865.4,32814.1
34816.3,32819
34769.2,32833.3
34725.8,32856.5
34687.7,32887.7
34656.5,32925.8
34633.3,32969.2
34619,33016.3
34614.1,33065.4
33550,33065.4
33550,30109.6
33561.1,30093
33591.8,30018.9
33607.5,29940.1
33607.5,29859.9
33591.8,29781.1
33561.1,29707
33550,29690.4
33550,24109.6
33561.1,24093
33591.8,24018.9
33607.5,23940.1
33607.5,23859.9
33591.8,23781.1
33561.1,23707
33516.5,23640.2
33459.8,23583.5
33393,23538.9
33318.9,23508.2
33240.1,23492.5
33159.9,23492.5
33081.1,23508.2
33050,23521.1
33050,18844.4
33635,18844.4
33635,18955.6
33656.8,19064.8
33699.3,19167.6
33761.2,19260.1
33839.9,19338.8
33931.4,19400
33839.9,19461.2
33761.2,19539.9
33699.3,19632.4
33656.8,19735.2
33635,19844.4
33635,19955.6
33656.8,20064.8
33699.3,20167.6
33761.2,20260.1
33839.9,20338.8
33931.4,20400
33839.9,20461.2
33761.2,20539.9
33699.3,20632.4
33656.8,20735.2
33635,20844.4
33635,20955.6
33656.8,21064.8
33699.3,21167.6
33761.2,21260.1
33839.9,21338.8
33931.4,21400
33839.9,21461.2
33761.2,21539.9
33699.3,21632.4
33656.8,21735.2
33635,21844.4
33635,21955.6
33656.8,22064.8
33699.3,22167.6
33761.2,22260.1
33839.9,22338.8
33931.4,22400
33839.9,22461.2
33761.2,22539.9
33699.3,22632.4
33656.8,22735.2
33635,22844.4
33635,22955.6
33656.8,23064.8
33699.3,23167.6
33761.2,23260.1
33839.9,23338.8
33931.4,23400
33839.9,23461.2
33761.2,23539.9
33699.3,23632.4
33656.8,23735.2
33635,23844.4
33635,23955.6
33656.8,24064.8
33699.3,24167.6
33761.2,24260.1
33839.9,24338.8
33931.4,24400
33839.9,24461.2
33761.2,24539.9
33699.3,24632.4
33656.8,24735.2
33635,24844.4
33635,24955.6
33656.8,25064.8
33699.3,25167.6
33761.2,25260.1
33839.9,25338.8
33931.4,25400
33839.9,25461.2
33761.2,25539.9
33699.3,25632.4
33656.8,25735.2
33635,25844.4
33635,25955.6
33656.8,26064.8
33699.3,26167.6
33761.2,26260.1
33839.9,26338.8
33931.4,26400
33839.9,26461.2
33761.2,26539.9
33699.3,26632.4
33656.8,26735.2
33635,26844.4
33635,26955.6
33656.8,27064.8
33699.3,27167.6
33761.2,27260.1
33839.9,27338.8
33931.4,27400
33839.9,27461.2
33761.2,27539.9
33699.3,27632.4
33656.8,27735.2
33635,27844.4
33635,27955.6
33656.8,28064.8
33699.3,28167.6
33761.2,28260.1
33839.9,28338.8
33931.4,28400
33839.9,28461.2
33761.2,28539.9
33699.3,28632.4
33656.8,28735.2
33635,28844.4
33635,28955.6
33656.8,29064.8
33699.3,29167.6
33761.2,29260.1
33839.9,29338.8
33931.4,29400
33839.9,29461.2
33761.2,29539.9
33699.3,29632.4
33656.8,29735.2
33635,29844.4
33635,29955.6
33656.8,30064.8
33699.3,30167.6
33761.2,30260.1
33839.9,30338.8
33932.4,30400.7
34035.2,30443.2
34144.4,30465
34255.6,30465
34364.8,30443.2
34467.6,30400.7
34560.1,30338.8
34638.8,30260.1
34700.7,30167.6
34743.2,30064.8
34765,29955.6
34765,29844.4
34743.2,29735.2
34700.7,29632.4
34638.8,29539.9
34560.1,29461.2
34468.6,29400
34560.1,29338.8
34638.8,29260.1
34700.7,29167.6
34743.2,29064.8
34765,28955.6
34765,28844.4
34743.2,28735.2
34700.7,28632.4
34638.8,28539.9
34560.1,28461.2
34468.6,28400
34560.1,28338.8
34638.8,28260.1
34700.7,28167.6
34743.2,28064.8
34765,27955.6
34765,27844.4
34743.2,27735.2
34700.7,27632.4
34638.8,27539.9
34560.1,27461.2
34468.6,27400
34560.1,27338.8
34638.8,27260.1
34700.7,27167.6
34743.2,27064.8
34765,26955.6
34765,26844.4
34743.2,26735.2
34700.7,26632.4
34638.8,26539.9
34560.1,26461.2
34468.6,26400
34560.1,26338.8
34638.8,26260.1
34700.7,26167.6
34743.2,26064.8
34765,25955.6
34765,25844.4
34743.2,25735.2
34700.7,25632.4
34638.8,25539.9
34560.1,25461.2
34468.6,25400
34560.1,25338.8
34638.8,25260.1
34700.7,25167.6
34743.2,25064.8
34765,24955.6
34765,24844.4
34743.2,24735.2
34700.7,24632.4
34638.8,24539.9
34560.1,24461.2
34468.6,24400
34560.1,24338.8
34638.8,24260.1
34700.7,24167.6
34743.2,24064.8
34765,23955.6
34765,23844.4
34743.2,23735.2
34700.7,23632.4
34638.8,23539.9
34560.1,23461.2
34468.6,23400
34560.1,23338.8
34638.8,23260.1
34700.7,23167.6
34743.2,23064.8
34764.2,22959.2
36850,25045
36850,32930.7
36827.3,32945.9
36745.9,33027.3
36700,33096
36654.1,33027.3
36572.7,32945.9
36476.9,32881.9
36370.5,32837.8
36257.6,32815.4
36142.4,32815.4
36029.5,32837.8
35923.1,32881.9
35827.3,32945.9
35775.4,32997.8
35766.7,32969.2
35743.5,32925.8
35712.3,32887.7
35674.2,32856.5
35630.8,32833.3
35583.7,32819
35534.6,32814.1
35312.5,32815.4
35250,32877.9
35250,33350
35257.9,33350
35257.9,33450
35250,33450
35250,33922.1
35312.5,33984.6
35534.6,33985.9
35583.7,33981
35630.8,33966.7
35674.2,33943.5
35712.3,33912.3
35743.5,33874.2
35766.7,33830.8
35775.4,33802.2
35827.3,33854.1
35923.1,33918.1
36029.5,33962.2
36142.4,33984.6
36257.6,33984.6
36370.5,33962.2
36476.9,33918.1
36572.7,33854.1
36654.1,33772.7
36700,33704
36745.9,33772.7
36827.3,33854.1
36923.1,33918.1
37029.5,33962.2
37142.4,33984.6
37257.6,33984.6
37370.5,33962.2
37476.9,33918.1
37572.7,33854.1
37654.1,33772.7
37700,33704
37745.9,33772.7
37827.3,33854.1
37923.1,33918.1
38029.5,33962.2
38142.4,33984.6
38257.6,33984.6
38370.5,33962.2
38476.9,33918.1
38572.7,33854.1
38654.1,33772.7
38700,33704
38745.9,33772.7
38827.3,33854.1
38923.1,33918.1
39029.5,33962.2
39142.4,33984.6
39257.6,33984.6
39370.5,33962.2
39476.9,33918.1
39572.7,33854.1
39654.1,33772.7
39718.1,33676.9
39762.2,33570.5
39784.6,33457.6
39784.6,33342.4
39762.2,33229.5
39718.1,33123.1
39654.1,33027.3
39572.7,32945.9
39550,32930.7
39550,24917.2
39551.7,24900
39550,24882.8
39550,24882.8
39544.9,24831.4
39544.9,24831.4
39524.9,24765.4
39523.5,24762.7
39492.4,24704.6
39448.7,24651.3
39435.3,24640.4
34762.6,19967.6
34765,19955.6
34765,19844.4
34743.2,19735.2
34700.7,19632.4
34638.8,19539.9
34560.1,19461.2
34468.6,19400
34560.1,19338.8
34638.8,19260.1
34700.7,19167.6
34743.2,19064.8
34765,18955.6
34765,18844.4
34743.2,18735.2
34700.7,18632.4
34638.8,18539.9
34560.1,18461.2
34468.1,18399.6
34491.9,18386.9
34520.1,18290.8
34200,17970.7
33879.9,18290.8
33908.1,18386.9
33933.5,18398.9
33932.4,18399.3
33839.9,18461.2
33761.2,18539.9
33699.3,18632.4
33656.8,18735.2
33635,18844.4
33050,18844.4
33050,17927.8
33633,17927.8
33649.3,18037.8
33686.8,18142.6
33713.1,18191.9
33809.2,18220.1
34129.3,17900
34270.7,17900
34590.8,18220.1
34686.9,18191.9
34734.5,18091.3
34761.5,17983.4
34767,17872.2
34750.7,17762.2
34713.2,17657.4
34686.9,17608.1
34590.8,17579.9
34270.7,17900
34129.3,17900
33809.2,17579.9
33713.1,17608.1
33665.5,17708.7
33638.5,17816.6
33633,17927.8
33050,17927.8
33050,17545
33635.8,16959.2
33656.8,17064.8
33699.3,17167.6
33761.2,17260.1
33839.9,17338.8
33931.9,17400.4
33908.1,17413.1
33879.9,17509.2
34200,17829.3
34520.1,17509.2
34491.9,17413.1
34466.5,17401.1
34467.6,17400.7
34560.1,17338.8
34638.8,17260.1
34700.7,17167.6
34743.2,17064.8
34765,16955.6
34765,16844.4
34743.2,16735.2
34700.7,16632.4
34638.8,16539.9
34560.1,16461.2
34468.6,16400
34560.1,16338.8
34638.8,16260.1
34700.7,16167.6
34743.2,16064.8
34765,15955.6
34765,15844.4
34743.2,15735.2
34700.7,15632.4
34638.8,15539.9
34560.6,15461.7
34564,15461.3
34611.1,15447
34654.5,15423.8
34692.6,15392.6
34723.8,15354.5
34747,15311.1
34761.3,15264
34766.2,15215
34766.2,14585
34761.3,14536
34747,14488.9
34723.8,14445.5
34692.6,14407.4
34654.5,14376.2
34611.1,14353
34564,14338.7
34515,14333.8
33885,14333.8
33836,14338.7
33788.9,14353
33745.5,14376.2
33707.4,14407.4
33676.2,14445.5
33653,14488.9
33638.7,14536
33633.8,14585
33633.8,15215
33638.7,15264
33653,15311.1
33676.2,15354.5
33707.4,15392.6
33745.5,15423.8
33788.9,15447
33836,15461.3
33839.4,15461.7
33761.2,15539.9
33699.3,15632.4
33656.8,15735.2
33635,15844.4
33635,15955.6
33637.4,15967.6
32464.7,17140.4
32451.3,17151.3
32440.4,17164.7
32407.6,17204.6
32375.1,17265.4
32355.1,17331.4
32354.4,17338.5
32350,17382.8
32350,17382.8
32348.3,17400
32350,17417.2
32350,21555
31779.3,20984.3
31784.6,20957.6
31784.6,20842.4
31762.2,20729.5
31718.1,20623.1
31654.1,20527.3
31572.7,20445.9
31504,20400
31572.7,20354.1
31654.1,20272.7
31718.1,20176.9
31762.2,20070.5
31784.6,19957.6
31784.6,19842.4
31762.2,19729.5
31718.1,19623.1
31654.1,19527.3
31572.7,19445.9
31501,19398
31547,19370.5
31632.1,19293.8
31700.6,19201.9
31749.9,19098.5
31767.5,19040.5
31719.7,18950
31250,18950
31250,18957.9
31150,18957.9
31150,18950
30680.3,18950
30632.5,19040.5
30650.1,19098.5
30699.4,19201.9
30767.9,19293.8
30853,19370.5
30899,19398
30827.3,19445.9
30745.9,19527.3
30681.9,19623.1
30637.8,19729.5
30615.4,19842.4
30615.4,19957.6
30637.8,20070.5
30681.9,20176.9
30745.9,20272.7
30827.3,20354.1
30896,20400
30827.3,20445.9
30745.9,20527.3
30681.9,20623.1
30637.8,20729.5
30615.4,20842.4
30615.4,20957.6
30637.8,21070.5
30681.9,21176.9
30745.9,21272.7
30797.8,21324.6
30769.2,21333.3
30725.8,21356.5
30687.7,21387.7
30656.5,21425.8
30633.3,21469.2
30619,21516.3
30614.1,21565.4
28455,21565.4
28455,18759.5
30632.5,18759.5
30680.3,18850
31150,18850
31150,18380
31250,18380
31250,18850
31719.7,18850
31767.5,18759.5
31749.9,18701.5
31700.6,18598.1
31632.1,18506.2
31547,18429.5
31448.5,18370.8
31340.5,18332.5
31250,18380
31150,18380
31059.5,18332.5
30951.5,18370.8
30853,18429.5
30767.9,18506.2
30699.4,18598.1
30650.1,18701.5
30632.5,18759.5
28455,18759.5
28455,14453.9
28751.5,14453.9
28751.5,14946.1
28758.3,15014.3
28778.2,15079.9
28810.5,15140.3
28854,15193.3
28862.1,15200
28854,15206.7
28810.5,15259.7
28778.2,15320.1
28758.3,15385.7
28751.5,15453.9
28751.5,15946.1
28758.3,16014.3
28778.2,16079.9
28810.5,16140.3
28854,16193.3
28906.9,16236.8
28967.4,16269.1
29033,16289
29101.2,16295.7
29347.2,16295.7
29415.5,16289
29481,16269.1
29541.5,16236.8
29594.5,16193.3
29638,16140.3
29670.3,16079.9
29681,16044.5
29903.1,16044.5
29907.9,16093.5
29922.2,16140.6
29945.5,16184.1
29976.7,16222.1
30014.8,16253.4
30058.2,16276.6
30105.3,16290.9
30154.3,16295.7
30263.3,16294.5
30325.8,16232
30325.8,15750
29966.8,15750
29904.3,15812.5
29903.1,16044.5
29681,16044.5
29690.2,16014.3
29696.9,15946.1
29696.9,15453.9
29690.2,15385.7
29670.3,15320.1
29638,15259.7
29607.7,15222.8
29643.7,15193.3
29687.2,15140.3
29719.5,15079.9
29739.4,15014.3
29746.1,14946.1
29746.1,14453.9
29853.9,14453.9
29853.9,14946.1
29860.6,15014.3
29880.5,15079.9
29912.8,15140.3
29956.3,15193.3
29960.9,15197.1
29945.5,15215.9
29922.2,15259.4
29907.9,15306.5
29903.1,15355.5
29904.3,15587.5
29966.8,15650
30325.8,15650
30325.8,15642.1
30425.8,15642.1
30425.8,15650
30433.7,15650
30433.7,15750
30425.8,15750
30425.8,16232
30488.3,16294.5
30550,16295.2
30550,16390.4
30538.9,16407
30508.2,16481.1
30492.5,16559.9
30492.5,16640.1
30508.2,16718.9
30538.9,16793
30583.5,16859.8
30640.2,16916.5
30707,16961.1
30781.1,16991.8
30859.9,17007.5
30940.1,17007.5
31018.9,16991.8
31093,16961.1
31159.8,16916.5
31216.5,16859.8
31261.1,16793
31291.8,16718.9
31307.5,16640.1
31307.5,16559.9
31291.8,16481.1
31261.1,16407
31250,16390.4
31250,16290.7
31301.2,16295.7
31547.2,16295.7
31615.5,16289
31681,16269.1
31741.5,16236.8
31794.5,16193.3
31838,16140.3
31870.3,16079.9
31881,16044.5
32103.1,16044.5
32107.9,16093.5
32122.2,16140.6
32145.5,16184.1
32176.7,16222.1
32214.8,16253.4
32258.2,16276.6
32305.3,16290.9
32354.3,16295.7
32463.3,16294.5
32525.8,16232
32525.8,15750
32166.8,15750
32104.3,15812.5
32103.1,16044.5
31881,16044.5
31890.2,16014.3
31896.9,15946.1
31896.9,15453.9
31890.2,15385.7
31870.3,15320.1
31838,15259.7
31807.7,15222.8
31843.7,15193.3
31887.2,15140.3
31919.5,15079.9
31939.4,15014.3
31946.1,14946.1
31946.1,14453.9
32053.9,14453.9
32053.9,14946.1
32060.6,15014.3
32080.5,15079.9
32112.8,15140.3
32156.3,15193.3
32160.9,15197.1
32145.5,15215.9
32122.2,15259.4
32107.9,15306.5
32103.1,15355.5
32104.3,15587.5
32166.8,15650
32525.8,15650
32525.8,15642.1
32625.8,15642.1
32625.8,15650
32633.7,15650
32633.7,15750
32625.8,15750
32625.8,16232
32688.3,16294.5
32797.2,16295.7
32846.3,16290.9
32893.4,16276.6
32936.8,16253.4
32974.9,16222.1
33006.1,16184.1
33029.3,16140.6
33043.6,16093.5
33048.5,16044.5
33047.2,15812.5
32984.7,15750
32990.4,15750
33007,15761.1
33081.1,15791.8
33159.9,15807.5
33240.1,15807.5
33318.9,15791.8
33393,15761.1
33459.8,15716.5
33516.5,15659.8
33561.1,15593
33591.8,15518.9
33607.5,15440.1
33607.5,15359.9
33591.8,15281.1
33561.1,15207
33516.5,15140.2
33459.8,15083.5
33393,15038.9
33379.4,15033.3
33048.5,14702.3
33048.5,14453.9
33041.7,14385.7
33021.8,14320.1
32989.5,14259.7
32946,14206.7
32893.1,14163.2
32832.6,14130.9
32767,14111
32698.8,14104.3
32403.5,14104.3
32335.3,14111
32269.7,14130.9
32209.3,14163.2
32156.3,14206.7
32112.8,14259.7
32080.5,14320.1
32060.6,14385.7
32053.9,14453.9
31946.1,14453.9
31939.4,14385.7
31919.5,14320.1
31887.2,14259.7
31843.7,14206.7
31790.7,14163.2
31730.3,14130.9
31664.7,14111
31596.5,14104.3
31301.2,14104.3
31233,14111
31167.4,14130.9
31106.9,14163.2
31054,14206.7
31010.5,14259.7
30978.2,14320.1
30958.3,14385.7
30951.5,14453.9
30951.5,14805.4
30848.5,14702.3
30848.5,14453.9
30841.7,14385.7
30821.8,14320.1
30789.5,14259.7
30746,14206.7
30693.1,14163.2
30632.6,14130.9
30567,14111
30498.8,14104.3
30203.5,14104.3
30135.3,14111
30069.7,14130.9
30009.3,14163.2
29956.3,14206.7
29912.8,14259.7
29880.5,14320.1
29860.6,14385.7
29853.9,14453.9
29746.1,14453.9
29739.4,14385.7
29719.5,14320.1
29687.2,14259.7
29643.7,14206.7
29590.7,14163.2
29530.3,14130.9
29464.7,14111
29396.5,14104.3
29101.2,14104.3
29033,14111
28967.4,14130.9
28906.9,14163.2
28854,14206.7
28810.5,14259.7
28778.2,14320.1
28758.3,14385.7
28751.5,14453.9
28455,14453.9
28455,12963.3
28707.4,12963.3
28849.2,13156.1
29110.6,13298
29394.6,13386.1
29690.4,13417.1
29986.6,13389.8
30271.7,13305.3
30534.9,13166.8
30550.8,13156.1
30692.6,12963.3
45707.4,12963.3
45849.2,13156.1
46110.6,13298
46394.6,13386.1
46690.4,13417.1
46986.6,13389.8
47271.7,13305.3
47534.9,13166.8
47550.8,13156.1
47692.6,12963.3
46700,11970.7
45707.4,12963.3
30692.6,12963.3
29700,11970.7
28707.4,12963.3
28455,12963.3
28455,12759
28636.7,12892.6
29629.3,11900
29770.7,11900
30763.3,12892.6
30956.1,12750.8
31098,12489.4
31186.1,12205.4
31217.1,11909.6
31215.4,11890.4
45182.9,11890.4
45210.2,12186.6
45294.7,12471.7
45433.2,12734.9
45443.9,12750.8
45636.7,12892.6
46629.3,11900
45636.7,10907.4
45443.9,11049.2
45302,11310.6
45213.9,11594.6
45182.9,11890.4
31215.4,11890.4
31189.8,11613.4
31105.3,11328.3
30966.8,11065.1
30956.1,11049.2
30763.3,10907.4
29770.7,11900
29629.3,11900
29623.7,11894.4
29694.4,11823.7
29700,11829.3
30692.6,10836.7
30559,10655
45841,10655
Z" /> 
</g>
</g>
</g> 
</svg>
