<?xml version="1.0" standalone="no"?>
 <!DOCTYPE svg PUBLIC "-//W3C//DTD SVG 1.1//EN" 
 "http://www.w3.org/Graphics/SVG/1.1/DTD/svg11.dtd"> 
<svg
  xmlns:svg="http://www.w3.org/2000/svg"
  xmlns="http://www.w3.org/2000/svg"
  xmlns:xlink="http://www.w3.org/1999/xlink"
  version="1.1"
  width="17.780000cm" height="17.780000cm" viewBox="0 0 70000 70000">
<title>SVG Picture created as M5_BuggyProject-Edge_Cuts.svg date 2022/01/28 00:36:10 </title>
  <desc>Picture generated by PCBNEW </desc>
<g style="fill:#000000; fill-opacity:1;stroke:#000000; stroke-opacity:1;
stroke-linecap:round; stroke-linejoin:round;"
 transform="translate(0 0) scale(1 1)">
</g>
<g style="fill:#000000; fill-opacity:0.0; 
stroke:#000000; stroke-width:-0.000393701; stroke-opacity:1; 
stroke-linecap:round; stroke-linejoin:round;">
</g>
<g style="fill:#000000; fill-opacity:0.0; 
stroke:#000000; stroke-width:10; stroke-opacity:1; 
stroke-linecap:round; stroke-linejoin:round;">
<path d="M30200 15400
L30200 20900
" />
<path d="M46200 15400
L46200 20900
" />
<path d="M30200 47400
L30200 47900
" />
<path d="M46200 47400
L46200 47900
" />
<path d="M46200 20900
L46200 21900
" />
<path d="M30200 20900
L30200 21900
" />
<path d="M30200 45900
L30200 47400
" />
<path d="M46200 45900
L46200 47400
" />
<path d="M30200 47900 A1500 1500 0.0 0 0 31700 49400" />
<path d="M44700 49400 A1500 1500 0.0 0 0 46200 47900" />
<path d="M31700 13900 A1500 1500 0.0 0 0 30200 15400" />
<path d="M46200 15400 A1500 1500 0.0 0 0 44700 13900" />
<path d="M30200 21900
L30200 45900
" />
<path d="M44700 13900
L31700 13900
" />
<path d="M46200 21900
L46200 45900
" />
<path d="M31700 49400
L44700 49400
" />
<g >
</g>
<g >
</g>
<g >
</g>
<g >
</g>
<g >
</g>
<g >
</g>
<g >
</g>
<g >
</g>
<g >
</g>
<g >
</g>
<g >
</g>
<g >
</g>
<g >
</g>
<g >
</g>
<g >
</g>
<g >
</g>
<g >
</g>
<g >
</g>
<g >
</g>
<g >
</g>
<g >
</g>
<g >
</g>
<g >
</g>
<g >
</g>
<g >
</g>
<g >
</g>
</g> 
</svg>
