<?xml version="1.0" standalone="no"?>
 <!DOCTYPE svg PUBLIC "-//W3C//DTD SVG 1.1//EN" 
 "http://www.w3.org/Graphics/SVG/1.1/DTD/svg11.dtd"> 
<svg
  xmlns:svg="http://www.w3.org/2000/svg"
  xmlns="http://www.w3.org/2000/svg"
  xmlns:xlink="http://www.w3.org/1999/xlink"
  version="1.1"
  width="17.780000cm" height="17.780000cm" viewBox="0 0 70000 70000">
<title>SVG Picture created as M5_BuggyProject-F_SilkS.svg date 2022/03/10 12:53:45 </title>
  <desc>Picture generated by PCBNEW </desc>
<g style="fill:#000000; fill-opacity:1;stroke:#000000; stroke-opacity:1;
stroke-linecap:round; stroke-linejoin:round;"
 transform="translate(0 0) scale(1 1)">
</g>
<g style="fill:#000000; fill-opacity:0.0; 
stroke:#000000; stroke-width:-0.000393701; stroke-opacity:1; 
stroke-linecap:round; stroke-linejoin:round;">
</g>
<g style="fill:#000000; fill-opacity:0.0; 
stroke:#000000; stroke-width:30; stroke-opacity:1; 
stroke-linecap:round; stroke-linejoin:round;">
<text x="33100" y="14833.5"
textLength="371.431" font-size="400" lengthAdjust="spacingAndGlyphs"
text-anchor="middle" opacity="0">+</text>
<path d="M32985 14704
L33214 14704
" />
<path d="M33100 14819
L33100 14590
" />
<text x="30900" y="14833.5"
textLength="410.429" font-size="400" lengthAdjust="spacingAndGlyphs"
text-anchor="middle" opacity="0">+</text>
<path d="M30785 14704
L31014 14704
" />
<path d="M30900 14819
L30900 14590
" />
<text x="29100" y="40933.5"
textLength="410.429" font-size="400" lengthAdjust="spacingAndGlyphs"
text-anchor="middle" opacity="0">+</text>
<path d="M28985 40804
L29214 40804
" />
<path d="M29100 40919
L29100 40690
" />
<text x="39200" y="34500"
textLength="639" font-size="266.667" lengthAdjust="spacingAndGlyphs"
text-anchor="middle" opacity="0">CH1</text>
<path d="M39061 34471
L39052 34480
L39023 34490
L39004 34490
L38976 34480
L38957 34461
L38947 34442
L38938 34404
L38938 34376
L38947 34338
L38957 34319
L38976 34300
L39004 34290
L39023 34290
L39052 34300
L39061 34309
" />
<path d="M39147 34490
L39147 34290
" />
<path d="M39147 34385
L39261 34385
" />
<path d="M39261 34490
L39261 34290
" />
<path d="M39461 34490
L39347 34490
" />
<path d="M39404 34490
L39404 34290
L39385 34319
L39366 34338
L39347 34347
" />
<text x="38200" y="34500"
textLength="639" font-size="266.667" lengthAdjust="spacingAndGlyphs"
text-anchor="middle" opacity="0">CH2</text>
<path d="M38061 34471
L38052 34480
L38023 34490
L38004 34490
L37976 34480
L37957 34461
L37947 34442
L37938 34404
L37938 34376
L37947 34338
L37957 34319
L37976 34300
L38004 34290
L38023 34290
L38052 34300
L38061 34309
" />
<path d="M38147 34490
L38147 34290
" />
<path d="M38147 34385
L38261 34385
" />
<path d="M38261 34490
L38261 34290
" />
<path d="M38347 34309
L38357 34300
L38376 34290
L38423 34290
L38442 34300
L38452 34309
L38461 34328
L38461 34347
L38452 34376
L38338 34490
L38461 34490
" />
<text x="37200" y="34500"
textLength="639" font-size="266.667" lengthAdjust="spacingAndGlyphs"
text-anchor="middle" opacity="0">CH3</text>
<path d="M37061 34471
L37052 34480
L37023 34490
L37004 34490
L36976 34480
L36957 34461
L36947 34442
L36938 34404
L36938 34376
L36947 34338
L36957 34319
L36976 34300
L37004 34290
L37023 34290
L37052 34300
L37061 34309
" />
<path d="M37147 34490
L37147 34290
" />
<path d="M37147 34385
L37261 34385
" />
<path d="M37261 34490
L37261 34290
" />
<path d="M37338 34290
L37461 34290
L37395 34366
L37423 34366
L37442 34376
L37452 34385
L37461 34404
L37461 34452
L37452 34471
L37442 34480
L37423 34490
L37366 34490
L37347 34480
L37338 34471
" />
<text x="36200" y="34500"
textLength="781.857" font-size="266.667" lengthAdjust="spacingAndGlyphs"
text-anchor="middle" opacity="0">VOUT</text>
<path d="M35847 34290
L35914 34490
L35980 34290
" />
<path d="M36085 34290
L36123 34290
L36142 34300
L36161 34319
L36171 34357
L36171 34423
L36161 34461
L36142 34480
L36123 34490
L36085 34490
L36066 34480
L36047 34461
L36038 34423
L36038 34357
L36047 34319
L36066 34300
L36085 34290
" />
<path d="M36257 34290
L36257 34452
L36266 34471
L36276 34480
L36295 34490
L36333 34490
L36352 34480
L36361 34471
L36371 34452
L36371 34290
" />
<path d="M36438 34290
L36552 34290
" />
<path d="M36495 34490
L36495 34290
" />
<text x="35200" y="34500"
textLength="648.524" font-size="266.667" lengthAdjust="spacingAndGlyphs"
text-anchor="middle" opacity="0">GND</text>
<path d="M35047 34300
L35028 34290
L35000 34290
L34971 34300
L34952 34319
L34942 34338
L34933 34376
L34933 34404
L34942 34442
L34952 34461
L34971 34480
L35000 34490
L35019 34490
L35047 34480
L35057 34471
L35057 34404
L35019 34404
" />
<path d="M35142 34490
L35142 34290
L35257 34490
L35257 34290
" />
<path d="M35352 34490
L35352 34290
L35400 34290
L35428 34300
L35447 34319
L35457 34338
L35466 34376
L35466 34404
L35457 34442
L35447 34461
L35428 34480
L35400 34490
L35352 34490
" />
</g>
<g style="fill:#000000; fill-opacity:0.0; 
stroke:#000000; stroke-width:59.0551; stroke-opacity:1; 
stroke-linecap:round; stroke-linejoin:round;">
<text x="29700" y="19096.9"
textLength="1238.85" font-size="524.934" lengthAdjust="spacingAndGlyphs"
text-anchor="middle" opacity="0">GND</text>
<path d="M29400 18703
L29362 18684
L29306 18684
L29250 18703
L29212 18740
L29193 18778
L29175 18853
L29175 18909
L29193 18984
L29212 19021
L29250 19059
L29306 19078
L29343 19078
L29400 19059
L29418 19040
L29418 18909
L29343 18909
" />
<path d="M29587 19078
L29587 18684
L29812 19078
L29812 18684
" />
<path d="M29999 19078
L29999 18684
L30093 18684
L30149 18703
L30187 18740
L30206 18778
L30224 18853
L30224 18909
L30206 18984
L30187 19021
L30149 19059
L30093 19078
L29999 19078
" />
<text x="29700" y="20096.9"
textLength="864.173" font-size="524.934" lengthAdjust="spacingAndGlyphs"
text-anchor="middle" opacity="0">VM</text>
<path d="M29343 19684
L29475 20078
L29606 19684
" />
<path d="M29737 20078
L29737 19684
L29868 19965
L29999 19684
L29999 20078
" />
<text x="29700" y="22096.9"
textLength="1445.35" font-size="524.934" lengthAdjust="spacingAndGlyphs"
text-anchor="middle" opacity="0">BIN1</text>
<path d="M29240 21871
L29296 21890
L29315 21909
L29334 21946
L29334 22003
L29315 22040
L29296 22059
L29259 22078
L29109 22078
L29109 21684
L29240 21684
L29278 21703
L29296 21721
L29315 21759
L29315 21796
L29296 21834
L29278 21853
L29240 21871
L29109 21871
" />
<path d="M29503 22078
L29503 21684
" />
<path d="M29690 22078
L29690 21684
L29915 22078
L29915 21684
" />
<path d="M30309 22078
L30084 22078
" />
<path d="M30196 22078
L30196 21684
L30159 21740
L30121 21778
L30084 21796
" />
<text x="29700" y="21096.9"
textLength="1445.35" font-size="524.934" lengthAdjust="spacingAndGlyphs"
text-anchor="middle" opacity="0">BIN2</text>
<path d="M29240 20871
L29296 20890
L29315 20909
L29334 20946
L29334 21003
L29315 21040
L29296 21059
L29259 21078
L29109 21078
L29109 20684
L29240 20684
L29278 20703
L29296 20721
L29315 20759
L29315 20796
L29296 20834
L29278 20853
L29240 20871
L29109 20871
" />
<path d="M29503 21078
L29503 20684
" />
<path d="M29690 21078
L29690 20684
L29915 21078
L29915 20684
" />
<path d="M30084 20721
L30103 20703
L30140 20684
L30234 20684
L30271 20703
L30290 20721
L30309 20759
L30309 20796
L30290 20853
L30065 21078
L30309 21078
" />
<text x="29700" y="27096.9"
textLength="1276.62" font-size="524.934" lengthAdjust="spacingAndGlyphs"
text-anchor="middle" opacity="0">GND</text>
<path d="M29400 26703
L29362 26684
L29306 26684
L29250 26703
L29212 26740
L29193 26778
L29175 26853
L29175 26909
L29193 26984
L29212 27021
L29250 27059
L29306 27078
L29343 27078
L29400 27059
L29418 27040
L29418 26909
L29343 26909
" />
<path d="M29587 27078
L29587 26684
L29812 27078
L29812 26684
" />
<path d="M29999 27078
L29999 26684
L30093 26684
L30149 26703
L30187 26740
L30206 26778
L30224 26853
L30224 26909
L30206 26984
L30187 27021
L30149 27059
L30093 27078
L29999 27078
" />
<text x="29700" y="28096.9"
textLength="864.173" font-size="524.934" lengthAdjust="spacingAndGlyphs"
text-anchor="middle" opacity="0">VM</text>
<path d="M29343 27684
L29475 28078
L29606 27684
" />
<path d="M29737 28078
L29737 27684
L29868 27965
L29999 27684
L29999 28078
" />
<text x="29700" y="30096.9"
textLength="1445.35" font-size="524.934" lengthAdjust="spacingAndGlyphs"
text-anchor="middle" opacity="0">BIN1</text>
<path d="M29240 29871
L29296 29890
L29315 29909
L29334 29946
L29334 30003
L29315 30040
L29296 30059
L29259 30078
L29109 30078
L29109 29684
L29240 29684
L29278 29703
L29296 29721
L29315 29759
L29315 29796
L29296 29834
L29278 29853
L29240 29871
L29109 29871
" />
<path d="M29503 30078
L29503 29684
" />
<path d="M29690 30078
L29690 29684
L29915 30078
L29915 29684
" />
<path d="M30309 30078
L30084 30078
" />
<path d="M30196 30078
L30196 29684
L30159 29740
L30121 29778
L30084 29796
" />
<text x="29700" y="29096.9"
textLength="1445.35" font-size="524.934" lengthAdjust="spacingAndGlyphs"
text-anchor="middle" opacity="0">BIN2</text>
<path d="M29240 28871
L29296 28890
L29315 28909
L29334 28946
L29334 29003
L29315 29040
L29296 29059
L29259 29078
L29109 29078
L29109 28684
L29240 28684
L29278 28703
L29296 28721
L29315 28759
L29315 28796
L29296 28834
L29278 28853
L29240 28871
L29109 28871
" />
<path d="M29503 29078
L29503 28684
" />
<path d="M29690 29078
L29690 28684
L29915 29078
L29915 28684
" />
<path d="M30084 28721
L30103 28703
L30140 28684
L30234 28684
L30271 28703
L30290 28721
L30309 28759
L30309 28796
L30290 28853
L30065 29078
L30309 29078
" />
<text x="31800" y="40970.3"
textLength="1332.86" font-size="524.934" lengthAdjust="spacingAndGlyphs"
text-anchor="middle" opacity="0">POW</text>
<path d="M31265 40951
L31265 40557
L31415 40557
L31453 40576
L31471 40595
L31490 40632
L31490 40689
L31471 40726
L31453 40745
L31415 40764
L31265 40764
" />
<path d="M31734 40557
L31809 40557
L31846 40576
L31884 40614
L31903 40689
L31903 40820
L31884 40895
L31846 40932
L31809 40951
L31734 40951
L31696 40932
L31659 40895
L31640 40820
L31640 40689
L31659 40614
L31696 40576
L31734 40557
" />
<path d="M32034 40557
L32128 40951
L32203 40670
L32278 40951
L32371 40557
" />
</g>
<g style="fill:#000000; fill-opacity:0.0; 
stroke:#000000; stroke-width:60; stroke-opacity:1; 
stroke-linecap:round; stroke-linejoin:round;">
<text x="39900" y="37582.4"
textLength="1676.77" font-size="560" lengthAdjust="spacingAndGlyphs"
text-anchor="middle" opacity="0">BEEP</text>
<path d="M39340 37342
L39400 37362
L39420 37382
L39440 37422
L39440 37482
L39420 37522
L39400 37542
L39360 37562
L39200 37562
L39200 37142
L39340 37142
L39380 37162
L39400 37182
L39420 37222
L39420 37262
L39400 37302
L39380 37322
L39340 37342
L39200 37342
" />
<path d="M39620 37342
L39760 37342
" />
<path d="M39820 37562
L39620 37562
L39620 37142
L39820 37142
" />
<path d="M40000 37342
L40140 37342
" />
<path d="M40200 37562
L40000 37562
L40000 37142
L40200 37142
" />
<path d="M40380 37562
L40380 37142
L40540 37142
L40580 37162
L40600 37182
L40620 37222
L40620 37282
L40600 37322
L40580 37342
L40540 37362
L40380 37362
" />
</g>
<g style="fill:#000000; fill-opacity:0.0; 
stroke:#000000; stroke-width:59.0551; stroke-opacity:1; 
stroke-linecap:round; stroke-linejoin:round;">
<text x="42100" y="46596.9"
textLength="1202.86" font-size="524.934" lengthAdjust="spacingAndGlyphs"
text-anchor="middle" opacity="0">VCC</text>
<path d="M41575 46184
L41706 46578
L41837 46184
" />
<path d="M42193 46540
L42174 46559
L42118 46578
L42081 46578
L42025 46559
L41987 46521
L41968 46484
L41950 46409
L41950 46353
L41968 46278
L41987 46240
L42025 46203
L42081 46184
L42118 46184
L42174 46203
L42193 46221
" />
<path d="M42587 46540
L42568 46559
L42512 46578
L42474 46578
L42418 46559
L42381 46521
L42362 46484
L42343 46409
L42343 46353
L42362 46278
L42381 46240
L42418 46203
L42474 46184
L42512 46184
L42568 46203
L42587 46221
" />
<text x="37300" y="46596.9"
textLength="1164.14" font-size="524.934" lengthAdjust="spacingAndGlyphs"
text-anchor="middle" opacity="0">10V</text>
<path d="M37056 46578
L36831 46578
" />
<path d="M36943 46578
L36943 46184
L36906 46240
L36868 46278
L36831 46296
" />
<path d="M37300 46184
L37337 46184
L37374 46203
L37393 46221
L37412 46259
L37431 46334
L37431 46428
L37412 46503
L37393 46540
L37374 46559
L37337 46578
L37300 46578
L37262 46559
L37243 46540
L37225 46503
L37206 46428
L37206 46334
L37225 46259
L37243 46221
L37262 46203
L37300 46184
" />
<path d="M37543 46184
L37674 46578
L37806 46184
" />
<text x="32000" y="14096.9"
textLength="1989.03" font-size="524.934" lengthAdjust="spacingAndGlyphs"
text-anchor="middle" opacity="0">CON_R</text>
<path d="M31362 14040
L31343 14059
L31287 14078
L31250 14078
L31193 14059
L31156 14021
L31137 13984
L31118 13909
L31118 13853
L31137 13778
L31156 13740
L31193 13703
L31250 13684
L31287 13684
L31343 13703
L31362 13721
" />
<path d="M31606 13684
L31681 13684
L31718 13703
L31756 13740
L31775 13815
L31775 13946
L31756 14021
L31718 14059
L31681 14078
L31606 14078
L31568 14059
L31531 14021
L31512 13946
L31512 13815
L31531 13740
L31568 13703
L31606 13684
" />
<path d="M31943 14078
L31943 13684
L32168 14078
L32168 13684
" />
<path d="M32262 14115
L32562 14115
" />
<path d="M32881 14078
L32749 13890
" />
<path d="M32656 14078
L32656 13684
L32806 13684
L32843 13703
L32862 13721
L32881 13759
L32881 13815
L32862 13853
L32843 13871
L32806 13890
L32656 13890
" />
<text x="29800" y="14096.9"
textLength="1914.04" font-size="524.934" lengthAdjust="spacingAndGlyphs"
text-anchor="middle" opacity="0">CON_L</text>
<path d="M29200 14040
L29181 14059
L29125 14078
L29087 14078
L29031 14059
L28993 14021
L28975 13984
L28956 13909
L28956 13853
L28975 13778
L28993 13740
L29031 13703
L29087 13684
L29125 13684
L29181 13703
L29200 13721
" />
<path d="M29443 13684
L29518 13684
L29556 13703
L29593 13740
L29612 13815
L29612 13946
L29593 14021
L29556 14059
L29518 14078
L29443 14078
L29406 14059
L29368 14021
L29350 13946
L29350 13815
L29368 13740
L29406 13703
L29443 13684
" />
<path d="M29781 14078
L29781 13684
L30006 14078
L30006 13684
" />
<path d="M30099 14115
L30399 14115
" />
<path d="M30681 14078
L30493 14078
L30493 13684
" />
<text x="41700" y="42146.9"
textLength="564.211" font-size="524.934" lengthAdjust="spacingAndGlyphs"
text-anchor="middle" opacity="0">-</text>
<path d="M41550 41978
L41849 41978
" />
<text x="41700" y="44896.9"
textLength="564.211" font-size="524.934" lengthAdjust="spacingAndGlyphs"
text-anchor="middle" opacity="0">+</text>
<path d="M41550 44728
L41849 44728
" />
<path d="M41700 44878
L41700 44578
" />
<text x="46450" y="42846.9"
textLength="564.211" font-size="524.934" lengthAdjust="spacingAndGlyphs"
text-anchor="middle" opacity="0">-</text>
<path d="M46300 42678
L46599 42678
" />
<text x="46450" y="45596.9"
textLength="564.211" font-size="524.934" lengthAdjust="spacingAndGlyphs"
text-anchor="middle" opacity="0">+</text>
<path d="M46300 45428
L46599 45428
" />
<path d="M46450 45578
L46450 45278
" />
</g>
<g style="fill:#000000; fill-opacity:0.0; 
stroke:#000000; stroke-width:47.2441; stroke-opacity:1; 
stroke-linecap:round; stroke-linejoin:round;">
<path d="M39550 48000
L39550 47900
" />
<path d="M39550 48000
L39550 49000
" />
</g>
<g style="fill:#000000; fill-opacity:0.0; 
stroke:#000000; stroke-width:60; stroke-opacity:1; 
stroke-linecap:round; stroke-linejoin:round;">
<text x="38200" y="11650"
textLength="8433.91" font-size="666.667" lengthAdjust="spacingAndGlyphs"
text-anchor="middle" opacity="0">Saturday is Makerday!</text>
<path d="M34116 11602
L34188 11626
L34307 11626
L34354 11602
L34378 11578
L34402 11530
L34402 11483
L34378 11435
L34354 11411
L34307 11388
L34211 11364
L34164 11340
L34140 11316
L34116 11269
L34116 11221
L34140 11173
L34164 11150
L34211 11126
L34330 11126
L34402 11150
" />
<path d="M34830 11626
L34830 11364
L34807 11316
L34759 11292
L34664 11292
L34616 11316
" />
<path d="M34830 11602
L34783 11626
L34664 11626
L34616 11602
L34592 11554
L34592 11507
L34616 11459
L34664 11435
L34783 11435
L34830 11411
" />
<path d="M34997 11292
L35188 11292
" />
<path d="M35069 11126
L35069 11554
L35092 11602
L35140 11626
L35188 11626
" />
<path d="M35569 11292
L35569 11626
" />
<path d="M35354 11292
L35354 11554
L35378 11602
L35426 11626
L35497 11626
L35545 11602
L35569 11578
" />
<path d="M35807 11626
L35807 11292
" />
<path d="M35807 11388
L35830 11340
L35854 11316
L35902 11292
L35950 11292
" />
<path d="M36330 11626
L36330 11126
" />
<path d="M36330 11602
L36283 11626
L36188 11626
L36140 11602
L36116 11578
L36092 11530
L36092 11388
L36116 11340
L36140 11316
L36188 11292
L36283 11292
L36330 11316
" />
<path d="M36783 11626
L36783 11364
L36759 11316
L36711 11292
L36616 11292
L36569 11316
" />
<path d="M36783 11602
L36735 11626
L36616 11626
L36569 11602
L36545 11554
L36545 11507
L36569 11459
L36616 11435
L36735 11435
L36783 11411
" />
<path d="M36973 11292
L37092 11626
" />
<path d="M37211 11292
L37092 11626
L37045 11745
L37021 11769
L36973 11792
" />
<path d="M37783 11626
L37783 11292
" />
<path d="M37783 11126
L37759 11150
L37783 11173
L37807 11150
L37783 11126
L37783 11173
" />
<path d="M37997 11602
L38045 11626
L38140 11626
L38188 11602
L38211 11554
L38211 11530
L38188 11483
L38140 11459
L38069 11459
L38021 11435
L37997 11388
L37997 11364
L38021 11316
L38069 11292
L38140 11292
L38188 11316
" />
<path d="M38807 11626
L38807 11126
L38973 11483
L39140 11126
L39140 11626
" />
<path d="M39592 11626
L39592 11364
L39569 11316
L39521 11292
L39426 11292
L39378 11316
" />
<path d="M39592 11602
L39545 11626
L39426 11626
L39378 11602
L39354 11554
L39354 11507
L39378 11459
L39426 11435
L39545 11435
L39592 11411
" />
<path d="M39830 11626
L39830 11126
" />
<path d="M39878 11435
L40021 11626
" />
<path d="M40021 11292
L39830 11483
" />
<path d="M40426 11602
L40378 11626
L40283 11626
L40235 11602
L40211 11554
L40211 11364
L40235 11316
L40283 11292
L40378 11292
L40426 11316
L40450 11364
L40450 11411
L40211 11459
" />
<path d="M40664 11626
L40664 11292
" />
<path d="M40664 11388
L40688 11340
L40711 11316
L40759 11292
L40807 11292
" />
<path d="M41188 11626
L41188 11126
" />
<path d="M41188 11602
L41140 11626
L41045 11626
L40997 11602
L40973 11578
L40950 11530
L40950 11388
L40973 11340
L40997 11316
L41045 11292
L41140 11292
L41188 11316
" />
<path d="M41640 11626
L41640 11364
L41616 11316
L41569 11292
L41473 11292
L41426 11316
" />
<path d="M41640 11602
L41592 11626
L41473 11626
L41426 11602
L41402 11554
L41402 11507
L41426 11459
L41473 11435
L41592 11435
L41640 11411
" />
<path d="M41830 11292
L41950 11626
" />
<path d="M42069 11292
L41950 11626
L41902 11745
L41878 11769
L41830 11792
" />
<path d="M42259 11578
L42283 11602
L42259 11626
L42235 11602
L42259 11578
L42259 11626
" />
<path d="M42259 11435
L42235 11150
L42259 11126
L42283 11150
L42259 11435
L42259 11126
" />
</g>
<g style="fill:#000000; fill-opacity:0.0; 
stroke:#000000; stroke-width:40; stroke-opacity:1; 
stroke-linecap:round; stroke-linejoin:round;">
<text x="45200" y="48380"
textLength="5487.52" font-size="533.333" lengthAdjust="spacingAndGlyphs"
text-anchor="end" opacity="0">All-Terrain Buggy</text>
<path d="M39840 48246
L40031 48246
" />
<path d="M39802 48360
L39935 47960
L40069 48360
" />
<path d="M40259 48360
L40221 48341
L40202 48303
L40202 47960
" />
<path d="M40469 48360
L40431 48341
L40412 48303
L40412 47960
" />
<path d="M40621 48208
L40926 48208
" />
<path d="M41059 47960
L41288 47960
" />
<path d="M41174 48360
L41174 47960
" />
<path d="M41574 48341
L41535 48360
L41459 48360
L41421 48341
L41402 48303
L41402 48151
L41421 48113
L41459 48094
L41535 48094
L41574 48113
L41593 48151
L41593 48189
L41402 48227
" />
<path d="M41764 48360
L41764 48094
" />
<path d="M41764 48170
L41783 48132
L41802 48113
L41840 48094
L41878 48094
" />
<path d="M42012 48360
L42012 48094
" />
<path d="M42012 48170
L42031 48132
L42050 48113
L42088 48094
L42126 48094
" />
<path d="M42431 48360
L42431 48151
L42412 48113
L42374 48094
L42297 48094
L42259 48113
" />
<path d="M42431 48341
L42393 48360
L42297 48360
L42259 48341
L42240 48303
L42240 48265
L42259 48227
L42297 48208
L42393 48208
L42431 48189
" />
<path d="M42621 48360
L42621 48094
" />
<path d="M42621 47960
L42602 47980
L42621 47999
L42640 47980
L42621 47960
L42621 47999
" />
<path d="M42812 48094
L42812 48360
" />
<path d="M42812 48132
L42831 48113
L42869 48094
L42926 48094
L42964 48113
L42983 48151
L42983 48360
" />
<path d="M43612 48151
L43669 48170
L43688 48189
L43707 48227
L43707 48284
L43688 48322
L43669 48341
L43631 48360
L43478 48360
L43478 47960
L43612 47960
L43650 47980
L43669 47999
L43688 48037
L43688 48075
L43669 48113
L43650 48132
L43612 48151
L43478 48151
" />
<path d="M44050 48094
L44050 48360
" />
<path d="M43878 48094
L43878 48303
L43897 48341
L43935 48360
L43993 48360
L44031 48341
L44050 48322
" />
<path d="M44412 48094
L44412 48418
L44393 48456
L44374 48475
L44335 48494
L44278 48494
L44240 48475
" />
<path d="M44412 48341
L44374 48360
L44297 48360
L44259 48341
L44240 48322
L44221 48284
L44221 48170
L44240 48132
L44259 48113
L44297 48094
L44374 48094
L44412 48113
" />
<path d="M44774 48094
L44774 48418
L44754 48456
L44735 48475
L44697 48494
L44640 48494
L44602 48475
" />
<path d="M44774 48341
L44735 48360
L44659 48360
L44621 48341
L44602 48322
L44583 48284
L44583 48170
L44602 48132
L44621 48113
L44659 48094
L44735 48094
L44774 48113
" />
<path d="M44926 48094
L45021 48360
" />
<path d="M45116 48094
L45021 48360
L44983 48456
L44964 48475
L44926 48494
" />
<text x="45200" y="49020"
textLength="1309.14" font-size="533.333" lengthAdjust="spacingAndGlyphs"
text-anchor="end" opacity="0">v1.0</text>
<path d="M43974 48734
L44069 49000
L44164 48734
" />
<path d="M44526 49000
L44297 49000
" />
<path d="M44412 49000
L44412 48600
L44374 48658
L44335 48696
L44297 48715
" />
<path d="M44697 48962
L44716 48981
L44697 49000
L44678 48981
L44697 48962
L44697 49000
" />
<path d="M44964 48600
L45002 48600
L45040 48620
L45059 48639
L45078 48677
L45097 48753
L45097 48848
L45078 48924
L45059 48962
L45040 48981
L45002 49000
L44964 49000
L44926 48981
L44907 48962
L44888 48924
L44869 48848
L44869 48753
L44888 48677
L44907 48639
L44926 48620
L44964 48600
" />
</g>
<g style="fill:#000000; fill-opacity:0.0; 
stroke:#000000; stroke-width:59.0551; stroke-opacity:1; 
stroke-linecap:round; stroke-linejoin:round;">
<text x="29700" y="35096.9"
textLength="1251.85" font-size="524.934" lengthAdjust="spacingAndGlyphs"
text-anchor="middle" opacity="0">GND</text>
<path d="M29400 34703
L29362 34684
L29306 34684
L29250 34703
L29212 34740
L29193 34778
L29175 34853
L29175 34909
L29193 34984
L29212 35021
L29250 35059
L29306 35078
L29343 35078
L29400 35059
L29418 35040
L29418 34909
L29343 34909
" />
<path d="M29587 35078
L29587 34684
L29812 35078
L29812 34684
" />
<path d="M29999 35078
L29999 34684
L30093 34684
L30149 34703
L30187 34740
L30206 34778
L30224 34853
L30224 34909
L30206 34984
L30187 35021
L30149 35059
L30093 35078
L29999 35078
" />
<text x="29700" y="36096.9"
textLength="864.173" font-size="524.934" lengthAdjust="spacingAndGlyphs"
text-anchor="middle" opacity="0">VM</text>
<path d="M29343 35684
L29475 36078
L29606 35684
" />
<path d="M29737 36078
L29737 35684
L29868 35965
L29999 35684
L29999 36078
" />
<text x="29700" y="37096.9"
textLength="1445.35" font-size="524.934" lengthAdjust="spacingAndGlyphs"
text-anchor="middle" opacity="0">BIN2</text>
<path d="M29240 36871
L29296 36890
L29315 36909
L29334 36946
L29334 37003
L29315 37040
L29296 37059
L29259 37078
L29109 37078
L29109 36684
L29240 36684
L29278 36703
L29296 36721
L29315 36759
L29315 36796
L29296 36834
L29278 36853
L29240 36871
L29109 36871
" />
<path d="M29503 37078
L29503 36684
" />
<path d="M29690 37078
L29690 36684
L29915 37078
L29915 36684
" />
<path d="M30084 36721
L30103 36703
L30140 36684
L30234 36684
L30271 36703
L30290 36721
L30309 36759
L30309 36796
L30290 36853
L30065 37078
L30309 37078
" />
<text x="29700" y="38096.9"
textLength="1445.35" font-size="524.934" lengthAdjust="spacingAndGlyphs"
text-anchor="middle" opacity="0">BIN1</text>
<path d="M29240 37871
L29296 37890
L29315 37909
L29334 37946
L29334 38003
L29315 38040
L29296 38059
L29259 38078
L29109 38078
L29109 37684
L29240 37684
L29278 37703
L29296 37721
L29315 37759
L29315 37796
L29296 37834
L29278 37853
L29240 37871
L29109 37871
" />
<path d="M29503 38078
L29503 37684
" />
<path d="M29690 38078
L29690 37684
L29915 38078
L29915 37684
" />
<path d="M30309 38078
L30084 38078
" />
<path d="M30196 38078
L30196 37684
L30159 37740
L30121 37778
L30084 37796
" />
<text x="46700" y="35096.9"
textLength="1389.11" font-size="524.934" lengthAdjust="spacingAndGlyphs"
text-anchor="middle" opacity="0">AIN1</text>
<path d="M46118 34965
L46306 34965
" />
<path d="M46081 35078
L46212 34684
L46343 35078
" />
<path d="M46475 35078
L46475 34684
" />
<path d="M46662 35078
L46662 34684
L46887 35078
L46887 34684
" />
<path d="M47281 35078
L47056 35078
" />
<path d="M47168 35078
L47168 34684
L47131 34740
L47093 34778
L47056 34796
" />
<text x="46700" y="38096.9"
textLength="1276.62" font-size="524.934" lengthAdjust="spacingAndGlyphs"
text-anchor="middle" opacity="0">GND</text>
<path d="M46400 37703
L46362 37684
L46306 37684
L46250 37703
L46212 37740
L46193 37778
L46175 37853
L46175 37909
L46193 37984
L46212 38021
L46250 38059
L46306 38078
L46343 38078
L46400 38059
L46418 38040
L46418 37909
L46343 37909
" />
<path d="M46587 38078
L46587 37684
L46812 38078
L46812 37684
" />
<path d="M46999 38078
L46999 37684
L47093 37684
L47149 37703
L47187 37740
L47206 37778
L47224 37853
L47224 37909
L47206 37984
L47187 38021
L47149 38059
L47093 38078
L46999 38078
" />
<text x="46700" y="37096.9"
textLength="864.173" font-size="524.934" lengthAdjust="spacingAndGlyphs"
text-anchor="middle" opacity="0">VM</text>
<path d="M46343 36684
L46475 37078
L46606 36684
" />
<path d="M46737 37078
L46737 36684
L46868 36965
L46999 36684
L46999 37078
" />
<text x="46700" y="36096.9"
textLength="1389.11" font-size="524.934" lengthAdjust="spacingAndGlyphs"
text-anchor="middle" opacity="0">AIN2</text>
<path d="M46118 35965
L46306 35965
" />
<path d="M46081 36078
L46212 35684
L46343 36078
" />
<path d="M46475 36078
L46475 35684
" />
<path d="M46662 36078
L46662 35684
L46887 36078
L46887 35684
" />
<path d="M47056 35721
L47074 35703
L47112 35684
L47206 35684
L47243 35703
L47262 35721
L47281 35759
L47281 35796
L47262 35853
L47037 36078
L47281 36078
" />
<text x="46700" y="30096.9"
textLength="1276.62" font-size="524.934" lengthAdjust="spacingAndGlyphs"
text-anchor="middle" opacity="0">GND</text>
<path d="M46400 29703
L46362 29684
L46306 29684
L46250 29703
L46212 29740
L46193 29778
L46175 29853
L46175 29909
L46193 29984
L46212 30021
L46250 30059
L46306 30078
L46343 30078
L46400 30059
L46418 30040
L46418 29909
L46343 29909
" />
<path d="M46587 30078
L46587 29684
L46812 30078
L46812 29684
" />
<path d="M46999 30078
L46999 29684
L47093 29684
L47149 29703
L47187 29740
L47206 29778
L47224 29853
L47224 29909
L47206 29984
L47187 30021
L47149 30059
L47093 30078
L46999 30078
" />
<text x="46700" y="29096.9"
textLength="864.173" font-size="524.934" lengthAdjust="spacingAndGlyphs"
text-anchor="middle" opacity="0">VM</text>
<path d="M46343 28684
L46475 29078
L46606 28684
" />
<path d="M46737 29078
L46737 28684
L46868 28965
L46999 28684
L46999 29078
" />
<text x="46700" y="28096.9"
textLength="1389.11" font-size="524.934" lengthAdjust="spacingAndGlyphs"
text-anchor="middle" opacity="0">AIN2</text>
<path d="M46118 27965
L46306 27965
" />
<path d="M46081 28078
L46212 27684
L46343 28078
" />
<path d="M46475 28078
L46475 27684
" />
<path d="M46662 28078
L46662 27684
L46887 28078
L46887 27684
" />
<path d="M47056 27721
L47074 27703
L47112 27684
L47206 27684
L47243 27703
L47262 27721
L47281 27759
L47281 27796
L47262 27853
L47037 28078
L47281 28078
" />
<text x="46700" y="27096.9"
textLength="1389.11" font-size="524.934" lengthAdjust="spacingAndGlyphs"
text-anchor="middle" opacity="0">AIN1</text>
<path d="M46118 26965
L46306 26965
" />
<path d="M46081 27078
L46212 26684
L46343 27078
" />
<path d="M46475 27078
L46475 26684
" />
<path d="M46662 27078
L46662 26684
L46887 27078
L46887 26684
" />
<path d="M47281 27078
L47056 27078
" />
<path d="M47168 27078
L47168 26684
L47131 26740
L47093 26778
L47056 26796
" />
<text x="46700" y="22096.9"
textLength="1276.62" font-size="524.934" lengthAdjust="spacingAndGlyphs"
text-anchor="middle" opacity="0">GND</text>
<path d="M46400 21703
L46362 21684
L46306 21684
L46250 21703
L46212 21740
L46193 21778
L46175 21853
L46175 21909
L46193 21984
L46212 22021
L46250 22059
L46306 22078
L46343 22078
L46400 22059
L46418 22040
L46418 21909
L46343 21909
" />
<path d="M46587 22078
L46587 21684
L46812 22078
L46812 21684
" />
<path d="M46999 22078
L46999 21684
L47093 21684
L47149 21703
L47187 21740
L47206 21778
L47224 21853
L47224 21909
L47206 21984
L47187 22021
L47149 22059
L47093 22078
L46999 22078
" />
<text x="46700" y="21096.9"
textLength="864.173" font-size="524.934" lengthAdjust="spacingAndGlyphs"
text-anchor="middle" opacity="0">VM</text>
<path d="M46343 20684
L46475 21078
L46606 20684
" />
<path d="M46737 21078
L46737 20684
L46868 20965
L46999 20684
L46999 21078
" />
<text x="46700" y="20096.9"
textLength="1389.11" font-size="524.934" lengthAdjust="spacingAndGlyphs"
text-anchor="middle" opacity="0">AIN2</text>
<path d="M46118 19965
L46306 19965
" />
<path d="M46081 20078
L46212 19684
L46343 20078
" />
<path d="M46475 20078
L46475 19684
" />
<path d="M46662 20078
L46662 19684
L46887 20078
L46887 19684
" />
<path d="M47056 19721
L47074 19703
L47112 19684
L47206 19684
L47243 19703
L47262 19721
L47281 19759
L47281 19796
L47262 19853
L47037 20078
L47281 20078
" />
<text x="46700" y="19096.9"
textLength="1389.11" font-size="524.934" lengthAdjust="spacingAndGlyphs"
text-anchor="middle" opacity="0">AIN1</text>
<path d="M46118 18965
L46306 18965
" />
<path d="M46081 19078
L46212 18684
L46343 19078
" />
<path d="M46475 19078
L46475 18684
" />
<path d="M46662 19078
L46662 18684
L46887 19078
L46887 18684
" />
<path d="M47281 19078
L47056 19078
" />
<path d="M47168 19078
L47168 18684
L47131 18740
L47093 18778
L47056 18796
" />
</g>
<g style="fill:#000000; fill-opacity:0.0; 
stroke:#000000; stroke-width:47.2441; stroke-opacity:1; 
stroke-linecap:round; stroke-linejoin:round;">
<path d="M33530 15293
L33530 14506
" />
<path d="M41700 12356
L34700 12356
" />
<path d="M41700 32443
L34700 32443
" />
<path d="M42743 13400
L42743 31400
" />
<path d="M33656 13400
L33656 31400
" />
<path d="M33656.7 31400 A1043.31 1043.31 0.0 0 0 34700 32443.3" />
<path d="M41700 32443.3 A1043.31 1043.31 0.0 0 0 42743.3 31400" />
<path d="M34700 12356.7 A1043.31 1043.31 0.0 0 0 33656.7 13400" />
<path d="M42743.3 13400 A1043.31 1043.31 0.0 0 0 41700 12356.7" />
<path d="M31200 38423
L30676 38423
" />
<path d="M30676 38423
L30676 37900
" />
<path d="M30676 37400
L30676 34376
" />
<path d="M31723 34376
L30676 34376
" />
<path d="M31723 37400
L31723 34376
" />
<path d="M31723 37400
L30676 37400
" />
<circle cx="37700" cy="42884.3" r="2015.75" /> 
<path d="M39700 42884
L35700 42884
" />
<path d="M39700 42900
L35700 42900
" />
<path d="M39700 42915
L35700 42915
" />
<path d="M39699 42931
L35700 42931
" />
<path d="M39699 42947
L35700 42947
" />
<path d="M39698 42962
L35701 42962
" />
<path d="M39698 42978
L35701 42978
" />
<path d="M39697 42994
L35702 42994
" />
<path d="M39696 43010
L35703 43010
" />
<path d="M39695 43025
L35704 43025
" />
<path d="M39694 43041
L35705 43041
" />
<path d="M39692 43057
L35707 43057
" />
<path d="M39691 43073
L35708 43073
" />
<path d="M39689 43088
L35710 43088
" />
<path d="M39688 43104
L35711 43104
" />
<path d="M39686 43120
L35713 43120
" />
<path d="M39684 43136
L35715 43136
" />
<path d="M39682 43151
L35717 43151
" />
<path d="M39680 43168
L35719 43168
" />
<path d="M39677 43183
L35722 43183
" />
<path d="M39675 43199
L35724 43199
" />
<path d="M39672 43215
L35727 43215
" />
<path d="M39670 43231
L35729 43231
" />
<path d="M39667 43246
L35732 43246
" />
<path d="M39664 43262
L35735 43262
" />
<path d="M39661 43278
L35738 43278
" />
<path d="M39658 43294
L35741 43294
" />
<path d="M39654 43309
L35745 43309
" />
<path d="M39651 43325
L35748 43325
" />
<path d="M39647 43341
L35752 43341
" />
<path d="M39644 43357
L35755 43357
" />
<path d="M39640 43372
L35759 43372
" />
<path d="M39636 43388
L38188 43388
" />
<path d="M37211 43388
L35763 43388
" />
<path d="M39631 43404
L38188 43404
" />
<path d="M37211 43404
L35768 43404
" />
<path d="M39627 43420
L38188 43420
" />
<path d="M37211 43420
L35772 43420
" />
<path d="M39623 43435
L38188 43435
" />
<path d="M37211 43435
L35776 43435
" />
<path d="M39618 43451
L38188 43451
" />
<path d="M37211 43451
L35781 43451
" />
<path d="M39614 43467
L38188 43467
" />
<path d="M37211 43467
L35785 43467
" />
<path d="M39609 43483
L38188 43483
" />
<path d="M37211 43483
L35790 43483
" />
<path d="M39604 43498
L38188 43498
" />
<path d="M37211 43498
L35795 43498
" />
<path d="M39599 43514
L38188 43514
" />
<path d="M37211 43514
L35800 43514
" />
<path d="M39594 43530
L38188 43530
" />
<path d="M37211 43530
L35805 43530
" />
<path d="M39588 43546
L38188 43546
" />
<path d="M37211 43546
L35811 43546
" />
<path d="M39583 43561
L38188 43561
" />
<path d="M37211 43561
L35816 43561
" />
<path d="M39577 43577
L38188 43577
" />
<path d="M37211 43577
L35822 43577
" />
<path d="M39571 43593
L38188 43593
" />
<path d="M37211 43593
L35828 43593
" />
<path d="M39565 43609
L38188 43609
" />
<path d="M37211 43609
L35834 43609
" />
<path d="M39559 43624
L38188 43624
" />
<path d="M37211 43624
L35840 43624
" />
<path d="M39553 43640
L38188 43640
" />
<path d="M37211 43640
L35846 43640
" />
<path d="M39546 43656
L38188 43656
" />
<path d="M37211 43656
L35853 43656
" />
<path d="M39540 43672
L38188 43672
" />
<path d="M37211 43672
L35859 43672
" />
<path d="M39533 43687
L38188 43687
" />
<path d="M37211 43687
L35866 43687
" />
<path d="M39526 43703
L38188 43703
" />
<path d="M37211 43703
L35873 43703
" />
<path d="M39519 43719
L38188 43719
" />
<path d="M37211 43719
L35880 43719
" />
<path d="M39512 43735
L38188 43735
" />
<path d="M37211 43735
L35887 43735
" />
<path d="M39504 43750
L38188 43750
" />
<path d="M37211 43750
L35895 43750
" />
<path d="M39496 43766
L38188 43766
" />
<path d="M37211 43766
L35903 43766
" />
<path d="M39489 43782
L38188 43782
" />
<path d="M37211 43782
L35910 43782
" />
<path d="M39481 43798
L38188 43798
" />
<path d="M37211 43798
L35918 43798
" />
<path d="M39473 43813
L38188 43813
" />
<path d="M37211 43813
L35926 43813
" />
<path d="M39464 43829
L38188 43829
" />
<path d="M37211 43829
L35935 43829
" />
<path d="M39456 43845
L38188 43845
" />
<path d="M37211 43845
L35943 43845
" />
<path d="M39448 43861
L38188 43861
" />
<path d="M37211 43861
L35951 43861
" />
<path d="M39438 43876
L38188 43876
" />
<path d="M37211 43876
L35961 43876
" />
<path d="M39430 43892
L38188 43892
" />
<path d="M37211 43892
L35969 43892
" />
<path d="M39420 43908
L38188 43908
" />
<path d="M37211 43908
L35979 43908
" />
<path d="M39411 43924
L38188 43924
" />
<path d="M37211 43924
L35988 43924
" />
<path d="M39401 43939
L38188 43939
" />
<path d="M37211 43939
L35998 43939
" />
<path d="M39392 43955
L38188 43955
" />
<path d="M37211 43955
L36007 43955
" />
<path d="M39382 43971
L38188 43971
" />
<path d="M37211 43971
L36017 43971
" />
<path d="M39372 43987
L38188 43987
" />
<path d="M37211 43987
L36027 43987
" />
<path d="M39361 44002
L38188 44002
" />
<path d="M37211 44002
L36038 44002
" />
<path d="M39351 44018
L38188 44018
" />
<path d="M37211 44018
L36048 44018
" />
<path d="M39340 44034
L38188 44034
" />
<path d="M37211 44034
L36059 44034
" />
<path d="M39329 44050
L38188 44050
" />
<path d="M37211 44050
L36070 44050
" />
<path d="M39318 44065
L38188 44065
" />
<path d="M37211 44065
L36081 44065
" />
<path d="M39306 44081
L38188 44081
" />
<path d="M37211 44081
L36093 44081
" />
<path d="M39294 44097
L38188 44097
" />
<path d="M37211 44097
L36105 44097
" />
<path d="M39282 44112
L38188 44112
" />
<path d="M37211 44112
L36117 44112
" />
<path d="M39270 44128
L38188 44128
" />
<path d="M37211 44128
L36129 44128
" />
<path d="M39257 44144
L38188 44144
" />
<path d="M37211 44144
L36142 44144
" />
<path d="M39245 44160
L38188 44160
" />
<path d="M37211 44160
L36154 44160
" />
<path d="M39232 44175
L38188 44175
" />
<path d="M37211 44175
L36167 44175
" />
<path d="M39218 44191
L38188 44191
" />
<path d="M37211 44191
L36181 44191
" />
<path d="M39205 44207
L38188 44207
" />
<path d="M37211 44207
L36194 44207
" />
<path d="M39191 44223
L38188 44223
" />
<path d="M37211 44223
L36208 44223
" />
<path d="M39177 44238
L38188 44238
" />
<path d="M37211 44238
L36222 44238
" />
<path d="M39162 44254
L38188 44254
" />
<path d="M37211 44254
L36237 44254
" />
<path d="M39148 44270
L38188 44270
" />
<path d="M37211 44270
L36251 44270
" />
<path d="M39133 44286
L38188 44286
" />
<path d="M37211 44286
L36266 44286
" />
<path d="M39117 44301
L38188 44301
" />
<path d="M37211 44301
L36282 44301
" />
<path d="M39101 44317
L38188 44317
" />
<path d="M37211 44317
L36298 44317
" />
<path d="M39085 44333
L38188 44333
" />
<path d="M37211 44333
L36314 44333
" />
<path d="M39069 44349
L38188 44349
" />
<path d="M37211 44349
L36330 44349
" />
<path d="M39052 44364
L36347 44364
" />
<path d="M39035 44380
L36364 44380
" />
<path d="M39017 44396
L36382 44396
" />
<path d="M38999 44412
L36400 44412
" />
<path d="M38981 44427
L36418 44427
" />
<path d="M38962 44443
L36437 44443
" />
<path d="M38942 44459
L36457 44459
" />
<path d="M38922 44475
L36477 44475
" />
<path d="M38902 44490
L36497 44490
" />
<path d="M38881 44506
L36518 44506
" />
<path d="M38859 44522
L36540 44522
" />
<path d="M38837 44538
L36562 44538
" />
<path d="M38814 44553
L36585 44553
" />
<path d="M38790 44569
L36609 44569
" />
<path d="M38766 44585
L36633 44585
" />
<path d="M38741 44601
L36658 44601
" />
<path d="M38715 44616
L36684 44616
" />
<path d="M38688 44632
L36711 44632
" />
<path d="M38660 44648
L36739 44648
" />
<path d="M38631 44664
L36768 44664
" />
<path d="M38601 44679
L36798 44679
" />
<path d="M38569 44695
L36830 44695
" />
<path d="M38536 44711
L36863 44711
" />
<path d="M38501 44727
L36898 44727
" />
<path d="M38465 44742
L36934 44742
" />
<path d="M38426 44758
L36973 44758
" />
<path d="M38385 44774
L37014 44774
" />
<path d="M38341 44790
L37058 44790
" />
<path d="M38294 44805
L37105 44805
" />
<path d="M38242 44821
L37157 44821
" />
<path d="M38184 44837
L37215 44837
" />
<path d="M38118 44853
L37281 44853
" />
<path d="M38039 44868
L37360 44868
" />
<path d="M37935 44884
L37464 44884
" />
<path d="M38831 40726
L38831 41120
" />
<path d="M39028 40923
L38635 40923
" />
<path d="M29913 41541
L30486 41541
" />
<path d="M29913 42258
L30486 42258
" />
<path d="M41977 41318
L41977 45350
" />
<path d="M40150 41318
L40150 45350
" />
<path d="M41977 41318
L40150 41318
" />
<path d="M41977 45350
L40150 45350
" />
<path d="M41382 41318
L41382 45350
" />
<path d="M41977 42606
L41382 42606
" />
<path d="M41977 44063
L41382 44063
" />
<path d="M31723 29400
L30676 29400
" />
<path d="M31723 29400
L31723 26376
" />
<path d="M31723 26376
L30676 26376
" />
<path d="M30676 29400
L30676 26376
" />
<path d="M30676 30423
L30676 29900
" />
<path d="M31200 30423
L30676 30423
" />
<path d="M44676 35400
L45723 35400
" />
<path d="M44676 35400
L44676 38423
" />
<path d="M44676 38423
L45723 38423
" />
<path d="M45723 35400
L45723 38423
" />
<path d="M45723 34376
L45723 34900
" />
<path d="M45200 34376
L45723 34376
" />
<path d="M44635 19400
L45682 19400
" />
<path d="M44635 19400
L44635 22423
" />
<path d="M44635 22423
L45682 22423
" />
<path d="M45682 19400
L45682 22423
" />
<path d="M45682 18376
L45682 18900
" />
<path d="M45158 18376
L45682 18376
" />
<path d="M45200 26376
L45723 26376
" />
<path d="M45723 26376
L45723 26900
" />
<path d="M45723 27400
L45723 30423
" />
<path d="M44676 30423
L45723 30423
" />
<path d="M44676 27400
L44676 30423
" />
<path d="M44676 27400
L45723 27400
" />
<path d="M31200 22423
L30676 22423
" />
<path d="M30676 22423
L30676 21900
" />
<path d="M30676 21400
L30676 18376
" />
<path d="M31723 18376
L30676 18376
" />
<path d="M31723 21400
L31723 18376
" />
<path d="M31723 21400
L30676 21400
" />
<path d="M46833 45907
L46833 40848
" />
<path d="M45829 39726
L44589 39726
" />
<path d="M43566 40848
L43566 45907
" />
<path d="M43566 45907
L46833 45907
" />
<path d="M46833 40848
L45829 39726
" />
<path d="M44589 39726
L43566 40848
" />
</g>
<g style="fill:#000000; fill-opacity:0.0; 
stroke:#000000; stroke-width:39.3701; stroke-opacity:1; 
stroke-linecap:round; stroke-linejoin:round;">
<path d="M32814 42451
L32814 42293
" />
<path d="M32814 42451
L32971 42451
" />
<path d="M34585 42451
L34428 42451
" />
<path d="M34585 42451
L34585 42293
" />
<path d="M34585 41348
L34585 41506
" />
<path d="M34585 41348
L34428 41348
" />
<path d="M32814 41348
L32814 41506
" />
<path d="M32814 41348
L32971 41348
" />
<path d="M34237 42451
L34267 42451
" />
<path d="M34237 42268
L34237 42451
" />
<path d="M34267 42268
L34237 42268
" />
<path d="M34267 42451
L34267 42268
" />
<path d="M34237 41348
L34267 41348
" />
<path d="M34237 41529
L34237 41348
" />
<path d="M34267 41529
L34237 41529
" />
<path d="M34267 41348
L34267 41529
" />
</g>
<g style="fill:#000000; fill-opacity:0.0; 
stroke:#000000; stroke-width:47.2441; stroke-opacity:1; 
stroke-linecap:round; stroke-linejoin:round;">
<circle cx="39803.9" cy="37400" r="2401.57" /> 
<path d="M29513 16058
L30086 16058
" />
<path d="M29513 15341
L30086 15341
" />
<path d="M31713 15341
L32286 15341
" />
<path d="M31713 16058
L32286 16058
" />
<path d="M30429 14253
L28900 14253
" />
<path d="M28900 14253
L28900 15146
" />
<path d="M28900 15146
L30429 15146
" />
<path d="M31099 40353
L29570 40353
" />
<path d="M31099 41246
L31099 40353
" />
<path d="M29570 41246
L31099 41246
" />
<path d="M32629 14253
L31100 14253
" />
<path d="M31100 14253
L31100 15146
" />
<path d="M31100 15146
L32629 15146
" />
<circle cx="40690" cy="46400" r="590.551" /> 
<circle cx="38700" cy="46390.2" r="590.551" /> 
<path d="M34676 33400
L34676 32876
" />
<path d="M34676 32876
L35200 32876
" />
<path d="M35700 32876
L39723 32876
" />
<path d="M39723 33923
L39723 32876
" />
<path d="M35700 33923
L39723 33923
" />
<path d="M35700 33923
L35700 32876
" />
</g>
<g style="fill:#000000; fill-opacity:0.0; 
stroke:#000000; stroke-width:59.0551; stroke-opacity:1; 
stroke-linecap:round; stroke-linejoin:round;">
<text x="38200" y="22096.9"
textLength="789.183" font-size="524.934" lengthAdjust="spacingAndGlyphs"
text-anchor="middle" opacity="0">A1</text>
<path d="M37918 21965
L38106 21965
" />
<path d="M37881 22078
L38012 21684
L38143 22078
" />
<path d="M38481 22078
L38256 22078
" />
<path d="M38368 22078
L38368 21684
L38331 21740
L38293 21778
L38256 21796
" />
<text x="31200" y="34096.9"
textLength="789.183" font-size="524.934" lengthAdjust="spacingAndGlyphs"
text-anchor="middle" opacity="0">A7</text>
<path d="M30918 33965
L31106 33965
" />
<path d="M30881 34078
L31012 33684
L31143 34078
" />
<path d="M31237 33684
L31499 33684
L31331 34078
" />
</g>
<g style="fill:#000000; fill-opacity:0.0; 
stroke:#000000; stroke-width:50; stroke-opacity:1; 
stroke-linecap:round; stroke-linejoin:round;">
<text x="39150" y="42650"
textLength="662.486" font-size="400" lengthAdjust="spacingAndGlyphs"
text-anchor="middle" opacity="0">C1</text>
<path d="M39100 42607
L39085 42621
L39042 42635
L39014 42635
L38971 42621
L38942 42592
L38928 42564
L38914 42507
L38914 42464
L38928 42407
L38942 42378
L38971 42350
L39014 42335
L39042 42335
L39085 42350
L39100 42364
" />
<path d="M39385 42635
L39214 42635
" />
<path d="M39300 42635
L39300 42335
L39271 42378
L39242 42407
L39214 42421
" />
</g>
<g style="fill:#000000; fill-opacity:0.0; 
stroke:#000000; stroke-width:59.0551; stroke-opacity:1; 
stroke-linecap:round; stroke-linejoin:round;">
<text x="28800" y="42096.9"
textLength="833.654" font-size="524.934" lengthAdjust="spacingAndGlyphs"
text-anchor="middle" opacity="0">R1</text>
<path d="M28734 42078
L28603 41890
" />
<path d="M28509 42078
L28509 41684
L28659 41684
L28696 41703
L28715 41721
L28734 41759
L28734 41815
L28715 41853
L28696 41871
L28659 41890
L28509 41890
" />
<path d="M29109 42078
L28884 42078
" />
<path d="M28996 42078
L28996 41684
L28959 41740
L28921 41778
L28884 41796
" />
<text x="40740" y="43531.5"
textLength="845.426" font-size="524.934" lengthAdjust="spacingAndGlyphs"
text-anchor="middle" opacity="0">D1</text>
<path d="M40449 43512
L40449 43119
L40543 43119
L40599 43137
L40636 43175
L40655 43212
L40674 43287
L40674 43344
L40655 43419
L40636 43456
L40599 43494
L40543 43512
L40449 43512
" />
<path d="M41049 43512
L40824 43512
" />
<path d="M40936 43512
L40936 43119
L40899 43175
L40861 43212
L40824 43231
" />
<text x="31200" y="26096.9"
textLength="789.183" font-size="524.934" lengthAdjust="spacingAndGlyphs"
text-anchor="middle" opacity="0">A6</text>
<path d="M30918 25965
L31106 25965
" />
<path d="M30881 26078
L31012 25684
L31143 26078
" />
<path d="M31443 25684
L31368 25684
L31331 25703
L31312 25721
L31274 25778
L31256 25853
L31256 26003
L31274 26040
L31293 26059
L31331 26078
L31406 26078
L31443 26059
L31462 26040
L31481 26003
L31481 25909
L31462 25871
L31443 25853
L31406 25834
L31331 25834
L31293 25853
L31274 25871
L31256 25909
" />
<text x="45200" y="34006.3"
textLength="789.183" font-size="524.934" lengthAdjust="spacingAndGlyphs"
text-anchor="middle" opacity="0">A4</text>
<path d="M44918 33875
L45106 33875
" />
<path d="M44881 33987
L45012 33593
L45143 33987
" />
<path d="M45443 33725
L45443 33987
" />
<path d="M45349 33575
L45256 33856
L45499 33856
" />
<text x="45158.7" y="18006.3"
textLength="789.183" font-size="524.934" lengthAdjust="spacingAndGlyphs"
text-anchor="middle" opacity="0">A2</text>
<path d="M44877 17875
L45064 17875
" />
<path d="M44839 17987
L44971 17593
L45102 17987
" />
<path d="M45214 17631
L45233 17612
L45271 17593
L45364 17593
L45402 17612
L45421 17631
L45439 17668
L45439 17706
L45421 17762
L45196 17987
L45439 17987
" />
<text x="45200" y="26006.3"
textLength="789.183" font-size="524.934" lengthAdjust="spacingAndGlyphs"
text-anchor="middle" opacity="0">A3</text>
<path d="M44918 25875
L45106 25875
" />
<path d="M44881 25987
L45012 25593
L45143 25987
" />
<path d="M45237 25593
L45481 25593
L45349 25743
L45406 25743
L45443 25762
L45462 25781
L45481 25818
L45481 25912
L45462 25950
L45443 25968
L45406 25987
L45293 25987
L45256 25968
L45237 25950
" />
<text x="31200" y="18096.9"
textLength="789.183" font-size="524.934" lengthAdjust="spacingAndGlyphs"
text-anchor="middle" opacity="0">A5</text>
<path d="M30918 17965
L31106 17965
" />
<path d="M30881 18078
L31012 17684
L31143 18078
" />
<path d="M31462 17684
L31274 17684
L31256 17871
L31274 17853
L31312 17834
L31406 17834
L31443 17853
L31462 17871
L31481 17909
L31481 18003
L31462 18040
L31443 18059
L31406 18078
L31312 18078
L31274 18059
L31256 18040
" />
<text x="44000" y="45796.9"
textLength="751.687" font-size="524.934" lengthAdjust="spacingAndGlyphs"
text-anchor="middle" opacity="0">J1</text>
<path d="M43868 45384
L43868 45665
L43850 45721
L43812 45759
L43756 45778
L43718 45778
" />
<path d="M44262 45778
L44037 45778
" />
<path d="M44149 45778
L44149 45384
L44112 45440
L44074 45478
L44037 45496
" />
<text x="33700" y="41096.9"
textLength="826.678" font-size="524.934" lengthAdjust="spacingAndGlyphs"
text-anchor="middle" opacity="0">Z1</text>
<path d="M33381 40684
L33643 40684
L33381 41078
L33643 41078
" />
<path d="M33999 41078
L33774 41078
" />
<path d="M33887 41078
L33887 40684
L33849 40740
L33812 40778
L33774 40796
" />
<text x="41303.9" y="38596.9"
textLength="564.211" font-size="524.934" lengthAdjust="spacingAndGlyphs"
text-anchor="middle" opacity="0">+</text>
<path d="M41153 38428
L41453 38428
" />
<path d="M41303 38578
L41303 38278
" />
<text x="29800" y="16696.9"
textLength="845.426" font-size="524.934" lengthAdjust="spacingAndGlyphs"
text-anchor="middle" opacity="0">R2</text>
<path d="M29734 16678
L29603 16490
" />
<path d="M29509 16678
L29509 16284
L29659 16284
L29696 16303
L29715 16321
L29734 16359
L29734 16415
L29715 16453
L29696 16471
L29659 16490
L29509 16490
" />
<path d="M29884 16321
L29903 16303
L29940 16284
L30034 16284
L30071 16303
L30090 16321
L30109 16359
L30109 16396
L30090 16453
L29865 16678
L30109 16678
" />
<text x="32000" y="16696.9"
textLength="845.426" font-size="524.934" lengthAdjust="spacingAndGlyphs"
text-anchor="middle" opacity="0">R3</text>
<path d="M31934 16678
L31803 16490
" />
<path d="M31709 16678
L31709 16284
L31859 16284
L31896 16303
L31915 16321
L31934 16359
L31934 16415
L31915 16453
L31896 16471
L31859 16490
L31709 16490
" />
<path d="M32065 16284
L32309 16284
L32178 16434
L32234 16434
L32271 16453
L32290 16471
L32309 16509
L32309 16603
L32290 16640
L32271 16659
L32234 16678
L32121 16678
L32084 16659
L32065 16640
" />
<text x="34109.4" y="33596.9"
textLength="751.687" font-size="524.934" lengthAdjust="spacingAndGlyphs"
text-anchor="middle" opacity="0">J4</text>
<path d="M33978 33184
L33978 33465
L33959 33521
L33921 33559
L33865 33578
L33828 33578
" />
<path d="M34334 33315
L34334 33578
" />
<path d="M34240 33165
L34146 33446
L34390 33446
" />
<g >
</g>
</g> 
</svg>
